<svg width="325" height="206" viewBox="0 0 325 206" fill="none" xmlns="http://www.w3.org/2000/svg">
<rect width="130" height="130" rx="10" fill="white"/>
<g clip-path="url(#clip0_43_8205)">
<path d="M99.0918 106.52C122.017 87.7876 125.414 54.0302 106.682 31.1048C87.9488 8.17948 54.0299 4.58446 31.1045 23.3173C8.17919 42.0501 4.78181 75.8076 23.6761 98.9306C42.2113 122.017 75.9688 125.415 99.0918 106.52Z" fill="#5C7BCB"/>
<path d="M22.491 99.8999C3.27372 76.3816 6.77953 41.5468 30.2978 22.3295C53.816 3.11222 88.4532 6.77952 107.671 30.2978C126.888 53.816 123.22 88.4532 99.8999 107.509C76.5793 126.565 41.5468 123.22 22.491 99.8999ZM105.694 31.9127C87.2843 9.38258 54.2451 6.05748 31.9127 24.3058C9.58022 42.5542 6.25512 75.5934 24.665 98.1235C42.9133 120.456 75.9525 123.781 98.285 105.533C120.617 87.2843 123.943 54.2451 105.694 31.9127Z" fill="#3A59A9"/>
<path d="M106.682 31.1049C106.52 30.9073 106.52 30.9073 106.682 31.1049L23.4786 99.0921C42.2114 122.017 75.9689 125.415 98.8942 106.682C121.82 87.9492 125.415 54.0302 106.682 31.1049Z" fill="#F5F8FF"/>
<path d="M22.491 99.8999C22.3295 99.7022 22.3295 99.7022 22.491 99.8999C22.0065 99.307 22.0788 98.5887 22.6717 98.1042L105.875 30.117C106.306 29.4349 107.186 29.7048 107.509 30.1001C126.726 53.6183 123.22 88.4532 99.8998 107.509C76.5792 126.565 41.5468 123.22 22.491 99.8999ZM106.34 32.7032L25.1132 99.0755C43.6315 120.528 76.1501 123.62 98.0873 105.694C120.222 87.6073 123.673 55.1248 106.34 32.7032Z" fill="#3A59A9"/>
</g>
<path d="M49.3601 136.135L80.5357 136.019L80.5283 134.019L49.3526 134.135L49.3601 136.135ZM84.5506 140.004L84.625 160.004L86.625 159.996L86.5506 139.996L84.5506 140.004ZM80.64 164.018L49.4643 164.134L49.4717 166.134L80.6474 166.018L80.64 164.018ZM45.4494 160.149L45.375 140.15L43.375 140.157L43.4495 160.157L45.4494 160.149ZM49.4643 164.134C47.2552 164.143 45.4577 162.358 45.4494 160.149L43.4495 160.157C43.4618 163.47 46.1581 166.147 49.4717 166.134L49.4643 164.134ZM84.625 160.004C84.6333 162.213 82.8491 164.01 80.64 164.018L80.6474 166.018C83.9611 166.006 86.6374 163.31 86.625 159.996L84.625 160.004ZM80.5357 136.019C82.7449 136.01 84.5424 137.795 84.5506 140.004L86.5506 139.996C86.5382 136.683 83.842 134.006 80.5283 134.019L80.5357 136.019ZM49.3526 134.135C46.0389 134.147 43.3627 136.843 43.375 140.157L45.375 140.15C45.3668 137.94 47.1509 136.143 49.3601 136.135L49.3526 134.135Z" fill="#2F2F2F"/>
<line x1="52" y1="169.653" x2="78" y2="169.653" stroke="#2F2F2F" stroke-linecap="round"/>
<path d="M49.3601 176.288L80.5357 176.172L80.5283 174.172L49.3526 174.288L49.3601 176.288ZM84.5506 180.157L84.625 200.157L86.625 200.149L86.5506 180.149L84.5506 180.157ZM80.64 204.171L49.4643 204.288L49.4717 206.288L80.6474 206.171L80.64 204.171ZM45.4494 200.302L45.375 180.303L43.375 180.31L43.4495 200.31L45.4494 200.302ZM49.4643 204.288C47.2552 204.296 45.4577 202.512 45.4494 200.302L43.4495 200.31C43.4618 203.624 46.1581 206.3 49.4717 206.288L49.4643 204.288ZM84.625 200.157C84.6333 202.366 82.8491 204.163 80.64 204.171L80.6474 206.171C83.9611 206.159 86.6374 203.463 86.625 200.149L84.625 200.157ZM80.5357 176.172C82.7449 176.163 84.5424 177.948 84.5506 180.157L86.5506 180.149C86.5382 176.836 83.842 174.159 80.5283 174.172L80.5357 176.172ZM49.3526 174.288C46.0389 174.3 43.3627 176.996 43.375 180.31L45.375 180.303C45.3668 178.093 47.1509 176.296 49.3601 176.288L49.3526 174.288Z" fill="#2F2F2F"/>
<path d="M66.2301 143.407L66.277 156.007L63.937 156.016L63.8974 145.378L61.2334 145.388L61.2261 143.426L66.2301 143.407Z" fill="#2F2F2F"/>
<path d="M69.229 194.016L69.2364 195.996L59.9485 196.03L59.9426 194.464L64.9289 189.694C65.4909 189.152 65.8672 188.682 66.0577 188.286C66.2602 187.877 66.3607 187.474 66.3592 187.078C66.357 186.49 66.1573 186.041 65.7602 185.731C65.363 185.42 64.7804 185.266 64.0124 185.269C62.7284 185.274 61.7461 185.716 61.0653 186.594L59.4227 185.34C59.9122 184.678 60.5703 184.166 61.397 183.803C62.2356 183.428 63.1709 183.238 64.2029 183.234C65.5709 183.229 66.6641 183.549 67.4825 184.194C68.3009 184.839 68.7121 185.72 68.7163 186.836C68.7188 187.52 68.5772 188.162 68.2915 188.763C68.0057 189.364 67.4563 190.05 66.6431 190.821L63.2891 194.038L69.229 194.016Z" fill="#2F2F2F"/>
<path d="M130 165C130 162.239 132.239 160 135 160H179C181.761 160 184 162.239 184 165V185C184 187.761 181.761 190 179 190H135C132.239 190 130 187.761 130 185V165Z" fill="#F4F4F4"/>
<path d="M135 161H179V159H135V161ZM183 165V185H185V165H183ZM179 189H135V191H179V189ZM131 185V165H129V185H131ZM135 189C132.791 189 131 187.209 131 185H129C129 188.314 131.686 191 135 191V189ZM183 185C183 187.209 181.209 189 179 189V191C182.314 191 185 188.314 185 185H183ZM179 161C181.209 161 183 162.791 183 165H185C185 161.686 182.314 159 179 159V161ZM135 159C131.686 159 129 161.686 129 165H131C131 162.791 132.791 161 135 161V159Z" fill="#D0D0D0"/>
<rect x="323.999" y="130.566" width="130" height="130" rx="10" transform="rotate(-179.75 323.999 130.566)" fill="white"/>
<g clip-path="url(#clip1_43_8205)">
<path d="M288.824 110.156C305.264 99.3894 313.91 80.9137 313.001 62.289L259.46 65.3198L288.824 110.156Z" fill="#BB94EC"/>
<path d="M258.76 64.2532C258.974 64.1134 259.187 63.9735 259.54 64.0472L312.727 60.9428C313.081 61.0165 313.434 61.0901 313.574 61.3037C313.714 61.5172 313.993 61.9442 314.133 62.1577C315.389 81.7762 305.749 100.598 289.523 111.225C288.882 111.644 288.175 111.497 287.756 110.856L258.392 66.0199C258.112 65.5929 258.186 65.2395 258.473 64.7464C258.333 64.5328 258.547 64.393 258.76 64.2532ZM311.785 63.6958L261.785 66.5431L289.192 108.39C303.644 98.3152 312.348 81.3266 311.785 63.6958Z" fill="#7017B6"/>
<path d="M235.071 113.326C251.78 121.604 272.172 121.062 288.825 110.156L259.461 65.3192L235.071 113.326Z" fill="#BB94EC"/>
<path d="M258.762 64.252C258.975 64.1121 259.189 63.9723 259.542 64.046C260.109 63.9798 260.602 64.267 260.742 64.4805L290.106 109.317C290.312 110.097 289.951 110.944 289.524 111.223C273.084 121.99 252.192 123.164 234.497 114.313C234.144 114.239 233.864 113.812 233.938 113.459C233.798 113.245 233.871 112.892 233.945 112.539L258.121 64.6715C258.335 64.5316 258.548 64.3918 258.762 64.252ZM287.058 109.788L259.512 67.7267L236.919 112.421C252.782 120.338 271.833 119.149 287.058 109.788Z" fill="#7017B6"/>
<path d="M235.071 113.326L259.461 65.3194L235.071 113.326Z" fill="#E5EAF9"/>
<path d="M258.761 64.2528C259.188 63.9731 259.541 64.0468 260.034 64.334C260.527 64.6212 260.947 65.2617 260.586 66.1082L236.41 113.975C236.123 114.469 235.482 114.888 234.636 114.527C234.496 114.314 234.142 114.24 234.142 114.24C233.863 113.813 233.936 113.46 234.224 112.966L258.12 64.6723L258.334 64.5324C258.334 64.5324 258.547 64.3926 258.761 64.2528C258.547 64.3926 258.547 64.3926 258.761 64.2528Z" fill="#3A59A9"/>
<path d="M313.001 62.2892L259.46 65.32L313.001 62.2892Z" fill="#E5EAF9"/>
<path d="M258.762 64.2518C258.976 64.112 259.189 63.9722 259.543 64.0459L312.73 60.9415C313.296 60.8753 313.79 61.1625 313.929 61.376C314.069 61.5895 314.209 61.803 314.135 62.1563C314.202 62.7232 313.701 63.3562 312.921 63.5622L259.38 66.5929C258.813 66.659 258.32 66.3719 258.18 66.1584C258.041 65.9448 257.901 65.7313 257.974 65.378C257.908 64.8112 258.335 64.5315 258.762 64.2518Z" fill="#3A59A9"/>
<path d="M205.565 68.277C206.057 77.4127 208.956 86.4972 214.269 94.6105C219.583 102.724 226.752 109.012 234.93 113.114L259.459 65.32L205.565 68.277Z" fill="#F5F8FF"/>
<path d="M204.868 67.2091C205.081 67.0693 205.295 66.9294 205.648 67.0031L259.188 63.9724C259.755 63.9062 260.248 64.1934 260.388 64.4069C260.668 64.8339 260.594 65.1873 260.307 65.6804L236.131 113.548C235.843 114.041 235.203 114.46 234.356 114.099C225.685 109.71 218.377 103.209 213.063 95.0957C207.75 86.9825 204.711 77.6844 204.153 67.9819C204.367 67.8421 204.44 67.4888 204.868 67.2091ZM257.325 66.7179L207.326 69.5652C208.105 78.2077 210.937 86.7254 215.691 93.9846C220.446 101.244 227.121 107.245 234.732 111.413L257.325 66.7179Z" fill="#7017B6"/>
<path d="M312.999 62.2902C312.508 53.1546 309.609 44.07 304.295 35.9568C298.982 27.8435 291.813 21.5556 283.635 17.4538L259.459 65.3209L312.999 62.2902Z" fill="#BB94EC"/>
<path d="M282.797 16.1721C283.224 15.8925 283.578 15.9661 284.071 16.2533C292.602 20.4288 300.051 27.1438 305.364 35.257C310.678 43.3703 313.716 52.6683 314.134 62.1573C314.2 62.7242 313.7 63.3572 312.919 63.5631L259.379 66.5939C258.812 66.66 258.319 66.3728 258.179 66.1593C257.899 65.7323 257.973 65.379 258.26 64.8858L282.297 16.8051C282.37 16.4518 282.584 16.3119 282.797 16.1721ZM311.595 61.0747C310.816 52.4323 307.983 43.9146 303.229 36.6553C298.475 29.3961 291.799 23.3953 284.188 19.2274L261.595 63.9221L311.595 61.0747Z" fill="#7017B6"/>
<path d="M259.46 65.3208L205.566 68.2779L259.46 65.3208Z" fill="#E5EAF9"/>
<path d="M204.867 67.21C205.08 67.0701 205.294 66.9303 205.647 67.004L259.187 63.9733C259.754 63.9071 260.387 64.4078 260.593 65.1881C260.593 65.1881 260.733 65.4017 260.52 65.5415C260.446 65.8948 260.232 66.0346 260.019 66.1745C259.805 66.3143 259.592 66.4541 259.378 66.594C259.378 66.594 259.378 66.594 259.165 66.7338L205.838 69.6247C205.271 69.6908 204.638 69.1902 204.432 68.4098C204.366 67.843 204.44 67.4896 204.867 67.21Z" fill="#3A59A9"/>
<path d="M229.956 20.2708C213.302 31.1775 204.656 49.6532 205.779 68.138L259.46 65.3208L229.956 20.2708Z" fill="#F5F8FF"/>
<path d="M229.258 19.2026C229.898 18.7831 230.605 18.9304 231.024 19.571L260.388 64.4074C260.668 64.8344 260.594 65.1878 260.307 65.6809C260.02 66.1741 259.806 66.3139 259.24 66.3801L205.839 69.6243C205.486 69.5506 205.132 69.477 204.993 69.2635C204.853 69.0499 204.573 68.6229 204.433 68.4094C203.178 48.791 212.817 29.9694 229.258 19.2026ZM257.135 64.0977L229.588 22.0368C214.922 32.2519 206.432 49.1007 206.995 66.7315L257.135 64.0977Z" fill="#7017B6"/>
<path d="M283.496 17.2387L259.46 65.3194L283.496 17.2387Z" fill="#E5EAF9"/>
<path d="M282.798 16.1707C283.225 15.8911 283.579 15.9648 284.072 16.2519C284.212 16.4654 284.565 16.5391 284.705 16.7526C284.985 17.1796 284.911 17.533 284.624 18.0261L260.448 65.8933C260.16 66.3865 259.52 66.806 258.673 66.4451C258.533 66.2316 258.18 66.1579 258.04 65.9444C257.761 65.5174 257.834 65.1641 258.122 64.6709L282.298 16.8037C282.371 16.4504 282.585 16.3106 282.798 16.1707Z" fill="#3A59A9"/>
<path d="M283.497 17.2398C266.788 8.96256 246.397 9.50367 229.957 20.2705L259.321 65.107L283.497 17.2398Z" fill="#BB94EC"/>
<path d="M229.257 19.2024C245.697 8.43555 266.589 7.26145 284.284 16.1131C284.638 16.1867 284.917 16.6138 285.057 16.8273C285.197 17.0408 285.123 17.3941 285.05 17.7474L260.874 65.6146C260.586 66.1078 260.373 66.2476 259.806 66.3138C259.239 66.3799 258.746 66.0927 258.606 65.8792L229.242 21.0428C228.469 20.3286 228.617 19.6219 229.257 19.2024ZM281.722 17.791C265.786 10.228 246.595 11.2036 231.723 20.6383L259.269 62.6992L281.722 17.791Z" fill="#7017B6"/>
</g>
<path d="M243.643 136.701L274.819 136.585L274.811 134.585L243.636 134.701L243.643 136.701ZM278.834 140.57L278.908 160.57L280.908 160.562L280.834 140.563L278.834 140.57ZM274.923 164.585L243.748 164.701L243.755 166.701L274.931 166.585L274.923 164.585ZM239.733 160.716L239.658 140.716L237.658 140.723L237.733 160.723L239.733 160.716ZM243.748 164.701C241.538 164.709 239.741 162.925 239.733 160.716L237.733 160.723C237.745 164.037 240.441 166.713 243.755 166.701L243.748 164.701ZM278.908 160.57C278.916 162.779 277.132 164.577 274.923 164.585L274.931 166.585C278.244 166.572 280.921 163.876 280.908 160.562L278.908 160.57ZM274.819 136.585C277.028 136.577 278.826 138.361 278.834 140.57L280.834 140.563C280.821 137.249 278.125 134.573 274.811 134.585L274.819 136.585ZM243.636 134.701C240.322 134.713 237.646 137.41 237.658 140.723L239.658 140.716C239.65 138.507 241.434 136.709 243.643 136.701L243.636 134.701Z" fill="#2F2F2F"/>
<line x1="246.283" y1="170.219" x2="272.283" y2="170.219" stroke="#2F2F2F" stroke-linecap="round"/>
<path d="M243.643 176.854L274.819 176.738L274.811 174.738L243.636 174.854L243.643 176.854ZM278.834 180.723L278.908 200.723L280.908 200.716L280.834 180.716L278.834 180.723ZM274.923 204.738L243.748 204.854L243.755 206.854L274.931 206.738L274.923 204.738ZM239.733 200.869L239.658 180.869L237.658 180.876L237.733 200.876L239.733 200.869ZM243.748 204.854C241.538 204.862 239.741 203.078 239.733 200.869L237.733 200.876C237.745 204.19 240.441 206.866 243.755 206.854L243.748 204.854ZM278.908 200.723C278.916 202.932 277.132 204.73 274.923 204.738L274.931 206.738C278.244 206.726 280.921 204.029 280.908 200.716L278.908 200.723ZM274.819 176.738C277.028 176.73 278.826 178.514 278.834 180.723L280.834 180.716C280.821 177.402 278.125 174.726 274.811 174.738L274.819 176.738ZM243.636 174.854C240.322 174.866 237.646 177.563 237.658 180.876L239.658 180.869C239.65 178.66 241.434 176.862 243.643 176.854L243.636 174.854Z" fill="#2F2F2F"/>
<path d="M263.462 154.129L261.23 154.138L261.24 157L258.972 157.008L258.962 154.146L252.05 154.172L252.044 152.552L258.223 144.411L260.725 144.401L254.904 152.181L259.026 152.166L259.017 149.628L261.213 149.62L261.222 152.158L263.454 152.149L263.462 154.129Z" fill="#2F2F2F"/>
<path d="M259.901 189.243C260.729 189.24 261.474 189.399 262.135 189.721C262.796 190.031 263.314 190.479 263.688 191.065C264.062 191.652 264.251 192.329 264.254 193.097C264.257 193.913 264.055 194.634 263.65 195.259C263.244 195.873 262.694 196.349 261.999 196.688C261.304 197.026 260.525 197.197 259.661 197.2C257.933 197.207 256.587 196.672 255.623 195.595C254.671 194.519 254.191 192.973 254.184 190.957C254.178 189.541 254.432 188.334 254.944 187.336C255.456 186.326 256.173 185.561 257.096 185.042C258.03 184.51 259.109 184.242 260.333 184.238C260.981 184.235 261.587 184.305 262.151 184.447C262.728 184.577 263.227 184.773 263.648 185.035L262.79 186.803C262.165 186.397 261.366 186.196 260.394 186.199C259.182 186.204 258.235 186.579 257.554 187.326C256.873 188.073 256.535 189.148 256.54 190.552L256.54 190.57C256.91 190.136 257.383 189.811 257.958 189.593C258.534 189.362 259.181 189.246 259.901 189.243ZM259.528 195.365C260.26 195.362 260.853 195.168 261.308 194.782C261.762 194.384 261.988 193.862 261.986 193.214C261.984 192.554 261.754 192.032 261.296 191.65C260.839 191.268 260.226 191.078 259.458 191.081C258.702 191.084 258.085 191.29 257.606 191.7C257.14 192.11 256.908 192.626 256.91 193.25C256.912 193.862 257.142 194.372 257.6 194.778C258.069 195.172 258.712 195.368 259.528 195.365Z" fill="#2F2F2F"/>
<path d="M130 165C130 162.239 132.239 160 135 160H179C181.761 160 184 162.239 184 165V185C184 187.761 181.761 190 179 190H135C132.239 190 130 187.761 130 185V165Z" fill="#369CB7"/>
<path d="M161.928 172.286L154.118 175.3L161.928 178.314V180.14L152.072 176.246V174.354L161.928 170.46V172.286Z" fill="white"/>
<path d="M135 161H179V159H135V161ZM183 165V185H185V165H183ZM179 189H135V191H179V189ZM131 185V165H129V185H131ZM135 189C132.791 189 131 187.209 131 185H129C129 188.314 131.686 191 135 191V189ZM183 185C183 187.209 181.209 189 179 189V191C182.314 191 185 188.314 185 185H183ZM179 161C181.209 161 183 162.791 183 165H185C185 161.686 182.314 159 179 159V161ZM135 159C131.686 159 129 161.686 129 165H131C131 162.791 132.791 161 135 161V159Z" fill="#369CB7"/>
<defs>
<clipPath id="clip0_43_8205">
<rect width="110" height="110" fill="white" transform="translate(10 10)"/>
</clipPath>
<clipPath id="clip1_43_8205">
<rect width="110" height="110" fill="white" transform="translate(314.043 120.523) rotate(-179.75)"/>
</clipPath>
</defs>
</svg>
