<svg width="54" height="30" viewBox="0 0 54 30" fill="none" xmlns="http://www.w3.org/2000/svg">
<path d="M0 5C0 2.23858 2.23858 0 5 0H49C51.7614 0 54 2.23858 54 5V25C54 27.7614 51.7614 30 49 30H5C2.23858 30 0 27.7614 0 25V5Z" fill="#F4F4F4"/>
<path d="M5 1H49V-1H5V1ZM53 5V25H55V5H53ZM49 29H5V31H49V29ZM1 25V5H-1V25H1ZM5 29C2.79086 29 1 27.2091 1 25H-1C-1 28.3137 1.68629 31 5 31V29ZM53 25C53 27.2091 51.2091 29 49 29V31C52.3137 31 55 28.3137 55 25H53ZM49 1C51.2091 1 53 2.79086 53 5H55C55 1.68629 52.3137 -1 49 -1V1ZM5 -1C1.68629 -1 -1 1.68629 -1 5H1C1 2.79086 2.79086 1 5 1V-1Z" fill="#D0D0D0"/>
</svg>
