<svg width="325" height="131" viewBox="0 0 325 131" fill="none" xmlns="http://www.w3.org/2000/svg">
<rect y="6.10352e-05" width="130" height="130" rx="10" fill="white"/>
<g clip-path="url(#clip0_38_8270)">
<path d="M99.0919 106.52C122.017 87.7876 125.415 54.0301 106.682 31.1048C87.949 8.17942 54.03 4.5844 31.1047 23.3172C8.17931 42.05 4.78193 75.8075 23.6762 98.9305C42.2114 122.017 75.9689 125.415 99.0919 106.52Z" fill="#5C7BCB"/>
<path d="M22.4914 99.9001C3.27408 76.3819 6.7799 41.547 30.2981 22.3298C53.8164 3.11246 88.4536 6.77976 107.671 30.298C126.888 53.8162 123.221 88.4534 99.9003 107.509C76.5797 126.565 41.5472 123.221 22.4914 99.9001ZM105.695 31.9129C87.2847 9.38282 54.2455 6.05772 31.913 24.3061C9.58059 42.5544 6.25549 75.5937 24.6653 98.1237C42.9137 120.456 75.9529 123.781 98.2854 105.533C120.618 87.2846 123.943 54.2453 105.695 31.9129Z" fill="#3A59A9"/>
<path d="M106.684 31.1053C106.522 30.9077 106.522 30.9077 106.684 31.1053L23.4805 99.0925C42.2133 122.018 75.9708 125.415 98.8961 106.682C121.821 87.9496 125.416 54.0307 106.684 31.1053Z" fill="#F5F8FF"/>
<path d="M22.4921 99.9001C22.3306 99.7025 22.3306 99.7025 22.4921 99.9001C22.0076 99.3072 22.0799 98.589 22.6728 98.1045L105.876 30.1173C106.307 29.4352 107.187 29.7051 107.51 30.1004C126.727 53.6186 123.222 88.4534 99.9009 107.509C76.5803 126.565 41.5479 123.221 22.4921 99.9001ZM106.341 32.7034L25.1143 99.0757C43.6326 120.528 76.1512 123.62 98.0884 105.694C120.223 87.6075 123.674 55.1251 106.341 32.7034Z" fill="#3A59A9"/>
</g>
<rect x="323.999" y="130.566" width="130" height="130" rx="10" transform="rotate(-179.75 323.999 130.566)" fill="white"/>
<g clip-path="url(#clip1_38_8270)">
<path d="M288.822 110.156C305.262 99.3891 313.908 80.9134 312.998 62.2888L259.458 65.3195L288.822 110.156Z" fill="#BB94EC"/>
<path d="M258.758 64.2526C258.972 64.1127 259.185 63.9729 259.539 64.0466L312.726 60.9422C313.079 61.0159 313.432 61.0895 313.572 61.303C313.712 61.5166 313.992 61.9436 314.132 62.1571C315.387 81.7756 305.747 100.597 289.521 111.224C288.88 111.644 288.174 111.496 287.754 110.856L258.39 66.0193C258.11 65.5922 258.184 65.2389 258.471 64.7457C258.331 64.5322 258.545 64.3924 258.758 64.2526ZM311.783 63.6952L261.784 66.5425L289.19 108.39C303.642 98.3146 312.347 81.326 311.783 63.6952Z" fill="#7017B6"/>
<path d="M235.071 113.326C251.78 121.603 272.171 121.062 288.825 110.155L259.461 65.3188L235.071 113.326Z" fill="#BB94EC"/>
<path d="M258.762 64.2512C258.975 64.1114 259.189 63.9716 259.542 64.0453C260.109 63.9791 260.602 64.2663 260.742 64.4798L290.106 109.316C290.312 110.097 289.951 110.943 289.524 111.223C273.084 121.99 252.192 123.164 234.497 114.312C234.144 114.238 233.864 113.811 233.938 113.458C233.798 113.245 233.872 112.891 233.945 112.538L258.121 64.6707C258.335 64.5309 258.548 64.3911 258.762 64.2512ZM287.059 109.787L259.512 67.726L236.919 112.421C252.782 120.337 271.833 119.148 287.059 109.787Z" fill="#7017B6"/>
<path d="M235.07 113.326L259.459 65.3191L235.07 113.326Z" fill="#E5EAF9"/>
<path d="M258.759 64.252C259.186 63.9723 259.54 64.046 260.033 64.3332C260.526 64.6204 260.945 65.2609 260.585 66.1074L236.408 113.975C236.121 114.468 235.481 114.887 234.634 114.526C234.494 114.313 234.141 114.239 234.141 114.239C233.861 113.812 233.935 113.459 234.222 112.966L258.119 64.6715L258.332 64.5316C258.332 64.5316 258.546 64.3918 258.759 64.252C258.546 64.3918 258.546 64.3918 258.759 64.252Z" fill="#3A59A9"/>
<path d="M312.999 62.2881L259.458 65.3188L312.999 62.2881Z" fill="#E5EAF9"/>
<path d="M258.761 64.2509C258.975 64.1111 259.188 63.9713 259.542 64.0449L312.729 60.9405C313.295 60.8744 313.789 61.1616 313.928 61.3751C314.068 61.5886 314.208 61.8021 314.134 62.1554C314.201 62.7223 313.7 63.3553 312.919 63.5612L259.379 66.592C258.812 66.6581 258.319 66.3709 258.179 66.1574C258.039 65.9439 257.9 65.7304 257.973 65.3771C257.907 64.8102 258.334 64.5306 258.761 64.2509Z" fill="#3A59A9"/>
<path d="M205.565 68.2767C206.056 77.4124 208.955 86.4969 214.269 94.6102C219.582 102.723 226.751 109.011 234.929 113.113L259.458 65.3197L205.565 68.2767Z" fill="#F5F8FF"/>
<path d="M204.866 67.2089C205.08 67.069 205.293 66.9292 205.646 67.0029L259.187 63.9722C259.754 63.906 260.247 64.1932 260.387 64.4067C260.666 64.8337 260.593 65.187 260.305 65.6802L236.129 113.547C235.842 114.041 235.202 114.46 234.355 114.099C225.684 109.71 218.375 103.209 213.062 95.0955C207.748 86.9822 204.71 77.6842 204.152 67.9817C204.365 67.8419 204.439 67.4885 204.866 67.2089ZM257.324 66.7176L207.324 69.565C208.103 78.2074 210.936 86.7251 215.69 93.9844C220.444 101.244 227.12 107.244 234.731 111.412L257.324 66.7176Z" fill="#7017B6"/>
<path d="M312.997 62.2892C312.506 53.1536 309.607 44.0691 304.293 35.9558C298.98 27.8425 291.811 21.5546 283.633 17.4528L259.457 65.32L312.997 62.2892Z" fill="#BB94EC"/>
<path d="M282.796 16.1714C283.223 15.8917 283.576 15.9654 284.069 16.2526C292.601 20.4281 300.049 27.143 305.363 35.2563C310.676 43.3696 313.715 52.6676 314.133 62.1566C314.199 62.7234 313.698 63.3564 312.918 63.5624L259.377 66.5931C258.811 66.6593 258.317 66.3721 258.178 66.1586C257.898 65.7316 257.972 65.3782 258.259 64.8851L282.295 16.8044C282.369 16.451 282.582 16.3112 282.796 16.1714ZM311.593 61.074C310.814 52.4315 307.982 43.9138 303.228 36.6546C298.473 29.3953 291.798 23.3946 284.187 19.2266L261.594 63.9213L311.593 61.074Z" fill="#7017B6"/>
<path d="M259.46 65.3203L205.566 68.2774L259.46 65.3203Z" fill="#E5EAF9"/>
<path d="M204.866 67.2092C205.079 67.0694 205.293 66.9296 205.646 67.0032L259.187 63.9725C259.753 63.9064 260.386 64.4071 260.592 65.1874C260.592 65.1874 260.732 65.4009 260.519 65.5407C260.445 65.8941 260.232 66.0339 260.018 66.1737C259.805 66.3136 259.591 66.4534 259.378 66.5932C259.378 66.5932 259.378 66.5932 259.164 66.7331L205.837 69.624C205.27 69.6901 204.637 69.1894 204.431 68.4091C204.365 67.8422 204.439 67.4889 204.866 67.2092Z" fill="#3A59A9"/>
<path d="M229.954 20.2704C213.3 31.177 204.655 49.6527 205.778 68.1375L259.458 65.3203L229.954 20.2704Z" fill="#F5F8FF"/>
<path d="M229.256 19.2019C229.897 18.7824 230.604 18.9298 231.023 19.5703L260.387 64.4067C260.667 64.8338 260.593 65.1871 260.306 65.6803C260.019 66.1734 259.805 66.3133 259.239 66.3794L205.838 69.6236C205.485 69.55 205.131 69.4763 204.992 69.2628C204.852 69.0493 204.572 68.6223 204.432 68.4088C203.177 48.7903 212.816 29.9688 229.256 19.2019ZM257.134 64.097L229.587 22.0361C214.921 32.2512 206.431 49.1 206.994 66.7308L257.134 64.097Z" fill="#7017B6"/>
<path d="M283.497 17.2384L259.461 65.3191L283.497 17.2384Z" fill="#E5EAF9"/>
<path d="M282.798 16.1705C283.225 15.8908 283.579 15.9645 284.072 16.2517C284.212 16.4652 284.565 16.5389 284.705 16.7524C284.985 17.1794 284.911 17.5327 284.624 18.0259L260.448 65.8931C260.16 66.3863 259.52 66.8057 258.673 66.4449C258.534 66.2314 258.18 66.1577 258.04 65.9442C257.761 65.5172 257.834 65.1638 258.122 64.6707L282.298 16.8035C282.371 16.4501 282.585 16.3103 282.798 16.1705Z" fill="#3A59A9"/>
<path d="M283.496 17.24C266.787 8.96274 246.396 9.50385 229.956 20.2707L259.32 65.1072L283.496 17.24Z" fill="#BB94EC"/>
<path d="M229.256 19.2022C245.696 8.43531 266.588 7.2612 284.283 16.1128C284.637 16.1865 284.916 16.6135 285.056 16.827C285.196 17.0405 285.122 17.3939 285.048 17.7472L260.872 65.6144C260.585 66.1075 260.372 66.2474 259.805 66.3135C259.238 66.3797 258.745 66.0925 258.605 65.879L229.241 21.0425C228.468 20.3283 228.615 19.6217 229.256 19.2022ZM281.721 17.7908C265.785 10.2277 246.593 11.2034 231.722 20.6381L259.268 62.699L281.721 17.7908Z" fill="#7017B6"/>
</g>
<defs>
<clipPath id="clip0_38_8270">
<rect width="110" height="110" fill="white" transform="translate(10 10.0001)"/>
</clipPath>
<clipPath id="clip1_38_8270">
<rect width="110" height="110" fill="white" transform="translate(314.042 120.522) rotate(-179.75)"/>
</clipPath>
</defs>
</svg>
