<svg width="370" height="250" viewBox="0 0 370 250" fill="none" xmlns="http://www.w3.org/2000/svg">
<g clip-path="url(#clip0_1_6801)">
<path d="M147.104 241.123C147.104 246.026 164.077 250.001 185.009 250.001C205.94 250.001 222.914 246.026 222.914 241.123C222.914 236.219 205.94 232.245 185.009 232.245C164.061 232.229 147.104 236.219 147.104 241.123Z" fill="#E6E6E7"/>
<path d="M152.073 225.465H217.442V237.724C217.442 237.74 217.442 237.74 217.442 237.756C217.442 241.858 202.801 245.175 184.749 245.175C166.697 245.175 152.057 241.842 152.057 237.74V235.544V225.465H152.073Z" fill="#5B9A73"/>
<path d="M184.749 244.245C202.801 244.245 217.442 240.928 217.442 236.826V237.691C217.442 237.707 217.442 237.707 217.442 237.723C217.442 241.825 202.801 245.142 184.749 245.142C166.697 245.142 152.057 241.809 152.057 237.707C152.057 237.707 152.057 237.274 152.057 236.81C152.073 240.912 166.697 244.245 184.749 244.245Z" fill="#4A825D"/>
<path d="M209.575 242.565C206.711 243.318 203.188 243.959 199.182 244.392V230.13L209.575 228.928V242.565Z" fill="#70B78E"/>
<path d="M199.195 243.493C203.185 243.044 206.709 242.419 209.589 241.666V242.563C209.573 242.563 209.573 242.563 209.573 242.563C208.865 242.756 208.125 242.932 207.352 243.092C207.336 243.092 207.304 243.092 207.288 243.108C206.516 243.268 205.711 243.429 204.875 243.573C204.842 243.573 204.81 243.589 204.794 243.589C203.958 243.733 203.073 243.877 202.172 244.006C202.14 244.006 202.123 244.022 202.091 244.022C201.174 244.15 200.209 244.278 199.227 244.39C199.227 244.39 199.227 244.39 199.211 244.39V243.493H199.195Z" fill="#5B9A73"/>
<path d="M152.074 225.465C152.074 229.568 166.699 232.885 184.767 232.885C202.818 232.885 217.459 229.568 217.459 225.465C217.459 221.363 202.818 218.046 184.767 218.046C166.699 218.03 152.074 221.363 152.074 225.465Z" fill="#70B78E"/>
<path d="M173.021 223.798C173.021 225.272 178.299 226.474 184.799 226.474C191.298 226.474 196.576 225.272 196.576 223.798C196.576 222.324 191.298 221.122 184.799 221.122C178.299 221.122 173.021 222.324 173.021 223.798Z" fill="#5B9A73"/>
<path d="M154.646 222.565C154.099 223.11 153.794 223.671 153.794 224.248C153.794 228.35 168.434 231.667 186.486 231.667C200.017 231.667 211.633 229.793 216.604 227.132C213.242 230.418 200.274 232.869 184.781 232.869C166.729 232.869 152.088 229.552 152.088 225.45C152.072 224.44 152.989 223.463 154.646 222.565Z" fill="#B2D7C6"/>
<path d="M226.63 44.9735C245.905 39.4604 268.929 16.0402 277.751 12.9646C283.278 11.0273 297.613 9.0636 300.58 22.0964C290.879 16.1857 282.902 18.5915 274.876 24.2669C274.616 24.4365 274.366 24.6531 274.1 24.8731C274.059 24.9144 274.019 24.9557 273.962 25.0004C273.74 25.1947 273.518 25.389 273.284 25.6023C273.231 25.6627 273.162 25.7263 273.093 25.79C272.874 26 272.656 26.21 272.437 26.42C272.356 26.5026 272.275 26.5853 272.209 26.6646C271.994 26.8903 271.778 27.116 271.563 27.3417C271.469 27.4433 271.375 27.545 271.282 27.6467C271.066 27.8723 270.854 28.1137 270.642 28.355C270.536 28.4757 270.418 28.6154 270.312 28.7361C270.115 28.9741 269.9 29.1998 269.707 29.4535C269.56 29.6155 269.417 29.7931 269.27 29.9552C269.086 30.1742 268.915 30.3742 268.731 30.5932C268.534 30.8312 268.325 31.0883 268.117 31.3453C267.998 31.485 267.895 31.6213 267.777 31.761C267.069 32.6147 266.34 33.5222 265.579 34.4363C264.52 35.7247 263.423 37.0702 262.266 38.4447C262.225 38.486 262.2 38.524 262.16 38.5653C260.149 40.9555 257.962 43.4484 255.614 45.877C255.573 45.9184 255.536 45.9754 255.496 46.0167L255.508 45.9977C255.439 46.0614 255.37 46.125 255.305 46.2044L255.224 46.2871C255.167 46.3317 255.13 46.3887 255.074 46.4334C254.424 47.0947 253.759 47.7594 253.074 48.4117C253.059 48.415 253.062 48.4307 253.046 48.434C252.378 49.083 251.687 49.7039 250.996 50.3249C250.939 50.3695 250.899 50.4109 250.842 50.4555L250.814 50.4778C250.717 50.5638 250.633 50.6308 250.536 50.7168C249.913 51.2741 249.256 51.8224 248.615 52.3673C248.518 52.4533 248.418 52.5236 248.337 52.6063C247.592 53.2058 246.828 53.793 246.064 54.3802C245.892 54.4985 245.735 54.6135 245.563 54.7318C244.892 55.2173 244.219 55.6872 243.542 56.1414C243.382 56.2407 243.238 56.3367 243.081 56.4516C242.273 56.9828 241.442 57.4859 240.604 57.9576C240.456 58.0379 240.309 58.1182 240.162 58.1985C239.44 58.5966 238.715 58.9791 237.971 59.3492C237.776 59.4394 237.569 59.5487 237.374 59.639C236.492 60.0547 235.606 60.4547 234.711 60.8076C234.604 60.8466 234.497 60.8856 234.39 60.9245C233.582 61.2262 232.771 61.5122 231.938 61.7701C231.689 61.839 231.46 61.9203 231.211 61.9891C230.267 62.2704 229.301 62.5236 228.325 62.7297C213.282 65.8584 187.324 66.8216 187.324 66.8216L185.382 57.5522L184.444 53.0334L182.366 43.0394C182.397 43.0328 207.355 50.4865 226.63 44.9735Z" fill="#AABCE0"/>
<path d="M216.758 48.1393L207.156 47.9894L201.216 63.8535C201.216 63.8535 214.814 65.4033 229.044 61.1525C217.885 61.4951 204.037 59.8508 216.758 48.1393Z" fill="#6E92D7"/>
<path d="M143.568 62.3078C123.706 64.964 93.2449 52.711 83.9228 53.4191C78.0811 53.867 64.1598 57.7905 66.6544 70.923C73.1897 61.6154 81.4522 60.6397 91.0822 62.6345C91.392 62.7001 91.7052 62.7814 92.0374 62.875C92.0912 62.8963 92.1451 62.9177 92.1989 62.9391C92.4806 63.027 92.7623 63.1149 93.063 63.2152C93.1517 63.2456 93.2246 63.2793 93.3132 63.3097C93.5982 63.4133 93.8674 63.5202 94.1715 63.6361C94.2792 63.6789 94.3869 63.7217 94.4788 63.7678C94.7671 63.887 95.0554 64.0063 95.347 64.1412C95.4738 64.1963 95.6005 64.2515 95.7273 64.3066C96.0155 64.4258 96.3072 64.5608 96.5988 64.6957C96.7446 64.7632 96.9094 64.843 97.0552 64.9105C97.3311 65.0487 97.6194 65.168 97.8986 65.3219C98.0825 65.4141 98.2854 65.5186 98.4851 65.6075C98.7262 65.7367 98.9797 65.847 99.2365 65.9729C99.5123 66.1111 99.8073 66.2618 100.102 66.4124C100.267 66.4922 100.416 66.5753 100.581 66.6552C101.573 67.1498 102.607 67.6848 103.66 68.2321C105.138 69.0009 106.686 69.7877 108.303 70.5926C108.357 70.614 108.395 70.6387 108.433 70.6634C111.242 72.0518 114.219 73.4539 117.371 74.7534C117.425 74.7748 117.482 74.8118 117.551 74.8299L117.532 74.8175C117.621 74.848 117.71 74.8784 117.802 74.9245L117.909 74.9672C117.979 74.9853 118.036 75.0223 118.106 75.0404C118.967 75.3825 119.844 75.7213 120.722 76.06C120.722 76.06 120.741 76.0724 120.757 76.0691C121.631 76.3922 122.517 76.6963 123.4 76.9847C123.47 77.0027 123.524 77.0241 123.593 77.0422L123.628 77.0512C123.736 77.094 123.856 77.1177 123.979 77.1572C124.774 77.4152 125.6 77.6665 126.403 77.8899C126.527 77.9293 126.647 77.9531 126.755 77.9958C127.682 78.2586 128.618 78.4867 129.551 78.6991C129.756 78.7375 129.946 78.7794 130.154 78.8335C130.948 79.0098 131.754 79.1671 132.573 79.3054C132.743 79.3348 132.933 79.3767 133.12 79.4028C134.074 79.5615 135.022 79.6889 135.998 79.7939C136.165 79.8077 136.332 79.8215 136.5 79.8352C137.324 79.9232 138.142 79.9797 138.972 80.0173C139.186 80.0211 139.404 80.0406 139.635 80.0411C140.594 80.0677 141.581 80.072 142.547 80.0483C142.66 80.0407 142.774 80.0331 142.887 80.0255C143.751 79.9903 144.609 79.9239 145.475 79.8227C145.718 79.8042 145.973 79.7666 146.228 79.7291C147.205 79.6047 148.191 79.4455 149.167 79.2394C164.207 76.0951 188.376 66.5836 188.376 66.5836L186.435 57.3142L185.496 52.7955L183.402 42.8048C183.362 42.8462 163.446 59.6482 143.568 62.3078Z" fill="#AABCE0"/>
<path d="M152.897 61.32L161.773 57.6434L173.128 70.2146C173.128 70.2146 161.055 76.6629 146.249 77.9562C156.777 74.1599 169.04 67.524 152.897 61.32Z" fill="#6E92D7"/>
<path d="M193.921 49.9316V223.847C193.921 223.847 192.666 225.145 184.863 225.145C176.207 225.145 175.596 223.847 175.596 223.847V49.9316H193.921Z" fill="#3A83C5"/>
<path d="M190.156 222.229C189.255 222.357 188.065 222.437 186.504 222.469V81.0996H190.156V222.229Z" fill="#AABCE0"/>
<path d="M192.36 76.725C189.496 79.2729 179.585 78.2313 177.172 77.1576V56.3896H192.36V76.725Z" fill="#3E6EAD"/>
<path d="M157.513 49.1302C157.32 48.2168 157.513 47.2713 158.044 46.422C158.913 45.076 160.586 44.0824 162.533 43.794C177.141 41.5986 192.345 41.5986 206.954 43.794C208.917 44.0824 210.606 45.076 211.459 46.4541C212.054 47.3835 212.215 48.4412 211.909 49.4187V49.4507C211.861 63.6806 199.634 75.2504 184.655 75.2504C169.628 75.2504 157.4 63.6325 157.4 49.3546V49.1462H157.513V49.1302Z" fill="#70B78E"/>
<path d="M176.467 56.2138C176.467 60.7168 180.119 64.3544 184.64 64.3544C189.161 64.3544 192.829 60.7168 192.829 56.2138C192.829 51.7109 189.161 48.0733 184.64 48.0733C180.135 48.0573 176.467 51.7109 176.467 56.2138Z" fill="#AABCE0"/>
<path d="M180.104 56.2124C180.104 58.7123 182.131 60.7314 184.641 60.7314C187.15 60.7314 189.178 58.7123 189.178 56.2124C189.178 53.7126 187.15 51.6935 184.641 51.6935C182.147 51.6774 180.104 53.7126 180.104 56.2124Z" fill="#5C88C6"/>
<path d="M66.159 67.6318C62.0242 67.6318 58.6777 70.965 58.6777 75.0833C58.6777 79.2016 62.0242 82.5348 66.159 82.5348C70.2939 82.5348 73.6403 79.2016 73.6403 75.0833C73.6403 70.965 70.2939 67.6318 66.159 67.6318ZM66.159 79.9868C63.44 79.9868 61.2359 77.7915 61.2359 75.0833C61.2359 72.3751 63.44 70.1798 66.159 70.1798C68.878 70.1798 71.0822 72.3751 71.0822 75.0833C71.0822 77.7915 68.878 79.9868 66.159 79.9868Z" fill="#4770B0"/>
<path fill-rule="evenodd" clip-rule="evenodd" d="M16.7172 190.461C16.8942 190.894 17.232 191.262 17.6986 191.471L18.3743 191.759C18.8409 191.951 19.3397 191.935 19.7741 191.775C20.2085 191.599 20.5785 191.262 20.7716 190.798L21.6243 188.811C21.8334 188.346 21.8173 187.833 21.6404 187.4C21.4956 187.032 21.206 186.743 20.8359 186.535L21.9621 183.907C22.3644 184.019 22.7827 184.019 23.1366 183.875C23.571 183.699 23.9411 183.362 24.1502 182.898L25.0029 180.91C25.196 180.446 25.196 179.949 25.019 179.5C24.8742 179.132 24.5846 178.843 24.2307 178.635L25.3569 176.007C25.7591 176.119 26.1613 176.119 26.5475 175.975C26.9819 175.799 27.3519 175.462 27.545 174.997L28.3977 173.01C28.6068 172.546 28.5907 172.049 28.4138 171.6C28.269 171.232 27.9794 170.943 27.6093 170.735L28.7355 168.107C29.1378 168.219 29.5561 168.219 29.9261 168.075C30.3605 167.898 30.7305 167.562 30.9236 167.097L31.7602 165.11C31.9694 164.645 31.9533 164.149 31.7763 163.716C31.6315 163.347 31.3419 163.043 30.9719 162.835L32.082 160.207C32.4842 160.319 32.9025 160.319 33.2726 160.175C33.707 159.998 34.077 159.662 34.2701 159.197L35.1228 157.21C35.3159 156.745 35.3159 156.249 35.1228 155.8C34.978 155.431 34.6884 155.143 34.3344 154.918L35.4607 152.29C35.8629 152.403 36.2812 152.403 36.6512 152.258C37.0856 152.082 37.4557 151.746 37.6648 151.281L38.5014 149.294C38.6945 148.829 38.6945 148.332 38.5175 147.884C38.3727 147.515 38.0831 147.227 37.7131 147.018L38.8393 144.39C39.2415 144.502 39.6598 144.502 40.0299 144.358C40.4643 144.182 40.8343 143.845 41.0274 143.381L41.8801 141.394C42.0732 140.929 42.0571 140.432 41.8962 139.999C41.7514 139.631 41.4618 139.342 41.0917 139.118L42.218 136.49C42.6202 136.602 43.0385 136.602 43.4085 136.458C43.8429 136.282 44.213 135.945 44.406 135.481L45.2588 133.493C45.4518 133.029 45.4518 132.532 45.2748 132.099C45.13 131.731 44.8404 131.426 44.4704 131.218L45.5805 128.59C45.9827 128.702 46.4011 128.702 46.7711 128.558C47.2055 128.382 47.5755 128.045 47.7847 127.58L48.6374 125.593C48.8305 125.129 48.8305 124.632 48.6374 124.183C48.4926 123.815 48.203 123.51 47.833 123.302L48.9592 120.674C49.3614 120.786 49.7797 120.786 50.1498 120.642C50.5842 120.465 50.9542 120.129 51.1633 119.664L52.0161 117.677C52.2091 117.212 52.193 116.716 52.0321 116.283C51.8873 115.914 51.5977 115.61 51.2277 115.402L52.3539 112.774C52.7561 112.886 53.1745 112.886 53.5445 112.742C53.9789 112.565 54.3489 112.229 54.542 111.764L55.3947 109.777C55.5878 109.312 55.5878 108.815 55.4108 108.367C55.266 107.998 54.9764 107.71 54.6064 107.501L55.7165 104.873C56.1187 104.986 56.537 104.986 56.9071 104.841C57.3415 104.665 57.7115 104.329 57.9046 103.864L58.7573 101.877C58.9503 101.412 58.9503 100.915 58.7734 100.483C58.6286 100.114 58.339 99.8096 57.9689 99.6013L59.079 96.9732C59.4813 97.0854 59.8996 97.0854 60.2696 96.9412C60.704 96.7649 61.0741 96.4124 61.2671 95.9637L62.1198 93.9766C62.3129 93.5119 62.3129 93.0151 62.1359 92.5825C61.9911 92.2139 61.7015 91.9255 61.3315 91.7011L62.4577 89.0731C62.8599 89.1853 63.2782 89.1853 63.6483 89.041C64.0827 88.8648 64.4527 88.5282 64.6458 88.0635L65.4985 86.0765C65.6916 85.6118 65.6916 85.115 65.5146 84.6663C65.3698 84.2977 65.0802 84.0093 64.7101 83.801L65.8364 81.1729L66.9465 83.801C66.5925 84.0093 66.3029 84.2977 66.142 84.6663C65.9651 85.099 65.9651 85.6118 66.1581 86.0765L67.0108 88.0635C67.2039 88.5282 67.5739 88.8648 68.0083 89.041C68.3784 89.1853 68.7967 89.1853 69.1989 89.0731L70.3251 91.7011C69.9551 91.9094 69.6655 92.1979 69.5207 92.5825C69.3437 93.0151 69.3437 93.5279 69.5368 93.9766L70.3734 95.9637C70.5826 96.4284 70.9365 96.7649 71.3709 96.9412C71.7409 97.0854 72.1593 97.0854 72.5454 96.9732L73.6716 99.6013C73.3177 99.8096 73.028 100.114 72.8833 100.483C72.7063 100.915 72.6902 101.412 72.8993 101.877L73.736 103.864C73.929 104.329 74.2991 104.665 74.7496 104.841C75.1196 104.986 75.5379 104.986 75.9401 104.873L77.0503 107.501C76.6963 107.71 76.4067 108.014 76.2619 108.367C76.0849 108.815 76.0688 109.312 76.2619 109.777L77.1146 111.764C77.3077 112.229 77.6777 112.565 78.1121 112.742C78.4822 112.886 78.9005 112.886 79.3027 112.774L80.4289 115.402C80.0589 115.61 79.7854 115.914 79.6245 116.283C79.4475 116.716 79.4314 117.212 79.6406 117.677L80.4933 119.664C80.6863 120.129 81.0564 120.465 81.4908 120.642C81.8608 120.786 82.2791 120.786 82.6813 120.674L83.8076 123.302C83.4536 123.51 83.164 123.815 83.0031 124.183C82.8261 124.632 82.8101 125.113 83.0192 125.593L83.8558 127.58C84.065 128.045 84.4189 128.382 84.8694 128.558C85.2395 128.702 85.6578 128.702 86.06 128.59L87.1862 131.218C86.8162 131.426 86.5266 131.731 86.3818 132.083C86.2048 132.516 86.2048 133.029 86.3979 133.477L87.2345 135.465C87.4436 135.929 87.7976 136.266 88.2481 136.442C88.6181 136.586 89.0364 136.586 89.4387 136.474L90.5649 139.102C90.2109 139.31 89.9213 139.615 89.7604 139.983C89.5835 140.416 89.5674 140.913 89.7604 141.378L90.6131 143.365C90.8062 143.829 91.1762 144.182 91.6267 144.342C91.9968 144.486 92.4151 144.486 92.8012 144.374L93.9274 147.002C93.5574 147.211 93.2839 147.499 93.123 147.868C92.946 148.3 92.9299 148.797 93.1391 149.278L93.9757 151.265C94.1688 151.73 94.5549 152.066 94.9893 152.242C95.3593 152.387 95.7776 152.387 96.1799 152.274L97.3061 154.902C96.9521 155.111 96.6464 155.415 96.5016 155.784C96.3247 156.216 96.3086 156.713 96.5177 157.194L97.3543 159.181C97.5635 159.646 97.9175 159.982 98.3679 160.159C98.738 160.303 99.1563 160.303 99.5585 160.191L100.685 162.819C100.331 163.027 100.041 163.331 99.8803 163.7C99.7033 164.133 99.6872 164.645 99.8964 165.094L100.749 167.081C100.942 167.546 101.312 167.882 101.747 168.059C102.117 168.203 102.535 168.203 102.937 168.091L104.063 170.719C103.693 170.927 103.42 171.232 103.259 171.584C103.082 172.017 103.066 172.514 103.259 172.994L104.112 174.981C104.305 175.446 104.675 175.783 105.109 175.959C105.479 176.103 105.898 176.103 106.284 175.991L107.41 178.619C107.056 178.827 106.766 179.116 106.621 179.484C106.445 179.917 106.428 180.43 106.638 180.894L107.49 182.882C107.683 183.346 108.053 183.683 108.504 183.859C108.874 184.003 109.292 184.003 109.694 183.891L110.821 186.519C110.467 186.727 110.177 187.032 110.016 187.384C109.839 187.817 109.823 188.33 110.032 188.795L110.869 190.782C111.062 191.246 111.432 191.583 111.883 191.759C112.317 191.935 112.816 191.951 113.282 191.743L113.958 191.455C114.425 191.262 114.762 190.894 114.939 190.445C115.116 190.012 115.132 189.516 114.923 189.051L114.071 187.064C113.878 186.599 113.508 186.263 113.073 186.086C112.767 185.958 112.43 185.958 112.092 186.006L110.933 183.298C111.207 183.09 111.432 182.849 111.561 182.545C111.738 182.112 111.738 181.6 111.545 181.151L110.692 179.164C110.499 178.699 110.129 178.363 109.694 178.186C109.389 178.058 109.051 178.058 108.713 178.106L107.555 175.398C107.828 175.19 108.053 174.949 108.182 174.645C108.359 174.212 108.375 173.699 108.166 173.235L107.313 171.248C107.12 170.783 106.75 170.446 106.316 170.27C106.01 170.142 105.672 170.142 105.334 170.19L104.176 167.482C104.45 167.289 104.675 167.033 104.803 166.729C104.98 166.296 104.997 165.783 104.787 165.318L103.935 163.331C103.742 162.867 103.372 162.53 102.937 162.354C102.631 162.226 102.294 162.226 101.956 162.274L100.797 159.566C101.071 159.357 101.296 159.117 101.425 158.812C101.602 158.38 101.618 157.867 101.409 157.402L100.572 155.415C100.379 154.951 100.009 154.614 99.5746 154.438C99.2689 154.31 98.9311 154.31 98.5932 154.358L97.4348 151.649C97.7083 151.441 97.9335 151.201 98.0623 150.896C98.2392 150.448 98.2553 149.951 98.0623 149.486L97.2095 147.499C97.0165 147.034 96.6464 146.698 96.196 146.522C95.8903 146.393 95.5524 146.393 95.2145 146.441L94.0561 143.733C94.3296 143.525 94.5549 143.285 94.6836 142.98C94.8606 142.547 94.8767 142.035 94.6675 141.57L93.8148 139.583C93.6217 139.118 93.2517 138.782 92.8173 138.605C92.5116 138.477 92.1738 138.477 91.8359 138.525L90.6775 135.817C90.951 135.625 91.1762 135.368 91.3049 135.064C91.4819 134.631 91.498 134.134 91.2889 133.67L90.4522 131.683C90.2592 131.218 89.8891 130.881 89.4387 130.705C89.133 130.577 88.7951 130.577 88.4572 130.625L87.2988 127.917C87.5723 127.709 87.7976 127.468 87.9263 127.164C88.1033 126.731 88.1194 126.218 87.9102 125.754L87.0575 123.766C86.8644 123.302 86.4944 122.965 86.06 122.789C85.7543 122.661 85.4165 122.661 85.0786 122.709L83.9202 120.001C84.1937 119.792 84.4189 119.552 84.5476 119.248C84.7246 118.815 84.7407 118.302 84.5476 117.837L83.6949 115.85C83.5019 115.386 83.1318 115.049 82.6813 114.873C82.3757 114.745 82.0378 114.745 81.6999 114.793L80.5415 112.085C80.815 111.876 81.0403 111.636 81.169 111.331C81.346 110.899 81.3621 110.402 81.1529 109.921L80.3163 107.934C80.1232 107.469 79.7532 107.133 79.3027 106.957C78.997 106.828 78.6591 106.828 78.3213 106.876L77.1629 104.168C77.4364 103.96 77.6616 103.72 77.7903 103.415C77.9673 102.982 77.9673 102.486 77.7743 102.005L76.9215 100.018C76.7285 99.5532 76.3584 99.2167 75.924 99.0244C75.6184 98.8962 75.2805 98.8962 74.9426 98.9443L73.7842 96.2361C74.0577 96.0278 74.283 95.7874 74.4117 95.4829C74.5887 95.0503 74.6048 94.5375 74.3956 94.0888L73.5429 92.1017C73.3498 91.637 72.9798 91.3005 72.5293 91.1242C72.2236 90.996 71.8857 90.996 71.5479 91.0441L70.4056 88.3359C70.6791 88.1276 70.9043 87.8873 71.033 87.5828C71.21 87.1501 71.2261 86.6534 71.017 86.1886L70.1642 84.2016C69.9712 83.7369 69.6011 83.4003 69.1507 83.2241C68.845 83.0959 68.5071 83.0959 68.1692 83.144L66.7212 79.7307C66.5925 79.4262 66.2708 79.25 66.0294 79.3621L65.772 79.4743L65.5146 79.3621C65.2572 79.266 64.9515 79.4262 64.8067 79.7307L63.3587 83.144C63.0208 83.0959 62.6829 83.0959 62.3773 83.2241C61.9268 83.4003 61.5728 83.7529 61.3637 84.2016L60.511 86.1886C60.3179 86.6534 60.3179 87.1501 60.511 87.5828C60.6397 87.8873 60.8649 88.1276 61.1384 88.3359L59.9961 91.0441C59.6582 90.996 59.3204 90.996 59.0147 91.1242C58.5803 91.3005 58.2103 91.637 58.0011 92.1017L57.1645 94.0888C56.9714 94.5535 56.9875 95.0503 57.1484 95.4829C57.2771 95.7874 57.5023 96.0278 57.7759 96.2361L56.6335 98.9443C56.2957 98.8962 55.9578 98.8962 55.6521 99.0244C55.2177 99.2007 54.8477 99.5372 54.6546 100.018L53.8019 102.005C53.6088 102.47 53.6249 102.966 53.7858 103.415C53.9145 103.72 54.1398 103.96 54.4133 104.168L53.2549 106.876C52.917 106.828 52.5792 106.828 52.2735 106.957C51.8391 107.133 51.469 107.469 51.2599 107.934L50.4233 109.921C50.2141 110.386 50.2302 110.883 50.4072 111.331C50.5359 111.636 50.7611 111.876 51.0346 112.085L49.8762 114.793C49.5384 114.745 49.2005 114.745 48.8948 114.873C48.4604 115.049 48.0904 115.386 47.8812 115.85L47.0285 117.837C46.8355 118.302 46.8355 118.799 47.0124 119.248C47.1411 119.552 47.3664 119.792 47.6399 120.001L46.4815 122.709C46.1436 122.661 45.8058 122.661 45.5001 122.789C45.0657 122.965 44.6956 123.302 44.5026 123.766L43.6499 125.754C43.4568 126.218 43.4568 126.731 43.6338 127.164C43.7625 127.468 43.9877 127.709 44.2612 127.917L43.1028 130.625C42.765 130.561 42.4271 130.577 42.1214 130.705C41.687 130.881 41.317 131.218 41.1078 131.683L40.2712 133.67C40.0782 134.134 40.0782 134.631 40.2551 135.064C40.3838 135.368 40.6091 135.625 40.8826 135.817L39.7242 138.525C39.3863 138.477 39.0485 138.477 38.7428 138.605C38.3084 138.782 37.9383 139.118 37.7453 139.583L36.8926 141.57C36.6995 142.035 36.6995 142.531 36.8765 142.98C37.0052 143.285 37.2304 143.525 37.5039 143.733L36.3455 146.441C36.0077 146.393 35.6698 146.393 35.3641 146.522C34.9297 146.698 34.5597 147.034 34.3505 147.499L33.4978 149.486C33.3048 149.951 33.3048 150.448 33.4817 150.896C33.6104 151.201 33.8357 151.441 34.1092 151.649L32.9669 154.358C32.629 154.31 32.2912 154.31 31.9855 154.438C31.5511 154.614 31.1649 154.951 30.9719 155.415L30.1996 157.434C30.0066 157.899 30.0066 158.412 30.1835 158.844C30.3122 159.149 30.5375 159.389 30.811 159.598L29.6526 162.306C29.3147 162.242 28.9769 162.258 28.6712 162.386C28.2368 162.562 27.8667 162.899 27.6737 163.363L26.821 165.334C26.6279 165.799 26.6279 166.312 26.8049 166.745C26.9175 167.049 27.1588 167.29 27.4323 167.498L26.2739 170.206C25.9361 170.158 25.5982 170.158 25.2925 170.286C24.8581 170.462 24.4881 170.799 24.2789 171.264L23.4423 173.251C23.2332 173.715 23.2492 174.212 23.4262 174.661C23.5549 174.965 23.7802 175.206 24.0537 175.414L22.8953 178.122C22.5574 178.074 22.2196 178.074 21.9139 178.202C21.4795 178.379 21.1094 178.715 20.9164 179.18L20.0798 181.167C19.8867 181.632 19.8867 182.128 20.0637 182.561C20.1763 182.865 20.4176 183.106 20.6911 183.314L19.5327 186.022C19.1949 185.974 18.857 185.974 18.5513 186.102C18.1169 186.279 17.7469 186.615 17.5538 187.08L16.7011 189.067C16.5241 189.532 16.5241 190.029 16.7172 190.461ZM62.7151 88.0155C62.7151 87.7911 62.6669 87.5828 62.4738 87.5027L62.1198 87.3584C61.9429 87.2783 61.7498 87.3424 61.605 87.4706C61.5567 87.4065 61.5085 87.3424 61.4763 87.2783C61.3958 87.086 61.3958 86.8777 61.4763 86.6854L62.3129 84.6983C62.3933 84.506 62.5542 84.3618 62.7312 84.2817C62.8117 84.2497 62.876 84.2497 62.9565 84.2336C62.9243 84.474 62.9886 84.7144 63.1978 84.7945L63.5517 84.9387C63.777 85.0349 64.0344 84.9067 64.1792 84.6823C64.2918 84.7624 64.3723 84.8746 64.4205 84.9868C64.501 85.1791 64.501 85.3874 64.4205 85.5797L63.5678 87.5668C63.4874 87.7591 63.3265 87.9033 63.1334 87.9834C63.0208 88.0475 62.876 88.0475 62.7151 88.0155ZM61.0741 92.887C61.1545 93.0792 61.1545 93.2876 61.0741 93.4799L60.2214 95.4669C60.1409 95.6592 59.98 95.8034 59.803 95.8836C59.6582 95.9477 59.5135 95.9477 59.3526 95.9156C59.3687 95.6913 59.3043 95.4829 59.1112 95.4028L58.7573 95.2586C58.5964 95.1945 58.3872 95.2426 58.2424 95.3868C58.1942 95.3227 58.1459 95.2586 58.1137 95.1785C58.0333 95.0022 58.0333 94.7939 58.1137 94.5856L58.9664 92.5985C59.0469 92.4062 59.2078 92.262 59.4008 92.1819C59.4652 92.1498 59.5456 92.1498 59.6261 92.1338C59.5939 92.3742 59.6582 92.6145 59.8513 92.6947L60.2053 92.8389C60.4305 92.935 60.6718 92.8068 60.8327 92.5825C60.9293 92.6626 61.0258 92.7748 61.0741 92.887ZM57.7115 100.803C57.7759 100.979 57.7759 101.188 57.7115 101.396L56.8588 103.383C56.7783 103.575 56.6175 103.72 56.4405 103.8C56.2957 103.864 56.1348 103.864 55.99 103.832C56.0061 103.607 55.9417 103.399 55.7647 103.319L55.3947 103.175C55.2338 103.095 55.0408 103.159 54.8799 103.287C54.8316 103.223 54.7833 103.159 54.7512 103.095C54.6707 102.902 54.6707 102.694 54.7512 102.502L55.6039 100.515C55.6843 100.322 55.8452 100.178 56.0222 100.098C56.1026 100.066 56.167 100.066 56.2474 100.05C56.2152 100.29 56.2796 100.531 56.4887 100.611L56.8427 100.755C57.0679 100.851 57.3254 100.723 57.4702 100.499C57.5667 100.579 57.6632 100.675 57.7115 100.803ZM52.6113 111.732C52.6274 111.508 52.5631 111.299 52.37 111.219L52.0161 111.075C51.8391 111.011 51.646 111.059 51.5012 111.203C51.4529 111.139 51.4047 111.075 51.3725 111.011C51.3081 110.835 51.2921 110.61 51.3725 110.418L52.2252 108.431C52.3057 108.239 52.4665 108.094 52.6435 108.014C52.724 107.982 52.7883 107.982 52.8688 107.966C52.8366 108.207 52.9009 108.431 53.1101 108.527L53.4641 108.671C53.6732 108.767 53.9306 108.639 54.0915 108.415C54.2041 108.495 54.2846 108.607 54.3328 108.719C54.3972 108.912 54.4133 109.12 54.3328 109.312L53.4801 111.299C53.3997 111.492 53.2388 111.636 53.0618 111.716C52.917 111.764 52.7722 111.764 52.6113 111.732ZM49.2488 119.648C49.2649 119.424 49.2005 119.215 49.0074 119.135L48.6535 118.991C48.4765 118.927 48.2995 119.007 48.1547 119.135C48.0904 119.071 48.0421 118.991 48.0099 118.911C47.9295 118.719 47.9295 118.51 48.0099 118.318L48.8466 116.331C48.9431 116.139 49.0879 115.995 49.281 115.914C49.3453 115.882 49.4258 115.882 49.5062 115.866C49.4901 116.107 49.5384 116.331 49.7475 116.427L50.1015 116.571C50.3267 116.668 50.552 116.523 50.7129 116.299C50.8255 116.379 50.922 116.491 50.9703 116.619C51.0507 116.796 51.0507 117.02 50.9703 117.212L50.1176 119.199C50.0371 119.392 49.8762 119.536 49.6993 119.616C49.5545 119.68 49.3936 119.68 49.2488 119.648ZM45.8701 127.548C45.8862 127.324 45.8219 127.116 45.6288 127.036L45.2748 126.891C45.0979 126.827 44.9209 126.875 44.76 127.02C44.7117 126.955 44.6635 126.891 44.6313 126.827C44.5669 126.651 44.5508 126.427 44.6313 126.234L45.484 124.247C45.5644 124.055 45.7253 123.911 45.9023 123.831C45.9827 123.799 46.0471 123.799 46.1275 123.783C46.0954 124.023 46.1597 124.247 46.3528 124.327L46.7067 124.472C46.932 124.568 47.1733 124.456 47.3342 124.215C47.4468 124.295 47.5434 124.407 47.5916 124.52C47.6721 124.712 47.6721 124.92 47.5916 125.113L46.755 127.1C46.6746 127.292 46.5137 127.436 46.3206 127.516C46.1919 127.58 46.031 127.58 45.8701 127.548ZM42.5076 135.448C42.5237 135.224 42.4593 135.016 42.2823 134.936L41.9284 134.791C41.7675 134.711 41.5583 134.775 41.4135 134.92C41.3653 134.856 41.317 134.791 41.2848 134.727C41.2044 134.551 41.2044 134.327 41.2848 134.134L42.1375 132.147C42.218 131.955 42.3789 131.811 42.5558 131.731C42.6202 131.699 42.7006 131.699 42.7811 131.683C42.7489 131.923 42.8133 132.147 43.0063 132.228L43.3603 132.388C43.5855 132.484 43.8429 132.356 43.9877 132.131C44.1004 132.211 44.1808 132.324 44.2291 132.436C44.3095 132.612 44.3095 132.836 44.2291 133.029L43.3764 135.016C43.2959 135.208 43.135 135.352 42.9581 135.432C42.8133 135.481 42.6685 135.481 42.5076 135.448ZM40.8665 140.336C40.9469 140.528 40.9469 140.737 40.8665 140.929L40.0299 142.916C39.9334 143.108 39.7886 143.252 39.5955 143.333C39.4507 143.397 39.2898 143.397 39.145 143.365C39.1611 143.14 39.0967 142.932 38.9037 142.852L38.5497 142.692C38.3888 142.628 38.1958 142.708 38.051 142.836C37.9866 142.772 37.9383 142.692 37.9062 142.612C37.8257 142.419 37.8257 142.211 37.9062 142.019L38.7428 140.032C38.8232 139.839 38.9841 139.695 39.1772 139.615C39.2415 139.583 39.322 139.583 39.4024 139.567C39.3863 139.807 39.4346 140.032 39.6438 140.112L39.9977 140.256C40.2229 140.352 40.4643 140.224 40.6252 139.999C40.7217 140.112 40.8182 140.224 40.8665 140.336ZM37.5039 148.252C37.5844 148.428 37.5844 148.653 37.5039 148.845L36.6673 150.832C36.5869 151.024 36.426 151.169 36.249 151.249C36.1042 151.313 35.9433 151.313 35.7985 151.281C35.8146 151.057 35.7503 150.848 35.5572 150.768L35.2032 150.608C35.0263 150.528 34.8332 150.592 34.6884 150.736C34.6401 150.672 34.5919 150.608 34.5597 150.544C34.4792 150.351 34.4792 150.143 34.5597 149.951L35.4124 147.964C35.4928 147.771 35.6537 147.627 35.8307 147.547C35.8951 147.515 35.9755 147.515 36.0559 147.499C36.0399 147.739 36.0881 147.964 36.2973 148.06L36.6512 148.204C36.8765 148.3 37.1178 148.172 37.2787 147.948C37.3591 148.028 37.4557 148.124 37.5039 148.252ZM32.4038 159.181C32.4199 158.957 32.3555 158.748 32.1625 158.668L31.8085 158.524C31.6476 158.444 31.4545 158.508 31.2937 158.652C31.2454 158.588 31.1971 158.524 31.1649 158.444C31.0845 158.268 31.0845 158.043 31.1649 157.851L32.0177 155.864C32.0981 155.656 32.259 155.527 32.436 155.447C32.5003 155.415 32.5808 155.415 32.6612 155.399C32.629 155.64 32.6934 155.864 32.8864 155.96L33.2565 156.104C33.4656 156.2 33.707 156.088 33.8518 155.88C33.9483 155.96 34.077 156.024 34.1253 156.152C34.1896 156.345 34.2057 156.553 34.1253 156.745L33.2726 158.732C33.1921 158.925 33.0312 159.069 32.8543 159.149C32.7095 159.213 32.5486 159.213 32.4038 159.181ZM30.7627 164.069C30.8432 164.261 30.8432 164.469 30.7627 164.661L29.91 166.649C29.8296 166.841 29.6687 166.985 29.4917 167.065C29.3469 167.113 29.186 167.113 29.0412 167.097C29.0573 166.873 28.993 166.665 28.7999 166.584L28.4298 166.424C28.2529 166.344 28.0598 166.408 27.915 166.536C27.8667 166.472 27.8185 166.408 27.7863 166.344C27.7059 166.168 27.7059 165.943 27.7863 165.751L28.639 163.764C28.7194 163.572 28.8803 163.412 29.0573 163.347C29.1217 163.315 29.2021 163.315 29.2826 163.299C29.2504 163.54 29.3147 163.78 29.5078 163.86L29.8618 164.02C30.087 164.117 30.3283 164.004 30.4892 163.764C30.6179 163.844 30.7145 163.94 30.7627 164.069ZM25.6626 174.997C25.6787 174.773 25.6143 174.565 25.4212 174.485L25.0673 174.324C24.8903 174.244 24.6972 174.308 24.5524 174.453C24.5042 174.388 24.4559 174.324 24.4237 174.244C24.3433 174.068 24.3433 173.844 24.4398 173.651L25.2764 171.664C25.3569 171.472 25.5178 171.328 25.7108 171.248C25.7752 171.216 25.8556 171.216 25.9361 171.2C25.92 171.44 25.9683 171.664 26.1774 171.744L26.5314 171.889C26.7405 171.985 26.9979 171.873 27.1588 171.632C27.2715 171.712 27.3519 171.824 27.4002 171.953C27.4806 172.129 27.4806 172.353 27.4002 172.546L26.5635 174.533C26.4831 174.741 26.3222 174.885 26.1291 174.949C25.9683 175.029 25.8235 175.029 25.6626 174.997ZM24.0215 179.885C24.0859 180.061 24.102 180.286 24.0215 180.478L23.1688 182.465C23.0884 182.673 22.9275 182.801 22.7505 182.882C22.6057 182.946 22.4448 182.946 22.3 182.914C22.3161 182.689 22.2517 182.481 22.0748 182.401L21.7047 182.257C21.5277 182.192 21.3508 182.273 21.206 182.401C21.1416 182.337 21.0933 182.257 21.0612 182.176C20.9807 181.984 20.9807 181.776 21.0612 181.584L21.9139 179.596C21.9943 179.404 22.1552 179.26 22.3322 179.18C22.3965 179.148 22.477 179.148 22.5574 179.132C22.5253 179.372 22.5896 179.612 22.7988 179.693L23.1527 179.837C23.378 179.917 23.6032 179.789 23.7641 179.564C23.8767 179.645 23.9732 179.757 24.0215 179.885ZM18.7926 190.782L18.1169 190.493C17.9238 190.413 17.7791 190.253 17.6986 190.061C17.6343 189.884 17.6182 189.66 17.6986 189.468L18.5352 187.481C18.6157 187.288 18.7766 187.144 18.9535 187.064C19.034 187.032 19.0983 187.032 19.1788 187.016C19.1466 187.256 19.211 187.481 19.4201 187.577L19.7741 187.737C19.9832 187.833 20.2406 187.705 20.4015 187.481C20.5141 187.561 20.5946 187.657 20.6589 187.785C20.7233 187.977 20.7394 188.186 20.6589 188.378L19.8062 190.365C19.7258 190.557 19.5649 190.702 19.3879 190.782C19.1949 190.862 18.9857 190.862 18.7926 190.782ZM111.078 187.481C111.239 187.705 111.48 187.833 111.706 187.737L112.06 187.577C112.253 187.497 112.317 187.256 112.301 187.032C112.381 187.032 112.446 187.048 112.526 187.08C112.719 187.16 112.864 187.304 112.944 187.497L113.797 189.484C113.878 189.676 113.861 189.884 113.797 190.077C113.733 190.269 113.572 190.413 113.379 190.509L112.703 190.798C112.51 190.878 112.301 190.878 112.108 190.798C111.915 190.734 111.77 190.589 111.689 190.381L110.837 188.394C110.756 188.202 110.756 187.977 110.837 187.801C110.885 187.657 110.982 187.561 111.078 187.481ZM107.732 179.564C107.893 179.789 108.134 179.917 108.343 179.837L108.697 179.693C108.89 179.612 108.954 179.388 108.938 179.132C109.019 179.132 109.099 179.148 109.164 179.18C109.341 179.26 109.501 179.404 109.582 179.596L110.435 181.584C110.515 181.776 110.515 181.984 110.435 182.176C110.402 182.257 110.354 182.321 110.29 182.401C110.145 182.273 109.968 182.192 109.791 182.257L109.437 182.401C109.244 182.481 109.196 182.689 109.196 182.914C109.035 182.946 108.89 182.946 108.745 182.882C108.568 182.801 108.407 182.673 108.327 182.465L107.474 180.478C107.394 180.286 107.394 180.061 107.474 179.885C107.522 179.757 107.619 179.645 107.732 179.564ZM104.353 171.664C104.498 171.889 104.755 172.017 104.964 171.921L105.318 171.776C105.511 171.696 105.576 171.456 105.56 171.232C105.64 171.232 105.721 171.248 105.785 171.28C105.962 171.36 106.123 171.504 106.203 171.696L107.04 173.683C107.12 173.892 107.12 174.1 107.056 174.276C107.024 174.356 106.975 174.42 106.927 174.485C106.782 174.34 106.589 174.292 106.412 174.356L106.058 174.517C105.865 174.597 105.801 174.805 105.817 175.029C105.656 175.061 105.495 175.061 105.367 174.997C105.174 174.933 105.029 174.789 104.948 174.581L104.096 172.594C104.015 172.401 104.015 172.193 104.096 172.001C104.144 171.857 104.24 171.744 104.353 171.664ZM100.974 163.764C101.119 163.988 101.377 164.117 101.602 164.02L101.956 163.86C102.149 163.78 102.213 163.54 102.197 163.299C102.278 163.299 102.342 163.315 102.422 163.347C102.599 163.412 102.76 163.572 102.841 163.764L103.693 165.751C103.774 165.943 103.774 166.168 103.693 166.344C103.661 166.424 103.613 166.488 103.565 166.536C103.42 166.408 103.227 166.344 103.05 166.424L102.696 166.568C102.519 166.649 102.454 166.857 102.454 167.081C102.294 167.113 102.149 167.113 102.004 167.049C101.811 166.969 101.666 166.825 101.586 166.632L100.733 164.645C100.653 164.453 100.653 164.245 100.733 164.053C100.781 163.94 100.878 163.844 100.974 163.764ZM97.6118 155.848C97.7727 156.072 98.014 156.2 98.2392 156.104L98.5932 155.96C98.7863 155.88 98.8506 155.64 98.8184 155.399C98.8989 155.399 98.9632 155.415 99.0437 155.447C99.2206 155.527 99.3815 155.672 99.4781 155.864L100.331 157.851C100.411 158.043 100.411 158.268 100.331 158.444C100.299 158.524 100.25 158.588 100.202 158.636C100.057 158.508 99.8642 158.444 99.6872 158.524L99.3333 158.668C99.1563 158.748 99.0758 158.957 99.0919 159.181C98.931 159.213 98.7702 159.213 98.6415 159.149C98.4484 159.069 98.3036 158.925 98.2231 158.732L97.3704 156.745C97.29 156.553 97.29 156.345 97.3704 156.152C97.4187 156.024 97.4991 155.928 97.6118 155.848ZM94.2492 147.948C94.394 148.172 94.6514 148.3 94.8767 148.204L95.2306 148.06C95.4237 147.98 95.488 147.739 95.472 147.499C95.5524 147.515 95.6328 147.515 95.6972 147.547C95.8742 147.611 96.0351 147.771 96.1316 147.964L96.9682 149.951C97.0487 150.143 97.0487 150.367 96.9682 150.544C96.936 150.608 96.8878 150.688 96.8395 150.736C96.6947 150.608 96.5016 150.544 96.3247 150.608L95.9707 150.768C95.7937 150.832 95.7294 151.057 95.7294 151.281C95.5685 151.313 95.4237 151.313 95.2789 151.249C95.0858 151.169 94.9249 151.024 94.8445 150.832L93.9918 148.845C93.9113 148.653 93.9113 148.444 93.9918 148.252C94.04 148.124 94.1366 148.028 94.2492 147.948ZM90.8706 140.032C91.0154 140.256 91.2728 140.384 91.498 140.288L91.852 140.144C92.045 140.064 92.1094 139.839 92.0933 139.599C92.1738 139.599 92.2381 139.615 92.3186 139.647C92.4955 139.727 92.6564 139.871 92.7369 140.064L93.5896 142.051C93.67 142.243 93.67 142.467 93.5896 142.644C93.5574 142.724 93.5091 142.804 93.4448 142.868C93.3 142.74 93.123 142.644 92.946 142.724L92.5921 142.884C92.4151 142.964 92.3507 143.172 92.3507 143.397C92.1898 143.429 92.045 143.429 91.9002 143.365C91.7233 143.285 91.5624 143.14 91.4819 142.948L90.6292 140.961C90.5488 140.769 90.5488 140.544 90.6292 140.368C90.6775 140.224 90.774 140.112 90.8706 140.032ZM87.508 132.131C87.6528 132.356 87.9102 132.484 88.1355 132.388L88.4894 132.228C88.6825 132.147 88.7468 131.923 88.7307 131.683C88.8112 131.683 88.8916 131.699 88.956 131.731C89.133 131.795 89.2938 131.955 89.3743 132.147L90.227 134.134C90.3074 134.327 90.3074 134.551 90.227 134.727C90.1948 134.807 90.1466 134.872 90.0983 134.92C89.9535 134.791 89.7604 134.727 89.5835 134.807L89.2295 134.952C89.0525 135.032 88.9721 135.24 88.9882 135.465C88.8434 135.497 88.6825 135.497 88.5377 135.432C88.3446 135.352 88.1998 135.208 88.1033 135.016L87.2506 133.029C87.1701 132.836 87.1701 132.612 87.2506 132.436C87.2988 132.308 87.3954 132.211 87.508 132.131ZM84.1293 124.215C84.2902 124.44 84.5316 124.568 84.7568 124.472L85.1108 124.327C85.3038 124.247 85.3682 124.023 85.3521 123.783C85.4325 123.783 85.4969 123.799 85.5773 123.831C85.7543 123.911 85.9152 124.055 85.9956 124.247L86.8323 126.234C86.9127 126.427 86.9127 126.651 86.8323 126.827C86.8001 126.891 86.7518 126.971 86.7036 127.02C86.5427 126.875 86.3657 126.827 86.1887 126.891L85.8347 127.036C85.6417 127.116 85.5934 127.324 85.5934 127.548C85.4325 127.58 85.2877 127.58 85.1429 127.516C84.9499 127.452 84.8051 127.292 84.7085 127.1L83.8558 125.113C83.7754 124.92 83.7754 124.712 83.8558 124.52C83.9363 124.407 84.0328 124.295 84.1293 124.215ZM80.7829 116.299C80.9277 116.523 81.169 116.652 81.3942 116.571L81.7482 116.427C81.9413 116.347 82.0056 116.107 81.9734 115.866C82.0539 115.866 82.1343 115.882 82.1987 115.914C82.3757 115.995 82.5365 116.139 82.617 116.331L83.4536 118.318C83.534 118.51 83.534 118.719 83.4536 118.911C83.4214 118.991 83.3732 119.055 83.3088 119.135C83.164 119.007 82.987 118.911 82.8101 118.991L82.4561 119.135C82.2791 119.215 82.2148 119.424 82.2148 119.648C82.07 119.68 81.9091 119.68 81.7643 119.616C81.5873 119.536 81.4264 119.392 81.346 119.199L80.4933 117.212C80.4128 117.004 80.4128 116.796 80.4933 116.619C80.5737 116.491 80.6702 116.379 80.7829 116.299ZM77.4042 108.399C77.549 108.623 77.8064 108.751 78.0317 108.655L78.3856 108.511C78.5787 108.431 78.6431 108.191 78.627 107.95C78.7074 107.95 78.7718 107.966 78.8522 107.998C79.0292 108.078 79.1901 108.223 79.2705 108.415L80.1232 110.402C80.2037 110.594 80.2037 110.819 80.1232 110.995C80.091 111.059 80.0428 111.139 79.9945 111.187C79.8336 111.059 79.6406 110.995 79.4797 111.059L79.1257 111.203C78.9487 111.283 78.8844 111.492 78.8844 111.716C78.7235 111.748 78.5787 111.748 78.4339 111.684C78.2408 111.604 78.0799 111.46 77.9995 111.267L77.1468 109.28C77.0663 109.088 77.0663 108.88 77.1468 108.687C77.1951 108.591 77.2916 108.479 77.4042 108.399ZM74.0256 100.499C74.1704 100.723 74.4278 100.851 74.653 100.755L75.007 100.611C75.2 100.531 75.2644 100.29 75.2322 100.05C75.3127 100.066 75.3931 100.066 75.4575 100.098C75.6344 100.178 75.7953 100.322 75.8758 100.515L76.7124 102.502C76.7928 102.694 76.7928 102.902 76.7124 103.095C76.6802 103.175 76.6319 103.239 76.5837 103.303C76.4389 103.159 76.2297 103.111 76.0688 103.175L75.7149 103.319C75.5379 103.399 75.4736 103.607 75.4896 103.832C75.3448 103.864 75.184 103.864 75.0392 103.8C74.8461 103.72 74.7013 103.575 74.6048 103.383L73.7521 101.396C73.6716 101.204 73.6716 100.979 73.7521 100.803C73.8325 100.675 73.929 100.579 74.0256 100.499ZM70.663 92.5825C70.8078 92.8068 71.0652 92.935 71.2905 92.8389L71.6444 92.6947C71.8536 92.6145 71.9018 92.3742 71.8857 92.1338C71.9662 92.1338 72.0466 92.1498 72.111 92.1819C72.3041 92.262 72.4489 92.4062 72.5454 92.5985L73.3981 94.5856C73.4785 94.7779 73.4785 95.0022 73.3981 95.1785C73.3659 95.2586 73.3177 95.3227 73.2694 95.3868C73.1246 95.2586 72.9154 95.1945 72.7545 95.2586L72.4006 95.4028C72.2075 95.4829 72.1593 95.6913 72.1593 95.9156C71.9984 95.9477 71.8536 95.9477 71.7088 95.8836C71.5318 95.8034 71.3709 95.6592 71.2905 95.4669L70.4378 93.4799C70.3573 93.2876 70.3573 93.0792 70.4378 92.887C70.4699 92.7748 70.5504 92.6626 70.663 92.5825ZM67.3004 84.6823C67.4613 84.9067 67.7027 85.0349 67.9279 84.9387L68.2819 84.7945C68.4749 84.7144 68.5393 84.474 68.5232 84.2336C68.6036 84.2336 68.668 84.2497 68.7484 84.2817C68.9415 84.3618 69.0863 84.506 69.1667 84.6983L70.0194 86.6854C70.0999 86.8777 70.0999 87.102 70.0194 87.2783C69.9873 87.3584 69.939 87.4065 69.8907 87.4706C69.7459 87.3424 69.5529 87.2783 69.3759 87.3584L69.0219 87.5027C68.845 87.5828 68.7806 87.7911 68.7967 88.0155C68.6358 88.0475 68.4749 88.0475 68.3301 87.9834C68.1531 87.9033 67.9923 87.7751 67.9118 87.5668L67.0591 85.5797C66.9787 85.3874 66.9787 85.1791 67.0591 84.9868C67.0913 84.8586 67.1878 84.7624 67.3004 84.6823Z" fill="#4770B0"/>
<path d="M115.84 190.718V190.926C115.84 204.13 93.621 214.883 66.3182 214.883C39.0155 214.883 16.7969 204.13 16.7969 190.926V190.718H115.84Z" fill="#AABCE0"/>
<path d="M111.979 192.017V192.193C111.979 203.298 91.8193 212.336 67.0586 212.336C98.7214 201.663 22.1387 203.298 22.1387 192.193V192.017H111.979Z" fill="#83A4E6"/>
<path d="M16.9746 190.445C16.9746 193.618 39.0324 196.198 66.2547 196.198C93.477 196.198 115.535 193.618 115.535 190.445C115.535 187.272 93.477 184.692 66.2547 184.692C39.0324 184.692 16.9746 187.272 16.9746 190.445Z" fill="#748FC7"/>
<path d="M31.2779 195.588C26.6925 195.059 23.0887 194.434 20.5466 193.729C18.3746 193.136 15.8809 192.207 15.8809 190.444C15.8809 188.681 18.3746 187.752 20.5466 187.159C23.0887 186.454 26.6925 185.829 31.2779 185.3C40.6255 184.21 53.046 183.602 66.255 183.602C79.4639 183.602 91.8845 184.194 101.232 185.3C105.817 185.829 109.421 186.454 111.963 187.159C114.135 187.752 116.629 188.681 116.629 190.444C116.629 192.223 114.135 193.136 111.963 193.729C109.421 194.434 105.817 195.059 101.232 195.588C91.8845 196.678 79.4639 197.287 66.255 197.287C53.046 197.287 40.6255 196.678 31.2779 195.588ZM99.7841 187.319C90.6617 186.326 78.756 185.781 66.255 185.781C53.7539 185.781 41.8482 186.326 32.7259 187.319C21.3993 188.553 18.7608 189.979 18.1816 190.444C18.7608 190.909 21.3993 192.335 32.7259 193.569C41.8482 194.562 53.7539 195.107 66.255 195.107C78.756 195.107 90.6617 194.562 99.7841 193.569C111.111 192.335 113.749 190.909 114.328 190.444C113.749 189.979 111.111 188.553 99.7841 187.319Z" fill="#C7D7F6"/>
<path d="M83.7425 195.653C95.6643 195.445 106.106 193.858 107.634 193.41C107.844 193.346 107.972 193.121 107.908 192.913C107.844 192.705 107.618 192.577 107.409 192.641C105.752 193.121 95.0208 194.644 83.7264 194.852C83.5012 194.852 83.3242 195.044 83.3242 195.269C83.3242 195.477 83.5173 195.653 83.7425 195.653Z" fill="#AABCE0"/>
<path d="M57.1256 149.983C54.6635 149.983 51.9128 149.49 51.9128 146.141C51.9128 142.792 52.0147 137.489 52.0147 137.489L45.5454 136.945C45.5454 136.843 45.5454 136.792 45.5454 136.792L44.6455 136.86L43.7456 136.792C43.7456 136.792 43.7456 136.843 43.7456 136.945L37.2763 137.489C37.2763 137.489 37.3782 142.792 37.3782 146.141C37.3782 149.49 34.6275 149.983 32.1654 149.983C29.7034 149.983 25 150.969 25 157.462C25 163.955 25 182.144 25 186.376C25 190.422 30.841 194.281 43.7456 194.621C43.7456 194.621 44.3399 194.638 44.6455 194.638C44.9342 194.638 45.5454 194.621 45.5454 194.621C58.433 194.298 64.291 190.422 64.291 186.376C64.291 182.144 64.291 163.955 64.291 157.462C64.291 150.952 59.5707 149.983 57.1256 149.983Z" fill="#871E1E"/>
<path d="M45.5633 193.807C45.5633 193.807 44.952 193.824 44.6464 193.824C44.3408 193.824 43.7295 193.807 43.7295 193.807C32.7606 193.535 26.8177 190.73 25.1367 187.433C26.0876 191.07 31.9795 194.317 43.7465 194.606C43.7465 194.606 44.3408 194.623 44.6464 194.623C44.935 194.623 45.5463 194.606 45.5463 194.606C57.2963 194.3 63.2052 191.07 64.1561 187.433C62.4921 190.73 56.5322 193.535 45.5633 193.807Z" fill="#621414"/>
<path d="M51.9328 143.948C51.9498 140.872 52.0177 137.489 52.0177 137.489L45.5484 136.945C45.5484 136.843 45.5484 136.792 45.5484 136.792L44.6485 136.86L43.7486 136.792C43.7486 136.792 43.7486 136.843 43.7486 136.945L37.2793 137.489C37.2793 137.489 37.3472 141.025 37.3642 144.135C39.3169 144.73 41.728 145.087 44.3598 145.087C47.2634 145.087 49.8952 144.662 51.9328 143.948Z" fill="#621414"/>
<path d="M53.489 157.379C53.489 155.475 53.1155 153.979 52.5212 152.823C47.7329 154.523 39.6506 156.937 33.0285 151.65C30.7362 151.65 26.3555 152.551 26.3555 158.45C26.3555 164.365 26.3555 180.293 26.3555 184.151C26.3555 187.84 31.8059 191.359 43.8106 191.648C43.8106 191.648 44.3709 191.665 44.6426 191.665C44.9143 191.665 45.4746 191.665 45.4746 191.648C48.5819 191.563 51.2307 191.274 53.489 190.832C53.489 185.052 53.489 164.586 53.489 157.379Z" fill="#A03737"/>
<path d="M44.3778 143.219C51.2516 143.219 56.8239 140.708 56.8239 137.609C56.8239 134.511 51.2516 132 44.3778 132C37.504 132 31.9316 134.511 31.9316 137.609C31.9316 140.708 37.504 143.219 44.3778 143.219Z" fill="#871E1E"/>
<path d="M51.8951 134.21C52.4045 134.771 52.6762 135.366 52.6762 136.012C52.6762 138.613 47.9898 140.737 42.1997 140.737C39.3641 140.737 36.7832 140.227 34.8984 139.394C36.4606 141.111 40.2131 142.318 44.5938 142.318C50.3839 142.318 55.0703 140.21 55.0703 137.593C55.0873 136.267 53.8647 135.06 51.8951 134.21Z" fill="#621414"/>
<path d="M45.3769 133.835C45.3769 134.583 43.5091 135.347 40.8433 135.347C38.1775 135.347 35.9531 135.432 35.9531 134.685C35.9531 133.937 38.0756 133.172 40.6395 132.815C43.2714 132.458 45.3769 133.087 45.3769 133.835Z" fill="#CC8383"/>
<path d="M31.5546 185.172C31.5546 185.869 30.9434 186.43 30.1963 186.43C29.4492 186.43 28.8379 185.869 28.8379 185.172V157.21C28.8379 156.513 29.4492 155.952 30.1963 155.952C30.9434 155.952 31.5546 156.513 31.5546 157.21V185.172Z" fill="#CC8383"/>
<path d="M41.676 168.021V177.821H38.904V170.163H37.084V168.021H41.676ZM50.7238 175.623V177.821H43.0938V176.085L46.7618 172.655C47.1165 172.319 47.3545 172.035 47.4758 171.801C47.5972 171.559 47.6578 171.316 47.6578 171.073C47.6578 170.756 47.5505 170.509 47.3358 170.331C47.1212 170.154 46.8085 170.065 46.3978 170.065C46.0338 170.065 45.6978 170.149 45.3898 170.317C45.0912 170.476 44.8438 170.709 44.6478 171.017L42.5898 169.869C42.9725 169.235 43.5092 168.735 44.1998 168.371C44.8905 168.007 45.7072 167.825 46.6498 167.825C47.3965 167.825 48.0545 167.947 48.6238 168.189C49.2025 168.432 49.6505 168.782 49.9678 169.239C50.2945 169.687 50.4578 170.21 50.4578 170.807C50.4578 171.339 50.3412 171.843 50.1078 172.319C49.8838 172.786 49.4452 173.318 48.7918 173.915L46.9438 175.623H50.7238Z" fill="white"/>
<path d="M99.1256 149.983C96.6635 149.983 93.9128 149.49 93.9128 146.141C93.9128 142.792 94.0147 137.489 94.0147 137.489L87.5454 136.945C87.5454 136.843 87.5454 136.792 87.5454 136.792L86.6455 136.86L85.7456 136.792C85.7456 136.792 85.7456 136.843 85.7456 136.945L79.2763 137.489C79.2763 137.489 79.3782 142.792 79.3782 146.141C79.3782 149.49 76.6275 149.983 74.1654 149.983C71.7034 149.983 67 150.969 67 157.462C67 163.955 67 182.144 67 186.376C67 190.422 72.841 194.281 85.7456 194.621C85.7456 194.621 86.3399 194.638 86.6455 194.638C86.9342 194.638 87.5454 194.621 87.5454 194.621C100.433 194.298 106.291 190.422 106.291 186.376C106.291 182.144 106.291 163.955 106.291 157.462C106.291 150.952 101.571 149.983 99.1256 149.983Z" fill="#871E1E"/>
<path d="M87.5633 193.807C87.5633 193.807 86.952 193.824 86.6464 193.824C86.3408 193.824 85.7295 193.807 85.7295 193.807C74.7606 193.535 68.8177 190.73 67.1367 187.433C68.0876 191.07 73.9795 194.317 85.7465 194.606C85.7465 194.606 86.3408 194.623 86.6464 194.623C86.935 194.623 87.5463 194.606 87.5463 194.606C99.2963 194.3 105.205 191.07 106.156 187.433C104.492 190.73 98.5322 193.535 87.5633 193.807Z" fill="#621414"/>
<path d="M93.9328 143.948C93.9498 140.872 94.0177 137.489 94.0177 137.489L87.5484 136.945C87.5484 136.843 87.5484 136.792 87.5484 136.792L86.6485 136.86L85.7486 136.792C85.7486 136.792 85.7486 136.843 85.7486 136.945L79.2793 137.489C79.2793 137.489 79.3472 141.025 79.3642 144.135C81.3169 144.73 83.728 145.087 86.3598 145.087C89.2634 145.087 91.8952 144.662 93.9328 143.948Z" fill="#621414"/>
<path d="M95.489 157.379C95.489 155.475 95.1155 153.979 94.5212 152.823C89.7329 154.523 81.6506 156.937 75.0285 151.65C72.7362 151.65 68.3555 152.551 68.3555 158.45C68.3555 164.365 68.3555 180.293 68.3555 184.151C68.3555 187.84 73.8059 191.359 85.8106 191.648C85.8106 191.648 86.3709 191.665 86.6426 191.665C86.9143 191.665 87.4746 191.665 87.4746 191.648C90.5819 191.563 93.2307 191.274 95.489 190.832C95.489 185.052 95.489 164.586 95.489 157.379Z" fill="#A03737"/>
<path d="M86.3778 143.219C93.2516 143.219 98.8239 140.708 98.8239 137.609C98.8239 134.511 93.2516 132 86.3778 132C79.504 132 73.9316 134.511 73.9316 137.609C73.9316 140.708 79.504 143.219 86.3778 143.219Z" fill="#871E1E"/>
<path d="M93.8951 134.21C94.4045 134.771 94.6762 135.366 94.6762 136.012C94.6762 138.613 89.9898 140.737 84.1997 140.737C81.3641 140.737 78.7832 140.227 76.8984 139.394C78.4606 141.111 82.2131 142.318 86.5938 142.318C92.3839 142.318 97.0703 140.21 97.0703 137.593C97.0873 136.267 95.8647 135.06 93.8951 134.21Z" fill="#621414"/>
<path d="M87.3769 133.835C87.3769 134.583 85.5091 135.347 82.8433 135.347C80.1775 135.347 77.9531 135.432 77.9531 134.685C77.9531 133.937 80.0756 133.172 82.6395 132.815C85.2714 132.458 87.3769 133.087 87.3769 133.835Z" fill="#CC8383"/>
<path d="M73.5546 185.172C73.5546 185.869 72.9434 186.43 72.1963 186.43C71.4492 186.43 70.8379 185.869 70.8379 185.172V157.21C70.8379 156.513 71.4492 155.952 72.1963 155.952C72.9434 155.952 73.5546 156.513 73.5546 157.21V185.172Z" fill="#CC8383"/>
<path d="M88.144 171.591C89.516 171.591 90.5287 171.871 91.182 172.431C91.8447 172.991 92.176 173.738 92.176 174.671C92.176 175.278 92.0173 175.838 91.7 176.351C91.392 176.855 90.916 177.261 90.272 177.569C89.6373 177.868 88.8487 178.017 87.906 178.017C87.2153 178.017 86.5293 177.933 85.848 177.765C85.176 177.597 84.5973 177.359 84.112 177.051L85.106 174.965C85.498 175.227 85.9273 175.427 86.394 175.567C86.87 175.707 87.346 175.777 87.822 175.777C88.298 175.777 88.676 175.689 88.956 175.511C89.2453 175.325 89.39 175.068 89.39 174.741C89.39 174.415 89.25 174.167 88.97 173.999C88.69 173.831 88.1953 173.747 87.486 173.747H84.826L85.316 168.021H91.56V170.163H87.612L87.486 171.591H88.144Z" fill="white"/>
<path d="M303.179 18.8418C299.044 18.8418 295.697 22.1749 295.697 26.2933C295.697 30.4116 299.044 33.7447 303.179 33.7447C307.313 33.7447 310.66 30.4116 310.66 26.2933C310.644 22.1749 307.297 18.8418 303.179 18.8418ZM303.179 31.1968C300.46 31.1968 298.255 29.0014 298.255 26.2933C298.255 23.5851 300.46 21.3897 303.179 21.3897C305.898 21.3897 308.102 23.5851 308.102 26.2933C308.086 29.0014 305.882 31.1968 303.179 31.1968Z" fill="#5C88C6"/>
<path fill-rule="evenodd" clip-rule="evenodd" d="M254.189 143.402C254.366 143.834 254.704 144.203 255.17 144.411L255.846 144.7C256.312 144.892 256.811 144.876 257.246 144.716C257.68 144.539 258.05 144.203 258.243 143.738L259.096 141.751C259.289 141.286 259.289 140.79 259.112 140.341C258.967 139.972 258.677 139.684 258.307 139.476L259.434 136.848C259.836 136.96 260.254 136.96 260.608 136.815C261.059 136.639 261.429 136.303 261.622 135.838L262.458 133.851C262.667 133.386 262.651 132.889 262.474 132.441C262.33 132.072 262.04 131.784 261.686 131.575L262.812 128.947C263.215 129.06 263.617 129.06 264.003 128.915C264.437 128.739 264.807 128.403 265 127.938L265.853 125.951C266.046 125.486 266.046 124.989 265.869 124.541C265.724 124.172 265.435 123.884 265.065 123.675L266.191 121.047C266.593 121.159 267.011 121.159 267.382 121.015C267.816 120.839 268.186 120.486 268.379 120.038L269.232 118.051C269.425 117.586 269.425 117.089 269.248 116.656C269.103 116.288 268.813 115.999 268.443 115.775L269.553 113.147C269.956 113.259 270.374 113.259 270.744 113.115C271.178 112.939 271.549 112.602 271.742 112.137L272.594 110.15C272.787 109.686 272.787 109.189 272.594 108.756C272.449 108.388 272.16 108.083 271.806 107.875L272.932 105.247C273.334 105.359 273.753 105.359 274.123 105.215C274.557 105.039 274.927 104.702 275.136 104.237L275.973 102.25C276.166 101.786 276.166 101.289 275.989 100.84C275.844 100.472 275.555 100.183 275.185 99.9747L276.311 97.3467C276.713 97.4589 277.131 97.4589 277.501 97.3147C277.936 97.1384 278.306 96.8019 278.499 96.3371L279.352 94.3501C279.545 93.8854 279.529 93.3886 279.368 92.9559C279.223 92.5874 278.933 92.2829 278.563 92.0746L279.689 89.4465C280.092 89.5587 280.51 89.5587 280.88 89.4145C281.314 89.2382 281.684 88.9017 281.878 88.437L282.73 86.4499C282.923 85.9852 282.923 85.4884 282.73 85.0558C282.585 84.6872 282.296 84.3988 281.926 84.1744L283.036 81.5464C283.438 81.6585 283.856 81.6585 284.226 81.5143C284.661 81.338 285.031 80.9855 285.24 80.5368L286.093 78.5498C286.286 78.085 286.286 77.5883 286.093 77.1556C285.948 76.787 285.658 76.4826 285.288 76.2743L286.398 73.6462C286.801 73.7584 287.219 73.7584 287.589 73.6142C288.023 73.4379 288.393 73.1014 288.603 72.6367L289.439 70.6496C289.632 70.1849 289.616 69.6881 289.455 69.2554C289.311 68.8869 289.021 68.5984 288.651 68.3741L289.777 65.746C290.179 65.8582 290.598 65.8582 290.968 65.714C291.402 65.5377 291.772 65.2012 291.965 64.7365L292.818 62.7494C293.011 62.2847 293.011 61.788 292.834 61.3393C292.689 60.9707 292.4 60.6823 292.03 60.4739L293.14 57.8459C293.542 57.9581 293.96 57.9581 294.33 57.8138C294.765 57.6376 295.135 57.301 295.328 56.8363L296.18 54.8493C296.374 54.3846 296.374 53.8878 296.197 53.4551C296.052 53.0866 295.762 52.7821 295.392 52.5738L296.502 49.9457C296.904 50.0579 297.323 50.0579 297.693 49.9137C298.127 49.7374 298.497 49.4009 298.69 48.9362L299.543 46.9491C299.736 46.4844 299.736 45.9876 299.559 45.555C299.414 45.1864 299.125 44.8979 298.755 44.6736L299.881 42.0456C300.283 42.1577 300.701 42.1577 301.071 42.0135C301.506 41.8372 301.876 41.5007 302.069 41.036L302.922 39.0489C303.131 38.5842 303.115 38.0875 302.938 37.6388C302.793 37.2702 302.503 36.9818 302.133 36.7734L303.26 34.1454L304.37 36.7734C304.016 36.9818 303.726 37.2702 303.565 37.6388C303.388 38.0714 303.388 38.5842 303.581 39.0489L304.434 41.036C304.627 41.5007 304.997 41.8372 305.432 42.0135C305.802 42.1577 306.22 42.1577 306.622 42.0456L307.748 44.6736C307.378 44.8819 307.089 45.1864 306.944 45.555C306.767 45.9876 306.767 46.4844 306.96 46.9491L307.797 48.9362C307.99 49.4009 308.36 49.7374 308.794 49.9137C309.164 50.0579 309.582 50.0579 309.985 49.9457L311.111 52.5738C310.757 52.7821 310.467 53.0866 310.306 53.4551C310.129 53.8878 310.113 54.3846 310.323 54.8493L311.159 56.8363C311.352 57.301 311.722 57.6376 312.173 57.8138C312.543 57.9581 312.961 57.9581 313.363 57.8459L314.473 60.4739C314.119 60.6823 313.83 60.9867 313.685 61.3393C313.508 61.7719 313.492 62.2847 313.685 62.7494L314.538 64.7365C314.731 65.2012 315.101 65.5377 315.535 65.714C315.905 65.8582 316.324 65.8582 316.726 65.746L317.852 68.3741C317.482 68.5824 317.209 68.8869 317.048 69.2554C316.871 69.6881 316.855 70.1849 317.064 70.6496L317.9 72.6367C318.093 73.1014 318.463 73.4379 318.914 73.6142C319.284 73.7584 319.702 73.7584 320.104 73.6462L321.215 76.2743C320.861 76.4826 320.571 76.787 320.41 77.1556C320.233 77.6043 320.217 78.085 320.426 78.5498L321.263 80.5368C321.472 81.0015 321.842 81.338 322.276 81.5143C322.647 81.6585 323.065 81.6585 323.467 81.5464L324.593 84.1744C324.223 84.3827 323.934 84.6872 323.789 85.0397C323.612 85.4724 323.612 85.9852 323.805 86.4339L324.642 88.421C324.835 88.8857 325.205 89.2222 325.655 89.3985C326.025 89.5427 326.443 89.5427 326.846 89.4305L327.972 92.0586C327.618 92.2669 327.328 92.5713 327.167 92.9399C326.991 93.3726 326.991 93.8693 327.167 94.3341L328.02 96.3211C328.213 96.7858 328.583 97.1384 329.034 97.2986C329.404 97.4428 329.806 97.4428 330.208 97.3307L331.334 99.9587C330.964 100.167 330.691 100.455 330.53 100.824C330.353 101.257 330.337 101.77 330.546 102.234L331.383 104.221C331.592 104.686 331.962 105.023 332.396 105.199C332.766 105.343 333.185 105.343 333.587 105.231L334.713 107.859C334.359 108.067 334.07 108.372 333.909 108.74C333.732 109.173 333.716 109.67 333.925 110.134L334.761 112.121C334.954 112.586 335.325 112.923 335.775 113.099C336.145 113.243 336.563 113.243 336.966 113.131L338.076 115.759C337.722 115.967 337.432 116.272 337.271 116.64C337.094 117.073 337.094 117.57 337.287 118.035L338.14 120.022C338.333 120.486 338.703 120.823 339.138 120.999C339.508 121.143 339.926 121.143 340.328 121.031L341.454 123.659C341.084 123.868 340.811 124.172 340.65 124.525C340.473 124.957 340.457 125.454 340.65 125.935L341.503 127.922C341.696 128.386 342.066 128.723 342.5 128.899C342.87 129.044 343.288 129.044 343.675 128.931L344.801 131.559C344.447 131.768 344.157 132.056 344.012 132.425C343.835 132.857 343.819 133.37 344.029 133.835L344.865 135.822C345.058 136.287 345.428 136.623 345.879 136.799C346.249 136.944 346.667 136.944 347.069 136.831L348.196 139.46C347.842 139.668 347.552 139.972 347.391 140.325C347.214 140.758 347.198 141.27 347.407 141.735L348.244 143.722C348.437 144.187 348.807 144.523 349.257 144.7C349.692 144.876 350.191 144.892 350.657 144.684L351.333 144.395C351.799 144.203 352.137 143.818 352.314 143.386C352.491 142.953 352.507 142.456 352.298 141.991L351.445 140.004C351.252 139.54 350.882 139.203 350.448 139.027C350.142 138.899 349.804 138.899 349.467 138.947L348.308 136.239C348.582 136.03 348.807 135.79 348.936 135.485C349.113 135.053 349.113 134.54 348.92 134.091L348.067 132.104C347.874 131.639 347.504 131.303 347.069 131.127C346.764 130.999 346.426 130.999 346.088 131.047L344.929 128.338C345.203 128.13 345.428 127.89 345.557 127.585C345.734 127.153 345.75 126.64 345.541 126.175L344.688 124.188C344.495 123.723 344.125 123.387 343.691 123.211C343.385 123.082 343.047 123.082 342.709 123.13L341.551 120.422C341.824 120.214 342.05 119.974 342.178 119.669C342.355 119.236 342.371 118.724 342.162 118.259L341.31 116.272C341.116 115.807 340.746 115.471 340.312 115.294C340.006 115.166 339.668 115.166 339.331 115.214L338.172 112.506C338.446 112.298 338.671 112.057 338.8 111.753C338.977 111.32 338.993 110.807 338.784 110.343L337.947 108.356C337.754 107.891 337.384 107.554 336.949 107.378C336.644 107.25 336.306 107.25 335.968 107.298L334.81 104.59C335.083 104.382 335.308 104.141 335.437 103.837C335.614 103.388 335.63 102.891 335.437 102.427L334.584 100.439C334.391 99.9747 334.021 99.6382 333.571 99.462C333.265 99.3338 332.927 99.3338 332.589 99.3818L331.431 96.6737C331.705 96.4653 331.93 96.225 332.058 95.9205C332.235 95.4878 332.252 94.975 332.042 94.5103L331.19 92.5233C330.997 92.0586 330.627 91.722 330.192 91.5458C329.886 91.4176 329.549 91.4176 329.211 91.4656L328.052 88.7575C328.326 88.5492 328.551 88.3088 328.68 88.0043C328.857 87.5716 328.873 87.0749 328.664 86.6102L327.827 84.6231C327.618 84.1584 327.264 83.8219 326.814 83.6296C326.508 83.5014 326.17 83.5014 325.832 83.5495L324.674 80.8413C324.947 80.633 325.172 80.3926 325.301 80.0881C325.478 79.6555 325.494 79.1427 325.285 78.678L324.432 76.6909C324.239 76.2262 323.869 75.8897 323.435 75.7134C323.129 75.5852 322.791 75.5852 322.453 75.6333L321.295 72.9251C321.569 72.7168 321.794 72.4764 321.923 72.1719C322.099 71.7393 322.116 71.2265 321.923 70.7618L321.07 68.7747C320.877 68.31 320.507 67.9735 320.056 67.7972C319.751 67.669 319.413 67.669 319.075 67.7171L317.916 65.0089C318.19 64.8006 318.415 64.5602 318.544 64.2558C318.721 63.8231 318.737 63.3103 318.528 62.8456L317.675 60.8585C317.482 60.3938 317.112 60.0573 316.661 59.881C316.356 59.7528 316.018 59.7528 315.68 59.8009L314.522 57.0927C314.795 56.8844 315.02 56.644 315.149 56.3396C315.326 55.9069 315.326 55.4101 315.133 54.9454L314.28 52.9584C314.087 52.4936 313.717 52.1571 313.283 51.9648C312.977 51.8366 312.639 51.8366 312.301 51.8847L311.143 49.1765C311.417 48.9682 311.642 48.7278 311.77 48.4234C311.947 47.9907 311.964 47.4779 311.754 47.0292L310.902 45.0422C310.709 44.5775 310.339 44.2409 309.888 44.0647C309.582 43.9365 309.245 43.9365 308.907 43.9845L307.764 41.2764C308.038 41.0681 308.263 40.8277 308.392 40.5232C308.569 40.0905 308.585 39.5938 308.376 39.1291L307.523 37.142C307.33 36.6773 306.96 36.3408 306.509 36.1645C306.204 36.0523 305.866 36.0363 305.528 36.0844L304.064 32.6711C303.935 32.3667 303.613 32.1904 303.372 32.3026L303.115 32.4147L302.857 32.3026C302.6 32.2064 302.294 32.3667 302.165 32.6711L300.717 36.0844C300.38 36.0363 300.042 36.0363 299.736 36.1645C299.286 36.3408 298.932 36.6933 298.722 37.142L297.87 39.1291C297.677 39.5938 297.677 40.0905 297.87 40.5232C297.998 40.8277 298.224 41.0681 298.497 41.2764L297.355 43.9845C297.017 43.9204 296.679 43.9365 296.374 44.0647C295.939 44.2409 295.569 44.5775 295.36 45.0422L294.523 47.0292C294.33 47.4939 294.33 47.9907 294.507 48.4234C294.636 48.7278 294.861 48.9682 295.135 49.1765L293.992 51.8847C293.655 51.8366 293.317 51.8366 293.011 51.9648C292.577 52.1411 292.207 52.4776 292.013 52.9584L291.161 54.9454C290.968 55.4101 290.984 55.9069 291.145 56.3396C291.273 56.644 291.499 56.8844 291.772 57.0927L290.614 59.8009C290.276 59.7528 289.938 59.7528 289.632 59.881C289.198 60.0573 288.828 60.3938 288.619 60.8585L287.782 62.8456C287.573 63.3103 287.589 63.8071 287.766 64.2558C287.895 64.5602 288.12 64.8006 288.393 65.0089L287.235 67.7171C286.897 67.669 286.559 67.669 286.254 67.7972C285.819 67.9735 285.449 68.31 285.24 68.7747L284.403 70.7618C284.21 71.2265 284.21 71.7233 284.387 72.1719C284.516 72.4764 284.741 72.7168 285.015 72.9251L283.856 75.6333C283.519 75.5852 283.181 75.5852 282.875 75.7134C282.441 75.8897 282.071 76.2262 281.878 76.6909L281.025 78.678C280.832 79.1427 280.832 79.6555 281.009 80.0881C281.137 80.3926 281.363 80.633 281.636 80.8413L280.478 83.5495C280.14 83.4854 279.802 83.5014 279.496 83.6296C279.046 83.8059 278.692 84.1424 278.483 84.6231L277.646 86.6102C277.453 87.0749 277.453 87.5716 277.63 88.0043C277.759 88.3088 277.984 88.5652 278.258 88.7575L277.099 91.4656C276.761 91.4176 276.423 91.4176 276.118 91.5458C275.683 91.722 275.313 92.0586 275.12 92.5233L274.268 94.5103C274.074 94.975 274.074 95.4718 274.251 95.9205C274.38 96.225 274.605 96.4653 274.879 96.6737L273.72 99.3818C273.383 99.3338 273.045 99.3338 272.739 99.462C272.305 99.6382 271.935 99.9747 271.725 100.439L270.889 102.427C270.696 102.891 270.696 103.388 270.873 103.837C271.001 104.141 271.227 104.382 271.5 104.59L270.358 107.298C270.02 107.25 269.682 107.25 269.377 107.378C268.942 107.554 268.556 107.891 268.363 108.356L267.526 110.343C267.333 110.807 267.333 111.32 267.51 111.753C267.639 112.057 267.864 112.298 268.138 112.506L266.979 115.214C266.641 115.166 266.304 115.166 265.998 115.294C265.563 115.471 265.193 115.807 265 116.272L264.148 118.259C263.955 118.724 263.955 119.236 264.132 119.669C264.244 119.974 264.486 120.214 264.759 120.422L263.601 123.13C263.263 123.082 262.925 123.082 262.619 123.211C262.185 123.387 261.815 123.723 261.606 124.188L260.769 126.175C260.56 126.64 260.576 127.137 260.753 127.585C260.882 127.89 261.107 128.13 261.38 128.338L260.222 131.047C259.884 130.999 259.546 130.999 259.241 131.127C258.806 131.303 258.436 131.639 258.243 132.104L257.39 134.091C257.197 134.556 257.197 135.053 257.374 135.485C257.503 135.79 257.728 136.03 258.002 136.239L256.843 138.947C256.505 138.899 256.168 138.899 255.862 139.027C255.428 139.203 255.057 139.556 254.864 140.004L254.012 141.991C254.012 142.472 254.012 142.969 254.189 143.402ZM300.203 40.9559C300.203 40.7315 300.154 40.5232 299.961 40.4431L299.607 40.2989C299.43 40.2187 299.237 40.2828 299.093 40.411C299.044 40.3469 298.996 40.2828 298.964 40.2187C298.899 40.0265 298.883 39.8181 298.964 39.6258L299.8 37.6388C299.881 37.4465 300.042 37.3023 300.219 37.2221C300.299 37.1901 300.364 37.1901 300.444 37.1741C300.412 37.4144 300.476 37.6548 300.685 37.7349L301.039 37.8791C301.265 37.9753 301.522 37.8471 301.667 37.6227C301.779 37.7029 301.86 37.815 301.908 37.9272C301.989 38.1195 301.989 38.3278 301.908 38.5201L301.055 40.5072C300.975 40.6995 300.814 40.8437 300.621 40.9238C300.508 40.9879 300.347 40.9879 300.203 40.9559ZM298.562 45.8274C298.642 46.0197 298.642 46.228 298.562 46.4203L297.709 48.4074C297.628 48.5997 297.468 48.7439 297.291 48.824C297.146 48.8881 296.985 48.8881 296.84 48.856C296.856 48.6317 296.792 48.4234 296.599 48.3433L296.245 48.199C296.068 48.1349 295.875 48.183 295.73 48.3272C295.682 48.2631 295.633 48.199 295.601 48.1189C295.537 47.9426 295.521 47.7343 295.601 47.526L296.438 45.5389C296.518 45.3466 296.679 45.2024 296.872 45.1223C296.937 45.0902 297.017 45.0902 297.098 45.0742C297.065 45.3146 297.13 45.555 297.323 45.6351L297.677 45.7793C297.902 45.8755 298.143 45.7473 298.304 45.5229C298.417 45.603 298.513 45.7152 298.562 45.8274ZM295.199 53.7436C295.279 53.9198 295.279 54.1282 295.199 54.3365L294.346 56.3235C294.266 56.5158 294.105 56.6601 293.928 56.7402C293.783 56.7883 293.622 56.8043 293.478 56.7722C293.494 56.5479 293.429 56.3396 293.252 56.2594L292.882 56.1152C292.721 56.0351 292.528 56.0992 292.367 56.2434C292.319 56.1793 292.271 56.1152 292.239 56.0511C292.158 55.8588 292.158 55.6505 292.239 55.4582L293.091 53.4711C293.172 53.2789 293.333 53.1346 293.51 53.0545C293.59 53.0225 293.655 53.0225 293.735 53.0064C293.703 53.2468 293.767 53.4711 293.976 53.5673L294.33 53.7115C294.555 53.8077 294.797 53.6795 294.958 53.4551C295.054 53.5192 295.151 53.6154 295.199 53.7436ZM290.099 64.6724C290.115 64.4481 290.051 64.2397 289.858 64.1596L289.504 64.0154C289.327 63.9513 289.134 63.9994 288.989 64.1436C288.94 64.0795 288.892 64.0154 288.86 63.9513C288.78 63.775 288.78 63.5507 288.86 63.3584L289.713 61.3713C289.793 61.179 289.954 61.0348 290.131 60.9547C290.212 60.9226 290.276 60.9226 290.356 60.9066C290.34 61.147 290.405 61.3713 290.598 61.4675L290.952 61.6117C291.177 61.7078 291.418 61.5796 291.579 61.3553C291.692 61.4354 291.772 61.5476 291.82 61.6598C291.901 61.8521 291.901 62.0604 291.82 62.2527L290.968 64.2397C290.887 64.432 290.726 64.5923 290.533 64.6564C290.405 64.7044 290.244 64.7044 290.099 64.6724ZM286.72 72.5886C286.736 72.3642 286.672 72.1559 286.479 72.0758L286.125 71.9316C285.948 71.8675 285.771 71.9476 285.626 72.0758C285.562 72.0117 285.514 71.9316 285.481 71.8514C285.401 71.6591 285.401 71.4508 285.481 71.2585L286.318 69.2715C286.415 69.0792 286.559 68.935 286.752 68.8548C286.817 68.8228 286.897 68.8228 286.978 68.8068C286.945 69.0471 287.01 69.2715 287.219 69.3676L287.573 69.5118C287.798 69.608 288.023 69.4638 288.184 69.2394C288.297 69.3195 288.393 69.4317 288.442 69.5599C288.522 69.7362 288.522 69.9605 288.442 70.1528L287.589 72.1399C287.509 72.3322 287.348 72.4764 287.171 72.5565C287.042 72.6206 286.881 72.6046 286.72 72.5886ZM283.358 80.4887C283.374 80.2644 283.309 80.0561 283.116 79.976L282.762 79.8317C282.602 79.7676 282.408 79.8157 282.248 79.9599C282.199 79.8958 282.151 79.8317 282.119 79.7676C282.038 79.5914 282.038 79.367 282.119 79.1747L282.972 77.1877C283.052 76.9954 283.213 76.8511 283.39 76.771C283.454 76.739 283.535 76.739 283.615 76.7229C283.583 76.9633 283.647 77.1877 283.84 77.2678L284.194 77.412C284.42 77.5082 284.661 77.396 284.822 77.1556C284.934 77.2357 285.031 77.3479 285.079 77.4601C285.144 77.6524 285.16 77.8607 285.079 78.053L284.243 80.0401C284.162 80.2323 284.001 80.3766 283.808 80.4567C283.679 80.5208 283.519 80.5208 283.358 80.4887ZM279.995 88.4049C280.011 88.1806 279.947 87.9723 279.77 87.8921L279.416 87.7479C279.255 87.6678 279.046 87.7319 278.901 87.8761C278.853 87.812 278.805 87.7479 278.772 87.6678C278.692 87.4915 278.692 87.2672 278.772 87.0749L279.625 85.0878C279.706 84.8955 279.866 84.7513 280.043 84.6712C280.108 84.6391 280.188 84.6231 280.269 84.6231C280.236 84.8635 280.301 85.0878 280.494 85.1679L280.848 85.3282C281.073 85.4243 281.314 85.2961 281.475 85.0718C281.588 85.1519 281.668 85.2641 281.717 85.3763C281.797 85.5525 281.797 85.7769 281.717 85.9692L280.864 87.9562C280.783 88.1485 280.623 88.2928 280.446 88.3729C280.301 88.421 280.14 88.421 279.995 88.4049ZM278.354 93.2764C278.435 93.4687 278.435 93.6771 278.354 93.8693L277.517 95.8564C277.421 96.0487 277.276 96.1929 277.083 96.273C276.938 96.3371 276.777 96.3371 276.633 96.3051C276.649 96.0807 276.584 95.8724 276.391 95.7923L276.037 95.6321C275.876 95.568 275.683 95.6481 275.539 95.7763C275.474 95.7122 275.426 95.6321 275.394 95.5519C275.313 95.3596 275.313 95.1513 275.394 94.959L276.23 92.972C276.311 92.7797 276.472 92.6354 276.649 92.5553C276.729 92.5233 276.793 92.5233 276.874 92.5073C276.858 92.7476 276.906 92.972 277.115 93.0521L277.469 93.1963C277.678 93.2925 277.936 93.1643 278.097 92.9399C278.209 93.0521 278.306 93.1643 278.354 93.2764ZM274.992 101.193C275.072 101.369 275.072 101.593 274.992 101.786L274.155 103.773C274.074 103.965 273.914 104.109 273.737 104.189C273.592 104.253 273.431 104.253 273.286 104.221C273.302 103.997 273.238 103.789 273.045 103.708L272.691 103.548C272.514 103.468 272.321 103.532 272.176 103.676C272.128 103.612 272.079 103.548 272.047 103.484C271.967 103.292 271.967 103.084 272.047 102.891L272.9 100.904C272.98 100.712 273.141 100.568 273.318 100.488C273.383 100.455 273.463 100.455 273.544 100.439C273.527 100.68 273.576 100.904 273.785 101L274.139 101.145C274.364 101.241 274.605 101.112 274.766 100.888C274.847 100.968 274.927 101.064 274.992 101.193ZM269.891 112.121C269.907 111.897 269.843 111.689 269.65 111.609L269.296 111.464C269.135 111.384 268.942 111.448 268.781 111.593C268.733 111.529 268.685 111.464 268.653 111.384C268.572 111.208 268.572 110.984 268.653 110.791L269.505 108.804C269.586 108.612 269.747 108.468 269.924 108.388C270.004 108.356 270.084 108.356 270.149 108.34C270.117 108.58 270.181 108.804 270.374 108.9L270.744 109.045C270.953 109.141 271.195 109.029 271.339 108.82C271.436 108.9 271.565 108.981 271.613 109.093C271.693 109.285 271.693 109.493 271.613 109.686L270.76 111.673C270.68 111.865 270.519 112.009 270.342 112.089C270.197 112.153 270.036 112.153 269.891 112.121ZM268.25 117.009C268.331 117.201 268.331 117.41 268.25 117.602L267.414 119.589C267.333 119.781 267.172 119.925 266.979 120.006C266.834 120.054 266.674 120.054 266.529 120.038C266.545 119.813 266.481 119.605 266.287 119.525L265.934 119.381C265.757 119.3 265.563 119.365 265.419 119.493C265.37 119.429 265.322 119.365 265.29 119.3C265.21 119.124 265.21 118.9 265.29 118.708L266.143 116.721C266.223 116.512 266.384 116.368 266.577 116.304C266.641 116.272 266.722 116.272 266.802 116.256C266.77 116.496 266.834 116.737 267.028 116.817L267.382 116.977C267.607 117.073 267.848 116.945 268.009 116.721C268.106 116.785 268.202 116.881 268.25 117.009ZM263.15 127.938C263.166 127.713 263.102 127.505 262.909 127.425L262.555 127.265C262.378 127.201 262.185 127.249 262.04 127.393C261.992 127.329 261.943 127.265 261.911 127.185C261.831 127.008 261.831 126.784 261.927 126.592L262.764 124.605C262.844 124.412 263.005 124.268 263.182 124.188C263.247 124.156 263.327 124.156 263.408 124.14C263.375 124.38 263.44 124.605 263.649 124.685L264.003 124.829C264.212 124.925 264.469 124.813 264.63 124.573C264.743 124.653 264.823 124.765 264.872 124.893C264.952 125.069 264.952 125.278 264.872 125.486L264.035 127.473C263.955 127.681 263.794 127.826 263.601 127.89C263.456 127.97 263.311 127.97 263.15 127.938ZM261.509 132.825C261.59 133.002 261.59 133.226 261.509 133.418L260.656 135.405C260.576 135.614 260.415 135.742 260.238 135.822C260.093 135.886 259.932 135.886 259.788 135.854C259.804 135.63 259.739 135.421 259.562 135.341L259.192 135.197C259.031 135.133 258.854 135.213 258.694 135.341C258.629 135.277 258.581 135.197 258.549 135.117C258.468 134.925 258.468 134.716 258.549 134.524L259.401 132.537C259.482 132.345 259.643 132.2 259.82 132.12C259.884 132.088 259.965 132.088 260.045 132.072C260.013 132.313 260.077 132.553 260.27 132.633L260.624 132.793C260.833 132.873 261.075 132.745 261.236 132.521C261.364 132.585 261.461 132.697 261.509 132.825ZM256.28 143.722L255.605 143.434C255.411 143.354 255.267 143.193 255.186 143.001C255.122 142.825 255.106 142.6 255.186 142.408L256.039 140.421C256.119 140.229 256.28 140.084 256.457 140.004C256.538 139.972 256.602 139.972 256.682 139.956C256.65 140.197 256.715 140.437 256.924 140.517L257.278 140.677C257.503 140.774 257.76 140.645 257.905 140.421C258.018 140.501 258.098 140.597 258.163 140.725C258.243 140.918 258.243 141.126 258.163 141.318L257.31 143.305C257.229 143.498 257.069 143.642 256.892 143.722C256.682 143.802 256.473 143.802 256.28 143.722ZM348.566 140.421C348.726 140.645 348.968 140.774 349.193 140.677L349.547 140.517C349.74 140.437 349.804 140.213 349.788 139.972C349.869 139.972 349.933 139.988 350.014 140.02C350.191 140.101 350.351 140.245 350.432 140.437L351.285 142.424C351.365 142.616 351.365 142.825 351.285 143.017C351.204 143.209 351.059 143.37 350.866 143.45L350.191 143.738C349.997 143.818 349.788 143.818 349.595 143.738C349.418 143.674 349.257 143.514 349.177 143.321L348.324 141.334C348.244 141.142 348.244 140.918 348.324 140.742C348.373 140.597 348.469 140.501 348.566 140.421ZM345.219 132.505C345.38 132.729 345.621 132.857 345.83 132.777L346.184 132.617C346.377 132.537 346.442 132.297 346.426 132.056C346.506 132.056 346.587 132.072 346.651 132.104C346.828 132.184 346.989 132.329 347.069 132.521L347.922 134.508C348.002 134.7 348.002 134.909 347.922 135.101C347.89 135.181 347.842 135.245 347.777 135.325C347.632 135.197 347.455 135.117 347.278 135.181L346.925 135.325C346.731 135.405 346.683 135.614 346.683 135.838C346.538 135.87 346.378 135.87 346.233 135.806C346.056 135.726 345.879 135.598 345.798 135.389L344.946 133.402C344.865 133.21 344.865 132.986 344.946 132.809C345.01 132.697 345.106 132.585 345.219 132.505ZM341.84 124.605C341.985 124.829 342.243 124.957 342.452 124.861L342.806 124.717C342.999 124.637 343.063 124.396 343.047 124.172C343.128 124.172 343.192 124.188 343.272 124.22C343.449 124.3 343.61 124.444 343.691 124.637L344.543 126.624C344.624 126.832 344.624 127.04 344.559 127.217C344.527 127.297 344.479 127.361 344.431 127.425C344.286 127.281 344.093 127.233 343.916 127.297L343.562 127.457C343.369 127.537 343.321 127.746 343.321 127.97C343.16 128.002 342.999 128.002 342.87 127.954C342.677 127.874 342.532 127.729 342.452 127.537L341.599 125.55C341.503 125.358 341.519 125.15 341.599 124.957C341.631 124.797 341.728 124.685 341.84 124.605ZM338.462 116.705C338.607 116.929 338.864 117.057 339.089 116.961L339.443 116.801C339.636 116.721 339.701 116.496 339.685 116.24C339.765 116.24 339.829 116.256 339.91 116.288C340.087 116.352 340.248 116.496 340.328 116.705L341.181 118.692C341.261 118.884 341.261 119.108 341.181 119.284C341.149 119.365 341.1 119.429 341.052 119.477C340.907 119.349 340.698 119.284 340.537 119.365L340.183 119.509C340.006 119.589 339.942 119.797 339.942 120.022C339.781 120.054 339.636 120.054 339.492 119.99C339.298 119.909 339.154 119.765 339.073 119.573L338.22 117.586C338.14 117.394 338.14 117.185 338.22 116.993C338.269 116.881 338.365 116.785 338.462 116.705ZM335.099 108.788C335.244 109.013 335.501 109.141 335.727 109.045L336.081 108.9C336.274 108.82 336.338 108.58 336.306 108.34C336.386 108.34 336.451 108.356 336.531 108.388C336.708 108.468 336.869 108.612 336.949 108.804L337.802 110.791C337.883 110.984 337.883 111.192 337.802 111.384C337.77 111.464 337.722 111.529 337.673 111.577C337.513 111.448 337.336 111.384 337.159 111.464L336.805 111.609C336.628 111.689 336.563 111.897 336.563 112.121C336.402 112.153 336.242 112.153 336.113 112.105C335.92 112.025 335.775 111.881 335.695 111.689L334.858 109.702C334.777 109.509 334.777 109.301 334.858 109.109C334.89 108.965 334.987 108.868 335.099 108.788ZM331.721 100.888C331.881 101.112 332.123 101.241 332.348 101.145L332.702 101C332.895 100.92 332.959 100.68 332.943 100.439C333.024 100.455 333.104 100.455 333.169 100.488C333.346 100.568 333.506 100.712 333.587 100.904L334.44 102.891C334.52 103.084 334.52 103.308 334.44 103.484C334.407 103.548 334.359 103.628 334.311 103.676C334.166 103.548 333.973 103.484 333.796 103.548L333.442 103.708C333.265 103.789 333.201 103.997 333.201 104.221C333.04 104.253 332.895 104.253 332.75 104.189C332.557 104.109 332.396 103.965 332.316 103.773L331.463 101.786C331.383 101.593 331.383 101.385 331.463 101.193C331.528 101.064 331.624 100.968 331.721 100.888ZM328.358 92.972C328.503 93.1963 328.76 93.3245 328.986 93.2284L329.339 93.0841C329.533 93.004 329.597 92.7797 329.581 92.5393C329.661 92.5393 329.726 92.5553 329.806 92.5874C329.983 92.6515 330.144 92.8117 330.224 93.004L331.077 94.9911C331.157 95.1834 331.157 95.4077 331.077 95.584C331.045 95.6641 330.997 95.7442 330.932 95.8083C330.787 95.6641 330.61 95.584 330.433 95.6641L330.08 95.8243C329.903 95.9045 329.838 96.1128 329.838 96.3371C329.693 96.3692 329.533 96.3692 329.388 96.3051C329.211 96.225 329.05 96.0807 328.969 95.8885L328.133 93.9014C328.052 93.7091 328.052 93.4848 328.133 93.3085C328.165 93.1643 328.245 93.0521 328.358 92.972ZM324.995 85.0558C325.14 85.2801 325.398 85.4083 325.623 85.3122L325.977 85.1519C326.17 85.0718 326.234 84.8475 326.218 84.6071C326.299 84.6071 326.379 84.6231 326.443 84.6552C326.62 84.7193 326.781 84.8635 326.862 85.0718L327.714 87.0589C327.795 87.2512 327.795 87.4755 327.714 87.6518C327.682 87.7319 327.634 87.796 327.586 87.8441C327.441 87.7159 327.248 87.6518 327.071 87.7319L326.717 87.8761C326.54 87.9562 326.476 88.1646 326.476 88.3889C326.315 88.421 326.17 88.421 326.025 88.3569C325.832 88.2767 325.687 88.1485 325.591 87.9402L324.738 85.9532C324.658 85.7609 324.658 85.5365 324.738 85.3602C324.786 85.2481 324.883 85.1519 324.995 85.0558ZM321.617 77.1556C321.762 77.38 322.019 77.5082 322.244 77.412L322.598 77.2678C322.791 77.1877 322.856 76.9473 322.84 76.7229C322.92 76.7229 323 76.739 323.065 76.771C323.242 76.8511 323.403 76.9954 323.499 77.1877L324.336 79.1747C324.416 79.367 324.416 79.5914 324.336 79.7676C324.304 79.8317 324.255 79.9119 324.207 79.9599C324.046 79.8157 323.853 79.7676 323.692 79.8317L323.338 79.976C323.145 80.0561 323.081 80.2644 323.097 80.4887C322.936 80.5208 322.791 80.5208 322.647 80.4567C322.453 80.3926 322.293 80.2323 322.212 80.0401L321.376 78.053C321.295 77.8607 321.295 77.6524 321.376 77.4601C321.424 77.3479 321.52 77.2357 321.617 77.1556ZM318.27 69.2394C318.415 69.4638 318.673 69.592 318.882 69.5118L319.236 69.3676C319.429 69.2875 319.493 69.0471 319.461 68.8068C319.541 68.8068 319.622 68.8228 319.686 68.8548C319.863 68.935 320.024 69.0792 320.104 69.2715L320.941 71.2585C321.022 71.4508 321.022 71.6591 320.941 71.8514C320.909 71.9316 320.861 71.9957 320.796 72.0758C320.652 71.9476 320.475 71.8514 320.298 71.9316L319.944 72.0758C319.767 72.1559 319.702 72.3642 319.702 72.5886C319.557 72.6206 319.397 72.6206 319.252 72.5565C319.075 72.4764 318.914 72.3322 318.833 72.1399L317.981 70.1528C317.9 69.9445 317.9 69.7362 317.981 69.5599C318.061 69.4317 318.158 69.3195 318.27 69.2394ZM314.892 61.3393C315.053 61.5636 315.294 61.6918 315.519 61.5957L315.873 61.4514C316.066 61.3713 316.131 61.1309 316.114 60.8906C316.195 60.8906 316.259 60.9066 316.34 60.9386C316.517 61.0188 316.694 61.163 316.758 61.3553L317.611 63.3423C317.691 63.5346 317.691 63.759 317.611 63.9353C317.579 64.0154 317.53 64.0795 317.482 64.1276C317.337 63.9994 317.128 63.9353 316.967 63.9994L316.613 64.1436C316.436 64.2237 316.356 64.432 316.372 64.6564C316.227 64.6884 316.066 64.6884 315.921 64.6403C315.728 64.5762 315.567 64.416 315.487 64.2237L314.65 62.2366C314.57 62.0443 314.57 61.836 314.65 61.6437C314.683 61.5316 314.779 61.4194 314.892 61.3393ZM311.513 53.4391C311.674 53.6634 311.915 53.7916 312.141 53.6955L312.494 53.5513C312.688 53.4711 312.752 53.2308 312.72 52.9904C312.8 52.9904 312.881 53.0064 312.945 53.0385C313.122 53.1186 313.283 53.2628 313.363 53.4551L314.216 55.4422C314.296 55.6345 314.296 55.8428 314.216 56.0351C314.184 56.1152 314.136 56.1793 314.087 56.2434C313.942 56.0992 313.733 56.0511 313.572 56.1152L313.218 56.2594C313.042 56.3396 312.977 56.5479 312.993 56.7722C312.848 56.8043 312.688 56.8043 312.543 56.7402C312.35 56.6601 312.205 56.5158 312.108 56.3235L311.272 54.3365C311.191 54.1442 311.191 53.9198 311.272 53.7436C311.32 53.6154 311.417 53.5192 311.513 53.4391ZM308.151 45.5229C308.295 45.7473 308.553 45.8755 308.778 45.7793L309.132 45.6351C309.325 45.555 309.389 45.3146 309.373 45.0742C309.454 45.0742 309.534 45.0902 309.599 45.1223C309.792 45.2024 309.936 45.3466 310.033 45.5389L310.886 47.526C310.966 47.7183 310.966 47.9266 310.886 48.1189C310.853 48.199 310.805 48.2631 310.757 48.3272C310.612 48.199 310.403 48.1349 310.242 48.199L309.888 48.3433C309.695 48.4234 309.631 48.6317 309.647 48.856C309.486 48.8881 309.341 48.8881 309.196 48.824C309.019 48.7439 308.858 48.5997 308.778 48.4074L307.941 46.4203C307.861 46.228 307.861 46.0197 307.941 45.8274C307.957 45.7152 308.038 45.603 308.151 45.5229ZM304.788 37.6227C304.949 37.8471 305.19 37.9753 305.415 37.8791L305.769 37.7349C305.962 37.6548 306.027 37.4144 306.011 37.1741C306.091 37.1741 306.172 37.1901 306.236 37.2221C306.429 37.3023 306.574 37.4465 306.67 37.6388L307.523 39.6258C307.603 39.8181 307.603 40.0425 307.523 40.2187C307.491 40.2989 307.443 40.3469 307.394 40.411C307.25 40.2828 307.056 40.2187 306.879 40.2989L306.526 40.4431C306.349 40.5232 306.284 40.7315 306.3 40.9559C306.139 40.9879 305.979 40.9879 305.834 40.9238C305.657 40.8437 305.496 40.6995 305.415 40.5072L304.563 38.5201C304.482 38.3278 304.482 38.1195 304.563 37.9272C304.579 37.799 304.675 37.7029 304.788 37.6227Z" fill="#4770B0"/>
<path d="M353.328 143.658V143.867C353.328 157.071 331.109 167.823 303.807 167.823C276.504 167.823 254.285 157.071 254.285 143.867V143.658H353.328Z" fill="#AABCE0"/>
<path d="M349.467 144.957V145.133C349.467 156.238 329.308 165.276 304.547 165.276C336.21 154.604 259.627 156.238 259.627 145.133V144.957H349.467Z" fill="#83A4E6"/>
<path d="M254.463 143.386C254.463 146.559 276.521 149.139 303.743 149.139C330.965 149.139 353.023 146.559 353.023 143.386C353.023 140.213 330.965 137.633 303.743 137.633C276.521 137.633 254.463 140.213 254.463 143.386Z" fill="#748FC7"/>
<path d="M268.766 148.528C264.181 148 260.577 147.375 258.035 146.67C255.863 146.077 253.369 145.147 253.369 143.385C253.369 141.622 255.863 140.692 258.035 140.099C260.577 139.394 264.181 138.769 268.766 138.241C278.114 137.151 290.534 136.542 303.743 136.542C316.952 136.542 329.373 137.151 338.72 138.241C343.306 138.769 346.91 139.394 349.452 140.099C351.624 140.692 354.133 141.622 354.133 143.385C354.133 145.163 351.64 146.077 349.452 146.67C346.91 147.375 343.306 148 338.72 148.528C329.373 149.618 316.952 150.227 303.743 150.227C290.534 150.227 278.114 149.618 268.766 148.528ZM337.272 140.26C328.15 139.266 316.244 138.721 303.743 138.721C291.242 138.721 279.337 139.266 270.214 140.26C258.888 141.494 256.249 142.92 255.67 143.385C256.249 143.849 258.888 145.275 270.214 146.509C279.337 147.503 291.242 148.048 303.743 148.048C316.244 148.048 328.15 147.503 337.272 146.509C348.599 145.275 351.237 143.849 351.817 143.385C351.237 142.92 348.599 141.494 337.272 140.26Z" fill="#C7D7F7"/>
<path d="M285.126 100.983C282.664 100.983 279.913 100.49 279.913 97.1411C279.913 93.7924 280.015 88.4889 280.015 88.4889L273.545 87.945C273.545 87.843 273.545 87.792 273.545 87.792L272.646 87.86L271.746 87.792C271.746 87.792 271.746 87.843 271.746 87.945L265.276 88.4889C265.276 88.4889 265.378 93.7924 265.378 97.1411C265.378 100.49 262.627 100.983 260.165 100.983C257.703 100.983 253 101.969 253 108.462C253 114.955 253 133.144 253 137.376C253 141.422 258.841 145.281 271.746 145.621C271.746 145.621 272.34 145.638 272.646 145.638C272.934 145.638 273.545 145.621 273.545 145.621C286.433 145.298 292.291 141.422 292.291 137.376C292.291 133.144 292.291 114.955 292.291 108.462C292.291 101.952 287.571 100.983 285.126 100.983Z" fill="#871E1E"/>
<path d="M273.563 144.807C273.563 144.807 272.952 144.824 272.646 144.824C272.341 144.824 271.729 144.807 271.729 144.807C260.761 144.535 254.818 141.73 253.137 138.433C254.088 142.07 259.98 145.317 271.746 145.606C271.746 145.606 272.341 145.623 272.646 145.623C272.935 145.623 273.546 145.606 273.546 145.606C285.296 145.3 291.205 142.07 292.156 138.433C290.492 141.73 284.532 144.535 273.563 144.807Z" fill="#621414"/>
<path d="M279.933 94.9483C279.95 91.8716 280.018 88.4889 280.018 88.4889L273.548 87.945C273.548 87.843 273.548 87.792 273.548 87.792L272.648 87.86L271.749 87.792C271.749 87.792 271.749 87.843 271.749 87.945L265.279 88.4889C265.279 88.4889 265.347 92.0246 265.364 95.1353C267.317 95.7303 269.728 96.0872 272.36 96.0872C275.263 96.0872 277.895 95.6623 279.933 94.9483Z" fill="#621414"/>
<path d="M281.489 108.379C281.489 106.475 281.115 104.979 280.521 103.823C275.733 105.523 267.651 107.937 261.028 102.65C258.736 102.65 254.355 103.551 254.355 109.45C254.355 115.365 254.355 131.293 254.355 135.151C254.355 138.84 259.806 142.359 271.811 142.648C271.811 142.648 272.371 142.665 272.643 142.665C272.914 142.665 273.475 142.665 273.475 142.648C276.582 142.563 279.231 142.274 281.489 141.832C281.489 136.052 281.489 115.586 281.489 108.379Z" fill="#A03737"/>
<path d="M272.378 94.219C279.252 94.219 284.824 91.7075 284.824 88.6095C284.824 85.5114 279.252 83 272.378 83C265.504 83 259.932 85.5114 259.932 88.6095C259.932 91.7075 265.504 94.219 272.378 94.219Z" fill="#871E1E"/>
<path d="M279.895 85.21C280.404 85.7709 280.676 86.3659 280.676 87.0118C280.676 89.6126 275.99 91.7374 270.2 91.7374C267.364 91.7374 264.783 91.2274 262.898 90.3945C264.461 92.1113 268.213 93.3182 272.594 93.3182C278.384 93.3182 283.07 91.2104 283.07 88.5927C283.087 87.2668 281.865 86.0599 279.895 85.21Z" fill="#621414"/>
<path d="M273.377 84.8346C273.377 85.5825 271.509 86.3475 268.843 86.3475C266.177 86.3475 263.953 86.4324 263.953 85.6845C263.953 84.9366 266.076 84.1717 268.64 83.8147C271.271 83.4578 273.377 84.0867 273.377 84.8346Z" fill="#CC8383"/>
<path d="M259.555 136.172C259.555 136.869 258.943 137.43 258.196 137.43C257.449 137.43 256.838 136.869 256.838 136.172V108.21C256.838 107.513 257.449 106.952 258.196 106.952C258.943 106.952 259.555 107.513 259.555 108.21V136.172Z" fill="#CC8383"/>
<path d="M269.676 119.021V128.821H266.904V121.163H265.084V119.021H269.676ZM275.476 129.017C274.636 129.017 273.889 128.817 273.236 128.415C272.582 128.014 272.069 127.431 271.696 126.665C271.332 125.891 271.15 124.976 271.15 123.921C271.15 122.867 271.332 121.957 271.696 121.191C272.069 120.417 272.582 119.829 273.236 119.427C273.889 119.026 274.636 118.825 275.476 118.825C276.306 118.825 277.048 119.026 277.702 119.427C278.355 119.829 278.864 120.417 279.228 121.191C279.601 121.957 279.788 122.867 279.788 123.921C279.788 124.976 279.601 125.891 279.228 126.665C278.864 127.431 278.355 128.014 277.702 128.415C277.048 128.817 276.306 129.017 275.476 129.017ZM275.476 126.749C275.942 126.749 276.311 126.525 276.582 126.077C276.862 125.62 277.002 124.901 277.002 123.921C277.002 122.941 276.862 122.227 276.582 121.779C276.311 121.322 275.942 121.093 275.476 121.093C275 121.093 274.622 121.322 274.342 121.779C274.071 122.227 273.936 122.941 273.936 123.921C273.936 124.901 274.071 125.62 274.342 126.077C274.622 126.525 275 126.749 275.476 126.749Z" fill="white"/>
<path d="M347.126 99.9828C344.664 99.9828 341.913 99.4898 341.913 96.1411C341.913 92.7924 342.015 87.4889 342.015 87.4889L335.545 86.945C335.545 86.843 335.545 86.792 335.545 86.792L334.646 86.86L333.746 86.792C333.746 86.792 333.746 86.843 333.746 86.945L327.276 87.4889C327.276 87.4889 327.378 92.7924 327.378 96.1411C327.378 99.4898 324.627 99.9828 322.165 99.9828C319.703 99.9828 315 100.969 315 107.462C315 113.955 315 132.144 315 136.376C315 140.422 320.841 144.281 333.746 144.621C333.746 144.621 334.34 144.638 334.646 144.638C334.934 144.638 335.545 144.621 335.545 144.621C348.433 144.298 354.291 140.422 354.291 136.376C354.291 132.144 354.291 113.955 354.291 107.462C354.291 100.952 349.571 99.9828 347.126 99.9828Z" fill="#871E1E"/>
<path d="M335.563 143.807C335.563 143.807 334.952 143.824 334.646 143.824C334.341 143.824 333.729 143.807 333.729 143.807C322.761 143.535 316.818 140.73 315.137 137.433C316.088 141.07 321.98 144.317 333.746 144.606C333.746 144.606 334.341 144.623 334.646 144.623C334.935 144.623 335.546 144.606 335.546 144.606C347.296 144.3 353.205 141.07 354.156 137.433C352.492 140.73 346.532 143.535 335.563 143.807Z" fill="#621414"/>
<path d="M341.933 93.9483C341.95 90.8716 342.018 87.4889 342.018 87.4889L335.548 86.945C335.548 86.843 335.548 86.792 335.548 86.792L334.648 86.86L333.749 86.792C333.749 86.792 333.749 86.843 333.749 86.945L327.279 87.4889C327.279 87.4889 327.347 91.0246 327.364 94.1353C329.317 94.7303 331.728 95.0872 334.36 95.0872C337.263 95.0872 339.895 94.6623 341.933 93.9483Z" fill="#621414"/>
<path d="M343.489 107.379C343.489 105.475 343.115 103.979 342.521 102.823C337.733 104.523 329.651 106.937 323.028 101.65C320.736 101.65 316.355 102.551 316.355 108.45C316.355 114.365 316.355 130.293 316.355 134.151C316.355 137.84 321.806 141.359 333.811 141.648C333.811 141.648 334.371 141.665 334.643 141.665C334.914 141.665 335.475 141.665 335.475 141.648C338.582 141.563 341.231 141.274 343.489 140.832C343.489 135.052 343.489 114.586 343.489 107.379Z" fill="#A03737"/>
<path d="M334.378 93.219C341.252 93.219 346.824 90.7075 346.824 87.6095C346.824 84.5114 341.252 82 334.378 82C327.504 82 321.932 84.5114 321.932 87.6095C321.932 90.7075 327.504 93.219 334.378 93.219Z" fill="#871E1E"/>
<path d="M341.895 84.21C342.404 84.7709 342.676 85.3659 342.676 86.0118C342.676 88.6126 337.99 90.7374 332.2 90.7374C329.364 90.7374 326.783 90.2274 324.898 89.3945C326.461 91.1113 330.213 92.3182 334.594 92.3182C340.384 92.3182 345.07 90.2104 345.07 87.5927C345.087 86.2668 343.865 85.0599 341.895 84.21Z" fill="#621414"/>
<path d="M335.377 83.8346C335.377 84.5825 333.509 85.3475 330.843 85.3475C328.177 85.3475 325.953 85.4324 325.953 84.6845C325.953 83.9366 328.076 83.1717 330.64 82.8147C333.271 82.4578 335.377 83.0867 335.377 83.8346Z" fill="#CC8383"/>
<path d="M321.555 135.172C321.555 135.869 320.943 136.43 320.196 136.43C319.449 136.43 318.838 135.869 318.838 135.172V107.21C318.838 106.513 319.449 105.952 320.196 105.952C320.943 105.952 321.555 106.513 321.555 107.21V135.172Z" fill="#CC8383"/>
<path d="M335.502 121.941C336.314 122.109 336.935 122.445 337.364 122.949C337.803 123.444 338.022 124.046 338.022 124.755C338.022 125.334 337.863 125.871 337.546 126.365C337.238 126.86 336.762 127.261 336.118 127.569C335.483 127.868 334.695 128.017 333.752 128.017C333.061 128.017 332.375 127.933 331.694 127.765C331.022 127.597 330.439 127.359 329.944 127.051L330.952 124.965C331.335 125.227 331.764 125.427 332.24 125.567C332.725 125.707 333.201 125.777 333.668 125.777C334.144 125.777 334.522 125.689 334.802 125.511C335.082 125.334 335.222 125.082 335.222 124.755C335.222 124.121 334.723 123.803 333.724 123.803H332.562V122.053L334.312 120.163H330.448V118.021H337.532V119.757L335.502 121.941Z" fill="white"/>
<mask id="path-68-outside-1_1_6801" maskUnits="userSpaceOnUse" x="280" y="85" width="46" height="69" fill="black">
<rect fill="white" x="280" y="85" width="46" height="69"/>
<path fill-rule="evenodd" clip-rule="evenodd" d="M309.943 98.064C312.911 97.0387 314.824 95.4248 314.824 93.6095C314.824 90.5114 309.252 88 302.378 88C295.504 88 289.932 90.5114 289.932 93.6095C289.932 95.5322 292.078 97.229 295.35 98.2397C295.366 99.5729 295.378 100.975 295.378 102.141C295.378 105.49 292.627 105.983 290.165 105.983C287.703 105.983 283 106.969 283 113.462V142.376C283 146.422 288.841 150.281 301.746 150.621C301.746 150.621 302.34 150.638 302.646 150.638C302.934 150.638 303.545 150.621 303.545 150.621C316.433 150.298 322.291 146.422 322.291 142.376V113.462C322.291 106.952 317.571 105.983 315.126 105.983C312.664 105.983 309.913 105.49 309.913 102.141C309.913 100.924 309.926 99.4489 309.943 98.064Z"/>
</mask>
<path d="M309.943 98.064L308.964 95.2285L306.97 95.9174L306.944 98.0269L309.943 98.064ZM295.35 98.2397L298.35 98.2035L298.323 96.0184L296.235 95.3734L295.35 98.2397ZM301.746 150.621L301.831 147.622L301.825 147.622L301.746 150.621ZM303.545 150.621L303.47 147.622L303.462 147.622L303.545 150.621ZM310.923 100.899C312.642 100.305 314.255 99.4775 315.495 98.3704C316.736 97.2619 317.824 95.653 317.824 93.6095H311.824C311.824 93.3812 311.955 93.487 311.498 93.8956C311.039 94.3056 310.212 94.7972 308.964 95.2285L310.923 100.899ZM317.824 93.6095C317.824 90.1471 314.853 88.0086 312.411 86.9079C309.689 85.6811 306.139 85 302.378 85V91C305.49 91 308.163 91.5747 309.946 92.378C312.008 93.3075 311.824 93.9738 311.824 93.6095H317.824ZM302.378 85C298.617 85 295.066 85.6811 292.344 86.9079C289.902 88.0086 286.932 90.1471 286.932 93.6095H292.932C292.932 93.9738 292.747 93.3075 294.81 92.378C296.592 91.5747 299.265 91 302.378 91V85ZM286.932 93.6095C286.932 95.7764 288.15 97.4477 289.489 98.5678C290.837 99.695 292.59 100.527 294.464 101.106L296.235 95.3734C294.837 94.9415 293.882 94.4199 293.339 93.9654C292.787 93.5038 292.932 93.3653 292.932 93.6095H286.932ZM292.35 98.2759C292.366 99.6046 292.378 100.993 292.378 102.141H298.378C298.378 100.958 298.366 99.5413 298.35 98.2035L292.35 98.2759ZM292.378 102.141C292.378 102.563 292.294 102.685 292.307 102.662C292.326 102.63 292.344 102.637 292.261 102.683C292.151 102.743 291.927 102.829 291.536 102.893C291.15 102.955 290.692 102.983 290.165 102.983V108.983C291.475 108.983 293.431 108.877 295.129 107.953C296.042 107.456 296.902 106.712 297.513 105.646C298.118 104.589 298.378 103.393 298.378 102.141H292.378ZM290.165 102.983C288.627 102.983 286.118 103.276 283.917 104.845C281.535 106.544 280 109.388 280 113.462H286C286 111.043 286.816 110.147 287.401 109.73C288.168 109.183 289.242 108.983 290.165 108.983V102.983ZM280 113.462V142.376H286V113.462H280ZM280 142.376C280 146.046 282.656 148.831 286.209 150.58C289.817 152.356 294.982 153.443 301.667 153.62L301.825 147.622C295.605 147.458 291.397 146.446 288.859 145.197C286.264 143.919 286 142.753 286 142.376H280ZM301.746 150.621C301.66 153.619 301.66 153.619 301.66 153.619C301.66 153.619 301.66 153.619 301.66 153.619C301.66 153.619 301.66 153.619 301.66 153.619C301.66 153.619 301.66 153.619 301.661 153.619C301.661 153.619 301.662 153.619 301.662 153.619C301.664 153.619 301.666 153.62 301.668 153.62C301.673 153.62 301.68 153.62 301.689 153.62C301.707 153.621 301.733 153.621 301.764 153.622C301.827 153.624 301.915 153.626 302.013 153.628C302.199 153.633 302.455 153.638 302.646 153.638V147.638C302.531 147.638 302.336 147.634 302.149 147.63C302.06 147.628 301.98 147.626 301.922 147.624C301.893 147.624 301.87 147.623 301.854 147.622C301.847 147.622 301.841 147.622 301.837 147.622C301.835 147.622 301.833 147.622 301.832 147.622C301.832 147.622 301.832 147.622 301.831 147.622C301.831 147.622 301.831 147.622 301.831 147.622C301.831 147.622 301.831 147.622 301.831 147.622C301.831 147.622 301.831 147.622 301.831 147.622C301.831 147.622 301.831 147.622 301.746 150.621ZM302.646 153.638C302.828 153.638 303.084 153.633 303.271 153.628C303.37 153.626 303.459 153.624 303.523 153.622C303.555 153.621 303.581 153.621 303.599 153.62C303.608 153.62 303.616 153.62 303.621 153.62C303.623 153.62 303.625 153.62 303.626 153.619C303.627 153.619 303.628 153.619 303.628 153.619C303.628 153.619 303.628 153.619 303.629 153.619C303.629 153.619 303.629 153.619 303.629 153.619C303.629 153.619 303.629 153.619 303.629 153.619C303.629 153.619 303.629 153.619 303.545 150.621C303.462 147.622 303.462 147.622 303.462 147.622C303.462 147.622 303.462 147.622 303.462 147.622C303.462 147.622 303.462 147.622 303.462 147.622C303.462 147.622 303.462 147.622 303.462 147.622C303.462 147.622 303.461 147.622 303.461 147.622C303.46 147.622 303.458 147.622 303.456 147.622C303.452 147.622 303.446 147.622 303.438 147.622C303.422 147.623 303.398 147.623 303.368 147.624C303.309 147.626 303.227 147.628 303.136 147.63C302.945 147.634 302.752 147.638 302.646 147.638V153.638ZM303.621 153.62C310.3 153.452 315.466 152.364 319.077 150.586C322.629 148.836 325.291 146.046 325.291 142.376H319.291C319.291 142.752 319.024 143.923 316.425 145.203C313.885 146.454 309.679 147.466 303.47 147.622L303.621 153.62ZM325.291 142.376V113.462H319.291V142.376H325.291ZM325.291 113.462C325.291 109.378 323.75 106.532 321.363 104.836C319.16 103.27 316.651 102.983 315.126 102.983V108.983C316.045 108.983 317.119 109.18 317.887 109.726C318.472 110.142 319.291 111.035 319.291 113.462H325.291ZM315.126 102.983C314.599 102.983 314.141 102.955 313.755 102.893C313.364 102.829 313.14 102.743 313.03 102.683C312.947 102.637 312.965 102.63 312.984 102.662C312.997 102.685 312.913 102.563 312.913 102.141H306.913C306.913 103.393 307.173 104.589 307.778 105.646C308.389 106.712 309.249 107.456 310.162 107.953C311.86 108.877 313.816 108.983 315.126 108.983V102.983ZM312.913 102.141C312.913 100.942 312.926 99.4817 312.943 98.1011L306.944 98.0269C306.926 99.4162 306.913 100.906 306.913 102.141H312.913Z" fill="#9DD765" mask="url(#path-68-outside-1_1_6801)"/>
<path d="M314.708 105.983C312.246 105.983 309.495 105.49 309.495 102.141C309.495 98.7924 309.597 93.4889 309.597 93.4889L303.127 92.945C303.127 92.843 303.127 92.792 303.127 92.792L302.228 92.86L301.328 92.792C301.328 92.792 301.328 92.843 301.328 92.945L294.858 93.4889C294.858 93.4889 294.96 98.7924 294.96 102.141C294.96 105.49 292.21 105.983 289.747 105.983C287.285 105.983 282.582 106.969 282.582 113.462C282.582 119.955 282.582 138.144 282.582 142.376C282.582 146.422 288.423 150.281 301.328 150.621C301.328 150.621 301.922 150.638 302.228 150.638C302.516 150.638 303.127 150.621 303.127 150.621C316.015 150.298 321.873 146.422 321.873 142.376C321.873 138.144 321.873 119.955 321.873 113.462C321.873 106.952 317.153 105.983 314.708 105.983Z" fill="#871E1E"/>
<path d="M303.145 149.807C303.145 149.807 302.534 149.824 302.228 149.824C301.923 149.824 301.312 149.807 301.312 149.807C290.343 149.535 284.4 146.73 282.719 143.433C283.67 147.07 289.562 150.317 301.328 150.606C301.328 150.606 301.923 150.623 302.228 150.623C302.517 150.623 303.128 150.606 303.128 150.606C314.878 150.3 320.787 147.07 321.738 143.433C320.074 146.73 314.114 149.535 303.145 149.807Z" fill="#621414"/>
<path d="M309.515 99.9483C309.532 96.8716 309.6 93.4889 309.6 93.4889L303.13 92.945C303.13 92.843 303.13 92.792 303.13 92.792L302.231 92.86L301.331 92.792C301.331 92.792 301.331 92.843 301.331 92.945L294.861 93.4889C294.861 93.4889 294.929 97.0246 294.946 100.135C296.899 100.73 299.31 101.087 301.942 101.087C304.845 101.087 307.477 100.662 309.515 99.9483Z" fill="#621414"/>
<path d="M311.071 113.379C311.071 111.475 310.698 109.979 310.103 108.823C305.315 110.523 297.233 112.937 290.611 107.65C288.318 107.65 283.938 108.551 283.938 114.45C283.938 120.365 283.938 136.293 283.938 140.151C283.938 143.84 289.388 147.359 301.393 147.648C301.393 147.648 301.953 147.665 302.225 147.665C302.496 147.665 303.057 147.665 303.057 147.648C306.164 147.563 308.813 147.274 311.071 146.832C311.071 141.052 311.071 120.586 311.071 113.379Z" fill="#A03737"/>
<path d="M301.96 99.219C308.834 99.219 314.406 96.7075 314.406 93.6095C314.406 90.5114 308.834 88 301.96 88C295.086 88 289.514 90.5114 289.514 93.6095C289.514 96.7075 295.086 99.219 301.96 99.219Z" fill="#871E1E"/>
<path d="M309.477 90.21C309.987 90.7709 310.258 91.3659 310.258 92.0118C310.258 94.6126 305.572 96.7374 299.782 96.7374C296.946 96.7374 294.365 96.2274 292.48 95.3945C294.043 97.1113 297.795 98.3182 302.176 98.3182C307.966 98.3182 312.652 96.2104 312.652 93.5927C312.669 92.2668 311.447 91.0599 309.477 90.21Z" fill="#621414"/>
<path d="M302.959 89.8346C302.959 90.5825 301.091 91.3475 298.425 91.3475C295.759 91.3475 293.535 91.4324 293.535 90.6845C293.535 89.9366 295.658 89.1717 298.222 88.8147C300.853 88.4578 302.959 89.0867 302.959 89.8346Z" fill="#CC8383"/>
<path d="M289.137 141.172C289.137 141.869 288.525 142.43 287.778 142.43C287.031 142.43 286.42 141.869 286.42 141.172V113.21C286.42 112.513 287.031 111.952 287.778 111.952C288.525 111.952 289.137 112.513 289.137 113.21V141.172Z" fill="#CC8383"/>
<path d="M307.298 131.945H305.842V133.821H303.14V131.945H297.96V130.139L302.356 124.021H305.226L301.236 129.747H303.224V128.081H305.842V129.747H307.298V131.945Z" fill="white"/>
</g>
<defs>
<clipPath id="clip0_1_6801">
<rect width="370" height="250" fill="white"/>
</clipPath>
</defs>
</svg>
