<svg width="40" height="63" viewBox="0 0 40 63" fill="none" xmlns="http://www.w3.org/2000/svg">
<mask id="path-1-inside-1_1_4185" fill="white">
<path fill-rule="evenodd" clip-rule="evenodd" d="M26.9434 10.064C29.9106 9.03871 31.8239 7.42479 31.8239 5.60948C31.8239 2.51145 26.2516 0 19.3778 0C12.504 0 6.93164 2.51145 6.93164 5.60948C6.93164 7.53221 9.078 9.22901 12.3498 10.2397C12.3659 11.5729 12.3782 12.9755 12.3782 14.1411C12.3782 17.4898 9.62749 17.9828 7.16543 17.9828C4.70338 17.9828 0 18.9687 0 25.4621V54.3764C0 58.422 5.84101 62.2806 18.7456 62.6206C18.7456 62.6206 19.3399 62.6376 19.6455 62.6376C19.9342 62.6376 20.5454 62.6206 20.5454 62.6206C33.433 62.2976 39.291 58.422 39.291 54.3764V25.4621C39.291 18.9517 34.5707 17.9828 32.1256 17.9828C29.6635 17.9828 26.9128 17.4898 26.9128 14.1411C26.9128 12.9241 26.9263 11.4489 26.9434 10.064Z"/>
</mask>
<path fill-rule="evenodd" clip-rule="evenodd" d="M26.9434 10.064C29.9106 9.03871 31.8239 7.42479 31.8239 5.60948C31.8239 2.51145 26.2516 0 19.3778 0C12.504 0 6.93164 2.51145 6.93164 5.60948C6.93164 7.53221 9.078 9.22901 12.3498 10.2397C12.3659 11.5729 12.3782 12.9755 12.3782 14.1411C12.3782 17.4898 9.62749 17.9828 7.16543 17.9828C4.70338 17.9828 0 18.9687 0 25.4621V54.3764C0 58.422 5.84101 62.2806 18.7456 62.6206C18.7456 62.6206 19.3399 62.6376 19.6455 62.6376C19.9342 62.6376 20.5454 62.6206 20.5454 62.6206C33.433 62.2976 39.291 58.422 39.291 54.3764V25.4621C39.291 18.9517 34.5707 17.9828 32.1256 17.9828C29.6635 17.9828 26.9128 17.4898 26.9128 14.1411C26.9128 12.9241 26.9263 11.4489 26.9434 10.064Z" fill="#DDE8FC"/>
<path d="M26.9434 10.064L26.7801 9.59138L26.4478 9.7062L26.4434 10.0578L26.9434 10.064ZM12.3498 10.2397L12.8497 10.2337L12.8453 9.86948L12.4973 9.76198L12.3498 10.2397ZM18.7456 62.6206L18.7599 62.1208L18.7588 62.1208L18.7456 62.6206ZM20.5454 62.6206L20.5329 62.1207L20.5315 62.1208L20.5454 62.6206ZM26.4434 10.0578C26.4393 10.3942 26.4353 10.7359 26.4317 11.078L27.4317 11.0885C27.4353 10.7471 27.4392 10.406 27.4434 10.0701L26.4434 10.0578ZM26.4155 13.1195C26.4138 13.4738 26.4128 13.8165 26.4128 14.1411H27.4128C27.4128 13.8184 27.4138 13.4773 27.4155 13.1244L26.4155 13.1195ZM26.4128 14.1411C26.4128 14.9298 26.554 15.5992 26.8209 16.1609L27.7241 15.7318C27.5323 15.3281 27.4128 14.8103 27.4128 14.1411H26.4128ZM30.1963 18.3476C30.8354 18.4515 31.4967 18.4828 32.1256 18.4828V17.4828C31.5262 17.4828 30.9233 17.4527 30.3568 17.3606L30.1963 18.3476ZM32.1256 18.4828C32.8871 18.4828 33.8722 18.5821 34.8473 18.9264L35.1803 17.9835C34.0695 17.5912 32.9654 17.4828 32.1256 17.4828V18.4828ZM38.4239 22.6989C38.6547 23.4645 38.791 24.3764 38.791 25.4621H39.791C39.791 24.2929 39.6442 23.2823 39.3814 22.4103L38.4239 22.6989ZM38.791 25.4621V27.2692H39.791V25.4621H38.791ZM38.791 30.8835V34.4978H39.791V30.8835H38.791ZM38.791 38.1121V41.7263H39.791V38.1121H38.791ZM38.791 45.3406V48.9549H39.791V45.3406H38.791ZM38.791 52.5692V54.3764H39.791V52.5692H38.791ZM38.791 54.3764C38.791 54.9049 38.6775 55.4334 38.442 55.9548L39.3534 56.3664C39.645 55.7207 39.791 55.0523 39.791 54.3764H38.791ZM36.1926 58.471C35.3567 59.0594 34.309 59.6081 33.0367 60.0926L33.3926 61.0271C34.7269 60.519 35.8517 59.9339 36.7683 59.2887L36.1926 58.471ZM29.5737 61.1137C28.4818 61.3587 27.2884 61.5658 25.9913 61.7286L26.1158 62.7208C27.4416 62.5545 28.6666 62.3421 29.7926 62.0894L29.5737 61.1137ZM22.3631 62.0486C21.77 62.0808 21.16 62.105 20.5329 62.1207L20.558 63.1204C21.1944 63.1045 21.8142 63.0799 22.4173 63.0471L22.3631 62.0486ZM20.5454 62.6206C20.5315 62.1208 20.5315 62.1208 20.5315 62.1208C20.5315 62.1208 20.5315 62.1208 20.5315 62.1208C20.5315 62.1208 20.5315 62.1208 20.5315 62.1208C20.5315 62.1208 20.5315 62.1208 20.5315 62.1208C20.5315 62.1208 20.5314 62.1208 20.5313 62.1208C20.5311 62.1208 20.5309 62.1208 20.5305 62.1208C20.5298 62.1208 20.5288 62.1209 20.5274 62.1209C20.5247 62.121 20.5206 62.1211 20.5152 62.1212C20.5045 62.1215 20.4889 62.1219 20.4691 62.1225C20.4296 62.1235 20.3738 62.1249 20.3086 62.1265L20.3327 63.1262C20.3988 63.1246 20.4553 63.1232 20.4954 63.1221C20.5154 63.1216 20.5314 63.1212 20.5423 63.1209C20.5478 63.1207 20.552 63.1206 20.5549 63.1205C20.5563 63.1205 20.5574 63.1204 20.5582 63.1204C20.5585 63.1204 20.5588 63.1204 20.559 63.1204C20.5591 63.1204 20.5592 63.1204 20.5592 63.1204C20.5593 63.1204 20.5593 63.1204 20.5593 63.1204C20.5593 63.1204 20.5593 63.1204 20.5593 63.1204C20.5593 63.1204 20.5593 63.1204 20.5593 63.1204C20.5593 63.1204 20.5593 63.1204 20.5454 62.6206ZM19.863 62.1356C19.7801 62.1368 19.7048 62.1376 19.6455 62.1376V63.1376C19.7121 63.1376 19.7931 63.1367 19.878 63.1354L19.863 62.1356ZM19.6455 62.1376C19.5841 62.1376 19.5091 62.1368 19.4279 62.1357L19.4132 63.1356C19.4968 63.1368 19.5773 63.1376 19.6455 63.1376V62.1376ZM18.9826 62.1266C18.9173 62.125 18.8615 62.1236 18.8221 62.1225C18.8024 62.122 18.7868 62.1215 18.7761 62.1212C18.7708 62.1211 18.7667 62.121 18.7639 62.1209C18.7626 62.1209 18.7615 62.1208 18.7609 62.1208C18.7605 62.1208 18.7603 62.1208 18.7601 62.1208C18.76 62.1208 18.76 62.1208 18.7599 62.1208C18.7599 62.1208 18.7599 62.1208 18.7599 62.1208C18.7599 62.1208 18.7599 62.1208 18.7599 62.1208C18.7599 62.1208 18.7599 62.1208 18.7599 62.1208C18.7599 62.1208 18.7599 62.1208 18.7456 62.6206C18.7313 63.1204 18.7313 63.1204 18.7313 63.1204C18.7313 63.1204 18.7313 63.1204 18.7313 63.1204C18.7313 63.1204 18.7313 63.1204 18.7313 63.1204C18.7313 63.1204 18.7314 63.1204 18.7314 63.1204C18.7314 63.1204 18.7315 63.1204 18.7316 63.1204C18.7318 63.1204 18.7321 63.1204 18.7325 63.1204C18.7332 63.1204 18.7343 63.1205 18.7357 63.1205C18.7386 63.1206 18.7428 63.1207 18.7483 63.1209C18.7592 63.1212 18.7752 63.1216 18.7952 63.1221C18.8353 63.1232 18.8919 63.1247 18.9581 63.1263L18.9826 62.1266ZM18.7588 62.1208C18.1317 62.1042 17.5217 62.0794 16.9287 62.0465L16.8734 63.045C17.4764 63.0784 18.096 63.1036 18.7324 63.1204L18.7588 62.1208ZM13.3007 61.7238C12.0034 61.5604 10.8101 61.353 9.71839 61.1082L9.49956 62.0839C10.6252 62.3364 11.85 62.549 13.1757 62.7159L13.3007 61.7238ZM6.25515 60.0885C4.98202 59.6046 3.9341 59.0569 3.09822 58.4694L2.52324 59.2876C3.43987 59.9318 4.56486 60.5158 5.89984 61.0232L6.25515 60.0885ZM0.848508 55.9549C0.613394 55.4339 0.5 54.9054 0.5 54.3764H-0.5C-0.5 55.0524 -0.354248 55.7208 -0.0629916 56.3662L0.848508 55.9549ZM0.5 54.3764V52.5692H-0.5V54.3764H0.5ZM0.5 48.9549V45.3406H-0.5V48.9549H0.5ZM0.5 41.7263V38.1121H-0.5V41.7263H0.5ZM0.5 34.4978V30.8835H-0.5V34.4978H0.5ZM0.5 27.2692V25.4621H-0.5V27.2692H0.5ZM0.5 25.4621C0.5 24.3768 0.636437 23.4651 0.867456 22.6994L-0.0899126 22.4106C-0.353047 23.2827 -0.5 24.2932 -0.5 25.4621H0.5ZM4.44439 18.9272C5.41704 18.5833 6.40079 18.4828 7.16543 18.4828V17.4828C6.3218 17.4828 5.21908 17.5926 4.11101 17.9844L4.44439 18.9272ZM7.16543 18.4828C7.7943 18.4828 8.45558 18.4515 9.09472 18.3476L8.93426 17.3606C8.36767 17.4527 7.76479 17.4828 7.16543 17.4828V18.4828ZM12.4701 16.1609C12.737 15.5992 12.8782 14.9298 12.8782 14.1411H11.8782C11.8782 14.8103 11.7587 15.3281 11.5669 15.7318L12.4701 16.1609ZM12.8782 14.1411C12.8782 13.83 12.8773 13.5022 12.8757 13.1635L11.8757 13.1682C11.8773 13.5056 11.8782 13.8318 11.8782 14.1411H12.8782ZM12.8606 11.2099C12.8573 10.8833 12.8536 10.5564 12.8497 10.2337L11.8498 10.2457C11.8537 10.568 11.8574 10.8942 11.8607 11.2201L12.8606 11.2099ZM12.4973 9.76198C11.8791 9.571 11.3053 9.35575 10.7826 9.12021L10.3717 10.0319C10.9358 10.2861 11.5487 10.5156 12.2022 10.7174L12.4973 9.76198ZM7.95654 7.06937C7.60377 6.58619 7.43164 6.09729 7.43164 5.60948H6.43164C6.43164 6.34732 6.6956 7.03817 7.14888 7.65903L7.95654 7.06937ZM7.43164 5.60948C7.43164 5.13495 7.59445 4.6598 7.92759 4.18981L7.11176 3.61153C6.68111 4.21909 6.43164 4.89228 6.43164 5.60948H7.43164ZM10.6339 2.16699C11.5951 1.71822 12.7373 1.34003 14.0146 1.05783L13.7989 0.0813767C12.4629 0.376521 11.2493 0.776029 10.2108 1.26088L10.6339 2.16699ZM17.5751 0.559494C18.1631 0.520315 18.765 0.5 19.3778 0.5V-0.5C18.743 -0.5 18.1189 -0.478955 17.5086 -0.438293L17.5751 0.559494ZM19.3778 0.5C19.9905 0.5 20.5924 0.520315 21.1804 0.559494L21.2469 -0.438293C20.6366 -0.478955 20.0125 -0.5 19.3778 -0.5V0.5ZM24.7409 1.05783C26.0182 1.34003 27.1604 1.71822 28.1217 2.16699L28.5447 1.26088C27.5062 0.776028 26.2926 0.376521 24.9566 0.0813767L24.7409 1.05783ZM30.8279 4.18981C31.1611 4.6598 31.3239 5.13495 31.3239 5.60948H32.3239C32.3239 4.89227 32.0744 4.21908 31.6438 3.61153L30.8279 4.18981ZM31.3239 5.60948C31.3239 6.06397 31.1746 6.51844 30.87 6.96845L31.6981 7.52902C32.0955 6.94196 32.3239 6.29559 32.3239 5.60948H31.3239ZM28.3412 8.94668C27.8672 9.18014 27.345 9.39621 26.7801 9.59138L27.1067 10.5365C27.7065 10.3293 28.2678 10.0976 28.7831 9.84377L28.3412 8.94668ZM26.9434 10.064L26.6168 9.11879L25.9522 9.34844L25.9435 10.0516L26.9434 10.064ZM12.3498 10.2397L13.3497 10.2276L13.3409 9.49926L12.6449 9.28426L12.3498 10.2397ZM18.7456 62.6206L18.7742 61.621L18.7719 61.6209L18.7456 62.6206ZM20.5454 62.6206L20.5204 61.6209L20.5176 61.621L20.5454 62.6206ZM25.9435 10.0516C25.9393 10.3882 25.9354 10.7303 25.9318 11.0727L27.9317 11.0937C27.9352 10.7527 27.9392 10.4119 27.9433 10.0763L25.9435 10.0516ZM25.9155 13.1171C25.9138 13.472 25.9128 13.8155 25.9128 14.1411H27.9128C27.9128 13.8194 27.9138 13.4791 27.9155 13.1268L25.9155 13.1171ZM25.9128 14.1411C25.9128 14.9895 26.0649 15.7348 26.3692 16.3755L28.1757 15.5172C28.0215 15.1925 27.9128 14.7506 27.9128 14.1411H25.9128ZM30.1161 18.8411C30.7915 18.9509 31.482 18.9828 32.1256 18.9828V16.9828C31.541 16.9828 30.9673 16.9532 30.437 16.867L30.1161 18.8411ZM32.1256 18.9828C32.848 18.9828 33.7736 19.0775 34.6808 19.3979L35.3468 17.5121C34.1681 17.0958 33.0045 16.9828 32.1256 16.9828V18.9828ZM37.9452 22.8431C38.1599 23.5556 38.291 24.4181 38.291 25.4621H40.291C40.291 24.2512 40.139 23.1912 39.8601 22.266L37.9452 22.8431ZM38.291 25.4621V27.2692H40.291V25.4621H38.291ZM38.291 30.8835V34.4978H40.291V30.8835H38.291ZM38.291 38.1121V41.7263H40.291V38.1121H38.291ZM38.291 45.3406V48.9549H40.291V45.3406H38.291ZM38.291 52.5692V54.3764H40.291V52.5692H38.291ZM38.291 54.3764C38.291 54.8312 38.1937 55.2898 37.9863 55.7491L39.8091 56.5721C40.1287 55.8643 40.291 55.126 40.291 54.3764H38.291ZM35.9048 58.0621C35.1093 58.6222 34.1001 59.1526 32.8587 59.6254L33.5706 61.4944C34.9358 60.9745 36.0992 60.3712 37.0561 59.6975L35.9048 58.0621ZM29.4642 60.6258C28.3893 60.867 27.2119 61.0715 25.929 61.2325L26.178 63.2169C27.5181 63.0488 28.759 62.8338 29.9021 62.5773L29.4642 60.6258ZM22.3359 61.5493C21.7478 61.5813 21.1427 61.6053 20.5204 61.6209L20.5705 63.6203C21.2117 63.6042 21.8363 63.5795 22.4445 63.5464L22.3359 61.5493ZM20.5454 62.6206C20.5176 61.621 20.5176 61.621 20.5176 61.621C20.5177 61.621 20.5177 61.621 20.5177 61.621C20.5177 61.621 20.5177 61.621 20.5176 61.621C20.5176 61.621 20.5176 61.621 20.5176 61.621C20.5176 61.621 20.5175 61.621 20.5175 61.621C20.5173 61.621 20.5171 61.621 20.5167 61.621C20.5161 61.621 20.5151 61.621 20.5137 61.6211C20.511 61.6212 20.507 61.6213 20.5017 61.6214C20.4911 61.6217 20.4756 61.6221 20.456 61.6226C20.4168 61.6237 20.3613 61.6251 20.2965 61.6266L20.3448 63.6261C20.4112 63.6245 20.4682 63.623 20.5085 63.6219C20.5287 63.6214 20.5448 63.621 20.5559 63.6207C20.5614 63.6205 20.5657 63.6204 20.5686 63.6203C20.5701 63.6203 20.5712 63.6203 20.572 63.6202C20.5724 63.6202 20.5727 63.6202 20.5729 63.6202C20.573 63.6202 20.573 63.6202 20.5731 63.6202C20.5731 63.6202 20.5732 63.6202 20.5732 63.6202C20.5732 63.6202 20.5732 63.6202 20.5732 63.6202C20.5732 63.6202 20.5732 63.6202 20.5732 63.6202C20.5732 63.6202 20.5732 63.6202 20.5454 62.6206ZM19.8555 61.6356C19.7737 61.6368 19.7011 61.6376 19.6455 61.6376V63.6376C19.7157 63.6376 19.7996 63.6367 19.8856 63.6354L19.8555 61.6356ZM19.6455 61.6376C19.5876 61.6376 19.5152 61.6369 19.4352 61.6357L19.4059 63.6355C19.4906 63.6367 19.5738 63.6376 19.6455 63.6376V61.6376ZM18.9948 61.6268C18.93 61.6252 18.8746 61.6237 18.8355 61.6227C18.816 61.6222 18.8005 61.6217 18.79 61.6214C18.7847 61.6213 18.7807 61.6212 18.778 61.6211C18.7767 61.6211 18.7757 61.621 18.7751 61.621C18.7747 61.621 18.7745 61.621 18.7743 61.621C18.7743 61.621 18.7742 61.621 18.7742 61.621C18.7742 61.621 18.7742 61.621 18.7742 61.621C18.7742 61.621 18.7742 61.621 18.7742 61.621C18.7742 61.621 18.7742 61.621 18.7742 61.621C18.7742 61.621 18.7742 61.621 18.7456 62.6206C18.717 63.6202 18.717 63.6202 18.717 63.6202C18.717 63.6202 18.717 63.6202 18.717 63.6202C18.717 63.6202 18.717 63.6202 18.717 63.6202C18.7171 63.6202 18.7171 63.6202 18.7171 63.6202C18.7172 63.6202 18.7173 63.6202 18.7174 63.6202C18.7176 63.6202 18.7179 63.6202 18.7183 63.6202C18.719 63.6202 18.7202 63.6203 18.7216 63.6203C18.7246 63.6204 18.7289 63.6205 18.7344 63.6207C18.7455 63.621 18.7616 63.6214 18.7818 63.622C18.8222 63.623 18.8792 63.6245 18.9459 63.6262L18.9948 61.6268ZM18.7719 61.6209C18.1495 61.6045 17.5444 61.5798 16.9563 61.5473L16.8458 63.5442C17.4537 63.5779 18.0782 63.6033 18.7192 63.6202L18.7719 61.6209ZM13.3632 61.2277C12.0801 61.0661 10.9026 60.8613 9.82781 60.6203L9.39014 62.5718C10.5328 62.8281 11.7733 63.0432 13.1132 63.212L13.3632 61.2277ZM6.43281 59.6211C5.1906 59.1489 4.18122 58.6194 3.38572 58.0603L2.23574 59.6967C3.19275 60.3692 4.35628 60.9714 5.72219 61.4906L6.43281 59.6211ZM1.30426 55.7493C1.09721 55.2904 1 54.8319 1 54.3764H-1C-1 55.126 -0.838069 55.8642 -0.518741 56.5719L1.30426 55.7493ZM1 54.3764V52.5692H-1V54.3764H1ZM1 48.9549V45.3406H-1V48.9549H1ZM1 41.7263V38.1121H-1V41.7263H1ZM1 34.4978V30.8835H-1V34.4978H1ZM1 27.2692V25.4621H-1V27.2692H1ZM1 25.4621C1 24.4186 1.13118 23.5563 1.34614 22.8439L-0.568597 22.2661C-0.847789 23.1914 -1 24.2514 -1 25.4621H1ZM4.61108 19.3986C5.51602 19.0786 6.44029 18.9828 7.16543 18.9828V16.9828C6.2823 16.9828 5.12011 17.0972 3.94432 17.513L4.61108 19.3986ZM7.16543 18.9828C7.80906 18.9828 8.49953 18.9509 9.17495 18.8411L8.85403 16.867C8.32372 16.9532 7.75003 16.9828 7.16543 16.9828V18.9828ZM12.9218 16.3755C13.2262 15.7348 13.3782 14.9895 13.3782 14.1411H11.3782C11.3782 14.7506 11.2696 15.1925 11.1153 15.5172L12.9218 16.3755ZM13.3782 14.1411C13.3782 13.829 13.3773 13.5004 13.3757 13.1612L11.3757 13.1705C11.3773 13.5073 11.3782 13.8327 11.3782 14.1411H13.3782ZM13.3606 11.2048C13.3573 10.8779 13.3536 10.5507 13.3497 10.2276L11.3498 10.2518C11.3537 10.5737 11.3574 10.8997 11.3607 11.2252L13.3606 11.2048ZM12.6449 9.28426C12.0443 9.09872 11.49 8.89057 10.9881 8.66436L10.1663 10.4877C10.7511 10.7513 11.3835 10.9878 12.0546 11.1952L12.6449 9.28426ZM8.36036 6.77454C8.05785 6.36019 7.93164 5.97228 7.93164 5.60948H5.93164C5.93164 6.47233 6.24152 7.26417 6.74506 7.95386L8.36036 6.77454ZM7.93164 5.60948C7.93164 5.25628 8.05113 4.88016 8.33551 4.47895L6.70384 3.32239C6.22444 3.99873 5.93164 4.77094 5.93164 5.60948H7.93164ZM10.8454 2.62005C11.768 2.18931 12.8745 1.82178 14.1225 1.54606L13.691 -0.406851C12.3258 -0.105231 11.0764 0.304935 9.99929 0.807827L10.8454 2.62005ZM17.6084 1.05839C18.1852 1.01995 18.7761 1 19.3778 1V-1C18.732 -1 18.0967 -0.97859 17.4754 -0.937187L17.6084 1.05839ZM19.3778 1C19.9794 1 20.5703 1.01995 21.1472 1.05839L21.2801 -0.937187C20.6588 -0.97859 20.0236 -1 19.3778 -1V1ZM24.633 1.54606C25.8811 1.82178 26.9875 2.18931 27.9101 2.62005L28.7562 0.807827C27.6791 0.304935 26.4297 -0.105231 25.0645 -0.406851L24.633 1.54606ZM30.42 4.47895C30.7044 4.88016 30.8239 5.25628 30.8239 5.60948H32.8239C32.8239 4.77094 32.5311 3.99873 32.0517 3.32239L30.42 4.47895ZM30.8239 5.60948C30.8239 5.94816 30.7142 6.30667 30.4559 6.68816L32.1121 7.80931C32.5559 7.15373 32.8239 6.4114 32.8239 5.60948H30.8239ZM28.1203 8.49814C27.667 8.72142 27.1642 8.92968 26.6168 9.11879L27.27 11.0091C27.8873 10.7958 28.468 10.5563 29.004 10.2923L28.1203 8.49814Z" fill="#871E1E" mask="url(#path-1-inside-1_1_4185)"/>
</svg>
