<svg width="40" height="63" viewBox="0 0 40 63" fill="none" xmlns="http://www.w3.org/2000/svg">
<path d="M32.1256 17.9837C29.6635 17.9837 26.9128 17.4908 26.9128 14.1421C26.9128 10.7934 27.0147 5.4899 27.0147 5.4899L20.5454 4.94595C20.5454 4.84396 20.5454 4.79297 20.5454 4.79297L19.6455 4.86096L18.7456 4.79297C18.7456 4.79297 18.7456 4.84396 18.7456 4.94595L12.2763 5.4899C12.2763 5.4899 12.3782 10.7934 12.3782 14.1421C12.3782 17.4908 9.62749 17.9837 7.16543 17.9837C4.70338 17.9837 0 18.9696 0 25.463C0 31.9564 0 50.1447 0 54.3773C0 58.423 5.84101 62.2816 18.7456 62.6216C18.7456 62.6216 19.3399 62.6385 19.6455 62.6385C19.9342 62.6385 20.5454 62.6216 20.5454 62.6216C33.433 62.2986 39.291 58.423 39.291 54.3773C39.291 50.1447 39.291 31.9564 39.291 25.463C39.291 18.9526 34.5707 17.9837 32.1256 17.9837Z" fill="#871E1E"/>
<path d="M20.5633 61.808C20.5633 61.808 19.952 61.825 19.6464 61.825C19.3408 61.825 18.7295 61.808 18.7295 61.808C7.7606 61.536 1.81771 58.7313 0.136719 55.4336C1.08758 59.0713 6.97953 62.318 18.7465 62.6069C18.7465 62.6069 19.3408 62.6239 19.6464 62.6239C19.935 62.6239 20.5463 62.6069 20.5463 62.6069C32.2963 62.301 38.2052 59.0713 39.1561 55.4336C37.4921 58.7313 31.5322 61.536 20.5633 61.808Z" fill="#621414"/>
<path d="M26.9328 11.9493C26.9498 8.87258 27.0177 5.4899 27.0177 5.4899L20.5484 4.94595C20.5484 4.84396 20.5484 4.79297 20.5484 4.79297L19.6485 4.86096L18.7486 4.79297C18.7486 4.79297 18.7486 4.84396 18.7486 4.94595L12.2793 5.4899C12.2793 5.4899 12.3472 9.02558 12.3642 12.1363C14.3169 12.7312 16.728 13.0882 19.3598 13.0882C22.2634 13.0882 24.8952 12.6632 26.9328 11.9493Z" fill="#621414"/>
<path d="M28.489 25.3789C28.489 23.475 28.1155 21.9792 27.5212 20.8233C22.7329 22.5231 14.6506 24.9369 8.02849 19.6504C5.73623 19.6504 1.35547 20.5513 1.35547 26.4498C1.35547 32.3652 1.35547 48.2928 1.35547 52.1514C1.35547 55.8401 6.80595 59.3588 18.8106 59.6477C18.8106 59.6477 19.3709 59.6647 19.6426 59.6647C19.9143 59.6647 20.4746 59.6647 20.4746 59.6477C23.5819 59.5628 26.2307 59.2738 28.489 58.8318C28.489 53.0523 28.489 32.5862 28.489 25.3789Z" fill="#A03737"/>
<path d="M19.3778 11.219C26.2516 11.219 31.8239 8.70751 31.8239 5.60948C31.8239 2.51145 26.2516 0 19.3778 0C12.504 0 6.93164 2.51145 6.93164 5.60948C6.93164 8.70751 12.504 11.219 19.3778 11.219Z" fill="#871E1E"/>
<path d="M26.8951 2.21094C27.4045 2.77189 27.6762 3.36683 27.6762 4.01277C27.6762 6.61353 22.9898 8.73834 17.1997 8.73834C14.3641 8.73834 11.7832 8.22838 9.89844 7.39546C11.4606 9.1123 15.2131 10.3192 19.5938 10.3192C25.3839 10.3192 30.0703 8.21139 30.0703 5.59363C30.0873 4.26775 28.8647 3.06086 26.8951 2.21094Z" fill="#621414"/>
<path d="M20.3769 1.83364C20.3769 2.58156 18.5091 3.34648 15.8433 3.34648C13.1775 3.34648 10.9531 3.43147 10.9531 2.68355C10.9531 1.93563 13.0756 1.17071 15.6395 0.813749C18.2714 0.456788 20.3769 1.08572 20.3769 1.83364Z" fill="#CC8383"/>
<path d="M6.55464 53.1734C6.55464 53.8703 5.94337 54.4313 5.19627 54.4313C4.44916 54.4313 3.83789 53.8703 3.83789 53.1734V25.211C3.83789 24.5141 4.44916 23.9531 5.19627 23.9531C5.94337 23.9531 6.55464 24.5141 6.55464 25.211V53.1734Z" fill="#CC8383"/>
<path d="M23.05 43.6223V45.8203H15.42V44.0843L19.088 40.6543C19.4427 40.3183 19.6807 40.0336 19.802 39.8003C19.9233 39.5576 19.984 39.315 19.984 39.0723C19.984 38.755 19.8767 38.5076 19.662 38.3303C19.4473 38.153 19.1347 38.0643 18.724 38.0643C18.36 38.0643 18.024 38.1483 17.716 38.3163C17.4173 38.475 17.17 38.7083 16.974 39.0163L14.916 37.8683C15.2987 37.2336 15.8353 36.7343 16.526 36.3703C17.2167 36.0063 18.0333 35.8243 18.976 35.8243C19.7227 35.8243 20.3807 35.9456 20.95 36.1883C21.5287 36.431 21.9767 36.781 22.294 37.2383C22.6207 37.6863 22.784 38.209 22.784 38.8063C22.784 39.3383 22.6673 39.8423 22.434 40.3183C22.21 40.785 21.7713 41.317 21.118 41.9143L19.27 43.6223H23.05Z" fill="white"/>
</svg>
