<svg width="41" height="63" viewBox="0 0 41 63" fill="none" xmlns="http://www.w3.org/2000/svg">
<path d="M32.9986 17.9837C30.5366 17.9837 27.7859 17.4908 27.7859 14.1421C27.7859 10.7934 27.8877 5.4899 27.8877 5.4899L21.4185 4.94595C21.4185 4.84396 21.4185 4.79297 21.4185 4.79297L20.5186 4.86096L19.6186 4.79297C19.6186 4.79297 19.6186 4.84396 19.6186 4.94595L13.1494 5.4899C13.1494 5.4899 13.2512 10.7934 13.2512 14.1421C13.2512 17.4908 10.5005 17.9837 8.03848 17.9837C5.57642 17.9837 0.873047 18.9696 0.873047 25.463C0.873047 31.9564 0.873047 50.1447 0.873047 54.3773C0.873047 58.423 6.71406 62.2816 19.6186 62.6216C19.6186 62.6216 20.2129 62.6385 20.5186 62.6385C20.8072 62.6385 21.4185 62.6216 21.4185 62.6216C34.3061 62.2986 40.1641 58.423 40.1641 54.3773C40.1641 50.1447 40.1641 31.9564 40.1641 25.463C40.1641 18.9526 35.4437 17.9837 32.9986 17.9837Z" fill="#871E1E"/>
<path d="M21.4363 61.808C21.4363 61.808 20.8251 61.825 20.5194 61.825C20.2138 61.825 19.6025 61.808 19.6025 61.808C8.63365 61.536 2.69076 58.7313 1.00977 55.4336C1.96063 59.0713 7.85258 62.318 19.6195 62.6069C19.6195 62.6069 20.2138 62.6239 20.5194 62.6239C20.8081 62.6239 21.4194 62.6069 21.4194 62.6069C33.1693 62.301 39.0782 59.0713 40.0291 55.4336C38.3651 58.7313 32.4052 61.536 21.4363 61.808Z" fill="#621414"/>
<path d="M27.8058 11.9493C27.8228 8.87258 27.8907 5.4899 27.8907 5.4899L21.4215 4.94595C21.4215 4.84396 21.4215 4.79297 21.4215 4.79297L20.5215 4.86096L19.6216 4.79297C19.6216 4.79297 19.6216 4.84396 19.6216 4.94595L13.1523 5.4899C13.1523 5.4899 13.2203 9.02558 13.2372 12.1363C15.1899 12.7312 17.601 13.0882 20.2329 13.0882C23.1364 13.0882 25.7683 12.6632 27.8058 11.9493Z" fill="#621414"/>
<path d="M29.3621 25.3789C29.3621 23.475 28.9885 21.9792 28.3942 20.8233C23.606 22.5231 15.5236 24.9369 8.90154 19.6504C6.60928 19.6504 2.22852 20.5513 2.22852 26.4498C2.22852 32.3652 2.22852 48.2928 2.22852 52.1514C2.22852 55.8401 7.679 59.3588 19.6836 59.6477C19.6836 59.6477 20.244 59.6647 20.5156 59.6647C20.7873 59.6647 21.3477 59.6647 21.3477 59.6477C24.4549 59.5628 27.1038 59.2738 29.3621 58.8318C29.3621 53.0523 29.3621 32.5862 29.3621 25.3789Z" fill="#A03737"/>
<path d="M20.2508 11.219C27.1246 11.219 32.6969 8.70751 32.6969 5.60948C32.6969 2.51145 27.1246 0 20.2508 0C13.377 0 7.80469 2.51145 7.80469 5.60948C7.80469 8.70751 13.377 11.219 20.2508 11.219Z" fill="#871E1E"/>
<path d="M27.7681 2.21094C28.2775 2.77189 28.5492 3.36683 28.5492 4.01277C28.5492 6.61353 23.8628 8.73834 18.0727 8.73834C15.2371 8.73834 12.6562 8.22838 10.7715 7.39546C12.3336 9.1123 16.0861 10.3192 20.4669 10.3192C26.257 10.3192 30.9433 8.21139 30.9433 5.59363C30.9603 4.26775 29.7378 3.06086 27.7681 2.21094Z" fill="#621414"/>
<path d="M21.2499 1.83364C21.2499 2.58156 19.3821 3.34648 16.7163 3.34648C14.0505 3.34648 11.8262 3.43147 11.8262 2.68355C11.8262 1.93563 13.9486 1.17071 16.5126 0.813749C19.1444 0.456788 21.2499 1.08572 21.2499 1.83364Z" fill="#CC8383"/>
<path d="M7.42769 53.1734C7.42769 53.8703 6.81642 54.4313 6.06931 54.4313C5.32221 54.4313 4.71094 53.8703 4.71094 53.1734V25.211C4.71094 24.5141 5.32221 23.9531 6.06931 23.9531C6.81642 23.9531 7.42769 24.5141 7.42769 25.211V53.1734Z" fill="#CC8383"/>
<path d="M22.017 39.5903C23.389 39.5903 24.4017 39.8703 25.055 40.4303C25.7177 40.9903 26.049 41.737 26.049 42.6703C26.049 43.277 25.8904 43.837 25.573 44.3503C25.265 44.8543 24.789 45.2603 24.145 45.5683C23.5104 45.867 22.7217 46.0163 21.779 46.0163C21.0884 46.0163 20.4024 45.9323 19.721 45.7643C19.049 45.5963 18.4704 45.3583 17.985 45.0503L18.979 42.9643C19.371 43.2256 19.8004 43.4263 20.267 43.5663C20.743 43.7063 21.219 43.7763 21.695 43.7763C22.171 43.7763 22.549 43.6876 22.829 43.5103C23.1184 43.3236 23.263 43.067 23.263 42.7403C23.263 42.4136 23.123 42.1663 22.843 41.9983C22.563 41.8303 22.0684 41.7463 21.359 41.7463H18.699L19.189 36.0203H25.433V38.1623H21.485L21.359 39.5903H22.017Z" fill="white"/>
</svg>
