<svg width="340" height="242" viewBox="0 0 340 242" fill="none" xmlns="http://www.w3.org/2000/svg">
<path d="M132.104 233.123C132.104 238.026 149.077 242 170.009 242C190.94 242 207.914 238.026 207.914 233.123C207.914 228.219 190.94 224.245 170.009 224.245C149.061 224.229 132.104 228.219 132.104 233.123Z" fill="#E6E6E7"/>
<path d="M137.073 217.465H202.442V229.723C202.442 229.74 202.442 229.74 202.442 229.756C202.442 233.858 187.801 237.175 169.749 237.175C151.697 237.175 137.057 233.842 137.057 229.74V227.544V217.465H137.073Z" fill="#5B9A73"/>
<path d="M169.749 236.245C187.801 236.245 202.442 232.928 202.442 228.825V229.691C202.442 229.707 202.442 229.707 202.442 229.723C202.442 233.825 187.801 237.142 169.749 237.142C151.697 237.142 137.057 233.809 137.057 229.707C137.057 229.707 137.057 229.274 137.057 228.809C137.073 232.912 151.697 236.245 169.749 236.245Z" fill="#4A825D"/>
<path d="M194.575 234.565C191.711 235.318 188.188 235.959 184.182 236.391V222.129L194.575 220.927V234.565Z" fill="#70B78E"/>
<path d="M184.195 235.493C188.185 235.044 191.709 234.419 194.589 233.666V234.563C194.573 234.563 194.573 234.563 194.573 234.563C193.865 234.755 193.125 234.932 192.352 235.092C192.336 235.092 192.304 235.092 192.288 235.108C191.516 235.268 190.711 235.428 189.875 235.573C189.842 235.573 189.81 235.589 189.794 235.589C188.958 235.733 188.073 235.877 187.172 236.005C187.14 236.005 187.123 236.021 187.091 236.021C186.174 236.15 185.209 236.278 184.227 236.39C184.227 236.39 184.227 236.39 184.211 236.39V235.493H184.195Z" fill="#5B9A73"/>
<path d="M137.074 217.465C137.074 221.567 151.699 224.885 169.767 224.885C187.818 224.885 202.459 221.567 202.459 217.465C202.459 213.363 187.818 210.046 169.767 210.046C151.699 210.03 137.074 213.363 137.074 217.465Z" fill="#70B78E"/>
<path d="M158.021 215.798C158.021 217.272 163.299 218.474 169.799 218.474C176.298 218.474 181.576 217.272 181.576 215.798C181.576 214.324 176.298 213.122 169.799 213.122C163.299 213.122 158.021 214.324 158.021 215.798Z" fill="#5B9A73"/>
<path d="M139.646 214.565C139.099 215.11 138.794 215.671 138.794 216.248C138.794 220.35 153.434 223.667 171.486 223.667C185.017 223.667 196.633 221.792 201.604 219.132C198.242 222.417 185.274 224.869 169.781 224.869C151.729 224.869 137.088 221.552 137.088 217.45C137.072 216.44 137.989 215.463 139.646 214.565Z" fill="#B2D7C6"/>
<path d="M211.63 36.9732C230.905 31.4602 253.929 8.03994 262.751 4.96435C268.278 3.02703 282.613 1.06335 285.58 14.0961C275.879 8.1855 267.902 10.5912 259.876 16.2666C259.616 16.4362 259.366 16.6529 259.1 16.8728C259.059 16.9142 259.019 16.9555 258.962 17.0002C258.74 17.1945 258.518 17.3888 258.284 17.6021C258.231 17.6624 258.162 17.7261 258.093 17.7898C257.874 17.9997 257.656 18.2097 257.437 18.4197C257.356 18.5024 257.275 18.5851 257.209 18.6644C256.994 18.8901 256.778 19.1157 256.563 19.3414C256.469 19.4431 256.375 19.5448 256.282 19.6464C256.066 19.8721 255.854 20.1134 255.642 20.3548C255.536 20.4755 255.418 20.6151 255.312 20.7358C255.115 20.9738 254.9 21.1995 254.707 21.4532C254.56 21.6152 254.417 21.7929 254.27 21.9549C254.086 22.1739 253.915 22.3739 253.731 22.593C253.534 22.831 253.325 23.088 253.117 23.345C252.998 23.4847 252.895 23.6211 252.777 23.7608C252.069 24.6145 251.34 25.5219 250.579 26.436C249.52 27.7245 248.423 29.07 247.266 30.4444C247.225 30.4857 247.2 30.5237 247.16 30.5651C245.149 32.9553 242.962 35.4481 240.614 37.8768C240.573 37.9181 240.536 37.9751 240.496 38.0165L240.508 37.9975C240.439 38.0611 240.37 38.1248 240.305 38.2041L240.224 38.2868C240.167 38.3315 240.13 38.3885 240.074 38.4331C239.424 39.0945 238.759 39.7591 238.074 40.4114C238.059 40.4148 238.062 40.4304 238.046 40.4338C237.378 41.0827 236.687 41.7037 235.996 42.3246C235.939 42.3693 235.899 42.4106 235.842 42.4553L235.814 42.4776C235.717 42.5636 235.633 42.6306 235.536 42.7166C234.913 43.2739 234.256 43.8221 233.615 44.367C233.518 44.453 233.418 44.5233 233.337 44.606C232.592 45.2056 231.828 45.7928 231.064 46.38C230.892 46.4983 230.735 46.6133 230.563 46.7316C229.892 47.2171 229.219 47.687 228.542 48.1412C228.382 48.2404 228.238 48.3364 228.081 48.4514C227.273 48.9825 226.442 49.4856 225.604 49.9574C225.456 50.0377 225.309 50.118 225.162 50.1983C224.44 50.5964 223.715 50.9788 222.971 51.3489C222.776 51.4392 222.569 51.5485 222.374 51.6387C221.492 52.0544 220.606 52.4544 219.711 52.8074C219.604 52.8464 219.497 52.8853 219.39 52.9243C218.582 53.2259 217.771 53.5119 216.938 53.7699C216.689 53.8388 216.46 53.92 216.211 53.9889C215.267 54.2701 214.301 54.5233 213.325 54.7295C198.282 57.8581 172.324 58.8213 172.324 58.8213L170.382 49.5519L169.444 45.0331L167.366 35.0392C167.397 35.0325 192.355 42.4863 211.63 36.9732Z" fill="#AABCE0"/>
<path d="M201.758 40.1391L192.156 39.9891L186.216 55.8533C186.216 55.8533 199.814 57.403 214.044 53.1522C202.885 53.4949 189.037 51.8506 201.758 40.1391Z" fill="#6E92D7"/>
<path d="M128.568 54.3075C108.706 56.9637 78.2449 44.7108 68.9228 45.4189C63.0811 45.8667 49.1598 49.7902 51.6544 62.9228C58.1897 53.6151 66.4522 52.6395 76.0822 54.6343C76.392 54.6999 76.7052 54.7811 77.0374 54.8747C77.0912 54.8961 77.1451 54.9175 77.1989 54.9389C77.4806 55.0268 77.7623 55.1147 78.063 55.2149C78.1517 55.2453 78.2246 55.2791 78.3132 55.3095C78.5982 55.4131 78.8674 55.52 79.1715 55.6359C79.2792 55.6787 79.3869 55.7214 79.4788 55.7675C79.7671 55.8868 80.0554 56.006 80.347 56.141C80.4738 56.1961 80.6005 56.2512 80.7273 56.3063C81.0155 56.4256 81.3072 56.5605 81.5988 56.6955C81.7446 56.7629 81.9094 56.8428 82.0552 56.9102C82.3311 57.0485 82.6194 57.1677 82.8986 57.3217C83.0825 57.4139 83.2854 57.5184 83.4851 57.6073C83.7262 57.7365 83.9797 57.8467 84.2365 57.9726C84.5123 58.1109 84.8073 58.2615 85.1022 58.4121C85.267 58.492 85.4162 58.5751 85.581 58.6549C86.5735 59.1495 87.6073 59.6845 88.6603 60.2319C90.1382 61.0007 91.6857 61.7875 93.3028 62.5924C93.3566 62.6138 93.3947 62.6385 93.4328 62.6632C96.242 64.0515 99.2186 65.4536 102.371 66.7532C102.425 66.7745 102.482 66.8116 102.551 66.8297L102.532 66.8173C102.621 66.8477 102.71 66.8781 102.802 66.9242L102.909 66.967C102.979 66.985 103.036 67.0221 103.106 67.0401C103.967 67.3822 104.844 67.721 105.722 68.0598C105.722 68.0598 105.741 68.0722 105.757 68.0688C106.631 68.3919 107.517 68.696 108.4 68.9844C108.47 69.0025 108.524 69.0239 108.593 69.0419L108.628 69.051C108.736 69.0937 108.856 69.1175 108.979 69.1569C109.774 69.4149 110.6 69.6663 111.403 69.8896C111.527 69.929 111.647 69.9528 111.755 69.9956C112.682 70.2583 113.618 70.4864 114.551 70.6988C114.756 70.7373 114.946 70.7791 115.154 70.8333C115.948 71.0096 116.754 71.1669 117.573 71.3051C117.743 71.3346 117.933 71.3764 118.12 71.4026C119.074 71.5613 120.022 71.6886 120.998 71.7937C121.165 71.8074 121.332 71.8212 121.5 71.835C122.324 71.9229 123.142 71.9795 123.972 72.017C124.186 72.0208 124.404 72.0403 124.635 72.0408C125.594 72.0674 126.581 72.0718 127.547 72.048C127.66 72.0404 127.774 72.0328 127.887 72.0252C128.751 71.9901 129.609 71.9236 130.475 71.8224C130.718 71.8039 130.973 71.7664 131.228 71.7289C132.205 71.6044 133.191 71.4453 134.167 71.2391C149.207 68.0948 173.376 58.5834 173.376 58.5834L171.435 49.314L170.496 44.7952L168.402 34.8046C168.362 34.8459 148.446 51.648 128.568 54.3075Z" fill="#AABCE0"/>
<path d="M137.897 53.3198L146.773 49.6432L158.128 62.2144C158.128 62.2144 146.055 68.6627 131.249 69.956C141.777 66.1597 154.04 59.5237 137.897 53.3198Z" fill="#6E92D7"/>
<path d="M178.921 41.9314V215.847C178.921 215.847 177.666 217.145 169.863 217.145C161.207 217.145 160.596 215.847 160.596 215.847V41.9314H178.921Z" fill="#3A83C5"/>
<path d="M175.156 214.229C174.255 214.357 173.065 214.437 171.504 214.469V73.0994H175.156V214.229Z" fill="#AABCE0"/>
<path d="M177.36 68.7247C174.496 71.2727 164.585 70.2311 162.172 69.1574V48.3894H177.36V68.7247Z" fill="#3E6EAD"/>
<path d="M142.513 41.13C142.32 40.2166 142.513 39.2711 143.044 38.4218C143.913 37.0757 145.586 36.0822 147.533 35.7938C162.141 33.5984 177.345 33.5984 191.954 35.7938C193.917 36.0822 195.606 37.0757 196.459 38.4538C197.054 39.3833 197.215 40.4409 196.909 41.4184V41.4505C196.861 55.6804 184.634 67.2502 169.655 67.2502C154.628 67.2502 142.4 55.6323 142.4 41.3543V41.146H142.513V41.13Z" fill="#70B78E"/>
<path d="M161.467 48.2136C161.467 52.7165 165.119 56.3541 169.64 56.3541C174.161 56.3541 177.829 52.7165 177.829 48.2136C177.829 43.7106 174.161 40.0731 169.64 40.0731C165.135 40.057 161.467 43.7106 161.467 48.2136Z" fill="#AABCE0"/>
<path d="M165.104 48.2122C165.104 50.712 167.131 52.7311 169.641 52.7311C172.15 52.7311 174.178 50.712 174.178 48.2122C174.178 45.7123 172.15 43.6932 169.641 43.6932C167.147 43.6772 165.104 45.7123 165.104 48.2122Z" fill="#5C88C6"/>
<path d="M51.159 59.6318C47.0242 59.6318 43.6777 62.965 43.6777 67.0833C43.6777 71.2016 47.0242 74.5348 51.159 74.5348C55.2939 74.5348 58.6403 71.2016 58.6403 67.0833C58.6403 62.965 55.2939 59.6318 51.159 59.6318ZM51.159 71.9868C48.44 71.9868 46.2359 69.7915 46.2359 67.0833C46.2359 64.3751 48.44 62.1798 51.159 62.1798C53.878 62.1798 56.0822 64.3751 56.0822 67.0833C56.0822 69.7915 53.878 71.9868 51.159 71.9868Z" fill="#4770B0"/>
<path fill-rule="evenodd" clip-rule="evenodd" d="M1.71719 182.461C1.89417 182.894 2.23203 183.262 2.69861 183.471L3.37434 183.759C3.84091 183.951 4.33967 183.935 4.77406 183.775C5.20846 183.599 5.57851 183.262 5.77157 182.798L6.62428 180.811C6.83343 180.346 6.81734 179.833 6.64037 179.4C6.49557 179.032 6.20597 178.743 5.83593 178.535L6.96214 175.907C7.36436 176.019 7.78267 176.019 8.13663 175.875C8.57103 175.699 8.94107 175.362 9.15022 174.898L10.0029 172.91C10.196 172.446 10.196 171.949 10.019 171.5C9.87422 171.132 9.58462 170.843 9.23067 170.635L10.3569 168.007C10.7591 168.119 11.1613 168.119 11.5475 167.975C11.9819 167.799 12.3519 167.462 12.545 166.997L13.3977 165.01C13.6068 164.546 13.5907 164.049 13.4138 163.6C13.269 163.232 12.9794 162.943 12.6093 162.735L13.7355 160.107C14.1378 160.219 14.5561 160.219 14.9261 160.075C15.3605 159.898 15.7305 159.562 15.9236 159.097L16.7602 157.11C16.9694 156.645 16.9533 156.149 16.7763 155.716C16.6315 155.347 16.3419 155.043 15.9719 154.835L17.082 152.207C17.4842 152.319 17.9025 152.319 18.2726 152.175C18.707 151.998 19.077 151.662 19.2701 151.197L20.1228 149.21C20.3159 148.745 20.3159 148.249 20.1228 147.8C19.978 147.431 19.6884 147.143 19.3344 146.918L20.4607 144.29C20.8629 144.403 21.2812 144.403 21.6512 144.258C22.0856 144.082 22.4557 143.746 22.6648 143.281L23.5014 141.294C23.6945 140.829 23.6945 140.332 23.5175 139.884C23.3727 139.515 23.0831 139.227 22.7131 139.018L23.8393 136.39C24.2415 136.502 24.6598 136.502 25.0299 136.358C25.4643 136.182 25.8343 135.845 26.0274 135.381L26.8801 133.394C27.0732 132.929 27.0571 132.432 26.8962 131.999C26.7514 131.631 26.4618 131.342 26.0917 131.118L27.218 128.49C27.6202 128.602 28.0385 128.602 28.4085 128.458C28.8429 128.282 29.213 127.945 29.406 127.481L30.2588 125.493C30.4518 125.029 30.4518 124.532 30.2748 124.099C30.13 123.731 29.8404 123.426 29.4704 123.218L30.5805 120.59C30.9827 120.702 31.4011 120.702 31.7711 120.558C32.2055 120.382 32.5755 120.045 32.7847 119.58L33.6374 117.593C33.8305 117.129 33.8305 116.632 33.6374 116.183C33.4926 115.815 33.203 115.51 32.833 115.302L33.9592 112.674C34.3614 112.786 34.7797 112.786 35.1498 112.642C35.5842 112.465 35.9542 112.129 36.1633 111.664L37.0161 109.677C37.2091 109.212 37.193 108.716 37.0321 108.283C36.8873 107.914 36.5977 107.61 36.2277 107.402L37.3539 104.774C37.7561 104.886 38.1745 104.886 38.5445 104.742C38.9789 104.565 39.3489 104.229 39.542 103.764L40.3947 101.777C40.5878 101.312 40.5878 100.815 40.4108 100.367C40.266 99.9982 39.9764 99.7098 39.6064 99.5014L40.7165 96.8734C41.1187 96.9856 41.537 96.9856 41.9071 96.8414C42.3415 96.6651 42.7115 96.3286 42.9046 95.8639L43.7573 93.8768C43.9503 93.4121 43.9503 92.9153 43.7734 92.4826C43.6286 92.1141 43.339 91.8096 42.9689 91.6013L44.079 88.9732C44.4813 89.0854 44.8996 89.0854 45.2696 88.9412C45.704 88.7649 46.0741 88.4124 46.2671 87.9637L47.1198 85.9766C47.3129 85.5119 47.3129 85.0151 47.1359 84.5825C46.9911 84.2139 46.7015 83.9255 46.3315 83.7011L47.4577 81.0731C47.8599 81.1853 48.2782 81.1853 48.6483 81.041C49.0827 80.8648 49.4527 80.5282 49.6458 80.0635L50.4985 78.0765C50.6916 77.6118 50.6916 77.115 50.5146 76.6663C50.3698 76.2977 50.0802 76.0093 49.7101 75.801L50.8364 73.1729L51.9465 75.801C51.5925 76.0093 51.3029 76.2977 51.142 76.6663C50.9651 77.099 50.9651 77.6118 51.1581 78.0765L52.0108 80.0635C52.2039 80.5282 52.5739 80.8648 53.0083 81.041C53.3784 81.1853 53.7967 81.1853 54.1989 81.0731L55.3251 83.7011C54.9551 83.9094 54.6655 84.1979 54.5207 84.5825C54.3437 85.0151 54.3437 85.5279 54.5368 85.9766L55.3734 87.9637C55.5826 88.4284 55.9365 88.7649 56.3709 88.9412C56.7409 89.0854 57.1593 89.0854 57.5454 88.9732L58.6716 91.6013C58.3177 91.8096 58.028 92.1141 57.8833 92.4826C57.7063 92.9153 57.6902 93.4121 57.8993 93.8768L58.736 95.8639C58.929 96.3286 59.2991 96.6651 59.7496 96.8414C60.1196 96.9856 60.5379 96.9856 60.9401 96.8734L62.0503 99.5014C61.6963 99.7098 61.4067 100.014 61.2619 100.367C61.0849 100.815 61.0688 101.312 61.2619 101.777L62.1146 103.764C62.3077 104.229 62.6777 104.565 63.1121 104.742C63.4822 104.886 63.9005 104.886 64.3027 104.774L65.4289 107.402C65.0589 107.61 64.7854 107.914 64.6245 108.283C64.4475 108.716 64.4314 109.212 64.6406 109.677L65.4933 111.664C65.6863 112.129 66.0564 112.465 66.4908 112.642C66.8608 112.786 67.2791 112.786 67.6813 112.674L68.8076 115.302C68.4536 115.51 68.164 115.815 68.0031 116.183C67.8261 116.632 67.8101 117.113 68.0192 117.593L68.8558 119.58C69.065 120.045 69.4189 120.382 69.8694 120.558C70.2395 120.702 70.6578 120.702 71.06 120.59L72.1862 123.218C71.8162 123.426 71.5266 123.731 71.3818 124.083C71.2048 124.516 71.2048 125.029 71.3979 125.477L72.2345 127.465C72.4436 127.929 72.7976 128.266 73.2481 128.442C73.6181 128.586 74.0364 128.586 74.4387 128.474L75.5649 131.102C75.2109 131.31 74.9213 131.615 74.7604 131.983C74.5835 132.416 74.5674 132.913 74.7604 133.378L75.6131 135.365C75.8062 135.829 76.1762 136.182 76.6267 136.342C76.9968 136.486 77.4151 136.486 77.8012 136.374L78.9274 139.002C78.5574 139.211 78.2839 139.499 78.123 139.868C77.946 140.3 77.9299 140.797 78.1391 141.278L78.9757 143.265C79.1688 143.73 79.5549 144.066 79.9893 144.242C80.3593 144.387 80.7776 144.387 81.1799 144.274L82.3061 146.902C81.9521 147.111 81.6464 147.415 81.5016 147.784C81.3247 148.216 81.3086 148.713 81.5177 149.194L82.3543 151.181C82.5635 151.646 82.9175 151.982 83.3679 152.159C83.738 152.303 84.1563 152.303 84.5585 152.191L85.6847 154.819C85.3308 155.027 85.0412 155.331 84.8803 155.7C84.7033 156.133 84.6872 156.645 84.8964 157.094L85.7491 159.081C85.9422 159.546 86.3122 159.882 86.7466 160.059C87.1166 160.203 87.5349 160.203 87.9372 160.091L89.0634 162.719C88.6933 162.927 88.4198 163.232 88.2589 163.584C88.082 164.017 88.0659 164.514 88.2589 164.994L89.1116 166.981C89.3047 167.446 89.6748 167.783 90.1091 167.959C90.4792 168.103 90.8975 168.103 91.2836 167.991L92.4099 170.619C92.0559 170.827 91.7663 171.116 91.6215 171.484C91.4445 171.917 91.4284 172.43 91.6376 172.894L92.4903 174.882C92.6834 175.346 93.0534 175.683 93.5039 175.859C93.8739 176.003 94.2922 176.003 94.6945 175.891L95.8207 178.519C95.4667 178.727 95.1771 179.032 95.0162 179.384C94.8393 179.817 94.8232 180.33 95.0323 180.795L95.8689 182.782C96.062 183.246 96.4321 183.583 96.8825 183.759C97.3169 183.935 97.8157 183.951 98.2823 183.743L98.958 183.455C99.4246 183.262 99.7624 182.894 99.9394 182.445C100.116 182.012 100.132 181.516 99.9233 181.051L99.0706 179.064C98.8776 178.599 98.5075 178.263 98.0731 178.086C97.7674 177.958 97.4296 177.958 97.0917 178.006L95.9333 175.298C96.2068 175.09 96.4321 174.849 96.5608 174.545C96.7377 174.112 96.7377 173.6 96.5447 173.151L95.692 171.164C95.4989 170.699 95.1289 170.363 94.6945 170.186C94.3888 170.058 94.0509 170.058 93.7131 170.106L92.5546 167.398C92.8282 167.19 93.0534 166.949 93.1821 166.645C93.3591 166.212 93.3752 165.699 93.166 165.235L92.3133 163.248C92.1202 162.783 91.7502 162.446 91.3158 162.27C91.0101 162.142 90.6723 162.142 90.3344 162.19L89.176 159.482C89.4495 159.289 89.6748 159.033 89.8035 158.729C89.9804 158.296 89.9965 157.783 89.7874 157.318L88.9347 155.331C88.7416 154.867 88.3716 154.53 87.9372 154.354C87.6315 154.226 87.2936 154.226 86.9557 154.274L85.7973 151.566C86.0709 151.357 86.2961 151.117 86.4248 150.812C86.6018 150.38 86.6179 149.867 86.4087 149.402L85.5721 147.415C85.379 146.951 85.009 146.614 84.5746 146.438C84.2689 146.31 83.9311 146.31 83.5932 146.358L82.4348 143.649C82.7083 143.441 82.9335 143.201 83.0623 142.896C83.2392 142.448 83.2553 141.951 83.0623 141.486L82.2095 139.499C82.0165 139.034 81.6464 138.698 81.196 138.522C80.8903 138.393 80.5524 138.393 80.2145 138.441L79.0561 135.733C79.3296 135.525 79.5549 135.285 79.6836 134.98C79.8606 134.547 79.8767 134.035 79.6675 133.57L78.8148 131.583C78.6217 131.118 78.2517 130.782 77.8173 130.605C77.5116 130.477 77.1738 130.477 76.8359 130.525L75.6775 127.817C75.951 127.625 76.1762 127.368 76.3049 127.064C76.4819 126.631 76.498 126.134 76.2889 125.67L75.4522 123.683C75.2592 123.218 74.8891 122.881 74.4387 122.705C74.133 122.577 73.7951 122.577 73.4572 122.625L72.2988 119.917C72.5723 119.709 72.7976 119.468 72.9263 119.164C73.1033 118.731 73.1194 118.218 72.9102 117.754L72.0575 115.766C71.8644 115.302 71.4944 114.965 71.06 114.789C70.7543 114.661 70.4165 114.661 70.0786 114.709L68.9202 112.001C69.1937 111.792 69.4189 111.552 69.5476 111.248C69.7246 110.815 69.7407 110.302 69.5476 109.837L68.6949 107.85C68.5019 107.386 68.1318 107.049 67.6813 106.873C67.3757 106.745 67.0378 106.745 66.6999 106.793L65.5415 104.085C65.815 103.876 66.0403 103.636 66.169 103.331C66.346 102.899 66.3621 102.402 66.1529 101.921L65.3163 99.9341C65.1232 99.4694 64.7532 99.1329 64.3027 98.9566C63.997 98.8284 63.6591 98.8284 63.3213 98.8765L62.1629 96.1683C62.4364 95.96 62.6616 95.7196 62.7903 95.4152C62.9673 94.9825 62.9673 94.4857 62.7743 94.005L61.9215 92.0179C61.7285 91.5532 61.3584 91.2167 60.924 91.0244C60.6184 90.8962 60.2805 90.8962 59.9426 90.9443L58.7842 88.2361C59.0577 88.0278 59.283 87.7874 59.4117 87.4829C59.5887 87.0503 59.6048 86.5375 59.3956 86.0888L58.5429 84.1017C58.3498 83.637 57.9798 83.3005 57.5293 83.1242C57.2236 82.996 56.8857 82.996 56.5479 83.0441L55.4056 80.3359C55.6791 80.1276 55.9043 79.8873 56.033 79.5828C56.21 79.1501 56.2261 78.6534 56.017 78.1886L55.1642 76.2016C54.9712 75.7369 54.6011 75.4003 54.1507 75.2241C53.845 75.0959 53.5071 75.0959 53.1692 75.144L51.7212 71.7307C51.5925 71.4262 51.2708 71.25 51.0294 71.3621L50.772 71.4743L50.5146 71.3621C50.2572 71.266 49.9515 71.4262 49.8067 71.7307L48.3587 75.144C48.0208 75.0959 47.6829 75.0959 47.3773 75.2241C46.9268 75.4003 46.5728 75.7529 46.3637 76.2016L45.511 78.1886C45.3179 78.6534 45.3179 79.1501 45.511 79.5828C45.6397 79.8873 45.8649 80.1276 46.1384 80.3359L44.9961 83.0441C44.6582 82.996 44.3204 82.996 44.0147 83.1242C43.5803 83.3005 43.2103 83.637 43.0011 84.1017L42.1645 86.0888C41.9714 86.5535 41.9875 87.0503 42.1484 87.4829C42.2771 87.7874 42.5023 88.0278 42.7759 88.2361L41.6335 90.9443C41.2957 90.8962 40.9578 90.8962 40.6521 91.0244C40.2177 91.2007 39.8477 91.5372 39.6546 92.0179L38.8019 94.005C38.6088 94.4697 38.6249 94.9665 38.7858 95.4152C38.9145 95.7196 39.1398 95.96 39.4133 96.1683L38.2549 98.8765C37.917 98.8284 37.5792 98.8284 37.2735 98.9566C36.8391 99.1329 36.469 99.4694 36.2599 99.9341L35.4233 101.921C35.2141 102.386 35.2302 102.883 35.4072 103.331C35.5359 103.636 35.7611 103.876 36.0346 104.085L34.8762 106.793C34.5384 106.745 34.2005 106.745 33.8948 106.873C33.4604 107.049 33.0904 107.386 32.8812 107.85L32.0285 109.837C31.8355 110.302 31.8355 110.799 32.0124 111.248C32.1411 111.552 32.3664 111.792 32.6399 112.001L31.4815 114.709C31.1436 114.661 30.8058 114.661 30.5001 114.789C30.0657 114.965 29.6956 115.302 29.5026 115.766L28.6499 117.754C28.4568 118.218 28.4568 118.731 28.6338 119.164C28.7625 119.468 28.9877 119.709 29.2612 119.917L28.1028 122.625C27.765 122.561 27.4271 122.577 27.1214 122.705C26.687 122.881 26.317 123.218 26.1078 123.683L25.2712 125.67C25.0782 126.134 25.0782 126.631 25.2551 127.064C25.3838 127.368 25.6091 127.625 25.8826 127.817L24.7242 130.525C24.3863 130.477 24.0485 130.477 23.7428 130.605C23.3084 130.782 22.9383 131.118 22.7453 131.583L21.8926 133.57C21.6995 134.035 21.6995 134.531 21.8765 134.98C22.0052 135.285 22.2304 135.525 22.5039 135.733L21.3455 138.441C21.0077 138.393 20.6698 138.393 20.3641 138.522C19.9297 138.698 19.5597 139.034 19.3505 139.499L18.4978 141.486C18.3048 141.951 18.3048 142.448 18.4817 142.896C18.6104 143.201 18.8357 143.441 19.1092 143.649L17.9669 146.358C17.629 146.31 17.2912 146.31 16.9855 146.438C16.5511 146.614 16.1649 146.951 15.9719 147.415L15.1996 149.434C15.0066 149.899 15.0066 150.412 15.1835 150.844C15.3122 151.149 15.5375 151.389 15.811 151.598L14.6526 154.306C14.3147 154.242 13.9769 154.258 13.6712 154.386C13.2368 154.562 12.8667 154.899 12.6737 155.363L11.821 157.334C11.6279 157.799 11.6279 158.312 11.8049 158.745C11.9175 159.049 12.1588 159.29 12.4323 159.498L11.2739 162.206C10.9361 162.158 10.5982 162.158 10.2925 162.286C9.85813 162.462 9.48809 162.799 9.27893 163.264L8.44231 165.251C8.23316 165.715 8.24925 166.212 8.42623 166.661C8.55494 166.965 8.78018 167.206 9.05369 167.414L7.89529 170.122C7.55743 170.074 7.21956 170.074 6.91388 170.202C6.47948 170.379 6.10944 170.715 5.91637 171.18L5.07975 173.167C4.88669 173.632 4.88669 174.128 5.06366 174.561C5.17628 174.865 5.41762 175.106 5.69113 175.314L4.53273 178.022C4.19487 177.974 3.857 177.974 3.55131 178.102C3.11692 178.279 2.74687 178.615 2.55381 179.08L1.7011 181.067C1.52412 181.532 1.52412 182.029 1.71719 182.461ZM47.7151 80.0155C47.7151 79.7911 47.6669 79.5828 47.4738 79.5027L47.1198 79.3584C46.9429 79.2783 46.7498 79.3424 46.605 79.4706C46.5567 79.4065 46.5085 79.3424 46.4763 79.2783C46.3958 79.086 46.3958 78.8777 46.4763 78.6854L47.3129 76.6983C47.3933 76.506 47.5542 76.3618 47.7312 76.2817C47.8117 76.2497 47.876 76.2497 47.9565 76.2336C47.9243 76.474 47.9886 76.7144 48.1978 76.7945L48.5517 76.9387C48.777 77.0349 49.0344 76.9067 49.1792 76.6823C49.2918 76.7624 49.3723 76.8746 49.4205 76.9868C49.501 77.1791 49.501 77.3874 49.4205 77.5797L48.5678 79.5668C48.4874 79.7591 48.3265 79.9033 48.1334 79.9834C48.0208 80.0475 47.876 80.0475 47.7151 80.0155ZM46.0741 84.887C46.1545 85.0792 46.1545 85.2876 46.0741 85.4799L45.2214 87.4669C45.1409 87.6592 44.98 87.8034 44.803 87.8836C44.6582 87.9477 44.5135 87.9477 44.3526 87.9156C44.3687 87.6913 44.3043 87.4829 44.1112 87.4028L43.7573 87.2586C43.5964 87.1945 43.3872 87.2426 43.2424 87.3868C43.1942 87.3227 43.1459 87.2586 43.1137 87.1785C43.0333 87.0022 43.0333 86.7939 43.1137 86.5856L43.9664 84.5985C44.0469 84.4062 44.2078 84.262 44.4008 84.1819C44.4652 84.1498 44.5456 84.1498 44.6261 84.1338C44.5939 84.3742 44.6582 84.6145 44.8513 84.6947L45.2053 84.8389C45.4305 84.935 45.6718 84.8068 45.8327 84.5825C45.9293 84.6626 46.0258 84.7748 46.0741 84.887ZM42.7115 92.8031C42.7759 92.9794 42.7759 93.1877 42.7115 93.3961L41.8588 95.3831C41.7783 95.5754 41.6175 95.7196 41.4405 95.7998C41.2957 95.8639 41.1348 95.8638 40.99 95.8318C41.0061 95.6075 40.9417 95.3991 40.7647 95.319L40.3947 95.1748C40.2338 95.0947 40.0408 95.1588 39.8799 95.287C39.8316 95.2229 39.7833 95.1588 39.7512 95.0947C39.6707 94.9024 39.6707 94.6941 39.7512 94.5018L40.6039 92.5147C40.6843 92.3224 40.8452 92.1782 41.0222 92.0981C41.1026 92.066 41.167 92.066 41.2474 92.05C41.2152 92.2903 41.2796 92.5307 41.4887 92.6108L41.8427 92.7551C42.0679 92.8512 42.3254 92.723 42.4702 92.4987C42.5667 92.5788 42.6632 92.6749 42.7115 92.8031ZM37.6113 103.732C37.6274 103.508 37.5631 103.299 37.37 103.219L37.0161 103.075C36.8391 103.011 36.646 103.059 36.5012 103.203C36.4529 103.139 36.4047 103.075 36.3725 103.011C36.3081 102.835 36.2921 102.61 36.3725 102.418L37.2252 100.431C37.3057 100.239 37.4665 100.094 37.6435 100.014C37.724 99.9822 37.7883 99.9822 37.8688 99.9662C37.8366 100.207 37.9009 100.431 38.1101 100.527L38.4641 100.671C38.6732 100.767 38.9306 100.639 39.0915 100.415C39.2041 100.495 39.2846 100.607 39.3328 100.719C39.3972 100.912 39.4133 101.12 39.3328 101.312L38.4801 103.299C38.3997 103.492 38.2388 103.636 38.0618 103.716C37.917 103.764 37.7722 103.764 37.6113 103.732ZM34.2488 111.648C34.2649 111.424 34.2005 111.215 34.0074 111.135L33.6535 110.991C33.4765 110.927 33.2995 111.007 33.1547 111.135C33.0904 111.071 33.0421 110.991 33.0099 110.911C32.9295 110.719 32.9295 110.51 33.0099 110.318L33.8466 108.331C33.9431 108.139 34.0879 107.995 34.281 107.914C34.3453 107.882 34.4258 107.882 34.5062 107.866C34.4901 108.107 34.5384 108.331 34.7475 108.427L35.1015 108.571C35.3267 108.668 35.552 108.523 35.7129 108.299C35.8255 108.379 35.922 108.491 35.9703 108.619C36.0507 108.796 36.0507 109.02 35.9703 109.212L35.1176 111.199C35.0371 111.392 34.8762 111.536 34.6993 111.616C34.5545 111.68 34.3936 111.68 34.2488 111.648ZM30.8701 119.548C30.8862 119.324 30.8219 119.116 30.6288 119.036L30.2748 118.891C30.0979 118.827 29.9209 118.875 29.76 119.02C29.7117 118.955 29.6635 118.891 29.6313 118.827C29.5669 118.651 29.5508 118.427 29.6313 118.234L30.484 116.247C30.5644 116.055 30.7253 115.911 30.9023 115.831C30.9827 115.799 31.0471 115.799 31.1275 115.783C31.0954 116.023 31.1597 116.247 31.3528 116.327L31.7067 116.472C31.932 116.568 32.1733 116.456 32.3342 116.215C32.4468 116.295 32.5434 116.407 32.5916 116.52C32.6721 116.712 32.6721 116.92 32.5916 117.113L31.755 119.1C31.6746 119.292 31.5137 119.436 31.3206 119.516C31.1919 119.58 31.031 119.58 30.8701 119.548ZM27.5076 127.448C27.5237 127.224 27.4593 127.016 27.2823 126.936L26.9284 126.791C26.7675 126.711 26.5583 126.775 26.4135 126.92C26.3653 126.856 26.317 126.791 26.2848 126.727C26.2044 126.551 26.2044 126.327 26.2848 126.134L27.1375 124.147C27.218 123.955 27.3789 123.811 27.5558 123.731C27.6202 123.699 27.7006 123.699 27.7811 123.683C27.7489 123.923 27.8133 124.147 28.0063 124.228L28.3603 124.388C28.5855 124.484 28.8429 124.356 28.9877 124.131C29.1004 124.211 29.1808 124.324 29.2291 124.436C29.3095 124.612 29.3095 124.836 29.2291 125.029L28.3764 127.016C28.2959 127.208 28.135 127.352 27.9581 127.432C27.8133 127.481 27.6685 127.481 27.5076 127.448ZM25.8665 132.336C25.9469 132.528 25.9469 132.737 25.8665 132.929L25.0299 134.916C24.9334 135.108 24.7886 135.252 24.5955 135.333C24.4507 135.397 24.2898 135.397 24.145 135.365C24.1611 135.14 24.0967 134.932 23.9037 134.852L23.5497 134.692C23.3888 134.628 23.1958 134.708 23.051 134.836C22.9866 134.772 22.9383 134.692 22.9062 134.612C22.8257 134.419 22.8257 134.211 22.9062 134.019L23.7428 132.032C23.8232 131.839 23.9841 131.695 24.1772 131.615C24.2415 131.583 24.322 131.583 24.4024 131.567C24.3863 131.807 24.4346 132.032 24.6438 132.112L24.9977 132.256C25.2229 132.352 25.4643 132.224 25.6252 131.999C25.7217 132.112 25.8182 132.224 25.8665 132.336ZM22.5039 140.252C22.5844 140.428 22.5844 140.653 22.5039 140.845L21.6673 142.832C21.5869 143.024 21.426 143.169 21.249 143.249C21.1042 143.313 20.9433 143.313 20.7985 143.281C20.8146 143.057 20.7503 142.848 20.5572 142.768L20.2032 142.608C20.0263 142.528 19.8332 142.592 19.6884 142.736C19.6401 142.672 19.5919 142.608 19.5597 142.544C19.4792 142.351 19.4792 142.143 19.5597 141.951L20.4124 139.964C20.4928 139.771 20.6537 139.627 20.8307 139.547C20.8951 139.515 20.9755 139.515 21.0559 139.499C21.0399 139.739 21.0881 139.964 21.2973 140.06L21.6512 140.204C21.8765 140.3 22.1178 140.172 22.2787 139.948C22.3591 140.028 22.4557 140.124 22.5039 140.252ZM17.4038 151.181C17.4199 150.957 17.3555 150.748 17.1625 150.668L16.8085 150.524C16.6476 150.444 16.4545 150.508 16.2937 150.652C16.2454 150.588 16.1971 150.524 16.1649 150.444C16.0845 150.268 16.0845 150.043 16.1649 149.851L17.0177 147.864C17.0981 147.656 17.259 147.527 17.436 147.447C17.5003 147.415 17.5808 147.415 17.6612 147.399C17.629 147.64 17.6934 147.864 17.8864 147.96L18.2565 148.104C18.4656 148.2 18.707 148.088 18.8518 147.88C18.9483 147.96 19.077 148.024 19.1253 148.152C19.1896 148.345 19.2057 148.553 19.1253 148.745L18.2726 150.732C18.1921 150.925 18.0312 151.069 17.8543 151.149C17.7095 151.213 17.5486 151.213 17.4038 151.181ZM15.7627 156.069C15.8432 156.261 15.8432 156.469 15.7627 156.661L14.91 158.649C14.8296 158.841 14.6687 158.985 14.4917 159.065C14.3469 159.113 14.186 159.113 14.0412 159.097C14.0573 158.873 13.993 158.665 13.7999 158.584L13.4298 158.424C13.2529 158.344 13.0598 158.408 12.915 158.536C12.8667 158.472 12.8185 158.408 12.7863 158.344C12.7059 158.168 12.7059 157.943 12.7863 157.751L13.639 155.764C13.7194 155.572 13.8803 155.412 14.0573 155.347C14.1217 155.315 14.2021 155.315 14.2826 155.299C14.2504 155.54 14.3147 155.78 14.5078 155.86L14.8618 156.02C15.087 156.117 15.3283 156.004 15.4892 155.764C15.6179 155.844 15.7145 155.94 15.7627 156.069ZM10.6626 166.997C10.6787 166.773 10.6143 166.565 10.4212 166.485L10.0673 166.324C9.89031 166.244 9.69724 166.308 9.55244 166.453C9.50418 166.388 9.45591 166.324 9.42373 166.244C9.34329 166.068 9.34329 165.844 9.43982 165.651L10.2764 163.664C10.3569 163.472 10.5178 163.328 10.7108 163.248C10.7752 163.216 10.8556 163.216 10.9361 163.2C10.92 163.44 10.9683 163.664 11.1774 163.744L11.5314 163.889C11.7405 163.985 11.9979 163.873 12.1588 163.632C12.2715 163.712 12.3519 163.824 12.4002 163.953C12.4806 164.129 12.4806 164.353 12.4002 164.546L11.5635 166.533C11.4831 166.741 11.3222 166.885 11.1291 166.949C10.9683 167.029 10.8235 167.029 10.6626 166.997ZM9.02151 171.885C9.08587 172.061 9.10196 172.286 9.02151 172.478L8.1688 174.465C8.08836 174.673 7.92747 174.801 7.7505 174.882C7.6057 174.946 7.44481 174.946 7.30001 174.914C7.3161 174.689 7.25174 174.481 7.07477 174.401L6.70472 174.257C6.52775 174.192 6.35077 174.273 6.20597 174.401C6.14161 174.337 6.09335 174.257 6.06117 174.176C5.98073 173.984 5.98073 173.776 6.06117 173.584L6.91388 171.596C6.99432 171.404 7.15521 171.26 7.33219 171.18C7.39654 171.148 7.47699 171.148 7.55743 171.132C7.52525 171.372 7.58961 171.612 7.79876 171.693L8.15272 171.837C8.37796 171.917 8.6032 171.789 8.76409 171.564C8.87671 171.645 8.97325 171.757 9.02151 171.885ZM3.79265 182.782L3.11692 182.493C2.92385 182.413 2.77905 182.253 2.69861 182.061C2.63425 181.884 2.61816 181.66 2.69861 181.468L3.53523 179.481C3.61567 179.288 3.77656 179.144 3.95353 179.064C4.03398 179.032 4.09833 179.032 4.17878 179.016C4.1466 179.256 4.21096 179.481 4.42011 179.577L4.77406 179.737C4.98322 179.833 5.24064 179.705 5.40153 179.481C5.51415 179.561 5.59459 179.657 5.65895 179.785C5.7233 179.977 5.73939 180.186 5.65895 180.378L4.80624 182.365C4.7258 182.557 4.56491 182.702 4.38793 182.782C4.19487 182.862 3.98571 182.862 3.79265 182.782ZM96.0781 179.481C96.239 179.705 96.4803 179.833 96.7056 179.737L97.0595 179.577C97.2526 179.497 97.3169 179.256 97.3008 179.032C97.3813 179.032 97.4457 179.048 97.5261 179.08C97.7192 179.16 97.864 179.304 97.9444 179.497L98.7971 181.484C98.8776 181.676 98.8615 181.884 98.7971 182.077C98.7328 182.269 98.5719 182.413 98.3788 182.509L97.7031 182.798C97.51 182.878 97.3008 182.878 97.1078 182.798C96.9147 182.734 96.7699 182.589 96.6895 182.381L95.8368 180.394C95.7563 180.202 95.7563 179.977 95.8368 179.801C95.885 179.657 95.9816 179.561 96.0781 179.481ZM92.7316 171.564C92.8925 171.789 93.1339 171.917 93.343 171.837L93.697 171.693C93.89 171.612 93.9544 171.388 93.9383 171.132C94.0187 171.132 94.0992 171.148 94.1635 171.18C94.3405 171.26 94.5014 171.404 94.5818 171.596L95.4346 173.584C95.515 173.776 95.515 173.984 95.4346 174.176C95.4024 174.257 95.3541 174.321 95.2897 174.401C95.145 174.273 94.968 174.192 94.791 174.257L94.437 174.401C94.244 174.481 94.1957 174.689 94.1957 174.914C94.0348 174.946 93.89 174.946 93.7452 174.882C93.5682 174.801 93.4074 174.673 93.3269 174.465L92.4742 172.478C92.3938 172.286 92.3938 172.061 92.4742 171.885C92.5225 171.757 92.619 171.645 92.7316 171.564ZM89.353 163.664C89.4978 163.889 89.7552 164.017 89.9644 163.921L90.3183 163.776C90.5114 163.696 90.5757 163.456 90.5596 163.232C90.6401 163.232 90.7205 163.248 90.7849 163.28C90.9619 163.36 91.1227 163.504 91.2032 163.696L92.0398 165.683C92.1202 165.892 92.1203 166.1 92.0559 166.276C92.0237 166.356 91.9755 166.42 91.9272 166.485C91.7824 166.34 91.5893 166.292 91.4123 166.356L91.0584 166.517C90.8653 166.597 90.801 166.805 90.8171 167.029C90.6562 167.061 90.4953 167.061 90.3666 166.997C90.1735 166.933 90.0287 166.789 89.9483 166.581L89.0956 164.594C89.0151 164.401 89.0151 164.193 89.0956 164.001C89.1438 163.857 89.2404 163.744 89.353 163.664ZM85.9743 155.764C86.1191 155.988 86.3765 156.117 86.6018 156.02L86.9557 155.86C87.1488 155.78 87.2132 155.54 87.1971 155.299C87.2775 155.299 87.3419 155.315 87.4223 155.347C87.5993 155.412 87.7602 155.572 87.8406 155.764L88.6933 157.751C88.7738 157.943 88.7738 158.168 88.6933 158.344C88.6612 158.424 88.6129 158.488 88.5646 158.536C88.4198 158.408 88.2268 158.344 88.0498 158.424L87.6958 158.568C87.5188 158.649 87.4545 158.857 87.4545 159.081C87.2936 159.113 87.1488 159.113 87.004 159.049C86.8109 158.969 86.6661 158.825 86.5857 158.632L85.733 156.645C85.6525 156.453 85.6525 156.245 85.733 156.053C85.7813 155.94 85.8778 155.844 85.9743 155.764ZM82.6118 147.848C82.7727 148.072 83.014 148.2 83.2392 148.104L83.5932 147.96C83.7863 147.88 83.8506 147.64 83.8184 147.399C83.8989 147.399 83.9632 147.415 84.0437 147.447C84.2206 147.527 84.3815 147.672 84.4781 147.864L85.3308 149.851C85.4112 150.043 85.4112 150.268 85.3308 150.444C85.2986 150.524 85.2503 150.588 85.2021 150.636C85.0573 150.508 84.8642 150.444 84.6872 150.524L84.3333 150.668C84.1563 150.748 84.0758 150.957 84.0919 151.181C83.931 151.213 83.7702 151.213 83.6415 151.149C83.4484 151.069 83.3036 150.925 83.2231 150.732L82.3704 148.745C82.29 148.553 82.29 148.345 82.3704 148.152C82.4187 148.024 82.4991 147.928 82.6118 147.848ZM79.2492 139.948C79.394 140.172 79.6514 140.3 79.8767 140.204L80.2306 140.06C80.4237 139.98 80.488 139.739 80.472 139.499C80.5524 139.515 80.6328 139.515 80.6972 139.547C80.8742 139.611 81.0351 139.771 81.1316 139.964L81.9682 141.951C82.0487 142.143 82.0487 142.367 81.9682 142.544C81.936 142.608 81.8878 142.688 81.8395 142.736C81.6947 142.608 81.5016 142.544 81.3247 142.608L80.9707 142.768C80.7937 142.832 80.7294 143.057 80.7294 143.281C80.5685 143.313 80.4237 143.313 80.2789 143.249C80.0858 143.169 79.9249 143.024 79.8445 142.832L78.9918 140.845C78.9113 140.653 78.9113 140.444 78.9918 140.252C79.04 140.124 79.1366 140.028 79.2492 139.948ZM75.8706 132.032C76.0154 132.256 76.2728 132.384 76.498 132.288L76.852 132.144C77.045 132.064 77.1094 131.839 77.0933 131.599C77.1738 131.599 77.2381 131.615 77.3186 131.647C77.4955 131.727 77.6564 131.871 77.7369 132.064L78.5896 134.051C78.67 134.243 78.67 134.467 78.5896 134.644C78.5574 134.724 78.5091 134.804 78.4448 134.868C78.3 134.74 78.123 134.644 77.946 134.724L77.5921 134.884C77.4151 134.964 77.3507 135.172 77.3507 135.397C77.1898 135.429 77.045 135.429 76.9002 135.365C76.7233 135.285 76.5624 135.14 76.4819 134.948L75.6292 132.961C75.5488 132.769 75.5488 132.544 75.6292 132.368C75.6775 132.224 75.774 132.112 75.8706 132.032ZM72.508 124.131C72.6528 124.356 72.9102 124.484 73.1355 124.388L73.4894 124.228C73.6825 124.147 73.7468 123.923 73.7307 123.683C73.8112 123.683 73.8916 123.699 73.956 123.731C74.133 123.795 74.2938 123.955 74.3743 124.147L75.227 126.134C75.3074 126.327 75.3074 126.551 75.227 126.727C75.1948 126.807 75.1466 126.872 75.0983 126.92C74.9535 126.791 74.7604 126.727 74.5835 126.807L74.2295 126.952C74.0525 127.032 73.9721 127.24 73.9882 127.465C73.8434 127.497 73.6825 127.497 73.5377 127.432C73.3446 127.352 73.1998 127.208 73.1033 127.016L72.2506 125.029C72.1701 124.836 72.1701 124.612 72.2506 124.436C72.2988 124.308 72.3954 124.211 72.508 124.131ZM69.1293 116.215C69.2902 116.44 69.5316 116.568 69.7568 116.472L70.1108 116.327C70.3038 116.247 70.3682 116.023 70.3521 115.783C70.4325 115.783 70.4969 115.799 70.5773 115.831C70.7543 115.911 70.9152 116.055 70.9956 116.247L71.8323 118.234C71.9127 118.427 71.9127 118.651 71.8323 118.827C71.8001 118.891 71.7518 118.971 71.7036 119.02C71.5427 118.875 71.3657 118.827 71.1887 118.891L70.8347 119.036C70.6417 119.116 70.5934 119.324 70.5934 119.548C70.4325 119.58 70.2877 119.58 70.1429 119.516C69.9499 119.452 69.8051 119.292 69.7085 119.1L68.8558 117.113C68.7754 116.92 68.7754 116.712 68.8558 116.52C68.9363 116.407 69.0328 116.295 69.1293 116.215ZM65.7829 108.299C65.9277 108.523 66.169 108.652 66.3942 108.571L66.7482 108.427C66.9413 108.347 67.0056 108.107 66.9734 107.866C67.0539 107.866 67.1343 107.882 67.1987 107.914C67.3757 107.995 67.5365 108.139 67.617 108.331L68.4536 110.318C68.534 110.51 68.534 110.719 68.4536 110.911C68.4214 110.991 68.3732 111.055 68.3088 111.135C68.164 111.007 67.987 110.911 67.8101 110.991L67.4561 111.135C67.2791 111.215 67.2148 111.424 67.2148 111.648C67.07 111.68 66.9091 111.68 66.7643 111.616C66.5873 111.536 66.4264 111.392 66.346 111.199L65.4933 109.212C65.4128 109.004 65.4128 108.796 65.4933 108.619C65.5737 108.491 65.6702 108.379 65.7829 108.299ZM62.4042 100.399C62.549 100.623 62.8064 100.751 63.0317 100.655L63.3856 100.511C63.5787 100.431 63.6431 100.191 63.627 99.9501C63.7074 99.9501 63.7718 99.9662 63.8522 99.9982C64.0292 100.078 64.1901 100.223 64.2705 100.415L65.1232 102.402C65.2037 102.594 65.2037 102.819 65.1232 102.995C65.091 103.059 65.0428 103.139 64.9945 103.187C64.8336 103.059 64.6406 102.995 64.4797 103.059L64.1257 103.203C63.9487 103.283 63.8844 103.492 63.8844 103.716C63.7235 103.748 63.5787 103.748 63.4339 103.684C63.2408 103.604 63.0799 103.46 62.9995 103.267L62.1468 101.28C62.0663 101.088 62.0663 100.88 62.1468 100.687C62.1951 100.591 62.2916 100.479 62.4042 100.399ZM59.0256 92.4987C59.1704 92.723 59.4278 92.8512 59.653 92.7551L60.007 92.6108C60.2 92.5307 60.2644 92.2903 60.2322 92.05C60.3127 92.066 60.3931 92.066 60.4575 92.0981C60.6344 92.1782 60.7953 92.3224 60.8758 92.5147L61.7124 94.5018C61.7928 94.6941 61.7928 94.9024 61.7124 95.0947C61.6802 95.1748 61.6319 95.2389 61.5837 95.303C61.4389 95.1588 61.2297 95.1107 61.0688 95.1748L60.7149 95.319C60.5379 95.3991 60.4736 95.6075 60.4896 95.8318C60.3448 95.8638 60.184 95.8639 60.0392 95.7998C59.8461 95.7196 59.7013 95.5754 59.6048 95.3831L58.7521 93.3961C58.6716 93.2038 58.6716 92.9794 58.7521 92.8031C58.8325 92.6749 58.929 92.5788 59.0256 92.4987ZM55.663 84.5825C55.8078 84.8068 56.0652 84.935 56.2905 84.8389L56.6444 84.6947C56.8536 84.6145 56.9018 84.3742 56.8857 84.1338C56.9662 84.1338 57.0466 84.1498 57.111 84.1819C57.3041 84.262 57.4489 84.4062 57.5454 84.5985L58.3981 86.5856C58.4785 86.7779 58.4785 87.0022 58.3981 87.1785C58.3659 87.2586 58.3177 87.3227 58.2694 87.3868C58.1246 87.2586 57.9154 87.1945 57.7545 87.2586L57.4006 87.4028C57.2075 87.4829 57.1593 87.6913 57.1593 87.9156C56.9984 87.9477 56.8536 87.9477 56.7088 87.8836C56.5318 87.8034 56.3709 87.6592 56.2905 87.4669L55.4378 85.4799C55.3573 85.2876 55.3573 85.0792 55.4378 84.887C55.4699 84.7748 55.5504 84.6626 55.663 84.5825ZM52.3004 76.6823C52.4613 76.9067 52.7027 77.0349 52.9279 76.9387L53.2819 76.7945C53.4749 76.7144 53.5393 76.474 53.5232 76.2336C53.6036 76.2336 53.668 76.2497 53.7484 76.2817C53.9415 76.3618 54.0863 76.506 54.1667 76.6983L55.0194 78.6854C55.0999 78.8777 55.0999 79.102 55.0194 79.2783C54.9873 79.3584 54.939 79.4065 54.8907 79.4706C54.7459 79.3424 54.5529 79.2783 54.3759 79.3584L54.0219 79.5027C53.845 79.5828 53.7806 79.7911 53.7967 80.0155C53.6358 80.0475 53.4749 80.0475 53.3301 79.9834C53.1531 79.9033 52.9923 79.7751 52.9118 79.5668L52.0591 77.5797C51.9787 77.3874 51.9787 77.1791 52.0591 76.9868C52.0913 76.8586 52.1878 76.7624 52.3004 76.6823Z" fill="#4770B0"/>
<path d="M100.84 182.718V182.926C100.84 196.13 78.621 206.883 51.3182 206.883C24.0155 206.883 1.79688 196.13 1.79688 182.926V182.718H100.84Z" fill="#AABCE0"/>
<path d="M96.9786 184.017V184.193C96.9786 195.298 76.8193 204.336 52.0586 204.336C83.7214 193.663 7.13867 195.298 7.13867 184.193V184.017H96.9786Z" fill="#83A4E6"/>
<path d="M1.97461 182.445C1.97461 185.618 24.0324 188.198 51.2547 188.198C78.477 188.198 100.535 185.618 100.535 182.445C100.535 179.272 78.477 176.692 51.2547 176.692C24.0324 176.692 1.97461 179.272 1.97461 182.445Z" fill="#748FC7"/>
<path d="M16.2779 187.588C11.6925 187.059 8.08865 186.434 5.54662 185.729C3.37463 185.136 0.880859 184.207 0.880859 182.444C0.880859 180.681 3.37463 179.752 5.54662 179.159C8.08865 178.454 11.6925 177.829 16.2779 177.3C25.6255 176.21 38.046 175.602 51.255 175.602C64.4639 175.602 76.8845 176.194 86.2321 177.3C90.8174 177.829 94.4213 178.454 96.9633 179.159C99.1353 179.752 101.629 180.681 101.629 182.444C101.629 184.223 99.1353 185.136 96.9633 185.729C94.4213 186.434 90.8174 187.059 86.2321 187.588C76.8845 188.678 64.4639 189.287 51.255 189.287C38.046 189.287 25.6255 188.678 16.2779 187.588ZM84.7841 179.319C75.6617 178.326 63.756 177.781 51.255 177.781C38.7539 177.781 26.8482 178.326 17.7259 179.319C6.39932 180.553 3.76076 181.979 3.18156 182.444C3.76076 182.909 6.39932 184.335 17.7259 185.569C26.8482 186.562 38.7539 187.107 51.255 187.107C63.756 187.107 75.6617 186.562 84.7841 185.569C96.1106 184.335 98.7492 182.909 99.3284 182.444C98.7492 181.979 96.1106 180.553 84.7841 179.319Z" fill="#C7D7F6"/>
<path d="M68.7425 187.653C80.6643 187.445 91.106 185.858 92.6344 185.41C92.8436 185.346 92.9723 185.121 92.9079 184.913C92.8436 184.705 92.6183 184.577 92.4092 184.641C90.752 185.121 80.0208 186.644 68.7264 186.852C68.5012 186.852 68.3242 187.044 68.3242 187.269C68.3242 187.477 68.5173 187.653 68.7425 187.653Z" fill="#AABCE0"/>
<path d="M42.1256 141.983C39.6635 141.983 36.9128 141.49 36.9128 138.141C36.9128 134.792 37.0147 129.489 37.0147 129.489L30.5454 128.945C30.5454 128.843 30.5454 128.792 30.5454 128.792L29.6455 128.86L28.7456 128.792C28.7456 128.792 28.7456 128.843 28.7456 128.945L22.2763 129.489C22.2763 129.489 22.3782 134.792 22.3782 138.141C22.3782 141.49 19.6275 141.983 17.1654 141.983C14.7034 141.983 10 142.969 10 149.462C10 155.955 10 174.144 10 178.376C10 182.422 15.841 186.281 28.7456 186.621C28.7456 186.621 29.3399 186.638 29.6455 186.638C29.9342 186.638 30.5454 186.621 30.5454 186.621C43.433 186.298 49.291 182.422 49.291 178.376C49.291 174.144 49.291 155.955 49.291 149.462C49.291 142.952 44.5707 141.983 42.1256 141.983Z" fill="#871E1E"/>
<path d="M30.5633 185.807C30.5633 185.807 29.952 185.824 29.6464 185.824C29.3408 185.824 28.7295 185.807 28.7295 185.807C17.7606 185.535 11.8177 182.73 10.1367 179.433C11.0876 183.07 16.9795 186.317 28.7465 186.606C28.7465 186.606 29.3408 186.623 29.6464 186.623C29.935 186.623 30.5463 186.606 30.5463 186.606C42.2963 186.3 48.2052 183.07 49.1561 179.433C47.4921 182.73 41.5322 185.535 30.5633 185.807Z" fill="#621414"/>
<path d="M36.9328 135.948C36.9498 132.872 37.0177 129.489 37.0177 129.489L30.5484 128.945C30.5484 128.843 30.5484 128.792 30.5484 128.792L29.6485 128.86L28.7486 128.792C28.7486 128.792 28.7486 128.843 28.7486 128.945L22.2793 129.489C22.2793 129.489 22.3472 133.025 22.3642 136.135C24.3169 136.73 26.728 137.087 29.3598 137.087C32.2634 137.087 34.8952 136.662 36.9328 135.948Z" fill="#621414"/>
<path d="M38.489 149.379C38.489 147.475 38.1155 145.979 37.5212 144.823C32.7329 146.523 24.6506 148.937 18.0285 143.65C15.7362 143.65 11.3555 144.551 11.3555 150.45C11.3555 156.365 11.3555 172.293 11.3555 176.151C11.3555 179.84 16.8059 183.359 28.8106 183.648C28.8106 183.648 29.3709 183.665 29.6426 183.665C29.9143 183.665 30.4746 183.665 30.4746 183.648C33.5819 183.563 36.2307 183.274 38.489 182.832C38.489 177.052 38.489 156.586 38.489 149.379Z" fill="#A03737"/>
<path d="M29.3778 135.219C36.2516 135.219 41.8239 132.708 41.8239 129.609C41.8239 126.511 36.2516 124 29.3778 124C22.504 124 16.9316 126.511 16.9316 129.609C16.9316 132.708 22.504 135.219 29.3778 135.219Z" fill="#871E1E"/>
<path d="M36.8951 126.21C37.4045 126.771 37.6762 127.366 37.6762 128.012C37.6762 130.613 32.9898 132.737 27.1997 132.737C24.3641 132.737 21.7832 132.227 19.8984 131.394C21.4606 133.111 25.2131 134.318 29.5938 134.318C35.3839 134.318 40.0703 132.21 40.0703 129.593C40.0873 128.267 38.8647 127.06 36.8951 126.21Z" fill="#621414"/>
<path d="M30.3769 125.835C30.3769 126.583 28.5091 127.347 25.8433 127.347C23.1775 127.347 20.9531 127.432 20.9531 126.685C20.9531 125.937 23.0756 125.172 25.6395 124.815C28.2714 124.458 30.3769 125.087 30.3769 125.835Z" fill="#CC8383"/>
<path d="M16.5546 177.172C16.5546 177.869 15.9434 178.43 15.1963 178.43C14.4492 178.43 13.8379 177.869 13.8379 177.172V149.21C13.8379 148.513 14.4492 147.952 15.1963 147.952C15.9434 147.952 16.5546 148.513 16.5546 149.21V177.172Z" fill="#CC8383"/>
<path d="M26.676 160.021V169.821H23.904V162.163H22.084V160.021H26.676ZM35.7238 167.623V169.821H28.0938V168.085L31.7618 164.655C32.1165 164.319 32.3545 164.035 32.4758 163.801C32.5972 163.559 32.6578 163.316 32.6578 163.073C32.6578 162.756 32.5505 162.509 32.3358 162.331C32.1212 162.154 31.8085 162.065 31.3978 162.065C31.0338 162.065 30.6978 162.149 30.3898 162.317C30.0912 162.476 29.8438 162.709 29.6478 163.017L27.5898 161.869C27.9725 161.235 28.5092 160.735 29.1998 160.371C29.8905 160.007 30.7072 159.825 31.6498 159.825C32.3965 159.825 33.0545 159.947 33.6238 160.189C34.2025 160.432 34.6505 160.782 34.9678 161.239C35.2945 161.687 35.4578 162.21 35.4578 162.807C35.4578 163.339 35.3412 163.843 35.1078 164.319C34.8838 164.786 34.4452 165.318 33.7918 165.915L31.9438 167.623H35.7238Z" fill="white"/>
<path d="M84.1256 141.983C81.6635 141.983 78.9128 141.49 78.9128 138.141C78.9128 134.792 79.0147 129.489 79.0147 129.489L72.5454 128.945C72.5454 128.843 72.5454 128.792 72.5454 128.792L71.6455 128.86L70.7456 128.792C70.7456 128.792 70.7456 128.843 70.7456 128.945L64.2763 129.489C64.2763 129.489 64.3782 134.792 64.3782 138.141C64.3782 141.49 61.6275 141.983 59.1654 141.983C56.7034 141.983 52 142.969 52 149.462C52 155.955 52 174.144 52 178.376C52 182.422 57.841 186.281 70.7456 186.621C70.7456 186.621 71.3399 186.638 71.6455 186.638C71.9342 186.638 72.5454 186.621 72.5454 186.621C85.433 186.298 91.291 182.422 91.291 178.376C91.291 174.144 91.291 155.955 91.291 149.462C91.291 142.952 86.5707 141.983 84.1256 141.983Z" fill="#871E1E"/>
<path d="M72.5633 185.807C72.5633 185.807 71.952 185.824 71.6464 185.824C71.3408 185.824 70.7295 185.807 70.7295 185.807C59.7606 185.535 53.8177 182.73 52.1367 179.433C53.0876 183.07 58.9795 186.317 70.7465 186.606C70.7465 186.606 71.3408 186.623 71.6464 186.623C71.935 186.623 72.5463 186.606 72.5463 186.606C84.2963 186.3 90.2052 183.07 91.1561 179.433C89.4921 182.73 83.5322 185.535 72.5633 185.807Z" fill="#621414"/>
<path d="M78.9328 135.948C78.9498 132.872 79.0177 129.489 79.0177 129.489L72.5484 128.945C72.5484 128.843 72.5484 128.792 72.5484 128.792L71.6485 128.86L70.7486 128.792C70.7486 128.792 70.7486 128.843 70.7486 128.945L64.2793 129.489C64.2793 129.489 64.3472 133.025 64.3642 136.135C66.3169 136.73 68.728 137.087 71.3598 137.087C74.2634 137.087 76.8952 136.662 78.9328 135.948Z" fill="#621414"/>
<path d="M80.489 149.379C80.489 147.475 80.1155 145.979 79.5212 144.823C74.7329 146.523 66.6506 148.937 60.0285 143.65C57.7362 143.65 53.3555 144.551 53.3555 150.45C53.3555 156.365 53.3555 172.293 53.3555 176.151C53.3555 179.84 58.8059 183.359 70.8106 183.648C70.8106 183.648 71.3709 183.665 71.6426 183.665C71.9143 183.665 72.4746 183.665 72.4746 183.648C75.5819 183.563 78.2307 183.274 80.489 182.832C80.489 177.052 80.489 156.586 80.489 149.379Z" fill="#A03737"/>
<path d="M71.3778 135.219C78.2516 135.219 83.8239 132.708 83.8239 129.609C83.8239 126.511 78.2516 124 71.3778 124C64.504 124 58.9316 126.511 58.9316 129.609C58.9316 132.708 64.504 135.219 71.3778 135.219Z" fill="#871E1E"/>
<path d="M78.8951 126.21C79.4045 126.771 79.6762 127.366 79.6762 128.012C79.6762 130.613 74.9898 132.737 69.1997 132.737C66.3641 132.737 63.7832 132.227 61.8984 131.394C63.4606 133.111 67.2131 134.318 71.5938 134.318C77.3839 134.318 82.0703 132.21 82.0703 129.593C82.0873 128.267 80.8647 127.06 78.8951 126.21Z" fill="#621414"/>
<path d="M72.3769 125.835C72.3769 126.583 70.5091 127.347 67.8433 127.347C65.1775 127.347 62.9531 127.432 62.9531 126.685C62.9531 125.937 65.0756 125.172 67.6395 124.815C70.2714 124.458 72.3769 125.087 72.3769 125.835Z" fill="#CC8383"/>
<path d="M58.5546 177.172C58.5546 177.869 57.9434 178.43 57.1963 178.43C56.4492 178.43 55.8379 177.869 55.8379 177.172V149.21C55.8379 148.513 56.4492 147.952 57.1963 147.952C57.9434 147.952 58.5546 148.513 58.5546 149.21V177.172Z" fill="#CC8383"/>
<path d="M73.144 163.591C74.516 163.591 75.5287 163.871 76.182 164.431C76.8447 164.991 77.176 165.738 77.176 166.671C77.176 167.278 77.0173 167.838 76.7 168.351C76.392 168.855 75.916 169.261 75.272 169.569C74.6373 169.868 73.8487 170.017 72.906 170.017C72.2153 170.017 71.5293 169.933 70.848 169.765C70.176 169.597 69.5973 169.359 69.112 169.051L70.106 166.965C70.498 167.227 70.9273 167.427 71.394 167.567C71.87 167.707 72.346 167.777 72.822 167.777C73.298 167.777 73.676 167.689 73.956 167.511C74.2453 167.325 74.39 167.068 74.39 166.741C74.39 166.415 74.25 166.167 73.97 165.999C73.69 165.831 73.1953 165.747 72.486 165.747H69.826L70.316 160.021H76.56V162.163H72.612L72.486 163.591H73.144Z" fill="white"/>
<path d="M288.179 10.8418C284.044 10.8418 280.697 14.1749 280.697 18.2933C280.697 22.4116 284.044 25.7447 288.179 25.7447C292.313 25.7447 295.66 22.4116 295.66 18.2933C295.644 14.1749 292.297 10.8418 288.179 10.8418ZM288.179 23.1968C285.46 23.1968 283.255 21.0014 283.255 18.2933C283.255 15.5851 285.46 13.3897 288.179 13.3897C290.898 13.3897 293.102 15.5851 293.102 18.2933C293.086 21.0014 290.882 23.1968 288.179 23.1968Z" fill="#5C88C6"/>
<path fill-rule="evenodd" clip-rule="evenodd" d="M239.189 135.402C239.366 135.834 239.704 136.203 240.17 136.411L240.846 136.7C241.312 136.892 241.811 136.876 242.246 136.716C242.68 136.539 243.05 136.203 243.243 135.738L244.096 133.751C244.289 133.286 244.289 132.79 244.112 132.341C243.967 131.972 243.677 131.684 243.307 131.476L244.434 128.848C244.836 128.96 245.254 128.96 245.608 128.815C246.059 128.639 246.429 128.303 246.622 127.838L247.458 125.851C247.667 125.386 247.651 124.889 247.474 124.441C247.33 124.072 247.04 123.784 246.686 123.575L247.812 120.947C248.215 121.06 248.617 121.06 249.003 120.915C249.437 120.739 249.807 120.403 250 119.938L250.853 117.951C251.046 117.486 251.046 116.989 250.869 116.541C250.724 116.172 250.435 115.884 250.065 115.675L251.191 113.047C251.593 113.159 252.011 113.159 252.382 113.015C252.816 112.839 253.186 112.486 253.379 112.038L254.232 110.051C254.425 109.586 254.425 109.089 254.248 108.656C254.103 108.288 253.813 107.999 253.443 107.775L254.553 105.147C254.956 105.259 255.374 105.259 255.744 105.115C256.178 104.939 256.549 104.602 256.742 104.137L257.594 102.15C257.787 101.686 257.787 101.189 257.594 100.756C257.449 100.388 257.16 100.083 256.806 99.8749L257.932 97.2469C258.334 97.359 258.753 97.359 259.123 97.2148C259.557 97.0385 259.927 96.702 260.136 96.2373L260.973 94.2503C261.166 93.7855 261.166 93.2888 260.989 92.8401C260.844 92.4715 260.555 92.1831 260.185 91.9747L261.311 89.3467C261.713 89.4589 262.131 89.4589 262.501 89.3147C262.936 89.1384 263.306 88.8019 263.499 88.3371L264.352 86.3501C264.545 85.8854 264.529 85.3886 264.368 84.9559C264.223 84.5874 263.933 84.2829 263.563 84.0746L264.689 81.4465C265.092 81.5587 265.51 81.5587 265.88 81.4145C266.314 81.2382 266.684 80.9017 266.878 80.437L267.73 78.4499C267.923 77.9852 267.923 77.4884 267.73 77.0558C267.585 76.6872 267.296 76.3988 266.926 76.1744L268.036 73.5464C268.438 73.6585 268.856 73.6585 269.226 73.5143C269.661 73.338 270.031 72.9855 270.24 72.5368L271.093 70.5498C271.286 70.085 271.286 69.5883 271.093 69.1556C270.948 68.787 270.658 68.4826 270.288 68.2743L271.398 65.6462C271.801 65.7584 272.219 65.7584 272.589 65.6142C273.023 65.4379 273.393 65.1014 273.603 64.6367L274.439 62.6496C274.632 62.1849 274.616 61.6881 274.455 61.2554C274.311 60.8869 274.021 60.5984 273.651 60.3741L274.777 57.746C275.179 57.8582 275.598 57.8582 275.968 57.714C276.402 57.5377 276.772 57.2012 276.965 56.7365L277.818 54.7494C278.011 54.2847 278.011 53.788 277.834 53.3393C277.689 52.9707 277.4 52.6823 277.03 52.4739L278.14 49.8459C278.542 49.9581 278.96 49.9581 279.33 49.8138C279.765 49.6376 280.135 49.301 280.328 48.8363L281.18 46.8493C281.374 46.3846 281.374 45.8878 281.197 45.4551C281.052 45.0866 280.762 44.7821 280.392 44.5738L281.502 41.9457C281.904 42.0579 282.323 42.0579 282.693 41.9137C283.127 41.7374 283.497 41.4009 283.69 40.9362L284.543 38.9491C284.736 38.4844 284.736 37.9876 284.559 37.555C284.414 37.1864 284.125 36.8979 283.755 36.6736L284.881 34.0456C285.283 34.1577 285.701 34.1577 286.071 34.0135C286.506 33.8372 286.876 33.5007 287.069 33.036L287.922 31.0489C288.131 30.5842 288.115 30.0875 287.938 29.6388C287.793 29.2702 287.503 28.9818 287.133 28.7734L288.26 26.1454L289.37 28.7734C289.016 28.9818 288.726 29.2702 288.565 29.6388C288.388 30.0714 288.388 30.5842 288.581 31.0489L289.434 33.036C289.627 33.5007 289.997 33.8372 290.432 34.0135C290.802 34.1577 291.22 34.1577 291.622 34.0456L292.748 36.6736C292.378 36.8819 292.089 37.1864 291.944 37.555C291.767 37.9876 291.767 38.4844 291.96 38.9491L292.797 40.9362C292.99 41.4009 293.36 41.7374 293.794 41.9137C294.164 42.0579 294.582 42.0579 294.985 41.9457L296.111 44.5738C295.757 44.7821 295.467 45.0866 295.306 45.4551C295.129 45.8878 295.113 46.3846 295.323 46.8493L296.159 48.8363C296.352 49.301 296.722 49.6376 297.173 49.8138C297.543 49.9581 297.961 49.9581 298.363 49.8459L299.473 52.4739C299.119 52.6823 298.83 52.9867 298.685 53.3393C298.508 53.7719 298.492 54.2847 298.685 54.7494L299.538 56.7365C299.731 57.2012 300.101 57.5377 300.535 57.714C300.905 57.8582 301.324 57.8582 301.726 57.746L302.852 60.3741C302.482 60.5824 302.209 60.8869 302.048 61.2554C301.871 61.6881 301.855 62.1849 302.064 62.6496L302.9 64.6367C303.093 65.1014 303.463 65.4379 303.914 65.6142C304.284 65.7584 304.702 65.7584 305.104 65.6462L306.215 68.2743C305.861 68.4826 305.571 68.787 305.41 69.1556C305.233 69.6043 305.217 70.085 305.426 70.5498L306.263 72.5368C306.472 73.0015 306.842 73.338 307.276 73.5143C307.647 73.6585 308.065 73.6585 308.467 73.5464L309.593 76.1744C309.223 76.3827 308.934 76.6872 308.789 77.0397C308.612 77.4724 308.612 77.9852 308.805 78.4339L309.642 80.421C309.835 80.8857 310.205 81.2222 310.655 81.3985C311.025 81.5427 311.443 81.5427 311.846 81.4305L312.972 84.0586C312.618 84.2669 312.328 84.5713 312.167 84.9399C311.991 85.3726 311.991 85.8693 312.167 86.3341L313.02 88.3211C313.213 88.7858 313.583 89.1384 314.034 89.2986C314.404 89.4428 314.806 89.4428 315.208 89.3307L316.334 91.9587C315.964 92.167 315.691 92.4555 315.53 92.8241C315.353 93.2567 315.337 93.7695 315.546 94.2342L316.383 96.2213C316.592 96.686 316.962 97.0225 317.396 97.1988C317.766 97.343 318.185 97.343 318.587 97.2308L319.713 99.8589C319.359 100.067 319.07 100.372 318.909 100.74C318.732 101.173 318.716 101.67 318.925 102.134L319.761 104.121C319.954 104.586 320.325 104.923 320.775 105.099C321.145 105.243 321.563 105.243 321.966 105.131L323.076 107.759C322.722 107.967 322.432 108.272 322.271 108.64C322.094 109.073 322.094 109.57 322.287 110.035L323.14 112.022C323.333 112.486 323.703 112.823 324.138 112.999C324.508 113.143 324.926 113.143 325.328 113.031L326.454 115.659C326.084 115.868 325.811 116.172 325.65 116.525C325.473 116.957 325.457 117.454 325.65 117.935L326.503 119.922C326.696 120.386 327.066 120.723 327.5 120.899C327.87 121.044 328.288 121.044 328.675 120.931L329.801 123.559C329.447 123.768 329.157 124.056 329.012 124.425C328.835 124.857 328.819 125.37 329.029 125.835L329.865 127.822C330.058 128.287 330.428 128.623 330.879 128.799C331.249 128.944 331.667 128.944 332.069 128.831L333.196 131.46C332.842 131.668 332.552 131.972 332.391 132.325C332.214 132.758 332.198 133.27 332.407 133.735L333.244 135.722C333.437 136.187 333.807 136.523 334.257 136.7C334.692 136.876 335.191 136.892 335.657 136.684L336.333 136.395C336.799 136.203 337.137 135.818 337.314 135.386C337.491 134.953 337.507 134.456 337.298 133.991L336.445 132.004C336.252 131.54 335.882 131.203 335.448 131.027C335.142 130.899 334.804 130.899 334.467 130.947L333.308 128.239C333.582 128.03 333.807 127.79 333.936 127.485C334.113 127.053 334.113 126.54 333.92 126.091L333.067 124.104C332.874 123.639 332.504 123.303 332.069 123.127C331.764 122.999 331.426 122.999 331.088 123.047L329.929 120.338C330.203 120.13 330.428 119.89 330.557 119.585C330.734 119.153 330.75 118.64 330.541 118.175L329.688 116.188C329.495 115.723 329.125 115.387 328.691 115.211C328.385 115.082 328.047 115.082 327.709 115.13L326.551 112.422C326.824 112.214 327.05 111.974 327.178 111.669C327.355 111.236 327.371 110.724 327.162 110.259L326.31 108.272C326.116 107.807 325.746 107.471 325.312 107.294C325.006 107.166 324.668 107.166 324.331 107.214L323.172 104.506C323.446 104.298 323.671 104.057 323.8 103.753C323.977 103.32 323.993 102.807 323.784 102.343L322.947 100.356C322.754 99.8909 322.384 99.5544 321.949 99.3781C321.644 99.2499 321.306 99.2499 320.968 99.298L319.81 96.5898C320.083 96.3815 320.308 96.1412 320.437 95.8367C320.614 95.388 320.63 94.8912 320.437 94.4265L319.584 92.4395C319.391 91.9747 319.021 91.6382 318.571 91.462C318.265 91.3338 317.927 91.3338 317.589 91.3818L316.431 88.6737C316.705 88.4653 316.93 88.225 317.058 87.9205C317.235 87.4878 317.252 86.975 317.042 86.5103L316.19 84.5233C315.997 84.0586 315.627 83.722 315.192 83.5458C314.886 83.4176 314.549 83.4176 314.211 83.4656L313.052 80.7575C313.326 80.5492 313.551 80.3088 313.68 80.0043C313.857 79.5716 313.873 79.0749 313.664 78.6102L312.827 76.6231C312.618 76.1584 312.264 75.8219 311.814 75.6296C311.508 75.5014 311.17 75.5014 310.832 75.5495L309.674 72.8413C309.947 72.633 310.172 72.3926 310.301 72.0881C310.478 71.6555 310.494 71.1427 310.285 70.678L309.432 68.6909C309.239 68.2262 308.869 67.8897 308.435 67.7134C308.129 67.5852 307.791 67.5852 307.453 67.6333L306.295 64.9251C306.569 64.7168 306.794 64.4764 306.923 64.1719C307.099 63.7393 307.116 63.2265 306.923 62.7618L306.07 60.7747C305.877 60.31 305.507 59.9735 305.056 59.7972C304.751 59.669 304.413 59.669 304.075 59.7171L302.916 57.0089C303.19 56.8006 303.415 56.5602 303.544 56.2558C303.721 55.8231 303.737 55.3103 303.528 54.8456L302.675 52.8585C302.482 52.3938 302.112 52.0573 301.661 51.881C301.356 51.7528 301.018 51.7528 300.68 51.8009L299.522 49.0927C299.795 48.8844 300.02 48.644 300.149 48.3396C300.326 47.9069 300.326 47.4101 300.133 46.9454L299.28 44.9584C299.087 44.4936 298.717 44.1571 298.283 43.9648C297.977 43.8366 297.639 43.8366 297.301 43.8847L296.143 41.1765C296.417 40.9682 296.642 40.7278 296.77 40.4234C296.947 39.9907 296.964 39.4779 296.754 39.0292L295.902 37.0422C295.709 36.5775 295.339 36.2409 294.888 36.0647C294.582 35.9365 294.245 35.9365 293.907 35.9845L292.764 33.2764C293.038 33.0681 293.263 32.8277 293.392 32.5232C293.569 32.0905 293.585 31.5938 293.376 31.1291L292.523 29.142C292.33 28.6773 291.96 28.3408 291.509 28.1645C291.204 28.0523 290.866 28.0363 290.528 28.0844L289.064 24.6711C288.935 24.3667 288.613 24.1904 288.372 24.3026L288.115 24.4147L287.857 24.3026C287.6 24.2064 287.294 24.3667 287.165 24.6711L285.717 28.0844C285.38 28.0363 285.042 28.0363 284.736 28.1645C284.286 28.3408 283.932 28.6933 283.722 29.142L282.87 31.1291C282.677 31.5938 282.677 32.0905 282.87 32.5232C282.998 32.8277 283.224 33.0681 283.497 33.2764L282.355 35.9845C282.017 35.9204 281.679 35.9365 281.374 36.0647C280.939 36.2409 280.569 36.5775 280.36 37.0422L279.523 39.0292C279.33 39.4939 279.33 39.9907 279.507 40.4234C279.636 40.7278 279.861 40.9682 280.135 41.1765L278.992 43.8847C278.655 43.8366 278.317 43.8366 278.011 43.9648C277.577 44.1411 277.207 44.4776 277.013 44.9584L276.161 46.9454C275.968 47.4101 275.984 47.9069 276.145 48.3396C276.273 48.644 276.499 48.8844 276.772 49.0927L275.614 51.8009C275.276 51.7528 274.938 51.7528 274.632 51.881C274.198 52.0573 273.828 52.3938 273.619 52.8585L272.782 54.8456C272.573 55.3103 272.589 55.8071 272.766 56.2558C272.895 56.5602 273.12 56.8006 273.393 57.0089L272.235 59.7171C271.897 59.669 271.559 59.669 271.254 59.7972C270.819 59.9735 270.449 60.31 270.24 60.7747L269.403 62.7618C269.21 63.2265 269.21 63.7233 269.387 64.1719C269.516 64.4764 269.741 64.7168 270.015 64.9251L268.856 67.6333C268.519 67.5852 268.181 67.5852 267.875 67.7134C267.441 67.8897 267.071 68.2262 266.878 68.6909L266.025 70.678C265.832 71.1427 265.832 71.6555 266.009 72.0881C266.137 72.3926 266.363 72.633 266.636 72.8413L265.478 75.5495C265.14 75.4854 264.802 75.5014 264.496 75.6296C264.046 75.8059 263.692 76.1424 263.483 76.6231L262.646 78.6102C262.453 79.0749 262.453 79.5716 262.63 80.0043C262.759 80.3088 262.984 80.5652 263.258 80.7575L262.099 83.4656C261.761 83.4176 261.423 83.4176 261.118 83.5458C260.683 83.722 260.313 84.0586 260.12 84.5233L259.268 86.5103C259.074 86.975 259.074 87.4718 259.251 87.9205C259.38 88.225 259.605 88.4653 259.879 88.6737L258.72 91.3818C258.383 91.3338 258.045 91.3338 257.739 91.462C257.305 91.6382 256.935 91.9747 256.725 92.4395L255.889 94.4265C255.696 94.8912 255.696 95.388 255.873 95.8367C256.001 96.1412 256.227 96.3815 256.5 96.5898L255.358 99.298C255.02 99.2499 254.682 99.2499 254.377 99.3781C253.942 99.5544 253.556 99.8909 253.363 100.356L252.526 102.343C252.333 102.807 252.333 103.32 252.51 103.753C252.639 104.057 252.864 104.298 253.138 104.506L251.979 107.214C251.641 107.166 251.304 107.166 250.998 107.294C250.563 107.471 250.193 107.807 250 108.272L249.148 110.259C248.955 110.724 248.955 111.236 249.132 111.669C249.244 111.974 249.486 112.214 249.759 112.422L248.601 115.13C248.263 115.082 247.925 115.082 247.619 115.211C247.185 115.387 246.815 115.723 246.606 116.188L245.769 118.175C245.56 118.64 245.576 119.137 245.753 119.585C245.882 119.89 246.107 120.13 246.38 120.338L245.222 123.047C244.884 122.999 244.546 122.999 244.241 123.127C243.806 123.303 243.436 123.639 243.243 124.104L242.39 126.091C242.197 126.556 242.197 127.053 242.374 127.485C242.503 127.79 242.728 128.03 243.002 128.239L241.843 130.947C241.505 130.899 241.168 130.899 240.862 131.027C240.428 131.203 240.057 131.556 239.864 132.004L239.012 133.991C239.012 134.472 239.012 134.969 239.189 135.402ZM285.203 32.9559C285.203 32.7315 285.154 32.5232 284.961 32.4431L284.607 32.2989C284.43 32.2187 284.237 32.2828 284.093 32.411C284.044 32.3469 283.996 32.2828 283.964 32.2187C283.899 32.0265 283.883 31.8181 283.964 31.6258L284.8 29.6388C284.881 29.4465 285.042 29.3023 285.219 29.2221C285.299 29.1901 285.364 29.1901 285.444 29.1741C285.412 29.4144 285.476 29.6548 285.685 29.7349L286.039 29.8791C286.265 29.9753 286.522 29.8471 286.667 29.6227C286.779 29.7029 286.86 29.815 286.908 29.9272C286.989 30.1195 286.989 30.3278 286.908 30.5201L286.055 32.5072C285.975 32.6995 285.814 32.8437 285.621 32.9238C285.508 32.9879 285.347 32.9879 285.203 32.9559ZM283.562 37.8274C283.642 38.0197 283.642 38.228 283.562 38.4203L282.709 40.4074C282.628 40.5997 282.468 40.7439 282.291 40.824C282.146 40.8881 281.985 40.8881 281.84 40.856C281.856 40.6317 281.792 40.4234 281.599 40.3433L281.245 40.199C281.068 40.1349 280.875 40.183 280.73 40.3272C280.682 40.2631 280.633 40.199 280.601 40.1189C280.537 39.9426 280.521 39.7343 280.601 39.526L281.438 37.5389C281.518 37.3466 281.679 37.2024 281.872 37.1223C281.937 37.0902 282.017 37.0902 282.098 37.0742C282.065 37.3146 282.13 37.555 282.323 37.6351L282.677 37.7793C282.902 37.8755 283.143 37.7473 283.304 37.5229C283.417 37.603 283.513 37.7152 283.562 37.8274ZM280.199 45.7436C280.279 45.9198 280.279 46.1282 280.199 46.3365L279.346 48.3235C279.266 48.5158 279.105 48.6601 278.928 48.7402C278.783 48.7883 278.622 48.8043 278.478 48.7722C278.494 48.5479 278.429 48.3396 278.252 48.2594L277.882 48.1152C277.721 48.0351 277.528 48.0992 277.367 48.2434C277.319 48.1793 277.271 48.1152 277.239 48.0511C277.158 47.8588 277.158 47.6505 277.239 47.4582L278.091 45.4711C278.172 45.2789 278.333 45.1346 278.51 45.0545C278.59 45.0225 278.655 45.0225 278.735 45.0064C278.703 45.2468 278.767 45.4711 278.976 45.5673L279.33 45.7115C279.555 45.8077 279.797 45.6795 279.958 45.4551C280.054 45.5192 280.151 45.6154 280.199 45.7436ZM275.099 56.6724C275.115 56.4481 275.051 56.2397 274.858 56.1596L274.504 56.0154C274.327 55.9513 274.134 55.9994 273.989 56.1436C273.94 56.0795 273.892 56.0154 273.86 55.9513C273.78 55.775 273.78 55.5507 273.86 55.3584L274.713 53.3713C274.793 53.179 274.954 53.0348 275.131 52.9547C275.212 52.9226 275.276 52.9226 275.356 52.9066C275.34 53.147 275.405 53.3713 275.598 53.4675L275.952 53.6117C276.177 53.7078 276.418 53.5796 276.579 53.3553C276.692 53.4354 276.772 53.5476 276.82 53.6598C276.901 53.8521 276.901 54.0604 276.82 54.2527L275.968 56.2397C275.887 56.432 275.726 56.5923 275.533 56.6564C275.405 56.7044 275.244 56.7044 275.099 56.6724ZM271.72 64.5886C271.736 64.3642 271.672 64.1559 271.479 64.0758L271.125 63.9316C270.948 63.8675 270.771 63.9476 270.626 64.0758C270.562 64.0117 270.514 63.9316 270.481 63.8514C270.401 63.6591 270.401 63.4508 270.481 63.2585L271.318 61.2715C271.415 61.0792 271.559 60.935 271.752 60.8548C271.817 60.8228 271.897 60.8228 271.978 60.8068C271.945 61.0471 272.01 61.2715 272.219 61.3676L272.573 61.5118C272.798 61.608 273.023 61.4638 273.184 61.2394C273.297 61.3195 273.393 61.4317 273.442 61.5599C273.522 61.7362 273.522 61.9605 273.442 62.1528L272.589 64.1399C272.509 64.3322 272.348 64.4764 272.171 64.5565C272.042 64.6206 271.881 64.6046 271.72 64.5886ZM268.358 72.4887C268.374 72.2644 268.309 72.0561 268.116 71.976L267.762 71.8317C267.602 71.7676 267.408 71.8157 267.248 71.9599C267.199 71.8958 267.151 71.8317 267.119 71.7676C267.038 71.5914 267.038 71.367 267.119 71.1747L267.972 69.1877C268.052 68.9954 268.213 68.8511 268.39 68.771C268.454 68.739 268.535 68.739 268.615 68.7229C268.583 68.9633 268.647 69.1877 268.84 69.2678L269.194 69.412C269.42 69.5082 269.661 69.396 269.822 69.1556C269.934 69.2357 270.031 69.3479 270.079 69.4601C270.144 69.6524 270.16 69.8607 270.079 70.053L269.243 72.0401C269.162 72.2323 269.001 72.3766 268.808 72.4567C268.679 72.5208 268.519 72.5208 268.358 72.4887ZM264.995 80.4049C265.011 80.1806 264.947 79.9723 264.77 79.8921L264.416 79.7479C264.255 79.6678 264.046 79.7319 263.901 79.8761C263.853 79.812 263.805 79.7479 263.772 79.6678C263.692 79.4915 263.692 79.2672 263.772 79.0749L264.625 77.0878C264.706 76.8955 264.866 76.7513 265.043 76.6712C265.108 76.6391 265.188 76.6231 265.269 76.6231C265.236 76.8635 265.301 77.0878 265.494 77.1679L265.848 77.3282C266.073 77.4243 266.314 77.2961 266.475 77.0718C266.588 77.1519 266.668 77.2641 266.717 77.3763C266.797 77.5525 266.797 77.7769 266.717 77.9692L265.864 79.9562C265.783 80.1485 265.623 80.2928 265.446 80.3729C265.301 80.421 265.14 80.421 264.995 80.4049ZM263.354 85.2764C263.435 85.4687 263.435 85.6771 263.354 85.8693L262.517 87.8564C262.421 88.0487 262.276 88.1929 262.083 88.273C261.938 88.3371 261.777 88.3371 261.633 88.3051C261.649 88.0807 261.584 87.8724 261.391 87.7923L261.037 87.6321C260.876 87.568 260.683 87.6481 260.539 87.7763C260.474 87.7122 260.426 87.6321 260.394 87.5519C260.313 87.3596 260.313 87.1513 260.394 86.959L261.23 84.972C261.311 84.7797 261.472 84.6354 261.649 84.5553C261.729 84.5233 261.793 84.5233 261.874 84.5073C261.858 84.7476 261.906 84.972 262.115 85.0521L262.469 85.1963C262.678 85.2925 262.936 85.1643 263.097 84.9399C263.209 85.0521 263.306 85.1643 263.354 85.2764ZM259.992 93.1926C260.072 93.3689 260.072 93.5932 259.992 93.7855L259.155 95.7726C259.074 95.9649 258.914 96.1091 258.737 96.1892C258.592 96.2533 258.431 96.2533 258.286 96.2213C258.302 95.9969 258.238 95.7886 258.045 95.7085L257.691 95.5482C257.514 95.4681 257.321 95.5322 257.176 95.6764C257.128 95.6123 257.079 95.5482 257.047 95.4842C256.967 95.2919 256.967 95.0835 257.047 94.8912L257.9 92.9042C257.98 92.7119 258.141 92.5677 258.318 92.4875C258.383 92.4555 258.463 92.4555 258.544 92.4395C258.527 92.6798 258.576 92.9042 258.785 93.0003L259.139 93.1445C259.364 93.2407 259.605 93.1125 259.766 92.8882C259.847 92.9683 259.927 93.0644 259.992 93.1926ZM254.891 104.121C254.907 103.897 254.843 103.689 254.65 103.609L254.296 103.464C254.135 103.384 253.942 103.448 253.781 103.593C253.733 103.529 253.685 103.464 253.653 103.384C253.572 103.208 253.572 102.984 253.653 102.791L254.505 100.804C254.586 100.612 254.747 100.468 254.924 100.388C255.004 100.356 255.084 100.356 255.149 100.34C255.117 100.58 255.181 100.804 255.374 100.9L255.744 101.045C255.953 101.141 256.195 101.029 256.339 100.82C256.436 100.9 256.565 100.981 256.613 101.093C256.693 101.285 256.693 101.493 256.613 101.686L255.76 103.673C255.68 103.865 255.519 104.009 255.342 104.089C255.197 104.153 255.036 104.153 254.891 104.121ZM253.25 109.009C253.331 109.201 253.331 109.41 253.25 109.602L252.414 111.589C252.333 111.781 252.172 111.925 251.979 112.006C251.834 112.054 251.674 112.054 251.529 112.038C251.545 111.813 251.481 111.605 251.287 111.525L250.934 111.381C250.757 111.3 250.563 111.365 250.419 111.493C250.37 111.429 250.322 111.365 250.29 111.3C250.21 111.124 250.21 110.9 250.29 110.708L251.143 108.721C251.223 108.512 251.384 108.368 251.577 108.304C251.641 108.272 251.722 108.272 251.802 108.256C251.77 108.496 251.834 108.737 252.028 108.817L252.382 108.977C252.607 109.073 252.848 108.945 253.009 108.721C253.106 108.785 253.202 108.881 253.25 109.009ZM248.15 119.938C248.166 119.713 248.102 119.505 247.909 119.425L247.555 119.265C247.378 119.201 247.185 119.249 247.04 119.393C246.992 119.329 246.943 119.265 246.911 119.185C246.831 119.008 246.831 118.784 246.927 118.592L247.764 116.605C247.844 116.412 248.005 116.268 248.182 116.188C248.247 116.156 248.327 116.156 248.408 116.14C248.375 116.38 248.44 116.605 248.649 116.685L249.003 116.829C249.212 116.925 249.469 116.813 249.63 116.573C249.743 116.653 249.823 116.765 249.872 116.893C249.952 117.069 249.952 117.278 249.872 117.486L249.035 119.473C248.955 119.681 248.794 119.826 248.601 119.89C248.456 119.97 248.311 119.97 248.15 119.938ZM246.509 124.825C246.59 125.002 246.59 125.226 246.509 125.418L245.656 127.405C245.576 127.614 245.415 127.742 245.238 127.822C245.093 127.886 244.932 127.886 244.788 127.854C244.804 127.63 244.739 127.421 244.562 127.341L244.192 127.197C244.031 127.133 243.854 127.213 243.694 127.341C243.629 127.277 243.581 127.197 243.549 127.117C243.468 126.925 243.468 126.716 243.549 126.524L244.401 124.537C244.482 124.345 244.643 124.2 244.82 124.12C244.884 124.088 244.965 124.088 245.045 124.072C245.013 124.313 245.077 124.553 245.27 124.633L245.624 124.793C245.833 124.873 246.075 124.745 246.236 124.521C246.364 124.585 246.461 124.697 246.509 124.825ZM241.28 135.722L240.605 135.434C240.411 135.354 240.267 135.193 240.186 135.001C240.122 134.825 240.106 134.6 240.186 134.408L241.039 132.421C241.119 132.229 241.28 132.084 241.457 132.004C241.538 131.972 241.602 131.972 241.682 131.956C241.65 132.197 241.715 132.437 241.924 132.517L242.278 132.677C242.503 132.774 242.76 132.645 242.905 132.421C243.018 132.501 243.098 132.597 243.163 132.725C243.243 132.918 243.243 133.126 243.163 133.318L242.31 135.305C242.229 135.498 242.069 135.642 241.892 135.722C241.682 135.802 241.473 135.802 241.28 135.722ZM333.566 132.421C333.726 132.645 333.968 132.774 334.193 132.677L334.547 132.517C334.74 132.437 334.804 132.213 334.788 131.972C334.869 131.972 334.933 131.988 335.014 132.02C335.191 132.101 335.351 132.245 335.432 132.437L336.285 134.424C336.365 134.616 336.365 134.825 336.285 135.017C336.204 135.209 336.059 135.37 335.866 135.45L335.191 135.738C334.997 135.818 334.788 135.818 334.595 135.738C334.418 135.674 334.257 135.514 334.177 135.321L333.324 133.334C333.244 133.142 333.244 132.918 333.324 132.742C333.373 132.597 333.469 132.501 333.566 132.421ZM330.219 124.505C330.38 124.729 330.621 124.857 330.83 124.777L331.184 124.617C331.377 124.537 331.442 124.297 331.426 124.056C331.506 124.056 331.587 124.072 331.651 124.104C331.828 124.184 331.989 124.329 332.069 124.521L332.922 126.508C333.002 126.7 333.002 126.909 332.922 127.101C332.89 127.181 332.842 127.245 332.777 127.325C332.632 127.197 332.455 127.117 332.278 127.181L331.925 127.325C331.731 127.405 331.683 127.614 331.683 127.838C331.538 127.87 331.378 127.87 331.233 127.806C331.056 127.726 330.879 127.598 330.798 127.389L329.946 125.402C329.865 125.21 329.865 124.986 329.946 124.809C330.01 124.697 330.106 124.585 330.219 124.505ZM326.84 116.605C326.985 116.829 327.243 116.957 327.452 116.861L327.806 116.717C327.999 116.637 328.063 116.396 328.047 116.172C328.128 116.172 328.192 116.188 328.272 116.22C328.449 116.3 328.61 116.444 328.691 116.637L329.543 118.624C329.624 118.832 329.624 119.04 329.559 119.217C329.527 119.297 329.479 119.361 329.431 119.425C329.286 119.281 329.093 119.233 328.916 119.297L328.562 119.457C328.369 119.537 328.321 119.746 328.321 119.97C328.16 120.002 327.999 120.002 327.87 119.954C327.677 119.874 327.532 119.729 327.452 119.537L326.599 117.55C326.503 117.358 326.519 117.15 326.599 116.957C326.631 116.797 326.728 116.685 326.84 116.605ZM323.462 108.705C323.607 108.929 323.864 109.057 324.089 108.961L324.443 108.801C324.636 108.721 324.701 108.496 324.685 108.24C324.765 108.24 324.829 108.256 324.91 108.288C325.087 108.352 325.248 108.496 325.328 108.705L326.181 110.692C326.261 110.884 326.261 111.108 326.181 111.284C326.149 111.365 326.1 111.429 326.052 111.477C325.907 111.349 325.698 111.284 325.537 111.365L325.183 111.509C325.006 111.589 324.942 111.797 324.942 112.022C324.781 112.054 324.636 112.054 324.492 111.99C324.298 111.909 324.154 111.765 324.073 111.573L323.22 109.586C323.14 109.394 323.14 109.185 323.22 108.993C323.269 108.881 323.365 108.785 323.462 108.705ZM320.099 100.788C320.244 101.013 320.501 101.141 320.727 101.045L321.081 100.9C321.274 100.82 321.338 100.58 321.306 100.34C321.386 100.34 321.451 100.356 321.531 100.388C321.708 100.468 321.869 100.612 321.949 100.804L322.802 102.791C322.883 102.984 322.883 103.192 322.802 103.384C322.77 103.464 322.722 103.529 322.673 103.577C322.513 103.448 322.336 103.384 322.159 103.464L321.805 103.609C321.628 103.689 321.563 103.897 321.563 104.121C321.402 104.153 321.242 104.153 321.113 104.105C320.92 104.025 320.775 103.881 320.695 103.689L319.858 101.702C319.777 101.509 319.777 101.301 319.858 101.109C319.89 100.965 319.987 100.868 320.099 100.788ZM316.721 92.8882C316.881 93.1125 317.123 93.2407 317.348 93.1445L317.702 93.0003C317.895 92.9202 317.959 92.6798 317.943 92.4395C318.024 92.4555 318.104 92.4555 318.169 92.4875C318.346 92.5677 318.506 92.7119 318.587 92.9042L319.44 94.8912C319.52 95.0835 319.52 95.3079 319.44 95.4842C319.407 95.5482 319.359 95.6284 319.311 95.6764C319.166 95.5482 318.973 95.4841 318.796 95.5482L318.442 95.7085C318.265 95.7886 318.201 95.9969 318.201 96.2213C318.04 96.2533 317.895 96.2533 317.75 96.1892C317.557 96.1091 317.396 95.9649 317.316 95.7726L316.463 93.7855C316.383 93.5932 316.383 93.3849 316.463 93.1926C316.528 93.0644 316.624 92.9683 316.721 92.8882ZM313.358 84.972C313.503 85.1963 313.76 85.3245 313.986 85.2284L314.339 85.0841C314.533 85.004 314.597 84.7797 314.581 84.5393C314.661 84.5393 314.726 84.5553 314.806 84.5874C314.983 84.6515 315.144 84.8117 315.224 85.004L316.077 86.9911C316.157 87.1834 316.157 87.4077 316.077 87.584C316.045 87.6641 315.997 87.7442 315.932 87.8083C315.787 87.6641 315.61 87.584 315.433 87.6641L315.08 87.8243C314.903 87.9045 314.838 88.1128 314.838 88.3371C314.693 88.3692 314.533 88.3692 314.388 88.3051C314.211 88.225 314.05 88.0807 313.969 87.8885L313.133 85.9014C313.052 85.7091 313.052 85.4848 313.133 85.3085C313.165 85.1643 313.245 85.0521 313.358 84.972ZM309.995 77.0558C310.14 77.2801 310.398 77.4083 310.623 77.3122L310.977 77.1519C311.17 77.0718 311.234 76.8475 311.218 76.6071C311.299 76.6071 311.379 76.6231 311.443 76.6552C311.62 76.7193 311.781 76.8635 311.862 77.0718L312.714 79.0589C312.795 79.2512 312.795 79.4755 312.714 79.6518C312.682 79.7319 312.634 79.796 312.586 79.8441C312.441 79.7159 312.248 79.6518 312.071 79.7319L311.717 79.8761C311.54 79.9562 311.476 80.1646 311.476 80.3889C311.315 80.421 311.17 80.421 311.025 80.3569C310.832 80.2767 310.687 80.1485 310.591 79.9402L309.738 77.9532C309.658 77.7609 309.658 77.5365 309.738 77.3602C309.786 77.2481 309.883 77.1519 309.995 77.0558ZM306.617 69.1556C306.762 69.38 307.019 69.5082 307.244 69.412L307.598 69.2678C307.791 69.1877 307.856 68.9473 307.84 68.7229C307.92 68.7229 308 68.739 308.065 68.771C308.242 68.8511 308.403 68.9954 308.499 69.1877L309.336 71.1747C309.416 71.367 309.416 71.5914 309.336 71.7676C309.304 71.8317 309.255 71.9119 309.207 71.9599C309.046 71.8157 308.853 71.7676 308.692 71.8317L308.338 71.976C308.145 72.0561 308.081 72.2644 308.097 72.4887C307.936 72.5208 307.791 72.5208 307.647 72.4567C307.453 72.3926 307.293 72.2323 307.212 72.0401L306.376 70.053C306.295 69.8607 306.295 69.6524 306.376 69.4601C306.424 69.3479 306.52 69.2357 306.617 69.1556ZM303.27 61.2394C303.415 61.4638 303.673 61.592 303.882 61.5118L304.236 61.3676C304.429 61.2875 304.493 61.0471 304.461 60.8068C304.541 60.8068 304.622 60.8228 304.686 60.8548C304.863 60.935 305.024 61.0792 305.104 61.2715L305.941 63.2585C306.022 63.4508 306.022 63.6591 305.941 63.8514C305.909 63.9316 305.861 63.9957 305.796 64.0758C305.652 63.9476 305.475 63.8514 305.298 63.9316L304.944 64.0758C304.767 64.1559 304.702 64.3642 304.702 64.5886C304.557 64.6206 304.397 64.6206 304.252 64.5565C304.075 64.4764 303.914 64.3322 303.833 64.1399L302.981 62.1528C302.9 61.9445 302.9 61.7362 302.981 61.5599C303.061 61.4317 303.158 61.3195 303.27 61.2394ZM299.892 53.3393C300.053 53.5636 300.294 53.6918 300.519 53.5957L300.873 53.4514C301.066 53.3713 301.131 53.1309 301.114 52.8906C301.195 52.8906 301.259 52.9066 301.34 52.9386C301.517 53.0188 301.694 53.163 301.758 53.3553L302.611 55.3423C302.691 55.5346 302.691 55.759 302.611 55.9353C302.579 56.0154 302.53 56.0795 302.482 56.1276C302.337 55.9994 302.128 55.9353 301.967 55.9994L301.613 56.1436C301.436 56.2237 301.356 56.432 301.372 56.6564C301.227 56.6884 301.066 56.6884 300.921 56.6403C300.728 56.5762 300.567 56.416 300.487 56.2237L299.65 54.2366C299.57 54.0443 299.57 53.836 299.65 53.6437C299.683 53.5316 299.779 53.4194 299.892 53.3393ZM296.513 45.4391C296.674 45.6634 296.915 45.7916 297.141 45.6955L297.494 45.5513C297.688 45.4711 297.752 45.2308 297.72 44.9904C297.8 44.9904 297.881 45.0064 297.945 45.0385C298.122 45.1186 298.283 45.2628 298.363 45.4551L299.216 47.4422C299.296 47.6345 299.296 47.8428 299.216 48.0351C299.184 48.1152 299.136 48.1793 299.087 48.2434C298.942 48.0992 298.733 48.0511 298.572 48.1152L298.218 48.2594C298.042 48.3396 297.977 48.5479 297.993 48.7722C297.848 48.8043 297.688 48.8043 297.543 48.7402C297.35 48.6601 297.205 48.5158 297.108 48.3235L296.272 46.3365C296.191 46.1442 296.191 45.9198 296.272 45.7436C296.32 45.6154 296.417 45.5192 296.513 45.4391ZM293.151 37.5229C293.295 37.7473 293.553 37.8755 293.778 37.7793L294.132 37.6351C294.325 37.555 294.389 37.3146 294.373 37.0742C294.454 37.0742 294.534 37.0902 294.599 37.1223C294.792 37.2024 294.936 37.3466 295.033 37.5389L295.886 39.526C295.966 39.7183 295.966 39.9266 295.886 40.1189C295.853 40.199 295.805 40.2631 295.757 40.3272C295.612 40.199 295.403 40.1349 295.242 40.199L294.888 40.3433C294.695 40.4234 294.631 40.6317 294.647 40.856C294.486 40.8881 294.341 40.8881 294.196 40.824C294.019 40.7439 293.858 40.5997 293.778 40.4074L292.941 38.4203C292.861 38.228 292.861 38.0197 292.941 37.8274C292.957 37.7152 293.038 37.603 293.151 37.5229ZM289.788 29.6227C289.949 29.8471 290.19 29.9753 290.415 29.8791L290.769 29.7349C290.962 29.6548 291.027 29.4144 291.011 29.1741C291.091 29.1741 291.172 29.1901 291.236 29.2221C291.429 29.3023 291.574 29.4465 291.67 29.6388L292.523 31.6258C292.603 31.8181 292.603 32.0425 292.523 32.2187C292.491 32.2989 292.443 32.3469 292.394 32.411C292.25 32.2828 292.056 32.2187 291.879 32.2989L291.526 32.4431C291.349 32.5232 291.284 32.7315 291.3 32.9559C291.139 32.9879 290.979 32.9879 290.834 32.9238C290.657 32.8437 290.496 32.6995 290.415 32.5072L289.563 30.5201C289.482 30.3278 289.482 30.1195 289.563 29.9272C289.579 29.799 289.675 29.7029 289.788 29.6227Z" fill="#4770B0"/>
<path d="M338.328 135.658V135.867C338.328 149.071 316.109 159.823 288.807 159.823C261.504 159.823 239.285 149.071 239.285 135.867V135.658H338.328Z" fill="#AABCE0"/>
<path d="M334.467 136.957V137.133C334.467 148.238 314.308 157.276 289.547 157.276C321.21 146.604 244.627 148.238 244.627 137.133V136.957H334.467Z" fill="#83A4E6"/>
<path d="M239.463 135.386C239.463 138.559 261.521 141.139 288.743 141.139C315.965 141.139 338.023 138.559 338.023 135.386C338.023 132.213 315.965 129.633 288.743 129.633C261.521 129.633 239.463 132.213 239.463 135.386Z" fill="#748FC7"/>
<path d="M253.766 140.528C249.181 140 245.577 139.375 243.035 138.67C240.863 138.077 238.369 137.147 238.369 135.385C238.369 133.622 240.863 132.692 243.035 132.099C245.577 131.394 249.181 130.769 253.766 130.241C263.114 129.151 275.534 128.542 288.743 128.542C301.952 128.542 314.373 129.151 323.72 130.241C328.306 130.769 331.91 131.394 334.452 132.099C336.624 132.692 339.133 133.622 339.133 135.385C339.133 137.163 336.64 138.077 334.452 138.67C331.91 139.375 328.306 140 323.72 140.528C314.373 141.618 301.952 142.227 288.743 142.227C275.534 142.227 263.114 141.618 253.766 140.528ZM322.272 132.26C313.15 131.266 301.244 130.721 288.743 130.721C276.242 130.721 264.337 131.266 255.214 132.26C243.888 133.494 241.249 134.92 240.67 135.385C241.249 135.849 243.888 137.275 255.214 138.509C264.337 139.503 276.242 140.048 288.743 140.048C301.244 140.048 313.15 139.503 322.272 138.509C333.599 137.275 336.237 135.849 336.817 135.385C336.237 134.92 333.599 133.494 322.272 132.26Z" fill="#C7D7F7"/>
<path d="M270.126 92.9828C267.664 92.9828 264.913 92.4898 264.913 89.1411C264.913 85.7924 265.015 80.4889 265.015 80.4889L258.545 79.945C258.545 79.843 258.545 79.792 258.545 79.792L257.646 79.86L256.746 79.792C256.746 79.792 256.746 79.843 256.746 79.945L250.276 80.4889C250.276 80.4889 250.378 85.7924 250.378 89.1411C250.378 92.4898 247.627 92.9828 245.165 92.9828C242.703 92.9828 238 93.9687 238 100.462C238 106.955 238 125.144 238 129.376C238 133.422 243.841 137.281 256.746 137.621C256.746 137.621 257.34 137.638 257.646 137.638C257.934 137.638 258.545 137.621 258.545 137.621C271.433 137.298 277.291 133.422 277.291 129.376C277.291 125.144 277.291 106.955 277.291 100.462C277.291 93.9517 272.571 92.9828 270.126 92.9828Z" fill="#871E1E"/>
<path d="M258.563 136.807C258.563 136.807 257.952 136.824 257.646 136.824C257.341 136.824 256.729 136.807 256.729 136.807C245.761 136.535 239.818 133.73 238.137 130.433C239.088 134.07 244.98 137.317 256.746 137.606C256.746 137.606 257.341 137.623 257.646 137.623C257.935 137.623 258.546 137.606 258.546 137.606C270.296 137.3 276.205 134.07 277.156 130.433C275.492 133.73 269.532 136.535 258.563 136.807Z" fill="#621414"/>
<path d="M264.933 86.9483C264.95 83.8716 265.018 80.4889 265.018 80.4889L258.548 79.945C258.548 79.843 258.548 79.792 258.548 79.792L257.648 79.86L256.749 79.792C256.749 79.792 256.749 79.843 256.749 79.945L250.279 80.4889C250.279 80.4889 250.347 84.0246 250.364 87.1353C252.317 87.7303 254.728 88.0872 257.36 88.0872C260.263 88.0872 262.895 87.6623 264.933 86.9483Z" fill="#621414"/>
<path d="M266.489 100.379C266.489 98.475 266.115 96.9792 265.521 95.8233C260.733 97.5231 252.651 99.9369 246.028 94.6504C243.736 94.6504 239.355 95.5513 239.355 101.45C239.355 107.365 239.355 123.293 239.355 127.151C239.355 130.84 244.806 134.359 256.811 134.648C256.811 134.648 257.371 134.665 257.643 134.665C257.914 134.665 258.475 134.665 258.475 134.648C261.582 134.563 264.231 134.274 266.489 133.832C266.489 128.052 266.489 107.586 266.489 100.379Z" fill="#A03737"/>
<path d="M257.378 86.219C264.252 86.219 269.824 83.7075 269.824 80.6095C269.824 77.5114 264.252 75 257.378 75C250.504 75 244.932 77.5114 244.932 80.6095C244.932 83.7075 250.504 86.219 257.378 86.219Z" fill="#871E1E"/>
<path d="M264.895 77.21C265.404 77.7709 265.676 78.3659 265.676 79.0118C265.676 81.6126 260.99 83.7374 255.2 83.7374C252.364 83.7374 249.783 83.2274 247.898 82.3945C249.461 84.1113 253.213 85.3182 257.594 85.3182C263.384 85.3182 268.07 83.2104 268.07 80.5927C268.087 79.2668 266.865 78.0599 264.895 77.21Z" fill="#621414"/>
<path d="M258.377 76.8346C258.377 77.5825 256.509 78.3475 253.843 78.3475C251.177 78.3475 248.953 78.4324 248.953 77.6845C248.953 76.9366 251.076 76.1717 253.64 75.8147C256.271 75.4578 258.377 76.0867 258.377 76.8346Z" fill="#CC8383"/>
<path d="M244.555 128.172C244.555 128.869 243.943 129.43 243.196 129.43C242.449 129.43 241.838 128.869 241.838 128.172V100.21C241.838 99.5131 242.449 98.9521 243.196 98.9521C243.943 98.9521 244.555 99.5131 244.555 100.21V128.172Z" fill="#CC8383"/>
<path d="M254.676 111.021V120.821H251.904V113.163H250.084V111.021H254.676ZM260.476 121.017C259.636 121.017 258.889 120.817 258.236 120.415C257.582 120.014 257.069 119.431 256.696 118.665C256.332 117.891 256.15 116.976 256.15 115.921C256.15 114.867 256.332 113.957 256.696 113.191C257.069 112.417 257.582 111.829 258.236 111.427C258.889 111.026 259.636 110.825 260.476 110.825C261.306 110.825 262.048 111.026 262.702 111.427C263.355 111.829 263.864 112.417 264.228 113.191C264.601 113.957 264.788 114.867 264.788 115.921C264.788 116.976 264.601 117.891 264.228 118.665C263.864 119.431 263.355 120.014 262.702 120.415C262.048 120.817 261.306 121.017 260.476 121.017ZM260.476 118.749C260.942 118.749 261.311 118.525 261.582 118.077C261.862 117.62 262.002 116.901 262.002 115.921C262.002 114.941 261.862 114.227 261.582 113.779C261.311 113.322 260.942 113.093 260.476 113.093C260 113.093 259.622 113.322 259.342 113.779C259.071 114.227 258.936 114.941 258.936 115.921C258.936 116.901 259.071 117.62 259.342 118.077C259.622 118.525 260 118.749 260.476 118.749Z" fill="white"/>
<path d="M332.126 91.9828C329.664 91.9828 326.913 91.4898 326.913 88.1411C326.913 84.7924 327.015 79.4889 327.015 79.4889L320.545 78.945C320.545 78.843 320.545 78.792 320.545 78.792L319.646 78.86L318.746 78.792C318.746 78.792 318.746 78.843 318.746 78.945L312.276 79.4889C312.276 79.4889 312.378 84.7924 312.378 88.1411C312.378 91.4898 309.627 91.9828 307.165 91.9828C304.703 91.9828 300 92.9687 300 99.4621C300 105.955 300 124.144 300 128.376C300 132.422 305.841 136.281 318.746 136.621C318.746 136.621 319.34 136.638 319.646 136.638C319.934 136.638 320.545 136.621 320.545 136.621C333.433 136.298 339.291 132.422 339.291 128.376C339.291 124.144 339.291 105.955 339.291 99.4621C339.291 92.9517 334.571 91.9828 332.126 91.9828Z" fill="#871E1E"/>
<path d="M320.563 135.807C320.563 135.807 319.952 135.824 319.646 135.824C319.341 135.824 318.729 135.807 318.729 135.807C307.761 135.535 301.818 132.73 300.137 129.433C301.088 133.07 306.98 136.317 318.746 136.606C318.746 136.606 319.341 136.623 319.646 136.623C319.935 136.623 320.546 136.606 320.546 136.606C332.296 136.3 338.205 133.07 339.156 129.433C337.492 132.73 331.532 135.535 320.563 135.807Z" fill="#621414"/>
<path d="M326.933 85.9483C326.95 82.8716 327.018 79.4889 327.018 79.4889L320.548 78.945C320.548 78.843 320.548 78.792 320.548 78.792L319.648 78.86L318.749 78.792C318.749 78.792 318.749 78.843 318.749 78.945L312.279 79.4889C312.279 79.4889 312.347 83.0246 312.364 86.1353C314.317 86.7303 316.728 87.0872 319.36 87.0872C322.263 87.0872 324.895 86.6623 326.933 85.9483Z" fill="#621414"/>
<path d="M328.489 99.3789C328.489 97.475 328.115 95.9792 327.521 94.8233C322.733 96.5231 314.651 98.9369 308.028 93.6504C305.736 93.6504 301.355 94.5513 301.355 100.45C301.355 106.365 301.355 122.293 301.355 126.151C301.355 129.84 306.806 133.359 318.811 133.648C318.811 133.648 319.371 133.665 319.643 133.665C319.914 133.665 320.475 133.665 320.475 133.648C323.582 133.563 326.231 133.274 328.489 132.832C328.489 127.052 328.489 106.586 328.489 99.3789Z" fill="#A03737"/>
<path d="M319.378 85.219C326.252 85.219 331.824 82.7075 331.824 79.6095C331.824 76.5114 326.252 74 319.378 74C312.504 74 306.932 76.5114 306.932 79.6095C306.932 82.7075 312.504 85.219 319.378 85.219Z" fill="#871E1E"/>
<path d="M326.895 76.21C327.404 76.7709 327.676 77.3659 327.676 78.0118C327.676 80.6126 322.99 82.7374 317.2 82.7374C314.364 82.7374 311.783 82.2274 309.898 81.3945C311.461 83.1113 315.213 84.3182 319.594 84.3182C325.384 84.3182 330.07 82.2104 330.07 79.5927C330.087 78.2668 328.865 77.0599 326.895 76.21Z" fill="#621414"/>
<path d="M320.377 75.8346C320.377 76.5825 318.509 77.3475 315.843 77.3475C313.177 77.3475 310.953 77.4324 310.953 76.6845C310.953 75.9366 313.076 75.1717 315.64 74.8147C318.271 74.4578 320.377 75.0867 320.377 75.8346Z" fill="#CC8383"/>
<path d="M306.555 127.172C306.555 127.869 305.943 128.43 305.196 128.43C304.449 128.43 303.838 127.869 303.838 127.172V99.21C303.838 98.5131 304.449 97.9521 305.196 97.9521C305.943 97.9521 306.555 98.5131 306.555 99.21V127.172Z" fill="#CC8383"/>
<path d="M320.502 113.941C321.314 114.109 321.935 114.445 322.364 114.949C322.803 115.444 323.022 116.046 323.022 116.755C323.022 117.334 322.863 117.871 322.546 118.365C322.238 118.86 321.762 119.261 321.118 119.569C320.483 119.868 319.695 120.017 318.752 120.017C318.061 120.017 317.375 119.933 316.694 119.765C316.022 119.597 315.439 119.359 314.944 119.051L315.952 116.965C316.335 117.227 316.764 117.427 317.24 117.567C317.725 117.707 318.201 117.777 318.668 117.777C319.144 117.777 319.522 117.689 319.802 117.511C320.082 117.334 320.222 117.082 320.222 116.755C320.222 116.121 319.723 115.803 318.724 115.803H317.562V114.053L319.312 112.163H315.448V110.021H322.532V111.757L320.502 113.941Z" fill="white"/>
</svg>
