<svg width="40" height="63" viewBox="0 0 40 63" fill="none" xmlns="http://www.w3.org/2000/svg">
<path d="M32.4166 17.9837C29.9545 17.9837 27.2038 17.4908 27.2038 14.1421C27.2038 10.7934 27.3057 5.4899 27.3057 5.4899L20.8364 4.94595C20.8364 4.84396 20.8364 4.79297 20.8364 4.79297L19.9365 4.86096L19.0366 4.79297C19.0366 4.79297 19.0366 4.84396 19.0366 4.94595L12.5673 5.4899C12.5673 5.4899 12.6692 10.7934 12.6692 14.1421C12.6692 17.4908 9.9185 17.9837 7.45645 17.9837C4.99439 17.9837 0.291016 18.9696 0.291016 25.463C0.291016 31.9564 0.291016 50.1447 0.291016 54.3773C0.291016 58.423 6.13203 62.2816 19.0366 62.6216C19.0366 62.6216 19.6309 62.6385 19.9365 62.6385C20.2252 62.6385 20.8364 62.6216 20.8364 62.6216C33.724 62.2986 39.582 58.423 39.582 54.3773C39.582 50.1447 39.582 31.9564 39.582 25.463C39.582 18.9526 34.8617 17.9837 32.4166 17.9837Z" fill="#871E1E"/>
<path d="M20.8543 61.808C20.8543 61.808 20.243 61.825 19.9374 61.825C19.6318 61.825 19.0205 61.808 19.0205 61.808C8.05162 61.536 2.10872 58.7313 0.427734 55.4336C1.3786 59.0713 7.27055 62.318 19.0375 62.6069C19.0375 62.6069 19.6318 62.6239 19.9374 62.6239C20.2261 62.6239 20.8373 62.6069 20.8373 62.6069C32.5873 62.301 38.4962 59.0713 39.4471 55.4336C37.7831 58.7313 31.8232 61.536 20.8543 61.808Z" fill="#621414"/>
<path d="M27.2238 11.9493C27.2408 8.87258 27.3087 5.4899 27.3087 5.4899L20.8394 4.94595C20.8394 4.84396 20.8394 4.79297 20.8394 4.79297L19.9395 4.86096L19.0396 4.79297C19.0396 4.79297 19.0396 4.84396 19.0396 4.94595L12.5703 5.4899C12.5703 5.4899 12.6382 9.02558 12.6552 12.1363C14.6079 12.7312 17.019 13.0882 19.6508 13.0882C22.5544 13.0882 25.1862 12.6632 27.2238 11.9493Z" fill="#621414"/>
<path d="M28.78 25.3789C28.78 23.475 28.4065 21.9792 27.8122 20.8233C23.0239 22.5231 14.9416 24.9369 8.3195 19.6504C6.02725 19.6504 1.64648 20.5513 1.64648 26.4498C1.64648 32.3652 1.64648 48.2928 1.64648 52.1514C1.64648 55.8401 7.09696 59.3588 19.1016 59.6477C19.1016 59.6477 19.6619 59.6647 19.9336 59.6647C20.2053 59.6647 20.7656 59.6647 20.7656 59.6477C23.8729 59.5628 26.5217 59.2738 28.78 58.8318C28.78 53.0523 28.78 32.5862 28.78 25.3789Z" fill="#A03737"/>
<path d="M19.6688 11.219C26.5426 11.219 32.1149 8.70751 32.1149 5.60948C32.1149 2.51145 26.5426 0 19.6688 0C12.795 0 7.22266 2.51145 7.22266 5.60948C7.22266 8.70751 12.795 11.219 19.6688 11.219Z" fill="#871E1E"/>
<path d="M27.1861 2.21094C27.6955 2.77189 27.9672 3.36683 27.9672 4.01277C27.9672 6.61353 23.2808 8.73834 17.4907 8.73834C14.6551 8.73834 12.0742 8.22838 10.1895 7.39546C11.7516 9.1123 15.5041 10.3192 19.8849 10.3192C25.6749 10.3192 30.3613 8.21139 30.3613 5.59363C30.3783 4.26775 29.1558 3.06086 27.1861 2.21094Z" fill="#621414"/>
<path d="M20.6679 1.83364C20.6679 2.58156 18.8001 3.34648 16.1343 3.34648C13.4685 3.34648 11.2441 3.43147 11.2441 2.68355C11.2441 1.93563 13.3666 1.17071 15.9305 0.813749C18.5624 0.456788 20.6679 1.08572 20.6679 1.83364Z" fill="#CC8383"/>
<path d="M6.84566 53.1734C6.84566 53.8703 6.23439 54.4313 5.48728 54.4313C4.74018 54.4313 4.12891 53.8703 4.12891 53.1734V25.211C4.12891 24.5141 4.74018 23.9531 5.48728 23.9531C6.23439 23.9531 6.84566 24.5141 6.84566 25.211V53.1734Z" fill="#CC8383"/>
<path d="M20.793 39.9403C21.605 40.1083 22.2257 40.4443 22.655 40.9483C23.0937 41.443 23.313 42.045 23.313 42.7543C23.313 43.333 23.1543 43.8696 22.837 44.3643C22.529 44.859 22.053 45.2603 21.409 45.5683C20.7743 45.867 19.9857 46.0163 19.043 46.0163C18.3523 46.0163 17.6663 45.9323 16.985 45.7643C16.313 45.5963 15.7297 45.3583 15.235 45.0503L16.243 42.9643C16.6257 43.2256 17.055 43.4263 17.531 43.5663C18.0163 43.7063 18.4923 43.7763 18.959 43.7763C19.435 43.7763 19.813 43.6876 20.093 43.5103C20.373 43.333 20.513 43.081 20.513 42.7543C20.513 42.1196 20.0137 41.8023 19.015 41.8023H17.853V40.0523L19.603 38.1623H15.739V36.0203H22.823V37.7563L20.793 39.9403Z" fill="white"/>
</svg>
