<svg width="40" height="63" viewBox="0 0 40 63" fill="none" xmlns="http://www.w3.org/2000/svg">
<path d="M32.7076 17.9837C30.2456 17.9837 27.4948 17.4908 27.4948 14.1421C27.4948 10.7934 27.5967 5.4899 27.5967 5.4899L21.1275 4.94595C21.1275 4.84396 21.1275 4.79297 21.1275 4.79297L20.2275 4.86096L19.3276 4.79297C19.3276 4.79297 19.3276 4.84396 19.3276 4.94595L12.8583 5.4899C12.8583 5.4899 12.9602 10.7934 12.9602 14.1421C12.9602 17.4908 10.2095 17.9837 7.74746 17.9837C5.28541 17.9837 0.582031 18.9696 0.582031 25.463C0.582031 31.9564 0.582031 50.1447 0.582031 54.3773C0.582031 58.423 6.42305 62.2816 19.3276 62.6216C19.3276 62.6216 19.9219 62.6385 20.2275 62.6385C20.5162 62.6385 21.1275 62.6216 21.1275 62.6216C34.0151 62.2986 39.873 58.423 39.873 54.3773C39.873 50.1447 39.873 31.9564 39.873 25.463C39.873 18.9526 35.1527 17.9837 32.7076 17.9837Z" fill="#871E1E"/>
<path d="M21.1453 61.808C21.1453 61.808 20.5341 61.825 20.2284 61.825C19.9228 61.825 19.3115 61.808 19.3115 61.808C8.34263 61.536 2.39974 58.7313 0.71875 55.4336C1.66961 59.0713 7.56157 62.318 19.3285 62.6069C19.3285 62.6069 19.9228 62.6239 20.2284 62.6239C20.5171 62.6239 21.1283 62.6069 21.1283 62.6069C32.8783 62.301 38.7872 59.0713 39.7381 55.4336C38.0741 58.7313 32.1142 61.536 21.1453 61.808Z" fill="#621414"/>
<path d="M27.5148 11.9493C27.5318 8.87258 27.5997 5.4899 27.5997 5.4899L21.1304 4.94595C21.1304 4.84396 21.1304 4.79297 21.1304 4.79297L20.2305 4.86096L19.3306 4.79297C19.3306 4.79297 19.3306 4.84396 19.3306 4.94595L12.8613 5.4899C12.8613 5.4899 12.9292 9.02558 12.9462 12.1363C14.8989 12.7312 17.31 13.0882 19.9419 13.0882C22.8454 13.0882 25.4772 12.6632 27.5148 11.9493Z" fill="#621414"/>
<path d="M29.071 25.3789C29.071 23.475 28.6975 21.9792 28.1032 20.8233C23.3149 22.5231 15.2326 24.9369 8.61052 19.6504C6.31826 19.6504 1.9375 20.5513 1.9375 26.4498C1.9375 32.3652 1.9375 48.2928 1.9375 52.1514C1.9375 55.8401 7.38798 59.3588 19.3926 59.6477C19.3926 59.6477 19.953 59.6647 20.2246 59.6647C20.4963 59.6647 21.0566 59.6647 21.0566 59.6477C24.1639 59.5628 26.8127 59.2738 29.071 58.8318C29.071 53.0523 29.071 32.5862 29.071 25.3789Z" fill="#A03737"/>
<path d="M19.9598 11.219C26.8336 11.219 32.4059 8.70751 32.4059 5.60948C32.4059 2.51145 26.8336 0 19.9598 0C13.086 0 7.51367 2.51145 7.51367 5.60948C7.51367 8.70751 13.086 11.219 19.9598 11.219Z" fill="#871E1E"/>
<path d="M27.4771 2.21094C27.9865 2.77189 28.2582 3.36683 28.2582 4.01277C28.2582 6.61353 23.5718 8.73834 17.7817 8.73834C14.9461 8.73834 12.3652 8.22838 10.4805 7.39546C12.0426 9.1123 15.7951 10.3192 20.1759 10.3192C25.9659 10.3192 30.6523 8.21139 30.6523 5.59363C30.6693 4.26775 29.4468 3.06086 27.4771 2.21094Z" fill="#621414"/>
<path d="M20.9589 1.83364C20.9589 2.58156 19.0911 3.34648 16.4253 3.34648C13.7595 3.34648 11.5352 3.43147 11.5352 2.68355C11.5352 1.93563 13.6576 1.17071 16.2216 0.813749C18.8534 0.456788 20.9589 1.08572 20.9589 1.83364Z" fill="#CC8383"/>
<path d="M7.13667 53.1734C7.13667 53.8703 6.5254 54.4313 5.7783 54.4313C5.03119 54.4313 4.41992 53.8703 4.41992 53.1734V25.211C4.41992 24.5141 5.03119 23.9531 5.7783 23.9531C6.5254 23.9531 7.13667 24.5141 7.13667 25.211V53.1734Z" fill="#CC8383"/>
<path d="M25.298 43.9443H23.842V45.8203H21.14V43.9443H15.96V42.1383L20.356 36.0203H23.226L19.236 41.7463H21.224V40.0803H23.842V41.7463H25.298V43.9443Z" fill="white"/>
</svg>
