<svg width="169" height="30" viewBox="0 0 169 30" fill="none" xmlns="http://www.w3.org/2000/svg">
<path d="M20.5376 13.692C21.7736 13.812 22.7156 14.196 23.3636 14.844C24.0116 15.48 24.3356 16.296 24.3356 17.292C24.3356 18.012 24.1556 18.666 23.7956 19.254C23.4356 19.83 22.8956 20.292 22.1756 20.64C21.4676 20.976 20.5976 21.144 19.5656 21.144C18.6656 21.144 17.8016 21.012 16.9736 20.748C16.1456 20.472 15.4676 20.094 14.9396 19.614L15.7676 18.192C16.1996 18.6 16.7516 18.93 17.4236 19.182C18.0956 19.422 18.8096 19.542 19.5656 19.542C20.5016 19.542 21.2276 19.344 21.7436 18.948C22.2716 18.552 22.5356 18.006 22.5356 17.31C22.5356 16.614 22.2776 16.074 21.7616 15.69C21.2456 15.306 20.4656 15.114 19.4216 15.114H18.4136V13.854L21.5816 9.966H15.5156V8.4H23.8316V9.624L20.5376 13.692Z" fill="#2F2F2F"/>
<path d="M5 1H35V-1H5V1ZM39 5V25H41V5H39ZM35 29H5V31H35V29ZM1 25V5H-1V25H1ZM5 29C2.79086 29 1 27.2091 1 25H-1C-1 28.3137 1.68629 31 5 31V29ZM39 25C39 27.2091 37.2091 29 35 29V31C38.3137 31 41 28.3137 41 25H39ZM35 1C37.2091 1 39 2.79086 39 5H41C41 1.68629 38.3137 -1 35 -1V1ZM5 -1C1.68629 -1 -1 1.68629 -1 5H1C1 2.79086 2.79086 1 5 1V-1Z" fill="#2F2F2F"/>
<path d="M52.7562 21L50.0022 17.346L47.2122 21H45.2862L49.0482 16.122L45.4662 11.46H47.3922L50.0202 14.898L52.6302 11.46H54.5202L50.9202 16.122L54.7182 21H52.7562Z" fill="#2F2F2F"/>
<path d="M80.7453 13.35C81.5733 13.35 82.3113 13.506 82.9593 13.818C83.6193 14.13 84.1353 14.58 84.5073 15.168C84.8793 15.744 85.0653 16.41 85.0653 17.166C85.0653 17.958 84.8673 18.654 84.4713 19.254C84.0873 19.854 83.5533 20.322 82.8693 20.658C82.1973 20.982 81.4413 21.144 80.6013 21.144C78.9093 21.144 77.6013 20.598 76.6773 19.506C75.7653 18.414 75.3093 16.866 75.3093 14.862C75.3093 13.458 75.5553 12.264 76.0473 11.28C76.5513 10.284 77.2473 9.534 78.1353 9.03C79.0353 8.514 80.0793 8.256 81.2673 8.256C81.8793 8.256 82.4553 8.322 82.9953 8.454C83.5353 8.574 84.0033 8.754 84.3993 8.994L83.7153 10.398C83.1153 10.002 82.3113 9.804 81.3033 9.804C79.9953 9.804 78.9693 10.212 78.2253 11.028C77.4813 11.832 77.1093 13.008 77.1093 14.556C77.1093 14.748 77.1153 14.898 77.1273 15.006C77.4873 14.466 77.9793 14.058 78.6033 13.782C79.2393 13.494 79.9533 13.35 80.7453 13.35ZM80.5293 19.686C81.3573 19.686 82.0293 19.464 82.5453 19.02C83.0613 18.576 83.3193 17.982 83.3193 17.238C83.3193 16.494 83.0553 15.906 82.5273 15.474C82.0113 15.03 81.3153 14.808 80.4393 14.808C79.8753 14.808 79.3713 14.916 78.9273 15.132C78.4953 15.348 78.1533 15.642 77.9013 16.014C77.6613 16.386 77.5413 16.8 77.5413 17.256C77.5413 17.7 77.6553 18.108 77.8833 18.48C78.1233 18.84 78.4653 19.134 78.9093 19.362C79.3653 19.578 79.9053 19.686 80.5293 19.686Z" fill="#2F2F2F"/>
<path d="M65 1H95V-1H65V1ZM99 5V25H101V5H99ZM95 29H65V31H95V29ZM61 25V5H59V25H61ZM65 29C62.7909 29 61 27.2091 61 25H59C59 28.3137 61.6863 31 65 31V29ZM99 25C99 27.2091 97.2091 29 95 29V31C98.3137 31 101 28.3137 101 25H99ZM95 1C97.2091 1 99 2.79086 99 5H101C101 1.68629 98.3137 -1 95 -1V1ZM65 -1C61.6863 -1 59 1.68629 59 5H61C61 2.79086 62.7909 1 65 1V-1Z" fill="#2F2F2F"/>
<path d="M106.468 11.856H114.532V13.278H106.468V11.856ZM106.468 16.122H114.532V17.544H106.468V16.122Z" fill="#2F2F2F"/>
<path d="M140.647 8.4V21H138.865V9.966H136.021V8.4H140.647ZM151.107 14.394C151.827 14.67 152.379 15.066 152.763 15.582C153.147 16.098 153.339 16.716 153.339 17.436C153.339 18.192 153.135 18.852 152.727 19.416C152.319 19.968 151.737 20.394 150.981 20.694C150.225 20.994 149.337 21.144 148.317 21.144C147.309 21.144 146.427 20.994 145.671 20.694C144.927 20.394 144.351 19.968 143.943 19.416C143.535 18.852 143.331 18.192 143.331 17.436C143.331 16.716 143.517 16.098 143.889 15.582C144.273 15.066 144.825 14.67 145.545 14.394C144.969 14.118 144.531 13.752 144.231 13.296C143.931 12.84 143.781 12.3 143.781 11.676C143.781 10.98 143.967 10.374 144.339 9.858C144.723 9.342 145.257 8.946 145.941 8.67C146.625 8.394 147.417 8.256 148.317 8.256C149.229 8.256 150.027 8.394 150.711 8.67C151.407 8.946 151.941 9.342 152.313 9.858C152.697 10.374 152.889 10.98 152.889 11.676C152.889 12.288 152.733 12.828 152.421 13.296C152.121 13.752 151.683 14.118 151.107 14.394ZM148.317 9.714C147.465 9.714 146.793 9.9 146.301 10.272C145.809 10.632 145.563 11.124 145.563 11.748C145.563 12.372 145.803 12.864 146.283 13.224C146.775 13.584 147.453 13.764 148.317 13.764C149.193 13.764 149.877 13.584 150.369 13.224C150.873 12.864 151.125 12.372 151.125 11.748C151.125 11.124 150.867 10.632 150.351 10.272C149.847 9.9 149.169 9.714 148.317 9.714ZM148.317 19.686C149.313 19.686 150.099 19.482 150.675 19.074C151.251 18.654 151.539 18.09 151.539 17.382C151.539 16.686 151.251 16.14 150.675 15.744C150.099 15.336 149.313 15.132 148.317 15.132C147.321 15.132 146.541 15.336 145.977 15.744C145.413 16.14 145.131 16.686 145.131 17.382C145.131 18.09 145.413 18.654 145.977 19.074C146.541 19.482 147.321 19.686 148.317 19.686Z" fill="#2F2F2F"/>
<path d="M126 1H164V-1H126V1ZM168 5V25H170V5H168ZM164 29H126V31H164V29ZM122 25V5H120V25H122ZM126 29C123.791 29 122 27.2091 122 25H120C120 28.3137 122.686 31 126 31V29ZM168 25C168 27.2091 166.209 29 164 29V31C167.314 31 170 28.3137 170 25H168ZM164 1C166.209 1 168 2.79086 168 5H170C170 1.68629 167.314 -1 164 -1V1ZM126 -1C122.686 -1 120 1.68629 120 5H122C122 2.79086 123.791 1 126 1V-1Z" fill="#2F2F2F"/>
</svg>
