<svg width="630" height="80" viewBox="0 0 630 80" fill="none" xmlns="http://www.w3.org/2000/svg">
<g clip-path="url(#clip0_1_1594)">
<path d="M69.6699 13.4536C69.7522 14.0193 69.8346 14.585 69.7866 15.1576C69.7454 15.7303 69.5601 16.317 69.1758 16.764C68.8739 17.1132 68.4691 17.3646 68.0505 17.5741C67.5564 17.8255 67.0487 18.035 66.5271 18.2026C66.3762 18.2515 66.2389 18.2795 66.1086 18.2934C65.3949 18.6496 64.4617 19.1734 63.3775 19.8928C60.324 21.9181 59.0408 24.998 59.0408 24.998L56.3647 19.8648C56.3647 19.8648 58.8349 17.6579 62.1973 16.1843C62.3414 16.1214 62.4786 16.0656 62.6159 16.0027C63.2815 15.1926 63.9608 14.3754 64.201 13.3977C64.2559 13.1742 64.2902 12.9367 64.4274 12.7482C64.5509 12.5736 64.743 12.4618 64.9283 12.3571C65.5665 12.0009 69.5944 12.9437 69.6699 13.4536Z" fill="#E8B134"/>
<path d="M64.0488 73.3194L63.2391 75.4215L60.5218 76.6717C60.5218 76.6717 51.8689 76.9231 43.1818 59.8962C36.7316 47.2413 41.0477 31.6322 44.211 26.8762C48.2733 20.7652 53.8177 18.8027 57.0703 18.9983C59.2867 19.138 61.359 22.3017 60.7345 26.7714C60.1307 31.0805 56.2811 33.5389 55.6224 43.91C54.9568 54.358 58.1476 62.6828 59.4376 65.3018C61.4207 69.3455 64.0488 73.3194 64.0488 73.3194Z" fill="#F2BB40"/>
<path d="M64.0488 73.3196L63.2391 75.4218L60.5218 76.6719L60.1718 75.0027C60.1375 74.8351 60.1993 74.6675 60.3365 74.5557L61.5168 73.578C61.5991 73.5082 61.7021 73.4732 61.805 73.4662L64.0488 73.3196Z" fill="#776057"/>
<path opacity="0.37" d="M65.0162 18.2658C64.9201 18.4543 64.7074 18.5521 64.5153 18.6429C63.3007 19.1946 62.1891 19.9629 61.2422 20.8987C61.0981 21.0454 60.954 21.192 60.7687 21.2758C60.5834 21.3596 60.3433 21.3666 60.206 21.2269C60.0619 21.0873 60.0757 20.8498 60.1717 20.6682C60.2678 20.4867 60.4393 20.354 60.604 20.2282C61.6745 19.3972 62.7998 18.622 63.9595 17.9166C64.2202 17.7559 65.3113 17.6721 65.0162 18.2658Z" fill="#FFD93B"/>
<path d="M63.2323 75.4294L60.7689 76.5469C60.7689 76.5469 60.6111 75.8834 60.8581 75.4085C61.0983 74.9336 61.5511 74.8917 61.7501 74.4936C61.9491 74.1025 61.8805 73.9628 61.9766 73.8441C62.0726 73.7254 62.7931 73.5158 63.0745 73.6835C63.3627 73.8511 63.7812 74.0117 63.7812 74.0117L63.2323 75.4294Z" fill="#3F332F"/>
<path d="M62.801 17.1328C62.6226 17.2516 62.3893 17.2236 62.1766 17.1957C60.8591 17.0211 59.5073 17.1049 58.2241 17.4332C58.0251 17.482 57.8261 17.5379 57.6203 17.517C57.4144 17.489 57.2154 17.3633 57.1674 17.1608C57.1193 16.9583 57.2497 16.7418 57.4281 16.63C57.6065 16.5183 57.8192 16.4903 58.0251 16.4624C59.37 16.2948 60.7218 16.218 62.0805 16.218C62.3893 16.225 63.3637 16.7557 62.801 17.1328Z" fill="#E29D39"/>
<path d="M66.5549 13.0845C67.014 13.3624 67.6428 18.3289 67.1118 18.5981C66.6935 18.8059 64.3916 19.3842 63.9294 19.4163C63.3769 19.4495 62.8314 19.4344 62.2861 19.3699C62.1289 19.3542 61.995 19.3208 61.8632 19.2736C61.067 19.314 60.0124 19.4159 58.7243 19.6465C55.1222 20.2984 52.7162 22.7527 52.7162 22.7527L52.3202 16.5567C52.3202 16.5567 55.4579 15.471 59.1214 15.4983C59.2738 15.4991 59.4262 15.4999 59.5777 15.5076C60.5095 15.007 61.456 14.5013 62.0708 13.6515C62.2093 13.4598 62.3383 13.2385 62.5368 13.1119C62.7198 12.9972 62.9383 12.9722 63.15 12.9463C63.8813 12.8753 64.6211 12.8409 65.3618 12.8489C65.7773 12.8524 66.2043 12.8717 66.5549 13.0845Z" fill="#FFC938"/>
<path d="M37.9838 72.2796L36.3989 73.9915L33.4195 74.0275C33.4195 74.0275 25.4075 70.5012 24.2828 50.0314C23.4461 34.8246 33.6372 21.4127 38.4286 18.1381C44.5827 13.924 50.4394 14.4157 53.3261 16.0316C55.2955 17.1341 55.9251 21.134 53.5642 25.246C51.2884 29.2009 46.7871 29.9348 42.0426 39.8067C37.2591 49.7576 36.8464 59.3015 36.9715 62.4243C37.1776 67.2451 37.9838 72.2796 37.9838 72.2796Z" fill="#FFC938"/>
<path d="M53.326 16.0318C53.5187 16.1372 53.693 16.2752 53.8574 16.433C53.9667 16.7804 54.1041 17.1742 54.1041 17.1742L54.6051 19.7091C54.6051 19.7091 53.7754 19.1167 49.8082 20.859C45.9663 22.5488 37.2089 28.5185 33.9124 39.7917C28.2487 59.1627 35.3716 71.9313 35.3716 71.9313C35.3716 71.9313 35.7087 72.9114 35.69 74.0024L33.4193 74.0277C33.4193 74.0277 25.4073 70.5015 24.2826 50.0316C23.4459 34.8248 33.637 21.413 38.4284 18.1383C44.5893 13.9252 50.4392 14.4159 53.326 16.0318Z" fill="#F2BB40"/>
<path d="M38.4294 18.1387C44.5835 13.9245 50.4402 14.4163 53.3269 16.0321C53.5323 16.1464 53.7191 16.2933 53.8951 16.4669L54.1023 17.915C54.1023 17.915 52.1009 16.0246 45.4415 17.8303C41.3212 18.9508 36.0266 24.3685 31.6738 31.8131C28.6371 37.006 27.019 45.7269 28.2633 59.165C28.9884 67.1654 34.0992 71.868 34.0992 71.868L34.2678 74.0162L33.4203 74.028C33.4203 74.028 25.4083 70.5018 24.2836 50.0319C23.4469 34.8251 33.638 21.4133 38.4294 18.1387Z" fill="#E8B134"/>
<path d="M63.4733 13.1455C63.5831 12.936 63.6792 12.6985 63.8576 12.5449C64.0223 12.4052 64.235 12.3493 64.4408 12.2934C65.1545 12.1188 65.8818 11.9792 66.616 11.8814C67.0209 11.8255 67.4532 11.7906 67.8306 11.9442C68.3247 12.1538 68.6472 12.6706 68.757 13.2083C68.8393 13.5855 68.8324 13.9766 68.7981 14.3607C68.2492 13.7321 67.2542 13.8718 66.4102 14.0045C66.2455 14.0325 66.0328 13.9766 65.9093 14.0883C65.7995 14.1861 65.7652 14.3397 65.6897 14.4655C65.2025 15.2756 65.0104 15.4293 64.4271 16.1486C63.1577 16.6724 62.2107 16.8749 60.8521 17.3429C59.6375 17.7619 58.4367 18.4114 57.1329 18.5162C56.2134 18.593 55.2184 18.0413 54.3127 17.7689L54.2372 17.4197C54.2372 17.4197 55.0194 14.654 58.6494 14.1582C58.8003 14.1372 61.1197 15.3594 61.2706 15.3385C62.1215 14.7169 62.9861 14.0813 63.4733 13.1455Z" fill="#C69B2E"/>
<path d="M52.9245 26.2193C50.5098 29.4063 46.3778 30.8002 42.0414 39.8136C37.2579 49.7645 36.8452 59.3085 36.9703 62.4312C37.1686 67.258 37.9816 72.2934 37.9816 72.2934L37.464 72.8538C36.5039 72.5884 36.1939 71.1324 36.0563 70.3082C34.2178 59.4517 36.4328 46.6396 41.4356 38.2939C44.9377 32.4695 48.7115 30.0501 52.9245 26.2193Z" fill="#FFD93B"/>
<path d="M37.9844 72.2796L36.3995 73.9915L33.4201 74.0275L33.7686 72.2361C33.8013 72.0574 33.9319 71.921 34.0991 71.8675L35.5705 71.4234C35.6715 71.3957 35.7822 71.3975 35.8801 71.4398L37.9844 72.2796Z" fill="#776057"/>
<path d="M60.8829 18.7706C60.7231 18.9169 60.4872 18.9182 60.2717 18.9224C58.9456 18.9358 57.6176 19.2029 56.3809 19.702C56.1893 19.7802 55.9968 19.8653 55.7959 19.8646C55.5949 19.8638 55.373 19.7683 55.297 19.5739C55.2211 19.3795 55.3239 19.1473 55.4884 19.0158C55.6462 18.8833 55.8561 18.8219 56.0582 18.7664C57.3701 18.4193 58.7049 18.1531 60.0491 17.9659C60.3599 17.926 61.3923 18.3148 60.8829 18.7706Z" fill="#FFD93B"/>
<path d="M36.3986 73.9922L33.6978 74.019C33.6978 74.019 33.8218 73.3031 34.2338 72.9462C34.6458 72.5893 35.0743 72.7428 35.4152 72.4462C35.7561 72.1496 35.745 71.9857 35.8802 71.9135C36.0154 71.8413 36.7557 71.948 36.9498 72.2371C37.1438 72.5261 37.4629 72.8614 37.4629 72.8614L36.3986 73.9922Z" fill="#3F332F"/>
<path d="M69.6616 12.8727C69.9979 13.2987 70.0322 13.9133 69.8812 14.4371C69.7303 14.9609 69.4146 15.4218 69.1127 15.8688C68.7696 16.3646 68.4265 16.8675 67.9942 17.2795C67.5619 17.6916 67.0129 18.0128 66.4228 18.0757C65.9631 18.1246 65.4965 18.0198 65.0573 17.8801C64.5289 17.7125 64.0211 17.503 63.534 17.2446C63.3967 17.1748 63.2801 17.091 63.1703 17.0072C62.4086 16.7627 61.3862 16.4834 60.103 16.2389C56.5142 15.5685 53.4264 17.0141 53.4264 17.0141L55.1624 11.0569C55.1624 11.0569 58.4699 11.1546 61.8871 12.4886C62.0312 12.5444 62.1753 12.6003 62.3125 12.6562C63.3555 12.5235 64.4123 12.3838 65.2769 11.7972C65.4759 11.6645 65.668 11.5038 65.9013 11.4619C66.114 11.42 66.3267 11.4689 66.5326 11.5248C67.2462 11.7203 67.9462 11.9508 68.6323 12.2162C69.0098 12.3698 69.4077 12.5444 69.6616 12.8727Z" fill="#FFC938"/>
<path d="M17.2132 49.55L14.9614 50.0501L12.4953 48.3623C12.4953 48.3623 7.91357 40.8312 18.4756 23.2776C26.3231 10.2359 42.1983 5.04109 47.9622 5.09702C55.3721 5.1687 59.8894 8.95018 61.3497 11.9456C62.35 13.995 60.6158 17.6612 56.3733 19.6937C52.2913 21.6519 48.1968 19.6573 38.7655 25.0741C29.2606 30.5298 23.567 38.1745 21.9215 40.8254C19.3821 44.9279 17.2132 49.55 17.2132 49.55Z" fill="#FFC938"/>
<path d="M61.35 11.9519C61.4483 12.1499 61.5147 12.3614 61.5628 12.5899C61.4532 12.9367 61.3497 13.3428 61.3497 13.3428L60.3396 15.7232C60.3396 15.7232 59.9914 14.7552 55.7603 13.9079C51.664 13.0876 41.1442 12.9659 32.1122 20.3727C16.6037 33.1058 15.2797 47.7519 15.2797 47.7519C15.2797 47.7519 15.0029 48.7552 14.3805 49.6417L12.5056 48.3568C12.5056 48.3568 7.92391 40.8257 18.4859 23.272C26.3335 10.2303 42.2087 5.03552 47.9726 5.09146C55.3657 5.17328 59.8897 8.95646 61.35 11.9519Z" fill="#F2BB40"/>
<path d="M47.9627 5.10363C55.3726 5.1753 59.8899 8.95679 61.3502 11.9522C61.4517 12.1654 61.528 12.3939 61.5726 12.6359L60.9265 13.9487C60.9265 13.9487 60.3518 11.2294 53.8762 8.88047C49.877 7.42912 42.4959 8.85663 34.7527 12.4837C29.3497 15.0134 23.1331 21.2924 16.6123 33.101C12.7316 40.1337 14.2772 46.9634 14.2772 46.9634L13.2065 48.8311L12.5076 48.3504C12.5076 48.3504 7.92587 40.8192 18.4879 23.2656C26.3236 10.2425 42.2005 5.04092 47.9627 5.10363Z" fill="#E8B134"/>
<path d="M65.27 11.7983C65.469 11.6656 65.6611 11.5049 65.8945 11.463C66.1072 11.4211 66.3199 11.47 66.5257 11.5259C67.2394 11.7214 67.9393 11.9519 68.6255 12.2173C69.0098 12.364 69.4009 12.5386 69.6616 12.8668C69.9979 13.2928 70.0322 13.9074 69.8812 14.4312C69.7714 14.8014 69.5862 15.1366 69.3803 15.4648C69.195 14.6477 68.2549 14.2846 67.4521 13.9842C67.2943 13.9284 67.1365 13.7747 66.9718 13.8096C66.8277 13.8376 66.7247 13.9633 66.6012 14.0331C65.7915 14.508 65.5514 14.5499 64.7005 14.8991C63.3418 14.7385 62.4155 14.4592 61.0019 14.2077C59.7393 13.9842 58.3738 13.9633 57.1867 13.4255C56.3496 13.0484 55.7251 12.0776 55.0595 11.4002L55.1624 11.058C55.1624 11.058 58.4699 11.1557 61.8871 12.4897C62.0312 12.5455 62.1753 12.6014 62.3125 12.6573C63.3487 12.5246 64.4054 12.3849 65.27 11.7983Z" fill="#E8B134"/>
<path d="M55.3066 20.1344C51.5357 21.3719 47.3746 20.1387 38.7637 25.0871C29.2605 30.5359 23.5669 38.1806 21.9197 40.8383C19.3737 44.9391 17.2114 49.5629 17.2114 49.5629L16.4686 49.7268C15.8305 48.9516 16.3938 47.5744 16.7436 46.8131C21.3298 36.789 30.328 27.4855 39.1157 23.4831C45.2524 20.6863 49.7025 20.8687 55.3066 20.1344Z" fill="#FFD93B"/>
<path d="M17.2139 49.5502L14.9622 50.0504L12.496 48.3626L13.7849 47.0838C13.9092 46.9569 14.0979 46.9113 14.2607 46.9672L15.7159 47.4532C15.8139 47.4854 15.9033 47.5514 15.9592 47.6377L17.2139 49.5502Z" fill="#776057"/>
<path opacity="0.82" d="M56.0269 18.6674C54.8223 19.2542 53.4503 19.3587 52.1169 19.4226C50.6486 19.4881 49.184 19.5114 47.7164 19.4906C47.315 19.482 46.8455 19.4345 46.6436 19.0876C46.5106 18.8591 46.5449 18.5579 46.657 18.3126C46.9914 17.5834 47.8817 17.3129 48.6689 17.2252C50.73 17.0008 52.8869 17.4566 54.8209 16.7025C55.2221 16.5453 55.6088 16.3339 56.0277 16.2461C58.2295 15.7476 57.2716 18.062 56.0269 18.6674Z" fill="#FFF031"/>
<path opacity="0.82" d="M43.752 20.0663C42.9445 20.4011 42.132 20.7274 41.3244 21.0622C41.087 21.1603 40.8279 21.26 40.5819 21.1974C40.1896 21.0974 39.9923 20.5931 40.1073 20.1972C40.2224 19.8013 40.5598 19.5053 40.928 19.3108C41.2895 19.1146 41.687 18.9997 42.0486 18.8035C42.4569 18.5904 42.8195 18.2792 43.2426 18.0915C43.6657 17.9038 44.1893 17.8498 44.5567 18.1308C45.543 18.901 44.4559 19.7772 43.752 20.0663Z" fill="#FFF031"/>
<path d="M62.4176 16.183C62.2186 16.2598 61.999 16.183 61.7931 16.1062C60.5443 15.6453 59.2131 15.4218 57.8818 15.4497C57.676 15.4567 57.4701 15.4637 57.278 15.3939C57.0859 15.324 56.9143 15.1494 56.9143 14.9469C56.9143 14.7374 57.0859 14.5558 57.2849 14.486C57.4839 14.4162 57.6966 14.4371 57.9024 14.4581C59.2474 14.5977 60.5923 14.8212 61.9098 15.1285C62.2186 15.2053 63.0489 15.9386 62.4176 16.183Z" fill="#FFD93B"/>
<path d="M14.9623 50.0501L12.733 48.5164C12.733 48.5164 13.234 47.9954 13.7726 47.938C14.3112 47.8807 14.5779 48.2513 15.0215 48.2058C15.4668 48.1534 15.5512 48.0164 15.7027 48.0334C15.8542 48.0503 16.4028 48.5649 16.3981 48.9169C16.3935 49.2688 16.4678 49.7274 16.4678 49.7274L14.9623 50.0501Z" fill="#3F332F"/>
<path opacity="0.82" d="M18.7272 39.8603C19.6982 37.1888 21.1674 34.702 23.0333 32.5756C23.3108 32.2644 23.6936 31.9294 24.079 32.0565C24.4644 32.1835 24.5765 32.7165 24.4149 33.1006C24.255 33.4779 23.9228 33.7536 23.6189 34.0293C23.0093 34.5875 22.4839 35.232 22.0613 35.9459C21.4121 37.0489 21.0162 38.3246 20.2195 39.3396C20.0291 39.5866 19.4225 40.3834 19.2018 40.4713C18.7437 40.6573 18.5275 40.422 18.7272 39.8603Z" fill="#FFF031"/>
<path d="M60.3983 72.2863C60.0209 72.3701 59.6504 72.1536 59.3485 71.9092C58.7721 71.4413 58.3192 70.8267 57.8937 70.2121C54.3804 65.1627 51.9719 59.3032 51.0524 53.1923C50.1329 47.0813 50.7162 40.719 52.864 34.9363C53.0698 34.3845 53.3168 33.8049 53.7972 33.4697C54.2775 33.1414 55.0666 33.2043 55.2999 33.742C55.444 34.0703 55.348 34.4544 55.2519 34.7966C54.7922 36.4029 54.2706 38.0092 54.0305 39.6644C53.756 41.5151 53.8246 43.3938 53.907 45.2585C54.0648 48.7295 54.2912 52.2215 55.0529 55.6087C55.746 58.6677 56.8713 61.6009 58.0584 64.4992C58.6485 65.9379 59.2524 67.3696 59.8288 68.8153C60.0621 69.402 61.5443 72.0419 60.3983 72.2863Z" fill="#FFE932"/>
<path opacity="0.82" d="M48.2814 28.4075C46.2061 30.3945 43.643 32.0147 42.3548 34.602C42.1885 34.9379 42.0318 35.3034 41.7532 35.5525C41.4679 35.8007 41.0045 35.8891 40.7375 35.6248C40.6099 35.5005 40.5523 35.3229 40.5219 35.1491C40.4116 34.5193 40.6615 33.8921 40.9249 33.3162C41.6619 31.7149 42.5675 30.1943 43.6164 28.7862C44.4594 27.6517 45.4255 26.5774 46.6541 25.8937C48.878 24.655 49.9776 26.7893 48.2814 28.4075Z" fill="#FFF031"/>
<path d="M66.7463 18.1957C66.7806 18.2655 66.8287 18.3354 66.8973 18.3703C66.9865 18.4052 67.0826 18.3703 67.1718 18.3354C67.9471 18.0071 68.7294 17.6789 69.5048 17.3506C69.9371 17.1691 70.3968 16.9665 70.6713 16.5824C70.9184 16.2402 70.9938 15.8002 70.9938 15.3812C71.0076 14.2288 70.5615 13.0764 69.7656 12.2663C69.4705 11.966 69.1205 11.7076 68.7157 11.6098C68.1736 11.4771 67.6041 11.6587 67.1031 11.9101C66.3826 12.2803 65.7513 12.818 65.2641 13.4745C64.6534 14.2986 64.9279 14.8783 65.3671 15.6815C65.8337 16.5126 66.2934 17.3576 66.7463 18.1957Z" fill="#937C69"/>
<path d="M63.4527 12.8801C63.391 12.7963 63.3292 12.7055 63.3292 12.6008C63.3292 12.503 63.391 12.4192 63.439 12.3424C63.8027 11.7487 63.7958 10.9945 64.0497 10.345C64.5232 9.12277 65.8613 8.42438 67.1513 8.35454C67.2748 8.34756 67.4052 8.34756 67.515 8.40343C67.6728 8.48025 67.7552 8.65485 67.8306 8.82247C68.2698 9.8072 69.8206 12.1329 70.0059 12.517C70.0059 12.517 69.5598 12.0141 69.0315 12.1817C68.4894 12.3563 67.9679 12.5519 67.4326 12.7405C66.2936 13.1385 65.676 13.9347 64.9761 14.8496C64.3791 14.4166 63.8988 13.4808 63.4527 12.8801Z" fill="#776057"/>
<path opacity="0.34" d="M69.6139 16.6299C69.4561 16.7626 69.2846 16.8883 69.1062 16.9931C68.9209 17.1049 68.7013 17.2026 68.4954 17.1328C68.2553 17.056 68.1249 16.7836 68.1386 16.5322C68.1523 16.2807 68.2827 16.0503 68.42 15.8407C68.5572 15.6312 68.7287 15.4357 68.8248 15.2052C68.9483 14.9258 68.9621 14.5976 68.8728 14.3043C68.818 14.1227 68.7219 13.9481 68.667 13.7665C68.2964 12.5513 70.0051 13.1379 70.3001 13.8433C70.7187 14.842 70.4168 15.9525 69.6139 16.6299Z" fill="white"/>
</g>
<g clip-path="url(#clip1_1_1594)">
<path d="M179.67 13.4536C179.752 14.0193 179.835 14.585 179.787 15.1576C179.745 15.7303 179.56 16.317 179.176 16.764C178.874 17.1132 178.469 17.3646 178.05 17.5741C177.556 17.8255 177.049 18.035 176.527 18.2026C176.376 18.2515 176.239 18.2795 176.109 18.2934C175.395 18.6496 174.462 19.1734 173.378 19.8928C170.324 21.9181 169.041 24.998 169.041 24.998L166.365 19.8648C166.365 19.8648 168.835 17.6579 172.197 16.1843C172.341 16.1214 172.479 16.0656 172.616 16.0027C173.281 15.1926 173.961 14.3754 174.201 13.3977C174.256 13.1742 174.29 12.9367 174.427 12.7482C174.551 12.5736 174.743 12.4618 174.928 12.3571C175.566 12.0009 179.594 12.9437 179.67 13.4536Z" fill="#E8B134"/>
<path d="M174.049 73.3194L173.239 75.4215L170.522 76.6717C170.522 76.6717 161.869 76.9231 153.182 59.8962C146.732 47.2413 151.048 31.6322 154.211 26.8762C158.273 20.7652 163.818 18.8027 167.07 18.9983C169.287 19.138 171.359 22.3017 170.735 26.7714C170.131 31.0805 166.281 33.5389 165.622 43.91C164.957 54.358 168.148 62.6828 169.438 65.3018C171.421 69.3455 174.049 73.3194 174.049 73.3194Z" fill="#F2BB40"/>
<path d="M174.049 73.3196L173.239 75.4218L170.522 76.6719L170.172 75.0027C170.138 74.8351 170.199 74.6675 170.337 74.5557L171.517 73.578C171.599 73.5082 171.702 73.4732 171.805 73.4662L174.049 73.3196Z" fill="#776057"/>
<path opacity="0.37" d="M175.016 18.2658C174.92 18.4543 174.707 18.5521 174.515 18.6429C173.301 19.1946 172.189 19.9629 171.242 20.8987C171.098 21.0454 170.954 21.192 170.769 21.2758C170.583 21.3596 170.343 21.3666 170.206 21.2269C170.062 21.0873 170.076 20.8498 170.172 20.6682C170.268 20.4867 170.439 20.354 170.604 20.2282C171.674 19.3972 172.8 18.622 173.959 17.9166C174.22 17.7559 175.311 17.6721 175.016 18.2658Z" fill="#FFD93B"/>
<path d="M173.232 75.4294L170.769 76.5469C170.769 76.5469 170.611 75.8834 170.858 75.4085C171.098 74.9336 171.551 74.8917 171.75 74.4936C171.949 74.1025 171.881 73.9628 171.977 73.8441C172.073 73.7254 172.793 73.5158 173.074 73.6835C173.363 73.8511 173.781 74.0117 173.781 74.0117L173.232 75.4294Z" fill="#3F332F"/>
<path d="M172.801 17.1328C172.623 17.2516 172.389 17.2236 172.177 17.1957C170.859 17.0211 169.507 17.1049 168.224 17.4332C168.025 17.482 167.826 17.5379 167.62 17.517C167.414 17.489 167.215 17.3633 167.167 17.1608C167.119 16.9583 167.25 16.7418 167.428 16.63C167.607 16.5183 167.819 16.4903 168.025 16.4624C169.37 16.2948 170.722 16.218 172.08 16.218C172.389 16.225 173.364 16.7557 172.801 17.1328Z" fill="#E29D39"/>
<path d="M176.555 13.0845C177.014 13.3624 177.643 18.3289 177.112 18.5981C176.694 18.8059 174.392 19.3842 173.929 19.4163C173.377 19.4495 172.831 19.4344 172.286 19.3699C172.129 19.3542 171.995 19.3208 171.863 19.2736C171.067 19.314 170.012 19.4159 168.724 19.6465C165.122 20.2984 162.716 22.7527 162.716 22.7527L162.32 16.5567C162.32 16.5567 165.458 15.471 169.121 15.4983C169.274 15.4991 169.426 15.4999 169.578 15.5076C170.51 15.007 171.456 14.5013 172.071 13.6515C172.209 13.4598 172.338 13.2385 172.537 13.1119C172.72 12.9972 172.938 12.9722 173.15 12.9463C173.881 12.8753 174.621 12.8409 175.362 12.8489C175.777 12.8524 176.204 12.8717 176.555 13.0845Z" fill="#FFC938"/>
<path d="M147.984 72.2796L146.399 73.9915L143.419 74.0275C143.419 74.0275 135.407 70.5012 134.283 50.0314C133.446 34.8246 143.637 21.4127 148.429 18.1381C154.583 13.924 160.439 14.4157 163.326 16.0316C165.296 17.1341 165.925 21.134 163.564 25.246C161.288 29.2009 156.787 29.9348 152.043 39.8067C147.259 49.7576 146.846 59.3015 146.972 62.4243C147.178 67.2451 147.984 72.2796 147.984 72.2796Z" fill="#FFC938"/>
<path d="M163.326 16.0318C163.519 16.1372 163.693 16.2752 163.857 16.433C163.967 16.7804 164.104 17.1742 164.104 17.1742L164.605 19.7091C164.605 19.7091 163.775 19.1167 159.808 20.859C155.966 22.5488 147.209 28.5185 143.912 39.7917C138.249 59.1627 145.372 71.9313 145.372 71.9313C145.372 71.9313 145.709 72.9114 145.69 74.0024L143.419 74.0277C143.419 74.0277 135.407 70.5015 134.283 50.0316C133.446 34.8248 143.637 21.413 148.428 18.1383C154.589 13.9252 160.439 14.4159 163.326 16.0318Z" fill="#F2BB40"/>
<path d="M148.429 18.1387C154.583 13.9245 160.44 14.4163 163.327 16.0321C163.532 16.1464 163.719 16.2933 163.895 16.4669L164.102 17.915C164.102 17.915 162.101 16.0246 155.441 17.8303C151.321 18.9508 146.027 24.3685 141.674 31.8131C138.637 37.006 137.019 45.7269 138.263 59.165C138.988 67.1654 144.099 71.868 144.099 71.868L144.268 74.0162L143.42 74.028C143.42 74.028 135.408 70.5018 134.284 50.0319C133.447 34.8251 143.638 21.4133 148.429 18.1387Z" fill="#E8B134"/>
<path d="M173.473 13.1455C173.583 12.936 173.679 12.6985 173.858 12.5449C174.022 12.4052 174.235 12.3493 174.441 12.2934C175.154 12.1188 175.882 11.9792 176.616 11.8814C177.021 11.8255 177.453 11.7906 177.831 11.9442C178.325 12.1538 178.647 12.6706 178.757 13.2083C178.839 13.5855 178.832 13.9766 178.798 14.3607C178.249 13.7321 177.254 13.8718 176.41 14.0045C176.246 14.0325 176.033 13.9766 175.909 14.0883C175.799 14.1861 175.765 14.3397 175.69 14.4655C175.202 15.2756 175.01 15.4293 174.427 16.1486C173.158 16.6724 172.211 16.8749 170.852 17.3429C169.637 17.7619 168.437 18.4114 167.133 18.5162C166.213 18.593 165.218 18.0413 164.313 17.7689L164.237 17.4197C164.237 17.4197 165.019 14.654 168.649 14.1582C168.8 14.1372 171.12 15.3594 171.271 15.3385C172.122 14.7169 172.986 14.0813 173.473 13.1455Z" fill="#C69B2E"/>
<path d="M162.924 26.2193C160.51 29.4063 156.378 30.8002 152.041 39.8136C147.258 49.7645 146.845 59.3085 146.97 62.4312C147.169 67.258 147.982 72.2934 147.982 72.2934L147.464 72.8538C146.504 72.5884 146.194 71.1324 146.056 70.3082C144.218 59.4517 146.433 46.6396 151.436 38.2939C154.938 32.4695 158.711 30.0501 162.924 26.2193Z" fill="#FFD93B"/>
<path d="M147.984 72.2796L146.4 73.9915L143.42 74.0275L143.769 72.2361C143.801 72.0574 143.932 71.921 144.099 71.8675L145.57 71.4234C145.672 71.3957 145.782 71.3975 145.88 71.4398L147.984 72.2796Z" fill="#776057"/>
<path d="M170.883 18.7706C170.723 18.9169 170.487 18.9182 170.272 18.9224C168.946 18.9358 167.618 19.2029 166.381 19.702C166.189 19.7802 165.997 19.8653 165.796 19.8646C165.595 19.8638 165.373 19.7683 165.297 19.5739C165.221 19.3795 165.324 19.1473 165.488 19.0158C165.646 18.8833 165.856 18.8219 166.058 18.7664C167.37 18.4193 168.705 18.1531 170.049 17.9659C170.36 17.926 171.392 18.3148 170.883 18.7706Z" fill="#FFD93B"/>
<path d="M146.399 73.9922L143.698 74.019C143.698 74.019 143.822 73.3031 144.234 72.9462C144.646 72.5893 145.074 72.7428 145.415 72.4462C145.756 72.1496 145.745 71.9857 145.88 71.9135C146.015 71.8413 146.756 71.948 146.95 72.2371C147.144 72.5261 147.463 72.8614 147.463 72.8614L146.399 73.9922Z" fill="#3F332F"/>
<path d="M179.662 12.8727C179.998 13.2987 180.032 13.9133 179.881 14.4371C179.73 14.9609 179.415 15.4218 179.113 15.8688C178.77 16.3646 178.426 16.8675 177.994 17.2795C177.562 17.6916 177.013 18.0128 176.423 18.0757C175.963 18.1246 175.496 18.0198 175.057 17.8801C174.529 17.7125 174.021 17.503 173.534 17.2446C173.397 17.1748 173.28 17.091 173.17 17.0072C172.409 16.7627 171.386 16.4834 170.103 16.2389C166.514 15.5685 163.426 17.0141 163.426 17.0141L165.162 11.0569C165.162 11.0569 168.47 11.1546 171.887 12.4886C172.031 12.5444 172.175 12.6003 172.313 12.6562C173.356 12.5235 174.412 12.3838 175.277 11.7972C175.476 11.6645 175.668 11.5038 175.901 11.4619C176.114 11.42 176.327 11.4689 176.533 11.5248C177.246 11.7203 177.946 11.9508 178.632 12.2162C179.01 12.3698 179.408 12.5444 179.662 12.8727Z" fill="#FFC938"/>
<path d="M127.213 49.55L124.961 50.0501L122.495 48.3623C122.495 48.3623 117.914 40.8312 128.476 23.2776C136.323 10.2359 152.198 5.04109 157.962 5.09702C165.372 5.1687 169.889 8.95018 171.35 11.9456C172.35 13.995 170.616 17.6612 166.373 19.6937C162.291 21.6519 158.197 19.6573 148.765 25.0741C139.261 30.5298 133.567 38.1745 131.921 40.8254C129.382 44.9279 127.213 49.55 127.213 49.55Z" fill="#FFC938"/>
<path d="M171.35 11.9519C171.448 12.1499 171.515 12.3614 171.563 12.5899C171.453 12.9367 171.35 13.3428 171.35 13.3428L170.34 15.7232C170.34 15.7232 169.991 14.7552 165.76 13.9079C161.664 13.0876 151.144 12.9659 142.112 20.3727C126.604 33.1058 125.28 47.7519 125.28 47.7519C125.28 47.7519 125.003 48.7552 124.38 49.6417L122.506 48.3568C122.506 48.3568 117.924 40.8257 128.486 23.272C136.333 10.2303 152.209 5.03552 157.973 5.09146C165.366 5.17328 169.89 8.95646 171.35 11.9519Z" fill="#F2BB40"/>
<path d="M157.963 5.10363C165.373 5.1753 169.89 8.95679 171.35 11.9522C171.452 12.1654 171.528 12.3939 171.573 12.6359L170.927 13.9487C170.927 13.9487 170.352 11.2294 163.876 8.88047C159.877 7.42912 152.496 8.85663 144.753 12.4837C139.35 15.0134 133.133 21.2924 126.612 33.101C122.732 40.1337 124.277 46.9634 124.277 46.9634L123.206 48.8311L122.508 48.3504C122.508 48.3504 117.926 40.8192 128.488 23.2656C136.324 10.2425 152.201 5.04092 157.963 5.10363Z" fill="#E8B134"/>
<path d="M175.27 11.7983C175.469 11.6656 175.661 11.5049 175.894 11.463C176.107 11.4211 176.32 11.47 176.526 11.5259C177.239 11.7214 177.939 11.9519 178.625 12.2173C179.01 12.364 179.401 12.5386 179.662 12.8668C179.998 13.2928 180.032 13.9074 179.881 14.4312C179.771 14.8014 179.586 15.1366 179.38 15.4648C179.195 14.6477 178.255 14.2846 177.452 13.9842C177.294 13.9284 177.136 13.7747 176.972 13.8096C176.828 13.8376 176.725 13.9633 176.601 14.0331C175.792 14.508 175.551 14.5499 174.7 14.8991C173.342 14.7385 172.415 14.4592 171.002 14.2077C169.739 13.9842 168.374 13.9633 167.187 13.4255C166.35 13.0484 165.725 12.0776 165.06 11.4002L165.162 11.058C165.162 11.058 168.47 11.1557 171.887 12.4897C172.031 12.5455 172.175 12.6014 172.313 12.6573C173.349 12.5246 174.405 12.3849 175.27 11.7983Z" fill="#E8B134"/>
<path d="M165.307 20.1344C161.536 21.3719 157.375 20.1387 148.764 25.0871C139.261 30.5359 133.567 38.1806 131.92 40.8383C129.374 44.9391 127.211 49.5629 127.211 49.5629L126.469 49.7268C125.831 48.9516 126.394 47.5744 126.744 46.8131C131.33 36.789 140.328 27.4855 149.116 23.4831C155.252 20.6863 159.702 20.8687 165.307 20.1344Z" fill="#FFD93B"/>
<path d="M127.214 49.5502L124.962 50.0504L122.496 48.3626L123.785 47.0838C123.909 46.9569 124.098 46.9113 124.261 46.9672L125.716 47.4532C125.814 47.4854 125.903 47.5514 125.959 47.6377L127.214 49.5502Z" fill="#776057"/>
<path opacity="0.82" d="M166.027 18.6674C164.822 19.2542 163.45 19.3587 162.117 19.4226C160.649 19.4881 159.184 19.5114 157.716 19.4906C157.315 19.482 156.846 19.4345 156.644 19.0876C156.511 18.8591 156.545 18.5579 156.657 18.3126C156.991 17.5834 157.882 17.3129 158.669 17.2252C160.73 17.0008 162.887 17.4566 164.821 16.7025C165.222 16.5453 165.609 16.3339 166.028 16.2461C168.229 15.7476 167.272 18.062 166.027 18.6674Z" fill="#FFF031"/>
<path opacity="0.82" d="M153.752 20.0663C152.944 20.4011 152.132 20.7274 151.324 21.0622C151.087 21.1603 150.828 21.26 150.582 21.1974C150.19 21.0974 149.992 20.5931 150.107 20.1972C150.222 19.8013 150.56 19.5053 150.928 19.3108C151.29 19.1146 151.687 18.9997 152.049 18.8035C152.457 18.5904 152.819 18.2792 153.243 18.0915C153.666 17.9038 154.189 17.8498 154.557 18.1308C155.543 18.901 154.456 19.7772 153.752 20.0663Z" fill="#FFF031"/>
<path d="M172.418 16.183C172.219 16.2598 171.999 16.183 171.793 16.1062C170.544 15.6453 169.213 15.4218 167.882 15.4497C167.676 15.4567 167.47 15.4637 167.278 15.3939C167.086 15.324 166.914 15.1494 166.914 14.9469C166.914 14.7374 167.086 14.5558 167.285 14.486C167.484 14.4162 167.697 14.4371 167.902 14.4581C169.247 14.5977 170.592 14.8212 171.91 15.1285C172.219 15.2053 173.049 15.9386 172.418 16.183Z" fill="#FFD93B"/>
<path d="M124.962 50.0501L122.733 48.5164C122.733 48.5164 123.234 47.9954 123.773 47.938C124.311 47.8807 124.578 48.2513 125.021 48.2058C125.467 48.1534 125.551 48.0164 125.703 48.0334C125.854 48.0503 126.403 48.5649 126.398 48.9169C126.393 49.2688 126.468 49.7274 126.468 49.7274L124.962 50.0501Z" fill="#3F332F"/>
<path opacity="0.82" d="M128.727 39.8603C129.698 37.1888 131.167 34.702 133.033 32.5756C133.311 32.2644 133.694 31.9294 134.079 32.0565C134.464 32.1835 134.576 32.7165 134.415 33.1006C134.255 33.4779 133.923 33.7536 133.619 34.0293C133.009 34.5875 132.484 35.232 132.061 35.9459C131.412 37.0489 131.016 38.3246 130.219 39.3396C130.029 39.5866 129.422 40.3834 129.202 40.4713C128.744 40.6573 128.527 40.422 128.727 39.8603Z" fill="#FFF031"/>
<path d="M170.398 72.2863C170.021 72.3701 169.65 72.1536 169.348 71.9092C168.772 71.4413 168.319 70.8267 167.894 70.2121C164.38 65.1627 161.972 59.3032 161.052 53.1923C160.133 47.0813 160.716 40.719 162.864 34.9363C163.07 34.3845 163.317 33.8049 163.797 33.4697C164.278 33.1414 165.067 33.2043 165.3 33.742C165.444 34.0703 165.348 34.4544 165.252 34.7966C164.792 36.4029 164.271 38.0092 164.03 39.6644C163.756 41.5151 163.825 43.3938 163.907 45.2585C164.065 48.7295 164.291 52.2215 165.053 55.6087C165.746 58.6677 166.871 61.6009 168.058 64.4992C168.649 65.9379 169.252 67.3696 169.829 68.8153C170.062 69.402 171.544 72.0419 170.398 72.2863Z" fill="#FFE932"/>
<path opacity="0.82" d="M158.281 28.4075C156.206 30.3945 153.643 32.0147 152.355 34.602C152.188 34.9379 152.032 35.3034 151.753 35.5525C151.468 35.8007 151.004 35.8891 150.738 35.6248C150.61 35.5005 150.552 35.3229 150.522 35.1491C150.412 34.5193 150.662 33.8921 150.925 33.3162C151.662 31.7149 152.568 30.1943 153.616 28.7862C154.459 27.6517 155.425 26.5774 156.654 25.8937C158.878 24.655 159.978 26.7893 158.281 28.4075Z" fill="#FFF031"/>
<path d="M176.746 18.1957C176.781 18.2655 176.829 18.3354 176.897 18.3703C176.986 18.4052 177.083 18.3703 177.172 18.3354C177.947 18.0071 178.729 17.6789 179.505 17.3506C179.937 17.1691 180.397 16.9665 180.671 16.5824C180.918 16.2402 180.994 15.8002 180.994 15.3812C181.008 14.2288 180.562 13.0764 179.766 12.2663C179.47 11.966 179.121 11.7076 178.716 11.6098C178.174 11.4771 177.604 11.6587 177.103 11.9101C176.383 12.2803 175.751 12.818 175.264 13.4745C174.653 14.2986 174.928 14.8783 175.367 15.6815C175.834 16.5126 176.293 17.3576 176.746 18.1957Z" fill="#937C69"/>
<path d="M173.453 12.8801C173.391 12.7963 173.329 12.7055 173.329 12.6008C173.329 12.503 173.391 12.4192 173.439 12.3424C173.803 11.7487 173.796 10.9945 174.05 10.345C174.523 9.12277 175.861 8.42438 177.151 8.35454C177.275 8.34756 177.405 8.34756 177.515 8.40343C177.673 8.48025 177.755 8.65485 177.831 8.82247C178.27 9.8072 179.821 12.1329 180.006 12.517C180.006 12.517 179.56 12.0141 179.031 12.1817C178.489 12.3563 177.968 12.5519 177.433 12.7405C176.294 13.1385 175.676 13.9347 174.976 14.8496C174.379 14.4166 173.899 13.4808 173.453 12.8801Z" fill="#776057"/>
<path opacity="0.34" d="M179.614 16.6299C179.456 16.7626 179.285 16.8883 179.106 16.9931C178.921 17.1049 178.701 17.2026 178.495 17.1328C178.255 17.056 178.125 16.7836 178.139 16.5322C178.152 16.2807 178.283 16.0503 178.42 15.8407C178.557 15.6312 178.729 15.4357 178.825 15.2052C178.948 14.9258 178.962 14.5976 178.873 14.3043C178.818 14.1227 178.722 13.9481 178.667 13.7665C178.296 12.5513 180.005 13.1379 180.3 13.8433C180.719 14.842 180.417 15.9525 179.614 16.6299Z" fill="white"/>
</g>
<g clip-path="url(#clip2_1_1594)">
<path d="M289.67 13.4536C289.752 14.0193 289.835 14.585 289.787 15.1576C289.745 15.7303 289.56 16.317 289.176 16.764C288.874 17.1132 288.469 17.3646 288.05 17.5741C287.556 17.8255 287.049 18.035 286.527 18.2026C286.376 18.2515 286.239 18.2795 286.109 18.2934C285.395 18.6496 284.462 19.1734 283.378 19.8928C280.324 21.9181 279.041 24.998 279.041 24.998L276.365 19.8648C276.365 19.8648 278.835 17.6579 282.197 16.1843C282.341 16.1214 282.479 16.0656 282.616 16.0027C283.281 15.1926 283.961 14.3754 284.201 13.3977C284.256 13.1742 284.29 12.9367 284.427 12.7482C284.551 12.5736 284.743 12.4618 284.928 12.3571C285.566 12.0009 289.594 12.9437 289.67 13.4536Z" fill="#E8B134"/>
<path d="M284.049 73.3194L283.239 75.4215L280.522 76.6717C280.522 76.6717 271.869 76.9231 263.182 59.8962C256.732 47.2413 261.048 31.6322 264.211 26.8762C268.273 20.7652 273.818 18.8027 277.07 18.9983C279.287 19.138 281.359 22.3017 280.735 26.7714C280.131 31.0805 276.281 33.5389 275.622 43.91C274.957 54.358 278.148 62.6828 279.438 65.3018C281.421 69.3455 284.049 73.3194 284.049 73.3194Z" fill="#F2BB40"/>
<path d="M284.049 73.3196L283.239 75.4218L280.522 76.6719L280.172 75.0027C280.138 74.8351 280.199 74.6675 280.337 74.5557L281.517 73.578C281.599 73.5082 281.702 73.4732 281.805 73.4662L284.049 73.3196Z" fill="#776057"/>
<path opacity="0.37" d="M285.016 18.2658C284.92 18.4543 284.707 18.5521 284.515 18.6429C283.301 19.1946 282.189 19.9629 281.242 20.8987C281.098 21.0454 280.954 21.192 280.769 21.2758C280.583 21.3596 280.343 21.3666 280.206 21.2269C280.062 21.0873 280.076 20.8498 280.172 20.6682C280.268 20.4867 280.439 20.354 280.604 20.2282C281.674 19.3972 282.8 18.622 283.959 17.9166C284.22 17.7559 285.311 17.6721 285.016 18.2658Z" fill="#FFD93B"/>
<path d="M283.232 75.4294L280.769 76.5469C280.769 76.5469 280.611 75.8834 280.858 75.4085C281.098 74.9336 281.551 74.8917 281.75 74.4936C281.949 74.1025 281.881 73.9628 281.977 73.8441C282.073 73.7254 282.793 73.5158 283.074 73.6835C283.363 73.8511 283.781 74.0117 283.781 74.0117L283.232 75.4294Z" fill="#3F332F"/>
<path d="M282.801 17.1328C282.623 17.2516 282.389 17.2236 282.177 17.1957C280.859 17.0211 279.507 17.1049 278.224 17.4332C278.025 17.482 277.826 17.5379 277.62 17.517C277.414 17.489 277.215 17.3633 277.167 17.1608C277.119 16.9583 277.25 16.7418 277.428 16.63C277.607 16.5183 277.819 16.4903 278.025 16.4624C279.37 16.2948 280.722 16.218 282.08 16.218C282.389 16.225 283.364 16.7557 282.801 17.1328Z" fill="#E29D39"/>
<path d="M286.555 13.0845C287.014 13.3624 287.643 18.3289 287.112 18.5981C286.694 18.8059 284.392 19.3842 283.929 19.4163C283.377 19.4495 282.831 19.4344 282.286 19.3699C282.129 19.3542 281.995 19.3208 281.863 19.2736C281.067 19.314 280.012 19.4159 278.724 19.6465C275.122 20.2984 272.716 22.7527 272.716 22.7527L272.32 16.5567C272.32 16.5567 275.458 15.471 279.121 15.4983C279.274 15.4991 279.426 15.4999 279.578 15.5076C280.51 15.007 281.456 14.5013 282.071 13.6515C282.209 13.4598 282.338 13.2385 282.537 13.1119C282.72 12.9972 282.938 12.9722 283.15 12.9463C283.881 12.8753 284.621 12.8409 285.362 12.8489C285.777 12.8524 286.204 12.8717 286.555 13.0845Z" fill="#FFC938"/>
<path d="M257.984 72.2796L256.399 73.9915L253.419 74.0275C253.419 74.0275 245.407 70.5012 244.283 50.0314C243.446 34.8246 253.637 21.4127 258.429 18.1381C264.583 13.924 270.439 14.4157 273.326 16.0316C275.296 17.1341 275.925 21.134 273.564 25.246C271.288 29.2009 266.787 29.9348 262.043 39.8067C257.259 49.7576 256.846 59.3015 256.972 62.4243C257.178 67.2451 257.984 72.2796 257.984 72.2796Z" fill="#FFC938"/>
<path d="M273.326 16.0318C273.519 16.1372 273.693 16.2752 273.857 16.433C273.967 16.7804 274.104 17.1742 274.104 17.1742L274.605 19.7091C274.605 19.7091 273.775 19.1167 269.808 20.859C265.966 22.5488 257.209 28.5185 253.912 39.7917C248.249 59.1627 255.372 71.9313 255.372 71.9313C255.372 71.9313 255.709 72.9114 255.69 74.0024L253.419 74.0277C253.419 74.0277 245.407 70.5015 244.283 50.0316C243.446 34.8248 253.637 21.413 258.428 18.1383C264.589 13.9252 270.439 14.4159 273.326 16.0318Z" fill="#F2BB40"/>
<path d="M258.429 18.1387C264.583 13.9245 270.44 14.4163 273.327 16.0321C273.532 16.1464 273.719 16.2933 273.895 16.4669L274.102 17.915C274.102 17.915 272.101 16.0246 265.441 17.8303C261.321 18.9508 256.027 24.3685 251.674 31.8131C248.637 37.006 247.019 45.7269 248.263 59.165C248.988 67.1654 254.099 71.868 254.099 71.868L254.268 74.0162L253.42 74.028C253.42 74.028 245.408 70.5018 244.284 50.0319C243.447 34.8251 253.638 21.4133 258.429 18.1387Z" fill="#E8B134"/>
<path d="M283.473 13.1455C283.583 12.936 283.679 12.6985 283.858 12.5449C284.022 12.4052 284.235 12.3493 284.441 12.2934C285.154 12.1188 285.882 11.9792 286.616 11.8814C287.021 11.8255 287.453 11.7906 287.831 11.9442C288.325 12.1538 288.647 12.6706 288.757 13.2083C288.839 13.5855 288.832 13.9766 288.798 14.3607C288.249 13.7321 287.254 13.8718 286.41 14.0045C286.246 14.0325 286.033 13.9766 285.909 14.0883C285.799 14.1861 285.765 14.3397 285.69 14.4655C285.202 15.2756 285.01 15.4293 284.427 16.1486C283.158 16.6724 282.211 16.8749 280.852 17.3429C279.637 17.7619 278.437 18.4114 277.133 18.5162C276.213 18.593 275.218 18.0413 274.313 17.7689L274.237 17.4197C274.237 17.4197 275.019 14.654 278.649 14.1582C278.8 14.1372 281.12 15.3594 281.271 15.3385C282.122 14.7169 282.986 14.0813 283.473 13.1455Z" fill="#C69B2E"/>
<path d="M272.924 26.2193C270.51 29.4063 266.378 30.8002 262.041 39.8136C257.258 49.7645 256.845 59.3085 256.97 62.4312C257.169 67.258 257.982 72.2934 257.982 72.2934L257.464 72.8538C256.504 72.5884 256.194 71.1324 256.056 70.3082C254.218 59.4517 256.433 46.6396 261.436 38.2939C264.938 32.4695 268.711 30.0501 272.924 26.2193Z" fill="#FFD93B"/>
<path d="M257.984 72.2796L256.4 73.9915L253.42 74.0275L253.769 72.2361C253.801 72.0574 253.932 71.921 254.099 71.8675L255.57 71.4234C255.672 71.3957 255.782 71.3975 255.88 71.4398L257.984 72.2796Z" fill="#776057"/>
<path d="M280.883 18.7706C280.723 18.9169 280.487 18.9182 280.272 18.9224C278.946 18.9358 277.618 19.2029 276.381 19.702C276.189 19.7802 275.997 19.8653 275.796 19.8646C275.595 19.8638 275.373 19.7683 275.297 19.5739C275.221 19.3795 275.324 19.1473 275.488 19.0158C275.646 18.8833 275.856 18.8219 276.058 18.7664C277.37 18.4193 278.705 18.1531 280.049 17.9659C280.36 17.926 281.392 18.3148 280.883 18.7706Z" fill="#FFD93B"/>
<path d="M256.399 73.9922L253.698 74.019C253.698 74.019 253.822 73.3031 254.234 72.9462C254.646 72.5893 255.074 72.7428 255.415 72.4462C255.756 72.1496 255.745 71.9857 255.88 71.9135C256.015 71.8413 256.756 71.948 256.95 72.2371C257.144 72.5261 257.463 72.8614 257.463 72.8614L256.399 73.9922Z" fill="#3F332F"/>
<path d="M289.662 12.8727C289.998 13.2987 290.032 13.9133 289.881 14.4371C289.73 14.9609 289.415 15.4218 289.113 15.8688C288.77 16.3646 288.426 16.8675 287.994 17.2795C287.562 17.6916 287.013 18.0128 286.423 18.0757C285.963 18.1246 285.496 18.0198 285.057 17.8801C284.529 17.7125 284.021 17.503 283.534 17.2446C283.397 17.1748 283.28 17.091 283.17 17.0072C282.409 16.7627 281.386 16.4834 280.103 16.2389C276.514 15.5685 273.426 17.0141 273.426 17.0141L275.162 11.0569C275.162 11.0569 278.47 11.1546 281.887 12.4886C282.031 12.5444 282.175 12.6003 282.313 12.6562C283.356 12.5235 284.412 12.3838 285.277 11.7972C285.476 11.6645 285.668 11.5038 285.901 11.4619C286.114 11.42 286.327 11.4689 286.533 11.5248C287.246 11.7203 287.946 11.9508 288.632 12.2162C289.01 12.3698 289.408 12.5444 289.662 12.8727Z" fill="#FFC938"/>
<path d="M237.213 49.55L234.961 50.0501L232.495 48.3623C232.495 48.3623 227.914 40.8312 238.476 23.2776C246.323 10.2359 262.198 5.04109 267.962 5.09702C275.372 5.1687 279.889 8.95018 281.35 11.9456C282.35 13.995 280.616 17.6612 276.373 19.6937C272.291 21.6519 268.197 19.6573 258.765 25.0741C249.261 30.5298 243.567 38.1745 241.921 40.8254C239.382 44.9279 237.213 49.55 237.213 49.55Z" fill="#FFC938"/>
<path d="M281.35 11.9519C281.448 12.1499 281.515 12.3614 281.563 12.5899C281.453 12.9367 281.35 13.3428 281.35 13.3428L280.34 15.7232C280.34 15.7232 279.991 14.7552 275.76 13.9079C271.664 13.0876 261.144 12.9659 252.112 20.3727C236.604 33.1058 235.28 47.7519 235.28 47.7519C235.28 47.7519 235.003 48.7552 234.38 49.6417L232.506 48.3568C232.506 48.3568 227.924 40.8257 238.486 23.272C246.333 10.2303 262.209 5.03552 267.973 5.09146C275.366 5.17328 279.89 8.95646 281.35 11.9519Z" fill="#F2BB40"/>
<path d="M267.963 5.10363C275.373 5.1753 279.89 8.95679 281.35 11.9522C281.452 12.1654 281.528 12.3939 281.573 12.6359L280.927 13.9487C280.927 13.9487 280.352 11.2294 273.876 8.88047C269.877 7.42912 262.496 8.85663 254.753 12.4837C249.35 15.0134 243.133 21.2924 236.612 33.101C232.732 40.1337 234.277 46.9634 234.277 46.9634L233.206 48.8311L232.508 48.3504C232.508 48.3504 227.926 40.8192 238.488 23.2656C246.324 10.2425 262.201 5.04092 267.963 5.10363Z" fill="#E8B134"/>
<path d="M285.27 11.7983C285.469 11.6656 285.661 11.5049 285.894 11.463C286.107 11.4211 286.32 11.47 286.526 11.5259C287.239 11.7214 287.939 11.9519 288.625 12.2173C289.01 12.364 289.401 12.5386 289.662 12.8668C289.998 13.2928 290.032 13.9074 289.881 14.4312C289.771 14.8014 289.586 15.1366 289.38 15.4648C289.195 14.6477 288.255 14.2846 287.452 13.9842C287.294 13.9284 287.136 13.7747 286.972 13.8096C286.828 13.8376 286.725 13.9633 286.601 14.0331C285.792 14.508 285.551 14.5499 284.7 14.8991C283.342 14.7385 282.415 14.4592 281.002 14.2077C279.739 13.9842 278.374 13.9633 277.187 13.4255C276.35 13.0484 275.725 12.0776 275.06 11.4002L275.162 11.058C275.162 11.058 278.47 11.1557 281.887 12.4897C282.031 12.5455 282.175 12.6014 282.313 12.6573C283.349 12.5246 284.405 12.3849 285.27 11.7983Z" fill="#E8B134"/>
<path d="M275.307 20.1344C271.536 21.3719 267.375 20.1387 258.764 25.0871C249.261 30.5359 243.567 38.1806 241.92 40.8383C239.374 44.9391 237.211 49.5629 237.211 49.5629L236.469 49.7268C235.831 48.9516 236.394 47.5744 236.744 46.8131C241.33 36.789 250.328 27.4855 259.116 23.4831C265.252 20.6863 269.702 20.8687 275.307 20.1344Z" fill="#FFD93B"/>
<path d="M237.214 49.5502L234.962 50.0504L232.496 48.3626L233.785 47.0838C233.909 46.9569 234.098 46.9113 234.261 46.9672L235.716 47.4532C235.814 47.4854 235.903 47.5514 235.959 47.6377L237.214 49.5502Z" fill="#776057"/>
<path opacity="0.82" d="M276.027 18.6674C274.822 19.2542 273.45 19.3587 272.117 19.4226C270.649 19.4881 269.184 19.5114 267.716 19.4906C267.315 19.482 266.846 19.4345 266.644 19.0876C266.511 18.8591 266.545 18.5579 266.657 18.3126C266.991 17.5834 267.882 17.3129 268.669 17.2252C270.73 17.0008 272.887 17.4566 274.821 16.7025C275.222 16.5453 275.609 16.3339 276.028 16.2461C278.229 15.7476 277.272 18.062 276.027 18.6674Z" fill="#FFF031"/>
<path opacity="0.82" d="M263.752 20.0663C262.944 20.4011 262.132 20.7274 261.324 21.0622C261.087 21.1603 260.828 21.26 260.582 21.1974C260.19 21.0974 259.992 20.5931 260.107 20.1972C260.222 19.8013 260.56 19.5053 260.928 19.3108C261.29 19.1146 261.687 18.9997 262.049 18.8035C262.457 18.5904 262.819 18.2792 263.243 18.0915C263.666 17.9038 264.189 17.8498 264.557 18.1308C265.543 18.901 264.456 19.7772 263.752 20.0663Z" fill="#FFF031"/>
<path d="M282.418 16.183C282.219 16.2598 281.999 16.183 281.793 16.1062C280.544 15.6453 279.213 15.4218 277.882 15.4497C277.676 15.4567 277.47 15.4637 277.278 15.3939C277.086 15.324 276.914 15.1494 276.914 14.9469C276.914 14.7374 277.086 14.5558 277.285 14.486C277.484 14.4162 277.697 14.4371 277.902 14.4581C279.247 14.5977 280.592 14.8212 281.91 15.1285C282.219 15.2053 283.049 15.9386 282.418 16.183Z" fill="#FFD93B"/>
<path d="M234.962 50.0501L232.733 48.5164C232.733 48.5164 233.234 47.9954 233.773 47.938C234.311 47.8807 234.578 48.2513 235.021 48.2058C235.467 48.1534 235.551 48.0164 235.703 48.0334C235.854 48.0503 236.403 48.5649 236.398 48.9169C236.393 49.2688 236.468 49.7274 236.468 49.7274L234.962 50.0501Z" fill="#3F332F"/>
<path opacity="0.82" d="M238.727 39.8603C239.698 37.1888 241.167 34.702 243.033 32.5756C243.311 32.2644 243.694 31.9294 244.079 32.0565C244.464 32.1835 244.576 32.7165 244.415 33.1006C244.255 33.4779 243.923 33.7536 243.619 34.0293C243.009 34.5875 242.484 35.232 242.061 35.9459C241.412 37.0489 241.016 38.3246 240.219 39.3396C240.029 39.5866 239.422 40.3834 239.202 40.4713C238.744 40.6573 238.527 40.422 238.727 39.8603Z" fill="#FFF031"/>
<path d="M280.398 72.2863C280.021 72.3701 279.65 72.1536 279.348 71.9092C278.772 71.4413 278.319 70.8267 277.894 70.2121C274.38 65.1627 271.972 59.3032 271.052 53.1923C270.133 47.0813 270.716 40.719 272.864 34.9363C273.07 34.3845 273.317 33.8049 273.797 33.4697C274.278 33.1414 275.067 33.2043 275.3 33.742C275.444 34.0703 275.348 34.4544 275.252 34.7966C274.792 36.4029 274.271 38.0092 274.03 39.6644C273.756 41.5151 273.825 43.3938 273.907 45.2585C274.065 48.7295 274.291 52.2215 275.053 55.6087C275.746 58.6677 276.871 61.6009 278.058 64.4992C278.649 65.9379 279.252 67.3696 279.829 68.8153C280.062 69.402 281.544 72.0419 280.398 72.2863Z" fill="#FFE932"/>
<path opacity="0.82" d="M268.281 28.4075C266.206 30.3945 263.643 32.0147 262.355 34.602C262.188 34.9379 262.032 35.3034 261.753 35.5525C261.468 35.8007 261.004 35.8891 260.738 35.6248C260.61 35.5005 260.552 35.3229 260.522 35.1491C260.412 34.5193 260.662 33.8921 260.925 33.3162C261.662 31.7149 262.568 30.1943 263.616 28.7862C264.459 27.6517 265.425 26.5774 266.654 25.8937C268.878 24.655 269.978 26.7893 268.281 28.4075Z" fill="#FFF031"/>
<path d="M286.746 18.1957C286.781 18.2655 286.829 18.3354 286.897 18.3703C286.986 18.4052 287.083 18.3703 287.172 18.3354C287.947 18.0071 288.729 17.6789 289.505 17.3506C289.937 17.1691 290.397 16.9665 290.671 16.5824C290.918 16.2402 290.994 15.8002 290.994 15.3812C291.008 14.2288 290.562 13.0764 289.766 12.2663C289.47 11.966 289.121 11.7076 288.716 11.6098C288.174 11.4771 287.604 11.6587 287.103 11.9101C286.383 12.2803 285.751 12.818 285.264 13.4745C284.653 14.2986 284.928 14.8783 285.367 15.6815C285.834 16.5126 286.293 17.3576 286.746 18.1957Z" fill="#937C69"/>
<path d="M283.453 12.8801C283.391 12.7963 283.329 12.7055 283.329 12.6008C283.329 12.503 283.391 12.4192 283.439 12.3424C283.803 11.7487 283.796 10.9945 284.05 10.345C284.523 9.12277 285.861 8.42438 287.151 8.35454C287.275 8.34756 287.405 8.34756 287.515 8.40343C287.673 8.48025 287.755 8.65485 287.831 8.82247C288.27 9.8072 289.821 12.1329 290.006 12.517C290.006 12.517 289.56 12.0141 289.031 12.1817C288.489 12.3563 287.968 12.5519 287.433 12.7405C286.294 13.1385 285.676 13.9347 284.976 14.8496C284.379 14.4166 283.899 13.4808 283.453 12.8801Z" fill="#776057"/>
<path opacity="0.34" d="M289.614 16.6299C289.456 16.7626 289.285 16.8883 289.106 16.9931C288.921 17.1049 288.701 17.2026 288.495 17.1328C288.255 17.056 288.125 16.7836 288.139 16.5322C288.152 16.2807 288.283 16.0503 288.42 15.8407C288.557 15.6312 288.729 15.4357 288.825 15.2052C288.948 14.9258 288.962 14.5976 288.873 14.3043C288.818 14.1227 288.722 13.9481 288.667 13.7665C288.296 12.5513 290.005 13.1379 290.3 13.8433C290.719 14.842 290.417 15.9525 289.614 16.6299Z" fill="white"/>
</g>
<g clip-path="url(#clip3_1_1594)">
<path d="M399.67 13.4536C399.752 14.0193 399.835 14.585 399.787 15.1576C399.745 15.7303 399.56 16.317 399.176 16.764C398.874 17.1132 398.469 17.3646 398.05 17.5741C397.556 17.8255 397.049 18.035 396.527 18.2026C396.376 18.2515 396.239 18.2795 396.109 18.2934C395.395 18.6496 394.462 19.1734 393.378 19.8928C390.324 21.9181 389.041 24.998 389.041 24.998L386.365 19.8648C386.365 19.8648 388.835 17.6579 392.197 16.1843C392.341 16.1214 392.479 16.0656 392.616 16.0027C393.281 15.1926 393.961 14.3754 394.201 13.3977C394.256 13.1742 394.29 12.9367 394.427 12.7482C394.551 12.5736 394.743 12.4618 394.928 12.3571C395.566 12.0009 399.594 12.9437 399.67 13.4536Z" fill="#E8B134"/>
<path d="M394.049 73.3194L393.239 75.4215L390.522 76.6717C390.522 76.6717 381.869 76.9231 373.182 59.8962C366.732 47.2413 371.048 31.6322 374.211 26.8762C378.273 20.7652 383.818 18.8027 387.07 18.9983C389.287 19.138 391.359 22.3017 390.735 26.7714C390.131 31.0805 386.281 33.5389 385.622 43.91C384.957 54.358 388.148 62.6828 389.438 65.3018C391.421 69.3455 394.049 73.3194 394.049 73.3194Z" fill="#F2BB40"/>
<path d="M394.049 73.3196L393.239 75.4218L390.522 76.6719L390.172 75.0027C390.138 74.8351 390.199 74.6675 390.337 74.5557L391.517 73.578C391.599 73.5082 391.702 73.4732 391.805 73.4662L394.049 73.3196Z" fill="#776057"/>
<path opacity="0.37" d="M395.016 18.2658C394.92 18.4543 394.707 18.5521 394.515 18.6429C393.301 19.1946 392.189 19.9629 391.242 20.8987C391.098 21.0454 390.954 21.192 390.769 21.2758C390.583 21.3596 390.343 21.3666 390.206 21.2269C390.062 21.0873 390.076 20.8498 390.172 20.6682C390.268 20.4867 390.439 20.354 390.604 20.2282C391.674 19.3972 392.8 18.622 393.959 17.9166C394.22 17.7559 395.311 17.6721 395.016 18.2658Z" fill="#FFD93B"/>
<path d="M393.232 75.4294L390.769 76.5469C390.769 76.5469 390.611 75.8834 390.858 75.4085C391.098 74.9336 391.551 74.8917 391.75 74.4936C391.949 74.1025 391.881 73.9628 391.977 73.8441C392.073 73.7254 392.793 73.5158 393.074 73.6835C393.363 73.8511 393.781 74.0117 393.781 74.0117L393.232 75.4294Z" fill="#3F332F"/>
<path d="M392.801 17.1328C392.623 17.2516 392.389 17.2236 392.177 17.1957C390.859 17.0211 389.507 17.1049 388.224 17.4332C388.025 17.482 387.826 17.5379 387.62 17.517C387.414 17.489 387.215 17.3633 387.167 17.1608C387.119 16.9583 387.25 16.7418 387.428 16.63C387.607 16.5183 387.819 16.4903 388.025 16.4624C389.37 16.2948 390.722 16.218 392.08 16.218C392.389 16.225 393.364 16.7557 392.801 17.1328Z" fill="#E29D39"/>
<path d="M396.555 13.0845C397.014 13.3624 397.643 18.3289 397.112 18.5981C396.694 18.8059 394.392 19.3842 393.929 19.4163C393.377 19.4495 392.831 19.4344 392.286 19.3699C392.129 19.3542 391.995 19.3208 391.863 19.2736C391.067 19.314 390.012 19.4159 388.724 19.6465C385.122 20.2984 382.716 22.7527 382.716 22.7527L382.32 16.5567C382.32 16.5567 385.458 15.471 389.121 15.4983C389.274 15.4991 389.426 15.4999 389.578 15.5076C390.51 15.007 391.456 14.5013 392.071 13.6515C392.209 13.4598 392.338 13.2385 392.537 13.1119C392.72 12.9972 392.938 12.9722 393.15 12.9463C393.881 12.8753 394.621 12.8409 395.362 12.8489C395.777 12.8524 396.204 12.8717 396.555 13.0845Z" fill="#FFC938"/>
<path d="M367.984 72.2796L366.399 73.9915L363.419 74.0275C363.419 74.0275 355.407 70.5012 354.283 50.0314C353.446 34.8246 363.637 21.4127 368.429 18.1381C374.583 13.924 380.439 14.4157 383.326 16.0316C385.296 17.1341 385.925 21.134 383.564 25.246C381.288 29.2009 376.787 29.9348 372.043 39.8067C367.259 49.7576 366.846 59.3015 366.972 62.4243C367.178 67.2451 367.984 72.2796 367.984 72.2796Z" fill="#FFC938"/>
<path d="M383.326 16.0318C383.519 16.1372 383.693 16.2752 383.857 16.433C383.967 16.7804 384.104 17.1742 384.104 17.1742L384.605 19.7091C384.605 19.7091 383.775 19.1167 379.808 20.859C375.966 22.5488 367.209 28.5185 363.912 39.7917C358.249 59.1627 365.372 71.9313 365.372 71.9313C365.372 71.9313 365.709 72.9114 365.69 74.0024L363.419 74.0277C363.419 74.0277 355.407 70.5015 354.283 50.0316C353.446 34.8248 363.637 21.413 368.428 18.1383C374.589 13.9252 380.439 14.4159 383.326 16.0318Z" fill="#F2BB40"/>
<path d="M368.429 18.1387C374.583 13.9245 380.44 14.4163 383.327 16.0321C383.532 16.1464 383.719 16.2933 383.895 16.4669L384.102 17.915C384.102 17.915 382.101 16.0246 375.441 17.8303C371.321 18.9508 366.027 24.3685 361.674 31.8131C358.637 37.006 357.019 45.7269 358.263 59.165C358.988 67.1654 364.099 71.868 364.099 71.868L364.268 74.0162L363.42 74.028C363.42 74.028 355.408 70.5018 354.284 50.0319C353.447 34.8251 363.638 21.4133 368.429 18.1387Z" fill="#E8B134"/>
<path d="M393.473 13.1455C393.583 12.936 393.679 12.6985 393.858 12.5449C394.022 12.4052 394.235 12.3493 394.441 12.2934C395.154 12.1188 395.882 11.9792 396.616 11.8814C397.021 11.8255 397.453 11.7906 397.831 11.9442C398.325 12.1538 398.647 12.6706 398.757 13.2083C398.839 13.5855 398.832 13.9766 398.798 14.3607C398.249 13.7321 397.254 13.8718 396.41 14.0045C396.246 14.0325 396.033 13.9766 395.909 14.0883C395.799 14.1861 395.765 14.3397 395.69 14.4655C395.202 15.2756 395.01 15.4293 394.427 16.1486C393.158 16.6724 392.211 16.8749 390.852 17.3429C389.637 17.7619 388.437 18.4114 387.133 18.5162C386.213 18.593 385.218 18.0413 384.313 17.7689L384.237 17.4197C384.237 17.4197 385.019 14.654 388.649 14.1582C388.8 14.1372 391.12 15.3594 391.271 15.3385C392.122 14.7169 392.986 14.0813 393.473 13.1455Z" fill="#C69B2E"/>
<path d="M382.924 26.2193C380.51 29.4063 376.378 30.8002 372.041 39.8136C367.258 49.7645 366.845 59.3085 366.97 62.4312C367.169 67.258 367.982 72.2934 367.982 72.2934L367.464 72.8538C366.504 72.5884 366.194 71.1324 366.056 70.3082C364.218 59.4517 366.433 46.6396 371.436 38.2939C374.938 32.4695 378.711 30.0501 382.924 26.2193Z" fill="#FFD93B"/>
<path d="M367.984 72.2796L366.4 73.9915L363.42 74.0275L363.769 72.2361C363.801 72.0574 363.932 71.921 364.099 71.8675L365.57 71.4234C365.672 71.3957 365.782 71.3975 365.88 71.4398L367.984 72.2796Z" fill="#776057"/>
<path d="M390.883 18.7706C390.723 18.9169 390.487 18.9182 390.272 18.9224C388.946 18.9358 387.618 19.2029 386.381 19.702C386.189 19.7802 385.997 19.8653 385.796 19.8646C385.595 19.8638 385.373 19.7683 385.297 19.5739C385.221 19.3795 385.324 19.1473 385.488 19.0158C385.646 18.8833 385.856 18.8219 386.058 18.7664C387.37 18.4193 388.705 18.1531 390.049 17.9659C390.36 17.926 391.392 18.3148 390.883 18.7706Z" fill="#FFD93B"/>
<path d="M366.399 73.9922L363.698 74.019C363.698 74.019 363.822 73.3031 364.234 72.9462C364.646 72.5893 365.074 72.7428 365.415 72.4462C365.756 72.1496 365.745 71.9857 365.88 71.9135C366.015 71.8413 366.756 71.948 366.95 72.2371C367.144 72.5261 367.463 72.8614 367.463 72.8614L366.399 73.9922Z" fill="#3F332F"/>
<path d="M399.662 12.8727C399.998 13.2987 400.032 13.9133 399.881 14.4371C399.73 14.9609 399.415 15.4218 399.113 15.8688C398.77 16.3646 398.426 16.8675 397.994 17.2795C397.562 17.6916 397.013 18.0128 396.423 18.0757C395.963 18.1246 395.496 18.0198 395.057 17.8801C394.529 17.7125 394.021 17.503 393.534 17.2446C393.397 17.1748 393.28 17.091 393.17 17.0072C392.409 16.7627 391.386 16.4834 390.103 16.2389C386.514 15.5685 383.426 17.0141 383.426 17.0141L385.162 11.0569C385.162 11.0569 388.47 11.1546 391.887 12.4886C392.031 12.5444 392.175 12.6003 392.313 12.6562C393.356 12.5235 394.412 12.3838 395.277 11.7972C395.476 11.6645 395.668 11.5038 395.901 11.4619C396.114 11.42 396.327 11.4689 396.533 11.5248C397.246 11.7203 397.946 11.9508 398.632 12.2162C399.01 12.3698 399.408 12.5444 399.662 12.8727Z" fill="#FFC938"/>
<path d="M347.213 49.55L344.961 50.0501L342.495 48.3623C342.495 48.3623 337.914 40.8312 348.476 23.2776C356.323 10.2359 372.198 5.04109 377.962 5.09702C385.372 5.1687 389.889 8.95018 391.35 11.9456C392.35 13.995 390.616 17.6612 386.373 19.6937C382.291 21.6519 378.197 19.6573 368.765 25.0741C359.261 30.5298 353.567 38.1745 351.921 40.8254C349.382 44.9279 347.213 49.55 347.213 49.55Z" fill="#FFC938"/>
<path d="M391.35 11.9519C391.448 12.1499 391.515 12.3614 391.563 12.5899C391.453 12.9367 391.35 13.3428 391.35 13.3428L390.34 15.7232C390.34 15.7232 389.991 14.7552 385.76 13.9079C381.664 13.0876 371.144 12.9659 362.112 20.3727C346.604 33.1058 345.28 47.7519 345.28 47.7519C345.28 47.7519 345.003 48.7552 344.38 49.6417L342.506 48.3568C342.506 48.3568 337.924 40.8257 348.486 23.272C356.333 10.2303 372.209 5.03552 377.973 5.09146C385.366 5.17328 389.89 8.95646 391.35 11.9519Z" fill="#F2BB40"/>
<path d="M377.963 5.10363C385.373 5.1753 389.89 8.95679 391.35 11.9522C391.452 12.1654 391.528 12.3939 391.573 12.6359L390.927 13.9487C390.927 13.9487 390.352 11.2294 383.876 8.88047C379.877 7.42912 372.496 8.85663 364.753 12.4837C359.35 15.0134 353.133 21.2924 346.612 33.101C342.732 40.1337 344.277 46.9634 344.277 46.9634L343.206 48.8311L342.508 48.3504C342.508 48.3504 337.926 40.8192 348.488 23.2656C356.324 10.2425 372.201 5.04092 377.963 5.10363Z" fill="#E8B134"/>
<path d="M395.27 11.7983C395.469 11.6656 395.661 11.5049 395.894 11.463C396.107 11.4211 396.32 11.47 396.526 11.5259C397.239 11.7214 397.939 11.9519 398.625 12.2173C399.01 12.364 399.401 12.5386 399.662 12.8668C399.998 13.2928 400.032 13.9074 399.881 14.4312C399.771 14.8014 399.586 15.1366 399.38 15.4648C399.195 14.6477 398.255 14.2846 397.452 13.9842C397.294 13.9284 397.136 13.7747 396.972 13.8096C396.828 13.8376 396.725 13.9633 396.601 14.0331C395.792 14.508 395.551 14.5499 394.7 14.8991C393.342 14.7385 392.415 14.4592 391.002 14.2077C389.739 13.9842 388.374 13.9633 387.187 13.4255C386.35 13.0484 385.725 12.0776 385.06 11.4002L385.162 11.058C385.162 11.058 388.47 11.1557 391.887 12.4897C392.031 12.5455 392.175 12.6014 392.313 12.6573C393.349 12.5246 394.405 12.3849 395.27 11.7983Z" fill="#E8B134"/>
<path d="M385.307 20.1344C381.536 21.3719 377.375 20.1387 368.764 25.0871C359.261 30.5359 353.567 38.1806 351.92 40.8383C349.374 44.9391 347.211 49.5629 347.211 49.5629L346.469 49.7268C345.831 48.9516 346.394 47.5744 346.744 46.8131C351.33 36.789 360.328 27.4855 369.116 23.4831C375.252 20.6863 379.702 20.8687 385.307 20.1344Z" fill="#FFD93B"/>
<path d="M347.214 49.5502L344.962 50.0504L342.496 48.3626L343.785 47.0838C343.909 46.9569 344.098 46.9113 344.261 46.9672L345.716 47.4532C345.814 47.4854 345.903 47.5514 345.959 47.6377L347.214 49.5502Z" fill="#776057"/>
<path opacity="0.82" d="M386.027 18.6674C384.822 19.2542 383.45 19.3587 382.117 19.4226C380.649 19.4881 379.184 19.5114 377.716 19.4906C377.315 19.482 376.846 19.4345 376.644 19.0876C376.511 18.8591 376.545 18.5579 376.657 18.3126C376.991 17.5834 377.882 17.3129 378.669 17.2252C380.73 17.0008 382.887 17.4566 384.821 16.7025C385.222 16.5453 385.609 16.3339 386.028 16.2461C388.229 15.7476 387.272 18.062 386.027 18.6674Z" fill="#FFF031"/>
<path opacity="0.82" d="M373.752 20.0663C372.944 20.4011 372.132 20.7274 371.324 21.0622C371.087 21.1603 370.828 21.26 370.582 21.1974C370.19 21.0974 369.992 20.5931 370.107 20.1972C370.222 19.8013 370.56 19.5053 370.928 19.3108C371.29 19.1146 371.687 18.9997 372.049 18.8035C372.457 18.5904 372.819 18.2792 373.243 18.0915C373.666 17.9038 374.189 17.8498 374.557 18.1308C375.543 18.901 374.456 19.7772 373.752 20.0663Z" fill="#FFF031"/>
<path d="M392.418 16.183C392.219 16.2598 391.999 16.183 391.793 16.1062C390.544 15.6453 389.213 15.4218 387.882 15.4497C387.676 15.4567 387.47 15.4637 387.278 15.3939C387.086 15.324 386.914 15.1494 386.914 14.9469C386.914 14.7374 387.086 14.5558 387.285 14.486C387.484 14.4162 387.697 14.4371 387.902 14.4581C389.247 14.5977 390.592 14.8212 391.91 15.1285C392.219 15.2053 393.049 15.9386 392.418 16.183Z" fill="#FFD93B"/>
<path d="M344.962 50.0501L342.733 48.5164C342.733 48.5164 343.234 47.9954 343.773 47.938C344.311 47.8807 344.578 48.2513 345.021 48.2058C345.467 48.1534 345.551 48.0164 345.703 48.0334C345.854 48.0503 346.403 48.5649 346.398 48.9169C346.393 49.2688 346.468 49.7274 346.468 49.7274L344.962 50.0501Z" fill="#3F332F"/>
<path opacity="0.82" d="M348.727 39.8603C349.698 37.1888 351.167 34.702 353.033 32.5756C353.311 32.2644 353.694 31.9294 354.079 32.0565C354.464 32.1835 354.576 32.7165 354.415 33.1006C354.255 33.4779 353.923 33.7536 353.619 34.0293C353.009 34.5875 352.484 35.232 352.061 35.9459C351.412 37.0489 351.016 38.3246 350.219 39.3396C350.029 39.5866 349.422 40.3834 349.202 40.4713C348.744 40.6573 348.527 40.422 348.727 39.8603Z" fill="#FFF031"/>
<path d="M390.398 72.2863C390.021 72.3701 389.65 72.1536 389.348 71.9092C388.772 71.4413 388.319 70.8267 387.894 70.2121C384.38 65.1627 381.972 59.3032 381.052 53.1923C380.133 47.0813 380.716 40.719 382.864 34.9363C383.07 34.3845 383.317 33.8049 383.797 33.4697C384.278 33.1414 385.067 33.2043 385.3 33.742C385.444 34.0703 385.348 34.4544 385.252 34.7966C384.792 36.4029 384.271 38.0092 384.03 39.6644C383.756 41.5151 383.825 43.3938 383.907 45.2585C384.065 48.7295 384.291 52.2215 385.053 55.6087C385.746 58.6677 386.871 61.6009 388.058 64.4992C388.649 65.9379 389.252 67.3696 389.829 68.8153C390.062 69.402 391.544 72.0419 390.398 72.2863Z" fill="#FFE932"/>
<path opacity="0.82" d="M378.281 28.4075C376.206 30.3945 373.643 32.0147 372.355 34.602C372.188 34.9379 372.032 35.3034 371.753 35.5525C371.468 35.8007 371.004 35.8891 370.738 35.6248C370.61 35.5005 370.552 35.3229 370.522 35.1491C370.412 34.5193 370.662 33.8921 370.925 33.3162C371.662 31.7149 372.568 30.1943 373.616 28.7862C374.459 27.6517 375.425 26.5774 376.654 25.8937C378.878 24.655 379.978 26.7893 378.281 28.4075Z" fill="#FFF031"/>
<path d="M396.746 18.1957C396.781 18.2655 396.829 18.3354 396.897 18.3703C396.986 18.4052 397.083 18.3703 397.172 18.3354C397.947 18.0071 398.729 17.6789 399.505 17.3506C399.937 17.1691 400.397 16.9665 400.671 16.5824C400.918 16.2402 400.994 15.8002 400.994 15.3812C401.008 14.2288 400.562 13.0764 399.766 12.2663C399.47 11.966 399.121 11.7076 398.716 11.6098C398.174 11.4771 397.604 11.6587 397.103 11.9101C396.383 12.2803 395.751 12.818 395.264 13.4745C394.653 14.2986 394.928 14.8783 395.367 15.6815C395.834 16.5126 396.293 17.3576 396.746 18.1957Z" fill="#937C69"/>
<path d="M393.453 12.8801C393.391 12.7963 393.329 12.7055 393.329 12.6008C393.329 12.503 393.391 12.4192 393.439 12.3424C393.803 11.7487 393.796 10.9945 394.05 10.345C394.523 9.12277 395.861 8.42438 397.151 8.35454C397.275 8.34756 397.405 8.34756 397.515 8.40343C397.673 8.48025 397.755 8.65485 397.831 8.82247C398.27 9.8072 399.821 12.1329 400.006 12.517C400.006 12.517 399.56 12.0141 399.031 12.1817C398.489 12.3563 397.968 12.5519 397.433 12.7405C396.294 13.1385 395.676 13.9347 394.976 14.8496C394.379 14.4166 393.899 13.4808 393.453 12.8801Z" fill="#776057"/>
<path opacity="0.34" d="M399.614 16.6299C399.456 16.7626 399.285 16.8883 399.106 16.9931C398.921 17.1049 398.701 17.2026 398.495 17.1328C398.255 17.056 398.125 16.7836 398.139 16.5322C398.152 16.2807 398.283 16.0503 398.42 15.8407C398.557 15.6312 398.729 15.4357 398.825 15.2052C398.948 14.9258 398.962 14.5976 398.873 14.3043C398.818 14.1227 398.722 13.9481 398.667 13.7665C398.296 12.5513 400.005 13.1379 400.3 13.8433C400.719 14.842 400.417 15.9525 399.614 16.6299Z" fill="white"/>
</g>
<g clip-path="url(#clip4_1_1594)">
<path d="M509.67 13.4536C509.752 14.0193 509.835 14.585 509.787 15.1576C509.745 15.7303 509.56 16.317 509.176 16.764C508.874 17.1132 508.469 17.3646 508.05 17.5741C507.556 17.8255 507.049 18.035 506.527 18.2026C506.376 18.2515 506.239 18.2795 506.109 18.2934C505.395 18.6496 504.462 19.1734 503.378 19.8928C500.324 21.9181 499.041 24.998 499.041 24.998L496.365 19.8648C496.365 19.8648 498.835 17.6579 502.197 16.1843C502.341 16.1214 502.479 16.0656 502.616 16.0027C503.281 15.1926 503.961 14.3754 504.201 13.3977C504.256 13.1742 504.29 12.9367 504.427 12.7482C504.551 12.5736 504.743 12.4618 504.928 12.3571C505.566 12.0009 509.594 12.9437 509.67 13.4536Z" fill="#E8B134"/>
<path d="M504.049 73.3194L503.239 75.4215L500.522 76.6717C500.522 76.6717 491.869 76.9231 483.182 59.8962C476.732 47.2413 481.048 31.6322 484.211 26.8762C488.273 20.7652 493.818 18.8027 497.07 18.9983C499.287 19.138 501.359 22.3017 500.735 26.7714C500.131 31.0805 496.281 33.5389 495.622 43.91C494.957 54.358 498.148 62.6828 499.438 65.3018C501.421 69.3455 504.049 73.3194 504.049 73.3194Z" fill="#F2BB40"/>
<path d="M504.049 73.3196L503.239 75.4218L500.522 76.6719L500.172 75.0027C500.138 74.8351 500.199 74.6675 500.337 74.5557L501.517 73.578C501.599 73.5082 501.702 73.4732 501.805 73.4662L504.049 73.3196Z" fill="#776057"/>
<path opacity="0.37" d="M505.016 18.2658C504.92 18.4543 504.707 18.5521 504.515 18.6429C503.301 19.1946 502.189 19.9629 501.242 20.8987C501.098 21.0454 500.954 21.192 500.769 21.2758C500.583 21.3596 500.343 21.3666 500.206 21.2269C500.062 21.0873 500.076 20.8498 500.172 20.6682C500.268 20.4867 500.439 20.354 500.604 20.2282C501.674 19.3972 502.8 18.622 503.959 17.9166C504.22 17.7559 505.311 17.6721 505.016 18.2658Z" fill="#FFD93B"/>
<path d="M503.232 75.4294L500.769 76.5469C500.769 76.5469 500.611 75.8834 500.858 75.4085C501.098 74.9336 501.551 74.8917 501.75 74.4936C501.949 74.1025 501.881 73.9628 501.977 73.8441C502.073 73.7254 502.793 73.5158 503.074 73.6835C503.363 73.8511 503.781 74.0117 503.781 74.0117L503.232 75.4294Z" fill="#3F332F"/>
<path d="M502.801 17.1328C502.623 17.2516 502.389 17.2236 502.177 17.1957C500.859 17.0211 499.507 17.1049 498.224 17.4332C498.025 17.482 497.826 17.5379 497.62 17.517C497.414 17.489 497.215 17.3633 497.167 17.1608C497.119 16.9583 497.25 16.7418 497.428 16.63C497.607 16.5183 497.819 16.4903 498.025 16.4624C499.37 16.2948 500.722 16.218 502.08 16.218C502.389 16.225 503.364 16.7557 502.801 17.1328Z" fill="#E29D39"/>
<path d="M506.555 13.0845C507.014 13.3624 507.643 18.3289 507.112 18.5981C506.694 18.8059 504.392 19.3842 503.929 19.4163C503.377 19.4495 502.831 19.4344 502.286 19.3699C502.129 19.3542 501.995 19.3208 501.863 19.2736C501.067 19.314 500.012 19.4159 498.724 19.6465C495.122 20.2984 492.716 22.7527 492.716 22.7527L492.32 16.5567C492.32 16.5567 495.458 15.471 499.121 15.4983C499.274 15.4991 499.426 15.4999 499.578 15.5076C500.51 15.007 501.456 14.5013 502.071 13.6515C502.209 13.4598 502.338 13.2385 502.537 13.1119C502.72 12.9972 502.938 12.9722 503.15 12.9463C503.881 12.8753 504.621 12.8409 505.362 12.8489C505.777 12.8524 506.204 12.8717 506.555 13.0845Z" fill="#FFC938"/>
<path d="M477.984 72.2796L476.399 73.9915L473.419 74.0275C473.419 74.0275 465.407 70.5012 464.283 50.0314C463.446 34.8246 473.637 21.4127 478.429 18.1381C484.583 13.924 490.439 14.4157 493.326 16.0316C495.296 17.1341 495.925 21.134 493.564 25.246C491.288 29.2009 486.787 29.9348 482.043 39.8067C477.259 49.7576 476.846 59.3015 476.972 62.4243C477.178 67.2451 477.984 72.2796 477.984 72.2796Z" fill="#FFC938"/>
<path d="M493.326 16.0318C493.519 16.1372 493.693 16.2752 493.857 16.433C493.967 16.7804 494.104 17.1742 494.104 17.1742L494.605 19.7091C494.605 19.7091 493.775 19.1167 489.808 20.859C485.966 22.5488 477.209 28.5185 473.912 39.7917C468.249 59.1627 475.372 71.9313 475.372 71.9313C475.372 71.9313 475.709 72.9114 475.69 74.0024L473.419 74.0277C473.419 74.0277 465.407 70.5015 464.283 50.0316C463.446 34.8248 473.637 21.413 478.428 18.1383C484.589 13.9252 490.439 14.4159 493.326 16.0318Z" fill="#F2BB40"/>
<path d="M478.429 18.1387C484.583 13.9245 490.44 14.4163 493.327 16.0321C493.532 16.1464 493.719 16.2933 493.895 16.4669L494.102 17.915C494.102 17.915 492.101 16.0246 485.441 17.8303C481.321 18.9508 476.027 24.3685 471.674 31.8131C468.637 37.006 467.019 45.7269 468.263 59.165C468.988 67.1654 474.099 71.868 474.099 71.868L474.268 74.0162L473.42 74.028C473.42 74.028 465.408 70.5018 464.284 50.0319C463.447 34.8251 473.638 21.4133 478.429 18.1387Z" fill="#E8B134"/>
<path d="M503.473 13.1455C503.583 12.936 503.679 12.6985 503.858 12.5449C504.022 12.4052 504.235 12.3493 504.441 12.2934C505.154 12.1188 505.882 11.9792 506.616 11.8814C507.021 11.8255 507.453 11.7906 507.831 11.9442C508.325 12.1538 508.647 12.6706 508.757 13.2083C508.839 13.5855 508.832 13.9766 508.798 14.3607C508.249 13.7321 507.254 13.8718 506.41 14.0045C506.246 14.0325 506.033 13.9766 505.909 14.0883C505.799 14.1861 505.765 14.3397 505.69 14.4655C505.202 15.2756 505.01 15.4293 504.427 16.1486C503.158 16.6724 502.211 16.8749 500.852 17.3429C499.637 17.7619 498.437 18.4114 497.133 18.5162C496.213 18.593 495.218 18.0413 494.313 17.7689L494.237 17.4197C494.237 17.4197 495.019 14.654 498.649 14.1582C498.8 14.1372 501.12 15.3594 501.271 15.3385C502.122 14.7169 502.986 14.0813 503.473 13.1455Z" fill="#C69B2E"/>
<path d="M492.924 26.2193C490.51 29.4063 486.378 30.8002 482.041 39.8136C477.258 49.7645 476.845 59.3085 476.97 62.4312C477.169 67.258 477.982 72.2934 477.982 72.2934L477.464 72.8538C476.504 72.5884 476.194 71.1324 476.056 70.3082C474.218 59.4517 476.433 46.6396 481.436 38.2939C484.938 32.4695 488.711 30.0501 492.924 26.2193Z" fill="#FFD93B"/>
<path d="M477.984 72.2796L476.4 73.9915L473.42 74.0275L473.769 72.2361C473.801 72.0574 473.932 71.921 474.099 71.8675L475.57 71.4234C475.672 71.3957 475.782 71.3975 475.88 71.4398L477.984 72.2796Z" fill="#776057"/>
<path d="M500.883 18.7706C500.723 18.9169 500.487 18.9182 500.272 18.9224C498.946 18.9358 497.618 19.2029 496.381 19.702C496.189 19.7802 495.997 19.8653 495.796 19.8646C495.595 19.8638 495.373 19.7683 495.297 19.5739C495.221 19.3795 495.324 19.1473 495.488 19.0158C495.646 18.8833 495.856 18.8219 496.058 18.7664C497.37 18.4193 498.705 18.1531 500.049 17.9659C500.36 17.926 501.392 18.3148 500.883 18.7706Z" fill="#FFD93B"/>
<path d="M476.399 73.9922L473.698 74.019C473.698 74.019 473.822 73.3031 474.234 72.9462C474.646 72.5893 475.074 72.7428 475.415 72.4462C475.756 72.1496 475.745 71.9857 475.88 71.9135C476.015 71.8413 476.756 71.948 476.95 72.2371C477.144 72.5261 477.463 72.8614 477.463 72.8614L476.399 73.9922Z" fill="#3F332F"/>
<path d="M509.662 12.8727C509.998 13.2987 510.032 13.9133 509.881 14.4371C509.73 14.9609 509.415 15.4218 509.113 15.8688C508.77 16.3646 508.426 16.8675 507.994 17.2795C507.562 17.6916 507.013 18.0128 506.423 18.0757C505.963 18.1246 505.496 18.0198 505.057 17.8801C504.529 17.7125 504.021 17.503 503.534 17.2446C503.397 17.1748 503.28 17.091 503.17 17.0072C502.409 16.7627 501.386 16.4834 500.103 16.2389C496.514 15.5685 493.426 17.0141 493.426 17.0141L495.162 11.0569C495.162 11.0569 498.47 11.1546 501.887 12.4886C502.031 12.5444 502.175 12.6003 502.313 12.6562C503.356 12.5235 504.412 12.3838 505.277 11.7972C505.476 11.6645 505.668 11.5038 505.901 11.4619C506.114 11.42 506.327 11.4689 506.533 11.5248C507.246 11.7203 507.946 11.9508 508.632 12.2162C509.01 12.3698 509.408 12.5444 509.662 12.8727Z" fill="#FFC938"/>
<path d="M457.213 49.55L454.961 50.0501L452.495 48.3623C452.495 48.3623 447.914 40.8312 458.476 23.2776C466.323 10.2359 482.198 5.04109 487.962 5.09702C495.372 5.1687 499.889 8.95018 501.35 11.9456C502.35 13.995 500.616 17.6612 496.373 19.6937C492.291 21.6519 488.197 19.6573 478.765 25.0741C469.261 30.5298 463.567 38.1745 461.921 40.8254C459.382 44.9279 457.213 49.55 457.213 49.55Z" fill="#FFC938"/>
<path d="M501.35 11.9519C501.448 12.1499 501.515 12.3614 501.563 12.5899C501.453 12.9367 501.35 13.3428 501.35 13.3428L500.34 15.7232C500.34 15.7232 499.991 14.7552 495.76 13.9079C491.664 13.0876 481.144 12.9659 472.112 20.3727C456.604 33.1058 455.28 47.7519 455.28 47.7519C455.28 47.7519 455.003 48.7552 454.38 49.6417L452.506 48.3568C452.506 48.3568 447.924 40.8257 458.486 23.272C466.333 10.2303 482.209 5.03552 487.973 5.09146C495.366 5.17328 499.89 8.95646 501.35 11.9519Z" fill="#F2BB40"/>
<path d="M487.963 5.10363C495.373 5.1753 499.89 8.95679 501.35 11.9522C501.452 12.1654 501.528 12.3939 501.573 12.6359L500.927 13.9487C500.927 13.9487 500.352 11.2294 493.876 8.88047C489.877 7.42912 482.496 8.85663 474.753 12.4837C469.35 15.0134 463.133 21.2924 456.612 33.101C452.732 40.1337 454.277 46.9634 454.277 46.9634L453.206 48.8311L452.508 48.3504C452.508 48.3504 447.926 40.8192 458.488 23.2656C466.324 10.2425 482.201 5.04092 487.963 5.10363Z" fill="#E8B134"/>
<path d="M505.27 11.7983C505.469 11.6656 505.661 11.5049 505.894 11.463C506.107 11.4211 506.32 11.47 506.526 11.5259C507.239 11.7214 507.939 11.9519 508.625 12.2173C509.01 12.364 509.401 12.5386 509.662 12.8668C509.998 13.2928 510.032 13.9074 509.881 14.4312C509.771 14.8014 509.586 15.1366 509.38 15.4648C509.195 14.6477 508.255 14.2846 507.452 13.9842C507.294 13.9284 507.136 13.7747 506.972 13.8096C506.828 13.8376 506.725 13.9633 506.601 14.0331C505.792 14.508 505.551 14.5499 504.7 14.8991C503.342 14.7385 502.415 14.4592 501.002 14.2077C499.739 13.9842 498.374 13.9633 497.187 13.4255C496.35 13.0484 495.725 12.0776 495.06 11.4002L495.162 11.058C495.162 11.058 498.47 11.1557 501.887 12.4897C502.031 12.5455 502.175 12.6014 502.313 12.6573C503.349 12.5246 504.405 12.3849 505.27 11.7983Z" fill="#E8B134"/>
<path d="M495.307 20.1344C491.536 21.3719 487.375 20.1387 478.764 25.0871C469.261 30.5359 463.567 38.1806 461.92 40.8383C459.374 44.9391 457.211 49.5629 457.211 49.5629L456.469 49.7268C455.831 48.9516 456.394 47.5744 456.744 46.8131C461.33 36.789 470.328 27.4855 479.116 23.4831C485.252 20.6863 489.702 20.8687 495.307 20.1344Z" fill="#FFD93B"/>
<path d="M457.214 49.5502L454.962 50.0504L452.496 48.3626L453.785 47.0838C453.909 46.9569 454.098 46.9113 454.261 46.9672L455.716 47.4532C455.814 47.4854 455.903 47.5514 455.959 47.6377L457.214 49.5502Z" fill="#776057"/>
<path opacity="0.82" d="M496.027 18.6674C494.822 19.2542 493.45 19.3587 492.117 19.4226C490.649 19.4881 489.184 19.5114 487.716 19.4906C487.315 19.482 486.846 19.4345 486.644 19.0876C486.511 18.8591 486.545 18.5579 486.657 18.3126C486.991 17.5834 487.882 17.3129 488.669 17.2252C490.73 17.0008 492.887 17.4566 494.821 16.7025C495.222 16.5453 495.609 16.3339 496.028 16.2461C498.229 15.7476 497.272 18.062 496.027 18.6674Z" fill="#FFF031"/>
<path opacity="0.82" d="M483.752 20.0663C482.944 20.4011 482.132 20.7274 481.324 21.0622C481.087 21.1603 480.828 21.26 480.582 21.1974C480.19 21.0974 479.992 20.5931 480.107 20.1972C480.222 19.8013 480.56 19.5053 480.928 19.3108C481.29 19.1146 481.687 18.9997 482.049 18.8035C482.457 18.5904 482.819 18.2792 483.243 18.0915C483.666 17.9038 484.189 17.8498 484.557 18.1308C485.543 18.901 484.456 19.7772 483.752 20.0663Z" fill="#FFF031"/>
<path d="M502.418 16.183C502.219 16.2598 501.999 16.183 501.793 16.1062C500.544 15.6453 499.213 15.4218 497.882 15.4497C497.676 15.4567 497.47 15.4637 497.278 15.3939C497.086 15.324 496.914 15.1494 496.914 14.9469C496.914 14.7374 497.086 14.5558 497.285 14.486C497.484 14.4162 497.697 14.4371 497.902 14.4581C499.247 14.5977 500.592 14.8212 501.91 15.1285C502.219 15.2053 503.049 15.9386 502.418 16.183Z" fill="#FFD93B"/>
<path d="M454.962 50.0501L452.733 48.5164C452.733 48.5164 453.234 47.9954 453.773 47.938C454.311 47.8807 454.578 48.2513 455.021 48.2058C455.467 48.1534 455.551 48.0164 455.703 48.0334C455.854 48.0503 456.403 48.5649 456.398 48.9169C456.393 49.2688 456.468 49.7274 456.468 49.7274L454.962 50.0501Z" fill="#3F332F"/>
<path opacity="0.82" d="M458.727 39.8603C459.698 37.1888 461.167 34.702 463.033 32.5756C463.311 32.2644 463.694 31.9294 464.079 32.0565C464.464 32.1835 464.576 32.7165 464.415 33.1006C464.255 33.4779 463.923 33.7536 463.619 34.0293C463.009 34.5875 462.484 35.232 462.061 35.9459C461.412 37.0489 461.016 38.3246 460.219 39.3396C460.029 39.5866 459.422 40.3834 459.202 40.4713C458.744 40.6573 458.527 40.422 458.727 39.8603Z" fill="#FFF031"/>
<path d="M500.398 72.2863C500.021 72.3701 499.65 72.1536 499.348 71.9092C498.772 71.4413 498.319 70.8267 497.894 70.2121C494.38 65.1627 491.972 59.3032 491.052 53.1923C490.133 47.0813 490.716 40.719 492.864 34.9363C493.07 34.3845 493.317 33.8049 493.797 33.4697C494.278 33.1414 495.067 33.2043 495.3 33.742C495.444 34.0703 495.348 34.4544 495.252 34.7966C494.792 36.4029 494.271 38.0092 494.03 39.6644C493.756 41.5151 493.825 43.3938 493.907 45.2585C494.065 48.7295 494.291 52.2215 495.053 55.6087C495.746 58.6677 496.871 61.6009 498.058 64.4992C498.649 65.9379 499.252 67.3696 499.829 68.8153C500.062 69.402 501.544 72.0419 500.398 72.2863Z" fill="#FFE932"/>
<path opacity="0.82" d="M488.281 28.4075C486.206 30.3945 483.643 32.0147 482.355 34.602C482.188 34.9379 482.032 35.3034 481.753 35.5525C481.468 35.8007 481.004 35.8891 480.738 35.6248C480.61 35.5005 480.552 35.3229 480.522 35.1491C480.412 34.5193 480.662 33.8921 480.925 33.3162C481.662 31.7149 482.568 30.1943 483.616 28.7862C484.459 27.6517 485.425 26.5774 486.654 25.8937C488.878 24.655 489.978 26.7893 488.281 28.4075Z" fill="#FFF031"/>
<path d="M506.746 18.1957C506.781 18.2655 506.829 18.3354 506.897 18.3703C506.986 18.4052 507.083 18.3703 507.172 18.3354C507.947 18.0071 508.729 17.6789 509.505 17.3506C509.937 17.1691 510.397 16.9665 510.671 16.5824C510.918 16.2402 510.994 15.8002 510.994 15.3812C511.008 14.2288 510.562 13.0764 509.766 12.2663C509.47 11.966 509.121 11.7076 508.716 11.6098C508.174 11.4771 507.604 11.6587 507.103 11.9101C506.383 12.2803 505.751 12.818 505.264 13.4745C504.653 14.2986 504.928 14.8783 505.367 15.6815C505.834 16.5126 506.293 17.3576 506.746 18.1957Z" fill="#937C69"/>
<path d="M503.453 12.8801C503.391 12.7963 503.329 12.7055 503.329 12.6008C503.329 12.503 503.391 12.4192 503.439 12.3424C503.803 11.7487 503.796 10.9945 504.05 10.345C504.523 9.12277 505.861 8.42438 507.151 8.35454C507.275 8.34756 507.405 8.34756 507.515 8.40343C507.673 8.48025 507.755 8.65485 507.831 8.82247C508.27 9.8072 509.821 12.1329 510.006 12.517C510.006 12.517 509.56 12.0141 509.031 12.1817C508.489 12.3563 507.968 12.5519 507.433 12.7405C506.294 13.1385 505.676 13.9347 504.976 14.8496C504.379 14.4166 503.899 13.4808 503.453 12.8801Z" fill="#776057"/>
<path opacity="0.34" d="M509.614 16.6299C509.456 16.7626 509.285 16.8883 509.106 16.9931C508.921 17.1049 508.701 17.2026 508.495 17.1328C508.255 17.056 508.125 16.7836 508.139 16.5322C508.152 16.2807 508.283 16.0503 508.42 15.8407C508.557 15.6312 508.729 15.4357 508.825 15.2052C508.948 14.9258 508.962 14.5976 508.873 14.3043C508.818 14.1227 508.722 13.9481 508.667 13.7665C508.296 12.5513 510.005 13.1379 510.3 13.8433C510.719 14.842 510.417 15.9525 509.614 16.6299Z" fill="white"/>
</g>
<g clip-path="url(#clip5_1_1594)">
<path d="M619.67 13.4536C619.752 14.0193 619.835 14.585 619.787 15.1576C619.745 15.7303 619.56 16.317 619.176 16.764C618.874 17.1132 618.469 17.3646 618.05 17.5741C617.556 17.8255 617.049 18.035 616.527 18.2026C616.376 18.2515 616.239 18.2795 616.109 18.2934C615.395 18.6496 614.462 19.1734 613.378 19.8928C610.324 21.9181 609.041 24.998 609.041 24.998L606.365 19.8648C606.365 19.8648 608.835 17.6579 612.197 16.1843C612.341 16.1214 612.479 16.0656 612.616 16.0027C613.281 15.1926 613.961 14.3754 614.201 13.3977C614.256 13.1742 614.29 12.9367 614.427 12.7482C614.551 12.5736 614.743 12.4618 614.928 12.3571C615.566 12.0009 619.594 12.9437 619.67 13.4536Z" fill="#E8B134"/>
<path d="M614.049 73.3194L613.239 75.4215L610.522 76.6717C610.522 76.6717 601.869 76.9231 593.182 59.8962C586.732 47.2413 591.048 31.6322 594.211 26.8762C598.273 20.7652 603.818 18.8027 607.07 18.9983C609.287 19.138 611.359 22.3017 610.735 26.7714C610.131 31.0805 606.281 33.5389 605.622 43.91C604.957 54.358 608.148 62.6828 609.438 65.3018C611.421 69.3455 614.049 73.3194 614.049 73.3194Z" fill="#F2BB40"/>
<path d="M614.049 73.3196L613.239 75.4218L610.522 76.6719L610.172 75.0027C610.138 74.8351 610.199 74.6675 610.337 74.5557L611.517 73.578C611.599 73.5082 611.702 73.4732 611.805 73.4662L614.049 73.3196Z" fill="#776057"/>
<path opacity="0.37" d="M615.016 18.2658C614.92 18.4543 614.707 18.5521 614.515 18.6429C613.301 19.1946 612.189 19.9629 611.242 20.8987C611.098 21.0454 610.954 21.192 610.769 21.2758C610.583 21.3596 610.343 21.3666 610.206 21.2269C610.062 21.0873 610.076 20.8498 610.172 20.6682C610.268 20.4867 610.439 20.354 610.604 20.2282C611.674 19.3972 612.8 18.622 613.959 17.9166C614.22 17.7559 615.311 17.6721 615.016 18.2658Z" fill="#FFD93B"/>
<path d="M613.232 75.4294L610.769 76.5469C610.769 76.5469 610.611 75.8834 610.858 75.4085C611.098 74.9336 611.551 74.8917 611.75 74.4936C611.949 74.1025 611.881 73.9628 611.977 73.8441C612.073 73.7254 612.793 73.5158 613.074 73.6835C613.363 73.8511 613.781 74.0117 613.781 74.0117L613.232 75.4294Z" fill="#3F332F"/>
<path d="M612.801 17.1328C612.623 17.2516 612.389 17.2236 612.177 17.1957C610.859 17.0211 609.507 17.1049 608.224 17.4332C608.025 17.482 607.826 17.5379 607.62 17.517C607.414 17.489 607.215 17.3633 607.167 17.1608C607.119 16.9583 607.25 16.7418 607.428 16.63C607.607 16.5183 607.819 16.4903 608.025 16.4624C609.37 16.2948 610.722 16.218 612.08 16.218C612.389 16.225 613.364 16.7557 612.801 17.1328Z" fill="#E29D39"/>
<path d="M616.555 13.0845C617.014 13.3624 617.643 18.3289 617.112 18.5981C616.694 18.8059 614.392 19.3842 613.929 19.4163C613.377 19.4495 612.831 19.4344 612.286 19.3699C612.129 19.3542 611.995 19.3208 611.863 19.2736C611.067 19.314 610.012 19.4159 608.724 19.6465C605.122 20.2984 602.716 22.7527 602.716 22.7527L602.32 16.5567C602.32 16.5567 605.458 15.471 609.121 15.4983C609.274 15.4991 609.426 15.4999 609.578 15.5076C610.51 15.007 611.456 14.5013 612.071 13.6515C612.209 13.4598 612.338 13.2385 612.537 13.1119C612.72 12.9972 612.938 12.9722 613.15 12.9463C613.881 12.8753 614.621 12.8409 615.362 12.8489C615.777 12.8524 616.204 12.8717 616.555 13.0845Z" fill="#FFC938"/>
<path d="M587.984 72.2796L586.399 73.9915L583.419 74.0275C583.419 74.0275 575.407 70.5012 574.283 50.0314C573.446 34.8246 583.637 21.4127 588.429 18.1381C594.583 13.924 600.439 14.4157 603.326 16.0316C605.296 17.1341 605.925 21.134 603.564 25.246C601.288 29.2009 596.787 29.9348 592.043 39.8067C587.259 49.7576 586.846 59.3015 586.972 62.4243C587.178 67.2451 587.984 72.2796 587.984 72.2796Z" fill="#FFC938"/>
<path d="M603.326 16.0318C603.519 16.1372 603.693 16.2752 603.857 16.433C603.967 16.7804 604.104 17.1742 604.104 17.1742L604.605 19.7091C604.605 19.7091 603.775 19.1167 599.808 20.859C595.966 22.5488 587.209 28.5185 583.912 39.7917C578.249 59.1627 585.372 71.9313 585.372 71.9313C585.372 71.9313 585.709 72.9114 585.69 74.0024L583.419 74.0277C583.419 74.0277 575.407 70.5015 574.283 50.0316C573.446 34.8248 583.637 21.413 588.428 18.1383C594.589 13.9252 600.439 14.4159 603.326 16.0318Z" fill="#F2BB40"/>
<path d="M588.429 18.1387C594.583 13.9245 600.44 14.4163 603.327 16.0321C603.532 16.1464 603.719 16.2933 603.895 16.4669L604.102 17.915C604.102 17.915 602.101 16.0246 595.441 17.8303C591.321 18.9508 586.027 24.3685 581.674 31.8131C578.637 37.006 577.019 45.7269 578.263 59.165C578.988 67.1654 584.099 71.868 584.099 71.868L584.268 74.0162L583.42 74.028C583.42 74.028 575.408 70.5018 574.284 50.0319C573.447 34.8251 583.638 21.4133 588.429 18.1387Z" fill="#E8B134"/>
<path d="M613.473 13.1455C613.583 12.936 613.679 12.6985 613.858 12.5449C614.022 12.4052 614.235 12.3493 614.441 12.2934C615.154 12.1188 615.882 11.9792 616.616 11.8814C617.021 11.8255 617.453 11.7906 617.831 11.9442C618.325 12.1538 618.647 12.6706 618.757 13.2083C618.839 13.5855 618.832 13.9766 618.798 14.3607C618.249 13.7321 617.254 13.8718 616.41 14.0045C616.246 14.0325 616.033 13.9766 615.909 14.0883C615.799 14.1861 615.765 14.3397 615.69 14.4655C615.202 15.2756 615.01 15.4293 614.427 16.1486C613.158 16.6724 612.211 16.8749 610.852 17.3429C609.637 17.7619 608.437 18.4114 607.133 18.5162C606.213 18.593 605.218 18.0413 604.313 17.7689L604.237 17.4197C604.237 17.4197 605.019 14.654 608.649 14.1582C608.8 14.1372 611.12 15.3594 611.271 15.3385C612.122 14.7169 612.986 14.0813 613.473 13.1455Z" fill="#C69B2E"/>
<path d="M602.924 26.2193C600.51 29.4063 596.378 30.8002 592.041 39.8136C587.258 49.7645 586.845 59.3085 586.97 62.4312C587.169 67.258 587.982 72.2934 587.982 72.2934L587.464 72.8538C586.504 72.5884 586.194 71.1324 586.056 70.3082C584.218 59.4517 586.433 46.6396 591.436 38.2939C594.938 32.4695 598.711 30.0501 602.924 26.2193Z" fill="#FFD93B"/>
<path d="M587.984 72.2796L586.4 73.9915L583.42 74.0275L583.769 72.2361C583.801 72.0574 583.932 71.921 584.099 71.8675L585.57 71.4234C585.672 71.3957 585.782 71.3975 585.88 71.4398L587.984 72.2796Z" fill="#776057"/>
<path d="M610.883 18.7706C610.723 18.9169 610.487 18.9182 610.272 18.9224C608.946 18.9358 607.618 19.2029 606.381 19.702C606.189 19.7802 605.997 19.8653 605.796 19.8646C605.595 19.8638 605.373 19.7683 605.297 19.5739C605.221 19.3795 605.324 19.1473 605.488 19.0158C605.646 18.8833 605.856 18.8219 606.058 18.7664C607.37 18.4193 608.705 18.1531 610.049 17.9659C610.36 17.926 611.392 18.3148 610.883 18.7706Z" fill="#FFD93B"/>
<path d="M586.399 73.9922L583.698 74.019C583.698 74.019 583.822 73.3031 584.234 72.9462C584.646 72.5893 585.074 72.7428 585.415 72.4462C585.756 72.1496 585.745 71.9857 585.88 71.9135C586.015 71.8413 586.756 71.948 586.95 72.2371C587.144 72.5261 587.463 72.8614 587.463 72.8614L586.399 73.9922Z" fill="#3F332F"/>
<path d="M619.662 12.8727C619.998 13.2987 620.032 13.9133 619.881 14.4371C619.73 14.9609 619.415 15.4218 619.113 15.8688C618.77 16.3646 618.426 16.8675 617.994 17.2795C617.562 17.6916 617.013 18.0128 616.423 18.0757C615.963 18.1246 615.496 18.0198 615.057 17.8801C614.529 17.7125 614.021 17.503 613.534 17.2446C613.397 17.1748 613.28 17.091 613.17 17.0072C612.409 16.7627 611.386 16.4834 610.103 16.2389C606.514 15.5685 603.426 17.0141 603.426 17.0141L605.162 11.0569C605.162 11.0569 608.47 11.1546 611.887 12.4886C612.031 12.5444 612.175 12.6003 612.313 12.6562C613.356 12.5235 614.412 12.3838 615.277 11.7972C615.476 11.6645 615.668 11.5038 615.901 11.4619C616.114 11.42 616.327 11.4689 616.533 11.5248C617.246 11.7203 617.946 11.9508 618.632 12.2162C619.01 12.3698 619.408 12.5444 619.662 12.8727Z" fill="#FFC938"/>
<path d="M567.213 49.55L564.961 50.0501L562.495 48.3623C562.495 48.3623 557.914 40.8312 568.476 23.2776C576.323 10.2359 592.198 5.04109 597.962 5.09702C605.372 5.1687 609.889 8.95018 611.35 11.9456C612.35 13.995 610.616 17.6612 606.373 19.6937C602.291 21.6519 598.197 19.6573 588.765 25.0741C579.261 30.5298 573.567 38.1745 571.921 40.8254C569.382 44.9279 567.213 49.55 567.213 49.55Z" fill="#FFC938"/>
<path d="M611.35 11.9519C611.448 12.1499 611.515 12.3614 611.563 12.5899C611.453 12.9367 611.35 13.3428 611.35 13.3428L610.34 15.7232C610.34 15.7232 609.991 14.7552 605.76 13.9079C601.664 13.0876 591.144 12.9659 582.112 20.3727C566.604 33.1058 565.28 47.7519 565.28 47.7519C565.28 47.7519 565.003 48.7552 564.38 49.6417L562.506 48.3568C562.506 48.3568 557.924 40.8257 568.486 23.272C576.333 10.2303 592.209 5.03552 597.973 5.09146C605.366 5.17328 609.89 8.95646 611.35 11.9519Z" fill="#F2BB40"/>
<path d="M597.963 5.10363C605.373 5.1753 609.89 8.95679 611.35 11.9522C611.452 12.1654 611.528 12.3939 611.573 12.6359L610.927 13.9487C610.927 13.9487 610.352 11.2294 603.876 8.88047C599.877 7.42912 592.496 8.85663 584.753 12.4837C579.35 15.0134 573.133 21.2924 566.612 33.101C562.732 40.1337 564.277 46.9634 564.277 46.9634L563.206 48.8311L562.508 48.3504C562.508 48.3504 557.926 40.8192 568.488 23.2656C576.324 10.2425 592.201 5.04092 597.963 5.10363Z" fill="#E8B134"/>
<path d="M615.27 11.7983C615.469 11.6656 615.661 11.5049 615.894 11.463C616.107 11.4211 616.32 11.47 616.526 11.5259C617.239 11.7214 617.939 11.9519 618.625 12.2173C619.01 12.364 619.401 12.5386 619.662 12.8668C619.998 13.2928 620.032 13.9074 619.881 14.4312C619.771 14.8014 619.586 15.1366 619.38 15.4648C619.195 14.6477 618.255 14.2846 617.452 13.9842C617.294 13.9284 617.136 13.7747 616.972 13.8096C616.828 13.8376 616.725 13.9633 616.601 14.0331C615.792 14.508 615.551 14.5499 614.7 14.8991C613.342 14.7385 612.415 14.4592 611.002 14.2077C609.739 13.9842 608.374 13.9633 607.187 13.4255C606.35 13.0484 605.725 12.0776 605.06 11.4002L605.162 11.058C605.162 11.058 608.47 11.1557 611.887 12.4897C612.031 12.5455 612.175 12.6014 612.313 12.6573C613.349 12.5246 614.405 12.3849 615.27 11.7983Z" fill="#E8B134"/>
<path d="M605.307 20.1344C601.536 21.3719 597.375 20.1387 588.764 25.0871C579.261 30.5359 573.567 38.1806 571.92 40.8383C569.374 44.9391 567.211 49.5629 567.211 49.5629L566.469 49.7268C565.831 48.9516 566.394 47.5744 566.744 46.8131C571.33 36.789 580.328 27.4855 589.116 23.4831C595.252 20.6863 599.702 20.8687 605.307 20.1344Z" fill="#FFD93B"/>
<path d="M567.214 49.5502L564.962 50.0504L562.496 48.3626L563.785 47.0838C563.909 46.9569 564.098 46.9113 564.261 46.9672L565.716 47.4532C565.814 47.4854 565.903 47.5514 565.959 47.6377L567.214 49.5502Z" fill="#776057"/>
<path opacity="0.82" d="M606.027 18.6674C604.822 19.2542 603.45 19.3587 602.117 19.4226C600.649 19.4881 599.184 19.5114 597.716 19.4906C597.315 19.482 596.846 19.4345 596.644 19.0876C596.511 18.8591 596.545 18.5579 596.657 18.3126C596.991 17.5834 597.882 17.3129 598.669 17.2252C600.73 17.0008 602.887 17.4566 604.821 16.7025C605.222 16.5453 605.609 16.3339 606.028 16.2461C608.229 15.7476 607.272 18.062 606.027 18.6674Z" fill="#FFF031"/>
<path opacity="0.82" d="M593.752 20.0663C592.944 20.4011 592.132 20.7274 591.324 21.0622C591.087 21.1603 590.828 21.26 590.582 21.1974C590.19 21.0974 589.992 20.5931 590.107 20.1972C590.222 19.8013 590.56 19.5053 590.928 19.3108C591.29 19.1146 591.687 18.9997 592.049 18.8035C592.457 18.5904 592.819 18.2792 593.243 18.0915C593.666 17.9038 594.189 17.8498 594.557 18.1308C595.543 18.901 594.456 19.7772 593.752 20.0663Z" fill="#FFF031"/>
<path d="M612.418 16.183C612.219 16.2598 611.999 16.183 611.793 16.1062C610.544 15.6453 609.213 15.4218 607.882 15.4497C607.676 15.4567 607.47 15.4637 607.278 15.3939C607.086 15.324 606.914 15.1494 606.914 14.9469C606.914 14.7374 607.086 14.5558 607.285 14.486C607.484 14.4162 607.697 14.4371 607.902 14.4581C609.247 14.5977 610.592 14.8212 611.91 15.1285C612.219 15.2053 613.049 15.9386 612.418 16.183Z" fill="#FFD93B"/>
<path d="M564.962 50.0501L562.733 48.5164C562.733 48.5164 563.234 47.9954 563.773 47.938C564.311 47.8807 564.578 48.2513 565.021 48.2058C565.467 48.1534 565.551 48.0164 565.703 48.0334C565.854 48.0503 566.403 48.5649 566.398 48.9169C566.393 49.2688 566.468 49.7274 566.468 49.7274L564.962 50.0501Z" fill="#3F332F"/>
<path opacity="0.82" d="M568.727 39.8603C569.698 37.1888 571.167 34.702 573.033 32.5756C573.311 32.2644 573.694 31.9294 574.079 32.0565C574.464 32.1835 574.576 32.7165 574.415 33.1006C574.255 33.4779 573.923 33.7536 573.619 34.0293C573.009 34.5875 572.484 35.232 572.061 35.9459C571.412 37.0489 571.016 38.3246 570.219 39.3396C570.029 39.5866 569.422 40.3834 569.202 40.4713C568.744 40.6573 568.527 40.422 568.727 39.8603Z" fill="#FFF031"/>
<path d="M610.398 72.2863C610.021 72.3701 609.65 72.1536 609.348 71.9092C608.772 71.4413 608.319 70.8267 607.894 70.2121C604.38 65.1627 601.972 59.3032 601.052 53.1923C600.133 47.0813 600.716 40.719 602.864 34.9363C603.07 34.3845 603.317 33.8049 603.797 33.4697C604.278 33.1414 605.067 33.2043 605.3 33.742C605.444 34.0703 605.348 34.4544 605.252 34.7966C604.792 36.4029 604.271 38.0092 604.03 39.6644C603.756 41.5151 603.825 43.3938 603.907 45.2585C604.065 48.7295 604.291 52.2215 605.053 55.6087C605.746 58.6677 606.871 61.6009 608.058 64.4992C608.649 65.9379 609.252 67.3696 609.829 68.8153C610.062 69.402 611.544 72.0419 610.398 72.2863Z" fill="#FFE932"/>
<path opacity="0.82" d="M598.281 28.4075C596.206 30.3945 593.643 32.0147 592.355 34.602C592.188 34.9379 592.032 35.3034 591.753 35.5525C591.468 35.8007 591.004 35.8891 590.738 35.6248C590.61 35.5005 590.552 35.3229 590.522 35.1491C590.412 34.5193 590.662 33.8921 590.925 33.3162C591.662 31.7149 592.568 30.1943 593.616 28.7862C594.459 27.6517 595.425 26.5774 596.654 25.8937C598.878 24.655 599.978 26.7893 598.281 28.4075Z" fill="#FFF031"/>
<path d="M616.746 18.1957C616.781 18.2655 616.829 18.3354 616.897 18.3703C616.986 18.4052 617.083 18.3703 617.172 18.3354C617.947 18.0071 618.729 17.6789 619.505 17.3506C619.937 17.1691 620.397 16.9665 620.671 16.5824C620.918 16.2402 620.994 15.8002 620.994 15.3812C621.008 14.2288 620.562 13.0764 619.766 12.2663C619.47 11.966 619.121 11.7076 618.716 11.6098C618.174 11.4771 617.604 11.6587 617.103 11.9101C616.383 12.2803 615.751 12.818 615.264 13.4745C614.653 14.2986 614.928 14.8783 615.367 15.6815C615.834 16.5126 616.293 17.3576 616.746 18.1957Z" fill="#937C69"/>
<path d="M613.453 12.8801C613.391 12.7963 613.329 12.7055 613.329 12.6008C613.329 12.503 613.391 12.4192 613.439 12.3424C613.803 11.7487 613.796 10.9945 614.05 10.345C614.523 9.12277 615.861 8.42438 617.151 8.35454C617.275 8.34756 617.405 8.34756 617.515 8.40343C617.673 8.48025 617.755 8.65485 617.831 8.82247C618.27 9.8072 619.821 12.1329 620.006 12.517C620.006 12.517 619.56 12.0141 619.031 12.1817C618.489 12.3563 617.968 12.5519 617.433 12.7405C616.294 13.1385 615.676 13.9347 614.976 14.8496C614.379 14.4166 613.899 13.4808 613.453 12.8801Z" fill="#776057"/>
<path opacity="0.34" d="M619.614 16.6299C619.456 16.7626 619.285 16.8883 619.106 16.9931C618.921 17.1049 618.701 17.2026 618.495 17.1328C618.255 17.056 618.125 16.7836 618.139 16.5322C618.152 16.2807 618.283 16.0503 618.42 15.8407C618.557 15.6312 618.729 15.4357 618.825 15.2052C618.948 14.9258 618.962 14.5976 618.873 14.3043C618.818 14.1227 618.722 13.9481 618.667 13.7665C618.296 12.5513 620.005 13.1379 620.3 13.8433C620.719 14.842 620.417 15.9525 619.614 16.6299Z" fill="white"/>
</g>
<defs>
<clipPath id="clip0_1_1594">
<rect width="73" height="61" fill="white" transform="matrix(0 -1 -1 0 71 77)"/>
</clipPath>
<clipPath id="clip1_1_1594">
<rect width="73" height="61" fill="white" transform="matrix(0 -1 -1 0 181 77)"/>
</clipPath>
<clipPath id="clip2_1_1594">
<rect width="73" height="61" fill="white" transform="matrix(0 -1 -1 0 291 77)"/>
</clipPath>
<clipPath id="clip3_1_1594">
<rect width="73" height="61" fill="white" transform="matrix(0 -1 -1 0 401 77)"/>
</clipPath>
<clipPath id="clip4_1_1594">
<rect width="73" height="61" fill="white" transform="matrix(0 -1 -1 0 511 77)"/>
</clipPath>
<clipPath id="clip5_1_1594">
<rect width="73" height="61" fill="white" transform="matrix(0 -1 -1 0 621 77)"/>
</clipPath>
</defs>
</svg>
