<svg width="161" height="30" viewBox="0 0 161 30" fill="none" xmlns="http://www.w3.org/2000/svg">
<path d="M53 1H113V-1H53V1ZM117 5V25H119V5H117ZM113 29H53V31H113V29ZM49 25V5H47V25H49ZM53 29C50.7909 29 49 27.2091 49 25H47C47 28.3137 49.6863 31 53 31V29ZM117 25C117 27.2091 115.209 29 113 29V31C116.314 31 119 28.3137 119 25H117ZM113 1C115.209 1 117 2.79086 117 5H119C119 1.68629 116.314 -1 113 -1V1ZM53 -1C49.6863 -1 47 1.68629 47 5H49C49 2.79086 50.7909 1 53 1V-1Z" fill="#2F2F2F"/>
<path d="M134.702 22.14C133.595 22.14 132.602 21.9067 131.722 21.44C130.842 20.9733 130.155 20.3267 129.662 19.5C129.169 18.66 128.922 17.7133 128.922 16.66C128.922 15.6067 129.169 14.6667 129.662 13.84C130.155 13.0133 130.835 12.3667 131.702 11.9C132.582 11.4333 133.582 11.2 134.702 11.2C135.755 11.2 136.675 11.4133 137.462 11.84C138.262 12.2667 138.862 12.88 139.262 13.68L137.342 14.8C137.035 14.3067 136.649 13.94 136.182 13.7C135.729 13.4467 135.229 13.32 134.682 13.32C133.749 13.32 132.975 13.6267 132.362 14.24C131.749 14.84 131.442 15.6467 131.442 16.66C131.442 17.6733 131.742 18.4867 132.342 19.1C132.955 19.7 133.735 20 134.682 20C135.229 20 135.729 19.88 136.182 19.64C136.649 19.3867 137.035 19.0133 137.342 18.52L139.262 19.64C138.849 20.44 138.242 21.06 137.442 21.5C136.655 21.9267 135.742 22.14 134.702 22.14ZM154.903 11.2C156.25 11.2 157.317 11.5933 158.103 12.38C158.89 13.1533 159.283 14.32 159.283 15.88V22H156.783V16.2C156.783 15.2667 156.577 14.5667 156.163 14.1C155.75 13.62 155.157 13.38 154.383 13.38C153.543 13.38 152.87 13.66 152.363 14.22C151.857 14.7667 151.603 15.5533 151.603 16.58V22H149.103V16.2C149.103 15.2667 148.897 14.5667 148.483 14.1C148.07 13.62 147.477 13.38 146.703 13.38C145.85 13.38 145.17 13.6533 144.663 14.2C144.17 14.7467 143.923 15.54 143.923 16.58V22H141.423V11.32H143.803V12.68C144.203 12.2 144.703 11.8333 145.303 11.58C145.903 11.3267 146.57 11.2 147.303 11.2C148.103 11.2 148.81 11.3533 149.423 11.66C150.05 11.9533 150.543 12.3933 150.903 12.98C151.343 12.42 151.91 11.9867 152.603 11.68C153.297 11.36 154.063 11.2 154.903 11.2Z" fill="#2F2F2F"/>
<path d="M10.2648 14.72C11.0382 14.9733 11.6515 15.4 12.1048 16C12.5582 16.5867 12.7848 17.32 12.7848 18.2C12.7848 19.4133 12.3182 20.3533 11.3848 21.02C10.4515 21.6733 9.09151 22 7.30484 22H0.344844V8H6.90484C8.55818 8 9.83151 8.32667 10.7248 8.98C11.6182 9.62 12.0648 10.5067 12.0648 11.64C12.0648 12.3333 11.9048 12.9467 11.5848 13.48C11.2648 14.0133 10.8248 14.4267 10.2648 14.72ZM2.94484 10.04V13.9H6.62484C7.53151 13.9 8.22484 13.74 8.70484 13.42C9.19818 13.0867 9.44484 12.6067 9.44484 11.98C9.44484 11.34 9.19818 10.86 8.70484 10.54C8.22484 10.2067 7.53151 10.04 6.62484 10.04H2.94484ZM7.14484 19.96C9.15818 19.96 10.1648 19.2867 10.1648 17.94C10.1648 16.5933 9.15818 15.92 7.14484 15.92H2.94484V19.96H7.14484ZM22.0397 22.2C20.6264 22.2 19.3464 21.8933 18.1997 21.28C17.0664 20.6533 16.173 19.7933 15.5197 18.7C14.8797 17.6067 14.5597 16.3733 14.5597 15C14.5597 13.6267 14.8864 12.3933 15.5397 11.3C16.193 10.2067 17.0864 9.35333 18.2197 8.74C19.3664 8.11333 20.6464 7.8 22.0597 7.8C23.2064 7.8 24.253 8 25.1997 8.4C26.1464 8.8 26.9464 9.38 27.5997 10.14L25.9197 11.72C24.9064 10.6267 23.6597 10.08 22.1797 10.08C21.2197 10.08 20.3597 10.2933 19.5997 10.72C18.8397 11.1333 18.2464 11.7133 17.8197 12.46C17.393 13.2067 17.1797 14.0533 17.1797 15C17.1797 15.9467 17.393 16.7933 17.8197 17.54C18.2464 18.2867 18.8397 18.8733 19.5997 19.3C20.3597 19.7133 21.2197 19.92 22.1797 19.92C23.6597 19.92 24.9064 19.3667 25.9197 18.26L27.5997 19.86C26.9464 20.62 26.1397 21.2 25.1797 21.6C24.233 22 23.1864 22.2 22.0397 22.2ZM35.0383 11.58H44.2583V13.58H35.0383V11.58ZM35.0383 16.42H44.2583V18.42H35.0383V16.42Z" fill="#2F2F2F"/>
<path d="M88.3055 15.904H85.9115V19H84.1655V15.904H77.1635V14.644L83.6075 6.4H85.5515L79.3775 14.356H84.2195V11.62H85.9115V14.356H88.3055V15.904Z" fill="#2F2F2F"/>
</svg>
