<svg width="306" height="176" viewBox="0 0 306 176" fill="none" xmlns="http://www.w3.org/2000/svg">
<rect x="27.5" y="25.5" width="227" height="126" fill="#F9D095" stroke="#CC913A" stroke-width="3"/>
<path d="M123.206 158.22C124.934 158.22 126.272 158.76 127.22 159.84C128.18 160.92 128.66 162.468 128.66 164.484C128.66 165.9 128.402 167.112 127.886 168.12C127.37 169.116 126.644 169.878 125.708 170.406C124.784 170.922 123.71 171.18 122.486 171.18C121.838 171.18 121.226 171.114 120.65 170.982C120.086 170.838 119.594 170.634 119.174 170.37L120.038 168.606C120.662 169.014 121.46 169.218 122.432 169.218C123.644 169.218 124.592 168.846 125.276 168.102C125.96 167.358 126.302 166.284 126.302 164.88V164.862C125.93 165.294 125.456 165.624 124.88 165.852C124.304 166.068 123.656 166.176 122.936 166.176C122.108 166.176 121.364 166.02 120.704 165.708C120.044 165.384 119.528 164.928 119.156 164.34C118.784 163.752 118.598 163.074 118.598 162.306C118.598 161.49 118.802 160.776 119.21 160.164C119.618 159.54 120.17 159.06 120.866 158.724C121.562 158.388 122.342 158.22 123.206 158.22ZM123.386 164.34C124.142 164.34 124.754 164.136 125.222 163.728C125.702 163.32 125.942 162.804 125.942 162.18C125.942 161.568 125.708 161.064 125.24 160.668C124.784 160.26 124.148 160.056 123.332 160.056C122.6 160.056 122.006 160.254 121.55 160.65C121.094 161.034 120.866 161.55 120.866 162.198C120.866 162.858 121.094 163.38 121.55 163.764C122.006 164.148 122.618 164.34 123.386 164.34ZM140.312 171.126C139.316 171.126 138.422 170.916 137.63 170.496C136.838 170.076 136.22 169.494 135.776 168.75C135.332 167.994 135.11 167.142 135.11 166.194C135.11 165.246 135.332 164.4 135.776 163.656C136.22 162.912 136.832 162.33 137.612 161.91C138.404 161.49 139.304 161.28 140.312 161.28C141.26 161.28 142.088 161.472 142.796 161.856C143.516 162.24 144.056 162.792 144.416 163.512L142.688 164.52C142.412 164.076 142.064 163.746 141.644 163.53C141.236 163.302 140.786 163.188 140.294 163.188C139.454 163.188 138.758 163.464 138.206 164.016C137.654 164.556 137.378 165.282 137.378 166.194C137.378 167.106 137.648 167.838 138.188 168.39C138.74 168.93 139.442 169.2 140.294 169.2C140.786 169.2 141.236 169.092 141.644 168.876C142.064 168.648 142.412 168.312 142.688 167.868L144.416 168.876C144.044 169.596 143.498 170.154 142.778 170.55C142.07 170.934 141.248 171.126 140.312 171.126ZM158.493 161.28C159.705 161.28 160.665 161.634 161.373 162.342C162.081 163.038 162.435 164.088 162.435 165.492V171H160.185V165.78C160.185 164.94 159.999 164.31 159.627 163.89C159.255 163.458 158.721 163.242 158.025 163.242C157.269 163.242 156.663 163.494 156.207 163.998C155.751 164.49 155.523 165.198 155.523 166.122V171H153.273V165.78C153.273 164.94 153.087 164.31 152.715 163.89C152.343 163.458 151.809 163.242 151.113 163.242C150.345 163.242 149.733 163.488 149.277 163.98C148.833 164.472 148.611 165.186 148.611 166.122V171H146.361V161.388H148.503V162.612C148.863 162.18 149.313 161.85 149.853 161.622C150.393 161.394 150.993 161.28 151.653 161.28C152.373 161.28 153.009 161.418 153.561 161.694C154.125 161.958 154.569 162.354 154.893 162.882C155.289 162.378 155.799 161.988 156.423 161.712C157.047 161.424 157.737 161.28 158.493 161.28Z" fill="#2F2F2F"/>
<path d="M265.075 90.824C265.075 90.176 265.219 89.642 265.507 89.222C265.807 88.79 266.239 88.322 266.803 87.818C267.235 87.434 267.553 87.104 267.757 86.828C267.973 86.54 268.081 86.216 268.081 85.856C268.081 85.352 267.877 84.944 267.469 84.632C267.061 84.32 266.515 84.164 265.831 84.164C264.535 84.164 263.557 84.626 262.897 85.55L261.151 84.416C261.667 83.708 262.333 83.168 263.149 82.796C263.965 82.412 264.925 82.22 266.029 82.22C267.373 82.22 268.441 82.514 269.233 83.102C270.037 83.678 270.439 84.476 270.439 85.496C270.439 85.988 270.355 86.42 270.187 86.792C270.031 87.164 269.839 87.482 269.611 87.746C269.383 87.998 269.083 88.292 268.711 88.628C268.255 89.036 267.913 89.396 267.685 89.708C267.469 90.02 267.361 90.392 267.361 90.824H265.075ZM266.227 95.126C265.807 95.126 265.459 94.994 265.183 94.73C264.919 94.454 264.787 94.118 264.787 93.722C264.787 93.326 264.919 92.996 265.183 92.732C265.459 92.468 265.807 92.336 266.227 92.336C266.635 92.336 266.971 92.468 267.235 92.732C267.511 92.996 267.649 93.326 267.649 93.722C267.649 94.118 267.511 94.454 267.235 94.73C266.971 94.994 266.635 95.126 266.227 95.126Z" fill="#369CB7"/>
<path d="M282.399 95.126C281.403 95.126 280.509 94.916 279.717 94.496C278.925 94.076 278.307 93.494 277.863 92.75C277.419 91.994 277.197 91.142 277.197 90.194C277.197 89.246 277.419 88.4 277.863 87.656C278.307 86.912 278.919 86.33 279.699 85.91C280.491 85.49 281.391 85.28 282.399 85.28C283.347 85.28 284.175 85.472 284.883 85.856C285.603 86.24 286.143 86.792 286.503 87.512L284.775 88.52C284.499 88.076 284.151 87.746 283.731 87.53C283.323 87.302 282.873 87.188 282.381 87.188C281.541 87.188 280.845 87.464 280.293 88.016C279.741 88.556 279.465 89.282 279.465 90.194C279.465 91.106 279.735 91.838 280.275 92.39C280.827 92.93 281.529 93.2 282.381 93.2C282.873 93.2 283.323 93.092 283.731 92.876C284.151 92.648 284.499 92.312 284.775 91.868L286.503 92.876C286.131 93.596 285.585 94.154 284.865 94.55C284.157 94.934 283.335 95.126 282.399 95.126ZM300.58 85.28C301.792 85.28 302.752 85.634 303.46 86.342C304.168 87.038 304.522 88.088 304.522 89.492V95H302.272V89.78C302.272 88.94 302.086 88.31 301.714 87.89C301.342 87.458 300.808 87.242 300.112 87.242C299.356 87.242 298.75 87.494 298.294 87.998C297.838 88.49 297.61 89.198 297.61 90.122V95H295.36V89.78C295.36 88.94 295.174 88.31 294.802 87.89C294.43 87.458 293.896 87.242 293.2 87.242C292.432 87.242 291.82 87.488 291.364 87.98C290.92 88.472 290.698 89.186 290.698 90.122V95H288.448V85.388H290.59V86.612C290.95 86.18 291.4 85.85 291.94 85.622C292.48 85.394 293.08 85.28 293.74 85.28C294.46 85.28 295.096 85.418 295.648 85.694C296.212 85.958 296.656 86.354 296.98 86.882C297.376 86.378 297.886 85.988 298.51 85.712C299.134 85.424 299.824 85.28 300.58 85.28Z" fill="#2F2F2F"/>
<path d="M13.3167 17.436H5.61674L4.09874 21H1.15074L8.08074 5.6H10.8967L17.8487 21H14.8567L13.3167 17.436ZM12.3707 15.192L9.46674 8.46L6.58474 15.192H12.3707Z" fill="#FF0000"/>
<path d="M2.48011 148.6H9.21211C10.8548 148.6 12.3141 148.923 13.5901 149.568C14.8661 150.199 15.8561 151.101 16.5601 152.274C17.2641 153.433 17.6161 154.775 17.6161 156.3C17.6161 157.825 17.2641 159.175 16.5601 160.348C15.8561 161.507 14.8661 162.409 13.5901 163.054C12.3141 163.685 10.8548 164 9.21211 164H2.48011V148.6ZM9.08011 161.58C10.2094 161.58 11.1994 161.367 12.0501 160.942C12.9154 160.502 13.5754 159.886 14.0301 159.094C14.4994 158.287 14.7341 157.356 14.7341 156.3C14.7341 155.244 14.4994 154.32 14.0301 153.528C13.5754 152.721 12.9154 152.105 12.0501 151.68C11.1994 151.24 10.2094 151.02 9.08011 151.02H5.34011V161.58H9.08011Z" fill="#FF0000"/>
<path d="M275.112 12.992C275.963 13.2707 276.637 13.74 277.136 14.4C277.635 15.0453 277.884 15.852 277.884 16.82C277.884 18.1547 277.371 19.1887 276.344 19.922C275.317 20.6407 273.821 21 271.856 21H264.2V5.6H271.416C273.235 5.6 274.635 5.95933 275.618 6.678C276.601 7.382 277.092 8.35733 277.092 9.604C277.092 10.3667 276.916 11.0413 276.564 11.628C276.212 12.2147 275.728 12.6693 275.112 12.992ZM267.06 7.844V12.09H271.108C272.105 12.09 272.868 11.914 273.396 11.562C273.939 11.1953 274.21 10.6673 274.21 9.978C274.21 9.274 273.939 8.746 273.396 8.394C272.868 8.02733 272.105 7.844 271.108 7.844H267.06ZM271.68 18.756C273.895 18.756 275.002 18.0153 275.002 16.534C275.002 15.0527 273.895 14.312 271.68 14.312H267.06V18.756H271.68Z" fill="#FF0000"/>
<path d="M271.204 164.22C269.649 164.22 268.241 163.883 266.98 163.208C265.733 162.519 264.75 161.573 264.032 160.37C263.328 159.167 262.976 157.811 262.976 156.3C262.976 154.789 263.335 153.433 264.054 152.23C264.772 151.027 265.755 150.089 267.002 149.414C268.263 148.725 269.671 148.38 271.226 148.38C272.487 148.38 273.638 148.6 274.68 149.04C275.721 149.48 276.601 150.118 277.32 150.954L275.472 152.692C274.357 151.489 272.986 150.888 271.358 150.888C270.302 150.888 269.356 151.123 268.52 151.592C267.684 152.047 267.031 152.685 266.562 153.506C266.092 154.327 265.858 155.259 265.858 156.3C265.858 157.341 266.092 158.273 266.562 159.094C267.031 159.915 267.684 160.561 268.52 161.03C269.356 161.485 270.302 161.712 271.358 161.712C272.986 161.712 274.357 161.103 275.472 159.886L277.32 161.646C276.601 162.482 275.714 163.12 274.658 163.56C273.616 164 272.465 164.22 271.204 164.22Z" fill="#FF0000"/>
</svg>
