<svg width="153" height="30" viewBox="0 0 153 30" fill="none" xmlns="http://www.w3.org/2000/svg">
<path d="M29.7424 13.35C30.5704 13.35 31.3084 13.506 31.9564 13.818C32.6164 14.13 33.1324 14.58 33.5044 15.168C33.8764 15.744 34.0624 16.41 34.0624 17.166C34.0624 17.958 33.8644 18.654 33.4684 19.254C33.0844 19.854 32.5504 20.322 31.8664 20.658C31.1944 20.982 30.4384 21.144 29.5984 21.144C27.9064 21.144 26.5984 20.598 25.6744 19.506C24.7624 18.414 24.3064 16.866 24.3064 14.862C24.3064 13.458 24.5524 12.264 25.0444 11.28C25.5484 10.284 26.2444 9.534 27.1324 9.03C28.0324 8.514 29.0764 8.256 30.2644 8.256C30.8764 8.256 31.4524 8.322 31.9924 8.454C32.5324 8.574 33.0004 8.754 33.3964 8.994L32.7124 10.398C32.1124 10.002 31.3084 9.804 30.3004 9.804C28.9924 9.804 27.9664 10.212 27.2224 11.028C26.4784 11.832 26.1064 13.008 26.1064 14.556C26.1064 14.748 26.1124 14.898 26.1244 15.006C26.4844 14.466 26.9764 14.058 27.6004 13.782C28.2364 13.494 28.9504 13.35 29.7424 13.35ZM29.5264 19.686C30.3544 19.686 31.0264 19.464 31.5424 19.02C32.0584 18.576 32.3164 17.982 32.3164 17.238C32.3164 16.494 32.0524 15.906 31.5244 15.474C31.0084 15.03 30.3124 14.808 29.4364 14.808C28.8724 14.808 28.3684 14.916 27.9244 15.132C27.4924 15.348 27.1504 15.642 26.8984 16.014C26.6584 16.386 26.5384 16.8 26.5384 17.256C26.5384 17.7 26.6524 18.108 26.8804 18.48C27.1204 18.84 27.4624 19.134 27.9064 19.362C28.3624 19.578 28.9024 19.686 29.5264 19.686ZM40.5638 21.144C39.5678 21.144 38.6798 20.892 37.8998 20.388C37.1318 19.872 36.5258 19.128 36.0818 18.156C35.6378 17.184 35.4158 16.032 35.4158 14.7C35.4158 13.368 35.6378 12.216 36.0818 11.244C36.5258 10.272 37.1318 9.534 37.8998 9.03C38.6798 8.514 39.5678 8.256 40.5638 8.256C41.5478 8.256 42.4238 8.514 43.1918 9.03C43.9718 9.534 44.5838 10.272 45.0278 11.244C45.4718 12.216 45.6938 13.368 45.6938 14.7C45.6938 16.032 45.4718 17.184 45.0278 18.156C44.5838 19.128 43.9718 19.872 43.1918 20.388C42.4238 20.892 41.5478 21.144 40.5638 21.144ZM40.5638 19.542C41.5718 19.542 42.3758 19.128 42.9758 18.3C43.5878 17.472 43.8938 16.272 43.8938 14.7C43.8938 13.128 43.5878 11.928 42.9758 11.1C42.3758 10.272 41.5718 9.858 40.5638 9.858C39.5438 9.858 38.7278 10.272 38.1158 11.1C37.5158 11.928 37.2158 13.128 37.2158 14.7C37.2158 16.272 37.5158 17.472 38.1158 18.3C38.7278 19.128 39.5438 19.542 40.5638 19.542Z" fill="#2F2F2F"/>
<path d="M5 1H65V-1H5V1ZM69 5V25H71V5H69ZM65 29H5V31H65V29ZM1 25V5H-1V25H1ZM5 29C2.79086 29 1 27.2091 1 25H-1C-1 28.3137 1.68629 31 5 31V29ZM69 25C69 27.2091 67.2091 29 65 29V31C68.3137 31 71 28.3137 71 25H69ZM65 1C67.2091 1 69 2.79086 69 5H71C71 1.68629 68.3137 -1 65 -1V1ZM5 -1C1.68629 -1 -1 1.68629 -1 5H1C1 2.79086 2.79086 1 5 1V-1Z" fill="#2F2F2F"/>
<path d="M87.5494 21.18C86.2774 21.18 85.1254 20.904 84.0934 20.352C83.0734 19.788 82.2694 19.014 81.6814 18.03C81.1054 17.046 80.8174 15.936 80.8174 14.7C80.8174 13.464 81.1114 12.354 81.6994 11.37C82.2874 10.386 83.0914 9.618 84.1114 9.066C85.1434 8.502 86.2954 8.22 87.5674 8.22C88.5994 8.22 89.5414 8.4 90.3934 8.76C91.2454 9.12 91.9654 9.642 92.5534 10.326L91.0414 11.748C90.1294 10.764 89.0074 10.272 87.6754 10.272C86.8114 10.272 86.0374 10.464 85.3534 10.848C84.6694 11.22 84.1354 11.742 83.7514 12.414C83.3674 13.086 83.1754 13.848 83.1754 14.7C83.1754 15.552 83.3674 16.314 83.7514 16.986C84.1354 17.658 84.6694 18.186 85.3534 18.57C86.0374 18.942 86.8114 19.128 87.6754 19.128C89.0074 19.128 90.1294 18.63 91.0414 17.634L92.5534 19.074C91.9654 19.758 91.2394 20.28 90.3754 20.64C89.5234 21 88.5814 21.18 87.5494 21.18ZM98.548 21.126C97.576 21.126 96.7 20.916 95.92 20.496C95.14 20.076 94.528 19.494 94.084 18.75C93.652 17.994 93.436 17.142 93.436 16.194C93.436 15.246 93.652 14.4 94.084 13.656C94.528 12.912 95.14 12.33 95.92 11.91C96.7 11.49 97.576 11.28 98.548 11.28C99.532 11.28 100.414 11.49 101.194 11.91C101.974 12.33 102.58 12.912 103.012 13.656C103.456 14.4 103.678 15.246 103.678 16.194C103.678 17.142 103.456 17.994 103.012 18.75C102.58 19.494 101.974 20.076 101.194 20.496C100.414 20.916 99.532 21.126 98.548 21.126ZM98.548 19.2C99.376 19.2 100.06 18.924 100.6 18.372C101.14 17.82 101.41 17.094 101.41 16.194C101.41 15.294 101.14 14.568 100.6 14.016C100.06 13.464 99.376 13.188 98.548 13.188C97.72 13.188 97.036 13.464 96.496 14.016C95.968 14.568 95.704 15.294 95.704 16.194C95.704 17.094 95.968 17.82 96.496 18.372C97.036 18.924 97.72 19.2 98.548 19.2ZM110.15 21.126C109.178 21.126 108.302 20.916 107.522 20.496C106.742 20.076 106.13 19.494 105.686 18.75C105.254 17.994 105.038 17.142 105.038 16.194C105.038 15.246 105.254 14.4 105.686 13.656C106.13 12.912 106.742 12.33 107.522 11.91C108.302 11.49 109.178 11.28 110.15 11.28C111.134 11.28 112.016 11.49 112.796 11.91C113.576 12.33 114.182 12.912 114.614 13.656C115.058 14.4 115.28 15.246 115.28 16.194C115.28 17.142 115.058 17.994 114.614 18.75C114.182 19.494 113.576 20.076 112.796 20.496C112.016 20.916 111.134 21.126 110.15 21.126ZM110.15 19.2C110.978 19.2 111.662 18.924 112.202 18.372C112.742 17.82 113.012 17.094 113.012 16.194C113.012 15.294 112.742 14.568 112.202 14.016C111.662 13.464 110.978 13.188 110.15 13.188C109.322 13.188 108.638 13.464 108.098 14.016C107.57 14.568 107.306 15.294 107.306 16.194C107.306 17.094 107.57 17.82 108.098 18.372C108.638 18.924 109.322 19.2 110.15 19.2ZM121.355 16.878L119.681 18.462V21H117.431V7.644H119.681V15.708L124.343 11.388H127.043L123.029 15.42L127.421 21H124.685L121.355 16.878ZM128.787 11.388H131.037V21H128.787V11.388ZM129.921 9.804C129.513 9.804 129.171 9.678 128.895 9.426C128.619 9.162 128.481 8.838 128.481 8.454C128.481 8.07 128.619 7.752 128.895 7.5C129.171 7.236 129.513 7.104 129.921 7.104C130.329 7.104 130.671 7.23 130.947 7.482C131.223 7.722 131.361 8.028 131.361 8.4C131.361 8.796 131.223 9.132 130.947 9.408C130.683 9.672 130.341 9.804 129.921 9.804ZM143.026 16.248C143.026 16.404 143.014 16.626 142.99 16.914H135.448C135.58 17.622 135.922 18.186 136.474 18.606C137.038 19.014 137.734 19.218 138.562 19.218C139.618 19.218 140.488 18.87 141.172 18.174L142.378 19.56C141.946 20.076 141.4 20.466 140.74 20.73C140.08 20.994 139.336 21.126 138.508 21.126C137.452 21.126 136.522 20.916 135.718 20.496C134.914 20.076 134.29 19.494 133.846 18.75C133.414 17.994 133.198 17.142 133.198 16.194C133.198 15.258 133.408 14.418 133.828 13.674C134.26 12.918 134.854 12.33 135.61 11.91C136.366 11.49 137.218 11.28 138.166 11.28C139.102 11.28 139.936 11.49 140.668 11.91C141.412 12.318 141.988 12.9 142.396 13.656C142.816 14.4 143.026 15.264 143.026 16.248ZM138.166 13.08C137.446 13.08 136.834 13.296 136.33 13.728C135.838 14.148 135.538 14.712 135.43 15.42H140.884C140.788 14.724 140.494 14.16 140.002 13.728C139.51 13.296 138.898 13.08 138.166 13.08ZM148.157 21.126C147.377 21.126 146.615 21.024 145.871 20.82C145.127 20.616 144.533 20.358 144.089 20.046L144.953 18.336C145.385 18.624 145.901 18.858 146.501 19.038C147.113 19.206 147.713 19.29 148.301 19.29C149.645 19.29 150.317 18.936 150.317 18.228C150.317 17.892 150.143 17.658 149.795 17.526C149.459 17.394 148.913 17.268 148.157 17.148C147.365 17.028 146.717 16.89 146.213 16.734C145.721 16.578 145.289 16.308 144.917 15.924C144.557 15.528 144.377 14.982 144.377 14.286C144.377 13.374 144.755 12.648 145.511 12.108C146.279 11.556 147.311 11.28 148.607 11.28C149.267 11.28 149.927 11.358 150.587 11.514C151.247 11.658 151.787 11.856 152.207 12.108L151.343 13.818C150.527 13.338 149.609 13.098 148.589 13.098C147.929 13.098 147.425 13.2 147.077 13.404C146.741 13.596 146.573 13.854 146.573 14.178C146.573 14.538 146.753 14.796 147.113 14.952C147.485 15.096 148.055 15.234 148.823 15.366C149.591 15.486 150.221 15.624 150.713 15.78C151.205 15.936 151.625 16.2 151.973 16.572C152.333 16.944 152.513 17.472 152.513 18.156C152.513 19.056 152.123 19.776 151.343 20.316C150.563 20.856 149.501 21.126 148.157 21.126Z" fill="#2F2F2F"/>
</svg>
