<svg width="705" height="110" viewBox="0 0 705 110" fill="none" xmlns="http://www.w3.org/2000/svg">
<path d="M12.9281 8.4V21H11.1281V15.384H3.89215V21H2.09215V8.4H3.89215V13.818H11.1281V8.4H12.9281ZM20.5336 21.108C19.5856 21.108 18.7336 20.898 17.9776 20.478C17.2216 20.058 16.6276 19.482 16.1956 18.75C15.7756 18.006 15.5656 17.166 15.5656 16.23C15.5656 15.294 15.7756 14.46 16.1956 13.728C16.6276 12.984 17.2216 12.408 17.9776 12C18.7336 11.58 19.5856 11.37 20.5336 11.37C21.4816 11.37 22.3276 11.58 23.0716 12C23.8276 12.408 24.4156 12.984 24.8356 13.728C25.2676 14.46 25.4836 15.294 25.4836 16.23C25.4836 17.166 25.2676 18.006 24.8356 18.75C24.4156 19.482 23.8276 20.058 23.0716 20.478C22.3276 20.898 21.4816 21.108 20.5336 21.108ZM20.5336 19.596C21.1456 19.596 21.6916 19.458 22.1716 19.182C22.6636 18.894 23.0476 18.498 23.3236 17.994C23.5996 17.478 23.7376 16.89 23.7376 16.23C23.7376 15.57 23.5996 14.988 23.3236 14.484C23.0476 13.968 22.6636 13.572 22.1716 13.296C21.6916 13.02 21.1456 12.882 20.5336 12.882C19.9216 12.882 19.3696 13.02 18.8776 13.296C18.3976 13.572 18.0136 13.968 17.7256 14.484C17.4496 14.988 17.3116 15.57 17.3116 16.23C17.3116 16.89 17.4496 17.478 17.7256 17.994C18.0136 18.498 18.3976 18.894 18.8776 19.182C19.3696 19.458 19.9216 19.596 20.5336 19.596ZM42.0457 11.46L38.4817 21H36.8257L34.0717 13.764L31.2817 21H29.6257L26.0797 11.46H27.7177L30.4897 19.056L33.3697 11.46H34.8277L37.6537 19.092L40.4977 11.46H42.0457ZM60.5671 11.37C61.7671 11.37 62.7151 11.718 63.4111 12.414C64.1191 13.11 64.4731 14.142 64.4731 15.51V21H62.7451V15.708C62.7451 14.784 62.5291 14.088 62.0971 13.62C61.6771 13.152 61.0711 12.918 60.2791 12.918C59.4031 12.918 58.7071 13.194 58.1911 13.746C57.6751 14.286 57.4171 15.066 57.4171 16.086V21H55.6891V15.708C55.6891 14.784 55.4731 14.088 55.0411 13.62C54.6211 13.152 54.0151 12.918 53.2231 12.918C52.3471 12.918 51.6511 13.194 51.1351 13.746C50.6191 14.286 50.3611 15.066 50.3611 16.086V21H48.6331V11.46H50.2891V12.882C50.6371 12.39 51.0931 12.018 51.6571 11.766C52.2211 11.502 52.8631 11.37 53.5831 11.37C54.3271 11.37 54.9871 11.52 55.5631 11.82C56.1391 12.12 56.5831 12.558 56.8951 13.134C57.2551 12.582 57.7531 12.15 58.3891 11.838C59.0371 11.526 59.7631 11.37 60.5671 11.37ZM71.1266 11.37C72.4466 11.37 73.4546 11.694 74.1506 12.342C74.8586 12.99 75.2126 13.956 75.2126 15.24V21H73.5746V19.74C73.2866 20.184 72.8726 20.526 72.3326 20.766C71.8046 20.994 71.1746 21.108 70.4426 21.108C69.3746 21.108 68.5166 20.85 67.8686 20.334C67.2326 19.818 66.9146 19.14 66.9146 18.3C66.9146 17.46 67.2206 16.788 67.8326 16.284C68.4446 15.768 69.4166 15.51 70.7486 15.51H73.4846V15.168C73.4846 14.424 73.2686 13.854 72.8366 13.458C72.4046 13.062 71.7686 12.864 70.9286 12.864C70.3646 12.864 69.8126 12.96 69.2726 13.152C68.7326 13.332 68.2766 13.578 67.9046 13.89L67.1846 12.594C67.6766 12.198 68.2646 11.898 68.9486 11.694C69.6326 11.478 70.3586 11.37 71.1266 11.37ZM70.7306 19.776C71.3906 19.776 71.9606 19.632 72.4406 19.344C72.9206 19.044 73.2686 18.624 73.4846 18.084V16.752H70.8206C69.3566 16.752 68.6246 17.244 68.6246 18.228C68.6246 18.708 68.8106 19.086 69.1826 19.362C69.5546 19.638 70.0706 19.776 70.7306 19.776ZM83.5045 11.37C84.7165 11.37 85.6765 11.724 86.3845 12.432C87.1045 13.128 87.4645 14.154 87.4645 15.51V21H85.7365V15.708C85.7365 14.784 85.5145 14.088 85.0705 13.62C84.6265 13.152 83.9905 12.918 83.1625 12.918C82.2265 12.918 81.4885 13.194 80.9485 13.746C80.4085 14.286 80.1385 15.066 80.1385 16.086V21H78.4105V11.46H80.0665V12.9C80.4145 12.408 80.8825 12.03 81.4705 11.766C82.0705 11.502 82.7485 11.37 83.5045 11.37ZM98.9286 11.46L94.3026 21.954C93.8946 22.926 93.4146 23.61 92.8626 24.006C92.3226 24.402 91.6686 24.6 90.9006 24.6C90.4326 24.6 89.9766 24.522 89.5326 24.366C89.1006 24.222 88.7406 24.006 88.4526 23.718L89.1906 22.422C89.6826 22.89 90.2526 23.124 90.9006 23.124C91.3206 23.124 91.6686 23.01 91.9446 22.782C92.2326 22.566 92.4906 22.188 92.7186 21.648L93.0246 20.982L88.8126 11.46H90.6126L93.9426 19.092L97.2366 11.46H98.9286ZM108.111 21.108C107.331 21.108 106.581 21.006 105.861 20.802C105.141 20.586 104.577 20.316 104.169 19.992L104.889 18.624C105.309 18.924 105.819 19.164 106.419 19.344C107.019 19.524 107.625 19.614 108.237 19.614C109.749 19.614 110.505 19.182 110.505 18.318C110.505 18.03 110.403 17.802 110.199 17.634C109.995 17.466 109.737 17.346 109.425 17.274C109.125 17.19 108.693 17.1 108.129 17.004C107.361 16.884 106.731 16.746 106.239 16.59C105.759 16.434 105.345 16.17 104.997 15.798C104.649 15.426 104.475 14.904 104.475 14.232C104.475 13.368 104.835 12.678 105.555 12.162C106.275 11.634 107.241 11.37 108.453 11.37C109.089 11.37 109.725 11.448 110.361 11.604C110.997 11.76 111.519 11.97 111.927 12.234L111.189 13.602C110.409 13.098 109.491 12.846 108.435 12.846C107.703 12.846 107.145 12.966 106.761 13.206C106.377 13.446 106.185 13.764 106.185 14.16C106.185 14.472 106.293 14.718 106.509 14.898C106.725 15.078 106.989 15.21 107.301 15.294C107.625 15.378 108.075 15.474 108.651 15.582C109.419 15.714 110.037 15.858 110.505 16.014C110.985 16.158 111.393 16.41 111.729 16.77C112.065 17.13 112.233 17.634 112.233 18.282C112.233 19.146 111.861 19.836 111.117 20.352C110.385 20.856 109.383 21.108 108.111 21.108ZM118.551 21.108C117.579 21.108 116.709 20.898 115.941 20.478C115.185 20.058 114.591 19.482 114.159 18.75C113.727 18.006 113.511 17.166 113.511 16.23C113.511 15.294 113.727 14.46 114.159 13.728C114.591 12.984 115.185 12.408 115.941 12C116.709 11.58 117.579 11.37 118.551 11.37C119.415 11.37 120.183 11.544 120.855 11.892C121.539 12.24 122.067 12.744 122.439 13.404L121.125 14.25C120.825 13.794 120.453 13.452 120.009 13.224C119.565 12.996 119.073 12.882 118.533 12.882C117.909 12.882 117.345 13.02 116.841 13.296C116.349 13.572 115.959 13.968 115.671 14.484C115.395 14.988 115.257 15.57 115.257 16.23C115.257 16.902 115.395 17.496 115.671 18.012C115.959 18.516 116.349 18.906 116.841 19.182C117.345 19.458 117.909 19.596 118.533 19.596C119.073 19.596 119.565 19.482 120.009 19.254C120.453 19.026 120.825 18.684 121.125 18.228L122.439 19.056C122.067 19.716 121.539 20.226 120.855 20.586C120.183 20.934 119.415 21.108 118.551 21.108ZM128.621 21.108C127.673 21.108 126.821 20.898 126.065 20.478C125.309 20.058 124.715 19.482 124.283 18.75C123.863 18.006 123.653 17.166 123.653 16.23C123.653 15.294 123.863 14.46 124.283 13.728C124.715 12.984 125.309 12.408 126.065 12C126.821 11.58 127.673 11.37 128.621 11.37C129.569 11.37 130.415 11.58 131.159 12C131.915 12.408 132.503 12.984 132.923 13.728C133.355 14.46 133.571 15.294 133.571 16.23C133.571 17.166 133.355 18.006 132.923 18.75C132.503 19.482 131.915 20.058 131.159 20.478C130.415 20.898 129.569 21.108 128.621 21.108ZM128.621 19.596C129.233 19.596 129.779 19.458 130.259 19.182C130.751 18.894 131.135 18.498 131.411 17.994C131.687 17.478 131.825 16.89 131.825 16.23C131.825 15.57 131.687 14.988 131.411 14.484C131.135 13.968 130.751 13.572 130.259 13.296C129.779 13.02 129.233 12.882 128.621 12.882C128.009 12.882 127.457 13.02 126.965 13.296C126.485 13.572 126.101 13.968 125.813 14.484C125.537 14.988 125.399 15.57 125.399 16.23C125.399 16.89 125.537 17.478 125.813 17.994C126.101 18.498 126.485 18.894 126.965 19.182C127.457 19.458 128.009 19.596 128.621 19.596ZM140.047 21.108C139.099 21.108 138.247 20.898 137.491 20.478C136.735 20.058 136.141 19.482 135.709 18.75C135.289 18.006 135.079 17.166 135.079 16.23C135.079 15.294 135.289 14.46 135.709 13.728C136.141 12.984 136.735 12.408 137.491 12C138.247 11.58 139.099 11.37 140.047 11.37C140.995 11.37 141.841 11.58 142.585 12C143.341 12.408 143.929 12.984 144.349 13.728C144.781 14.46 144.997 15.294 144.997 16.23C144.997 17.166 144.781 18.006 144.349 18.75C143.929 19.482 143.341 20.058 142.585 20.478C141.841 20.898 140.995 21.108 140.047 21.108ZM140.047 19.596C140.659 19.596 141.205 19.458 141.685 19.182C142.177 18.894 142.561 18.498 142.837 17.994C143.113 17.478 143.251 16.89 143.251 16.23C143.251 15.57 143.113 14.988 142.837 14.484C142.561 13.968 142.177 13.572 141.685 13.296C141.205 13.02 140.659 12.882 140.047 12.882C139.435 12.882 138.883 13.02 138.391 13.296C137.911 13.572 137.527 13.968 137.239 14.484C136.963 14.988 136.825 15.57 136.825 16.23C136.825 16.89 136.963 17.478 137.239 17.994C137.527 18.498 137.911 18.894 138.391 19.182C138.883 19.458 139.435 19.596 140.047 19.596ZM152.445 11.37C153.369 11.37 154.197 11.574 154.929 11.982C155.661 12.39 156.231 12.96 156.639 13.692C157.059 14.424 157.269 15.27 157.269 16.23C157.269 17.19 157.059 18.042 156.639 18.786C156.231 19.518 155.661 20.088 154.929 20.496C154.197 20.904 153.369 21.108 152.445 21.108C151.761 21.108 151.131 20.976 150.555 20.712C149.991 20.448 149.511 20.064 149.115 19.56V24.492H147.387V11.46H149.043V12.972C149.427 12.444 149.913 12.048 150.501 11.784C151.089 11.508 151.737 11.37 152.445 11.37ZM152.301 19.596C152.913 19.596 153.459 19.458 153.939 19.182C154.431 18.894 154.815 18.498 155.091 17.994C155.379 17.478 155.523 16.89 155.523 16.23C155.523 15.57 155.379 14.988 155.091 14.484C154.815 13.968 154.431 13.572 153.939 13.296C153.459 13.02 152.913 12.882 152.301 12.882C151.701 12.882 151.155 13.026 150.663 13.314C150.183 13.59 149.799 13.98 149.511 14.484C149.235 14.988 149.097 15.57 149.097 16.23C149.097 16.89 149.235 17.478 149.511 17.994C149.787 18.498 150.171 18.894 150.663 19.182C151.155 19.458 151.701 19.596 152.301 19.596ZM162.393 21.108C161.613 21.108 160.863 21.006 160.143 20.802C159.423 20.586 158.859 20.316 158.451 19.992L159.171 18.624C159.591 18.924 160.101 19.164 160.701 19.344C161.301 19.524 161.907 19.614 162.519 19.614C164.031 19.614 164.787 19.182 164.787 18.318C164.787 18.03 164.685 17.802 164.481 17.634C164.277 17.466 164.019 17.346 163.707 17.274C163.407 17.19 162.975 17.1 162.411 17.004C161.643 16.884 161.013 16.746 160.521 16.59C160.041 16.434 159.627 16.17 159.279 15.798C158.931 15.426 158.757 14.904 158.757 14.232C158.757 13.368 159.117 12.678 159.837 12.162C160.557 11.634 161.523 11.37 162.735 11.37C163.371 11.37 164.007 11.448 164.643 11.604C165.279 11.76 165.801 11.97 166.209 12.234L165.471 13.602C164.691 13.098 163.773 12.846 162.717 12.846C161.985 12.846 161.427 12.966 161.043 13.206C160.659 13.446 160.467 13.764 160.467 14.16C160.467 14.472 160.575 14.718 160.791 14.898C161.007 15.078 161.271 15.21 161.583 15.294C161.907 15.378 162.357 15.474 162.933 15.582C163.701 15.714 164.319 15.858 164.787 16.014C165.267 16.158 165.675 16.41 166.011 16.77C166.347 17.13 166.515 17.634 166.515 18.282C166.515 19.146 166.143 19.836 165.399 20.352C164.667 20.856 163.665 21.108 162.393 21.108ZM177.594 21.108C176.646 21.108 175.794 20.898 175.038 20.478C174.282 20.058 173.688 19.482 173.256 18.75C172.836 18.006 172.626 17.166 172.626 16.23C172.626 15.294 172.836 14.46 173.256 13.728C173.688 12.984 174.282 12.408 175.038 12C175.794 11.58 176.646 11.37 177.594 11.37C178.542 11.37 179.388 11.58 180.132 12C180.888 12.408 181.476 12.984 181.896 13.728C182.328 14.46 182.544 15.294 182.544 16.23C182.544 17.166 182.328 18.006 181.896 18.75C181.476 19.482 180.888 20.058 180.132 20.478C179.388 20.898 178.542 21.108 177.594 21.108ZM177.594 19.596C178.206 19.596 178.752 19.458 179.232 19.182C179.724 18.894 180.108 18.498 180.384 17.994C180.66 17.478 180.798 16.89 180.798 16.23C180.798 15.57 180.66 14.988 180.384 14.484C180.108 13.968 179.724 13.572 179.232 13.296C178.752 13.02 178.206 12.882 177.594 12.882C176.982 12.882 176.43 13.02 175.938 13.296C175.458 13.572 175.074 13.968 174.786 14.484C174.51 14.988 174.372 15.57 174.372 16.23C174.372 16.89 174.51 17.478 174.786 17.994C175.074 18.498 175.458 18.894 175.938 19.182C176.43 19.458 176.982 19.596 177.594 19.596ZM188.426 8.958C187.394 8.958 186.878 9.516 186.878 10.632V11.46H189.65V12.882H186.914V21H185.186V12.882H183.566V11.46H185.186V10.614C185.186 9.666 185.462 8.916 186.014 8.364C186.566 7.812 187.34 7.536 188.336 7.536C188.72 7.536 189.08 7.584 189.416 7.68C189.752 7.776 190.04 7.914 190.28 8.094L189.758 9.408C189.362 9.108 188.918 8.958 188.426 8.958ZM204.556 11.46L200.38 21H198.616L194.44 11.46H196.24L199.516 19.11L202.864 11.46H204.556ZM209.343 11.37C210.663 11.37 211.671 11.694 212.367 12.342C213.075 12.99 213.429 13.956 213.429 15.24V21H211.791V19.74C211.503 20.184 211.089 20.526 210.549 20.766C210.021 20.994 209.391 21.108 208.659 21.108C207.591 21.108 206.733 20.85 206.085 20.334C205.449 19.818 205.131 19.14 205.131 18.3C205.131 17.46 205.437 16.788 206.049 16.284C206.661 15.768 207.633 15.51 208.965 15.51H211.701V15.168C211.701 14.424 211.485 13.854 211.053 13.458C210.621 13.062 209.985 12.864 209.145 12.864C208.581 12.864 208.029 12.96 207.489 13.152C206.949 13.332 206.493 13.578 206.121 13.89L205.401 12.594C205.893 12.198 206.481 11.898 207.165 11.694C207.849 11.478 208.575 11.37 209.343 11.37ZM208.947 19.776C209.607 19.776 210.177 19.632 210.657 19.344C211.137 19.044 211.485 18.624 211.701 18.084V16.752H209.037C207.573 16.752 206.841 17.244 206.841 18.228C206.841 18.708 207.027 19.086 207.399 19.362C207.771 19.638 208.287 19.776 208.947 19.776ZM221.721 11.37C222.933 11.37 223.893 11.724 224.601 12.432C225.321 13.128 225.681 14.154 225.681 15.51V21H223.953V15.708C223.953 14.784 223.731 14.088 223.287 13.62C222.843 13.152 222.207 12.918 221.379 12.918C220.443 12.918 219.705 13.194 219.165 13.746C218.625 14.286 218.355 15.066 218.355 16.086V21H216.627V11.46H218.283V12.9C218.631 12.408 219.099 12.03 219.687 11.766C220.287 11.502 220.965 11.37 221.721 11.37ZM228.879 11.46H230.607V21H228.879V11.46ZM229.743 9.624C229.407 9.624 229.125 9.516 228.897 9.3C228.681 9.084 228.573 8.82 228.573 8.508C228.573 8.196 228.681 7.932 228.897 7.716C229.125 7.488 229.407 7.374 229.743 7.374C230.079 7.374 230.355 7.482 230.571 7.698C230.799 7.902 230.913 8.16 230.913 8.472C230.913 8.796 230.799 9.072 230.571 9.3C230.355 9.516 230.079 9.624 229.743 9.624ZM233.907 7.644H235.635V21H233.907V7.644ZM238.934 7.644H240.662V21H238.934V7.644ZM247.435 11.37C248.755 11.37 249.763 11.694 250.459 12.342C251.167 12.99 251.521 13.956 251.521 15.24V21H249.883V19.74C249.595 20.184 249.181 20.526 248.641 20.766C248.113 20.994 247.483 21.108 246.751 21.108C245.683 21.108 244.825 20.85 244.177 20.334C243.541 19.818 243.223 19.14 243.223 18.3C243.223 17.46 243.529 16.788 244.141 16.284C244.753 15.768 245.725 15.51 247.057 15.51H249.793V15.168C249.793 14.424 249.577 13.854 249.145 13.458C248.713 13.062 248.077 12.864 247.237 12.864C246.673 12.864 246.121 12.96 245.581 13.152C245.041 13.332 244.585 13.578 244.213 13.89L243.493 12.594C243.985 12.198 244.573 11.898 245.257 11.694C245.941 11.478 246.667 11.37 247.435 11.37ZM247.039 19.776C247.699 19.776 248.269 19.632 248.749 19.344C249.229 19.044 249.577 18.624 249.793 18.084V16.752H247.129C245.665 16.752 244.933 17.244 244.933 18.228C244.933 18.708 245.119 19.086 245.491 19.362C245.863 19.638 246.379 19.776 247.039 19.776ZM259.553 11.46H261.281V21H259.553V11.46ZM260.417 9.624C260.081 9.624 259.799 9.516 259.571 9.3C259.355 9.084 259.247 8.82 259.247 8.508C259.247 8.196 259.355 7.932 259.571 7.716C259.799 7.488 260.081 7.374 260.417 7.374C260.753 7.374 261.029 7.482 261.245 7.698C261.473 7.902 261.587 8.16 261.587 8.472C261.587 8.796 261.473 9.072 261.245 9.3C261.029 9.516 260.753 9.624 260.417 9.624ZM268.738 21.108C267.766 21.108 266.896 20.898 266.128 20.478C265.372 20.058 264.778 19.482 264.346 18.75C263.914 18.006 263.698 17.166 263.698 16.23C263.698 15.294 263.914 14.46 264.346 13.728C264.778 12.984 265.372 12.408 266.128 12C266.896 11.58 267.766 11.37 268.738 11.37C269.602 11.37 270.37 11.544 271.042 11.892C271.726 12.24 272.254 12.744 272.626 13.404L271.312 14.25C271.012 13.794 270.64 13.452 270.196 13.224C269.752 12.996 269.26 12.882 268.72 12.882C268.096 12.882 267.532 13.02 267.028 13.296C266.536 13.572 266.146 13.968 265.858 14.484C265.582 14.988 265.444 15.57 265.444 16.23C265.444 16.902 265.582 17.496 265.858 18.012C266.146 18.516 266.536 18.906 267.028 19.182C267.532 19.458 268.096 19.596 268.72 19.596C269.26 19.596 269.752 19.482 270.196 19.254C270.64 19.026 271.012 18.684 271.312 18.228L272.626 19.056C272.254 19.716 271.726 20.226 271.042 20.586C270.37 20.934 269.602 21.108 268.738 21.108ZM283.345 16.284C283.345 16.416 283.333 16.59 283.309 16.806H275.569C275.677 17.646 276.043 18.324 276.667 18.84C277.303 19.344 278.089 19.596 279.025 19.596C280.165 19.596 281.083 19.212 281.779 18.444L282.733 19.56C282.301 20.064 281.761 20.448 281.113 20.712C280.477 20.976 279.763 21.108 278.971 21.108C277.963 21.108 277.069 20.904 276.289 20.496C275.509 20.076 274.903 19.494 274.471 18.75C274.051 18.006 273.841 17.166 273.841 16.23C273.841 15.306 274.045 14.472 274.453 13.728C274.873 12.984 275.443 12.408 276.163 12C276.895 11.58 277.717 11.37 278.629 11.37C279.541 11.37 280.351 11.58 281.059 12C281.779 12.408 282.337 12.984 282.733 13.728C283.141 14.472 283.345 15.324 283.345 16.284ZM278.629 12.828C277.801 12.828 277.105 13.08 276.541 13.584C275.989 14.088 275.665 14.748 275.569 15.564H281.689C281.593 14.76 281.263 14.106 280.699 13.602C280.147 13.086 279.457 12.828 278.629 12.828ZM294.736 21.108C293.764 21.108 292.894 20.898 292.126 20.478C291.37 20.058 290.776 19.482 290.344 18.75C289.912 18.006 289.696 17.166 289.696 16.23C289.696 15.294 289.912 14.46 290.344 13.728C290.776 12.984 291.37 12.408 292.126 12C292.894 11.58 293.764 11.37 294.736 11.37C295.6 11.37 296.368 11.544 297.04 11.892C297.724 12.24 298.252 12.744 298.624 13.404L297.31 14.25C297.01 13.794 296.638 13.452 296.194 13.224C295.75 12.996 295.258 12.882 294.718 12.882C294.094 12.882 293.53 13.02 293.026 13.296C292.534 13.572 292.144 13.968 291.856 14.484C291.58 14.988 291.442 15.57 291.442 16.23C291.442 16.902 291.58 17.496 291.856 18.012C292.144 18.516 292.534 18.906 293.026 19.182C293.53 19.458 294.094 19.596 294.718 19.596C295.258 19.596 295.75 19.482 296.194 19.254C296.638 19.026 297.01 18.684 297.31 18.228L298.624 19.056C298.252 19.716 297.724 20.226 297.04 20.586C296.368 20.934 295.6 21.108 294.736 21.108ZM302.518 13.062C302.818 12.51 303.262 12.09 303.85 11.802C304.438 11.514 305.152 11.37 305.992 11.37V13.044C305.896 13.032 305.764 13.026 305.596 13.026C304.66 13.026 303.922 13.308 303.382 13.872C302.854 14.424 302.59 15.216 302.59 16.248V21H300.862V11.46H302.518V13.062ZM316.656 16.284C316.656 16.416 316.644 16.59 316.62 16.806H308.88C308.988 17.646 309.354 18.324 309.978 18.84C310.614 19.344 311.4 19.596 312.336 19.596C313.476 19.596 314.394 19.212 315.09 18.444L316.044 19.56C315.612 20.064 315.072 20.448 314.424 20.712C313.788 20.976 313.074 21.108 312.282 21.108C311.274 21.108 310.38 20.904 309.6 20.496C308.82 20.076 308.214 19.494 307.782 18.75C307.362 18.006 307.152 17.166 307.152 16.23C307.152 15.306 307.356 14.472 307.764 13.728C308.184 12.984 308.754 12.408 309.474 12C310.206 11.58 311.028 11.37 311.94 11.37C312.852 11.37 313.662 11.58 314.37 12C315.09 12.408 315.648 12.984 316.044 13.728C316.452 14.472 316.656 15.324 316.656 16.284ZM311.94 12.828C311.112 12.828 310.416 13.08 309.852 13.584C309.3 14.088 308.976 14.748 308.88 15.564H315C314.904 14.76 314.574 14.106 314.01 13.602C313.458 13.086 312.768 12.828 311.94 12.828ZM322.265 11.37C323.585 11.37 324.593 11.694 325.289 12.342C325.997 12.99 326.351 13.956 326.351 15.24V21H324.713V19.74C324.425 20.184 324.011 20.526 323.471 20.766C322.943 20.994 322.313 21.108 321.581 21.108C320.513 21.108 319.655 20.85 319.007 20.334C318.371 19.818 318.053 19.14 318.053 18.3C318.053 17.46 318.359 16.788 318.971 16.284C319.583 15.768 320.555 15.51 321.887 15.51H324.623V15.168C324.623 14.424 324.407 13.854 323.975 13.458C323.543 13.062 322.907 12.864 322.067 12.864C321.503 12.864 320.951 12.96 320.411 13.152C319.871 13.332 319.415 13.578 319.043 13.89L318.323 12.594C318.815 12.198 319.403 11.898 320.087 11.694C320.771 11.478 321.497 11.37 322.265 11.37ZM321.869 19.776C322.529 19.776 323.099 19.632 323.579 19.344C324.059 19.044 324.407 18.624 324.623 18.084V16.752H321.959C320.495 16.752 319.763 17.244 319.763 18.228C319.763 18.708 319.949 19.086 320.321 19.362C320.693 19.638 321.209 19.776 321.869 19.776ZM341.483 11.37C342.683 11.37 343.631 11.718 344.327 12.414C345.035 13.11 345.389 14.142 345.389 15.51V21H343.661V15.708C343.661 14.784 343.445 14.088 343.013 13.62C342.593 13.152 341.987 12.918 341.195 12.918C340.319 12.918 339.623 13.194 339.107 13.746C338.591 14.286 338.333 15.066 338.333 16.086V21H336.605V15.708C336.605 14.784 336.389 14.088 335.957 13.62C335.537 13.152 334.931 12.918 334.139 12.918C333.263 12.918 332.567 13.194 332.051 13.746C331.535 14.286 331.277 15.066 331.277 16.086V21H329.549V11.46H331.205V12.882C331.553 12.39 332.009 12.018 332.573 11.766C333.137 11.502 333.779 11.37 334.499 11.37C335.243 11.37 335.903 11.52 336.479 11.82C337.055 12.12 337.499 12.558 337.811 13.134C338.171 12.582 338.669 12.15 339.305 11.838C339.953 11.526 340.679 11.37 341.483 11.37ZM367.839 11.46L364.275 21H362.619L359.865 13.764L357.075 21H355.419L351.873 11.46H353.511L356.283 19.056L359.163 11.46H360.621L363.447 19.092L366.291 11.46H367.839ZM377.95 16.284C377.95 16.416 377.938 16.59 377.914 16.806H370.174C370.282 17.646 370.648 18.324 371.272 18.84C371.908 19.344 372.694 19.596 373.63 19.596C374.77 19.596 375.688 19.212 376.384 18.444L377.338 19.56C376.906 20.064 376.366 20.448 375.718 20.712C375.082 20.976 374.368 21.108 373.576 21.108C372.568 21.108 371.674 20.904 370.894 20.496C370.114 20.076 369.508 19.494 369.076 18.75C368.656 18.006 368.446 17.166 368.446 16.23C368.446 15.306 368.65 14.472 369.058 13.728C369.478 12.984 370.048 12.408 370.768 12C371.5 11.58 372.322 11.37 373.234 11.37C374.146 11.37 374.956 11.58 375.664 12C376.384 12.408 376.942 12.984 377.338 13.728C377.746 14.472 377.95 15.324 377.95 16.284ZM373.234 12.828C372.406 12.828 371.71 13.08 371.146 13.584C370.594 14.088 370.27 14.748 370.174 15.564H376.294C376.198 14.76 375.868 14.106 375.304 13.602C374.752 13.086 374.062 12.828 373.234 12.828ZM382.006 13.062C382.306 12.51 382.75 12.09 383.338 11.802C383.926 11.514 384.64 11.37 385.48 11.37V13.044C385.384 13.032 385.252 13.026 385.084 13.026C384.148 13.026 383.41 13.308 382.87 13.872C382.342 14.424 382.078 15.216 382.078 16.248V21H380.35V11.46H382.006V13.062ZM396.144 16.284C396.144 16.416 396.132 16.59 396.108 16.806H388.368C388.476 17.646 388.842 18.324 389.466 18.84C390.102 19.344 390.888 19.596 391.824 19.596C392.964 19.596 393.882 19.212 394.578 18.444L395.532 19.56C395.1 20.064 394.56 20.448 393.912 20.712C393.276 20.976 392.562 21.108 391.77 21.108C390.762 21.108 389.868 20.904 389.088 20.496C388.308 20.076 387.702 19.494 387.27 18.75C386.85 18.006 386.64 17.166 386.64 16.23C386.64 15.306 386.844 14.472 387.252 13.728C387.672 12.984 388.242 12.408 388.962 12C389.694 11.58 390.516 11.37 391.428 11.37C392.34 11.37 393.15 11.58 393.858 12C394.578 12.408 395.136 12.984 395.532 13.728C395.94 14.472 396.144 15.324 396.144 16.284ZM391.428 12.828C390.6 12.828 389.904 13.08 389.34 13.584C388.788 14.088 388.464 14.748 388.368 15.564H394.488C394.392 14.76 394.062 14.106 393.498 13.602C392.946 13.086 392.256 12.828 391.428 12.828ZM406.113 21.108C405.333 21.108 404.583 21.006 403.863 20.802C403.143 20.586 402.579 20.316 402.171 19.992L402.891 18.624C403.311 18.924 403.821 19.164 404.421 19.344C405.021 19.524 405.627 19.614 406.239 19.614C407.751 19.614 408.507 19.182 408.507 18.318C408.507 18.03 408.405 17.802 408.201 17.634C407.997 17.466 407.739 17.346 407.427 17.274C407.127 17.19 406.695 17.1 406.131 17.004C405.363 16.884 404.733 16.746 404.241 16.59C403.761 16.434 403.347 16.17 402.999 15.798C402.651 15.426 402.477 14.904 402.477 14.232C402.477 13.368 402.837 12.678 403.557 12.162C404.277 11.634 405.243 11.37 406.455 11.37C407.091 11.37 407.727 11.448 408.363 11.604C408.999 11.76 409.521 11.97 409.929 12.234L409.191 13.602C408.411 13.098 407.493 12.846 406.437 12.846C405.705 12.846 405.147 12.966 404.763 13.206C404.379 13.446 404.187 13.764 404.187 14.16C404.187 14.472 404.295 14.718 404.511 14.898C404.727 15.078 404.991 15.21 405.303 15.294C405.627 15.378 406.077 15.474 406.653 15.582C407.421 15.714 408.039 15.858 408.507 16.014C408.987 16.158 409.395 16.41 409.731 16.77C410.067 17.13 410.235 17.634 410.235 18.282C410.235 19.146 409.863 19.836 409.119 20.352C408.387 20.856 407.385 21.108 406.113 21.108ZM416.481 21.108C415.533 21.108 414.681 20.898 413.925 20.478C413.169 20.058 412.575 19.482 412.143 18.75C411.723 18.006 411.513 17.166 411.513 16.23C411.513 15.294 411.723 14.46 412.143 13.728C412.575 12.984 413.169 12.408 413.925 12C414.681 11.58 415.533 11.37 416.481 11.37C417.429 11.37 418.275 11.58 419.019 12C419.775 12.408 420.363 12.984 420.783 13.728C421.215 14.46 421.431 15.294 421.431 16.23C421.431 17.166 421.215 18.006 420.783 18.75C420.363 19.482 419.775 20.058 419.019 20.478C418.275 20.898 417.429 21.108 416.481 21.108ZM416.481 19.596C417.093 19.596 417.639 19.458 418.119 19.182C418.611 18.894 418.995 18.498 419.271 17.994C419.547 17.478 419.685 16.89 419.685 16.23C419.685 15.57 419.547 14.988 419.271 14.484C418.995 13.968 418.611 13.572 418.119 13.296C417.639 13.02 417.093 12.882 416.481 12.882C415.869 12.882 415.317 13.02 414.825 13.296C414.345 13.572 413.961 13.968 413.673 14.484C413.397 14.988 413.259 15.57 413.259 16.23C413.259 16.89 413.397 17.478 413.673 17.994C413.961 18.498 414.345 18.894 414.825 19.182C415.317 19.458 415.869 19.596 416.481 19.596ZM423.821 7.644H425.549V21H423.821V7.644ZM437.848 7.644V21H436.192V19.488C435.808 20.016 435.322 20.418 434.734 20.694C434.146 20.97 433.498 21.108 432.79 21.108C431.866 21.108 431.038 20.904 430.306 20.496C429.574 20.088 428.998 19.518 428.578 18.786C428.17 18.042 427.966 17.19 427.966 16.23C427.966 15.27 428.17 14.424 428.578 13.692C428.998 12.96 429.574 12.39 430.306 11.982C431.038 11.574 431.866 11.37 432.79 11.37C433.474 11.37 434.104 11.502 434.68 11.766C435.256 12.018 435.736 12.396 436.12 12.9V7.644H437.848ZM432.934 19.596C433.534 19.596 434.08 19.458 434.572 19.182C435.064 18.894 435.448 18.498 435.724 17.994C436 17.478 436.138 16.89 436.138 16.23C436.138 15.57 436 14.988 435.724 14.484C435.448 13.968 435.064 13.572 434.572 13.296C434.08 13.02 433.534 12.882 432.934 12.882C432.322 12.882 431.77 13.02 431.278 13.296C430.798 13.572 430.414 13.968 430.126 14.484C429.85 14.988 429.712 15.57 429.712 16.23C429.712 16.89 429.85 17.478 430.126 17.994C430.414 18.498 430.798 18.894 431.278 19.182C431.77 19.458 432.322 19.596 432.934 19.596ZM443.583 17.022C443.583 16.542 443.661 16.122 443.817 15.762C443.985 15.39 444.183 15.078 444.411 14.826C444.651 14.574 444.963 14.274 445.347 13.926C445.827 13.506 446.181 13.146 446.409 12.846C446.637 12.534 446.751 12.162 446.751 11.73C446.751 11.142 446.523 10.674 446.067 10.326C445.611 9.966 444.981 9.786 444.177 9.786C442.773 9.786 441.699 10.26 440.955 11.208L439.641 10.272C440.145 9.624 440.787 9.126 441.567 8.778C442.359 8.43 443.271 8.256 444.303 8.256C445.611 8.256 446.649 8.544 447.417 9.12C448.185 9.684 448.569 10.464 448.569 11.46C448.569 11.952 448.485 12.39 448.317 12.774C448.161 13.146 447.969 13.458 447.741 13.71C447.513 13.962 447.207 14.262 446.823 14.61C446.331 15.054 445.965 15.444 445.725 15.78C445.497 16.116 445.383 16.53 445.383 17.022H443.583ZM444.501 21.108C444.165 21.108 443.883 21 443.655 20.784C443.439 20.556 443.331 20.28 443.331 19.956C443.331 19.632 443.439 19.362 443.655 19.146C443.883 18.918 444.165 18.804 444.501 18.804C444.837 18.804 445.113 18.918 445.329 19.146C445.545 19.362 445.653 19.632 445.653 19.956C445.653 20.28 445.539 20.556 445.311 20.784C445.095 21 444.825 21.108 444.501 21.108Z" fill="#2F2F2F"/>
<path d="M476.271 8.4V21H474.489V9.966H471.645V8.4H476.271ZM487.883 19.434V21H478.829V19.776L483.959 14.826C484.583 14.226 485.003 13.71 485.219 13.278C485.435 12.834 485.543 12.39 485.543 11.946C485.543 11.286 485.309 10.776 484.841 10.416C484.385 10.044 483.725 9.858 482.861 9.858C481.469 9.858 480.395 10.314 479.639 11.226L478.415 10.164C478.907 9.564 479.549 9.096 480.341 8.76C481.145 8.424 482.039 8.256 483.023 8.256C484.343 8.256 485.393 8.574 486.173 9.21C486.953 9.834 487.343 10.686 487.343 11.766C487.343 12.438 487.199 13.074 486.911 13.674C486.623 14.274 486.077 14.958 485.273 15.726L481.421 19.434H487.883Z" fill="#2F2F2F"/>
<path d="M465 1H495V-1H465V1ZM499 5V25H501V5H499ZM495 29H465V31H495V29ZM461 25V5H459V25H461ZM465 29C462.791 29 461 27.2091 461 25H459C459 28.3137 461.686 31 465 31V29ZM499 25C499 27.2091 497.209 29 495 29V31C498.314 31 501 28.3137 501 25H499ZM495 1C497.209 1 499 2.79086 499 5H501C501 1.68629 498.314 -1 495 -1V1ZM465 -1C461.686 -1 459 1.68629 459 5H461C461 2.79086 462.791 1 465 1V-1Z" fill="#2F2F2F"/>
<path d="M12.8862 48.4V61H11.0862V55.384H3.85016V61H2.05016V48.4H3.85016V53.818H11.0862V48.4H12.8862ZM20.4916 61.108C19.5436 61.108 18.6916 60.898 17.9356 60.478C17.1796 60.058 16.5856 59.482 16.1536 58.75C15.7336 58.006 15.5236 57.166 15.5236 56.23C15.5236 55.294 15.7336 54.46 16.1536 53.728C16.5856 52.984 17.1796 52.408 17.9356 52C18.6916 51.58 19.5436 51.37 20.4916 51.37C21.4396 51.37 22.2856 51.58 23.0296 52C23.7856 52.408 24.3736 52.984 24.7936 53.728C25.2256 54.46 25.4416 55.294 25.4416 56.23C25.4416 57.166 25.2256 58.006 24.7936 58.75C24.3736 59.482 23.7856 60.058 23.0296 60.478C22.2856 60.898 21.4396 61.108 20.4916 61.108ZM20.4916 59.596C21.1036 59.596 21.6496 59.458 22.1296 59.182C22.6216 58.894 23.0056 58.498 23.2816 57.994C23.5576 57.478 23.6956 56.89 23.6956 56.23C23.6956 55.57 23.5576 54.988 23.2816 54.484C23.0056 53.968 22.6216 53.572 22.1296 53.296C21.6496 53.02 21.1036 52.882 20.4916 52.882C19.8796 52.882 19.3276 53.02 18.8356 53.296C18.3556 53.572 17.9716 53.968 17.6836 54.484C17.4076 54.988 17.2696 55.57 17.2696 56.23C17.2696 56.89 17.4076 57.478 17.6836 57.994C17.9716 58.498 18.3556 58.894 18.8356 59.182C19.3276 59.458 19.8796 59.596 20.4916 59.596ZM42.0037 51.46L38.4397 61H36.7837L34.0297 53.764L31.2397 61H29.5837L26.0377 51.46H27.6757L30.4477 59.056L33.3277 51.46H34.7857L37.6117 59.092L40.4557 51.46H42.0037ZM60.5251 51.37C61.7251 51.37 62.6731 51.718 63.3691 52.414C64.0771 53.11 64.4311 54.142 64.4311 55.51V61H62.7031V55.708C62.7031 54.784 62.4871 54.088 62.0551 53.62C61.6351 53.152 61.0291 52.918 60.2371 52.918C59.3611 52.918 58.6651 53.194 58.1491 53.746C57.6331 54.286 57.3751 55.066 57.3751 56.086V61H55.6471V55.708C55.6471 54.784 55.4311 54.088 54.9991 53.62C54.5791 53.152 53.9731 52.918 53.1811 52.918C52.3051 52.918 51.6091 53.194 51.0931 53.746C50.5771 54.286 50.3191 55.066 50.3191 56.086V61H48.5911V51.46H50.2471V52.882C50.5951 52.39 51.0511 52.018 51.6151 51.766C52.1791 51.502 52.8211 51.37 53.5411 51.37C54.2851 51.37 54.9451 51.52 55.5211 51.82C56.0971 52.12 56.5411 52.558 56.8531 53.134C57.2131 52.582 57.7111 52.15 58.3471 51.838C58.9951 51.526 59.7211 51.37 60.5251 51.37ZM71.0847 51.37C72.4047 51.37 73.4127 51.694 74.1087 52.342C74.8167 52.99 75.1707 53.956 75.1707 55.24V61H73.5327V59.74C73.2447 60.184 72.8307 60.526 72.2907 60.766C71.7627 60.994 71.1327 61.108 70.4007 61.108C69.3327 61.108 68.4747 60.85 67.8267 60.334C67.1907 59.818 66.8727 59.14 66.8727 58.3C66.8727 57.46 67.1787 56.788 67.7907 56.284C68.4027 55.768 69.3747 55.51 70.7067 55.51H73.4427V55.168C73.4427 54.424 73.2267 53.854 72.7947 53.458C72.3627 53.062 71.7267 52.864 70.8867 52.864C70.3227 52.864 69.7707 52.96 69.2307 53.152C68.6907 53.332 68.2347 53.578 67.8627 53.89L67.1427 52.594C67.6347 52.198 68.2227 51.898 68.9067 51.694C69.5907 51.478 70.3167 51.37 71.0847 51.37ZM70.6887 59.776C71.3487 59.776 71.9187 59.632 72.3987 59.344C72.8787 59.044 73.2267 58.624 73.4427 58.084V56.752H70.7787C69.3147 56.752 68.5827 57.244 68.5827 58.228C68.5827 58.708 68.7687 59.086 69.1407 59.362C69.5127 59.638 70.0287 59.776 70.6887 59.776ZM83.4625 51.37C84.6745 51.37 85.6345 51.724 86.3425 52.432C87.0625 53.128 87.4225 54.154 87.4225 55.51V61H85.6945V55.708C85.6945 54.784 85.4725 54.088 85.0285 53.62C84.5845 53.152 83.9485 52.918 83.1205 52.918C82.1845 52.918 81.4465 53.194 80.9065 53.746C80.3665 54.286 80.0965 55.066 80.0965 56.086V61H78.3685V51.46H80.0245V52.9C80.3725 52.408 80.8405 52.03 81.4285 51.766C82.0285 51.502 82.7065 51.37 83.4625 51.37ZM98.8866 51.46L94.2606 61.954C93.8526 62.926 93.3726 63.61 92.8206 64.006C92.2806 64.402 91.6266 64.6 90.8586 64.6C90.3906 64.6 89.9346 64.522 89.4906 64.366C89.0586 64.222 88.6986 64.006 88.4106 63.718L89.1486 62.422C89.6406 62.89 90.2106 63.124 90.8586 63.124C91.2786 63.124 91.6266 63.01 91.9026 62.782C92.1906 62.566 92.4486 62.188 92.6766 61.648L92.9826 60.982L88.7706 51.46H90.5706L93.9006 59.092L97.1946 51.46H98.8866ZM117.267 51.37C118.467 51.37 119.415 51.718 120.111 52.414C120.819 53.11 121.173 54.142 121.173 55.51V61H119.445V55.708C119.445 54.784 119.229 54.088 118.797 53.62C118.377 53.152 117.771 52.918 116.979 52.918C116.103 52.918 115.407 53.194 114.891 53.746C114.375 54.286 114.117 55.066 114.117 56.086V61H112.389V55.708C112.389 54.784 112.173 54.088 111.741 53.62C111.321 53.152 110.715 52.918 109.923 52.918C109.047 52.918 108.351 53.194 107.835 53.746C107.319 54.286 107.061 55.066 107.061 56.086V61H105.333V51.46H106.989V52.882C107.337 52.39 107.793 52.018 108.357 51.766C108.921 51.502 109.563 51.37 110.283 51.37C111.027 51.37 111.687 51.52 112.263 51.82C112.839 52.12 113.283 52.558 113.595 53.134C113.955 52.582 114.453 52.15 115.089 51.838C115.737 51.526 116.463 51.37 117.267 51.37ZM128.492 61.108C127.544 61.108 126.692 60.898 125.936 60.478C125.18 60.058 124.586 59.482 124.154 58.75C123.734 58.006 123.524 57.166 123.524 56.23C123.524 55.294 123.734 54.46 124.154 53.728C124.586 52.984 125.18 52.408 125.936 52C126.692 51.58 127.544 51.37 128.492 51.37C129.44 51.37 130.286 51.58 131.03 52C131.786 52.408 132.374 52.984 132.794 53.728C133.226 54.46 133.442 55.294 133.442 56.23C133.442 57.166 133.226 58.006 132.794 58.75C132.374 59.482 131.786 60.058 131.03 60.478C130.286 60.898 129.44 61.108 128.492 61.108ZM128.492 59.596C129.104 59.596 129.65 59.458 130.13 59.182C130.622 58.894 131.006 58.498 131.282 57.994C131.558 57.478 131.696 56.89 131.696 56.23C131.696 55.57 131.558 54.988 131.282 54.484C131.006 53.968 130.622 53.572 130.13 53.296C129.65 53.02 129.104 52.882 128.492 52.882C127.88 52.882 127.328 53.02 126.836 53.296C126.356 53.572 125.972 53.968 125.684 54.484C125.408 54.988 125.27 55.57 125.27 56.23C125.27 56.89 125.408 57.478 125.684 57.994C125.972 58.498 126.356 58.894 126.836 59.182C127.328 59.458 127.88 59.596 128.492 59.596ZM137.487 53.062C137.787 52.51 138.231 52.09 138.819 51.802C139.407 51.514 140.121 51.37 140.961 51.37V53.044C140.865 53.032 140.733 53.026 140.565 53.026C139.629 53.026 138.891 53.308 138.351 53.872C137.823 54.424 137.559 55.216 137.559 56.248V61H135.831V51.46H137.487V53.062ZM151.625 56.284C151.625 56.416 151.613 56.59 151.589 56.806H143.849C143.957 57.646 144.323 58.324 144.947 58.84C145.583 59.344 146.369 59.596 147.305 59.596C148.445 59.596 149.363 59.212 150.059 58.444L151.013 59.56C150.581 60.064 150.041 60.448 149.393 60.712C148.757 60.976 148.043 61.108 147.251 61.108C146.243 61.108 145.349 60.904 144.569 60.496C143.789 60.076 143.183 59.494 142.751 58.75C142.331 58.006 142.121 57.166 142.121 56.23C142.121 55.306 142.325 54.472 142.733 53.728C143.153 52.984 143.723 52.408 144.443 52C145.175 51.58 145.997 51.37 146.909 51.37C147.821 51.37 148.631 51.58 149.339 52C150.059 52.408 150.617 52.984 151.013 53.728C151.421 54.472 151.625 55.324 151.625 56.284ZM146.909 52.828C146.081 52.828 145.385 53.08 144.821 53.584C144.269 54.088 143.945 54.748 143.849 55.564H149.969C149.873 54.76 149.543 54.106 148.979 53.602C148.427 53.086 147.737 52.828 146.909 52.828ZM161.595 61.108C160.815 61.108 160.065 61.006 159.345 60.802C158.625 60.586 158.061 60.316 157.653 59.992L158.373 58.624C158.793 58.924 159.303 59.164 159.903 59.344C160.503 59.524 161.109 59.614 161.721 59.614C163.233 59.614 163.989 59.182 163.989 58.318C163.989 58.03 163.887 57.802 163.683 57.634C163.479 57.466 163.221 57.346 162.909 57.274C162.609 57.19 162.177 57.1 161.613 57.004C160.845 56.884 160.215 56.746 159.723 56.59C159.243 56.434 158.829 56.17 158.481 55.798C158.133 55.426 157.959 54.904 157.959 54.232C157.959 53.368 158.319 52.678 159.039 52.162C159.759 51.634 160.725 51.37 161.937 51.37C162.573 51.37 163.209 51.448 163.845 51.604C164.481 51.76 165.003 51.97 165.411 52.234L164.673 53.602C163.893 53.098 162.975 52.846 161.919 52.846C161.187 52.846 160.629 52.966 160.245 53.206C159.861 53.446 159.669 53.764 159.669 54.16C159.669 54.472 159.777 54.718 159.993 54.898C160.209 55.078 160.473 55.21 160.785 55.294C161.109 55.378 161.559 55.474 162.135 55.582C162.903 55.714 163.521 55.858 163.989 56.014C164.469 56.158 164.877 56.41 165.213 56.77C165.549 57.13 165.717 57.634 165.717 58.282C165.717 59.146 165.345 59.836 164.601 60.352C163.869 60.856 162.867 61.108 161.595 61.108ZM172.034 61.108C171.062 61.108 170.192 60.898 169.424 60.478C168.668 60.058 168.074 59.482 167.642 58.75C167.21 58.006 166.994 57.166 166.994 56.23C166.994 55.294 167.21 54.46 167.642 53.728C168.074 52.984 168.668 52.408 169.424 52C170.192 51.58 171.062 51.37 172.034 51.37C172.898 51.37 173.666 51.544 174.338 51.892C175.022 52.24 175.55 52.744 175.922 53.404L174.608 54.25C174.308 53.794 173.936 53.452 173.492 53.224C173.048 52.996 172.556 52.882 172.016 52.882C171.392 52.882 170.828 53.02 170.324 53.296C169.832 53.572 169.442 53.968 169.154 54.484C168.878 54.988 168.74 55.57 168.74 56.23C168.74 56.902 168.878 57.496 169.154 58.012C169.442 58.516 169.832 58.906 170.324 59.182C170.828 59.458 171.392 59.596 172.016 59.596C172.556 59.596 173.048 59.482 173.492 59.254C173.936 59.026 174.308 58.684 174.608 58.228L175.922 59.056C175.55 59.716 175.022 60.226 174.338 60.586C173.666 60.934 172.898 61.108 172.034 61.108ZM182.105 61.108C181.157 61.108 180.305 60.898 179.549 60.478C178.793 60.058 178.199 59.482 177.767 58.75C177.347 58.006 177.137 57.166 177.137 56.23C177.137 55.294 177.347 54.46 177.767 53.728C178.199 52.984 178.793 52.408 179.549 52C180.305 51.58 181.157 51.37 182.105 51.37C183.053 51.37 183.899 51.58 184.643 52C185.399 52.408 185.987 52.984 186.407 53.728C186.839 54.46 187.055 55.294 187.055 56.23C187.055 57.166 186.839 58.006 186.407 58.75C185.987 59.482 185.399 60.058 184.643 60.478C183.899 60.898 183.053 61.108 182.105 61.108ZM182.105 59.596C182.717 59.596 183.263 59.458 183.743 59.182C184.235 58.894 184.619 58.498 184.895 57.994C185.171 57.478 185.309 56.89 185.309 56.23C185.309 55.57 185.171 54.988 184.895 54.484C184.619 53.968 184.235 53.572 183.743 53.296C183.263 53.02 182.717 52.882 182.105 52.882C181.493 52.882 180.941 53.02 180.449 53.296C179.969 53.572 179.585 53.968 179.297 54.484C179.021 54.988 178.883 55.57 178.883 56.23C178.883 56.89 179.021 57.478 179.297 57.994C179.585 58.498 179.969 58.894 180.449 59.182C180.941 59.458 181.493 59.596 182.105 59.596ZM193.531 61.108C192.583 61.108 191.731 60.898 190.975 60.478C190.219 60.058 189.625 59.482 189.193 58.75C188.773 58.006 188.563 57.166 188.563 56.23C188.563 55.294 188.773 54.46 189.193 53.728C189.625 52.984 190.219 52.408 190.975 52C191.731 51.58 192.583 51.37 193.531 51.37C194.479 51.37 195.325 51.58 196.069 52C196.825 52.408 197.413 52.984 197.833 53.728C198.265 54.46 198.481 55.294 198.481 56.23C198.481 57.166 198.265 58.006 197.833 58.75C197.413 59.482 196.825 60.058 196.069 60.478C195.325 60.898 194.479 61.108 193.531 61.108ZM193.531 59.596C194.143 59.596 194.689 59.458 195.169 59.182C195.661 58.894 196.045 58.498 196.321 57.994C196.597 57.478 196.735 56.89 196.735 56.23C196.735 55.57 196.597 54.988 196.321 54.484C196.045 53.968 195.661 53.572 195.169 53.296C194.689 53.02 194.143 52.882 193.531 52.882C192.919 52.882 192.367 53.02 191.875 53.296C191.395 53.572 191.011 53.968 190.723 54.484C190.447 54.988 190.309 55.57 190.309 56.23C190.309 56.89 190.447 57.478 190.723 57.994C191.011 58.498 191.395 58.894 191.875 59.182C192.367 59.458 192.919 59.596 193.531 59.596ZM205.928 51.37C206.852 51.37 207.68 51.574 208.412 51.982C209.144 52.39 209.714 52.96 210.122 53.692C210.542 54.424 210.752 55.27 210.752 56.23C210.752 57.19 210.542 58.042 210.122 58.786C209.714 59.518 209.144 60.088 208.412 60.496C207.68 60.904 206.852 61.108 205.928 61.108C205.244 61.108 204.614 60.976 204.038 60.712C203.474 60.448 202.994 60.064 202.598 59.56V64.492H200.87V51.46H202.526V52.972C202.91 52.444 203.396 52.048 203.984 51.784C204.572 51.508 205.22 51.37 205.928 51.37ZM205.784 59.596C206.396 59.596 206.942 59.458 207.422 59.182C207.914 58.894 208.298 58.498 208.574 57.994C208.862 57.478 209.006 56.89 209.006 56.23C209.006 55.57 208.862 54.988 208.574 54.484C208.298 53.968 207.914 53.572 207.422 53.296C206.942 53.02 206.396 52.882 205.784 52.882C205.184 52.882 204.638 53.026 204.146 53.314C203.666 53.59 203.282 53.98 202.994 54.484C202.718 54.988 202.58 55.57 202.58 56.23C202.58 56.89 202.718 57.478 202.994 57.994C203.27 58.498 203.654 58.894 204.146 59.182C204.638 59.458 205.184 59.596 205.784 59.596ZM215.876 61.108C215.096 61.108 214.346 61.006 213.626 60.802C212.906 60.586 212.342 60.316 211.934 59.992L212.654 58.624C213.074 58.924 213.584 59.164 214.184 59.344C214.784 59.524 215.39 59.614 216.002 59.614C217.514 59.614 218.27 59.182 218.27 58.318C218.27 58.03 218.168 57.802 217.964 57.634C217.76 57.466 217.502 57.346 217.19 57.274C216.89 57.19 216.458 57.1 215.894 57.004C215.126 56.884 214.496 56.746 214.004 56.59C213.524 56.434 213.11 56.17 212.762 55.798C212.414 55.426 212.24 54.904 212.24 54.232C212.24 53.368 212.6 52.678 213.32 52.162C214.04 51.634 215.006 51.37 216.218 51.37C216.854 51.37 217.49 51.448 218.126 51.604C218.762 51.76 219.284 51.97 219.692 52.234L218.954 53.602C218.174 53.098 217.256 52.846 216.2 52.846C215.468 52.846 214.91 52.966 214.526 53.206C214.142 53.446 213.95 53.764 213.95 54.16C213.95 54.472 214.058 54.718 214.274 54.898C214.49 55.078 214.754 55.21 215.066 55.294C215.39 55.378 215.84 55.474 216.416 55.582C217.184 55.714 217.802 55.858 218.27 56.014C218.75 56.158 219.158 56.41 219.494 56.77C219.83 57.13 219.998 57.634 219.998 58.282C219.998 59.146 219.626 59.836 218.882 60.352C218.15 60.856 217.148 61.108 215.876 61.108ZM231.078 61.108C230.13 61.108 229.278 60.898 228.522 60.478C227.766 60.058 227.172 59.482 226.74 58.75C226.32 58.006 226.11 57.166 226.11 56.23C226.11 55.294 226.32 54.46 226.74 53.728C227.172 52.984 227.766 52.408 228.522 52C229.278 51.58 230.13 51.37 231.078 51.37C232.026 51.37 232.872 51.58 233.616 52C234.372 52.408 234.96 52.984 235.38 53.728C235.812 54.46 236.028 55.294 236.028 56.23C236.028 57.166 235.812 58.006 235.38 58.75C234.96 59.482 234.372 60.058 233.616 60.478C232.872 60.898 232.026 61.108 231.078 61.108ZM231.078 59.596C231.69 59.596 232.236 59.458 232.716 59.182C233.208 58.894 233.592 58.498 233.868 57.994C234.144 57.478 234.282 56.89 234.282 56.23C234.282 55.57 234.144 54.988 233.868 54.484C233.592 53.968 233.208 53.572 232.716 53.296C232.236 53.02 231.69 52.882 231.078 52.882C230.466 52.882 229.914 53.02 229.422 53.296C228.942 53.572 228.558 53.968 228.27 54.484C227.994 54.988 227.856 55.57 227.856 56.23C227.856 56.89 227.994 57.478 228.27 57.994C228.558 58.498 228.942 58.894 229.422 59.182C229.914 59.458 230.466 59.596 231.078 59.596ZM241.909 48.958C240.877 48.958 240.361 49.516 240.361 50.632V51.46H243.133V52.882H240.397V61H238.669V52.882H237.049V51.46H238.669V50.614C238.669 49.666 238.945 48.916 239.497 48.364C240.049 47.812 240.823 47.536 241.819 47.536C242.203 47.536 242.563 47.584 242.899 47.68C243.235 47.776 243.523 47.914 243.763 48.094L243.241 49.408C242.845 49.108 242.401 48.958 241.909 48.958ZM252.333 61.108C251.553 61.108 250.803 61.006 250.083 60.802C249.363 60.586 248.799 60.316 248.391 59.992L249.111 58.624C249.531 58.924 250.041 59.164 250.641 59.344C251.241 59.524 251.847 59.614 252.459 59.614C253.971 59.614 254.727 59.182 254.727 58.318C254.727 58.03 254.625 57.802 254.421 57.634C254.217 57.466 253.959 57.346 253.647 57.274C253.347 57.19 252.915 57.1 252.351 57.004C251.583 56.884 250.953 56.746 250.461 56.59C249.981 56.434 249.567 56.17 249.219 55.798C248.871 55.426 248.697 54.904 248.697 54.232C248.697 53.368 249.057 52.678 249.777 52.162C250.497 51.634 251.463 51.37 252.675 51.37C253.311 51.37 253.947 51.448 254.583 51.604C255.219 51.76 255.741 51.97 256.149 52.234L255.411 53.602C254.631 53.098 253.713 52.846 252.657 52.846C251.925 52.846 251.367 52.966 250.983 53.206C250.599 53.446 250.407 53.764 250.407 54.16C250.407 54.472 250.515 54.718 250.731 54.898C250.947 55.078 251.211 55.21 251.523 55.294C251.847 55.378 252.297 55.474 252.873 55.582C253.641 55.714 254.259 55.858 254.727 56.014C255.207 56.158 255.615 56.41 255.951 56.77C256.287 57.13 256.455 57.634 256.455 58.282C256.455 59.146 256.083 59.836 255.339 60.352C254.607 60.856 253.605 61.108 252.333 61.108ZM263.979 60.442C263.727 60.658 263.415 60.826 263.043 60.946C262.671 61.054 262.287 61.108 261.891 61.108C260.931 61.108 260.187 60.85 259.659 60.334C259.131 59.818 258.867 59.08 258.867 58.12V52.882H257.247V51.46H258.867V49.372H260.595V51.46H263.331V52.882H260.595V58.048C260.595 58.564 260.721 58.96 260.973 59.236C261.237 59.512 261.609 59.65 262.089 59.65C262.617 59.65 263.067 59.5 263.439 59.2L263.979 60.442ZM267.724 53.062C268.024 52.51 268.468 52.09 269.056 51.802C269.644 51.514 270.358 51.37 271.198 51.37V53.044C271.102 53.032 270.97 53.026 270.802 53.026C269.866 53.026 269.128 53.308 268.588 53.872C268.06 54.424 267.796 55.216 267.796 56.248V61H266.068V51.46H267.724V53.062ZM276.784 51.37C278.104 51.37 279.112 51.694 279.808 52.342C280.516 52.99 280.87 53.956 280.87 55.24V61H279.232V59.74C278.944 60.184 278.53 60.526 277.99 60.766C277.462 60.994 276.832 61.108 276.1 61.108C275.032 61.108 274.174 60.85 273.526 60.334C272.89 59.818 272.572 59.14 272.572 58.3C272.572 57.46 272.878 56.788 273.49 56.284C274.102 55.768 275.074 55.51 276.406 55.51H279.142V55.168C279.142 54.424 278.926 53.854 278.494 53.458C278.062 53.062 277.426 52.864 276.586 52.864C276.022 52.864 275.47 52.96 274.93 53.152C274.39 53.332 273.934 53.578 273.562 53.89L272.842 52.594C273.334 52.198 273.922 51.898 274.606 51.694C275.29 51.478 276.016 51.37 276.784 51.37ZM276.388 59.776C277.048 59.776 277.618 59.632 278.098 59.344C278.578 59.044 278.926 58.624 279.142 58.084V56.752H276.478C275.014 56.752 274.282 57.244 274.282 58.228C274.282 58.708 274.468 59.086 274.84 59.362C275.212 59.638 275.728 59.776 276.388 59.776ZM298.328 51.46L294.764 61H293.108L290.354 53.764L287.564 61H285.908L282.362 51.46H284L286.772 59.056L289.652 51.46H291.11L293.936 59.092L296.78 51.46H298.328ZM305.139 51.37C306.063 51.37 306.891 51.574 307.623 51.982C308.355 52.39 308.925 52.96 309.333 53.692C309.753 54.424 309.963 55.27 309.963 56.23C309.963 57.19 309.753 58.042 309.333 58.786C308.925 59.518 308.355 60.088 307.623 60.496C306.891 60.904 306.063 61.108 305.139 61.108C304.431 61.108 303.783 60.97 303.195 60.694C302.607 60.418 302.121 60.016 301.737 59.488V61H300.081V47.644H301.809V52.9C302.193 52.396 302.673 52.018 303.249 51.766C303.825 51.502 304.455 51.37 305.139 51.37ZM304.995 59.596C305.607 59.596 306.153 59.458 306.633 59.182C307.125 58.894 307.509 58.498 307.785 57.994C308.073 57.478 308.217 56.89 308.217 56.23C308.217 55.57 308.073 54.988 307.785 54.484C307.509 53.968 307.125 53.572 306.633 53.296C306.153 53.02 305.607 52.882 304.995 52.882C304.395 52.882 303.849 53.02 303.357 53.296C302.865 53.572 302.481 53.968 302.205 54.484C301.929 54.988 301.791 55.57 301.791 56.23C301.791 56.89 301.929 57.478 302.205 57.994C302.481 58.498 302.865 58.894 303.357 59.182C303.849 59.458 304.395 59.596 304.995 59.596ZM320.973 56.284C320.973 56.416 320.961 56.59 320.937 56.806H313.197C313.305 57.646 313.671 58.324 314.295 58.84C314.931 59.344 315.717 59.596 316.653 59.596C317.793 59.596 318.711 59.212 319.407 58.444L320.361 59.56C319.929 60.064 319.389 60.448 318.741 60.712C318.105 60.976 317.391 61.108 316.599 61.108C315.591 61.108 314.697 60.904 313.917 60.496C313.137 60.076 312.531 59.494 312.099 58.75C311.679 58.006 311.469 57.166 311.469 56.23C311.469 55.306 311.673 54.472 312.081 53.728C312.501 52.984 313.071 52.408 313.791 52C314.523 51.58 315.345 51.37 316.257 51.37C317.169 51.37 317.979 51.58 318.687 52C319.407 52.408 319.965 52.984 320.361 53.728C320.769 54.472 320.973 55.324 320.973 56.284ZM316.257 52.828C315.429 52.828 314.733 53.08 314.169 53.584C313.617 54.088 313.293 54.748 313.197 55.564H319.317C319.221 54.76 318.891 54.106 318.327 53.602C317.775 53.086 317.085 52.828 316.257 52.828ZM325.028 53.062C325.328 52.51 325.772 52.09 326.36 51.802C326.948 51.514 327.662 51.37 328.502 51.37V53.044C328.406 53.032 328.274 53.026 328.106 53.026C327.17 53.026 326.432 53.308 325.892 53.872C325.364 54.424 325.1 55.216 325.1 56.248V61H323.372V51.46H325.028V53.062ZM332.288 53.062C332.588 52.51 333.032 52.09 333.62 51.802C334.208 51.514 334.922 51.37 335.762 51.37V53.044C335.666 53.032 335.534 53.026 335.366 53.026C334.43 53.026 333.692 53.308 333.152 53.872C332.624 54.424 332.36 55.216 332.36 56.248V61H330.632V51.46H332.288V53.062ZM346.721 51.46L342.095 61.954C341.687 62.926 341.207 63.61 340.655 64.006C340.115 64.402 339.461 64.6 338.693 64.6C338.225 64.6 337.769 64.522 337.325 64.366C336.893 64.222 336.533 64.006 336.245 63.718L336.983 62.422C337.475 62.89 338.045 63.124 338.693 63.124C339.113 63.124 339.461 63.01 339.737 62.782C340.025 62.566 340.283 62.188 340.511 61.648L340.817 60.982L336.605 51.46H338.405L341.735 59.092L345.029 51.46H346.721ZM353.167 51.46H354.895V61H353.167V51.46ZM354.031 49.624C353.695 49.624 353.413 49.516 353.185 49.3C352.969 49.084 352.861 48.82 352.861 48.508C352.861 48.196 352.969 47.932 353.185 47.716C353.413 47.488 353.695 47.374 354.031 47.374C354.367 47.374 354.643 47.482 354.859 47.698C355.087 47.902 355.201 48.16 355.201 48.472C355.201 48.796 355.087 49.072 354.859 49.3C354.643 49.516 354.367 49.624 354.031 49.624ZM362.353 61.108C361.381 61.108 360.511 60.898 359.743 60.478C358.987 60.058 358.393 59.482 357.961 58.75C357.529 58.006 357.313 57.166 357.313 56.23C357.313 55.294 357.529 54.46 357.961 53.728C358.393 52.984 358.987 52.408 359.743 52C360.511 51.58 361.381 51.37 362.353 51.37C363.217 51.37 363.985 51.544 364.657 51.892C365.341 52.24 365.869 52.744 366.241 53.404L364.927 54.25C364.627 53.794 364.255 53.452 363.811 53.224C363.367 52.996 362.875 52.882 362.335 52.882C361.711 52.882 361.147 53.02 360.643 53.296C360.151 53.572 359.761 53.968 359.473 54.484C359.197 54.988 359.059 55.57 359.059 56.23C359.059 56.902 359.197 57.496 359.473 58.012C359.761 58.516 360.151 58.906 360.643 59.182C361.147 59.458 361.711 59.596 362.335 59.596C362.875 59.596 363.367 59.482 363.811 59.254C364.255 59.026 364.627 58.684 364.927 58.228L366.241 59.056C365.869 59.716 365.341 60.226 364.657 60.586C363.985 60.934 363.217 61.108 362.353 61.108ZM376.959 56.284C376.959 56.416 376.947 56.59 376.923 56.806H369.183C369.291 57.646 369.657 58.324 370.281 58.84C370.917 59.344 371.703 59.596 372.639 59.596C373.779 59.596 374.697 59.212 375.393 58.444L376.347 59.56C375.915 60.064 375.375 60.448 374.727 60.712C374.091 60.976 373.377 61.108 372.585 61.108C371.577 61.108 370.683 60.904 369.903 60.496C369.123 60.076 368.517 59.494 368.085 58.75C367.665 58.006 367.455 57.166 367.455 56.23C367.455 55.306 367.659 54.472 368.067 53.728C368.487 52.984 369.057 52.408 369.777 52C370.509 51.58 371.331 51.37 372.243 51.37C373.155 51.37 373.965 51.58 374.673 52C375.393 52.408 375.951 52.984 376.347 53.728C376.755 54.472 376.959 55.324 376.959 56.284ZM372.243 52.828C371.415 52.828 370.719 53.08 370.155 53.584C369.603 54.088 369.279 54.748 369.183 55.564H375.303C375.207 54.76 374.877 54.106 374.313 53.602C373.761 53.086 373.071 52.828 372.243 52.828ZM388.351 61.108C387.379 61.108 386.509 60.898 385.741 60.478C384.985 60.058 384.391 59.482 383.959 58.75C383.527 58.006 383.311 57.166 383.311 56.23C383.311 55.294 383.527 54.46 383.959 53.728C384.391 52.984 384.985 52.408 385.741 52C386.509 51.58 387.379 51.37 388.351 51.37C389.215 51.37 389.983 51.544 390.655 51.892C391.339 52.24 391.867 52.744 392.239 53.404L390.925 54.25C390.625 53.794 390.253 53.452 389.809 53.224C389.365 52.996 388.873 52.882 388.333 52.882C387.709 52.882 387.145 53.02 386.641 53.296C386.149 53.572 385.759 53.968 385.471 54.484C385.195 54.988 385.057 55.57 385.057 56.23C385.057 56.902 385.195 57.496 385.471 58.012C385.759 58.516 386.149 58.906 386.641 59.182C387.145 59.458 387.709 59.596 388.333 59.596C388.873 59.596 389.365 59.482 389.809 59.254C390.253 59.026 390.625 58.684 390.925 58.228L392.239 59.056C391.867 59.716 391.339 60.226 390.655 60.586C389.983 60.934 389.215 61.108 388.351 61.108ZM396.132 53.062C396.432 52.51 396.876 52.09 397.464 51.802C398.052 51.514 398.766 51.37 399.606 51.37V53.044C399.51 53.032 399.378 53.026 399.21 53.026C398.274 53.026 397.536 53.308 396.996 53.872C396.468 54.424 396.204 55.216 396.204 56.248V61H394.476V51.46H396.132V53.062ZM410.27 56.284C410.27 56.416 410.258 56.59 410.234 56.806H402.494C402.602 57.646 402.968 58.324 403.592 58.84C404.228 59.344 405.014 59.596 405.95 59.596C407.09 59.596 408.008 59.212 408.704 58.444L409.658 59.56C409.226 60.064 408.686 60.448 408.038 60.712C407.402 60.976 406.688 61.108 405.896 61.108C404.888 61.108 403.994 60.904 403.214 60.496C402.434 60.076 401.828 59.494 401.396 58.75C400.976 58.006 400.766 57.166 400.766 56.23C400.766 55.306 400.97 54.472 401.378 53.728C401.798 52.984 402.368 52.408 403.088 52C403.82 51.58 404.642 51.37 405.554 51.37C406.466 51.37 407.276 51.58 407.984 52C408.704 52.408 409.262 52.984 409.658 53.728C410.066 54.472 410.27 55.324 410.27 56.284ZM405.554 52.828C404.726 52.828 404.03 53.08 403.466 53.584C402.914 54.088 402.59 54.748 402.494 55.564H408.614C408.518 54.76 408.188 54.106 407.624 53.602C407.072 53.086 406.382 52.828 405.554 52.828ZM415.88 51.37C417.2 51.37 418.208 51.694 418.904 52.342C419.612 52.99 419.966 53.956 419.966 55.24V61H418.328V59.74C418.04 60.184 417.626 60.526 417.086 60.766C416.558 60.994 415.928 61.108 415.196 61.108C414.128 61.108 413.27 60.85 412.622 60.334C411.986 59.818 411.668 59.14 411.668 58.3C411.668 57.46 411.974 56.788 412.586 56.284C413.198 55.768 414.17 55.51 415.502 55.51H418.238V55.168C418.238 54.424 418.022 53.854 417.59 53.458C417.158 53.062 416.522 52.864 415.682 52.864C415.118 52.864 414.566 52.96 414.026 53.152C413.486 53.332 413.03 53.578 412.658 53.89L411.938 52.594C412.43 52.198 413.018 51.898 413.702 51.694C414.386 51.478 415.112 51.37 415.88 51.37ZM415.484 59.776C416.144 59.776 416.714 59.632 417.194 59.344C417.674 59.044 418.022 58.624 418.238 58.084V56.752H415.574C414.11 56.752 413.378 57.244 413.378 58.228C413.378 58.708 413.564 59.086 413.936 59.362C414.308 59.638 414.824 59.776 415.484 59.776ZM435.097 51.37C436.297 51.37 437.245 51.718 437.941 52.414C438.649 53.11 439.003 54.142 439.003 55.51V61H437.275V55.708C437.275 54.784 437.059 54.088 436.627 53.62C436.207 53.152 435.601 52.918 434.809 52.918C433.933 52.918 433.237 53.194 432.721 53.746C432.205 54.286 431.947 55.066 431.947 56.086V61H430.219V55.708C430.219 54.784 430.003 54.088 429.571 53.62C429.151 53.152 428.545 52.918 427.753 52.918C426.877 52.918 426.181 53.194 425.665 53.746C425.149 54.286 424.891 55.066 424.891 56.086V61H423.163V51.46H424.819V52.882C425.167 52.39 425.623 52.018 426.187 51.766C426.751 51.502 427.393 51.37 428.113 51.37C428.857 51.37 429.517 51.52 430.093 51.82C430.669 52.12 431.113 52.558 431.425 53.134C431.785 52.582 432.283 52.15 432.919 51.838C433.567 51.526 434.293 51.37 435.097 51.37ZM461.453 51.46L457.889 61H456.233L453.479 53.764L450.689 61H449.033L445.487 51.46H447.125L449.897 59.056L452.777 51.46H454.235L457.061 59.092L459.905 51.46H461.453ZM471.565 56.284C471.565 56.416 471.553 56.59 471.529 56.806H463.789C463.897 57.646 464.263 58.324 464.887 58.84C465.523 59.344 466.309 59.596 467.245 59.596C468.385 59.596 469.303 59.212 469.999 58.444L470.953 59.56C470.521 60.064 469.981 60.448 469.333 60.712C468.697 60.976 467.983 61.108 467.191 61.108C466.183 61.108 465.289 60.904 464.509 60.496C463.729 60.076 463.123 59.494 462.691 58.75C462.271 58.006 462.061 57.166 462.061 56.23C462.061 55.306 462.265 54.472 462.673 53.728C463.093 52.984 463.663 52.408 464.383 52C465.115 51.58 465.937 51.37 466.849 51.37C467.761 51.37 468.571 51.58 469.279 52C469.999 52.408 470.557 52.984 470.953 53.728C471.361 54.472 471.565 55.324 471.565 56.284ZM466.849 52.828C466.021 52.828 465.325 53.08 464.761 53.584C464.209 54.088 463.885 54.748 463.789 55.564H469.909C469.813 54.76 469.483 54.106 468.919 53.602C468.367 53.086 467.677 52.828 466.849 52.828ZM475.62 53.062C475.92 52.51 476.364 52.09 476.952 51.802C477.54 51.514 478.254 51.37 479.094 51.37V53.044C478.998 53.032 478.866 53.026 478.698 53.026C477.762 53.026 477.024 53.308 476.484 53.872C475.956 54.424 475.692 55.216 475.692 56.248V61H473.964V51.46H475.62V53.062ZM489.758 56.284C489.758 56.416 489.746 56.59 489.722 56.806H481.982C482.09 57.646 482.456 58.324 483.08 58.84C483.716 59.344 484.502 59.596 485.438 59.596C486.578 59.596 487.496 59.212 488.192 58.444L489.146 59.56C488.714 60.064 488.174 60.448 487.526 60.712C486.89 60.976 486.176 61.108 485.384 61.108C484.376 61.108 483.482 60.904 482.702 60.496C481.922 60.076 481.316 59.494 480.884 58.75C480.464 58.006 480.254 57.166 480.254 56.23C480.254 55.306 480.458 54.472 480.866 53.728C481.286 52.984 481.856 52.408 482.576 52C483.308 51.58 484.13 51.37 485.042 51.37C485.954 51.37 486.764 51.58 487.472 52C488.192 52.408 488.75 52.984 489.146 53.728C489.554 54.472 489.758 55.324 489.758 56.284ZM485.042 52.828C484.214 52.828 483.518 53.08 482.954 53.584C482.402 54.088 482.078 54.748 481.982 55.564H488.102C488.006 54.76 487.676 54.106 487.112 53.602C486.56 53.086 485.87 52.828 485.042 52.828ZM499.728 61.108C498.948 61.108 498.198 61.006 497.478 60.802C496.758 60.586 496.194 60.316 495.786 59.992L496.506 58.624C496.926 58.924 497.436 59.164 498.036 59.344C498.636 59.524 499.242 59.614 499.854 59.614C501.366 59.614 502.122 59.182 502.122 58.318C502.122 58.03 502.02 57.802 501.816 57.634C501.612 57.466 501.354 57.346 501.042 57.274C500.742 57.19 500.31 57.1 499.746 57.004C498.978 56.884 498.348 56.746 497.856 56.59C497.376 56.434 496.962 56.17 496.614 55.798C496.266 55.426 496.092 54.904 496.092 54.232C496.092 53.368 496.452 52.678 497.172 52.162C497.892 51.634 498.858 51.37 500.07 51.37C500.706 51.37 501.342 51.448 501.978 51.604C502.614 51.76 503.136 51.97 503.544 52.234L502.806 53.602C502.026 53.098 501.108 52.846 500.052 52.846C499.32 52.846 498.762 52.966 498.378 53.206C497.994 53.446 497.802 53.764 497.802 54.16C497.802 54.472 497.91 54.718 498.126 54.898C498.342 55.078 498.606 55.21 498.918 55.294C499.242 55.378 499.692 55.474 500.268 55.582C501.036 55.714 501.654 55.858 502.122 56.014C502.602 56.158 503.01 56.41 503.346 56.77C503.682 57.13 503.85 57.634 503.85 58.282C503.85 59.146 503.478 59.836 502.734 60.352C502.002 60.856 501 61.108 499.728 61.108ZM510.095 61.108C509.147 61.108 508.295 60.898 507.539 60.478C506.783 60.058 506.189 59.482 505.757 58.75C505.337 58.006 505.127 57.166 505.127 56.23C505.127 55.294 505.337 54.46 505.757 53.728C506.189 52.984 506.783 52.408 507.539 52C508.295 51.58 509.147 51.37 510.095 51.37C511.043 51.37 511.889 51.58 512.633 52C513.389 52.408 513.977 52.984 514.397 53.728C514.829 54.46 515.045 55.294 515.045 56.23C515.045 57.166 514.829 58.006 514.397 58.75C513.977 59.482 513.389 60.058 512.633 60.478C511.889 60.898 511.043 61.108 510.095 61.108ZM510.095 59.596C510.707 59.596 511.253 59.458 511.733 59.182C512.225 58.894 512.609 58.498 512.885 57.994C513.161 57.478 513.299 56.89 513.299 56.23C513.299 55.57 513.161 54.988 512.885 54.484C512.609 53.968 512.225 53.572 511.733 53.296C511.253 53.02 510.707 52.882 510.095 52.882C509.483 52.882 508.931 53.02 508.439 53.296C507.959 53.572 507.575 53.968 507.287 54.484C507.011 54.988 506.873 55.57 506.873 56.23C506.873 56.89 507.011 57.478 507.287 57.994C507.575 58.498 507.959 58.894 508.439 59.182C508.931 59.458 509.483 59.596 510.095 59.596ZM517.435 47.644H519.163V61H517.435V47.644ZM531.462 47.644V61H529.806V59.488C529.422 60.016 528.936 60.418 528.348 60.694C527.76 60.97 527.112 61.108 526.404 61.108C525.48 61.108 524.652 60.904 523.92 60.496C523.188 60.088 522.612 59.518 522.192 58.786C521.784 58.042 521.58 57.19 521.58 56.23C521.58 55.27 521.784 54.424 522.192 53.692C522.612 52.96 523.188 52.39 523.92 51.982C524.652 51.574 525.48 51.37 526.404 51.37C527.088 51.37 527.718 51.502 528.294 51.766C528.87 52.018 529.35 52.396 529.734 52.9V47.644H531.462ZM526.548 59.596C527.148 59.596 527.694 59.458 528.186 59.182C528.678 58.894 529.062 58.498 529.338 57.994C529.614 57.478 529.752 56.89 529.752 56.23C529.752 55.57 529.614 54.988 529.338 54.484C529.062 53.968 528.678 53.572 528.186 53.296C527.694 53.02 527.148 52.882 526.548 52.882C525.936 52.882 525.384 53.02 524.892 53.296C524.412 53.572 524.028 53.968 523.74 54.484C523.464 54.988 523.326 55.57 523.326 56.23C523.326 56.89 523.464 57.478 523.74 57.994C524.028 58.498 524.412 58.894 524.892 59.182C525.384 59.458 525.936 59.596 526.548 59.596ZM544.93 60.442C544.678 60.658 544.366 60.826 543.994 60.946C543.622 61.054 543.238 61.108 542.842 61.108C541.882 61.108 541.138 60.85 540.61 60.334C540.082 59.818 539.818 59.08 539.818 58.12V52.882H538.198V51.46H539.818V49.372H541.546V51.46H544.282V52.882H541.546V58.048C541.546 58.564 541.672 58.96 541.924 59.236C542.188 59.512 542.56 59.65 543.04 59.65C543.568 59.65 544.018 59.5 544.39 59.2L544.93 60.442ZM552.113 51.37C553.325 51.37 554.285 51.724 554.993 52.432C555.713 53.128 556.073 54.154 556.073 55.51V61H554.345V55.708C554.345 54.784 554.123 54.088 553.679 53.62C553.235 53.152 552.599 52.918 551.771 52.918C550.835 52.918 550.097 53.194 549.557 53.746C549.017 54.286 548.747 55.066 548.747 56.086V61H547.019V47.644H548.747V52.81C549.107 52.354 549.575 52 550.151 51.748C550.739 51.496 551.393 51.37 552.113 51.37ZM562.745 51.37C564.065 51.37 565.073 51.694 565.769 52.342C566.477 52.99 566.831 53.956 566.831 55.24V61H565.193V59.74C564.905 60.184 564.491 60.526 563.951 60.766C563.423 60.994 562.793 61.108 562.061 61.108C560.993 61.108 560.135 60.85 559.487 60.334C558.851 59.818 558.533 59.14 558.533 58.3C558.533 57.46 558.839 56.788 559.451 56.284C560.063 55.768 561.035 55.51 562.367 55.51H565.103V55.168C565.103 54.424 564.887 53.854 564.455 53.458C564.023 53.062 563.387 52.864 562.547 52.864C561.983 52.864 561.431 52.96 560.891 53.152C560.351 53.332 559.895 53.578 559.523 53.89L558.803 52.594C559.295 52.198 559.883 51.898 560.567 51.694C561.251 51.478 561.977 51.37 562.745 51.37ZM562.349 59.776C563.009 59.776 563.579 59.632 564.059 59.344C564.539 59.044 564.887 58.624 565.103 58.084V56.752H562.439C560.975 56.752 560.243 57.244 560.243 58.228C560.243 58.708 560.429 59.086 560.801 59.362C561.173 59.638 561.689 59.776 562.349 59.776ZM575.123 51.37C576.335 51.37 577.295 51.724 578.003 52.432C578.723 53.128 579.083 54.154 579.083 55.51V61H577.355V55.708C577.355 54.784 577.133 54.088 576.689 53.62C576.245 53.152 575.609 52.918 574.781 52.918C573.845 52.918 573.107 53.194 572.567 53.746C572.027 54.286 571.757 55.066 571.757 56.086V61H570.029V51.46H571.685V52.9C572.033 52.408 572.501 52.03 573.089 51.766C573.689 51.502 574.367 51.37 575.123 51.37ZM591.273 61.108C590.301 61.108 589.431 60.898 588.663 60.478C587.907 60.058 587.313 59.482 586.881 58.75C586.449 58.006 586.233 57.166 586.233 56.23C586.233 55.294 586.449 54.46 586.881 53.728C587.313 52.984 587.907 52.408 588.663 52C589.431 51.58 590.301 51.37 591.273 51.37C592.137 51.37 592.905 51.544 593.577 51.892C594.261 52.24 594.789 52.744 595.161 53.404L593.847 54.25C593.547 53.794 593.175 53.452 592.731 53.224C592.287 52.996 591.795 52.882 591.255 52.882C590.631 52.882 590.067 53.02 589.563 53.296C589.071 53.572 588.681 53.968 588.393 54.484C588.117 54.988 587.979 55.57 587.979 56.23C587.979 56.902 588.117 57.496 588.393 58.012C588.681 58.516 589.071 58.906 589.563 59.182C590.067 59.458 590.631 59.596 591.255 59.596C591.795 59.596 592.287 59.482 592.731 59.254C593.175 59.026 593.547 58.684 593.847 58.228L595.161 59.056C594.789 59.716 594.261 60.226 593.577 60.586C592.905 60.934 592.137 61.108 591.273 61.108ZM602.369 51.37C603.581 51.37 604.541 51.724 605.249 52.432C605.969 53.128 606.329 54.154 606.329 55.51V61H604.601V55.708C604.601 54.784 604.379 54.088 603.935 53.62C603.491 53.152 602.855 52.918 602.027 52.918C601.091 52.918 600.353 53.194 599.813 53.746C599.273 54.286 599.003 55.066 599.003 56.086V61H597.275V47.644H599.003V52.81C599.363 52.354 599.831 52 600.407 51.748C600.995 51.496 601.649 51.37 602.369 51.37ZM618.201 56.284C618.201 56.416 618.189 56.59 618.165 56.806H610.425C610.533 57.646 610.899 58.324 611.523 58.84C612.159 59.344 612.945 59.596 613.881 59.596C615.021 59.596 615.939 59.212 616.635 58.444L617.589 59.56C617.157 60.064 616.617 60.448 615.969 60.712C615.333 60.976 614.619 61.108 613.827 61.108C612.819 61.108 611.925 60.904 611.145 60.496C610.365 60.076 609.759 59.494 609.327 58.75C608.907 58.006 608.697 57.166 608.697 56.23C608.697 55.306 608.901 54.472 609.309 53.728C609.729 52.984 610.299 52.408 611.019 52C611.751 51.58 612.573 51.37 613.485 51.37C614.397 51.37 615.207 51.58 615.915 52C616.635 52.408 617.193 52.984 617.589 53.728C617.997 54.472 618.201 55.324 618.201 56.284ZM613.485 52.828C612.657 52.828 611.961 53.08 611.397 53.584C610.845 54.088 610.521 54.748 610.425 55.564H616.545C616.449 54.76 616.119 54.106 615.555 53.602C615.003 53.086 614.313 52.828 613.485 52.828ZM622.257 53.062C622.557 52.51 623.001 52.09 623.589 51.802C624.177 51.514 624.891 51.37 625.731 51.37V53.044C625.635 53.032 625.503 53.026 625.335 53.026C624.399 53.026 623.661 53.308 623.121 53.872C622.593 54.424 622.329 55.216 622.329 56.248V61H620.601V51.46H622.257V53.062ZM629.517 53.062C629.817 52.51 630.261 52.09 630.849 51.802C631.437 51.514 632.151 51.37 632.991 51.37V53.044C632.895 53.032 632.763 53.026 632.595 53.026C631.659 53.026 630.921 53.308 630.381 53.872C629.853 54.424 629.589 55.216 629.589 56.248V61H627.861V51.46H629.517V53.062ZM643.949 51.46L639.323 61.954C638.915 62.926 638.435 63.61 637.883 64.006C637.343 64.402 636.689 64.6 635.921 64.6C635.453 64.6 634.997 64.522 634.553 64.366C634.121 64.222 633.761 64.006 633.473 63.718L634.211 62.422C634.703 62.89 635.273 63.124 635.921 63.124C636.341 63.124 636.689 63.01 636.965 62.782C637.253 62.566 637.511 62.188 637.739 61.648L638.045 60.982L633.833 51.46H635.633L638.963 59.092L642.257 51.46H643.949ZM648.625 57.022C648.625 56.542 648.703 56.122 648.859 55.762C649.027 55.39 649.225 55.078 649.453 54.826C649.693 54.574 650.005 54.274 650.389 53.926C650.869 53.506 651.223 53.146 651.451 52.846C651.679 52.534 651.793 52.162 651.793 51.73C651.793 51.142 651.565 50.674 651.109 50.326C650.653 49.966 650.023 49.786 649.219 49.786C647.815 49.786 646.741 50.26 645.997 51.208L644.683 50.272C645.187 49.624 645.829 49.126 646.609 48.778C647.401 48.43 648.313 48.256 649.345 48.256C650.653 48.256 651.691 48.544 652.459 49.12C653.227 49.684 653.611 50.464 653.611 51.46C653.611 51.952 653.527 52.39 653.359 52.774C653.203 53.146 653.011 53.458 652.783 53.71C652.555 53.962 652.249 54.262 651.865 54.61C651.373 55.054 651.007 55.444 650.767 55.78C650.539 56.116 650.425 56.53 650.425 57.022H648.625ZM649.543 61.108C649.207 61.108 648.925 61 648.697 60.784C648.481 60.556 648.373 60.28 648.373 59.956C648.373 59.632 648.481 59.362 648.697 59.146C648.925 58.918 649.207 58.804 649.543 58.804C649.879 58.804 650.155 58.918 650.371 59.146C650.587 59.362 650.695 59.632 650.695 59.956C650.695 60.28 650.581 60.556 650.353 60.784C650.137 61 649.867 61.108 649.543 61.108Z" fill="#2F2F2F"/>
<path d="M685.745 53.35C686.573 53.35 687.311 53.506 687.959 53.818C688.619 54.13 689.135 54.58 689.507 55.168C689.879 55.744 690.065 56.41 690.065 57.166C690.065 57.958 689.867 58.654 689.471 59.254C689.087 59.854 688.553 60.322 687.869 60.658C687.197 60.982 686.441 61.144 685.601 61.144C683.909 61.144 682.601 60.598 681.677 59.506C680.765 58.414 680.309 56.866 680.309 54.862C680.309 53.458 680.555 52.264 681.047 51.28C681.551 50.284 682.247 49.534 683.135 49.03C684.035 48.514 685.079 48.256 686.267 48.256C686.879 48.256 687.455 48.322 687.995 48.454C688.535 48.574 689.003 48.754 689.399 48.994L688.715 50.398C688.115 50.002 687.311 49.804 686.303 49.804C684.995 49.804 683.969 50.212 683.225 51.028C682.481 51.832 682.109 53.008 682.109 54.556C682.109 54.748 682.115 54.898 682.127 55.006C682.487 54.466 682.979 54.058 683.603 53.782C684.239 53.494 684.953 53.35 685.745 53.35ZM685.529 59.686C686.357 59.686 687.029 59.464 687.545 59.02C688.061 58.576 688.319 57.982 688.319 57.238C688.319 56.494 688.055 55.906 687.527 55.474C687.011 55.03 686.315 54.808 685.439 54.808C684.875 54.808 684.371 54.916 683.927 55.132C683.495 55.348 683.153 55.642 682.901 56.014C682.661 56.386 682.541 56.8 682.541 57.256C682.541 57.7 682.655 58.108 682.883 58.48C683.123 58.84 683.465 59.134 683.909 59.362C684.365 59.578 684.905 59.686 685.529 59.686Z" fill="#2F2F2F"/>
<path d="M670 41H700V39H670V41ZM704 45V65H706V45H704ZM700 69H670V71H700V69ZM666 65V45H664V65H666ZM670 69C667.791 69 666 67.2091 666 65H664C664 68.3137 666.686 71 670 71V69ZM704 65C704 67.2091 702.209 69 700 69V71C703.314 71 706 68.3137 706 65H704ZM700 41C702.209 41 704 42.7909 704 45H706C706 41.6863 703.314 39 700 39V41ZM670 39C666.686 39 664 41.6863 664 45H666C666 42.7909 667.791 41 670 41V39Z" fill="#2F2F2F"/>
<path d="M12.7739 88.4V101H10.9739V95.384H3.73785V101H1.93785V88.4H3.73785V93.818H10.9739V88.4H12.7739ZM20.3793 101.108C19.4313 101.108 18.5793 100.898 17.8233 100.478C17.0673 100.058 16.4733 99.482 16.0413 98.75C15.6213 98.006 15.4113 97.166 15.4113 96.23C15.4113 95.294 15.6213 94.46 16.0413 93.728C16.4733 92.984 17.0673 92.408 17.8233 92C18.5793 91.58 19.4313 91.37 20.3793 91.37C21.3273 91.37 22.1733 91.58 22.9173 92C23.6733 92.408 24.2613 92.984 24.6813 93.728C25.1133 94.46 25.3293 95.294 25.3293 96.23C25.3293 97.166 25.1133 98.006 24.6813 98.75C24.2613 99.482 23.6733 100.058 22.9173 100.478C22.1733 100.898 21.3273 101.108 20.3793 101.108ZM20.3793 99.596C20.9913 99.596 21.5373 99.458 22.0173 99.182C22.5093 98.894 22.8933 98.498 23.1693 97.994C23.4453 97.478 23.5833 96.89 23.5833 96.23C23.5833 95.57 23.4453 94.988 23.1693 94.484C22.8933 93.968 22.5093 93.572 22.0173 93.296C21.5373 93.02 20.9913 92.882 20.3793 92.882C19.7673 92.882 19.2153 93.02 18.7233 93.296C18.2433 93.572 17.8593 93.968 17.5713 94.484C17.2953 94.988 17.1573 95.57 17.1573 96.23C17.1573 96.89 17.2953 97.478 17.5713 97.994C17.8593 98.498 18.2433 98.894 18.7233 99.182C19.2153 99.458 19.7673 99.596 20.3793 99.596ZM41.8914 91.46L38.3274 101H36.6714L33.9174 93.764L31.1274 101H29.4714L25.9254 91.46H27.5634L30.3354 99.056L33.2154 91.46H34.6734L37.4994 99.092L40.3434 91.46H41.8914ZM60.4128 91.37C61.6128 91.37 62.5608 91.718 63.2568 92.414C63.9648 93.11 64.3188 94.142 64.3188 95.51V101H62.5908V95.708C62.5908 94.784 62.3748 94.088 61.9428 93.62C61.5228 93.152 60.9168 92.918 60.1248 92.918C59.2488 92.918 58.5528 93.194 58.0368 93.746C57.5208 94.286 57.2628 95.066 57.2628 96.086V101H55.5348V95.708C55.5348 94.784 55.3188 94.088 54.8868 93.62C54.4668 93.152 53.8608 92.918 53.0688 92.918C52.1928 92.918 51.4968 93.194 50.9808 93.746C50.4648 94.286 50.2068 95.066 50.2068 96.086V101H48.4788V91.46H50.1348V92.882C50.4828 92.39 50.9388 92.018 51.5028 91.766C52.0668 91.502 52.7088 91.37 53.4288 91.37C54.1728 91.37 54.8328 91.52 55.4088 91.82C55.9848 92.12 56.4288 92.558 56.7408 93.134C57.1008 92.582 57.5988 92.15 58.2348 91.838C58.8828 91.526 59.6088 91.37 60.4128 91.37ZM70.9724 91.37C72.2924 91.37 73.3004 91.694 73.9964 92.342C74.7044 92.99 75.0584 93.956 75.0584 95.24V101H73.4204V99.74C73.1324 100.184 72.7184 100.526 72.1784 100.766C71.6504 100.994 71.0204 101.108 70.2884 101.108C69.2204 101.108 68.3624 100.85 67.7144 100.334C67.0784 99.818 66.7604 99.14 66.7604 98.3C66.7604 97.46 67.0664 96.788 67.6784 96.284C68.2904 95.768 69.2624 95.51 70.5944 95.51H73.3304V95.168C73.3304 94.424 73.1144 93.854 72.6824 93.458C72.2504 93.062 71.6144 92.864 70.7744 92.864C70.2104 92.864 69.6584 92.96 69.1184 93.152C68.5784 93.332 68.1224 93.578 67.7504 93.89L67.0304 92.594C67.5224 92.198 68.1104 91.898 68.7944 91.694C69.4784 91.478 70.2044 91.37 70.9724 91.37ZM70.5764 99.776C71.2364 99.776 71.8064 99.632 72.2864 99.344C72.7664 99.044 73.1144 98.624 73.3304 98.084V96.752H70.6664C69.2024 96.752 68.4704 97.244 68.4704 98.228C68.4704 98.708 68.6564 99.086 69.0284 99.362C69.4004 99.638 69.9164 99.776 70.5764 99.776ZM83.3502 91.37C84.5622 91.37 85.5222 91.724 86.2302 92.432C86.9502 93.128 87.3102 94.154 87.3102 95.51V101H85.5822V95.708C85.5822 94.784 85.3602 94.088 84.9162 93.62C84.4722 93.152 83.8362 92.918 83.0082 92.918C82.0722 92.918 81.3342 93.194 80.7942 93.746C80.2542 94.286 79.9842 95.066 79.9842 96.086V101H78.2562V91.46H79.9122V92.9C80.2602 92.408 80.7282 92.03 81.3162 91.766C81.9162 91.502 82.5942 91.37 83.3502 91.37ZM98.7743 91.46L94.1483 101.954C93.7403 102.926 93.2603 103.61 92.7083 104.006C92.1683 104.402 91.5143 104.6 90.7463 104.6C90.2783 104.6 89.8223 104.522 89.3783 104.366C88.9463 104.222 88.5863 104.006 88.2983 103.718L89.0363 102.422C89.5283 102.89 90.0983 103.124 90.7463 103.124C91.1663 103.124 91.5143 103.01 91.7903 102.782C92.0783 102.566 92.3363 102.188 92.5643 101.648L92.8703 100.982L88.6583 91.46H90.4583L93.7883 99.092L97.0823 91.46H98.7743ZM107.957 101.108C107.177 101.108 106.427 101.006 105.707 100.802C104.987 100.586 104.423 100.316 104.015 99.992L104.735 98.624C105.155 98.924 105.665 99.164 106.265 99.344C106.865 99.524 107.471 99.614 108.083 99.614C109.595 99.614 110.351 99.182 110.351 98.318C110.351 98.03 110.249 97.802 110.045 97.634C109.841 97.466 109.583 97.346 109.271 97.274C108.971 97.19 108.539 97.1 107.975 97.004C107.207 96.884 106.577 96.746 106.085 96.59C105.605 96.434 105.191 96.17 104.843 95.798C104.495 95.426 104.321 94.904 104.321 94.232C104.321 93.368 104.681 92.678 105.401 92.162C106.121 91.634 107.087 91.37 108.299 91.37C108.935 91.37 109.571 91.448 110.207 91.604C110.843 91.76 111.365 91.97 111.773 92.234L111.035 93.602C110.255 93.098 109.337 92.846 108.281 92.846C107.549 92.846 106.991 92.966 106.607 93.206C106.223 93.446 106.031 93.764 106.031 94.16C106.031 94.472 106.139 94.718 106.355 94.898C106.571 95.078 106.835 95.21 107.147 95.294C107.471 95.378 107.921 95.474 108.497 95.582C109.265 95.714 109.883 95.858 110.351 96.014C110.831 96.158 111.239 96.41 111.575 96.77C111.911 97.13 112.079 97.634 112.079 98.282C112.079 99.146 111.707 99.836 110.963 100.352C110.231 100.856 109.229 101.108 107.957 101.108ZM118.397 101.108C117.425 101.108 116.555 100.898 115.787 100.478C115.031 100.058 114.437 99.482 114.005 98.75C113.573 98.006 113.357 97.166 113.357 96.23C113.357 95.294 113.573 94.46 114.005 93.728C114.437 92.984 115.031 92.408 115.787 92C116.555 91.58 117.425 91.37 118.397 91.37C119.261 91.37 120.029 91.544 120.701 91.892C121.385 92.24 121.913 92.744 122.285 93.404L120.971 94.25C120.671 93.794 120.299 93.452 119.855 93.224C119.411 92.996 118.919 92.882 118.379 92.882C117.755 92.882 117.191 93.02 116.687 93.296C116.195 93.572 115.805 93.968 115.517 94.484C115.241 94.988 115.103 95.57 115.103 96.23C115.103 96.902 115.241 97.496 115.517 98.012C115.805 98.516 116.195 98.906 116.687 99.182C117.191 99.458 117.755 99.596 118.379 99.596C118.919 99.596 119.411 99.482 119.855 99.254C120.299 99.026 120.671 98.684 120.971 98.228L122.285 99.056C121.913 99.716 121.385 100.226 120.701 100.586C120.029 100.934 119.261 101.108 118.397 101.108ZM128.467 101.108C127.519 101.108 126.667 100.898 125.911 100.478C125.155 100.058 124.561 99.482 124.129 98.75C123.709 98.006 123.499 97.166 123.499 96.23C123.499 95.294 123.709 94.46 124.129 93.728C124.561 92.984 125.155 92.408 125.911 92C126.667 91.58 127.519 91.37 128.467 91.37C129.415 91.37 130.261 91.58 131.005 92C131.761 92.408 132.349 92.984 132.769 93.728C133.201 94.46 133.417 95.294 133.417 96.23C133.417 97.166 133.201 98.006 132.769 98.75C132.349 99.482 131.761 100.058 131.005 100.478C130.261 100.898 129.415 101.108 128.467 101.108ZM128.467 99.596C129.079 99.596 129.625 99.458 130.105 99.182C130.597 98.894 130.981 98.498 131.257 97.994C131.533 97.478 131.671 96.89 131.671 96.23C131.671 95.57 131.533 94.988 131.257 94.484C130.981 93.968 130.597 93.572 130.105 93.296C129.625 93.02 129.079 92.882 128.467 92.882C127.855 92.882 127.303 93.02 126.811 93.296C126.331 93.572 125.947 93.968 125.659 94.484C125.383 94.988 125.245 95.57 125.245 96.23C125.245 96.89 125.383 97.478 125.659 97.994C125.947 98.498 126.331 98.894 126.811 99.182C127.303 99.458 127.855 99.596 128.467 99.596ZM139.893 101.108C138.945 101.108 138.093 100.898 137.337 100.478C136.581 100.058 135.987 99.482 135.555 98.75C135.135 98.006 134.925 97.166 134.925 96.23C134.925 95.294 135.135 94.46 135.555 93.728C135.987 92.984 136.581 92.408 137.337 92C138.093 91.58 138.945 91.37 139.893 91.37C140.841 91.37 141.687 91.58 142.431 92C143.187 92.408 143.775 92.984 144.195 93.728C144.627 94.46 144.843 95.294 144.843 96.23C144.843 97.166 144.627 98.006 144.195 98.75C143.775 99.482 143.187 100.058 142.431 100.478C141.687 100.898 140.841 101.108 139.893 101.108ZM139.893 99.596C140.505 99.596 141.051 99.458 141.531 99.182C142.023 98.894 142.407 98.498 142.683 97.994C142.959 97.478 143.097 96.89 143.097 96.23C143.097 95.57 142.959 94.988 142.683 94.484C142.407 93.968 142.023 93.572 141.531 93.296C141.051 93.02 140.505 92.882 139.893 92.882C139.281 92.882 138.729 93.02 138.237 93.296C137.757 93.572 137.373 93.968 137.085 94.484C136.809 94.988 136.671 95.57 136.671 96.23C136.671 96.89 136.809 97.478 137.085 97.994C137.373 98.498 137.757 98.894 138.237 99.182C138.729 99.458 139.281 99.596 139.893 99.596ZM152.291 91.37C153.215 91.37 154.043 91.574 154.775 91.982C155.507 92.39 156.077 92.96 156.485 93.692C156.905 94.424 157.115 95.27 157.115 96.23C157.115 97.19 156.905 98.042 156.485 98.786C156.077 99.518 155.507 100.088 154.775 100.496C154.043 100.904 153.215 101.108 152.291 101.108C151.607 101.108 150.977 100.976 150.401 100.712C149.837 100.448 149.357 100.064 148.961 99.56V104.492H147.233V91.46H148.889V92.972C149.273 92.444 149.759 92.048 150.347 91.784C150.935 91.508 151.583 91.37 152.291 91.37ZM152.147 99.596C152.759 99.596 153.305 99.458 153.785 99.182C154.277 98.894 154.661 98.498 154.937 97.994C155.225 97.478 155.369 96.89 155.369 96.23C155.369 95.57 155.225 94.988 154.937 94.484C154.661 93.968 154.277 93.572 153.785 93.296C153.305 93.02 152.759 92.882 152.147 92.882C151.547 92.882 151.001 93.026 150.509 93.314C150.029 93.59 149.645 93.98 149.357 94.484C149.081 94.988 148.943 95.57 148.943 96.23C148.943 96.89 149.081 97.478 149.357 97.994C149.633 98.498 150.017 98.894 150.509 99.182C151.001 99.458 151.547 99.596 152.147 99.596ZM162.238 101.108C161.458 101.108 160.708 101.006 159.988 100.802C159.268 100.586 158.704 100.316 158.296 99.992L159.016 98.624C159.436 98.924 159.946 99.164 160.546 99.344C161.146 99.524 161.752 99.614 162.364 99.614C163.876 99.614 164.632 99.182 164.632 98.318C164.632 98.03 164.53 97.802 164.326 97.634C164.122 97.466 163.864 97.346 163.552 97.274C163.252 97.19 162.82 97.1 162.256 97.004C161.488 96.884 160.858 96.746 160.366 96.59C159.886 96.434 159.472 96.17 159.124 95.798C158.776 95.426 158.602 94.904 158.602 94.232C158.602 93.368 158.962 92.678 159.682 92.162C160.402 91.634 161.368 91.37 162.58 91.37C163.216 91.37 163.852 91.448 164.488 91.604C165.124 91.76 165.646 91.97 166.054 92.234L165.316 93.602C164.536 93.098 163.618 92.846 162.562 92.846C161.83 92.846 161.272 92.966 160.888 93.206C160.504 93.446 160.312 93.764 160.312 94.16C160.312 94.472 160.42 94.718 160.636 94.898C160.852 95.078 161.116 95.21 161.428 95.294C161.752 95.378 162.202 95.474 162.778 95.582C163.546 95.714 164.164 95.858 164.632 96.014C165.112 96.158 165.52 96.41 165.856 96.77C166.192 97.13 166.36 97.634 166.36 98.282C166.36 99.146 165.988 99.836 165.244 100.352C164.512 100.856 163.51 101.108 162.238 101.108ZM177.44 101.108C176.492 101.108 175.64 100.898 174.884 100.478C174.128 100.058 173.534 99.482 173.102 98.75C172.682 98.006 172.472 97.166 172.472 96.23C172.472 95.294 172.682 94.46 173.102 93.728C173.534 92.984 174.128 92.408 174.884 92C175.64 91.58 176.492 91.37 177.44 91.37C178.388 91.37 179.234 91.58 179.978 92C180.734 92.408 181.322 92.984 181.742 93.728C182.174 94.46 182.39 95.294 182.39 96.23C182.39 97.166 182.174 98.006 181.742 98.75C181.322 99.482 180.734 100.058 179.978 100.478C179.234 100.898 178.388 101.108 177.44 101.108ZM177.44 99.596C178.052 99.596 178.598 99.458 179.078 99.182C179.57 98.894 179.954 98.498 180.23 97.994C180.506 97.478 180.644 96.89 180.644 96.23C180.644 95.57 180.506 94.988 180.23 94.484C179.954 93.968 179.57 93.572 179.078 93.296C178.598 93.02 178.052 92.882 177.44 92.882C176.828 92.882 176.276 93.02 175.784 93.296C175.304 93.572 174.92 93.968 174.632 94.484C174.356 94.988 174.218 95.57 174.218 96.23C174.218 96.89 174.356 97.478 174.632 97.994C174.92 98.498 175.304 98.894 175.784 99.182C176.276 99.458 176.828 99.596 177.44 99.596ZM188.272 88.958C187.24 88.958 186.724 89.516 186.724 90.632V91.46H189.496V92.882H186.76V101H185.032V92.882H183.412V91.46H185.032V90.614C185.032 89.666 185.308 88.916 185.86 88.364C186.412 87.812 187.186 87.536 188.182 87.536C188.566 87.536 188.926 87.584 189.262 87.68C189.598 87.776 189.886 87.914 190.126 88.094L189.604 89.408C189.208 89.108 188.764 88.958 188.272 88.958ZM195.959 91.46H197.687V101H195.959V91.46ZM196.823 89.624C196.487 89.624 196.205 89.516 195.977 89.3C195.761 89.084 195.653 88.82 195.653 88.508C195.653 88.196 195.761 87.932 195.977 87.716C196.205 87.488 196.487 87.374 196.823 87.374C197.159 87.374 197.435 87.482 197.651 87.698C197.879 87.902 197.993 88.16 197.993 88.472C197.993 88.796 197.879 89.072 197.651 89.3C197.435 89.516 197.159 89.624 196.823 89.624ZM205.145 101.108C204.173 101.108 203.303 100.898 202.535 100.478C201.779 100.058 201.185 99.482 200.753 98.75C200.321 98.006 200.105 97.166 200.105 96.23C200.105 95.294 200.321 94.46 200.753 93.728C201.185 92.984 201.779 92.408 202.535 92C203.303 91.58 204.173 91.37 205.145 91.37C206.009 91.37 206.777 91.544 207.449 91.892C208.133 92.24 208.661 92.744 209.033 93.404L207.719 94.25C207.419 93.794 207.047 93.452 206.603 93.224C206.159 92.996 205.667 92.882 205.127 92.882C204.503 92.882 203.939 93.02 203.435 93.296C202.943 93.572 202.553 93.968 202.265 94.484C201.989 94.988 201.851 95.57 201.851 96.23C201.851 96.902 201.989 97.496 202.265 98.012C202.553 98.516 202.943 98.906 203.435 99.182C203.939 99.458 204.503 99.596 205.127 99.596C205.667 99.596 206.159 99.482 206.603 99.254C207.047 99.026 207.419 98.684 207.719 98.228L209.033 99.056C208.661 99.716 208.133 100.226 207.449 100.586C206.777 100.934 206.009 101.108 205.145 101.108ZM219.751 96.284C219.751 96.416 219.739 96.59 219.715 96.806H211.975C212.083 97.646 212.449 98.324 213.073 98.84C213.709 99.344 214.495 99.596 215.431 99.596C216.571 99.596 217.489 99.212 218.185 98.444L219.139 99.56C218.707 100.064 218.167 100.448 217.519 100.712C216.883 100.976 216.169 101.108 215.377 101.108C214.369 101.108 213.475 100.904 212.695 100.496C211.915 100.076 211.309 99.494 210.877 98.75C210.457 98.006 210.247 97.166 210.247 96.23C210.247 95.306 210.451 94.472 210.859 93.728C211.279 92.984 211.849 92.408 212.569 92C213.301 91.58 214.123 91.37 215.035 91.37C215.947 91.37 216.757 91.58 217.465 92C218.185 92.408 218.743 92.984 219.139 93.728C219.547 94.472 219.751 95.324 219.751 96.284ZM215.035 92.828C214.207 92.828 213.511 93.08 212.947 93.584C212.395 94.088 212.071 94.748 211.975 95.564H218.095C217.999 94.76 217.669 94.106 217.105 93.602C216.553 93.086 215.863 92.828 215.035 92.828ZM231.143 101.108C230.171 101.108 229.301 100.898 228.533 100.478C227.777 100.058 227.183 99.482 226.751 98.75C226.319 98.006 226.103 97.166 226.103 96.23C226.103 95.294 226.319 94.46 226.751 93.728C227.183 92.984 227.777 92.408 228.533 92C229.301 91.58 230.171 91.37 231.143 91.37C232.007 91.37 232.775 91.544 233.447 91.892C234.131 92.24 234.659 92.744 235.031 93.404L233.717 94.25C233.417 93.794 233.045 93.452 232.601 93.224C232.157 92.996 231.665 92.882 231.125 92.882C230.501 92.882 229.937 93.02 229.433 93.296C228.941 93.572 228.551 93.968 228.263 94.484C227.987 94.988 227.849 95.57 227.849 96.23C227.849 96.902 227.987 97.496 228.263 98.012C228.551 98.516 228.941 98.906 229.433 99.182C229.937 99.458 230.501 99.596 231.125 99.596C231.665 99.596 232.157 99.482 232.601 99.254C233.045 99.026 233.417 98.684 233.717 98.228L235.031 99.056C234.659 99.716 234.131 100.226 233.447 100.586C232.775 100.934 232.007 101.108 231.143 101.108ZM238.924 93.062C239.224 92.51 239.668 92.09 240.256 91.802C240.844 91.514 241.558 91.37 242.398 91.37V93.044C242.302 93.032 242.17 93.026 242.002 93.026C241.066 93.026 240.328 93.308 239.788 93.872C239.26 94.424 238.996 95.216 238.996 96.248V101H237.268V91.46H238.924V93.062ZM253.062 96.284C253.062 96.416 253.05 96.59 253.026 96.806H245.286C245.394 97.646 245.76 98.324 246.384 98.84C247.02 99.344 247.806 99.596 248.742 99.596C249.882 99.596 250.8 99.212 251.496 98.444L252.45 99.56C252.018 100.064 251.478 100.448 250.83 100.712C250.194 100.976 249.48 101.108 248.688 101.108C247.68 101.108 246.786 100.904 246.006 100.496C245.226 100.076 244.62 99.494 244.188 98.75C243.768 98.006 243.558 97.166 243.558 96.23C243.558 95.306 243.762 94.472 244.17 93.728C244.59 92.984 245.16 92.408 245.88 92C246.612 91.58 247.434 91.37 248.346 91.37C249.258 91.37 250.068 91.58 250.776 92C251.496 92.408 252.054 92.984 252.45 93.728C252.858 94.472 253.062 95.324 253.062 96.284ZM248.346 92.828C247.518 92.828 246.822 93.08 246.258 93.584C245.706 94.088 245.382 94.748 245.286 95.564H251.406C251.31 94.76 250.98 94.106 250.416 93.602C249.864 93.086 249.174 92.828 248.346 92.828ZM258.672 91.37C259.992 91.37 261 91.694 261.696 92.342C262.404 92.99 262.758 93.956 262.758 95.24V101H261.12V99.74C260.832 100.184 260.418 100.526 259.878 100.766C259.35 100.994 258.72 101.108 257.988 101.108C256.92 101.108 256.062 100.85 255.414 100.334C254.778 99.818 254.46 99.14 254.46 98.3C254.46 97.46 254.766 96.788 255.378 96.284C255.99 95.768 256.962 95.51 258.294 95.51H261.03V95.168C261.03 94.424 260.814 93.854 260.382 93.458C259.95 93.062 259.314 92.864 258.474 92.864C257.91 92.864 257.358 92.96 256.818 93.152C256.278 93.332 255.822 93.578 255.45 93.89L254.73 92.594C255.222 92.198 255.81 91.898 256.494 91.694C257.178 91.478 257.904 91.37 258.672 91.37ZM258.276 99.776C258.936 99.776 259.506 99.632 259.986 99.344C260.466 99.044 260.814 98.624 261.03 98.084V96.752H258.366C256.902 96.752 256.17 97.244 256.17 98.228C256.17 98.708 256.356 99.086 256.728 99.362C257.1 99.638 257.616 99.776 258.276 99.776ZM277.889 91.37C279.089 91.37 280.037 91.718 280.733 92.414C281.441 93.11 281.795 94.142 281.795 95.51V101H280.067V95.708C280.067 94.784 279.851 94.088 279.419 93.62C278.999 93.152 278.393 92.918 277.601 92.918C276.725 92.918 276.029 93.194 275.513 93.746C274.997 94.286 274.739 95.066 274.739 96.086V101H273.011V95.708C273.011 94.784 272.795 94.088 272.363 93.62C271.943 93.152 271.337 92.918 270.545 92.918C269.669 92.918 268.973 93.194 268.457 93.746C267.941 94.286 267.683 95.066 267.683 96.086V101H265.955V91.46H267.611V92.882C267.959 92.39 268.415 92.018 268.979 91.766C269.543 91.502 270.185 91.37 270.905 91.37C271.649 91.37 272.309 91.52 272.885 91.82C273.461 92.12 273.905 92.558 274.217 93.134C274.577 92.582 275.075 92.15 275.711 91.838C276.359 91.526 277.085 91.37 277.889 91.37ZM304.245 91.46L300.681 101H299.025L296.271 93.764L293.481 101H291.825L288.279 91.46H289.917L292.689 99.056L295.569 91.46H297.027L299.853 99.092L302.697 91.46H304.245ZM314.357 96.284C314.357 96.416 314.345 96.59 314.321 96.806H306.581C306.689 97.646 307.055 98.324 307.679 98.84C308.315 99.344 309.101 99.596 310.037 99.596C311.177 99.596 312.095 99.212 312.791 98.444L313.745 99.56C313.313 100.064 312.773 100.448 312.125 100.712C311.489 100.976 310.775 101.108 309.983 101.108C308.975 101.108 308.081 100.904 307.301 100.496C306.521 100.076 305.915 99.494 305.483 98.75C305.063 98.006 304.853 97.166 304.853 96.23C304.853 95.306 305.057 94.472 305.465 93.728C305.885 92.984 306.455 92.408 307.175 92C307.907 91.58 308.729 91.37 309.641 91.37C310.553 91.37 311.363 91.58 312.071 92C312.791 92.408 313.349 92.984 313.745 93.728C314.153 94.472 314.357 95.324 314.357 96.284ZM309.641 92.828C308.813 92.828 308.117 93.08 307.553 93.584C307.001 94.088 306.677 94.748 306.581 95.564H312.701C312.605 94.76 312.275 94.106 311.711 93.602C311.159 93.086 310.469 92.828 309.641 92.828ZM318.412 93.062C318.712 92.51 319.156 92.09 319.744 91.802C320.332 91.514 321.046 91.37 321.886 91.37V93.044C321.79 93.032 321.658 93.026 321.49 93.026C320.554 93.026 319.816 93.308 319.276 93.872C318.748 94.424 318.484 95.216 318.484 96.248V101H316.756V91.46H318.412V93.062ZM332.55 96.284C332.55 96.416 332.538 96.59 332.514 96.806H324.774C324.882 97.646 325.248 98.324 325.872 98.84C326.508 99.344 327.294 99.596 328.23 99.596C329.37 99.596 330.288 99.212 330.984 98.444L331.938 99.56C331.506 100.064 330.966 100.448 330.318 100.712C329.682 100.976 328.968 101.108 328.176 101.108C327.168 101.108 326.274 100.904 325.494 100.496C324.714 100.076 324.108 99.494 323.676 98.75C323.256 98.006 323.046 97.166 323.046 96.23C323.046 95.306 323.25 94.472 323.658 93.728C324.078 92.984 324.648 92.408 325.368 92C326.1 91.58 326.922 91.37 327.834 91.37C328.746 91.37 329.556 91.58 330.264 92C330.984 92.408 331.542 92.984 331.938 93.728C332.346 94.472 332.55 95.324 332.55 96.284ZM327.834 92.828C327.006 92.828 326.31 93.08 325.746 93.584C325.194 94.088 324.87 94.748 324.774 95.564H330.894C330.798 94.76 330.468 94.106 329.904 93.602C329.352 93.086 328.662 92.828 327.834 92.828ZM342.52 101.108C341.74 101.108 340.99 101.006 340.27 100.802C339.55 100.586 338.986 100.316 338.578 99.992L339.298 98.624C339.718 98.924 340.228 99.164 340.828 99.344C341.428 99.524 342.034 99.614 342.646 99.614C344.158 99.614 344.914 99.182 344.914 98.318C344.914 98.03 344.812 97.802 344.608 97.634C344.404 97.466 344.146 97.346 343.834 97.274C343.534 97.19 343.102 97.1 342.538 97.004C341.77 96.884 341.14 96.746 340.648 96.59C340.168 96.434 339.754 96.17 339.406 95.798C339.058 95.426 338.884 94.904 338.884 94.232C338.884 93.368 339.244 92.678 339.964 92.162C340.684 91.634 341.65 91.37 342.862 91.37C343.498 91.37 344.134 91.448 344.77 91.604C345.406 91.76 345.928 91.97 346.336 92.234L345.598 93.602C344.818 93.098 343.9 92.846 342.844 92.846C342.112 92.846 341.554 92.966 341.17 93.206C340.786 93.446 340.594 93.764 340.594 94.16C340.594 94.472 340.702 94.718 340.918 94.898C341.134 95.078 341.398 95.21 341.71 95.294C342.034 95.378 342.484 95.474 343.06 95.582C343.828 95.714 344.446 95.858 344.914 96.014C345.394 96.158 345.802 96.41 346.138 96.77C346.474 97.13 346.642 97.634 346.642 98.282C346.642 99.146 346.27 99.836 345.526 100.352C344.794 100.856 343.792 101.108 342.52 101.108ZM352.887 101.108C351.939 101.108 351.087 100.898 350.331 100.478C349.575 100.058 348.981 99.482 348.549 98.75C348.129 98.006 347.919 97.166 347.919 96.23C347.919 95.294 348.129 94.46 348.549 93.728C348.981 92.984 349.575 92.408 350.331 92C351.087 91.58 351.939 91.37 352.887 91.37C353.835 91.37 354.681 91.58 355.425 92C356.181 92.408 356.769 92.984 357.189 93.728C357.621 94.46 357.837 95.294 357.837 96.23C357.837 97.166 357.621 98.006 357.189 98.75C356.769 99.482 356.181 100.058 355.425 100.478C354.681 100.898 353.835 101.108 352.887 101.108ZM352.887 99.596C353.499 99.596 354.045 99.458 354.525 99.182C355.017 98.894 355.401 98.498 355.677 97.994C355.953 97.478 356.091 96.89 356.091 96.23C356.091 95.57 355.953 94.988 355.677 94.484C355.401 93.968 355.017 93.572 354.525 93.296C354.045 93.02 353.499 92.882 352.887 92.882C352.275 92.882 351.723 93.02 351.231 93.296C350.751 93.572 350.367 93.968 350.079 94.484C349.803 94.988 349.665 95.57 349.665 96.23C349.665 96.89 349.803 97.478 350.079 97.994C350.367 98.498 350.751 98.894 351.231 99.182C351.723 99.458 352.275 99.596 352.887 99.596ZM360.227 87.644H361.955V101H360.227V87.644ZM374.254 87.644V101H372.598V99.488C372.214 100.016 371.728 100.418 371.14 100.694C370.552 100.97 369.904 101.108 369.196 101.108C368.272 101.108 367.444 100.904 366.712 100.496C365.98 100.088 365.404 99.518 364.984 98.786C364.576 98.042 364.372 97.19 364.372 96.23C364.372 95.27 364.576 94.424 364.984 93.692C365.404 92.96 365.98 92.39 366.712 91.982C367.444 91.574 368.272 91.37 369.196 91.37C369.88 91.37 370.51 91.502 371.086 91.766C371.662 92.018 372.142 92.396 372.526 92.9V87.644H374.254ZM369.34 99.596C369.94 99.596 370.486 99.458 370.978 99.182C371.47 98.894 371.854 98.498 372.13 97.994C372.406 97.478 372.544 96.89 372.544 96.23C372.544 95.57 372.406 94.988 372.13 94.484C371.854 93.968 371.47 93.572 370.978 93.296C370.486 93.02 369.94 92.882 369.34 92.882C368.728 92.882 368.176 93.02 367.684 93.296C367.204 93.572 366.82 93.968 366.532 94.484C366.256 94.988 366.118 95.57 366.118 96.23C366.118 96.89 366.256 97.478 366.532 97.994C366.82 98.498 367.204 98.894 367.684 99.182C368.176 99.458 368.728 99.596 369.34 99.596ZM382.358 91.46H384.086V101H382.358V91.46ZM383.222 89.624C382.886 89.624 382.604 89.516 382.376 89.3C382.16 89.084 382.052 88.82 382.052 88.508C382.052 88.196 382.16 87.932 382.376 87.716C382.604 87.488 382.886 87.374 383.222 87.374C383.558 87.374 383.834 87.482 384.05 87.698C384.278 87.902 384.392 88.16 384.392 88.472C384.392 88.796 384.278 89.072 384.05 89.3C383.834 89.516 383.558 89.624 383.222 89.624ZM392.479 91.37C393.691 91.37 394.651 91.724 395.359 92.432C396.079 93.128 396.439 94.154 396.439 95.51V101H394.711V95.708C394.711 94.784 394.489 94.088 394.045 93.62C393.601 93.152 392.965 92.918 392.137 92.918C391.201 92.918 390.463 93.194 389.923 93.746C389.383 94.286 389.113 95.066 389.113 96.086V101H387.385V91.46H389.041V92.9C389.389 92.408 389.857 92.03 390.445 91.766C391.045 91.502 391.723 91.37 392.479 91.37ZM409.835 100.442C409.583 100.658 409.271 100.826 408.899 100.946C408.527 101.054 408.143 101.108 407.747 101.108C406.787 101.108 406.043 100.85 405.515 100.334C404.987 99.818 404.723 99.08 404.723 98.12V92.882H403.103V91.46H404.723V89.372H406.451V91.46H409.187V92.882H406.451V98.048C406.451 98.564 406.577 98.96 406.829 99.236C407.093 99.512 407.465 99.65 407.945 99.65C408.473 99.65 408.923 99.5 409.295 99.2L409.835 100.442ZM415.694 101.108C414.746 101.108 413.894 100.898 413.138 100.478C412.382 100.058 411.788 99.482 411.356 98.75C410.936 98.006 410.726 97.166 410.726 96.23C410.726 95.294 410.936 94.46 411.356 93.728C411.788 92.984 412.382 92.408 413.138 92C413.894 91.58 414.746 91.37 415.694 91.37C416.642 91.37 417.488 91.58 418.232 92C418.988 92.408 419.576 92.984 419.996 93.728C420.428 94.46 420.644 95.294 420.644 96.23C420.644 97.166 420.428 98.006 419.996 98.75C419.576 99.482 418.988 100.058 418.232 100.478C417.488 100.898 416.642 101.108 415.694 101.108ZM415.694 99.596C416.306 99.596 416.852 99.458 417.332 99.182C417.824 98.894 418.208 98.498 418.484 97.994C418.76 97.478 418.898 96.89 418.898 96.23C418.898 95.57 418.76 94.988 418.484 94.484C418.208 93.968 417.824 93.572 417.332 93.296C416.852 93.02 416.306 92.882 415.694 92.882C415.082 92.882 414.53 93.02 414.038 93.296C413.558 93.572 413.174 93.968 412.886 94.484C412.61 94.988 412.472 95.57 412.472 96.23C412.472 96.89 412.61 97.478 412.886 97.994C413.174 98.498 413.558 98.894 414.038 99.182C414.53 99.458 415.082 99.596 415.694 99.596ZM428.398 100.442C428.146 100.658 427.834 100.826 427.462 100.946C427.09 101.054 426.706 101.108 426.31 101.108C425.35 101.108 424.606 100.85 424.078 100.334C423.55 99.818 423.286 99.08 423.286 98.12V92.882H421.666V91.46H423.286V89.372H425.014V91.46H427.75V92.882H425.014V98.048C425.014 98.564 425.14 98.96 425.392 99.236C425.656 99.512 426.028 99.65 426.508 99.65C427.036 99.65 427.486 99.5 427.858 99.2L428.398 100.442ZM433.961 91.37C435.281 91.37 436.289 91.694 436.985 92.342C437.693 92.99 438.047 93.956 438.047 95.24V101H436.409V99.74C436.121 100.184 435.707 100.526 435.167 100.766C434.639 100.994 434.009 101.108 433.277 101.108C432.209 101.108 431.351 100.85 430.703 100.334C430.067 99.818 429.749 99.14 429.749 98.3C429.749 97.46 430.055 96.788 430.667 96.284C431.279 95.768 432.251 95.51 433.583 95.51H436.319V95.168C436.319 94.424 436.103 93.854 435.671 93.458C435.239 93.062 434.603 92.864 433.763 92.864C433.199 92.864 432.647 92.96 432.107 93.152C431.567 93.332 431.111 93.578 430.739 93.89L430.019 92.594C430.511 92.198 431.099 91.898 431.783 91.694C432.467 91.478 433.193 91.37 433.961 91.37ZM433.565 99.776C434.225 99.776 434.795 99.632 435.275 99.344C435.755 99.044 436.103 98.624 436.319 98.084V96.752H433.655C432.191 96.752 431.459 97.244 431.459 98.228C431.459 98.708 431.645 99.086 432.017 99.362C432.389 99.638 432.905 99.776 433.565 99.776ZM441.244 87.644H442.972V101H441.244V87.644ZM448.738 97.022C448.738 96.542 448.816 96.122 448.972 95.762C449.14 95.39 449.338 95.078 449.566 94.826C449.806 94.574 450.118 94.274 450.502 93.926C450.982 93.506 451.336 93.146 451.564 92.846C451.792 92.534 451.906 92.162 451.906 91.73C451.906 91.142 451.678 90.674 451.222 90.326C450.766 89.966 450.136 89.786 449.332 89.786C447.928 89.786 446.854 90.26 446.11 91.208L444.796 90.272C445.3 89.624 445.942 89.126 446.722 88.778C447.514 88.43 448.426 88.256 449.458 88.256C450.766 88.256 451.804 88.544 452.572 89.12C453.34 89.684 453.724 90.464 453.724 91.46C453.724 91.952 453.64 92.39 453.472 92.774C453.316 93.146 453.124 93.458 452.896 93.71C452.668 93.962 452.362 94.262 451.978 94.61C451.486 95.054 451.12 95.444 450.88 95.78C450.652 96.116 450.538 96.53 450.538 97.022H448.738ZM449.656 101.108C449.32 101.108 449.038 101 448.81 100.784C448.594 100.556 448.486 100.28 448.486 99.956C448.486 99.632 448.594 99.362 448.81 99.146C449.038 98.918 449.32 98.804 449.656 98.804C449.992 98.804 450.268 98.918 450.484 99.146C450.7 99.362 450.808 99.632 450.808 99.956C450.808 100.28 450.694 100.556 450.466 100.784C450.25 101 449.98 101.108 449.656 101.108Z" fill="#2F2F2F"/>
<path d="M485.312 97.904H482.918V101H481.172V97.904H474.17V96.644L480.614 88.4H482.558L476.384 96.356H481.226V93.62H482.918V96.356H485.312V97.904ZM490.354 88.256C492.046 88.256 493.348 88.802 494.26 89.894C495.184 90.986 495.646 92.534 495.646 94.538C495.646 95.942 495.394 97.142 494.89 98.138C494.398 99.122 493.702 99.872 492.802 100.388C491.914 100.892 490.876 101.144 489.688 101.144C489.076 101.144 488.5 101.084 487.96 100.964C487.42 100.832 486.952 100.646 486.556 100.406L487.24 99.002C487.852 99.398 488.662 99.596 489.67 99.596C490.978 99.596 491.998 99.194 492.73 98.39C493.474 97.574 493.846 96.392 493.846 94.844V94.394C493.486 94.934 492.988 95.348 492.352 95.636C491.716 95.912 491.002 96.05 490.21 96.05C489.382 96.05 488.638 95.894 487.978 95.582C487.33 95.27 486.82 94.826 486.448 94.25C486.088 93.662 485.908 92.99 485.908 92.234C485.908 91.442 486.1 90.746 486.484 90.146C486.88 89.546 487.414 89.084 488.086 88.76C488.758 88.424 489.514 88.256 490.354 88.256ZM490.516 94.592C491.08 94.592 491.584 94.484 492.028 94.268C492.472 94.052 492.814 93.758 493.054 93.386C493.306 93.014 493.432 92.6 493.432 92.144C493.432 91.7 493.312 91.298 493.072 90.938C492.844 90.566 492.502 90.272 492.046 90.056C491.602 89.828 491.062 89.714 490.426 89.714C489.598 89.714 488.926 89.936 488.41 90.38C487.906 90.824 487.654 91.418 487.654 92.162C487.654 92.906 487.912 93.5 488.428 93.944C488.944 94.376 489.64 94.592 490.516 94.592Z" fill="#2F2F2F"/>
<path d="M470 81H500V79H470V81ZM504 85V105H506V85H504ZM500 109H470V111H500V109ZM466 105V85H464V105H466ZM470 109C467.791 109 466 107.209 466 105H464C464 108.314 466.686 111 470 111V109ZM504 105C504 107.209 502.209 109 500 109V111C503.314 111 506 108.314 506 105H504ZM500 81C502.209 81 504 82.7909 504 85H506C506 81.6863 503.314 79 500 79V81ZM470 79C466.686 79 464 81.6863 464 85H466C466 82.7909 467.791 81 470 81V79Z" fill="#2F2F2F"/>
</svg>
