<svg width="570" height="341" viewBox="0 0 570 341" fill="none" xmlns="http://www.w3.org/2000/svg">
<g clip-path="url(#clip0_1_3797)">
<line x1="55" y1="273.456" x2="570" y2="273.456" stroke="#A1B9BC" stroke-width="1.08811" stroke-dasharray="2.18 2.18"/>
<line x1="55" y1="257.456" x2="570" y2="257.456" stroke="#A1B9BC" stroke-width="1.08811" stroke-dasharray="2.18 2.18"/>
<line x1="55" y1="241.456" x2="570" y2="241.456" stroke="#A1B9BC" stroke-width="1.08811" stroke-dasharray="2.18 2.18"/>
<line x1="55" y1="225.456" x2="570" y2="225.456" stroke="#A1B9BC" stroke-width="1.08811" stroke-dasharray="2.18 2.18"/>
<line x1="55" y1="209.456" x2="570" y2="209.456" stroke="#A1B9BC" stroke-width="1.08811" stroke-dasharray="2.18 2.18"/>
<line x1="55" y1="193.456" x2="570" y2="193.456" stroke="#A1B9BC" stroke-width="1.08811" stroke-dasharray="2.18 2.18"/>
<line x1="55" y1="177.456" x2="570" y2="177.456" stroke="#A1B9BC" stroke-width="1.08811" stroke-dasharray="2.18 2.18"/>
<line x1="55" y1="161.456" x2="570" y2="161.456" stroke="#A1B9BC" stroke-width="1.08811" stroke-dasharray="2.18 2.18"/>
<line x1="55" y1="48.4559" x2="570" y2="48.4559" stroke="#A1B9BC" stroke-width="1.08811" stroke-dasharray="2.18 2.18"/>
<line x1="55" y1="32.4559" x2="570" y2="32.4559" stroke="#A1B9BC" stroke-width="1.08811" stroke-dasharray="2.18 2.18"/>
<line x1="55" y1="16.4559" x2="570" y2="16.4559" stroke="#A1B9BC" stroke-width="1.08811" stroke-dasharray="2.18 2.18"/>
<line x1="55" y1="145.456" x2="570" y2="145.456" stroke="#A1B9BC" stroke-width="1.08811" stroke-dasharray="2.18 2.18"/>
<line x1="55" y1="129.456" x2="570" y2="129.456" stroke="#A1B9BC" stroke-width="1.08811" stroke-dasharray="2.18 2.18"/>
<line x1="55" y1="113.456" x2="570" y2="113.456" stroke="#A1B9BC" stroke-width="1.08811" stroke-dasharray="2.18 2.18"/>
<line x1="55" y1="97.4559" x2="570" y2="97.4559" stroke="#A1B9BC" stroke-width="1.08811" stroke-dasharray="2.18 2.18"/>
<line x1="55" y1="81.4559" x2="570" y2="81.4559" stroke="#A1B9BC" stroke-width="1.08811" stroke-dasharray="2.18 2.18"/>
<line x1="55" y1="65.4559" x2="570" y2="65.4559" stroke="#A1B9BC" stroke-width="1.08811" stroke-dasharray="2.18 2.18"/>
<path d="M51.9727 285.766C51.9727 287.212 51.7011 288.303 51.1577 289.04C50.619 289.772 49.797 290.138 48.6919 290.138C47.6052 290.138 46.7856 289.781 46.2331 289.068C45.6851 288.349 45.4042 287.288 45.3904 285.883V284.143C45.3904 282.697 45.6598 281.613 46.1985 280.89C46.7419 280.167 47.5684 279.805 48.6781 279.805C49.7786 279.805 50.5982 280.158 51.137 280.862C51.6803 281.567 51.9589 282.621 51.9727 284.026V285.766ZM50.2943 283.887C50.2943 282.943 50.1654 282.253 49.9076 281.815C49.6497 281.373 49.2399 281.152 48.6781 281.152C48.1302 281.152 47.7273 281.362 47.4694 281.781C47.2115 282.195 47.0757 282.844 47.0619 283.729V286.008C47.0619 286.947 47.1931 287.647 47.4556 288.108C47.7181 288.568 48.1302 288.798 48.6919 288.798C49.2307 288.798 49.629 288.586 49.8868 288.163C50.1447 287.735 50.2805 287.067 50.2943 286.16V283.887Z" fill="#637173"/>
<path d="M52.1799 263H45.418V261.847L48.7679 258.193C49.2514 257.654 49.5944 257.205 49.797 256.846C50.0043 256.482 50.1079 256.118 50.1079 255.755C50.1079 255.276 49.972 254.889 49.7003 254.594C49.4333 254.3 49.0718 254.152 48.616 254.152C48.0726 254.152 47.6513 254.318 47.352 254.65C47.0527 254.981 46.903 255.435 46.903 256.01H45.2247C45.2247 255.398 45.3628 254.848 45.6391 254.359C45.92 253.867 46.3183 253.485 46.834 253.213C47.3543 252.941 47.9529 252.805 48.6298 252.805C49.606 252.805 50.3749 253.052 50.9367 253.544C51.5031 254.032 51.7862 254.709 51.7862 255.575C51.7862 256.077 51.6435 256.604 51.358 257.157C51.0771 257.705 50.6144 258.329 49.9697 259.029L47.5108 261.66H52.1799V263Z" fill="#637173"/>
<path d="M51.0955 226.415H52.3457V227.762H51.0955V230H49.4172V227.762H45.0727L45.0244 226.74L49.3619 219.944H51.0955V226.415ZM46.7856 226.415H49.4172V222.216L49.2928 222.437L46.7856 226.415Z" fill="#637173"/>
<path d="M50.6397 188.895V190.283H50.4325C49.4931 190.297 48.7426 190.555 48.1808 191.057C47.6191 191.559 47.2852 192.27 47.1793 193.191C47.7181 192.625 48.4064 192.342 49.2445 192.342C50.1332 192.342 50.8331 192.655 51.3442 193.281C51.8599 193.907 52.1178 194.715 52.1178 195.705C52.1178 196.728 51.8162 197.556 51.213 198.192C50.6144 198.823 49.827 199.138 48.8508 199.138C47.847 199.138 47.032 198.767 46.4057 198.026C45.7841 197.285 45.4733 196.313 45.4733 195.111V194.538C45.4733 192.775 45.9015 191.393 46.758 190.394C47.6191 189.395 48.8554 188.895 50.467 188.895H50.6397ZM48.837 193.695C48.4686 193.695 48.1302 193.799 47.8217 194.006C47.5178 194.213 47.2944 194.49 47.1517 194.835V195.346C47.1517 196.092 47.3082 196.686 47.6214 197.128C47.9345 197.566 48.3397 197.784 48.837 197.784C49.3343 197.784 49.728 197.598 50.0181 197.225C50.3082 196.852 50.4532 196.362 50.4532 195.754C50.4532 195.146 50.3059 194.651 50.0112 194.269C49.7165 193.887 49.3251 193.695 48.837 193.695Z" fill="#637173"/>
<path d="M51.7517 159.596C51.7517 160.088 51.6251 160.528 51.3718 160.915C51.1186 161.297 50.7732 161.599 50.3358 161.82C50.8607 162.064 51.2636 162.398 51.5445 162.821C51.83 163.245 51.9727 163.724 51.9727 164.258C51.9727 165.142 51.6734 165.844 51.0748 166.365C50.4762 166.88 49.6796 167.138 48.685 167.138C47.6858 167.138 46.8846 166.878 46.2814 166.358C45.6828 165.837 45.3835 165.137 45.3835 164.258C45.3835 163.719 45.5263 163.236 45.8117 162.807C46.0972 162.379 46.4978 162.05 47.0135 161.82C46.5807 161.599 46.2377 161.297 45.9844 160.915C45.7358 160.528 45.6114 160.088 45.6114 159.596C45.6114 158.739 45.8877 158.06 46.4403 157.558C46.9928 157.056 47.7388 156.805 48.6781 156.805C49.6221 156.805 50.3703 157.056 50.9229 157.558C51.4754 158.06 51.7517 158.739 51.7517 159.596ZM50.2943 164.175C50.2943 163.678 50.1447 163.277 49.8454 162.973C49.5507 162.665 49.1593 162.51 48.6712 162.51C48.1831 162.51 47.7917 162.662 47.497 162.966C47.2069 163.27 47.0619 163.673 47.0619 164.175C47.0619 164.668 47.2046 165.061 47.4901 165.356C47.7802 165.651 48.1785 165.798 48.685 165.798C49.1915 165.798 49.5852 165.655 49.8661 165.37C50.1516 165.084 50.2943 164.686 50.2943 164.175ZM50.0802 159.658C50.0802 159.22 49.9536 158.861 49.7003 158.58C49.4471 158.295 49.1063 158.152 48.6781 158.152C48.2499 158.152 47.9114 158.288 47.6628 158.56C47.4142 158.827 47.2898 159.193 47.2898 159.658C47.2898 160.118 47.4142 160.484 47.6628 160.756C47.9161 161.028 48.2568 161.164 48.685 161.164C49.1133 161.164 49.4517 161.028 49.7003 160.756C49.9536 160.484 50.0802 160.118 50.0802 159.658Z" fill="#637173"/>
<path d="M42.2183 135H40.5468V126.926L38.081 127.768V126.353L42.0042 124.909H42.2183V135ZM52.2679 130.766C52.2679 132.212 51.9962 133.303 51.4528 134.04C50.9141 134.772 50.0922 135.138 48.9871 135.138C47.9004 135.138 47.0808 134.781 46.5282 134.068C45.9803 133.349 45.6994 132.288 45.6856 130.883V129.143C45.6856 127.697 45.9549 126.613 46.4937 125.89C47.037 125.167 47.8635 124.805 48.9733 124.805C50.0738 124.805 50.8934 125.158 51.4321 125.862C51.9755 126.567 52.2541 127.621 52.2679 129.026V130.766ZM50.5895 128.887C50.5895 127.943 50.4606 127.253 50.2027 126.815C49.9448 126.373 49.535 126.152 48.9733 126.152C48.4253 126.152 48.0224 126.362 47.7645 126.781C47.5067 127.195 47.3708 127.844 47.357 128.729V131.008C47.357 131.947 47.4883 132.647 47.7507 133.108C48.0132 133.568 48.4253 133.798 48.9871 133.798C49.5258 133.798 49.9241 133.586 50.182 133.163C50.4398 132.735 50.5757 132.067 50.5895 131.16V128.887Z" fill="#637173"/>
<path d="M42.2183 103H40.5468V94.9258L38.081 95.7684V94.3525L42.0042 92.909H42.2183V103ZM52.4751 103H45.7132V101.847L49.063 98.1928C49.5465 97.654 49.8896 97.2051 50.0922 96.8459C50.2994 96.4822 50.403 96.1184 50.403 95.7546C50.403 95.2757 50.2672 94.889 49.9955 94.5943C49.7284 94.2996 49.367 94.1522 48.9111 94.1522C48.3677 94.1522 47.9464 94.318 47.6471 94.6495C47.3478 94.981 47.1982 95.4346 47.1982 96.0102H45.5198C45.5198 95.3978 45.6579 94.8475 45.9342 94.3594C46.2151 93.8667 46.6134 93.4845 47.1291 93.2129C47.6494 92.9412 48.248 92.8054 48.9249 92.8054C49.9011 92.8054 50.6701 93.0517 51.2318 93.5444C51.7982 94.0325 52.0814 94.7094 52.0814 95.575C52.0814 96.0769 51.9386 96.6042 51.6531 97.1567C51.3723 97.7047 50.9095 98.3286 50.2649 99.0285L47.806 101.66H52.4751V103Z" fill="#637173"/>
<path d="M42.2183 70H40.5468V61.9258L38.081 62.7684V61.3525L42.0042 59.909H42.2183V70ZM51.3907 66.4153H52.6408V67.7622H51.3907V70H49.7123V67.7622H45.3678L45.3195 66.7399L49.657 59.9435H51.3907V66.4153ZM47.0808 66.4153H49.7123V62.2159L49.588 62.4369L47.0808 66.4153Z" fill="#637173"/>
<path d="M42.2183 37H40.5468V28.9258L38.081 29.7684V28.3525L42.0042 26.909H42.2183V37ZM50.9348 26.8952V28.2834H50.7276C49.7883 28.2973 49.0377 28.5551 48.476 29.057C47.9142 29.5589 47.5804 30.2703 47.4745 31.1913C48.0132 30.6249 48.7016 30.3417 49.5396 30.3417C50.4283 30.3417 51.1282 30.6548 51.6393 31.2811C52.1551 31.9073 52.4129 32.7154 52.4129 33.7054C52.4129 34.7276 52.1113 35.5565 51.5081 36.1919C50.9095 36.8227 50.1221 37.1381 49.1459 37.1381C48.1421 37.1381 47.3271 36.7675 46.7009 36.0261C46.0793 35.2848 45.7684 34.3132 45.7684 33.1114V32.5381C45.7684 30.7746 46.1967 29.3932 47.0531 28.394C47.9142 27.3948 49.1505 26.8952 50.7622 26.8952H50.9348ZM49.1321 31.6955C48.7637 31.6955 48.4253 31.7991 48.1168 32.0063C47.8129 32.2135 47.5896 32.4898 47.4468 32.8351V33.3462C47.4468 34.0922 47.6034 34.6862 47.9165 35.1282C48.2296 35.5657 48.6348 35.7844 49.1321 35.7844C49.6294 35.7844 50.0231 35.5979 50.3132 35.2249C50.6033 34.8519 50.7483 34.3616 50.7483 33.7537C50.7483 33.1459 50.601 32.6509 50.3063 32.2688C50.0116 31.8866 49.6202 31.6955 49.1321 31.6955Z" fill="#637173"/>
<path d="M15.7266 167.992L15.7266 170.403L9.46888 173.967H15.7266V176.391H5.67007V173.967L11.9277 170.409H5.67007V167.992H15.7266ZM14.9185 162.114C15.5493 162.607 15.8647 163.272 15.8647 164.11C15.8647 164.93 15.6276 165.552 15.1533 165.975C14.6744 166.394 13.9883 166.604 13.095 166.604H8.25326V164.276H13.1088C13.7489 164.276 14.0689 163.965 14.0689 163.344C14.0689 162.81 13.8778 162.43 13.4956 162.204H8.25326V159.863H15.7266V162.045L14.9185 162.114ZM8.25326 156.381L9.13044 156.306C8.45356 155.776 8.11512 155.065 8.11512 154.171C8.11512 153.227 8.4904 152.59 9.24095 152.258C8.4904 151.752 8.11512 151.019 8.11512 150.062C8.11512 148.547 9.03144 147.769 10.8641 147.727H15.7266V150.062H11.0091C10.6269 150.062 10.3484 150.126 10.1734 150.255C9.99841 150.384 9.91092 150.619 9.91092 150.96C9.91092 151.42 10.1158 151.763 10.5256 151.989L10.6223 151.982H15.7266V154.316H11.0229C10.6315 154.316 10.3484 154.378 10.1734 154.503C9.99841 154.627 9.91092 154.864 9.91092 155.214C9.91092 155.661 10.1158 156.002 10.5256 156.236H15.7266V158.564H8.25326V156.381ZM12.0521 139.46C13.2769 139.46 14.2185 139.713 14.877 140.219C15.5355 140.726 15.8647 141.439 15.8647 142.36C15.8647 143.12 15.5631 143.733 14.9599 144.198L15.7266 144.294V146.38H5.11751L5.11751 144.053H8.85416C8.36147 143.62 8.11512 143.06 8.11512 142.374C8.11512 141.444 8.44896 140.726 9.11663 140.219C9.7843 139.713 10.7236 139.46 11.9347 139.46H12.0521ZM11.907 141.794C11.1887 141.794 10.6776 141.891 10.3737 142.084C10.0652 142.273 9.91092 142.565 9.91092 142.961C9.91092 143.486 10.1112 143.85 10.5118 144.053H13.4818C13.8778 143.855 14.0758 143.486 14.0758 142.948C14.0758 142.4 13.8087 142.052 13.2746 141.905C13.0121 141.831 12.5563 141.794 11.907 141.794ZM15.8647 134.811C15.8647 135.958 15.524 136.886 14.8425 137.595C14.1564 138.304 13.2654 138.658 12.1695 138.658H11.9761C11.2117 138.658 10.5372 138.518 9.95237 138.237C9.36758 137.951 8.91633 137.537 8.59861 136.994C8.27628 136.45 8.11512 135.806 8.11512 135.06C8.11512 134.01 8.44205 133.181 9.09591 132.573C9.74516 131.965 10.6523 131.662 11.8172 131.662H12.722V136.289C13.1411 136.206 13.4703 136.024 13.7097 135.744C13.9492 135.463 14.0689 135.099 14.0689 134.652C14.0689 133.916 13.811 133.34 13.2953 132.926L14.5524 131.862C14.953 132.152 15.273 132.564 15.5124 133.098C15.7473 133.628 15.8647 134.199 15.8647 134.811ZM9.91092 135.074C9.91092 135.755 10.3622 136.16 11.2647 136.289V133.941H11.0851C10.7121 133.932 10.4243 134.026 10.2217 134.224C10.0145 134.422 9.91092 134.705 9.91092 135.074ZM10.3599 126.198L10.3046 126.965C10.3046 127.697 10.5349 128.167 10.9953 128.374H15.7266V130.702H8.25326V128.519L9.21332 128.443C8.48119 128.052 8.11512 127.506 8.11512 126.806C8.11512 126.557 8.14275 126.341 8.198 126.157L10.3599 126.198Z" fill="#637173"/>
<path d="M284.517 337.047H282.1V326.99H284.517V337.047ZM289.256 335.389C289.583 335.389 289.836 335.302 290.015 335.127C290.195 334.947 290.282 334.699 290.278 334.381H292.46C292.46 335.2 292.166 335.873 291.576 336.398C290.992 336.923 290.236 337.185 289.311 337.185C288.224 337.185 287.368 336.844 286.742 336.163C286.115 335.481 285.802 334.537 285.802 333.331V333.234C285.802 332.479 285.94 331.814 286.217 331.238C286.497 330.658 286.9 330.214 287.425 329.905C287.95 329.592 288.572 329.435 289.29 329.435C290.262 329.435 291.033 329.705 291.604 330.244C292.175 330.782 292.46 331.512 292.46 332.433H290.278C290.278 332.046 290.183 331.749 289.995 331.542C289.806 331.335 289.553 331.231 289.235 331.231C288.632 331.231 288.279 331.616 288.178 332.385C288.146 332.629 288.13 332.965 288.13 333.393C288.13 334.144 288.22 334.664 288.399 334.954C288.579 335.244 288.864 335.389 289.256 335.389ZM297.06 337.185C295.914 337.185 294.986 336.844 294.277 336.163C293.568 335.477 293.213 334.586 293.213 333.49V333.296C293.213 332.532 293.354 331.857 293.635 331.273C293.92 330.688 294.335 330.237 294.878 329.919C295.421 329.597 296.066 329.435 296.812 329.435C297.862 329.435 298.691 329.762 299.298 330.416C299.906 331.065 300.21 331.973 300.21 333.138V334.042H295.582C295.665 334.461 295.847 334.791 296.128 335.03C296.409 335.269 296.773 335.389 297.219 335.389C297.956 335.389 298.532 335.131 298.946 334.616L300.01 335.873C299.72 336.273 299.308 336.593 298.773 336.833C298.244 337.068 297.673 337.185 297.06 337.185ZM296.798 331.231C296.117 331.231 295.711 331.682 295.582 332.585H297.931V332.405C297.94 332.032 297.846 331.745 297.648 331.542C297.45 331.335 297.166 331.231 296.798 331.231ZM307.835 335.389C308.162 335.389 308.415 335.302 308.595 335.127C308.775 334.947 308.862 334.699 308.858 334.381H311.04C311.04 335.2 310.745 335.873 310.156 336.398C309.571 336.923 308.816 337.185 307.891 337.185C306.804 337.185 305.947 336.844 305.321 336.163C304.695 335.481 304.382 334.537 304.382 333.331V333.234C304.382 332.479 304.52 331.814 304.796 331.238C305.077 330.658 305.48 330.214 306.005 329.905C306.53 329.592 307.152 329.435 307.87 329.435C308.841 329.435 309.613 329.705 310.184 330.244C310.755 330.782 311.04 331.512 311.04 332.433H308.858C308.858 332.046 308.763 331.749 308.574 331.542C308.386 331.335 308.132 331.231 307.815 331.231C307.211 331.231 306.859 331.616 306.758 332.385C306.726 332.629 306.709 332.965 306.709 333.393C306.709 334.144 306.799 334.664 306.979 334.954C307.158 335.244 307.444 335.389 307.835 335.389ZM316.545 331.68L315.778 331.625C315.046 331.625 314.576 331.855 314.369 332.316V337.047H312.042V329.574H314.224L314.3 330.534C314.692 329.802 315.237 329.435 315.937 329.435C316.186 329.435 316.402 329.463 316.586 329.518L316.545 331.68ZM320.862 337.185C319.715 337.185 318.787 336.844 318.078 336.163C317.369 335.477 317.015 334.586 317.015 333.49V333.296C317.015 332.532 317.155 331.857 317.436 331.273C317.721 330.688 318.136 330.237 318.679 329.919C319.223 329.597 319.867 329.435 320.613 329.435C321.663 329.435 322.492 329.762 323.1 330.416C323.707 331.065 324.011 331.973 324.011 333.138V334.042H319.384C319.467 334.461 319.648 334.791 319.929 335.03C320.21 335.269 320.574 335.389 321.021 335.389C321.757 335.389 322.333 335.131 322.747 334.616L323.811 335.873C323.521 336.273 323.109 336.593 322.575 336.833C322.045 337.068 321.474 337.185 320.862 337.185ZM320.599 331.231C319.918 331.231 319.513 331.682 319.384 332.585H321.732V332.405C321.741 332.032 321.647 331.745 321.449 331.542C321.251 331.335 320.968 331.231 320.599 331.231ZM329.164 337.047C329.081 336.895 329.007 336.672 328.943 336.377C328.515 336.916 327.916 337.185 327.147 337.185C326.443 337.185 325.844 336.973 325.351 336.55C324.859 336.121 324.612 335.585 324.612 334.94C324.612 334.13 324.912 333.517 325.51 333.103C326.109 332.689 326.979 332.481 328.121 332.481H328.839V332.088C328.839 331.402 328.542 331.059 327.948 331.059C327.396 331.059 327.119 331.33 327.119 331.874H324.792C324.792 331.151 325.098 330.564 325.71 330.112C326.327 329.661 327.113 329.435 328.066 329.435C329.019 329.435 329.772 329.668 330.324 330.133C330.877 330.598 331.16 331.236 331.174 332.046V335.355C331.183 336.041 331.289 336.566 331.492 336.929V337.047H329.164ZM327.707 335.527C327.997 335.527 328.236 335.465 328.425 335.341C328.618 335.217 328.756 335.076 328.839 334.92V333.725H328.162C327.352 333.725 326.947 334.088 326.947 334.816C326.947 335.028 327.018 335.2 327.161 335.334C327.304 335.463 327.486 335.527 327.707 335.527ZM334.669 329.574L334.745 330.451C335.274 329.774 335.986 329.435 336.879 329.435C337.823 329.435 338.461 329.811 338.792 330.561C339.299 329.811 340.031 329.435 340.989 329.435C342.503 329.435 343.282 330.352 343.323 332.184V337.047H340.989V332.329C340.989 331.947 340.924 331.669 340.795 331.494C340.666 331.319 340.431 331.231 340.091 331.231C339.63 331.231 339.287 331.436 339.062 331.846L339.068 331.943V337.047H336.734V332.343C336.734 331.952 336.672 331.669 336.547 331.494C336.423 331.319 336.186 331.231 335.836 331.231C335.389 331.231 335.049 331.436 334.814 331.846V337.047H332.486V329.574H334.669Z" fill="#637173"/>
<path d="M78.6615 301.211C78.5371 302.275 78.1435 303.097 77.4804 303.677C76.8219 304.253 75.9447 304.54 74.8488 304.54C73.6609 304.54 72.7077 304.115 71.9894 303.263C71.2757 302.411 70.9188 301.271 70.9188 299.844V298.877C70.9188 297.942 71.0846 297.12 71.4161 296.411C71.7522 295.702 72.2265 295.159 72.8389 294.781C73.4513 294.399 74.1605 294.208 74.9663 294.208C76.0345 294.208 76.891 294.507 77.5356 295.106C78.1803 295.7 78.5556 296.524 78.6615 297.578H77.3284C77.2133 296.777 76.9624 296.197 76.5756 295.838C76.1934 295.479 75.657 295.299 74.9663 295.299C74.119 295.299 73.4536 295.612 72.9702 296.238C72.4913 296.865 72.2518 297.756 72.2518 298.911V299.885C72.2518 300.977 72.4798 301.844 72.9356 302.489C73.3915 303.134 74.0292 303.456 74.8488 303.456C75.5856 303.456 76.1496 303.29 76.541 302.959C76.937 302.623 77.1995 302.04 77.3284 301.211H78.6615ZM81.5555 297.834C82.1218 297.139 82.8586 296.791 83.7657 296.791C85.3451 296.791 86.1417 297.682 86.1555 299.464V304.402H84.8777V299.457C84.8731 298.918 84.7488 298.52 84.5047 298.262C84.2653 298.004 83.89 297.875 83.3789 297.875C82.9645 297.875 82.6007 297.986 82.2876 298.207C81.9745 298.428 81.7305 298.718 81.5555 299.077V304.402H80.2777V293.793H81.5555V297.834ZM87.7303 300.597C87.7303 299.864 87.873 299.206 88.1585 298.621C88.4486 298.036 88.8492 297.585 89.3603 297.267C89.876 296.95 90.4631 296.791 91.1216 296.791C92.1392 296.791 92.9611 297.143 93.5874 297.848C94.2182 298.552 94.5336 299.489 94.5336 300.659V300.749C94.5336 301.476 94.3932 302.13 94.1123 302.71C93.836 303.286 93.4377 303.735 92.9174 304.057C92.4017 304.379 91.8077 304.54 91.1354 304.54C90.1224 304.54 89.3005 304.188 88.6696 303.484C88.0434 302.779 87.7303 301.847 87.7303 300.686V300.597ZM89.015 300.749C89.015 301.577 89.2061 302.243 89.5882 302.745C89.975 303.247 90.4907 303.498 91.1354 303.498C91.7846 303.498 92.3004 303.244 92.6825 302.738C93.0647 302.227 93.2558 301.513 93.2558 300.597C93.2558 299.777 93.0601 299.114 92.6687 298.607C92.2819 298.096 91.7662 297.841 91.1216 297.841C90.4907 297.841 89.9819 298.092 89.5951 298.594C89.2084 299.096 89.015 299.814 89.015 300.749ZM99.1336 303.498C99.5895 303.498 99.9878 303.359 100.329 303.083C100.669 302.807 100.858 302.461 100.895 302.047H102.104C102.081 302.475 101.933 302.883 101.662 303.27C101.39 303.656 101.026 303.965 100.57 304.195C100.119 304.425 99.6401 304.54 99.1336 304.54C98.116 304.54 97.3056 304.202 96.7024 303.525C96.1038 302.844 95.8045 301.914 95.8045 300.735V300.521C95.8045 299.793 95.938 299.146 96.2051 298.58C96.4722 298.013 96.8543 297.574 97.3516 297.261C97.8535 296.947 98.4452 296.791 99.1267 296.791C99.9648 296.791 100.66 297.042 101.213 297.544C101.77 298.046 102.067 298.697 102.104 299.498H100.895C100.858 299.015 100.674 298.619 100.342 298.31C100.015 297.997 99.6102 297.841 99.1267 297.841C98.4775 297.841 97.9733 298.076 97.6141 298.545C97.2595 299.01 97.0823 299.685 97.0823 300.569V300.811C97.0823 301.672 97.2595 302.335 97.6141 302.8C97.9687 303.265 98.4752 303.498 99.1336 303.498ZM103.202 300.597C103.202 299.864 103.345 299.206 103.63 298.621C103.92 298.036 104.321 297.585 104.832 297.267C105.348 296.95 105.935 296.791 106.593 296.791C107.611 296.791 108.433 297.143 109.059 297.848C109.69 298.552 110.005 299.489 110.005 300.659V300.749C110.005 301.476 109.865 302.13 109.584 302.71C109.308 303.286 108.909 303.735 108.389 304.057C107.873 304.379 107.279 304.54 106.607 304.54C105.594 304.54 104.772 304.188 104.141 303.484C103.515 302.779 103.202 301.847 103.202 300.686V300.597ZM104.486 300.749C104.486 301.577 104.678 302.243 105.06 302.745C105.447 303.247 105.962 303.498 106.607 303.498C107.256 303.498 107.772 303.244 108.154 302.738C108.536 302.227 108.727 301.513 108.727 300.597C108.727 299.777 108.532 299.114 108.14 298.607C107.753 298.096 107.238 297.841 106.593 297.841C105.962 297.841 105.453 298.092 105.067 298.594C104.68 299.096 104.486 299.814 104.486 300.749ZM112.996 304.402H111.718V293.793H112.996V304.402ZM119.661 304.402C119.587 304.255 119.527 303.993 119.481 303.615C118.887 304.232 118.178 304.54 117.354 304.54C116.617 304.54 116.012 304.333 115.538 303.919C115.068 303.5 114.833 302.97 114.833 302.33C114.833 301.552 115.128 300.949 115.717 300.521C116.311 300.088 117.145 299.871 118.217 299.871H119.461V299.284C119.461 298.838 119.327 298.483 119.06 298.221C118.793 297.954 118.399 297.82 117.879 297.82C117.423 297.82 117.041 297.935 116.732 298.165C116.424 298.396 116.27 298.674 116.27 299.001H114.985C114.985 298.628 115.116 298.269 115.379 297.924C115.646 297.574 116.005 297.297 116.456 297.095C116.912 296.892 117.412 296.791 117.955 296.791C118.816 296.791 119.491 297.007 119.979 297.44C120.467 297.868 120.72 298.46 120.739 299.215V302.655C120.739 303.341 120.826 303.887 121.001 304.292V304.402H119.661ZM117.541 303.428C117.941 303.428 118.321 303.325 118.68 303.118C119.039 302.91 119.3 302.641 119.461 302.31V300.776H118.459C116.894 300.776 116.111 301.234 116.111 302.151C116.111 302.551 116.244 302.864 116.511 303.09C116.779 303.316 117.122 303.428 117.541 303.428ZM124.475 295.119V296.929H125.87V297.917H124.475V302.551C124.475 302.851 124.537 303.076 124.662 303.228C124.786 303.376 124.998 303.449 125.297 303.449C125.444 303.449 125.647 303.422 125.905 303.366V304.402C125.569 304.494 125.242 304.54 124.924 304.54C124.353 304.54 123.923 304.368 123.633 304.022C123.342 303.677 123.197 303.187 123.197 302.551V297.917H121.837V296.929H123.197V295.119H124.475ZM130.47 304.54C129.457 304.54 128.633 304.209 127.998 303.546C127.362 302.878 127.045 301.987 127.045 300.873V300.638C127.045 299.897 127.185 299.236 127.466 298.656C127.751 298.071 128.147 297.615 128.654 297.288C129.165 296.957 129.718 296.791 130.312 296.791C131.283 296.791 132.038 297.111 132.577 297.751C133.116 298.391 133.385 299.307 133.385 300.5V301.032H128.322C128.341 301.768 128.555 302.365 128.965 302.821C129.379 303.272 129.904 303.498 130.539 303.498C130.991 303.498 131.373 303.405 131.686 303.221C131.999 303.037 132.273 302.793 132.508 302.489L133.288 303.097C132.662 304.059 131.723 304.54 130.47 304.54ZM130.312 297.841C129.796 297.841 129.363 298.03 129.013 298.407C128.663 298.78 128.447 299.305 128.364 299.982H132.107V299.885C132.07 299.236 131.896 298.734 131.582 298.379C131.269 298.02 130.846 297.841 130.312 297.841Z" fill="#637173"/>
<path d="M208.896 302.641L211.769 294.346H213.219L209.49 304.402H208.316L204.593 294.346H206.036L208.896 302.641ZM218.669 304.402C218.595 304.255 218.536 303.993 218.489 303.615C217.895 304.232 217.186 304.54 216.362 304.54C215.625 304.54 215.02 304.333 214.546 303.919C214.076 303.5 213.841 302.97 213.841 302.33C213.841 301.552 214.136 300.949 214.725 300.521C215.319 300.088 216.153 299.871 217.225 299.871H218.469V299.284C218.469 298.838 218.335 298.483 218.068 298.221C217.801 297.954 217.407 297.82 216.887 297.82C216.431 297.82 216.049 297.935 215.741 298.165C215.432 298.396 215.278 298.674 215.278 299.001H213.993C213.993 298.628 214.124 298.269 214.387 297.924C214.654 297.574 215.013 297.297 215.464 297.095C215.92 296.892 216.42 296.791 216.963 296.791C217.824 296.791 218.499 297.007 218.987 297.44C219.475 297.868 219.728 298.46 219.747 299.215V302.655C219.747 303.341 219.834 303.887 220.009 304.292V304.402H218.669ZM216.549 303.428C216.949 303.428 217.329 303.325 217.688 303.118C218.047 302.91 218.308 302.641 218.469 302.31V300.776H217.467C215.902 300.776 215.119 301.234 215.119 302.151C215.119 302.551 215.252 302.864 215.519 303.09C215.787 303.316 216.13 303.428 216.549 303.428ZM222.958 296.929L223 297.868C223.571 297.15 224.317 296.791 225.238 296.791C226.817 296.791 227.614 297.682 227.627 299.464V304.402H226.35V299.457C226.345 298.918 226.221 298.52 225.977 298.262C225.737 298.004 225.362 297.875 224.851 297.875C224.436 297.875 224.073 297.986 223.759 298.207C223.446 298.428 223.202 298.718 223.027 299.077V304.402H221.75V296.929H222.958ZM230.943 304.402H229.665V296.929H230.943V304.402ZM229.561 294.947C229.561 294.74 229.623 294.565 229.748 294.422C229.877 294.279 230.065 294.208 230.314 294.208C230.563 294.208 230.752 294.279 230.881 294.422C231.009 294.565 231.074 294.74 231.074 294.947C231.074 295.154 231.009 295.327 230.881 295.465C230.752 295.603 230.563 295.672 230.314 295.672C230.065 295.672 229.877 295.603 229.748 295.465C229.623 295.327 229.561 295.154 229.561 294.947ZM234.382 304.402H233.105V293.793H234.382V304.402ZM237.822 304.402H236.544V293.793H237.822V304.402ZM244.487 304.402C244.413 304.255 244.354 303.993 244.308 303.615C243.714 304.232 243.004 304.54 242.18 304.54C241.444 304.54 240.838 304.333 240.364 303.919C239.894 303.5 239.659 302.97 239.659 302.33C239.659 301.552 239.954 300.949 240.543 300.521C241.137 300.088 241.971 299.871 243.044 299.871H244.287V299.284C244.287 298.838 244.153 298.483 243.886 298.221C243.619 297.954 243.225 297.82 242.705 297.82C242.249 297.82 241.867 297.935 241.559 298.165C241.25 298.396 241.096 298.674 241.096 299.001H239.811C239.811 298.628 239.942 298.269 240.205 297.924C240.472 297.574 240.831 297.297 241.282 297.095C241.738 296.892 242.238 296.791 242.781 296.791C243.642 296.791 244.317 297.007 244.805 297.44C245.293 297.868 245.546 298.46 245.565 299.215V302.655C245.565 303.341 245.652 303.887 245.827 304.292V304.402H244.487ZM242.367 303.428C242.767 303.428 243.147 303.325 243.506 303.118C243.866 302.91 244.126 302.641 244.287 302.31V300.776H243.285C241.72 300.776 240.937 301.234 240.937 302.151C240.937 302.551 241.071 302.864 241.338 303.09C241.605 303.316 241.948 303.428 242.367 303.428Z" fill="#637173"/>
<path d="M320.266 299.92C319.128 299.593 318.299 299.192 317.779 298.718C317.263 298.239 317.006 297.65 317.006 296.95C317.006 296.158 317.321 295.504 317.952 294.988C318.587 294.468 319.411 294.208 320.425 294.208C321.115 294.208 321.73 294.341 322.269 294.608C322.812 294.875 323.231 295.244 323.526 295.713C323.825 296.183 323.975 296.697 323.975 297.254H322.642C322.642 296.646 322.448 296.169 322.061 295.824C321.675 295.474 321.129 295.299 320.425 295.299C319.771 295.299 319.26 295.444 318.891 295.734C318.527 296.02 318.346 296.418 318.346 296.929C318.346 297.339 318.518 297.687 318.864 297.972C319.213 298.253 319.805 298.511 320.639 298.746C321.477 298.98 322.131 299.241 322.6 299.526C323.074 299.807 323.424 300.136 323.65 300.514C323.88 300.891 323.995 301.336 323.995 301.847C323.995 302.662 323.678 303.316 323.042 303.808C322.407 304.296 321.557 304.54 320.494 304.54C319.803 304.54 319.158 304.409 318.56 304.147C317.961 303.88 317.498 303.516 317.171 303.055C316.849 302.595 316.688 302.072 316.688 301.488H318.021C318.021 302.095 318.244 302.577 318.691 302.931C319.142 303.281 319.743 303.456 320.494 303.456C321.193 303.456 321.73 303.313 322.103 303.028C322.476 302.742 322.662 302.353 322.662 301.861C322.662 301.368 322.49 300.988 322.144 300.721C321.799 300.449 321.173 300.182 320.266 299.92ZM327.235 295.119V296.929H328.63V297.917H327.235V302.551C327.235 302.851 327.297 303.076 327.421 303.228C327.546 303.376 327.757 303.449 328.057 303.449C328.204 303.449 328.407 303.422 328.664 303.366V304.402C328.328 304.494 328.001 304.54 327.684 304.54C327.113 304.54 326.682 304.368 326.392 304.022C326.102 303.677 325.957 303.187 325.957 302.551V297.917H324.596V296.929H325.957V295.119H327.235ZM333.741 298.076C333.548 298.043 333.338 298.027 333.113 298.027C332.275 298.027 331.706 298.384 331.407 299.098V304.402H330.129V296.929H331.372L331.393 297.792C331.812 297.125 332.406 296.791 333.175 296.791C333.423 296.791 333.612 296.823 333.741 296.888V298.076ZM339.26 304.402C339.186 304.255 339.126 303.993 339.08 303.615C338.486 304.232 337.777 304.54 336.953 304.54C336.216 304.54 335.611 304.333 335.136 303.919C334.667 303.5 334.432 302.97 334.432 302.33C334.432 301.552 334.726 300.949 335.316 300.521C335.91 300.088 336.743 299.871 337.816 299.871H339.059V299.284C339.059 298.838 338.926 298.483 338.659 298.221C338.392 297.954 337.998 297.82 337.478 297.82C337.022 297.82 336.64 297.935 336.331 298.165C336.023 298.396 335.868 298.674 335.868 299.001H334.584C334.584 298.628 334.715 298.269 334.977 297.924C335.244 297.574 335.604 297.297 336.055 297.095C336.511 296.892 337.01 296.791 337.554 296.791C338.415 296.791 339.089 297.007 339.577 297.44C340.066 297.868 340.319 298.46 340.337 299.215V302.655C340.337 303.341 340.425 303.887 340.6 304.292V304.402H339.26ZM337.139 303.428C337.54 303.428 337.92 303.325 338.279 303.118C338.638 302.91 338.898 302.641 339.059 302.31V300.776H338.058C336.492 300.776 335.71 301.234 335.71 302.151C335.71 302.551 335.843 302.864 336.11 303.09C336.377 303.316 336.72 303.428 337.139 303.428ZM348.957 302.641L350.394 296.929H351.671L349.496 304.402H348.46L346.643 298.739L344.875 304.402H343.839L341.67 296.929H342.941L344.412 302.524L346.153 296.929H347.182L348.957 302.641ZM359.304 300.749C359.304 301.891 359.041 302.809 358.516 303.504C357.991 304.195 357.287 304.54 356.403 304.54C355.459 304.54 354.729 304.207 354.213 303.539L354.151 304.402H352.977V293.793H354.255V297.751C354.77 297.111 355.482 296.791 356.389 296.791C357.296 296.791 358.007 297.134 358.523 297.82C359.043 298.506 359.304 299.445 359.304 300.638V300.749ZM358.026 300.604C358.026 299.733 357.858 299.061 357.522 298.587C357.186 298.112 356.702 297.875 356.071 297.875C355.229 297.875 354.623 298.267 354.255 299.049V302.282C354.646 303.065 355.256 303.456 356.085 303.456C356.697 303.456 357.174 303.219 357.515 302.745C357.855 302.27 358.026 301.557 358.026 300.604ZM364.021 304.54C363.008 304.54 362.184 304.209 361.548 303.546C360.913 302.878 360.595 301.987 360.595 300.873V300.638C360.595 299.897 360.736 299.236 361.017 298.656C361.302 298.071 361.698 297.615 362.205 297.288C362.716 296.957 363.268 296.791 363.862 296.791C364.834 296.791 365.589 297.111 366.128 297.751C366.666 298.391 366.936 299.307 366.936 300.5V301.032H361.873C361.891 301.768 362.106 302.365 362.515 302.821C362.93 303.272 363.455 303.498 364.09 303.498C364.541 303.498 364.924 303.405 365.237 303.221C365.55 303.037 365.824 302.793 366.059 302.489L366.839 303.097C366.213 304.059 365.274 304.54 364.021 304.54ZM363.862 297.841C363.346 297.841 362.914 298.03 362.564 298.407C362.214 298.78 361.997 299.305 361.914 299.982H365.658V299.885C365.621 299.236 365.446 298.734 365.133 298.379C364.82 298.02 364.396 297.841 363.862 297.841ZM372.033 298.076C371.84 298.043 371.63 298.027 371.405 298.027C370.567 298.027 369.998 298.384 369.699 299.098V304.402H368.421V296.929H369.664L369.685 297.792C370.104 297.125 370.698 296.791 371.467 296.791C371.715 296.791 371.904 296.823 372.033 296.888V298.076ZM376.827 298.076C376.633 298.043 376.424 298.027 376.198 298.027C375.36 298.027 374.791 298.384 374.492 299.098V304.402H373.214V296.929H374.457L374.478 297.792C374.897 297.125 375.491 296.791 376.26 296.791C376.509 296.791 376.698 296.823 376.827 296.888V298.076ZM380.577 302.531L382.318 296.929H383.685L380.681 305.556C380.216 306.799 379.476 307.421 378.463 307.421L378.222 307.4L377.745 307.31V306.274L378.091 306.302C378.523 306.302 378.859 306.214 379.099 306.039C379.343 305.864 379.543 305.544 379.7 305.079L379.983 304.319L377.317 296.929H378.712L380.577 302.531Z" fill="#637173"/>
<rect x="67" y="49" width="69" height="239" fill="#7A6144"/>
<rect x="191" y="98" width="69" height="190" fill="#FB9F34"/>
<rect x="315" y="66" width="69" height="222" fill="#FEBE00"/>
<path d="M462.221 301.211C462.097 302.275 461.703 303.097 461.04 303.677C460.381 304.253 459.504 304.54 458.408 304.54C457.22 304.54 456.267 304.115 455.549 303.263C454.835 302.411 454.478 301.271 454.478 299.844V298.877C454.478 297.942 454.644 297.12 454.975 296.411C455.312 295.702 455.786 295.159 456.398 294.781C457.011 294.399 457.72 294.208 458.526 294.208C459.594 294.208 460.45 294.507 461.095 295.106C461.74 295.7 462.115 296.524 462.221 297.578H460.888C460.773 296.777 460.522 296.197 460.135 295.838C459.753 295.479 459.216 295.299 458.526 295.299C457.678 295.299 457.013 295.612 456.53 296.238C456.051 296.865 455.811 297.756 455.811 298.911V299.885C455.811 300.977 456.039 301.844 456.495 302.489C456.951 303.134 457.589 303.456 458.408 303.456C459.145 303.456 459.709 303.29 460.1 302.959C460.496 302.623 460.759 302.04 460.888 301.211H462.221ZM465.115 297.834C465.681 297.139 466.418 296.791 467.325 296.791C468.904 296.791 469.701 297.682 469.715 299.464V304.402H468.437V299.457C468.432 298.918 468.308 298.52 468.064 298.262C467.825 298.004 467.449 297.875 466.938 297.875C466.524 297.875 466.16 297.986 465.847 298.207C465.534 298.428 465.29 298.718 465.115 299.077V304.402H463.837V293.793H465.115V297.834ZM474.729 304.54C473.716 304.54 472.892 304.209 472.257 303.546C471.621 302.878 471.303 301.987 471.303 300.873V300.638C471.303 299.897 471.444 299.236 471.725 298.656C472.01 298.071 472.406 297.615 472.913 297.288C473.424 296.957 473.976 296.791 474.57 296.791C475.542 296.791 476.297 297.111 476.836 297.751C477.375 298.391 477.644 299.307 477.644 300.5V301.032H472.581C472.6 301.768 472.814 302.365 473.224 302.821C473.638 303.272 474.163 303.498 474.798 303.498C475.25 303.498 475.632 303.405 475.945 303.221C476.258 303.037 476.532 302.793 476.767 302.489L477.547 303.097C476.921 304.059 475.982 304.54 474.729 304.54ZM474.57 297.841C474.055 297.841 473.622 298.03 473.272 298.407C472.922 298.78 472.706 299.305 472.623 299.982H476.366V299.885C476.329 299.236 476.154 298.734 475.841 298.379C475.528 298.02 475.105 297.841 474.57 297.841ZM482.741 298.076C482.548 298.043 482.338 298.027 482.113 298.027C481.275 298.027 480.706 298.384 480.407 299.098V304.402H479.129V296.929H480.372L480.393 297.792C480.812 297.125 481.406 296.791 482.175 296.791C482.424 296.791 482.612 296.823 482.741 296.888V298.076ZM487.535 298.076C487.341 298.043 487.132 298.027 486.906 298.027C486.068 298.027 485.5 298.384 485.2 299.098V304.402H483.922V296.929H485.166L485.186 297.792C485.605 297.125 486.199 296.791 486.968 296.791C487.217 296.791 487.406 296.823 487.535 296.888V298.076ZM491.285 302.531L493.026 296.929H494.393L491.389 305.556C490.924 306.799 490.185 307.421 489.172 307.421L488.93 307.4L488.453 307.31V306.274L488.799 306.302C489.232 306.302 489.568 306.214 489.807 306.039C490.051 305.864 490.251 305.544 490.408 305.079L490.691 304.319L488.025 296.929H489.42L491.285 302.531Z" fill="#637173"/>
<rect x="439" y="162" width="69" height="126" fill="#FF3434"/>
<path d="M55.3847 1.6153C55.1722 1.40283 54.8277 1.40283 54.6153 1.6153L51.1529 5.07764C50.9405 5.2901 50.9405 5.63458 51.1529 5.84705C51.3654 6.05951 51.7099 6.05951 51.9224 5.84705L55 2.76941L58.0776 5.84705C58.2901 6.05951 58.6346 6.05951 58.847 5.84705C59.0595 5.63458 59.0595 5.2901 58.847 5.07764L55.3847 1.6153ZM55.5441 288L55.544 2L54.4559 2L54.4559 288L55.5441 288Z" fill="#637173"/>
<path d="M570.385 288.385C570.597 288.172 570.597 287.828 570.385 287.615L566.922 284.153C566.71 283.94 566.365 283.94 566.153 284.153C565.94 284.365 565.94 284.71 566.153 284.922L569.231 288L566.153 291.078C565.94 291.29 565.94 291.635 566.153 291.847C566.365 292.06 566.71 292.06 566.922 291.847L570.385 288.385ZM54 288.544H570V287.456H54V288.544Z" fill="#637173"/>
</g>
<defs>
<clipPath id="clip0_1_3797">
<rect width="570" height="341" rx="5.44054" fill="white"/>
</clipPath>
</defs>
</svg>
