<svg width="570" height="179" viewBox="0 0 570 179" fill="none" xmlns="http://www.w3.org/2000/svg">
<rect x="0.5" y="0.5" width="269" height="178" rx="4.5" stroke="#D0D0D0"/>
<path d="M0 5C0 2.23858 2.23858 0 5 0H265C267.761 0 270 2.23858 270 5V28H0V5Z" fill="#205B64"/>
<path d="M82.6448 8.8C83.6368 8.8 84.4954 8.96533 85.2208 9.296C85.9568 9.62667 86.5221 10.096 86.9168 10.704C87.3114 11.312 87.5088 12.032 87.5088 12.864C87.5088 13.6853 87.3114 14.4053 86.9168 15.024C86.5221 15.632 85.9568 16.1013 85.2208 16.432C84.4954 16.752 83.6368 16.912 82.6448 16.912H80.3888V20H77.7968V8.8H82.6448ZM82.5008 14.8C83.2794 14.8 83.8714 14.6347 84.2768 14.304C84.6821 13.9627 84.8848 13.4827 84.8848 12.864C84.8848 12.2347 84.6821 11.7547 84.2768 11.424C83.8714 11.0827 83.2794 10.912 82.5008 10.912H80.3888V14.8H82.5008ZM92.5771 11.264C93.9105 11.264 94.9345 11.584 95.6491 12.224C96.3638 12.8533 96.7211 13.808 96.7211 15.088V20H94.3851V18.928C93.9158 19.728 93.0411 20.128 91.7611 20.128C91.0998 20.128 90.5238 20.016 90.0331 19.792C89.5531 19.568 89.1851 19.2587 88.9291 18.864C88.6731 18.4693 88.5451 18.0213 88.5451 17.52C88.5451 16.72 88.8438 16.0907 89.4411 15.632C90.0491 15.1733 90.9825 14.944 92.2411 14.944H94.2251C94.2251 14.4 94.0598 13.984 93.7291 13.696C93.3985 13.3973 92.9025 13.248 92.2411 13.248C91.7825 13.248 91.3291 13.3227 90.8811 13.472C90.4438 13.6107 90.0705 13.8027 89.7611 14.048L88.8651 12.304C89.3345 11.9733 89.8945 11.7173 90.5451 11.536C91.2065 11.3547 91.8838 11.264 92.5771 11.264ZM92.3851 18.448C92.8118 18.448 93.1905 18.352 93.5211 18.16C93.8518 17.9573 94.0865 17.664 94.2251 17.28V16.4H92.5131C91.4891 16.4 90.9771 16.736 90.9771 17.408C90.9771 17.728 91.0998 17.984 91.3451 18.176C91.6011 18.3573 91.9478 18.448 92.3851 18.448ZM101.364 12.528C101.663 12.112 102.063 11.7973 102.564 11.584C103.076 11.3707 103.663 11.264 104.324 11.264V13.568C104.047 13.5467 103.86 13.536 103.764 13.536C103.049 13.536 102.489 13.7387 102.084 14.144C101.679 14.5387 101.476 15.136 101.476 15.936V20H98.9801V11.392H101.364V12.528ZM109.233 11.264C110.567 11.264 111.591 11.584 112.305 12.224C113.02 12.8533 113.377 13.808 113.377 15.088V20H111.041V18.928C110.572 19.728 109.697 20.128 108.417 20.128C107.756 20.128 107.18 20.016 106.689 19.792C106.209 19.568 105.841 19.2587 105.585 18.864C105.329 18.4693 105.201 18.0213 105.201 17.52C105.201 16.72 105.5 16.0907 106.097 15.632C106.705 15.1733 107.639 14.944 108.897 14.944H110.881C110.881 14.4 110.716 13.984 110.385 13.696C110.055 13.3973 109.559 13.248 108.897 13.248C108.439 13.248 107.985 13.3227 107.537 13.472C107.1 13.6107 106.727 13.8027 106.417 14.048L105.521 12.304C105.991 11.9733 106.551 11.7173 107.201 11.536C107.863 11.3547 108.54 11.264 109.233 11.264ZM109.041 18.448C109.468 18.448 109.847 18.352 110.177 18.16C110.508 17.9573 110.743 17.664 110.881 17.28V16.4H109.169C108.145 16.4 107.633 16.736 107.633 17.408C107.633 17.728 107.756 17.984 108.001 18.176C108.257 18.3573 108.604 18.448 109.041 18.448ZM115.636 8.128H118.132V20H115.636V8.128ZM120.449 8.128H122.945V20H120.449V8.128ZM133.693 15.728C133.693 15.76 133.677 15.984 133.645 16.4H127.133C127.251 16.9333 127.528 17.3547 127.965 17.664C128.403 17.9733 128.947 18.128 129.597 18.128C130.045 18.128 130.44 18.064 130.781 17.936C131.133 17.7973 131.459 17.584 131.757 17.296L133.085 18.736C132.275 19.664 131.091 20.128 129.533 20.128C128.563 20.128 127.704 19.9413 126.957 19.568C126.211 19.184 125.635 18.656 125.229 17.984C124.824 17.312 124.621 16.5493 124.621 15.696C124.621 14.8533 124.819 14.096 125.213 13.424C125.619 12.7413 126.168 12.2133 126.861 11.84C127.565 11.456 128.349 11.264 129.213 11.264C130.056 11.264 130.819 11.4453 131.501 11.808C132.184 12.1707 132.717 12.6933 133.101 13.376C133.496 14.048 133.693 14.832 133.693 15.728ZM129.229 13.152C128.664 13.152 128.189 13.312 127.805 13.632C127.421 13.952 127.187 14.3893 127.101 14.944H131.341C131.256 14.4 131.021 13.968 130.637 13.648C130.253 13.3173 129.784 13.152 129.229 13.152ZM135.355 8.128H137.851V20H135.355V8.128ZM147.595 20.128C146.88 20.128 146.182 20.0427 145.499 19.872C144.816 19.6907 144.272 19.4667 143.867 19.2L144.699 17.408C145.083 17.6533 145.547 17.856 146.091 18.016C146.635 18.1653 147.168 18.24 147.691 18.24C148.747 18.24 149.275 17.9787 149.275 17.456C149.275 17.2107 149.131 17.0347 148.843 16.928C148.555 16.8213 148.112 16.7307 147.515 16.656C146.811 16.5493 146.23 16.4267 145.771 16.288C145.312 16.1493 144.912 15.904 144.571 15.552C144.24 15.2 144.075 14.6987 144.075 14.048C144.075 13.504 144.23 13.024 144.539 12.608C144.859 12.1813 145.318 11.8507 145.915 11.616C146.523 11.3813 147.238 11.264 148.059 11.264C148.667 11.264 149.27 11.3333 149.867 11.472C150.475 11.6 150.976 11.7813 151.371 12.016L150.539 13.792C149.782 13.3653 148.955 13.152 148.059 13.152C147.526 13.152 147.126 13.2267 146.859 13.376C146.592 13.5253 146.459 13.7173 146.459 13.952C146.459 14.2187 146.603 14.4053 146.891 14.512C147.179 14.6187 147.638 14.72 148.267 14.816C148.971 14.9333 149.547 15.0613 149.995 15.2C150.443 15.328 150.832 15.568 151.163 15.92C151.494 16.272 151.659 16.7627 151.659 17.392C151.659 17.9253 151.499 18.4 151.179 18.816C150.859 19.232 150.39 19.5573 149.771 19.792C149.163 20.016 148.438 20.128 147.595 20.128ZM153.199 11.392H155.695V20H153.199V11.392ZM154.447 10.192C153.988 10.192 153.615 10.0587 153.327 9.792C153.039 9.52533 152.895 9.19467 152.895 8.8C152.895 8.40533 153.039 8.07467 153.327 7.808C153.615 7.54133 153.988 7.408 154.447 7.408C154.906 7.408 155.279 7.536 155.567 7.792C155.855 8.048 155.999 8.368 155.999 8.752C155.999 9.168 155.855 9.51467 155.567 9.792C155.279 10.0587 154.906 10.192 154.447 10.192ZM166.779 8.128V20H164.395V19.008C163.777 19.7547 162.881 20.128 161.707 20.128C160.897 20.128 160.161 19.9467 159.499 19.584C158.849 19.2213 158.337 18.704 157.963 18.032C157.59 17.36 157.403 16.5813 157.403 15.696C157.403 14.8107 157.59 14.032 157.963 13.36C158.337 12.688 158.849 12.1707 159.499 11.808C160.161 11.4453 160.897 11.264 161.707 11.264C162.806 11.264 163.665 11.6107 164.283 12.304V8.128H166.779ZM162.139 18.08C162.769 18.08 163.291 17.8667 163.707 17.44C164.123 17.0027 164.331 16.4213 164.331 15.696C164.331 14.9707 164.123 14.3947 163.707 13.968C163.291 13.5307 162.769 13.312 162.139 13.312C161.499 13.312 160.971 13.5307 160.555 13.968C160.139 14.3947 159.931 14.9707 159.931 15.696C159.931 16.4213 160.139 17.0027 160.555 17.44C160.971 17.8667 161.499 18.08 162.139 18.08ZM177.522 15.728C177.522 15.76 177.506 15.984 177.474 16.4H170.962C171.079 16.9333 171.356 17.3547 171.794 17.664C172.231 17.9733 172.775 18.128 173.426 18.128C173.874 18.128 174.268 18.064 174.61 17.936C174.962 17.7973 175.287 17.584 175.586 17.296L176.914 18.736C176.103 19.664 174.919 20.128 173.362 20.128C172.391 20.128 171.532 19.9413 170.786 19.568C170.039 19.184 169.463 18.656 169.058 17.984C168.652 17.312 168.45 16.5493 168.45 15.696C168.45 14.8533 168.647 14.096 169.042 13.424C169.447 12.7413 169.996 12.2133 170.69 11.84C171.394 11.456 172.178 11.264 173.042 11.264C173.884 11.264 174.647 11.4453 175.33 11.808C176.012 12.1707 176.546 12.6933 176.93 13.376C177.324 14.048 177.522 14.832 177.522 15.728ZM173.058 13.152C172.492 13.152 172.018 13.312 171.634 13.632C171.25 13.952 171.015 14.3893 170.93 14.944H175.17C175.084 14.4 174.85 13.968 174.466 13.648C174.082 13.3173 173.612 13.152 173.058 13.152ZM182.079 20.128C181.365 20.128 180.666 20.0427 179.983 19.872C179.301 19.6907 178.757 19.4667 178.351 19.2L179.183 17.408C179.567 17.6533 180.031 17.856 180.575 18.016C181.119 18.1653 181.653 18.24 182.175 18.24C183.231 18.24 183.759 17.9787 183.759 17.456C183.759 17.2107 183.615 17.0347 183.327 16.928C183.039 16.8213 182.597 16.7307 181.999 16.656C181.295 16.5493 180.714 16.4267 180.255 16.288C179.797 16.1493 179.397 15.904 179.055 15.552C178.725 15.2 178.559 14.6987 178.559 14.048C178.559 13.504 178.714 13.024 179.023 12.608C179.343 12.1813 179.802 11.8507 180.399 11.616C181.007 11.3813 181.722 11.264 182.543 11.264C183.151 11.264 183.754 11.3333 184.351 11.472C184.959 11.6 185.461 11.7813 185.855 12.016L185.023 13.792C184.266 13.3653 183.439 13.152 182.543 13.152C182.01 13.152 181.61 13.2267 181.343 13.376C181.077 13.5253 180.943 13.7173 180.943 13.952C180.943 14.2187 181.087 14.4053 181.375 14.512C181.663 14.6187 182.122 14.72 182.751 14.816C183.455 14.9333 184.031 15.0613 184.479 15.2C184.927 15.328 185.317 15.568 185.647 15.92C185.978 16.272 186.143 16.7627 186.143 17.392C186.143 17.9253 185.983 18.4 185.663 18.816C185.343 19.232 184.874 19.5573 184.255 19.792C183.647 20.016 182.922 20.128 182.079 20.128Z" fill="white"/>
<rect x="20" y="47" width="43" height="43" fill="white" stroke="#E8589C" stroke-width="2"/>
<path d="M87.3311 82L95.4489 54H135.669L127.551 82H87.3311Z" fill="white" stroke="#9DD765" stroke-width="2"/>
<rect x="162" y="44" width="39" height="48" fill="white" stroke="#329CDE" stroke-width="2"/>
<path d="M19.3241 138.5L41 113.526L62.6759 138.5L41 163.474L19.3241 138.5Z" fill="white" stroke="#3A6CEC" stroke-width="2"/>
<rect x="300.5" y="0.5" width="269" height="178" rx="4.5" stroke="#D0D0D0"/>
<path d="M300 5C300 2.23858 302.239 0 305 0H565C567.761 0 570 2.23858 570 5V28H300V5Z" fill="#205B64"/>
<path d="M368.038 8.8V20H365.91L360.326 13.2V20H357.766V8.8H359.91L365.477 15.6V8.8H368.038ZM374.607 20.128C373.701 20.128 372.885 19.9413 372.159 19.568C371.445 19.184 370.885 18.656 370.479 17.984C370.074 17.312 369.871 16.5493 369.871 15.696C369.871 14.8427 370.074 14.08 370.479 13.408C370.885 12.736 371.445 12.2133 372.159 11.84C372.885 11.456 373.701 11.264 374.607 11.264C375.514 11.264 376.325 11.456 377.039 11.84C377.754 12.2133 378.314 12.736 378.719 13.408C379.125 14.08 379.327 14.8427 379.327 15.696C379.327 16.5493 379.125 17.312 378.719 17.984C378.314 18.656 377.754 19.184 377.039 19.568C376.325 19.9413 375.514 20.128 374.607 20.128ZM374.607 18.08C375.247 18.08 375.77 17.8667 376.175 17.44C376.591 17.0027 376.799 16.4213 376.799 15.696C376.799 14.9707 376.591 14.3947 376.175 13.968C375.77 13.5307 375.247 13.312 374.607 13.312C373.967 13.312 373.439 13.5307 373.023 13.968C372.607 14.3947 372.399 14.9707 372.399 15.696C372.399 16.4213 372.607 17.0027 373.023 17.44C373.439 17.8667 373.967 18.08 374.607 18.08ZM386.228 11.264C387.294 11.264 388.153 11.584 388.804 12.224C389.465 12.864 389.796 13.8133 389.796 15.072V20H387.3V15.456C387.3 14.7733 387.15 14.2667 386.852 13.936C386.553 13.5947 386.121 13.424 385.556 13.424C384.926 13.424 384.425 13.6213 384.052 14.016C383.678 14.4 383.492 14.976 383.492 15.744V20H380.996V11.392H383.38V12.4C383.71 12.0373 384.121 11.76 384.612 11.568C385.102 11.3653 385.641 11.264 386.228 11.264ZM391.738 14.496H396.266V16.496H391.738V14.496ZM403.318 11.264C404.118 11.264 404.843 11.4507 405.494 11.824C406.155 12.1867 406.673 12.704 407.046 13.376C407.419 14.0373 407.606 14.8107 407.606 15.696C407.606 16.5813 407.419 17.36 407.046 18.032C406.673 18.6933 406.155 19.2107 405.494 19.584C404.843 19.9467 404.118 20.128 403.318 20.128C402.219 20.128 401.355 19.7813 400.726 19.088V23.104H398.23V11.392H400.614V12.384C401.233 11.6373 402.134 11.264 403.318 11.264ZM402.886 18.08C403.526 18.08 404.049 17.8667 404.454 17.44C404.87 17.0027 405.078 16.4213 405.078 15.696C405.078 14.9707 404.87 14.3947 404.454 13.968C404.049 13.5307 403.526 13.312 402.886 13.312C402.246 13.312 401.718 13.5307 401.302 13.968C400.897 14.3947 400.694 14.9707 400.694 15.696C400.694 16.4213 400.897 17.0027 401.302 17.44C401.718 17.8667 402.246 18.08 402.886 18.08ZM412.608 11.264C413.942 11.264 414.966 11.584 415.68 12.224C416.395 12.8533 416.752 13.808 416.752 15.088V20H414.416V18.928C413.947 19.728 413.072 20.128 411.792 20.128C411.131 20.128 410.555 20.016 410.064 19.792C409.584 19.568 409.216 19.2587 408.96 18.864C408.704 18.4693 408.576 18.0213 408.576 17.52C408.576 16.72 408.875 16.0907 409.472 15.632C410.08 15.1733 411.014 14.944 412.272 14.944H414.256C414.256 14.4 414.091 13.984 413.76 13.696C413.43 13.3973 412.934 13.248 412.272 13.248C411.814 13.248 411.36 13.3227 410.912 13.472C410.475 13.6107 410.102 13.8027 409.792 14.048L408.896 12.304C409.366 11.9733 409.926 11.7173 410.576 11.536C411.238 11.3547 411.915 11.264 412.608 11.264ZM412.416 18.448C412.843 18.448 413.222 18.352 413.552 18.16C413.883 17.9573 414.118 17.664 414.256 17.28V16.4H412.544C411.52 16.4 411.008 16.736 411.008 17.408C411.008 17.728 411.131 17.984 411.376 18.176C411.632 18.3573 411.979 18.448 412.416 18.448ZM421.395 12.528C421.694 12.112 422.094 11.7973 422.595 11.584C423.107 11.3707 423.694 11.264 424.355 11.264V13.568C424.078 13.5467 423.891 13.536 423.795 13.536C423.081 13.536 422.521 13.7387 422.115 14.144C421.71 14.5387 421.507 15.136 421.507 15.936V20H419.011V11.392H421.395V12.528ZM429.265 11.264C430.598 11.264 431.622 11.584 432.337 12.224C433.051 12.8533 433.409 13.808 433.409 15.088V20H431.073V18.928C430.603 19.728 429.729 20.128 428.449 20.128C427.787 20.128 427.211 20.016 426.721 19.792C426.241 19.568 425.873 19.2587 425.617 18.864C425.361 18.4693 425.233 18.0213 425.233 17.52C425.233 16.72 425.531 16.0907 426.129 15.632C426.737 15.1733 427.67 14.944 428.929 14.944H430.913C430.913 14.4 430.747 13.984 430.417 13.696C430.086 13.3973 429.59 13.248 428.929 13.248C428.47 13.248 428.017 13.3227 427.569 13.472C427.131 13.6107 426.758 13.8027 426.449 14.048L425.553 12.304C426.022 11.9733 426.582 11.7173 427.233 11.536C427.894 11.3547 428.571 11.264 429.265 11.264ZM429.073 18.448C429.499 18.448 429.878 18.352 430.209 18.16C430.539 17.9573 430.774 17.664 430.913 17.28V16.4H429.201C428.177 16.4 427.665 16.736 427.665 17.408C427.665 17.728 427.787 17.984 428.033 18.176C428.289 18.3573 428.635 18.448 429.073 18.448ZM435.668 8.128H438.164V20H435.668V8.128ZM440.48 8.128H442.976V20H440.48V8.128ZM453.725 15.728C453.725 15.76 453.709 15.984 453.677 16.4H447.165C447.282 16.9333 447.559 17.3547 447.997 17.664C448.434 17.9733 448.978 18.128 449.629 18.128C450.077 18.128 450.471 18.064 450.813 17.936C451.165 17.7973 451.49 17.584 451.789 17.296L453.117 18.736C452.306 19.664 451.122 20.128 449.565 20.128C448.594 20.128 447.735 19.9413 446.989 19.568C446.242 19.184 445.666 18.656 445.261 17.984C444.855 17.312 444.653 16.5493 444.653 15.696C444.653 14.8533 444.85 14.096 445.245 13.424C445.65 12.7413 446.199 12.2133 446.893 11.84C447.597 11.456 448.381 11.264 449.245 11.264C450.087 11.264 450.85 11.4453 451.533 11.808C452.215 12.1707 452.749 12.6933 453.133 13.376C453.527 14.048 453.725 14.832 453.725 15.728ZM449.261 13.152C448.695 13.152 448.221 13.312 447.837 13.632C447.453 13.952 447.218 14.3893 447.133 14.944H451.373C451.287 14.4 451.053 13.968 450.669 13.648C450.285 13.3173 449.815 13.152 449.261 13.152ZM455.386 8.128H457.882V20H455.386V8.128ZM467.626 20.128C466.911 20.128 466.213 20.0427 465.53 19.872C464.847 19.6907 464.303 19.4667 463.898 19.2L464.73 17.408C465.114 17.6533 465.578 17.856 466.122 18.016C466.666 18.1653 467.199 18.24 467.722 18.24C468.778 18.24 469.306 17.9787 469.306 17.456C469.306 17.2107 469.162 17.0347 468.874 16.928C468.586 16.8213 468.143 16.7307 467.546 16.656C466.842 16.5493 466.261 16.4267 465.802 16.288C465.343 16.1493 464.943 15.904 464.602 15.552C464.271 15.2 464.106 14.6987 464.106 14.048C464.106 13.504 464.261 13.024 464.57 12.608C464.89 12.1813 465.349 11.8507 465.946 11.616C466.554 11.3813 467.269 11.264 468.09 11.264C468.698 11.264 469.301 11.3333 469.898 11.472C470.506 11.6 471.007 11.7813 471.402 12.016L470.57 13.792C469.813 13.3653 468.986 13.152 468.09 13.152C467.557 13.152 467.157 13.2267 466.89 13.376C466.623 13.5253 466.49 13.7173 466.49 13.952C466.49 14.2187 466.634 14.4053 466.922 14.512C467.21 14.6187 467.669 14.72 468.298 14.816C469.002 14.9333 469.578 15.0613 470.026 15.2C470.474 15.328 470.863 15.568 471.194 15.92C471.525 16.272 471.69 16.7627 471.69 17.392C471.69 17.9253 471.53 18.4 471.21 18.816C470.89 19.232 470.421 19.5573 469.802 19.792C469.194 20.016 468.469 20.128 467.626 20.128ZM473.23 11.392H475.726V20H473.23V11.392ZM474.478 10.192C474.019 10.192 473.646 10.0587 473.358 9.792C473.07 9.52533 472.926 9.19467 472.926 8.8C472.926 8.40533 473.07 8.07467 473.358 7.808C473.646 7.54133 474.019 7.408 474.478 7.408C474.937 7.408 475.31 7.536 475.598 7.792C475.886 8.048 476.03 8.368 476.03 8.752C476.03 9.168 475.886 9.51467 475.598 9.792C475.31 10.0587 474.937 10.192 474.478 10.192ZM486.811 8.128V20H484.427V19.008C483.808 19.7547 482.912 20.128 481.739 20.128C480.928 20.128 480.192 19.9467 479.531 19.584C478.88 19.2213 478.368 18.704 477.995 18.032C477.621 17.36 477.435 16.5813 477.435 15.696C477.435 14.8107 477.621 14.032 477.995 13.36C478.368 12.688 478.88 12.1707 479.531 11.808C480.192 11.4453 480.928 11.264 481.739 11.264C482.837 11.264 483.696 11.6107 484.315 12.304V8.128H486.811ZM482.171 18.08C482.8 18.08 483.323 17.8667 483.739 17.44C484.155 17.0027 484.363 16.4213 484.363 15.696C484.363 14.9707 484.155 14.3947 483.739 13.968C483.323 13.5307 482.8 13.312 482.171 13.312C481.531 13.312 481.003 13.5307 480.587 13.968C480.171 14.3947 479.963 14.9707 479.963 15.696C479.963 16.4213 480.171 17.0027 480.587 17.44C481.003 17.8667 481.531 18.08 482.171 18.08ZM497.553 15.728C497.553 15.76 497.537 15.984 497.505 16.4H490.993C491.11 16.9333 491.387 17.3547 491.825 17.664C492.262 17.9733 492.806 18.128 493.457 18.128C493.905 18.128 494.299 18.064 494.641 17.936C494.993 17.7973 495.318 17.584 495.617 17.296L496.945 18.736C496.134 19.664 494.95 20.128 493.393 20.128C492.422 20.128 491.563 19.9413 490.817 19.568C490.07 19.184 489.494 18.656 489.089 17.984C488.683 17.312 488.481 16.5493 488.481 15.696C488.481 14.8533 488.678 14.096 489.073 13.424C489.478 12.7413 490.027 12.2133 490.721 11.84C491.425 11.456 492.209 11.264 493.073 11.264C493.915 11.264 494.678 11.4453 495.361 11.808C496.043 12.1707 496.577 12.6933 496.961 13.376C497.355 14.048 497.553 14.832 497.553 15.728ZM493.089 13.152C492.523 13.152 492.049 13.312 491.665 13.632C491.281 13.952 491.046 14.3893 490.961 14.944H495.201C495.115 14.4 494.881 13.968 494.497 13.648C494.113 13.3173 493.643 13.152 493.089 13.152ZM502.111 20.128C501.396 20.128 500.697 20.0427 500.015 19.872C499.332 19.6907 498.788 19.4667 498.383 19.2L499.215 17.408C499.599 17.6533 500.063 17.856 500.607 18.016C501.151 18.1653 501.684 18.24 502.207 18.24C503.263 18.24 503.791 17.9787 503.791 17.456C503.791 17.2107 503.647 17.0347 503.359 16.928C503.071 16.8213 502.628 16.7307 502.031 16.656C501.327 16.5493 500.745 16.4267 500.287 16.288C499.828 16.1493 499.428 15.904 499.087 15.552C498.756 15.2 498.59 14.6987 498.59 14.048C498.59 13.504 498.745 13.024 499.055 12.608C499.375 12.1813 499.833 11.8507 500.431 11.616C501.039 11.3813 501.753 11.264 502.575 11.264C503.183 11.264 503.785 11.3333 504.383 11.472C504.991 11.6 505.492 11.7813 505.887 12.016L505.055 13.792C504.297 13.3653 503.471 13.152 502.575 13.152C502.041 13.152 501.641 13.2267 501.375 13.376C501.108 13.5253 500.975 13.7173 500.975 13.952C500.975 14.2187 501.119 14.4053 501.407 14.512C501.695 14.6187 502.153 14.72 502.783 14.816C503.487 14.9333 504.063 15.0613 504.511 15.2C504.959 15.328 505.348 15.568 505.679 15.92C506.009 16.272 506.175 16.7627 506.175 17.392C506.175 17.9253 506.015 18.4 505.695 18.816C505.375 19.232 504.905 19.5573 504.287 19.792C503.679 20.016 502.953 20.128 502.111 20.128Z" fill="white"/>
<g clip-path="url(#clip0_43_8206)">
<path d="M317.684 87.25L341.5 46L365.316 87.25H317.684Z" fill="white" stroke="#9465F8" stroke-width="2"/>
</g>
<path d="M411.5 43.143L419.021 57.3977L419.25 57.8326L419.735 57.9164L435.616 60.6642L424.383 72.222L424.04 72.5746L424.11 73.0613L426.404 89.0143L411.941 81.9026L411.5 81.6856L411.059 81.9026L396.596 89.0143L398.89 73.0613L398.96 72.5746L398.617 72.222L387.384 60.6642L403.265 57.9164L403.75 57.8326L403.979 57.3977L411.5 43.143Z" fill="white" stroke="#329CDE" stroke-width="2"/>
<path d="M480.912 43.6631C481.263 43.4085 481.737 43.4085 482.088 43.6631L504.94 60.266C505.29 60.5206 505.437 60.972 505.303 61.384L496.574 88.248C496.44 88.66 496.056 88.9389 495.623 88.9389H467.377C466.944 88.9389 466.56 88.66 466.426 88.248L457.697 61.384C457.563 60.972 457.71 60.5206 458.06 60.266L480.912 43.6631Z" fill="white" stroke="#59C6F2" stroke-width="2"/>
<path d="M315.466 151.534L323.449 124H364.158L366.363 136.788L315.466 151.534Z" fill="white" stroke="#9465F8" stroke-width="2"/>
<defs>
<clipPath id="clip0_43_8206">
<rect width="60" height="60" fill="white" transform="translate(311 38)"/>
</clipPath>
</defs>
</svg>
