<svg width="490" height="185" viewBox="0 0 490 185" fill="none" xmlns="http://www.w3.org/2000/svg">
<g clip-path="url(#clip0_43_8204)">
<path d="M96.8974 50.3902C96.8974 24.8218 76.1781 4.10254 50.6097 4.10254C25.0412 4.10254 4.10156 24.8218 4.10156 50.3902C4.10156 75.9587 24.8208 96.6779 50.6097 96.6779C76.1781 96.8984 96.8974 76.1791 96.8974 50.3902Z" fill="#369CB7"/>
<path d="M50.6102 98C24.3805 98 3 76.6195 3 50.3898C3 24.1601 24.3805 3 50.6102 3C76.8399 3 98 24.3805 98 50.3898C98 76.3991 76.6195 98 50.6102 98ZM50.6102 5.20418C25.4826 5.20418 5.20418 25.4826 5.20418 50.3898C5.20418 75.297 25.4826 95.5754 50.6102 95.5754C75.5174 95.5754 95.7958 75.297 95.7958 50.3898C95.7958 25.4826 75.5174 5.20418 50.6102 5.20418Z" fill="#005C88"/>
<path d="M50.6106 4.10254C50.3902 4.10254 50.3902 4.10254 50.6106 4.10254V96.8984C76.1791 96.8984 96.8983 76.1791 96.8983 50.6107C96.8983 25.0422 76.1791 4.10254 50.6106 4.10254Z" fill="#C3F6FE"/>
<path d="M50.6107 98C50.3903 98 50.3903 98 50.6107 98C49.9495 98 49.5086 97.5592 49.5086 96.8979V4.10209C49.2882 3.44084 49.9495 3 50.3903 3C76.62 3 98.0005 24.3805 98.0005 50.3898C98.0005 76.3991 76.62 98 50.6107 98ZM51.4924 5.20418V95.7958C75.9587 95.1346 95.7963 75.0766 95.7963 50.6102C95.7963 25.9234 75.9587 5.86543 51.4924 5.20418Z" fill="#005C88"/>
</g>
<g clip-path="url(#clip1_43_8204)">
<path d="M180.389 4.10254C154.821 4.10254 134.102 24.8218 134.102 50.3902H180.389V4.10254Z" fill="#1BBBB4"/>
<path d="M180.39 51.4919H134.102C133.441 51.4919 133 51.051 133 50.3898C133 24.3805 154.381 3 180.39 3C181.051 3 181.492 3.44084 181.492 4.10209V50.3898C181.492 51.051 181.051 51.4919 180.39 51.4919ZM135.204 49.2877H179.288V5.20418C155.262 5.86543 135.865 25.2622 135.204 49.2877Z" fill="#0A7873"/>
<path d="M134.102 50.3906C134.102 75.9591 154.821 96.6783 180.389 96.6783V50.3906H134.102Z" fill="#CEF8F6"/>
<path d="M180.39 98.0004C154.381 98.0004 133 76.6199 133 50.3902C133 49.9493 133.441 49.2881 134.102 49.2881H180.39C181.051 49.2881 181.492 49.7289 181.492 50.3902V96.6779C181.492 97.5596 181.051 98.0004 180.39 98.0004ZM135.204 51.4923C135.865 75.5178 155.262 95.135 179.288 95.5758V51.4923H135.204Z" fill="#0A7873"/>
<path d="M180.391 4.10254V50.3902H226.678C226.899 24.8218 206.179 4.10254 180.391 4.10254Z" fill="#CEF8F6"/>
<path d="M226.898 51.4919H180.611C179.949 51.4919 179.509 51.051 179.509 50.3898V4.10209C179.288 3.44084 179.949 3 180.39 3C206.62 3 227.78 24.3805 227.78 50.3898C228 51.051 227.56 51.4919 226.898 51.4919ZM181.492 49.2877H225.576C225.135 25.2622 205.738 5.86543 181.492 5.20418V49.2877Z" fill="#0A7873"/>
<path d="M180.389 96.898C205.957 96.898 226.676 76.1788 226.676 50.6104H180.389V96.898Z" fill="#CEF8F6"/>
<path d="M180.389 97.9997C179.728 97.9997 179.287 97.5589 179.287 96.8976V50.6099C179.287 49.9486 179.728 49.5078 180.389 49.5078H226.677C227.338 49.5078 227.779 49.9486 227.779 50.6099C227.999 76.6192 206.619 97.9997 180.389 97.9997ZM181.491 51.4916V95.5751C205.517 94.9138 225.134 75.5171 225.575 51.4916H181.491Z" fill="#0A7873"/>
</g>
<g clip-path="url(#clip2_43_8204)">
<path d="M310.389 4.10254C293.417 4.10254 278.429 13.3601 270.273 27.2464L310.389 50.3902V4.10254Z" fill="#5C7BCB"/>
<path d="M310.39 51.4919C310.17 51.4919 309.949 51.4919 309.729 51.2715L269.833 28.348C269.613 28.1276 269.393 27.9072 269.393 27.6868C269.393 27.4664 269.393 27.0255 269.393 26.8051C277.768 12.0371 293.639 3 310.39 3C311.052 3 311.492 3.44084 311.492 4.10209V50.3898C311.492 50.8306 311.272 51.051 310.831 51.2715C310.831 51.4919 310.611 51.4919 310.39 51.4919ZM271.817 26.8051L309.288 48.406V5.20418C294.079 5.64501 279.752 13.8005 271.817 26.8051Z" fill="#3A59A9"/>
<path d="M350.725 27.2464C342.57 13.3601 327.581 4.10254 310.389 4.10254V50.3902L350.725 27.2464Z" fill="#5C7BCB"/>
<path d="M310.389 51.4919C310.168 51.4919 309.948 51.4919 309.728 51.2715C309.287 51.051 309.066 50.6102 309.066 50.3898V4.10209C309.287 3.44084 309.948 3 310.389 3C327.361 3 343.011 12.0371 351.607 26.8051C351.827 27.0255 351.827 27.4664 351.607 27.6868C351.607 27.9072 351.387 28.1276 351.166 28.348L311.05 51.4919C310.83 51.4919 310.609 51.4919 310.389 51.4919ZM311.491 5.20418V48.6265L348.962 27.0255C341.247 13.8005 326.92 5.64501 311.491 5.20418Z" fill="#3A59A9"/>
<path d="M350.727 27.2461L310.391 50.3899L350.727 27.2461Z" fill="#E5EAF9"/>
<path d="M310.39 51.4916C309.95 51.4916 309.729 51.2712 309.509 50.8303C309.288 50.3895 309.288 49.7282 309.95 49.2874L350.066 26.1435C350.506 25.9231 351.168 25.9231 351.609 26.5844C351.609 26.8048 351.829 27.0252 351.829 27.0252C351.829 27.4661 351.609 27.6865 351.168 27.9069L311.052 51.4916H310.831C310.831 51.4916 310.611 51.4916 310.39 51.4916C310.611 51.4916 310.611 51.4916 310.39 51.4916Z" fill="#3A59A9"/>
<path d="M270.273 27.2451L310.389 50.389L270.273 27.2451Z" fill="#E5EAF9"/>
<path d="M310.39 51.4914C310.17 51.4914 309.949 51.4914 309.729 51.271L269.833 28.3476C269.392 28.1272 269.172 27.6863 269.172 27.4659C269.172 27.2455 269.172 27.0251 269.392 26.8046C269.613 26.3638 270.274 26.1434 270.935 26.3638L311.051 49.5077C311.492 49.7281 311.712 50.1689 311.712 50.3893C311.712 50.6098 311.712 50.8302 311.492 51.0506C311.272 51.4914 310.831 51.4914 310.39 51.4914Z" fill="#3A59A9"/>
<path d="M350.725 73.7545C354.693 66.9216 356.897 58.9865 356.897 50.6106C356.897 42.2348 354.693 34.2997 350.725 27.4668L310.389 50.3902L350.725 73.7545Z" fill="#E5EAF9"/>
<path d="M350.726 74.8564C350.505 74.8564 350.285 74.8564 350.064 74.636L309.948 51.4921C309.508 51.2717 309.287 50.8309 309.287 50.6105C309.287 50.1696 309.508 49.9492 309.948 49.7288L350.064 26.585C350.505 26.3645 351.166 26.3645 351.607 27.0258C355.795 34.2996 357.999 42.455 357.999 50.8309C357.999 59.2068 355.795 67.3622 351.607 74.636C351.387 74.636 351.166 74.8564 350.726 74.8564ZM312.593 50.3901L350.064 71.991C353.591 65.3785 355.575 57.8843 355.575 50.3901C355.575 42.8959 353.591 35.4017 350.064 28.7891L312.593 50.3901Z" fill="#3A59A9"/>
<path d="M270.273 27.2451C266.306 34.0781 264.102 42.0131 264.102 50.389C264.102 58.7648 266.306 66.6999 270.273 73.5328L310.389 50.389L270.273 27.2451Z" fill="#E5EAF9"/>
<path d="M270.274 74.8557C269.833 74.8557 269.613 74.6353 269.392 74.1944C265.204 67.1411 263 58.7652 263 50.3893C263 42.0135 265.204 33.858 269.392 26.8046C269.613 26.3638 270.274 26.1434 270.935 26.3638L311.051 49.5077C311.492 49.7281 311.712 50.1689 311.712 50.3893C311.712 50.8302 311.492 51.0506 311.051 51.271L270.935 74.6353C270.715 74.8557 270.494 74.8557 270.274 74.8557ZM270.715 28.7884C267.188 35.4009 265.204 42.8951 265.204 50.3893C265.204 57.8835 267.188 65.3777 270.715 71.9903L308.186 50.3893L270.715 28.7884Z" fill="#3A59A9"/>
<path d="M310.391 50.3896L350.727 73.7539L310.391 50.3896Z" fill="#E5EAF9"/>
<path d="M350.726 74.8558C350.506 74.8558 350.286 74.8558 350.065 74.6354L309.949 51.4916C309.508 51.2712 309.288 50.6099 309.508 49.9486C309.508 49.9486 309.508 49.7282 309.729 49.7282C309.949 49.5078 310.17 49.5078 310.39 49.5078C310.61 49.5078 310.831 49.5078 311.051 49.5078C311.051 49.5078 311.051 49.5078 311.272 49.5078L351.167 72.6517C351.608 72.8721 351.829 73.5333 351.608 74.1946C351.388 74.6354 351.167 74.8558 350.726 74.8558Z" fill="#3A59A9"/>
<path d="M310.389 96.8978C327.581 96.8978 342.57 87.6402 350.505 73.7539L310.389 50.3896V96.8978Z" fill="#E5EAF9"/>
<path d="M310.389 98.0003C309.728 98.0003 309.287 97.5594 309.287 96.8982V50.6105C309.287 50.1696 309.508 49.9492 309.948 49.7288C310.389 49.5084 310.61 49.5084 311.05 49.7288L351.166 72.6522C351.387 72.8726 351.607 73.0931 351.607 73.3135C351.607 73.5339 351.607 73.9747 351.607 74.1951C343.231 88.9631 327.361 98.0003 310.389 98.0003ZM311.491 52.3738V95.7961C326.921 95.3552 341.027 87.1998 348.962 74.1951L311.491 52.3738Z" fill="#3A59A9"/>
<path d="M270.273 73.7539L310.389 50.3896L270.273 73.7539Z" fill="#E5EAF9"/>
<path d="M270.274 74.8558C269.833 74.8558 269.613 74.6354 269.392 74.1946C269.392 73.9742 269.172 73.7537 269.172 73.5333C269.172 73.0925 269.392 72.8721 269.833 72.6517L309.949 49.5078C310.39 49.2874 311.051 49.2874 311.492 49.9486C311.492 50.1691 311.712 50.3895 311.712 50.6099C311.712 51.0507 311.492 51.2711 311.051 51.4916L270.935 74.6354C270.715 74.8558 270.494 74.8558 270.274 74.8558Z" fill="#3A59A9"/>
<path d="M270.273 73.7542C278.429 87.6405 293.417 96.898 310.389 96.898V50.6104L270.273 73.7542Z" fill="#E5EAF9"/>
<path d="M310.39 98C293.418 98 277.768 88.9628 269.172 74.1949C268.951 73.9744 268.951 73.5336 268.951 73.3132C268.951 73.0928 269.172 72.8724 269.392 72.6519L309.508 49.5081C309.949 49.2877 310.169 49.2877 310.61 49.5081C311.051 49.7285 311.271 50.1693 311.271 50.3898V96.6775C311.492 97.5591 311.051 98 310.39 98ZM271.817 74.1949C279.752 87.1995 294.079 95.5754 309.288 95.7958V52.3735L271.817 74.1949Z" fill="#3A59A9"/>
</g>
<g clip-path="url(#clip3_43_8204)">
<path d="M439.391 3.10254C426.607 3.10254 414.925 8.39256 406.549 16.7684L439.391 49.6107V3.10254Z" fill="#1E6B6B"/>
<path d="M439.391 50.4919C439.17 50.4919 438.729 50.2715 438.509 50.2715L405.887 17.4292C405.446 16.9884 405.446 16.3271 405.887 15.8863C414.924 6.84919 426.827 2 439.391 2C440.052 2 440.493 2.44084 440.493 3.10209V49.3898C440.493 49.8306 440.272 50.2715 439.832 50.4919C439.832 50.4919 439.611 50.4919 439.391 50.4919ZM408.312 16.768L438.289 46.7448V4.20418C427.047 4.42459 416.467 8.83295 408.312 16.768Z" fill="#065B5B"/>
<path d="M485.897 49.3901C485.897 36.6059 480.607 24.9237 472.231 16.5479L439.389 49.3901H485.897Z" fill="#DFF3F3"/>
<path d="M485.897 50.492H439.609C439.169 50.492 438.728 50.2716 438.507 49.8308C438.287 49.3899 438.507 48.9491 438.728 48.7287L471.57 15.8864C471.79 15.666 472.011 15.666 472.452 15.666C472.672 15.666 473.113 15.8864 473.333 15.8864C482.37 24.9236 487.22 36.8261 487.22 49.3899C486.999 50.0512 486.558 50.492 485.897 50.492ZM442.254 48.2878H484.795C484.575 37.0465 480.166 26.2461 472.231 18.0906L442.254 48.2878Z" fill="#065B5B"/>
<path d="M406.767 16.7676C398.392 25.1434 393.102 36.8256 393.102 49.6098H439.389L406.767 16.7676Z" fill="#DFF3F3"/>
<path d="M439.39 50.4919H393.102C392.441 50.4919 392 50.051 392 49.3898C392 36.6055 396.849 24.703 405.886 15.8863C406.327 15.4455 406.988 15.4455 407.429 15.8863L440.271 48.7285C440.492 48.9489 440.712 49.6102 440.492 49.8306C440.271 50.2714 440.051 50.4919 439.39 50.4919ZM394.204 48.2877H436.745L406.768 18.3109C398.833 26.4663 394.425 37.0464 394.204 48.2877Z" fill="#065B5B"/>
<path d="M472.231 16.7684C463.855 8.39256 452.173 3.10254 439.389 3.10254V49.3902L472.231 16.7684Z" fill="#DFF3F3"/>
<path d="M439.389 50.4919C439.169 50.4919 439.169 50.4919 438.948 50.4919C438.508 50.2715 438.287 49.8306 438.287 49.3898V3.10209C438.287 2.44084 438.948 2 439.389 2C452.173 2 464.076 6.84919 472.893 15.8863C473.113 16.1067 473.113 16.3271 473.113 16.768C473.113 16.9884 472.893 17.4292 472.893 17.6497L440.271 50.2715C440.05 50.4919 439.83 50.4919 439.389 50.4919ZM440.491 4.20418V46.7448L470.689 16.768C462.533 8.83295 451.953 4.42459 440.491 4.20418Z" fill="#065B5B"/>
<path d="M393.102 49.3906C393.102 62.1749 398.392 73.857 406.767 82.2329L439.61 49.3906H393.102Z" fill="#DFF3F3"/>
<path d="M406.768 83.3345C406.548 83.3345 406.107 83.3345 405.886 83.1141C396.849 74.0769 392 62.1744 392 49.3902C392 48.9493 392.441 48.2881 393.102 48.2881H439.39C439.831 48.2881 440.271 48.5085 440.492 48.9493C440.712 49.3902 440.492 49.831 440.271 50.0514L407.429 83.1141C407.209 83.3345 406.988 83.3345 406.768 83.3345ZM394.204 50.4923C394.425 61.7336 398.833 72.534 406.768 80.6895L436.745 50.4923H394.204Z" fill="#065B5B"/>
<path d="M485.897 49.3896H439.609L472.452 82.2319C480.607 73.856 485.897 62.3943 485.897 49.3896Z" fill="#DFF3F3"/>
<path d="M472.231 83.3338C472.011 83.3338 471.57 83.1134 471.35 83.1134L438.728 50.2712C438.507 50.0507 438.287 49.3895 438.507 49.1691C438.728 48.7282 439.169 48.5078 439.609 48.5078H485.897C486.558 48.5078 486.999 48.9486 486.999 49.6099C486.999 62.3941 482.15 74.2967 473.113 83.1134C472.892 83.3338 472.672 83.3338 472.231 83.3338ZM442.254 50.4916L472.452 80.6888C480.166 72.5333 484.575 61.9533 484.795 50.4916H442.254Z" fill="#065B5B"/>
<path d="M439.389 95.8978C452.173 95.8978 463.855 90.6077 472.231 82.2319L439.389 49.3896V95.8978Z" fill="#DFF3F3"/>
<path d="M439.389 97.0002C438.728 97.0002 438.287 96.5593 438.287 95.8981V49.6104C438.287 49.1695 438.508 48.7287 438.948 48.5083C439.389 48.2879 439.83 48.5083 440.05 48.7287L472.893 81.5709C473.113 81.7913 473.113 82.0118 473.113 82.4526C473.113 82.673 472.893 83.1139 472.893 83.3343C464.076 92.151 452.173 97.0002 439.389 97.0002ZM440.491 52.2554V94.796C451.733 94.5756 462.533 90.1672 470.689 82.2322L440.491 52.2554Z" fill="#065B5B"/>
<path d="M406.77 82.2322C415.145 90.608 426.828 95.8981 439.612 95.8981V49.6104L406.77 82.2322Z" fill="#DFF3F3"/>
<path d="M439.391 97.0002C426.607 97.0002 414.704 92.151 405.887 83.1139C405.446 82.673 405.446 82.0118 405.887 81.5709L438.729 48.7287C438.95 48.5083 439.611 48.2879 439.832 48.5083C440.272 48.7287 440.493 49.1695 440.493 49.6104V95.8981C440.493 96.5593 440.052 97.0002 439.391 97.0002ZM408.312 82.2322C416.467 90.1672 427.047 94.5756 438.289 94.796V52.2554L408.312 82.2322Z" fill="#065B5B"/>
</g>
<rect x="15.5" y="115.5" width="69" height="69" rx="4.5" fill="#369CB7"/>
<path d="M51.4389 127.9V140.5H49.6569V129.466H46.8129V127.9H51.4389Z" fill="white"/>
<path d="M54.552 169.934V171.5H45.498V170.276L50.628 165.326C51.252 164.726 51.672 164.21 51.888 163.778C52.104 163.334 52.212 162.89 52.212 162.446C52.212 161.786 51.978 161.276 51.51 160.916C51.054 160.544 50.394 160.358 49.53 160.358C48.138 160.358 47.064 160.814 46.308 161.726L45.084 160.664C45.576 160.064 46.218 159.596 47.01 159.26C47.814 158.924 48.708 158.756 49.692 158.756C51.012 158.756 52.062 159.074 52.842 159.71C53.622 160.334 54.012 161.186 54.012 162.266C54.012 162.938 53.868 163.574 53.58 164.174C53.292 164.774 52.746 165.458 51.942 166.226L48.09 169.934H54.552Z" fill="white"/>
<line x1="31.5" y1="149" x2="68.5" y2="149" stroke="white"/>
<rect x="15.5" y="115.5" width="69" height="69" rx="4.5" stroke="#369CB7"/>
<rect x="145.5" y="115.5" width="69" height="69" rx="4.5" fill="#369CB7"/>
<path d="M181.439 127.9V140.5H179.657V129.466H176.813V127.9H181.439Z" fill="white"/>
<path d="M185.805 168.404H183.411V171.5H181.665V168.404H174.663V167.144L181.107 158.9H183.051L176.877 166.856H181.719V164.12H183.411V166.856H185.805V168.404Z" fill="white"/>
<line x1="161.5" y1="149" x2="198.5" y2="149" stroke="white"/>
<rect x="145.5" y="115.5" width="69" height="69" rx="4.5" stroke="#369CB7"/>
<rect x="275.5" y="115.5" width="69" height="69" rx="4.5" fill="#369CB7"/>
<path d="M314.552 138.934V140.5H305.498V139.276L310.628 134.326C311.252 133.726 311.672 133.21 311.888 132.778C312.104 132.334 312.212 131.89 312.212 131.446C312.212 130.786 311.978 130.276 311.51 129.916C311.054 129.544 310.394 129.358 309.53 129.358C308.138 129.358 307.064 129.814 306.308 130.726L305.084 129.664C305.576 129.064 306.218 128.596 307.01 128.26C307.814 127.924 308.708 127.756 309.692 127.756C311.012 127.756 312.062 128.074 312.842 128.71C313.622 129.334 314.012 130.186 314.012 131.266C314.012 131.938 313.868 132.574 313.58 133.174C313.292 133.774 312.746 134.458 311.942 135.226L308.09 138.934H314.552Z" fill="white"/>
<path d="M310.245 163.85C311.073 163.85 311.811 164.006 312.459 164.318C313.119 164.63 313.635 165.08 314.007 165.668C314.379 166.244 314.565 166.91 314.565 167.666C314.565 168.458 314.367 169.154 313.971 169.754C313.587 170.354 313.053 170.822 312.369 171.158C311.697 171.482 310.941 171.644 310.101 171.644C308.409 171.644 307.101 171.098 306.177 170.006C305.265 168.914 304.809 167.366 304.809 165.362C304.809 163.958 305.055 162.764 305.547 161.78C306.051 160.784 306.747 160.034 307.635 159.53C308.535 159.014 309.579 158.756 310.767 158.756C311.379 158.756 311.955 158.822 312.495 158.954C313.035 159.074 313.503 159.254 313.899 159.494L313.215 160.898C312.615 160.502 311.811 160.304 310.803 160.304C309.495 160.304 308.469 160.712 307.725 161.528C306.981 162.332 306.609 163.508 306.609 165.056C306.609 165.248 306.615 165.398 306.627 165.506C306.987 164.966 307.479 164.558 308.103 164.282C308.739 163.994 309.453 163.85 310.245 163.85ZM310.029 170.186C310.857 170.186 311.529 169.964 312.045 169.52C312.561 169.076 312.819 168.482 312.819 167.738C312.819 166.994 312.555 166.406 312.027 165.974C311.511 165.53 310.815 165.308 309.939 165.308C309.375 165.308 308.871 165.416 308.427 165.632C307.995 165.848 307.653 166.142 307.401 166.514C307.161 166.886 307.041 167.3 307.041 167.756C307.041 168.2 307.155 168.608 307.383 168.98C307.623 169.34 307.965 169.634 308.409 169.862C308.865 170.078 309.405 170.186 310.029 170.186Z" fill="white"/>
<line x1="291.5" y1="149" x2="328.5" y2="149" stroke="white"/>
<rect x="275.5" y="115.5" width="69" height="69" rx="4.5" stroke="#369CB7"/>
<rect x="405.5" y="115.5" width="69" height="69" rx="4.5" fill="#369CB7"/>
<path d="M441.439 127.9V140.5H439.657V129.466H436.813V127.9H441.439Z" fill="white"/>
<path d="M442.276 164.894C442.996 165.17 443.548 165.566 443.932 166.082C444.316 166.598 444.508 167.216 444.508 167.936C444.508 168.692 444.304 169.352 443.896 169.916C443.488 170.468 442.906 170.894 442.15 171.194C441.394 171.494 440.506 171.644 439.486 171.644C438.478 171.644 437.596 171.494 436.84 171.194C436.096 170.894 435.52 170.468 435.112 169.916C434.704 169.352 434.5 168.692 434.5 167.936C434.5 167.216 434.686 166.598 435.058 166.082C435.442 165.566 435.994 165.17 436.714 164.894C436.138 164.618 435.7 164.252 435.4 163.796C435.1 163.34 434.95 162.8 434.95 162.176C434.95 161.48 435.136 160.874 435.508 160.358C435.892 159.842 436.426 159.446 437.11 159.17C437.794 158.894 438.586 158.756 439.486 158.756C440.398 158.756 441.196 158.894 441.88 159.17C442.576 159.446 443.11 159.842 443.482 160.358C443.866 160.874 444.058 161.48 444.058 162.176C444.058 162.788 443.902 163.328 443.59 163.796C443.29 164.252 442.852 164.618 442.276 164.894ZM439.486 160.214C438.634 160.214 437.962 160.4 437.47 160.772C436.978 161.132 436.732 161.624 436.732 162.248C436.732 162.872 436.972 163.364 437.452 163.724C437.944 164.084 438.622 164.264 439.486 164.264C440.362 164.264 441.046 164.084 441.538 163.724C442.042 163.364 442.294 162.872 442.294 162.248C442.294 161.624 442.036 161.132 441.52 160.772C441.016 160.4 440.338 160.214 439.486 160.214ZM439.486 170.186C440.482 170.186 441.268 169.982 441.844 169.574C442.42 169.154 442.708 168.59 442.708 167.882C442.708 167.186 442.42 166.64 441.844 166.244C441.268 165.836 440.482 165.632 439.486 165.632C438.49 165.632 437.71 165.836 437.146 166.244C436.582 166.64 436.3 167.186 436.3 167.882C436.3 168.59 436.582 169.154 437.146 169.574C437.71 169.982 438.49 170.186 439.486 170.186Z" fill="white"/>
<line x1="421.5" y1="149" x2="458.5" y2="149" stroke="white"/>
<rect x="405.5" y="115.5" width="69" height="69" rx="4.5" stroke="#369CB7"/>
<defs>
<clipPath id="clip0_43_8204">
<rect width="95" height="95" fill="white" transform="translate(3 3)"/>
</clipPath>
<clipPath id="clip1_43_8204">
<rect width="95" height="95" fill="white" transform="translate(133 3)"/>
</clipPath>
<clipPath id="clip2_43_8204">
<rect width="95" height="95" fill="white" transform="translate(263 3)"/>
</clipPath>
<clipPath id="clip3_43_8204">
<rect width="95" height="95" fill="white" transform="translate(392 2)"/>
</clipPath>
</defs>
</svg>
