<svg width="70" height="70" viewBox="0 0 70 70" fill="none" xmlns="http://www.w3.org/2000/svg">
<rect x="0.5" y="0.5" width="69" height="69" rx="4.5" fill="#369CB7"/>
<path d="M39.552 23.934V25.5H30.498V24.276L35.628 19.326C36.252 18.726 36.672 18.21 36.888 17.778C37.104 17.334 37.212 16.89 37.212 16.446C37.212 15.786 36.978 15.276 36.51 14.916C36.054 14.544 35.394 14.358 34.53 14.358C33.138 14.358 32.064 14.814 31.308 15.726L30.084 14.664C30.576 14.064 31.218 13.596 32.01 13.26C32.814 12.924 33.708 12.756 34.692 12.756C36.012 12.756 37.062 13.074 37.842 13.71C38.622 14.334 39.012 15.186 39.012 16.266C39.012 16.938 38.868 17.574 38.58 18.174C38.292 18.774 37.746 19.458 36.942 20.226L33.09 23.934H39.552Z" fill="white"/>
<path d="M35.2453 48.85C36.0733 48.85 36.8113 49.006 37.4593 49.318C38.1193 49.63 38.6353 50.08 39.0073 50.668C39.3793 51.244 39.5653 51.91 39.5653 52.666C39.5653 53.458 39.3673 54.154 38.9713 54.754C38.5873 55.354 38.0533 55.822 37.3693 56.158C36.6973 56.482 35.9413 56.644 35.1013 56.644C33.4093 56.644 32.1013 56.098 31.1773 55.006C30.2653 53.914 29.8093 52.366 29.8093 50.362C29.8093 48.958 30.0553 47.764 30.5473 46.78C31.0513 45.784 31.7473 45.034 32.6353 44.53C33.5353 44.014 34.5793 43.756 35.7673 43.756C36.3793 43.756 36.9553 43.822 37.4953 43.954C38.0353 44.074 38.5033 44.254 38.8993 44.494L38.2153 45.898C37.6153 45.502 36.8113 45.304 35.8033 45.304C34.4953 45.304 33.4693 45.712 32.7253 46.528C31.9813 47.332 31.6093 48.508 31.6093 50.056C31.6093 50.248 31.6153 50.398 31.6273 50.506C31.9873 49.966 32.4793 49.558 33.1033 49.282C33.7393 48.994 34.4533 48.85 35.2453 48.85ZM35.0293 55.186C35.8573 55.186 36.5293 54.964 37.0453 54.52C37.5613 54.076 37.8193 53.482 37.8193 52.738C37.8193 51.994 37.5553 51.406 37.0273 50.974C36.5113 50.53 35.8153 50.308 34.9393 50.308C34.3753 50.308 33.8713 50.416 33.4273 50.632C32.9953 50.848 32.6533 51.142 32.4013 51.514C32.1613 51.886 32.0413 52.3 32.0413 52.756C32.0413 53.2 32.1553 53.608 32.3833 53.98C32.6233 54.34 32.9653 54.634 33.4093 54.862C33.8653 55.078 34.4053 55.186 35.0293 55.186Z" fill="white"/>
<line x1="16.5" y1="34" x2="53.5" y2="34" stroke="white"/>
<rect x="0.5" y="0.5" width="69" height="69" rx="4.5" stroke="#369CB7"/>
</svg>
