<svg width="490" height="100" viewBox="0 0 490 100" fill="none" xmlns="http://www.w3.org/2000/svg">
<g clip-path="url(#clip0_19_8283)">
<path d="M96.8974 50.3902C96.8974 24.8218 76.1781 4.10254 50.6097 4.10254C25.0412 4.10254 4.10156 24.8218 4.10156 50.3902C4.10156 75.9587 24.8208 96.6779 50.6097 96.6779C76.1781 96.8984 96.8974 76.1791 96.8974 50.3902Z" fill="#369CB7"/>
<path d="M50.6102 98C24.3805 98 3 76.6195 3 50.3898C3 24.1601 24.3805 3 50.6102 3C76.8399 3 98 24.3805 98 50.3898C98 76.3991 76.6195 98 50.6102 98ZM50.6102 5.20418C25.4826 5.20418 5.20418 25.4826 5.20418 50.3898C5.20418 75.297 25.4826 95.5754 50.6102 95.5754C75.5174 95.5754 95.7958 75.297 95.7958 50.3898C95.7958 25.4826 75.5174 5.20418 50.6102 5.20418Z" fill="#005C88"/>
<path d="M50.6106 4.10254C50.3902 4.10254 50.3902 4.10254 50.6106 4.10254V96.8984C76.1791 96.8984 96.8983 76.1791 96.8983 50.6107C96.8983 25.0422 76.1791 4.10254 50.6106 4.10254Z" fill="#C3F6FE"/>
<path d="M50.6107 98C50.3903 98 50.3903 98 50.6107 98C49.9495 98 49.5086 97.5592 49.5086 96.8979V4.10209C49.2882 3.44084 49.9495 3 50.3903 3C76.62 3 98.0005 24.3805 98.0005 50.3898C98.0005 76.3991 76.62 98 50.6107 98ZM51.4924 5.20418V95.7958C75.9587 95.1346 95.7963 75.0766 95.7963 50.6102C95.7963 25.9234 75.9587 5.86543 51.4924 5.20418Z" fill="#005C88"/>
</g>
<g clip-path="url(#clip1_19_8283)">
<path d="M180.389 4.10254C154.821 4.10254 134.102 24.8218 134.102 50.3902H180.389V4.10254Z" fill="#1BBBB4"/>
<path d="M180.39 51.4919H134.102C133.441 51.4919 133 51.051 133 50.3898C133 24.3805 154.381 3 180.39 3C181.051 3 181.492 3.44084 181.492 4.10209V50.3898C181.492 51.051 181.051 51.4919 180.39 51.4919ZM135.204 49.2877H179.288V5.20418C155.262 5.86543 135.865 25.2622 135.204 49.2877Z" fill="#0A7873"/>
<path d="M134.102 50.3906C134.102 75.9591 154.821 96.6783 180.389 96.6783V50.3906H134.102Z" fill="#CEF8F6"/>
<path d="M180.39 98.0004C154.381 98.0004 133 76.6199 133 50.3902C133 49.9493 133.441 49.2881 134.102 49.2881H180.39C181.051 49.2881 181.492 49.7289 181.492 50.3902V96.6779C181.492 97.5596 181.051 98.0004 180.39 98.0004ZM135.204 51.4923C135.865 75.5178 155.262 95.135 179.288 95.5758V51.4923H135.204Z" fill="#0A7873"/>
<path d="M180.391 4.10254V50.3902H226.678C226.899 24.8218 206.179 4.10254 180.391 4.10254Z" fill="#CEF8F6"/>
<path d="M226.898 51.4919H180.611C179.949 51.4919 179.509 51.051 179.509 50.3898V4.10209C179.288 3.44084 179.949 3 180.39 3C206.62 3 227.78 24.3805 227.78 50.3898C228 51.051 227.56 51.4919 226.898 51.4919ZM181.492 49.2877H225.576C225.135 25.2622 205.738 5.86543 181.492 5.20418V49.2877Z" fill="#0A7873"/>
<path d="M180.389 96.898C205.957 96.898 226.676 76.1788 226.676 50.6104H180.389V96.898Z" fill="#CEF8F6"/>
<path d="M180.389 97.9997C179.728 97.9997 179.287 97.5589 179.287 96.8976V50.6099C179.287 49.9486 179.728 49.5078 180.389 49.5078H226.677C227.338 49.5078 227.779 49.9486 227.779 50.6099C227.999 76.6192 206.619 97.9997 180.389 97.9997ZM181.491 51.4916V95.5751C205.517 94.9138 225.134 75.5171 225.575 51.4916H181.491Z" fill="#0A7873"/>
</g>
<g clip-path="url(#clip2_19_8283)">
<path d="M310.389 4.10254C293.417 4.10254 278.429 13.3601 270.273 27.2464L310.389 50.3902V4.10254Z" fill="#5C7BCB"/>
<path d="M310.39 51.4919C310.17 51.4919 309.949 51.4919 309.729 51.2715L269.833 28.348C269.613 28.1276 269.393 27.9072 269.393 27.6868C269.393 27.4664 269.393 27.0255 269.393 26.8051C277.768 12.0371 293.639 3 310.39 3C311.052 3 311.492 3.44084 311.492 4.10209V50.3898C311.492 50.8306 311.272 51.051 310.831 51.2715C310.831 51.4919 310.611 51.4919 310.39 51.4919ZM271.817 26.8051L309.288 48.406V5.20418C294.079 5.64501 279.752 13.8005 271.817 26.8051Z" fill="#3A59A9"/>
<path d="M350.725 27.2464C342.57 13.3601 327.581 4.10254 310.389 4.10254V50.3902L350.725 27.2464Z" fill="#5C7BCB"/>
<path d="M310.389 51.4919C310.168 51.4919 309.948 51.4919 309.728 51.2715C309.287 51.051 309.066 50.6102 309.066 50.3898V4.10209C309.287 3.44084 309.948 3 310.389 3C327.361 3 343.011 12.0371 351.607 26.8051C351.827 27.0255 351.827 27.4664 351.607 27.6868C351.607 27.9072 351.387 28.1276 351.166 28.348L311.05 51.4919C310.83 51.4919 310.609 51.4919 310.389 51.4919ZM311.491 5.20418V48.6265L348.962 27.0255C341.247 13.8005 326.92 5.64501 311.491 5.20418Z" fill="#3A59A9"/>
<path d="M350.727 27.2461L310.391 50.3899L350.727 27.2461Z" fill="#E5EAF9"/>
<path d="M310.39 51.4916C309.95 51.4916 309.729 51.2712 309.509 50.8303C309.288 50.3895 309.288 49.7282 309.95 49.2874L350.066 26.1435C350.506 25.9231 351.168 25.9231 351.609 26.5844C351.609 26.8048 351.829 27.0252 351.829 27.0252C351.829 27.4661 351.609 27.6865 351.168 27.9069L311.052 51.4916H310.831C310.831 51.4916 310.611 51.4916 310.39 51.4916C310.611 51.4916 310.611 51.4916 310.39 51.4916Z" fill="#3A59A9"/>
<path d="M270.273 27.2451L310.389 50.389L270.273 27.2451Z" fill="#E5EAF9"/>
<path d="M310.39 51.4914C310.17 51.4914 309.949 51.4914 309.729 51.271L269.833 28.3476C269.392 28.1272 269.172 27.6863 269.172 27.4659C269.172 27.2455 269.172 27.0251 269.392 26.8046C269.613 26.3638 270.274 26.1434 270.935 26.3638L311.051 49.5077C311.492 49.7281 311.712 50.1689 311.712 50.3893C311.712 50.6098 311.712 50.8302 311.492 51.0506C311.272 51.4914 310.831 51.4914 310.39 51.4914Z" fill="#3A59A9"/>
<path d="M350.725 73.7545C354.693 66.9216 356.897 58.9865 356.897 50.6106C356.897 42.2348 354.693 34.2997 350.725 27.4668L310.389 50.3902L350.725 73.7545Z" fill="#E5EAF9"/>
<path d="M350.726 74.8564C350.505 74.8564 350.285 74.8564 350.064 74.636L309.948 51.4921C309.508 51.2717 309.287 50.8309 309.287 50.6105C309.287 50.1696 309.508 49.9492 309.948 49.7288L350.064 26.585C350.505 26.3645 351.166 26.3645 351.607 27.0258C355.795 34.2996 357.999 42.455 357.999 50.8309C357.999 59.2068 355.795 67.3622 351.607 74.636C351.387 74.636 351.166 74.8564 350.726 74.8564ZM312.593 50.3901L350.064 71.991C353.591 65.3785 355.575 57.8843 355.575 50.3901C355.575 42.8959 353.591 35.4017 350.064 28.7891L312.593 50.3901Z" fill="#3A59A9"/>
<path d="M270.273 27.2451C266.306 34.0781 264.102 42.0131 264.102 50.389C264.102 58.7648 266.306 66.6999 270.273 73.5328L310.389 50.389L270.273 27.2451Z" fill="#E5EAF9"/>
<path d="M270.274 74.8557C269.833 74.8557 269.613 74.6353 269.392 74.1944C265.204 67.1411 263 58.7652 263 50.3893C263 42.0135 265.204 33.858 269.392 26.8046C269.613 26.3638 270.274 26.1434 270.935 26.3638L311.051 49.5077C311.492 49.7281 311.712 50.1689 311.712 50.3893C311.712 50.8302 311.492 51.0506 311.051 51.271L270.935 74.6353C270.715 74.8557 270.494 74.8557 270.274 74.8557ZM270.715 28.7884C267.188 35.4009 265.204 42.8951 265.204 50.3893C265.204 57.8835 267.188 65.3777 270.715 71.9903L308.186 50.3893L270.715 28.7884Z" fill="#3A59A9"/>
<path d="M310.391 50.3896L350.727 73.7539L310.391 50.3896Z" fill="#E5EAF9"/>
<path d="M350.726 74.8558C350.506 74.8558 350.286 74.8558 350.065 74.6354L309.949 51.4916C309.508 51.2712 309.288 50.6099 309.508 49.9486C309.508 49.9486 309.508 49.7282 309.729 49.7282C309.949 49.5078 310.17 49.5078 310.39 49.5078C310.61 49.5078 310.831 49.5078 311.051 49.5078C311.051 49.5078 311.051 49.5078 311.272 49.5078L351.167 72.6517C351.608 72.8721 351.829 73.5333 351.608 74.1946C351.388 74.6354 351.167 74.8558 350.726 74.8558Z" fill="#3A59A9"/>
<path d="M310.389 96.8978C327.581 96.8978 342.57 87.6402 350.505 73.7539L310.389 50.3896V96.8978Z" fill="#E5EAF9"/>
<path d="M310.389 98.0003C309.728 98.0003 309.287 97.5594 309.287 96.8982V50.6105C309.287 50.1696 309.508 49.9492 309.948 49.7288C310.389 49.5084 310.61 49.5084 311.05 49.7288L351.166 72.6522C351.387 72.8726 351.607 73.0931 351.607 73.3135C351.607 73.5339 351.607 73.9747 351.607 74.1951C343.231 88.9631 327.361 98.0003 310.389 98.0003ZM311.491 52.3738V95.7961C326.921 95.3552 341.027 87.1998 348.962 74.1951L311.491 52.3738Z" fill="#3A59A9"/>
<path d="M270.273 73.7539L310.389 50.3896L270.273 73.7539Z" fill="#E5EAF9"/>
<path d="M270.274 74.8558C269.833 74.8558 269.613 74.6354 269.392 74.1946C269.392 73.9742 269.172 73.7537 269.172 73.5333C269.172 73.0925 269.392 72.8721 269.833 72.6517L309.949 49.5078C310.39 49.2874 311.051 49.2874 311.492 49.9486C311.492 50.1691 311.712 50.3895 311.712 50.6099C311.712 51.0507 311.492 51.2711 311.051 51.4916L270.935 74.6354C270.715 74.8558 270.494 74.8558 270.274 74.8558Z" fill="#3A59A9"/>
<path d="M270.273 73.7542C278.429 87.6405 293.417 96.898 310.389 96.898V50.6104L270.273 73.7542Z" fill="#E5EAF9"/>
<path d="M310.39 98C293.418 98 277.768 88.9628 269.172 74.1949C268.951 73.9744 268.951 73.5336 268.951 73.3132C268.951 73.0928 269.172 72.8724 269.392 72.6519L309.508 49.5081C309.949 49.2877 310.169 49.2877 310.61 49.5081C311.051 49.7285 311.271 50.1693 311.271 50.3898V96.6775C311.492 97.5591 311.051 98 310.39 98ZM271.817 74.1949C279.752 87.1995 294.079 95.5754 309.288 95.7958V52.3735L271.817 74.1949Z" fill="#3A59A9"/>
</g>
<g clip-path="url(#clip3_19_8283)">
<path d="M439.391 3.10254C426.607 3.10254 414.925 8.39256 406.549 16.7684L439.391 49.6107V3.10254Z" fill="#1E6B6B"/>
<path d="M439.391 50.4919C439.17 50.4919 438.729 50.2715 438.509 50.2715L405.887 17.4292C405.446 16.9884 405.446 16.3271 405.887 15.8863C414.924 6.84919 426.827 2 439.391 2C440.052 2 440.493 2.44084 440.493 3.10209V49.3898C440.493 49.8306 440.272 50.2715 439.832 50.4919C439.832 50.4919 439.611 50.4919 439.391 50.4919ZM408.312 16.768L438.289 46.7448V4.20418C427.047 4.42459 416.467 8.83295 408.312 16.768Z" fill="#065B5B"/>
<path d="M485.897 49.3901C485.897 36.6059 480.607 24.9237 472.231 16.5479L439.389 49.3901H485.897Z" fill="#DFF3F3"/>
<path d="M485.897 50.492H439.609C439.169 50.492 438.728 50.2716 438.507 49.8308C438.287 49.3899 438.507 48.9491 438.728 48.7287L471.57 15.8864C471.79 15.666 472.011 15.666 472.452 15.666C472.672 15.666 473.113 15.8864 473.333 15.8864C482.37 24.9236 487.22 36.8261 487.22 49.3899C486.999 50.0512 486.558 50.492 485.897 50.492ZM442.254 48.2878H484.795C484.575 37.0465 480.166 26.2461 472.231 18.0906L442.254 48.2878Z" fill="#065B5B"/>
<path d="M406.767 16.7676C398.392 25.1434 393.102 36.8256 393.102 49.6098H439.389L406.767 16.7676Z" fill="#DFF3F3"/>
<path d="M439.39 50.4919H393.102C392.441 50.4919 392 50.051 392 49.3898C392 36.6055 396.849 24.703 405.886 15.8863C406.327 15.4455 406.988 15.4455 407.429 15.8863L440.271 48.7285C440.492 48.9489 440.712 49.6102 440.492 49.8306C440.271 50.2714 440.051 50.4919 439.39 50.4919ZM394.204 48.2877H436.745L406.768 18.3109C398.833 26.4663 394.425 37.0464 394.204 48.2877Z" fill="#065B5B"/>
<path d="M472.231 16.7684C463.855 8.39256 452.173 3.10254 439.389 3.10254V49.3902L472.231 16.7684Z" fill="#DFF3F3"/>
<path d="M439.389 50.4919C439.169 50.4919 439.169 50.4919 438.948 50.4919C438.508 50.2715 438.287 49.8306 438.287 49.3898V3.10209C438.287 2.44084 438.948 2 439.389 2C452.173 2 464.076 6.84919 472.893 15.8863C473.113 16.1067 473.113 16.3271 473.113 16.768C473.113 16.9884 472.893 17.4292 472.893 17.6497L440.271 50.2715C440.05 50.4919 439.83 50.4919 439.389 50.4919ZM440.491 4.20418V46.7448L470.689 16.768C462.533 8.83295 451.953 4.42459 440.491 4.20418Z" fill="#065B5B"/>
<path d="M393.102 49.3906C393.102 62.1749 398.392 73.857 406.767 82.2329L439.61 49.3906H393.102Z" fill="#DFF3F3"/>
<path d="M406.768 83.3345C406.548 83.3345 406.107 83.3345 405.886 83.1141C396.849 74.0769 392 62.1744 392 49.3902C392 48.9493 392.441 48.2881 393.102 48.2881H439.39C439.831 48.2881 440.271 48.5085 440.492 48.9493C440.712 49.3902 440.492 49.831 440.271 50.0514L407.429 83.1141C407.209 83.3345 406.988 83.3345 406.768 83.3345ZM394.204 50.4923C394.425 61.7336 398.833 72.534 406.768 80.6895L436.745 50.4923H394.204Z" fill="#065B5B"/>
<path d="M485.897 49.3896H439.609L472.452 82.2319C480.607 73.856 485.897 62.3943 485.897 49.3896Z" fill="#DFF3F3"/>
<path d="M472.231 83.3338C472.011 83.3338 471.57 83.1134 471.35 83.1134L438.728 50.2712C438.507 50.0507 438.287 49.3895 438.507 49.1691C438.728 48.7282 439.169 48.5078 439.609 48.5078H485.897C486.558 48.5078 486.999 48.9486 486.999 49.6099C486.999 62.3941 482.15 74.2967 473.113 83.1134C472.892 83.3338 472.672 83.3338 472.231 83.3338ZM442.254 50.4916L472.452 80.6888C480.166 72.5333 484.575 61.9533 484.795 50.4916H442.254Z" fill="#065B5B"/>
<path d="M439.389 95.8978C452.173 95.8978 463.855 90.6077 472.231 82.2319L439.389 49.3896V95.8978Z" fill="#DFF3F3"/>
<path d="M439.389 97.0002C438.728 97.0002 438.287 96.5593 438.287 95.8981V49.6104C438.287 49.1695 438.508 48.7287 438.948 48.5083C439.389 48.2879 439.83 48.5083 440.05 48.7287L472.893 81.5709C473.113 81.7913 473.113 82.0118 473.113 82.4526C473.113 82.673 472.893 83.1139 472.893 83.3343C464.076 92.151 452.173 97.0002 439.389 97.0002ZM440.491 52.2554V94.796C451.733 94.5756 462.533 90.1672 470.689 82.2322L440.491 52.2554Z" fill="#065B5B"/>
<path d="M406.77 82.2322C415.145 90.608 426.828 95.8981 439.612 95.8981V49.6104L406.77 82.2322Z" fill="#DFF3F3"/>
<path d="M439.391 97.0002C426.607 97.0002 414.704 92.151 405.887 83.1139C405.446 82.673 405.446 82.0118 405.887 81.5709L438.729 48.7287C438.95 48.5083 439.611 48.2879 439.832 48.5083C440.272 48.7287 440.493 49.1695 440.493 49.6104V95.8981C440.493 96.5593 440.052 97.0002 439.391 97.0002ZM408.312 82.2322C416.467 90.1672 427.047 94.5756 438.289 94.796V52.2554L408.312 82.2322Z" fill="#065B5B"/>
</g>
<defs>
<clipPath id="clip0_19_8283">
<rect width="95" height="95" fill="white" transform="translate(3 3)"/>
</clipPath>
<clipPath id="clip1_19_8283">
<rect width="95" height="95" fill="white" transform="translate(133 3)"/>
</clipPath>
<clipPath id="clip2_19_8283">
<rect width="95" height="95" fill="white" transform="translate(263 3)"/>
</clipPath>
<clipPath id="clip3_19_8283">
<rect width="95" height="95" fill="white" transform="translate(392 2)"/>
</clipPath>
</defs>
</svg>
