<svg width="70" height="70" viewBox="0 0 70 70" fill="none" xmlns="http://www.w3.org/2000/svg">
<rect x="0.5" y="0.5" width="69" height="69" rx="4.5" fill="#369CB7"/>
<path d="M36.4389 12.9V25.5H34.6569V14.466H31.8129V12.9H36.4389Z" fill="white"/>
<path d="M39.552 54.934V56.5H30.498V55.276L35.628 50.326C36.252 49.726 36.672 49.21 36.888 48.778C37.104 48.334 37.212 47.89 37.212 47.446C37.212 46.786 36.978 46.276 36.51 45.916C36.054 45.544 35.394 45.358 34.53 45.358C33.138 45.358 32.064 45.814 31.308 46.726L30.084 45.664C30.576 45.064 31.218 44.596 32.01 44.26C32.814 43.924 33.708 43.756 34.692 43.756C36.012 43.756 37.062 44.074 37.842 44.71C38.622 45.334 39.012 46.186 39.012 47.266C39.012 47.938 38.868 48.574 38.58 49.174C38.292 49.774 37.746 50.458 36.942 51.226L33.09 54.934H39.552Z" fill="white"/>
<line x1="16.5" y1="34" x2="53.5" y2="34" stroke="white"/>
<rect x="0.5" y="0.5" width="69" height="69" rx="4.5" stroke="#369CB7"/>
</svg>
