<svg width="70" height="70" viewBox="0 0 70 70" fill="none" xmlns="http://www.w3.org/2000/svg">
<rect x="0.5" y="0.5" width="69" height="69" rx="4.5" fill="#369CB7"/>
<path d="M36.4389 12.9V25.5H34.6569V14.466H31.8129V12.9H36.4389Z" fill="white"/>
<path d="M37.276 49.894C37.996 50.17 38.548 50.566 38.932 51.082C39.316 51.598 39.508 52.216 39.508 52.936C39.508 53.692 39.304 54.352 38.896 54.916C38.488 55.468 37.906 55.894 37.15 56.194C36.394 56.494 35.506 56.644 34.486 56.644C33.478 56.644 32.596 56.494 31.84 56.194C31.096 55.894 30.52 55.468 30.112 54.916C29.704 54.352 29.5 53.692 29.5 52.936C29.5 52.216 29.686 51.598 30.058 51.082C30.442 50.566 30.994 50.17 31.714 49.894C31.138 49.618 30.7 49.252 30.4 48.796C30.1 48.34 29.95 47.8 29.95 47.176C29.95 46.48 30.136 45.874 30.508 45.358C30.892 44.842 31.426 44.446 32.11 44.17C32.794 43.894 33.586 43.756 34.486 43.756C35.398 43.756 36.196 43.894 36.88 44.17C37.576 44.446 38.11 44.842 38.482 45.358C38.866 45.874 39.058 46.48 39.058 47.176C39.058 47.788 38.902 48.328 38.59 48.796C38.29 49.252 37.852 49.618 37.276 49.894ZM34.486 45.214C33.634 45.214 32.962 45.4 32.47 45.772C31.978 46.132 31.732 46.624 31.732 47.248C31.732 47.872 31.972 48.364 32.452 48.724C32.944 49.084 33.622 49.264 34.486 49.264C35.362 49.264 36.046 49.084 36.538 48.724C37.042 48.364 37.294 47.872 37.294 47.248C37.294 46.624 37.036 46.132 36.52 45.772C36.016 45.4 35.338 45.214 34.486 45.214ZM34.486 55.186C35.482 55.186 36.268 54.982 36.844 54.574C37.42 54.154 37.708 53.59 37.708 52.882C37.708 52.186 37.42 51.64 36.844 51.244C36.268 50.836 35.482 50.632 34.486 50.632C33.49 50.632 32.71 50.836 32.146 51.244C31.582 51.64 31.3 52.186 31.3 52.882C31.3 53.59 31.582 54.154 32.146 54.574C32.71 54.982 33.49 55.186 34.486 55.186Z" fill="white"/>
<line x1="16.5" y1="34" x2="53.5" y2="34" stroke="white"/>
<rect x="0.5" y="0.5" width="69" height="69" rx="4.5" stroke="#369CB7"/>
</svg>
