<svg width="783" height="120" viewBox="0 0 783 120" fill="none" xmlns="http://www.w3.org/2000/svg">
<path d="M10.6509 28.5L7.93291 24.63C7.59691 24.654 7.33291 24.666 7.14091 24.666H4.02691V28.5H2.22691V15.9H7.14091C8.77291 15.9 10.0569 16.29 10.9929 17.07C11.9289 17.85 12.3969 18.924 12.3969 20.292C12.3969 21.264 12.1569 22.092 11.6769 22.776C11.1969 23.46 10.5129 23.958 9.62491 24.27L12.6129 28.5H10.6509ZM7.08691 23.136C8.22691 23.136 9.09691 22.89 9.69691 22.398C10.2969 21.906 10.5969 21.204 10.5969 20.292C10.5969 19.38 10.2969 18.684 9.69691 18.204C9.09691 17.712 8.22691 17.466 7.08691 17.466H4.02691V23.136H7.08691ZM19.139 28.608C18.191 28.608 17.339 28.398 16.583 27.978C15.827 27.558 15.233 26.982 14.801 26.25C14.381 25.506 14.171 24.666 14.171 23.73C14.171 22.794 14.381 21.96 14.801 21.228C15.233 20.484 15.827 19.908 16.583 19.5C17.339 19.08 18.191 18.87 19.139 18.87C20.087 18.87 20.933 19.08 21.677 19.5C22.433 19.908 23.021 20.484 23.441 21.228C23.873 21.96 24.089 22.794 24.089 23.73C24.089 24.666 23.873 25.506 23.441 26.25C23.021 26.982 22.433 27.558 21.677 27.978C20.933 28.398 20.087 28.608 19.139 28.608ZM19.139 27.096C19.751 27.096 20.297 26.958 20.777 26.682C21.269 26.394 21.653 25.998 21.929 25.494C22.205 24.978 22.343 24.39 22.343 23.73C22.343 23.07 22.205 22.488 21.929 21.984C21.653 21.468 21.269 21.072 20.777 20.796C20.297 20.52 19.751 20.382 19.139 20.382C18.527 20.382 17.975 20.52 17.483 20.796C17.003 21.072 16.619 21.468 16.331 21.984C16.055 22.488 15.917 23.07 15.917 23.73C15.917 24.39 16.055 24.978 16.331 25.494C16.619 25.998 17.003 26.394 17.483 26.682C17.975 26.958 18.527 27.096 19.139 27.096ZM35.3708 18.96V28.5H33.7328V27.06C33.3848 27.552 32.9228 27.936 32.3468 28.212C31.7828 28.476 31.1648 28.608 30.4928 28.608C29.2208 28.608 28.2188 28.26 27.4868 27.564C26.7548 26.856 26.3888 25.818 26.3888 24.45V18.96H28.1168V24.252C28.1168 25.176 28.3388 25.878 28.7828 26.358C29.2268 26.826 29.8628 27.06 30.6908 27.06C31.6028 27.06 32.3228 26.784 32.8508 26.232C33.3788 25.68 33.6428 24.9 33.6428 23.892V18.96H35.3708ZM43.7545 18.87C44.9665 18.87 45.9265 19.224 46.6345 19.932C47.3545 20.628 47.7145 21.654 47.7145 23.01V28.5H45.9865V23.208C45.9865 22.284 45.7645 21.588 45.3205 21.12C44.8765 20.652 44.2405 20.418 43.4125 20.418C42.4765 20.418 41.7385 20.694 41.1985 21.246C40.6585 21.786 40.3885 22.566 40.3885 23.586V28.5H38.6605V18.96H40.3165V20.4C40.6645 19.908 41.1325 19.53 41.7205 19.266C42.3205 19.002 42.9985 18.87 43.7545 18.87ZM59.9651 15.144V28.5H58.3091V26.988C57.9251 27.516 57.4391 27.918 56.8511 28.194C56.2631 28.47 55.6151 28.608 54.9071 28.608C53.9831 28.608 53.1551 28.404 52.4231 27.996C51.6911 27.588 51.1151 27.018 50.6951 26.286C50.2871 25.542 50.0831 24.69 50.0831 23.73C50.0831 22.77 50.2871 21.924 50.6951 21.192C51.1151 20.46 51.6911 19.89 52.4231 19.482C53.1551 19.074 53.9831 18.87 54.9071 18.87C55.5911 18.87 56.2211 19.002 56.7971 19.266C57.3731 19.518 57.8531 19.896 58.2371 20.4V15.144H59.9651ZM55.0511 27.096C55.6511 27.096 56.1971 26.958 56.6891 26.682C57.1811 26.394 57.5651 25.998 57.8411 25.494C58.1171 24.978 58.2551 24.39 58.2551 23.73C58.2551 23.07 58.1171 22.488 57.8411 21.984C57.5651 21.468 57.1811 21.072 56.6891 20.796C56.1971 20.52 55.6511 20.382 55.0511 20.382C54.4391 20.382 53.8871 20.52 53.3951 20.796C52.9151 21.072 52.5311 21.468 52.2431 21.984C51.9671 22.488 51.8291 23.07 51.8291 23.73C51.8291 24.39 51.9671 24.978 52.2431 25.494C52.5311 25.998 52.9151 26.394 53.3951 26.682C53.8871 26.958 54.4391 27.096 55.0511 27.096ZM71.1647 20.778C72.9407 20.778 74.2547 21.126 75.1067 21.822C75.9587 22.506 76.3847 23.442 76.3847 24.63C76.3847 25.386 76.1987 26.07 75.8267 26.682C75.4547 27.294 74.8967 27.78 74.1527 28.14C73.4087 28.5 72.4907 28.68 71.3987 28.68C70.4987 28.68 69.6287 28.554 68.7887 28.302C67.9487 28.038 67.2407 27.678 66.6647 27.222L67.6547 25.404C68.1227 25.788 68.6807 26.094 69.3287 26.322C69.9887 26.538 70.6667 26.646 71.3627 26.646C72.1907 26.646 72.8387 26.478 73.3067 26.142C73.7867 25.794 74.0267 25.32 74.0267 24.72C74.0267 24.072 73.7687 23.586 73.2527 23.262C72.7487 22.926 71.8787 22.758 70.6427 22.758H67.6007L68.2487 15.9H75.6467V17.862H70.2287L69.9587 20.778H71.1647ZM83.4584 20.724C84.2864 20.724 85.0304 20.886 85.6904 21.21C86.3504 21.522 86.8664 21.972 87.2384 22.56C87.6104 23.148 87.7964 23.826 87.7964 24.594C87.7964 25.41 87.5924 26.13 87.1844 26.754C86.7764 27.366 86.2244 27.84 85.5284 28.176C84.8324 28.512 84.0524 28.68 83.1884 28.68C81.4604 28.68 80.1164 28.14 79.1564 27.06C78.2084 25.98 77.7344 24.432 77.7344 22.416C77.7344 21 77.9924 19.794 78.5084 18.798C79.0244 17.79 79.7444 17.028 80.6684 16.512C81.6044 15.984 82.6844 15.72 83.9084 15.72C84.5564 15.72 85.1624 15.792 85.7264 15.936C86.3024 16.068 86.8004 16.266 87.2204 16.53L86.3564 18.294C85.7324 17.886 84.9344 17.682 83.9624 17.682C82.7504 17.682 81.8024 18.054 81.1184 18.798C80.4344 19.542 80.0924 20.616 80.0924 22.02V22.038C80.4644 21.606 80.9384 21.282 81.5144 21.066C82.0904 20.838 82.7384 20.724 83.4584 20.724ZM83.0624 26.844C83.7944 26.844 84.3884 26.652 84.8444 26.268C85.3004 25.872 85.5284 25.35 85.5284 24.702C85.5284 24.042 85.3004 23.52 84.8444 23.136C84.3884 22.752 83.7764 22.56 83.0084 22.56C82.2524 22.56 81.6344 22.764 81.1544 23.172C80.6864 23.58 80.4524 24.096 80.4524 24.72C80.4524 25.332 80.6804 25.842 81.1364 26.25C81.6044 26.646 82.2464 26.844 83.0624 26.844ZM98.4356 15.9V17.466L93.5396 28.5H91.0376L95.7716 17.88H90.8216V20.022H88.6436V15.9H98.4356ZM110.927 27.942C110.675 28.158 110.363 28.326 109.991 28.446C109.619 28.554 109.235 28.608 108.839 28.608C107.879 28.608 107.135 28.35 106.607 27.834C106.079 27.318 105.815 26.58 105.815 25.62V20.382H104.195V18.96H105.815V16.872H107.543V18.96H110.279V20.382H107.543V25.548C107.543 26.064 107.669 26.46 107.921 26.736C108.185 27.012 108.557 27.15 109.037 27.15C109.565 27.15 110.015 27 110.387 26.7L110.927 27.942ZM116.786 28.608C115.838 28.608 114.986 28.398 114.23 27.978C113.474 27.558 112.88 26.982 112.448 26.25C112.028 25.506 111.818 24.666 111.818 23.73C111.818 22.794 112.028 21.96 112.448 21.228C112.88 20.484 113.474 19.908 114.23 19.5C114.986 19.08 115.838 18.87 116.786 18.87C117.734 18.87 118.58 19.08 119.324 19.5C120.08 19.908 120.668 20.484 121.088 21.228C121.52 21.96 121.736 22.794 121.736 23.73C121.736 24.666 121.52 25.506 121.088 26.25C120.668 26.982 120.08 27.558 119.324 27.978C118.58 28.398 117.734 28.608 116.786 28.608ZM116.786 27.096C117.398 27.096 117.944 26.958 118.424 26.682C118.916 26.394 119.3 25.998 119.576 25.494C119.852 24.978 119.99 24.39 119.99 23.73C119.99 23.07 119.852 22.488 119.576 21.984C119.3 21.468 118.916 21.072 118.424 20.796C117.944 20.52 117.398 20.382 116.786 20.382C116.174 20.382 115.622 20.52 115.13 20.796C114.65 21.072 114.266 21.468 113.978 21.984C113.702 22.488 113.564 23.07 113.564 23.73C113.564 24.39 113.702 24.978 113.978 25.494C114.266 25.998 114.65 26.394 115.13 26.682C115.622 26.958 116.174 27.096 116.786 27.096ZM134.323 27.942C134.071 28.158 133.759 28.326 133.387 28.446C133.015 28.554 132.631 28.608 132.235 28.608C131.275 28.608 130.531 28.35 130.003 27.834C129.475 27.318 129.211 26.58 129.211 25.62V20.382H127.591V18.96H129.211V16.872H130.939V18.96H133.675V20.382H130.939V25.548C130.939 26.064 131.065 26.46 131.317 26.736C131.581 27.012 131.953 27.15 132.433 27.15C132.961 27.15 133.411 27 133.783 26.7L134.323 27.942ZM141.506 18.87C142.718 18.87 143.678 19.224 144.386 19.932C145.106 20.628 145.466 21.654 145.466 23.01V28.5H143.738V23.208C143.738 22.284 143.516 21.588 143.072 21.12C142.628 20.652 141.992 20.418 141.164 20.418C140.228 20.418 139.49 20.694 138.95 21.246C138.41 21.786 138.14 22.566 138.14 23.586V28.5H136.412V15.144H138.14V20.31C138.5 19.854 138.968 19.5 139.544 19.248C140.132 18.996 140.786 18.87 141.506 18.87ZM157.339 23.784C157.339 23.916 157.327 24.09 157.303 24.306H149.563C149.671 25.146 150.037 25.824 150.661 26.34C151.297 26.844 152.083 27.096 153.019 27.096C154.159 27.096 155.077 26.712 155.773 25.944L156.727 27.06C156.295 27.564 155.755 27.948 155.107 28.212C154.471 28.476 153.757 28.608 152.965 28.608C151.957 28.608 151.063 28.404 150.283 27.996C149.503 27.576 148.897 26.994 148.465 26.25C148.045 25.506 147.835 24.666 147.835 23.73C147.835 22.806 148.039 21.972 148.447 21.228C148.867 20.484 149.437 19.908 150.157 19.5C150.889 19.08 151.711 18.87 152.623 18.87C153.535 18.87 154.345 19.08 155.053 19.5C155.773 19.908 156.331 20.484 156.727 21.228C157.135 21.972 157.339 22.824 157.339 23.784ZM152.623 20.328C151.795 20.328 151.099 20.58 150.535 21.084C149.983 21.588 149.659 22.248 149.563 23.064H155.683C155.587 22.26 155.257 21.606 154.693 21.102C154.141 20.586 153.451 20.328 152.623 20.328ZM169.667 18.87C170.879 18.87 171.839 19.224 172.547 19.932C173.267 20.628 173.627 21.654 173.627 23.01V28.5H171.899V23.208C171.899 22.284 171.677 21.588 171.233 21.12C170.789 20.652 170.153 20.418 169.325 20.418C168.389 20.418 167.651 20.694 167.111 21.246C166.571 21.786 166.301 22.566 166.301 23.586V28.5H164.573V18.96H166.229V20.4C166.577 19.908 167.045 19.53 167.633 19.266C168.233 19.002 168.911 18.87 169.667 18.87ZM185.499 23.784C185.499 23.916 185.487 24.09 185.463 24.306H177.723C177.831 25.146 178.197 25.824 178.821 26.34C179.457 26.844 180.243 27.096 181.179 27.096C182.319 27.096 183.237 26.712 183.933 25.944L184.887 27.06C184.455 27.564 183.915 27.948 183.267 28.212C182.631 28.476 181.917 28.608 181.125 28.608C180.117 28.608 179.223 28.404 178.443 27.996C177.663 27.576 177.057 26.994 176.625 26.25C176.205 25.506 175.995 24.666 175.995 23.73C175.995 22.806 176.199 21.972 176.607 21.228C177.027 20.484 177.597 19.908 178.317 19.5C179.049 19.08 179.871 18.87 180.783 18.87C181.695 18.87 182.505 19.08 183.213 19.5C183.933 19.908 184.491 20.484 184.887 21.228C185.295 21.972 185.499 22.824 185.499 23.784ZM180.783 20.328C179.955 20.328 179.259 20.58 178.695 21.084C178.143 21.588 177.819 22.248 177.723 23.064H183.843C183.747 22.26 183.417 21.606 182.853 21.102C182.301 20.586 181.611 20.328 180.783 20.328ZM191.109 18.87C192.429 18.87 193.437 19.194 194.133 19.842C194.841 20.49 195.195 21.456 195.195 22.74V28.5H193.557V27.24C193.269 27.684 192.855 28.026 192.315 28.266C191.787 28.494 191.157 28.608 190.425 28.608C189.357 28.608 188.499 28.35 187.851 27.834C187.215 27.318 186.897 26.64 186.897 25.8C186.897 24.96 187.203 24.288 187.815 23.784C188.427 23.268 189.399 23.01 190.731 23.01H193.467V22.668C193.467 21.924 193.251 21.354 192.819 20.958C192.387 20.562 191.751 20.364 190.911 20.364C190.347 20.364 189.795 20.46 189.255 20.652C188.715 20.832 188.259 21.078 187.887 21.39L187.167 20.094C187.659 19.698 188.247 19.398 188.931 19.194C189.615 18.978 190.341 18.87 191.109 18.87ZM190.713 27.276C191.373 27.276 191.943 27.132 192.423 26.844C192.903 26.544 193.251 26.124 193.467 25.584V24.252H190.803C189.339 24.252 188.607 24.744 188.607 25.728C188.607 26.208 188.793 26.586 189.165 26.862C189.537 27.138 190.053 27.276 190.713 27.276ZM200.049 20.562C200.349 20.01 200.793 19.59 201.381 19.302C201.969 19.014 202.683 18.87 203.523 18.87V20.544C203.427 20.532 203.295 20.526 203.127 20.526C202.191 20.526 201.453 20.808 200.913 21.372C200.385 21.924 200.121 22.716 200.121 23.748V28.5H198.393V18.96H200.049V20.562ZM214.187 23.784C214.187 23.916 214.175 24.09 214.151 24.306H206.411C206.519 25.146 206.885 25.824 207.509 26.34C208.145 26.844 208.931 27.096 209.867 27.096C211.007 27.096 211.925 26.712 212.621 25.944L213.575 27.06C213.143 27.564 212.603 27.948 211.955 28.212C211.319 28.476 210.605 28.608 209.813 28.608C208.805 28.608 207.911 28.404 207.131 27.996C206.351 27.576 205.745 26.994 205.313 26.25C204.893 25.506 204.683 24.666 204.683 23.73C204.683 22.806 204.887 21.972 205.295 21.228C205.715 20.484 206.285 19.908 207.005 19.5C207.737 19.08 208.559 18.87 209.471 18.87C210.383 18.87 211.193 19.08 211.901 19.5C212.621 19.908 213.179 20.484 213.575 21.228C213.983 21.972 214.187 22.824 214.187 23.784ZM209.471 20.328C208.643 20.328 207.947 20.58 207.383 21.084C206.831 21.588 206.507 22.248 206.411 23.064H212.531C212.435 22.26 212.105 21.606 211.541 21.102C210.989 20.586 210.299 20.328 209.471 20.328ZM219.322 28.608C218.542 28.608 217.792 28.506 217.072 28.302C216.352 28.086 215.788 27.816 215.38 27.492L216.1 26.124C216.52 26.424 217.03 26.664 217.63 26.844C218.23 27.024 218.836 27.114 219.448 27.114C220.96 27.114 221.716 26.682 221.716 25.818C221.716 25.53 221.614 25.302 221.41 25.134C221.206 24.966 220.948 24.846 220.636 24.774C220.336 24.69 219.904 24.6 219.34 24.504C218.572 24.384 217.942 24.246 217.45 24.09C216.97 23.934 216.556 23.67 216.208 23.298C215.86 22.926 215.686 22.404 215.686 21.732C215.686 20.868 216.046 20.178 216.766 19.662C217.486 19.134 218.452 18.87 219.664 18.87C220.3 18.87 220.936 18.948 221.572 19.104C222.208 19.26 222.73 19.47 223.138 19.734L222.4 21.102C221.62 20.598 220.702 20.346 219.646 20.346C218.914 20.346 218.356 20.466 217.972 20.706C217.588 20.946 217.396 21.264 217.396 21.66C217.396 21.972 217.504 22.218 217.72 22.398C217.936 22.578 218.2 22.71 218.512 22.794C218.836 22.878 219.286 22.974 219.862 23.082C220.63 23.214 221.248 23.358 221.716 23.514C222.196 23.658 222.604 23.91 222.94 24.27C223.276 24.63 223.444 25.134 223.444 25.782C223.444 26.646 223.072 27.336 222.328 27.852C221.596 28.356 220.594 28.608 219.322 28.608ZM230.968 27.942C230.716 28.158 230.404 28.326 230.032 28.446C229.66 28.554 229.276 28.608 228.88 28.608C227.92 28.608 227.176 28.35 226.648 27.834C226.12 27.318 225.856 26.58 225.856 25.62V20.382H224.236V18.96H225.856V16.872H227.584V18.96H230.32V20.382H227.584V25.548C227.584 26.064 227.71 26.46 227.962 26.736C228.226 27.012 228.598 27.15 229.078 27.15C229.606 27.15 230.056 27 230.428 26.7L230.968 27.942ZM243.255 27.942C243.003 28.158 242.691 28.326 242.319 28.446C241.947 28.554 241.563 28.608 241.167 28.608C240.207 28.608 239.463 28.35 238.935 27.834C238.407 27.318 238.143 26.58 238.143 25.62V20.382H236.523V18.96H238.143V16.872H239.871V18.96H242.607V20.382H239.871V25.548C239.871 26.064 239.997 26.46 240.249 26.736C240.513 27.012 240.885 27.15 241.365 27.15C241.893 27.15 242.343 27 242.715 26.7L243.255 27.942ZM253.65 23.784C253.65 23.916 253.638 24.09 253.614 24.306H245.874C245.982 25.146 246.348 25.824 246.972 26.34C247.608 26.844 248.394 27.096 249.33 27.096C250.47 27.096 251.388 26.712 252.084 25.944L253.038 27.06C252.606 27.564 252.066 27.948 251.418 28.212C250.782 28.476 250.068 28.608 249.276 28.608C248.268 28.608 247.374 28.404 246.594 27.996C245.814 27.576 245.208 26.994 244.776 26.25C244.356 25.506 244.146 24.666 244.146 23.73C244.146 22.806 244.35 21.972 244.758 21.228C245.178 20.484 245.748 19.908 246.468 19.5C247.2 19.08 248.022 18.87 248.934 18.87C249.846 18.87 250.656 19.08 251.364 19.5C252.084 19.908 252.642 20.484 253.038 21.228C253.446 21.972 253.65 22.824 253.65 23.784ZM248.934 20.328C248.106 20.328 247.41 20.58 246.846 21.084C246.294 21.588 245.97 22.248 245.874 23.064H251.994C251.898 22.26 251.568 21.606 251.004 21.102C250.452 20.586 249.762 20.328 248.934 20.328ZM261.143 18.87C262.355 18.87 263.315 19.224 264.023 19.932C264.743 20.628 265.103 21.654 265.103 23.01V28.5H263.375V23.208C263.375 22.284 263.153 21.588 262.709 21.12C262.265 20.652 261.629 20.418 260.801 20.418C259.865 20.418 259.127 20.694 258.587 21.246C258.047 21.786 257.777 22.566 257.777 23.586V28.5H256.049V18.96H257.705V20.4C258.053 19.908 258.521 19.53 259.109 19.266C259.709 19.002 260.387 18.87 261.143 18.87Z" fill="#2F2F2F"/>
<path d="M274.513 21.336C274.177 21.336 273.889 21.222 273.649 20.994C273.409 20.754 273.289 20.454 273.289 20.094C273.289 19.746 273.409 19.458 273.649 19.23C273.889 18.99 274.177 18.87 274.513 18.87C274.849 18.87 275.131 18.984 275.359 19.212C275.587 19.44 275.701 19.734 275.701 20.094C275.701 20.454 275.581 20.754 275.341 20.994C275.113 21.222 274.837 21.336 274.513 21.336ZM274.513 28.608C274.177 28.608 273.889 28.494 273.649 28.266C273.409 28.026 273.289 27.726 273.289 27.366C273.289 27.018 273.409 26.73 273.649 26.502C273.889 26.262 274.177 26.142 274.513 26.142C274.849 26.142 275.131 26.256 275.359 26.484C275.587 26.712 275.701 27.006 275.701 27.366C275.701 27.726 275.581 28.026 275.341 28.266C275.113 28.494 274.837 28.608 274.513 28.608Z" fill="#2F2F2F"/>
<path d="M282 5C282 2.23858 284.239 0 287 0H347C349.761 0 352 2.23858 352 5V40C352 42.7614 349.761 45 347 45H287C284.239 45 282 42.7614 282 40V5Z" fill="#369CB7"/>
<path d="M305.204 20.922C307.004 20.922 308.324 21.264 309.164 21.948C310.016 22.62 310.442 23.544 310.442 24.72C310.442 25.464 310.262 26.136 309.902 26.736C309.554 27.324 309.02 27.792 308.3 28.14C307.592 28.476 306.716 28.644 305.672 28.644C304.784 28.644 303.926 28.512 303.098 28.248C302.27 27.972 301.586 27.594 301.046 27.114L301.874 25.692C302.306 26.1 302.858 26.43 303.53 26.682C304.202 26.922 304.91 27.042 305.654 27.042C306.602 27.042 307.334 26.844 307.85 26.448C308.378 26.04 308.642 25.488 308.642 24.792C308.642 24.036 308.354 23.466 307.778 23.082C307.202 22.686 306.218 22.488 304.826 22.488H301.964L302.63 15.9H309.74V17.466H304.142L303.8 20.922H305.204ZM320.892 15.9V17.124L315.798 28.5H313.89L318.876 17.466H313.116V19.716H311.388V15.9H320.892ZM327.266 28.644C326.27 28.644 325.382 28.392 324.602 27.888C323.834 27.372 323.228 26.628 322.784 25.656C322.34 24.684 322.118 23.532 322.118 22.2C322.118 20.868 322.34 19.716 322.784 18.744C323.228 17.772 323.834 17.034 324.602 16.53C325.382 16.014 326.27 15.756 327.266 15.756C328.25 15.756 329.126 16.014 329.894 16.53C330.674 17.034 331.286 17.772 331.73 18.744C332.174 19.716 332.396 20.868 332.396 22.2C332.396 23.532 332.174 24.684 331.73 25.656C331.286 26.628 330.674 27.372 329.894 27.888C329.126 28.392 328.25 28.644 327.266 28.644ZM327.266 27.042C328.274 27.042 329.078 26.628 329.678 25.8C330.29 24.972 330.596 23.772 330.596 22.2C330.596 20.628 330.29 19.428 329.678 18.6C329.078 17.772 328.274 17.358 327.266 17.358C326.246 17.358 325.43 17.772 324.818 18.6C324.218 19.428 323.918 20.628 323.918 22.2C323.918 23.772 324.218 24.972 324.818 25.8C325.43 26.628 326.246 27.042 327.266 27.042Z" fill="white"/>
<path d="M287 1H347V-1H287V1ZM351 5V40H353V5H351ZM347 44H287V46H347V44ZM283 40V5H281V40H283ZM287 44C284.791 44 283 42.2091 283 40H281C281 43.3137 283.686 46 287 46V44ZM351 40C351 42.2091 349.209 44 347 44V46C350.314 46 353 43.3137 353 40H351ZM347 1C349.209 1 351 2.79086 351 5H353C353 1.68629 350.314 -1 347 -1V1ZM287 -1C283.686 -1 281 1.68629 281 5H283C283 2.79086 284.791 1 287 1V-1Z" fill="#369CB7"/>
<path d="M10.6158 103.5L7.89776 99.63C7.56176 99.654 7.29776 99.666 7.10576 99.666H3.99176V103.5H2.19176V90.9H7.10576C8.73776 90.9 10.0218 91.29 10.9578 92.07C11.8938 92.85 12.3618 93.924 12.3618 95.292C12.3618 96.264 12.1218 97.092 11.6418 97.776C11.1618 98.46 10.4778 98.958 9.58976 99.27L12.5778 103.5H10.6158ZM7.05176 98.136C8.19176 98.136 9.06176 97.89 9.66176 97.398C10.2618 96.906 10.5618 96.204 10.5618 95.292C10.5618 94.38 10.2618 93.684 9.66176 93.204C9.06176 92.712 8.19176 92.466 7.05176 92.466H3.99176V98.136H7.05176ZM19.1039 103.608C18.1559 103.608 17.3039 103.398 16.5479 102.978C15.7919 102.558 15.1979 101.982 14.7659 101.25C14.3459 100.506 14.1359 99.666 14.1359 98.73C14.1359 97.794 14.3459 96.96 14.7659 96.228C15.1979 95.484 15.7919 94.908 16.5479 94.5C17.3039 94.08 18.1559 93.87 19.1039 93.87C20.0519 93.87 20.8979 94.08 21.6419 94.5C22.3979 94.908 22.9859 95.484 23.4059 96.228C23.8379 96.96 24.0539 97.794 24.0539 98.73C24.0539 99.666 23.8379 100.506 23.4059 101.25C22.9859 101.982 22.3979 102.558 21.6419 102.978C20.8979 103.398 20.0519 103.608 19.1039 103.608ZM19.1039 102.096C19.7159 102.096 20.2619 101.958 20.7419 101.682C21.2339 101.394 21.6179 100.998 21.8939 100.494C22.1699 99.978 22.3079 99.39 22.3079 98.73C22.3079 98.07 22.1699 97.488 21.8939 96.984C21.6179 96.468 21.2339 96.072 20.7419 95.796C20.2619 95.52 19.7159 95.382 19.1039 95.382C18.4919 95.382 17.9399 95.52 17.4479 95.796C16.9679 96.072 16.5839 96.468 16.2959 96.984C16.0199 97.488 15.8819 98.07 15.8819 98.73C15.8819 99.39 16.0199 99.978 16.2959 100.494C16.5839 100.998 16.9679 101.394 17.4479 101.682C17.9399 101.958 18.4919 102.096 19.1039 102.096ZM35.3357 93.96V103.5H33.6977V102.06C33.3497 102.552 32.8877 102.936 32.3117 103.212C31.7477 103.476 31.1297 103.608 30.4577 103.608C29.1857 103.608 28.1837 103.26 27.4517 102.564C26.7197 101.856 26.3537 100.818 26.3537 99.45V93.96H28.0817V99.252C28.0817 100.176 28.3037 100.878 28.7477 101.358C29.1917 101.826 29.8277 102.06 30.6557 102.06C31.5677 102.06 32.2877 101.784 32.8157 101.232C33.3437 100.68 33.6077 99.9 33.6077 98.892V93.96H35.3357ZM43.7193 93.87C44.9313 93.87 45.8913 94.224 46.5993 94.932C47.3193 95.628 47.6793 96.654 47.6793 98.01V103.5H45.9513V98.208C45.9513 97.284 45.7293 96.588 45.2853 96.12C44.8413 95.652 44.2053 95.418 43.3773 95.418C42.4413 95.418 41.7033 95.694 41.1633 96.246C40.6233 96.786 40.3533 97.566 40.3533 98.586V103.5H38.6253V93.96H40.2813V95.4C40.6293 94.908 41.0973 94.53 41.6853 94.266C42.2853 94.002 42.9633 93.87 43.7193 93.87ZM59.93 90.144V103.5H58.274V101.988C57.89 102.516 57.404 102.918 56.816 103.194C56.228 103.47 55.58 103.608 54.872 103.608C53.948 103.608 53.12 103.404 52.388 102.996C51.656 102.588 51.08 102.018 50.66 101.286C50.252 100.542 50.048 99.69 50.048 98.73C50.048 97.77 50.252 96.924 50.66 96.192C51.08 95.46 51.656 94.89 52.388 94.482C53.12 94.074 53.948 93.87 54.872 93.87C55.556 93.87 56.186 94.002 56.762 94.266C57.338 94.518 57.818 94.896 58.202 95.4V90.144H59.93ZM55.016 102.096C55.616 102.096 56.162 101.958 56.654 101.682C57.146 101.394 57.53 100.998 57.806 100.494C58.082 99.978 58.22 99.39 58.22 98.73C58.22 98.07 58.082 97.488 57.806 96.984C57.53 96.468 57.146 96.072 56.654 95.796C56.162 95.52 55.616 95.382 55.016 95.382C54.404 95.382 53.852 95.52 53.36 95.796C52.88 96.072 52.496 96.468 52.208 96.984C51.932 97.488 51.794 98.07 51.794 98.73C51.794 99.39 51.932 99.978 52.208 100.494C52.496 100.998 52.88 101.394 53.36 101.682C53.852 101.958 54.404 102.096 55.016 102.096ZM71.1295 95.778C72.9055 95.778 74.2195 96.126 75.0715 96.822C75.9235 97.506 76.3495 98.442 76.3495 99.63C76.3495 100.386 76.1635 101.07 75.7915 101.682C75.4195 102.294 74.8615 102.78 74.1175 103.14C73.3735 103.5 72.4555 103.68 71.3635 103.68C70.4635 103.68 69.5935 103.554 68.7535 103.302C67.9135 103.038 67.2055 102.678 66.6295 102.222L67.6195 100.404C68.0875 100.788 68.6455 101.094 69.2935 101.322C69.9535 101.538 70.6315 101.646 71.3275 101.646C72.1555 101.646 72.8035 101.478 73.2715 101.142C73.7515 100.794 73.9915 100.32 73.9915 99.72C73.9915 99.072 73.7335 98.586 73.2175 98.262C72.7135 97.926 71.8435 97.758 70.6075 97.758H67.5655L68.2135 90.9H75.6115V92.862H70.1935L69.9235 95.778H71.1295ZM85.8712 96.876C86.5312 97.176 87.0352 97.584 87.3832 98.1C87.7432 98.604 87.9232 99.198 87.9232 99.882C87.9232 100.65 87.7072 101.322 87.2752 101.898C86.8552 102.474 86.2552 102.918 85.4752 103.23C84.6952 103.53 83.7892 103.68 82.7572 103.68C81.7252 103.68 80.8192 103.53 80.0392 103.23C79.2712 102.918 78.6772 102.474 78.2572 101.898C77.8372 101.322 77.6272 100.65 77.6272 99.882C77.6272 99.198 77.8012 98.604 78.1492 98.1C78.4972 97.584 78.9952 97.176 79.6432 96.876C79.1392 96.6 78.7492 96.24 78.4732 95.796C78.2092 95.34 78.0772 94.818 78.0772 94.23C78.0772 93.522 78.2692 92.904 78.6532 92.376C79.0492 91.848 79.6012 91.44 80.3092 91.152C81.0172 90.864 81.8332 90.72 82.7572 90.72C83.6932 90.72 84.5152 90.864 85.2232 91.152C85.9312 91.44 86.4832 91.848 86.8792 92.376C87.2752 92.904 87.4732 93.522 87.4732 94.23C87.4732 94.818 87.3352 95.334 87.0592 95.778C86.7832 96.222 86.3872 96.588 85.8712 96.876ZM82.7572 92.556C82.0252 92.556 81.4432 92.712 81.0112 93.024C80.5912 93.336 80.3812 93.774 80.3812 94.338C80.3812 94.878 80.5912 95.31 81.0112 95.634C81.4432 95.946 82.0252 96.102 82.7572 96.102C83.5012 96.102 84.0892 95.946 84.5212 95.634C84.9532 95.31 85.1692 94.878 85.1692 94.338C85.1692 93.774 84.9472 93.336 84.5032 93.024C84.0712 92.712 83.4892 92.556 82.7572 92.556ZM82.7572 101.844C83.6212 101.844 84.3052 101.664 84.8092 101.304C85.3132 100.944 85.5652 100.446 85.5652 99.81C85.5652 99.186 85.3132 98.694 84.8092 98.334C84.3052 97.974 83.6212 97.794 82.7572 97.794C81.8932 97.794 81.2152 97.974 80.7232 98.334C80.2312 98.694 79.9852 99.186 79.9852 99.81C79.9852 100.446 80.2312 100.944 80.7232 101.304C81.2152 101.664 81.8932 101.844 82.7572 101.844ZM98.5674 101.52V103.5H89.2794V101.934L94.2834 97.182C94.8474 96.642 95.2254 96.174 95.4174 95.778C95.6214 95.37 95.7234 94.968 95.7234 94.572C95.7234 93.984 95.5254 93.534 95.1294 93.222C94.7334 92.91 94.1514 92.754 93.3834 92.754C92.0994 92.754 91.1154 93.192 90.4314 94.068L88.7934 92.808C89.2854 92.148 89.9454 91.638 90.7734 91.278C91.6134 90.906 92.5494 90.72 93.5814 90.72C94.9494 90.72 96.0414 91.044 96.8574 91.692C97.6734 92.34 98.0814 93.222 98.0814 94.338C98.0814 95.022 97.9374 95.664 97.6494 96.264C97.3614 96.864 96.8094 97.548 95.9934 98.316L92.6274 101.52H98.5674ZM110.962 102.942C110.71 103.158 110.398 103.326 110.026 103.446C109.654 103.554 109.27 103.608 108.874 103.608C107.914 103.608 107.17 103.35 106.642 102.834C106.114 102.318 105.85 101.58 105.85 100.62V95.382H104.23V93.96H105.85V91.872H107.578V93.96H110.314V95.382H107.578V100.548C107.578 101.064 107.704 101.46 107.956 101.736C108.22 102.012 108.592 102.15 109.072 102.15C109.6 102.15 110.05 102 110.422 101.7L110.962 102.942ZM116.821 103.608C115.873 103.608 115.021 103.398 114.265 102.978C113.509 102.558 112.915 101.982 112.483 101.25C112.063 100.506 111.853 99.666 111.853 98.73C111.853 97.794 112.063 96.96 112.483 96.228C112.915 95.484 113.509 94.908 114.265 94.5C115.021 94.08 115.873 93.87 116.821 93.87C117.769 93.87 118.615 94.08 119.359 94.5C120.115 94.908 120.703 95.484 121.123 96.228C121.555 96.96 121.771 97.794 121.771 98.73C121.771 99.666 121.555 100.506 121.123 101.25C120.703 101.982 120.115 102.558 119.359 102.978C118.615 103.398 117.769 103.608 116.821 103.608ZM116.821 102.096C117.433 102.096 117.979 101.958 118.459 101.682C118.951 101.394 119.335 100.998 119.611 100.494C119.887 99.978 120.025 99.39 120.025 98.73C120.025 98.07 119.887 97.488 119.611 96.984C119.335 96.468 118.951 96.072 118.459 95.796C117.979 95.52 117.433 95.382 116.821 95.382C116.209 95.382 115.657 95.52 115.165 95.796C114.685 96.072 114.301 96.468 114.013 96.984C113.737 97.488 113.599 98.07 113.599 98.73C113.599 99.39 113.737 99.978 114.013 100.494C114.301 100.998 114.685 101.394 115.165 101.682C115.657 101.958 116.209 102.096 116.821 102.096ZM134.358 102.942C134.106 103.158 133.794 103.326 133.422 103.446C133.05 103.554 132.666 103.608 132.27 103.608C131.31 103.608 130.566 103.35 130.038 102.834C129.51 102.318 129.246 101.58 129.246 100.62V95.382H127.626V93.96H129.246V91.872H130.974V93.96H133.71V95.382H130.974V100.548C130.974 101.064 131.1 101.46 131.352 101.736C131.616 102.012 131.988 102.15 132.468 102.15C132.996 102.15 133.446 102 133.818 101.7L134.358 102.942ZM141.542 93.87C142.754 93.87 143.714 94.224 144.422 94.932C145.142 95.628 145.502 96.654 145.502 98.01V103.5H143.774V98.208C143.774 97.284 143.552 96.588 143.108 96.12C142.664 95.652 142.028 95.418 141.2 95.418C140.264 95.418 139.526 95.694 138.986 96.246C138.446 96.786 138.176 97.566 138.176 98.586V103.5H136.448V90.144H138.176V95.31C138.536 94.854 139.004 94.5 139.58 94.248C140.168 93.996 140.822 93.87 141.542 93.87ZM157.374 98.784C157.374 98.916 157.362 99.09 157.338 99.306H149.598C149.706 100.146 150.072 100.824 150.696 101.34C151.332 101.844 152.118 102.096 153.054 102.096C154.194 102.096 155.112 101.712 155.808 100.944L156.762 102.06C156.33 102.564 155.79 102.948 155.142 103.212C154.506 103.476 153.792 103.608 153 103.608C151.992 103.608 151.098 103.404 150.318 102.996C149.538 102.576 148.932 101.994 148.5 101.25C148.08 100.506 147.87 99.666 147.87 98.73C147.87 97.806 148.074 96.972 148.482 96.228C148.902 95.484 149.472 94.908 150.192 94.5C150.924 94.08 151.746 93.87 152.658 93.87C153.57 93.87 154.38 94.08 155.088 94.5C155.808 94.908 156.366 95.484 156.762 96.228C157.17 96.972 157.374 97.824 157.374 98.784ZM152.658 95.328C151.83 95.328 151.134 95.58 150.57 96.084C150.018 96.588 149.694 97.248 149.598 98.064H155.718C155.622 97.26 155.292 96.606 154.728 96.102C154.176 95.586 153.486 95.328 152.658 95.328ZM169.702 93.87C170.914 93.87 171.874 94.224 172.582 94.932C173.302 95.628 173.662 96.654 173.662 98.01V103.5H171.934V98.208C171.934 97.284 171.712 96.588 171.268 96.12C170.824 95.652 170.188 95.418 169.36 95.418C168.424 95.418 167.686 95.694 167.146 96.246C166.606 96.786 166.336 97.566 166.336 98.586V103.5H164.608V93.96H166.264V95.4C166.612 94.908 167.08 94.53 167.668 94.266C168.268 94.002 168.946 93.87 169.702 93.87ZM185.534 98.784C185.534 98.916 185.522 99.09 185.498 99.306H177.758C177.866 100.146 178.232 100.824 178.856 101.34C179.492 101.844 180.278 102.096 181.214 102.096C182.354 102.096 183.272 101.712 183.968 100.944L184.922 102.06C184.49 102.564 183.95 102.948 183.302 103.212C182.666 103.476 181.952 103.608 181.16 103.608C180.152 103.608 179.258 103.404 178.478 102.996C177.698 102.576 177.092 101.994 176.66 101.25C176.24 100.506 176.03 99.666 176.03 98.73C176.03 97.806 176.234 96.972 176.642 96.228C177.062 95.484 177.632 94.908 178.352 94.5C179.084 94.08 179.906 93.87 180.818 93.87C181.73 93.87 182.54 94.08 183.248 94.5C183.968 94.908 184.526 95.484 184.922 96.228C185.33 96.972 185.534 97.824 185.534 98.784ZM180.818 95.328C179.99 95.328 179.294 95.58 178.73 96.084C178.178 96.588 177.854 97.248 177.758 98.064H183.878C183.782 97.26 183.452 96.606 182.888 96.102C182.336 95.586 181.646 95.328 180.818 95.328ZM191.144 93.87C192.464 93.87 193.472 94.194 194.168 94.842C194.876 95.49 195.23 96.456 195.23 97.74V103.5H193.592V102.24C193.304 102.684 192.89 103.026 192.35 103.266C191.822 103.494 191.192 103.608 190.46 103.608C189.392 103.608 188.534 103.35 187.886 102.834C187.25 102.318 186.932 101.64 186.932 100.8C186.932 99.96 187.238 99.288 187.85 98.784C188.462 98.268 189.434 98.01 190.766 98.01H193.502V97.668C193.502 96.924 193.286 96.354 192.854 95.958C192.422 95.562 191.786 95.364 190.946 95.364C190.382 95.364 189.83 95.46 189.29 95.652C188.75 95.832 188.294 96.078 187.922 96.39L187.202 95.094C187.694 94.698 188.282 94.398 188.966 94.194C189.65 93.978 190.376 93.87 191.144 93.87ZM190.748 102.276C191.408 102.276 191.978 102.132 192.458 101.844C192.938 101.544 193.286 101.124 193.502 100.584V99.252H190.838C189.374 99.252 188.642 99.744 188.642 100.728C188.642 101.208 188.828 101.586 189.2 101.862C189.572 102.138 190.088 102.276 190.748 102.276ZM200.084 95.562C200.384 95.01 200.828 94.59 201.416 94.302C202.004 94.014 202.718 93.87 203.558 93.87V95.544C203.462 95.532 203.33 95.526 203.162 95.526C202.226 95.526 201.488 95.808 200.948 96.372C200.42 96.924 200.156 97.716 200.156 98.748V103.5H198.428V93.96H200.084V95.562ZM214.222 98.784C214.222 98.916 214.21 99.09 214.186 99.306H206.446C206.554 100.146 206.92 100.824 207.544 101.34C208.18 101.844 208.966 102.096 209.902 102.096C211.042 102.096 211.96 101.712 212.656 100.944L213.61 102.06C213.178 102.564 212.638 102.948 211.99 103.212C211.354 103.476 210.64 103.608 209.848 103.608C208.84 103.608 207.946 103.404 207.166 102.996C206.386 102.576 205.78 101.994 205.348 101.25C204.928 100.506 204.718 99.666 204.718 98.73C204.718 97.806 204.922 96.972 205.33 96.228C205.75 95.484 206.32 94.908 207.04 94.5C207.772 94.08 208.594 93.87 209.506 93.87C210.418 93.87 211.228 94.08 211.936 94.5C212.656 94.908 213.214 95.484 213.61 96.228C214.018 96.972 214.222 97.824 214.222 98.784ZM209.506 95.328C208.678 95.328 207.982 95.58 207.418 96.084C206.866 96.588 206.542 97.248 206.446 98.064H212.566C212.47 97.26 212.14 96.606 211.576 96.102C211.024 95.586 210.334 95.328 209.506 95.328ZM219.357 103.608C218.577 103.608 217.827 103.506 217.107 103.302C216.387 103.086 215.823 102.816 215.415 102.492L216.135 101.124C216.555 101.424 217.065 101.664 217.665 101.844C218.265 102.024 218.871 102.114 219.483 102.114C220.995 102.114 221.751 101.682 221.751 100.818C221.751 100.53 221.649 100.302 221.445 100.134C221.241 99.966 220.983 99.846 220.671 99.774C220.371 99.69 219.939 99.6 219.375 99.504C218.607 99.384 217.977 99.246 217.485 99.09C217.005 98.934 216.591 98.67 216.243 98.298C215.895 97.926 215.721 97.404 215.721 96.732C215.721 95.868 216.081 95.178 216.801 94.662C217.521 94.134 218.487 93.87 219.699 93.87C220.335 93.87 220.971 93.948 221.607 94.104C222.243 94.26 222.765 94.47 223.173 94.734L222.435 96.102C221.655 95.598 220.737 95.346 219.681 95.346C218.949 95.346 218.391 95.466 218.007 95.706C217.623 95.946 217.431 96.264 217.431 96.66C217.431 96.972 217.539 97.218 217.755 97.398C217.971 97.578 218.235 97.71 218.547 97.794C218.871 97.878 219.321 97.974 219.897 98.082C220.665 98.214 221.283 98.358 221.751 98.514C222.231 98.658 222.639 98.91 222.975 99.27C223.311 99.63 223.479 100.134 223.479 100.782C223.479 101.646 223.107 102.336 222.363 102.852C221.631 103.356 220.629 103.608 219.357 103.608ZM231.003 102.942C230.751 103.158 230.439 103.326 230.067 103.446C229.695 103.554 229.311 103.608 228.915 103.608C227.955 103.608 227.211 103.35 226.683 102.834C226.155 102.318 225.891 101.58 225.891 100.62V95.382H224.271V93.96H225.891V91.872H227.619V93.96H230.355V95.382H227.619V100.548C227.619 101.064 227.745 101.46 227.997 101.736C228.261 102.012 228.633 102.15 229.113 102.15C229.641 102.15 230.091 102 230.463 101.7L231.003 102.942ZM243.29 102.942C243.038 103.158 242.726 103.326 242.354 103.446C241.982 103.554 241.598 103.608 241.202 103.608C240.242 103.608 239.498 103.35 238.97 102.834C238.442 102.318 238.178 101.58 238.178 100.62V95.382H236.558V93.96H238.178V91.872H239.906V93.96H242.642V95.382H239.906V100.548C239.906 101.064 240.032 101.46 240.284 101.736C240.548 102.012 240.92 102.15 241.4 102.15C241.928 102.15 242.378 102 242.75 101.7L243.29 102.942ZM253.685 98.784C253.685 98.916 253.673 99.09 253.649 99.306H245.909C246.017 100.146 246.383 100.824 247.007 101.34C247.643 101.844 248.429 102.096 249.365 102.096C250.505 102.096 251.423 101.712 252.119 100.944L253.073 102.06C252.641 102.564 252.101 102.948 251.453 103.212C250.817 103.476 250.103 103.608 249.311 103.608C248.303 103.608 247.409 103.404 246.629 102.996C245.849 102.576 245.243 101.994 244.811 101.25C244.391 100.506 244.181 99.666 244.181 98.73C244.181 97.806 244.385 96.972 244.793 96.228C245.213 95.484 245.783 94.908 246.503 94.5C247.235 94.08 248.057 93.87 248.969 93.87C249.881 93.87 250.691 94.08 251.399 94.5C252.119 94.908 252.677 95.484 253.073 96.228C253.481 96.972 253.685 97.824 253.685 98.784ZM248.969 95.328C248.141 95.328 247.445 95.58 246.881 96.084C246.329 96.588 246.005 97.248 245.909 98.064H252.029C251.933 97.26 251.603 96.606 251.039 96.102C250.487 95.586 249.797 95.328 248.969 95.328ZM261.178 93.87C262.39 93.87 263.35 94.224 264.058 94.932C264.778 95.628 265.138 96.654 265.138 98.01V103.5H263.41V98.208C263.41 97.284 263.188 96.588 262.744 96.12C262.3 95.652 261.664 95.418 260.836 95.418C259.9 95.418 259.162 95.694 258.622 96.246C258.082 96.786 257.812 97.566 257.812 98.586V103.5H256.084V93.96H257.74V95.4C258.088 94.908 258.556 94.53 259.144 94.266C259.744 94.002 260.422 93.87 261.178 93.87Z" fill="#2F2F2F"/>
<path d="M274.513 96.336C274.177 96.336 273.889 96.222 273.649 95.994C273.409 95.754 273.289 95.454 273.289 95.094C273.289 94.746 273.409 94.458 273.649 94.23C273.889 93.99 274.177 93.87 274.513 93.87C274.849 93.87 275.131 93.984 275.359 94.212C275.587 94.44 275.701 94.734 275.701 95.094C275.701 95.454 275.581 95.754 275.341 95.994C275.113 96.222 274.837 96.336 274.513 96.336ZM274.513 103.608C274.177 103.608 273.889 103.494 273.649 103.266C273.409 103.026 273.289 102.726 273.289 102.366C273.289 102.018 273.409 101.73 273.649 101.502C273.889 101.262 274.177 101.142 274.513 101.142C274.849 101.142 275.131 101.256 275.359 101.484C275.587 101.712 275.701 102.006 275.701 102.366C275.701 102.726 275.581 103.026 275.341 103.266C275.113 103.494 274.837 103.608 274.513 103.608Z" fill="#2F2F2F"/>
<path d="M282 80C282 77.2386 284.239 75 287 75H347C349.761 75 352 77.2386 352 80V115C352 117.761 349.761 120 347 120H287C284.239 120 282 117.761 282 115V80Z" fill="#369CB7"/>
<path d="M304.501 95.922C306.301 95.922 307.621 96.264 308.461 96.948C309.313 97.62 309.739 98.544 309.739 99.72C309.739 100.464 309.559 101.136 309.199 101.736C308.851 102.324 308.317 102.792 307.597 103.14C306.889 103.476 306.013 103.644 304.969 103.644C304.081 103.644 303.223 103.512 302.395 103.248C301.567 102.972 300.883 102.594 300.343 102.114L301.171 100.692C301.603 101.1 302.155 101.43 302.827 101.682C303.499 101.922 304.207 102.042 304.951 102.042C305.899 102.042 306.631 101.844 307.147 101.448C307.675 101.04 307.939 100.488 307.939 99.792C307.939 99.036 307.651 98.466 307.075 98.082C306.499 97.686 305.515 97.488 304.123 97.488H301.261L301.927 90.9H309.037V92.466H303.439L303.097 95.922H304.501ZM318.941 96.894C319.661 97.17 320.213 97.566 320.597 98.082C320.981 98.598 321.173 99.216 321.173 99.936C321.173 100.692 320.969 101.352 320.561 101.916C320.153 102.468 319.571 102.894 318.815 103.194C318.059 103.494 317.171 103.644 316.151 103.644C315.143 103.644 314.261 103.494 313.505 103.194C312.761 102.894 312.185 102.468 311.777 101.916C311.369 101.352 311.165 100.692 311.165 99.936C311.165 99.216 311.351 98.598 311.723 98.082C312.107 97.566 312.659 97.17 313.379 96.894C312.803 96.618 312.365 96.252 312.065 95.796C311.765 95.34 311.615 94.8 311.615 94.176C311.615 93.48 311.801 92.874 312.173 92.358C312.557 91.842 313.091 91.446 313.775 91.17C314.459 90.894 315.251 90.756 316.151 90.756C317.063 90.756 317.861 90.894 318.545 91.17C319.241 91.446 319.775 91.842 320.147 92.358C320.531 92.874 320.723 93.48 320.723 94.176C320.723 94.788 320.567 95.328 320.255 95.796C319.955 96.252 319.517 96.618 318.941 96.894ZM316.151 92.214C315.299 92.214 314.627 92.4 314.135 92.772C313.643 93.132 313.397 93.624 313.397 94.248C313.397 94.872 313.637 95.364 314.117 95.724C314.609 96.084 315.287 96.264 316.151 96.264C317.027 96.264 317.711 96.084 318.203 95.724C318.707 95.364 318.959 94.872 318.959 94.248C318.959 93.624 318.701 93.132 318.185 92.772C317.681 92.4 317.003 92.214 316.151 92.214ZM316.151 102.186C317.147 102.186 317.933 101.982 318.509 101.574C319.085 101.154 319.373 100.59 319.373 99.882C319.373 99.186 319.085 98.64 318.509 98.244C317.933 97.836 317.147 97.632 316.151 97.632C315.155 97.632 314.375 97.836 313.811 98.244C313.247 98.64 312.965 99.186 312.965 99.882C312.965 100.59 313.247 101.154 313.811 101.574C314.375 101.982 315.155 102.186 316.151 102.186ZM327.969 103.644C326.973 103.644 326.085 103.392 325.305 102.888C324.537 102.372 323.931 101.628 323.487 100.656C323.043 99.684 322.821 98.532 322.821 97.2C322.821 95.868 323.043 94.716 323.487 93.744C323.931 92.772 324.537 92.034 325.305 91.53C326.085 91.014 326.973 90.756 327.969 90.756C328.953 90.756 329.829 91.014 330.597 91.53C331.377 92.034 331.989 92.772 332.433 93.744C332.877 94.716 333.099 95.868 333.099 97.2C333.099 98.532 332.877 99.684 332.433 100.656C331.989 101.628 331.377 102.372 330.597 102.888C329.829 103.392 328.953 103.644 327.969 103.644ZM327.969 102.042C328.977 102.042 329.781 101.628 330.381 100.8C330.993 99.972 331.299 98.772 331.299 97.2C331.299 95.628 330.993 94.428 330.381 93.6C329.781 92.772 328.977 92.358 327.969 92.358C326.949 92.358 326.133 92.772 325.521 93.6C324.921 94.428 324.621 95.628 324.621 97.2C324.621 98.772 324.921 99.972 325.521 100.8C326.133 101.628 326.949 102.042 327.969 102.042Z" fill="white"/>
<path d="M287 76H347V74H287V76ZM351 80V115H353V80H351ZM347 119H287V121H347V119ZM283 115V80H281V115H283ZM287 119C284.791 119 283 117.209 283 115H281C281 118.314 283.686 121 287 121V119ZM351 115C351 117.209 349.209 119 347 119V121C350.314 121 353 118.314 353 115H351ZM347 76C349.209 76 351 77.7909 351 80H353C353 76.6863 350.314 74 347 74V76ZM287 74C283.686 74 281 76.6863 281 80H283C283 77.7909 284.791 76 287 76V74Z" fill="#369CB7"/>
<path d="M392.436 28.5L389.718 24.63C389.382 24.654 389.118 24.666 388.926 24.666H385.812V28.5H384.012V15.9H388.926C390.558 15.9 391.842 16.29 392.778 17.07C393.714 17.85 394.182 18.924 394.182 20.292C394.182 21.264 393.942 22.092 393.462 22.776C392.982 23.46 392.298 23.958 391.41 24.27L394.398 28.5H392.436ZM388.872 23.136C390.012 23.136 390.882 22.89 391.482 22.398C392.082 21.906 392.382 21.204 392.382 20.292C392.382 19.38 392.082 18.684 391.482 18.204C390.882 17.712 390.012 17.466 388.872 17.466H385.812V23.136H388.872ZM400.924 28.608C399.976 28.608 399.124 28.398 398.368 27.978C397.612 27.558 397.018 26.982 396.586 26.25C396.166 25.506 395.956 24.666 395.956 23.73C395.956 22.794 396.166 21.96 396.586 21.228C397.018 20.484 397.612 19.908 398.368 19.5C399.124 19.08 399.976 18.87 400.924 18.87C401.872 18.87 402.718 19.08 403.462 19.5C404.218 19.908 404.806 20.484 405.226 21.228C405.658 21.96 405.874 22.794 405.874 23.73C405.874 24.666 405.658 25.506 405.226 26.25C404.806 26.982 404.218 27.558 403.462 27.978C402.718 28.398 401.872 28.608 400.924 28.608ZM400.924 27.096C401.536 27.096 402.082 26.958 402.562 26.682C403.054 26.394 403.438 25.998 403.714 25.494C403.99 24.978 404.128 24.39 404.128 23.73C404.128 23.07 403.99 22.488 403.714 21.984C403.438 21.468 403.054 21.072 402.562 20.796C402.082 20.52 401.536 20.382 400.924 20.382C400.312 20.382 399.76 20.52 399.268 20.796C398.788 21.072 398.404 21.468 398.116 21.984C397.84 22.488 397.702 23.07 397.702 23.73C397.702 24.39 397.84 24.978 398.116 25.494C398.404 25.998 398.788 26.394 399.268 26.682C399.76 26.958 400.312 27.096 400.924 27.096ZM417.156 18.96V28.5H415.518V27.06C415.17 27.552 414.708 27.936 414.132 28.212C413.568 28.476 412.95 28.608 412.278 28.608C411.006 28.608 410.004 28.26 409.272 27.564C408.54 26.856 408.174 25.818 408.174 24.45V18.96H409.902V24.252C409.902 25.176 410.124 25.878 410.568 26.358C411.012 26.826 411.648 27.06 412.476 27.06C413.388 27.06 414.108 26.784 414.636 26.232C415.164 25.68 415.428 24.9 415.428 23.892V18.96H417.156ZM425.54 18.87C426.752 18.87 427.712 19.224 428.42 19.932C429.14 20.628 429.5 21.654 429.5 23.01V28.5H427.772V23.208C427.772 22.284 427.55 21.588 427.106 21.12C426.662 20.652 426.026 20.418 425.198 20.418C424.262 20.418 423.524 20.694 422.984 21.246C422.444 21.786 422.174 22.566 422.174 23.586V28.5H420.446V18.96H422.102V20.4C422.45 19.908 422.918 19.53 423.506 19.266C424.106 19.002 424.784 18.87 425.54 18.87ZM441.75 15.144V28.5H440.094V26.988C439.71 27.516 439.224 27.918 438.636 28.194C438.048 28.47 437.4 28.608 436.692 28.608C435.768 28.608 434.94 28.404 434.208 27.996C433.476 27.588 432.9 27.018 432.48 26.286C432.072 25.542 431.868 24.69 431.868 23.73C431.868 22.77 432.072 21.924 432.48 21.192C432.9 20.46 433.476 19.89 434.208 19.482C434.94 19.074 435.768 18.87 436.692 18.87C437.376 18.87 438.006 19.002 438.582 19.266C439.158 19.518 439.638 19.896 440.022 20.4V15.144H441.75ZM436.836 27.096C437.436 27.096 437.982 26.958 438.474 26.682C438.966 26.394 439.35 25.998 439.626 25.494C439.902 24.978 440.04 24.39 440.04 23.73C440.04 23.07 439.902 22.488 439.626 21.984C439.35 21.468 438.966 21.072 438.474 20.796C437.982 20.52 437.436 20.382 436.836 20.382C436.224 20.382 435.672 20.52 435.18 20.796C434.7 21.072 434.316 21.468 434.028 21.984C433.752 22.488 433.614 23.07 433.614 23.73C433.614 24.39 433.752 24.978 434.028 25.494C434.316 25.998 434.7 26.394 435.18 26.682C435.672 26.958 436.224 27.096 436.836 27.096ZM452.95 20.778C454.726 20.778 456.04 21.126 456.892 21.822C457.744 22.506 458.17 23.442 458.17 24.63C458.17 25.386 457.984 26.07 457.612 26.682C457.24 27.294 456.682 27.78 455.938 28.14C455.194 28.5 454.276 28.68 453.184 28.68C452.284 28.68 451.414 28.554 450.574 28.302C449.734 28.038 449.026 27.678 448.45 27.222L449.44 25.404C449.908 25.788 450.466 26.094 451.114 26.322C451.774 26.538 452.452 26.646 453.148 26.646C453.976 26.646 454.624 26.478 455.092 26.142C455.572 25.794 455.812 25.32 455.812 24.72C455.812 24.072 455.554 23.586 455.038 23.262C454.534 22.926 453.664 22.758 452.428 22.758H449.386L450.034 15.9H457.432V17.862H452.014L451.744 20.778H452.95ZM470.752 25.638H468.52V28.5H466.252V25.638H459.34V24.018L465.55 15.9H468.052L462.202 23.658H466.324V21.12H468.52V23.658H470.752V25.638ZM476.925 21.102C478.089 21.246 478.977 21.642 479.589 22.29C480.201 22.938 480.507 23.748 480.507 24.72C480.507 25.452 480.321 26.118 479.949 26.718C479.577 27.318 479.013 27.798 478.257 28.158C477.513 28.506 476.601 28.68 475.521 28.68C474.621 28.68 473.751 28.554 472.911 28.302C472.083 28.038 471.375 27.678 470.787 27.222L471.795 25.404C472.251 25.788 472.803 26.094 473.451 26.322C474.111 26.538 474.789 26.646 475.485 26.646C476.313 26.646 476.961 26.478 477.429 26.142C477.909 25.794 478.149 25.326 478.149 24.738C478.149 24.15 477.921 23.694 477.465 23.37C477.021 23.034 476.337 22.866 475.413 22.866H474.261V21.264L477.123 17.862H471.399V15.9H479.985V17.466L476.925 21.102ZM493.081 27.942C492.829 28.158 492.517 28.326 492.145 28.446C491.773 28.554 491.389 28.608 490.993 28.608C490.033 28.608 489.289 28.35 488.761 27.834C488.233 27.318 487.969 26.58 487.969 25.62V20.382H486.349V18.96H487.969V16.872H489.697V18.96H492.433V20.382H489.697V25.548C489.697 26.064 489.823 26.46 490.075 26.736C490.339 27.012 490.711 27.15 491.191 27.15C491.719 27.15 492.169 27 492.541 26.7L493.081 27.942ZM498.94 28.608C497.992 28.608 497.14 28.398 496.384 27.978C495.628 27.558 495.034 26.982 494.602 26.25C494.182 25.506 493.972 24.666 493.972 23.73C493.972 22.794 494.182 21.96 494.602 21.228C495.034 20.484 495.628 19.908 496.384 19.5C497.14 19.08 497.992 18.87 498.94 18.87C499.888 18.87 500.734 19.08 501.478 19.5C502.234 19.908 502.822 20.484 503.242 21.228C503.674 21.96 503.89 22.794 503.89 23.73C503.89 24.666 503.674 25.506 503.242 26.25C502.822 26.982 502.234 27.558 501.478 27.978C500.734 28.398 499.888 28.608 498.94 28.608ZM498.94 27.096C499.552 27.096 500.098 26.958 500.578 26.682C501.07 26.394 501.454 25.998 501.73 25.494C502.006 24.978 502.144 24.39 502.144 23.73C502.144 23.07 502.006 22.488 501.73 21.984C501.454 21.468 501.07 21.072 500.578 20.796C500.098 20.52 499.552 20.382 498.94 20.382C498.328 20.382 497.776 20.52 497.284 20.796C496.804 21.072 496.42 21.468 496.132 21.984C495.856 22.488 495.718 23.07 495.718 23.73C495.718 24.39 495.856 24.978 496.132 25.494C496.42 25.998 496.804 26.394 497.284 26.682C497.776 26.958 498.328 27.096 498.94 27.096ZM516.478 27.942C516.226 28.158 515.914 28.326 515.542 28.446C515.17 28.554 514.786 28.608 514.39 28.608C513.43 28.608 512.686 28.35 512.158 27.834C511.63 27.318 511.366 26.58 511.366 25.62V20.382H509.746V18.96H511.366V16.872H513.094V18.96H515.83V20.382H513.094V25.548C513.094 26.064 513.22 26.46 513.472 26.736C513.736 27.012 514.108 27.15 514.588 27.15C515.116 27.15 515.566 27 515.938 26.7L516.478 27.942ZM523.661 18.87C524.873 18.87 525.833 19.224 526.541 19.932C527.261 20.628 527.621 21.654 527.621 23.01V28.5H525.893V23.208C525.893 22.284 525.671 21.588 525.227 21.12C524.783 20.652 524.147 20.418 523.319 20.418C522.383 20.418 521.645 20.694 521.105 21.246C520.565 21.786 520.295 22.566 520.295 23.586V28.5H518.567V15.144H520.295V20.31C520.655 19.854 521.123 19.5 521.699 19.248C522.287 18.996 522.941 18.87 523.661 18.87ZM539.493 23.784C539.493 23.916 539.481 24.09 539.457 24.306H531.717C531.825 25.146 532.191 25.824 532.815 26.34C533.451 26.844 534.237 27.096 535.173 27.096C536.313 27.096 537.231 26.712 537.927 25.944L538.881 27.06C538.449 27.564 537.909 27.948 537.261 28.212C536.625 28.476 535.911 28.608 535.119 28.608C534.111 28.608 533.217 28.404 532.437 27.996C531.657 27.576 531.051 26.994 530.619 26.25C530.199 25.506 529.989 24.666 529.989 23.73C529.989 22.806 530.193 21.972 530.601 21.228C531.021 20.484 531.591 19.908 532.311 19.5C533.043 19.08 533.865 18.87 534.777 18.87C535.689 18.87 536.499 19.08 537.207 19.5C537.927 19.908 538.485 20.484 538.881 21.228C539.289 21.972 539.493 22.824 539.493 23.784ZM534.777 20.328C533.949 20.328 533.253 20.58 532.689 21.084C532.137 21.588 531.813 22.248 531.717 23.064H537.837C537.741 22.26 537.411 21.606 536.847 21.102C536.295 20.586 535.605 20.328 534.777 20.328ZM551.821 18.87C553.033 18.87 553.993 19.224 554.701 19.932C555.421 20.628 555.781 21.654 555.781 23.01V28.5H554.053V23.208C554.053 22.284 553.831 21.588 553.387 21.12C552.943 20.652 552.307 20.418 551.479 20.418C550.543 20.418 549.805 20.694 549.265 21.246C548.725 21.786 548.455 22.566 548.455 23.586V28.5H546.727V18.96H548.383V20.4C548.731 19.908 549.199 19.53 549.787 19.266C550.387 19.002 551.065 18.87 551.821 18.87ZM567.654 23.784C567.654 23.916 567.642 24.09 567.618 24.306H559.878C559.986 25.146 560.352 25.824 560.976 26.34C561.612 26.844 562.398 27.096 563.334 27.096C564.474 27.096 565.392 26.712 566.088 25.944L567.042 27.06C566.61 27.564 566.07 27.948 565.422 28.212C564.786 28.476 564.072 28.608 563.28 28.608C562.272 28.608 561.378 28.404 560.598 27.996C559.818 27.576 559.212 26.994 558.78 26.25C558.36 25.506 558.15 24.666 558.15 23.73C558.15 22.806 558.354 21.972 558.762 21.228C559.182 20.484 559.752 19.908 560.472 19.5C561.204 19.08 562.026 18.87 562.938 18.87C563.85 18.87 564.66 19.08 565.368 19.5C566.088 19.908 566.646 20.484 567.042 21.228C567.45 21.972 567.654 22.824 567.654 23.784ZM562.938 20.328C562.11 20.328 561.414 20.58 560.85 21.084C560.298 21.588 559.974 22.248 559.878 23.064H565.998C565.902 22.26 565.572 21.606 565.008 21.102C564.456 20.586 563.766 20.328 562.938 20.328ZM573.263 18.87C574.583 18.87 575.591 19.194 576.287 19.842C576.995 20.49 577.349 21.456 577.349 22.74V28.5H575.711V27.24C575.423 27.684 575.009 28.026 574.469 28.266C573.941 28.494 573.311 28.608 572.579 28.608C571.511 28.608 570.653 28.35 570.005 27.834C569.369 27.318 569.051 26.64 569.051 25.8C569.051 24.96 569.357 24.288 569.969 23.784C570.581 23.268 571.553 23.01 572.885 23.01H575.621V22.668C575.621 21.924 575.405 21.354 574.973 20.958C574.541 20.562 573.905 20.364 573.065 20.364C572.501 20.364 571.949 20.46 571.409 20.652C570.869 20.832 570.413 21.078 570.041 21.39L569.321 20.094C569.813 19.698 570.401 19.398 571.085 19.194C571.769 18.978 572.495 18.87 573.263 18.87ZM572.867 27.276C573.527 27.276 574.097 27.132 574.577 26.844C575.057 26.544 575.405 26.124 575.621 25.584V24.252H572.957C571.493 24.252 570.761 24.744 570.761 25.728C570.761 26.208 570.947 26.586 571.319 26.862C571.691 27.138 572.207 27.276 572.867 27.276ZM582.203 20.562C582.503 20.01 582.947 19.59 583.535 19.302C584.123 19.014 584.837 18.87 585.677 18.87V20.544C585.581 20.532 585.449 20.526 585.281 20.526C584.345 20.526 583.607 20.808 583.067 21.372C582.539 21.924 582.275 22.716 582.275 23.748V28.5H580.547V18.96H582.203V20.562ZM596.341 23.784C596.341 23.916 596.329 24.09 596.305 24.306H588.565C588.673 25.146 589.039 25.824 589.663 26.34C590.299 26.844 591.085 27.096 592.021 27.096C593.161 27.096 594.079 26.712 594.775 25.944L595.729 27.06C595.297 27.564 594.757 27.948 594.109 28.212C593.473 28.476 592.759 28.608 591.967 28.608C590.959 28.608 590.065 28.404 589.285 27.996C588.505 27.576 587.899 26.994 587.467 26.25C587.047 25.506 586.837 24.666 586.837 23.73C586.837 22.806 587.041 21.972 587.449 21.228C587.869 20.484 588.439 19.908 589.159 19.5C589.891 19.08 590.713 18.87 591.625 18.87C592.537 18.87 593.347 19.08 594.055 19.5C594.775 19.908 595.333 20.484 595.729 21.228C596.137 21.972 596.341 22.824 596.341 23.784ZM591.625 20.328C590.797 20.328 590.101 20.58 589.537 21.084C588.985 21.588 588.661 22.248 588.565 23.064H594.685C594.589 22.26 594.259 21.606 593.695 21.102C593.143 20.586 592.453 20.328 591.625 20.328ZM601.477 28.608C600.697 28.608 599.947 28.506 599.227 28.302C598.507 28.086 597.943 27.816 597.535 27.492L598.255 26.124C598.675 26.424 599.185 26.664 599.785 26.844C600.385 27.024 600.991 27.114 601.603 27.114C603.115 27.114 603.871 26.682 603.871 25.818C603.871 25.53 603.769 25.302 603.565 25.134C603.361 24.966 603.103 24.846 602.791 24.774C602.491 24.69 602.059 24.6 601.495 24.504C600.727 24.384 600.097 24.246 599.605 24.09C599.125 23.934 598.711 23.67 598.363 23.298C598.015 22.926 597.841 22.404 597.841 21.732C597.841 20.868 598.201 20.178 598.921 19.662C599.641 19.134 600.607 18.87 601.819 18.87C602.455 18.87 603.091 18.948 603.727 19.104C604.363 19.26 604.885 19.47 605.293 19.734L604.555 21.102C603.775 20.598 602.857 20.346 601.801 20.346C601.069 20.346 600.511 20.466 600.127 20.706C599.743 20.946 599.551 21.264 599.551 21.66C599.551 21.972 599.659 22.218 599.875 22.398C600.091 22.578 600.355 22.71 600.667 22.794C600.991 22.878 601.441 22.974 602.017 23.082C602.785 23.214 603.403 23.358 603.871 23.514C604.351 23.658 604.759 23.91 605.095 24.27C605.431 24.63 605.599 25.134 605.599 25.782C605.599 26.646 605.227 27.336 604.483 27.852C603.751 28.356 602.749 28.608 601.477 28.608ZM613.122 27.942C612.87 28.158 612.558 28.326 612.186 28.446C611.814 28.554 611.43 28.608 611.034 28.608C610.074 28.608 609.33 28.35 608.802 27.834C608.274 27.318 608.01 26.58 608.01 25.62V20.382H606.39V18.96H608.01V16.872H609.738V18.96H612.474V20.382H609.738V25.548C609.738 26.064 609.864 26.46 610.116 26.736C610.38 27.012 610.752 27.15 611.232 27.15C611.76 27.15 612.21 27 612.582 26.7L613.122 27.942ZM625.139 18.87C626.351 18.87 627.311 19.224 628.019 19.932C628.739 20.628 629.099 21.654 629.099 23.01V28.5H627.371V23.208C627.371 22.284 627.149 21.588 626.705 21.12C626.261 20.652 625.625 20.418 624.797 20.418C623.861 20.418 623.123 20.694 622.583 21.246C622.043 21.786 621.773 22.566 621.773 23.586V28.5H620.045V15.144H621.773V20.31C622.133 19.854 622.601 19.5 623.177 19.248C623.765 18.996 624.419 18.87 625.139 18.87ZM641.189 18.96V28.5H639.551V27.06C639.203 27.552 638.741 27.936 638.165 28.212C637.601 28.476 636.983 28.608 636.311 28.608C635.039 28.608 634.037 28.26 633.305 27.564C632.573 26.856 632.207 25.818 632.207 24.45V18.96H633.935V24.252C633.935 25.176 634.157 25.878 634.601 26.358C635.045 26.826 635.681 27.06 636.509 27.06C637.421 27.06 638.141 26.784 638.669 26.232C639.197 25.68 639.461 24.9 639.461 23.892V18.96H641.189ZM649.573 18.87C650.785 18.87 651.745 19.224 652.453 19.932C653.173 20.628 653.533 21.654 653.533 23.01V28.5H651.805V23.208C651.805 22.284 651.583 21.588 651.139 21.12C650.695 20.652 650.059 20.418 649.231 20.418C648.295 20.418 647.557 20.694 647.017 21.246C646.477 21.786 646.207 22.566 646.207 23.586V28.5H644.479V18.96H646.135V20.4C646.483 19.908 646.951 19.53 647.539 19.266C648.139 19.002 648.817 18.87 649.573 18.87ZM665.784 15.144V28.5H664.128V26.988C663.744 27.516 663.258 27.918 662.67 28.194C662.082 28.47 661.434 28.608 660.726 28.608C659.802 28.608 658.974 28.404 658.242 27.996C657.51 27.588 656.934 27.018 656.514 26.286C656.106 25.542 655.902 24.69 655.902 23.73C655.902 22.77 656.106 21.924 656.514 21.192C656.934 20.46 657.51 19.89 658.242 19.482C658.974 19.074 659.802 18.87 660.726 18.87C661.41 18.87 662.04 19.002 662.616 19.266C663.192 19.518 663.672 19.896 664.056 20.4V15.144H665.784ZM660.87 27.096C661.47 27.096 662.016 26.958 662.508 26.682C663 26.394 663.384 25.998 663.66 25.494C663.936 24.978 664.074 24.39 664.074 23.73C664.074 23.07 663.936 22.488 663.66 21.984C663.384 21.468 663 21.072 662.508 20.796C662.016 20.52 661.47 20.382 660.87 20.382C660.258 20.382 659.706 20.52 659.214 20.796C658.734 21.072 658.35 21.468 658.062 21.984C657.786 22.488 657.648 23.07 657.648 23.73C657.648 24.39 657.786 24.978 658.062 25.494C658.35 25.998 658.734 26.394 659.214 26.682C659.706 26.958 660.258 27.096 660.87 27.096ZM670.709 20.562C671.009 20.01 671.453 19.59 672.041 19.302C672.629 19.014 673.343 18.87 674.183 18.87V20.544C674.087 20.532 673.955 20.526 673.787 20.526C672.851 20.526 672.113 20.808 671.573 21.372C671.045 21.924 670.781 22.716 670.781 23.748V28.5H669.053V18.96H670.709V20.562ZM684.847 23.784C684.847 23.916 684.835 24.09 684.811 24.306H677.071C677.179 25.146 677.545 25.824 678.169 26.34C678.805 26.844 679.591 27.096 680.527 27.096C681.667 27.096 682.585 26.712 683.281 25.944L684.235 27.06C683.803 27.564 683.263 27.948 682.615 28.212C681.979 28.476 681.265 28.608 680.473 28.608C679.465 28.608 678.571 28.404 677.791 27.996C677.011 27.576 676.405 26.994 675.973 26.25C675.553 25.506 675.343 24.666 675.343 23.73C675.343 22.806 675.547 21.972 675.955 21.228C676.375 20.484 676.945 19.908 677.665 19.5C678.397 19.08 679.219 18.87 680.131 18.87C681.043 18.87 681.853 19.08 682.561 19.5C683.281 19.908 683.839 20.484 684.235 21.228C684.643 21.972 684.847 22.824 684.847 23.784ZM680.131 20.328C679.303 20.328 678.607 20.58 678.043 21.084C677.491 21.588 677.167 22.248 677.071 23.064H683.191C683.095 22.26 682.765 21.606 682.201 21.102C681.649 20.586 680.959 20.328 680.131 20.328ZM696.246 15.144V28.5H694.59V26.988C694.206 27.516 693.72 27.918 693.132 28.194C692.544 28.47 691.896 28.608 691.188 28.608C690.264 28.608 689.436 28.404 688.704 27.996C687.972 27.588 687.396 27.018 686.976 26.286C686.568 25.542 686.364 24.69 686.364 23.73C686.364 22.77 686.568 21.924 686.976 21.192C687.396 20.46 687.972 19.89 688.704 19.482C689.436 19.074 690.264 18.87 691.188 18.87C691.872 18.87 692.502 19.002 693.078 19.266C693.654 19.518 694.134 19.896 694.518 20.4V15.144H696.246ZM691.332 27.096C691.932 27.096 692.478 26.958 692.97 26.682C693.462 26.394 693.846 25.998 694.122 25.494C694.398 24.978 694.536 24.39 694.536 23.73C694.536 23.07 694.398 22.488 694.122 21.984C693.846 21.468 693.462 21.072 692.97 20.796C692.478 20.52 691.932 20.382 691.332 20.382C690.72 20.382 690.168 20.52 689.676 20.796C689.196 21.072 688.812 21.468 688.524 21.984C688.248 22.488 688.11 23.07 688.11 23.73C688.11 24.39 688.248 24.978 688.524 25.494C688.812 25.998 689.196 26.394 689.676 26.682C690.168 26.958 690.72 27.096 691.332 27.096Z" fill="#2F2F2F"/>
<path d="M705.513 21.336C705.177 21.336 704.889 21.222 704.649 20.994C704.409 20.754 704.289 20.454 704.289 20.094C704.289 19.746 704.409 19.458 704.649 19.23C704.889 18.99 705.177 18.87 705.513 18.87C705.849 18.87 706.131 18.984 706.359 19.212C706.587 19.44 706.701 19.734 706.701 20.094C706.701 20.454 706.581 20.754 706.341 20.994C706.113 21.222 705.837 21.336 705.513 21.336ZM705.513 28.608C705.177 28.608 704.889 28.494 704.649 28.266C704.409 28.026 704.289 27.726 704.289 27.366C704.289 27.018 704.409 26.73 704.649 26.502C704.889 26.262 705.177 26.142 705.513 26.142C705.849 26.142 706.131 26.256 706.359 26.484C706.587 26.712 706.701 27.006 706.701 27.366C706.701 27.726 706.581 28.026 706.341 28.266C706.113 28.494 705.837 28.608 705.513 28.608Z" fill="#2F2F2F"/>
<path d="M713 5C713 2.23858 715.239 0 718 0H778C780.761 0 783 2.23858 783 5V40C783 42.7614 780.761 45 778 45H718C715.239 45 713 42.7614 713 40V5Z" fill="#369CB7"/>
<path d="M735.29 20.922C737.09 20.922 738.41 21.264 739.25 21.948C740.102 22.62 740.528 23.544 740.528 24.72C740.528 25.464 740.348 26.136 739.988 26.736C739.64 27.324 739.106 27.792 738.386 28.14C737.678 28.476 736.802 28.644 735.758 28.644C734.87 28.644 734.012 28.512 733.184 28.248C732.356 27.972 731.672 27.594 731.132 27.114L731.96 25.692C732.392 26.1 732.944 26.43 733.616 26.682C734.288 26.922 734.996 27.042 735.74 27.042C736.688 27.042 737.42 26.844 737.936 26.448C738.464 26.04 738.728 25.488 738.728 24.792C738.728 24.036 738.44 23.466 737.864 23.082C737.288 22.686 736.304 22.488 734.912 22.488H732.05L732.716 15.9H739.826V17.466H734.228L733.886 20.922H735.29ZM747.174 28.644C746.178 28.644 745.29 28.392 744.51 27.888C743.742 27.372 743.136 26.628 742.692 25.656C742.248 24.684 742.026 23.532 742.026 22.2C742.026 20.868 742.248 19.716 742.692 18.744C743.136 17.772 743.742 17.034 744.51 16.53C745.29 16.014 746.178 15.756 747.174 15.756C748.158 15.756 749.034 16.014 749.802 16.53C750.582 17.034 751.194 17.772 751.638 18.744C752.082 19.716 752.304 20.868 752.304 22.2C752.304 23.532 752.082 24.684 751.638 25.656C751.194 26.628 750.582 27.372 749.802 27.888C749.034 28.392 748.158 28.644 747.174 28.644ZM747.174 27.042C748.182 27.042 748.986 26.628 749.586 25.8C750.198 24.972 750.504 23.772 750.504 22.2C750.504 20.628 750.198 19.428 749.586 18.6C748.986 17.772 748.182 17.358 747.174 17.358C746.154 17.358 745.338 17.772 744.726 18.6C744.126 19.428 743.826 20.628 743.826 22.2C743.826 23.772 744.126 24.972 744.726 25.8C745.338 26.628 746.154 27.042 747.174 27.042ZM759.18 28.644C758.184 28.644 757.296 28.392 756.516 27.888C755.748 27.372 755.142 26.628 754.698 25.656C754.254 24.684 754.032 23.532 754.032 22.2C754.032 20.868 754.254 19.716 754.698 18.744C755.142 17.772 755.748 17.034 756.516 16.53C757.296 16.014 758.184 15.756 759.18 15.756C760.164 15.756 761.04 16.014 761.808 16.53C762.588 17.034 763.2 17.772 763.644 18.744C764.088 19.716 764.31 20.868 764.31 22.2C764.31 23.532 764.088 24.684 763.644 25.656C763.2 26.628 762.588 27.372 761.808 27.888C761.04 28.392 760.164 28.644 759.18 28.644ZM759.18 27.042C760.188 27.042 760.992 26.628 761.592 25.8C762.204 24.972 762.51 23.772 762.51 22.2C762.51 20.628 762.204 19.428 761.592 18.6C760.992 17.772 760.188 17.358 759.18 17.358C758.16 17.358 757.344 17.772 756.732 18.6C756.132 19.428 755.832 20.628 755.832 22.2C755.832 23.772 756.132 24.972 756.732 25.8C757.344 26.628 758.16 27.042 759.18 27.042Z" fill="white"/>
<path d="M718 1H778V-1H718V1ZM782 5V40H784V5H782ZM778 44H718V46H778V44ZM714 40V5H712V40H714ZM718 44C715.791 44 714 42.2091 714 40H712C712 43.3137 714.686 46 718 46V44ZM782 40C782 42.2091 780.209 44 778 44V46C781.314 46 784 43.3137 784 40H782ZM778 1C780.209 1 782 2.79086 782 5H784C784 1.68629 781.314 -1 778 -1V1ZM718 -1C714.686 -1 712 1.68629 712 5H714C714 2.79086 715.791 1 718 1V-1Z" fill="#369CB7"/>
<path d="M392.367 103.5L389.649 99.63C389.313 99.654 389.049 99.666 388.857 99.666H385.743V103.5H383.943V90.9H388.857C390.489 90.9 391.773 91.29 392.709 92.07C393.645 92.85 394.113 93.924 394.113 95.292C394.113 96.264 393.873 97.092 393.393 97.776C392.913 98.46 392.229 98.958 391.341 99.27L394.329 103.5H392.367ZM388.803 98.136C389.943 98.136 390.813 97.89 391.413 97.398C392.013 96.906 392.313 96.204 392.313 95.292C392.313 94.38 392.013 93.684 391.413 93.204C390.813 92.712 389.943 92.466 388.803 92.466H385.743V98.136H388.803ZM400.855 103.608C399.907 103.608 399.055 103.398 398.299 102.978C397.543 102.558 396.949 101.982 396.517 101.25C396.097 100.506 395.887 99.666 395.887 98.73C395.887 97.794 396.097 96.96 396.517 96.228C396.949 95.484 397.543 94.908 398.299 94.5C399.055 94.08 399.907 93.87 400.855 93.87C401.803 93.87 402.649 94.08 403.393 94.5C404.149 94.908 404.737 95.484 405.157 96.228C405.589 96.96 405.805 97.794 405.805 98.73C405.805 99.666 405.589 100.506 405.157 101.25C404.737 101.982 404.149 102.558 403.393 102.978C402.649 103.398 401.803 103.608 400.855 103.608ZM400.855 102.096C401.467 102.096 402.013 101.958 402.493 101.682C402.985 101.394 403.369 100.998 403.645 100.494C403.921 99.978 404.059 99.39 404.059 98.73C404.059 98.07 403.921 97.488 403.645 96.984C403.369 96.468 402.985 96.072 402.493 95.796C402.013 95.52 401.467 95.382 400.855 95.382C400.243 95.382 399.691 95.52 399.199 95.796C398.719 96.072 398.335 96.468 398.047 96.984C397.771 97.488 397.633 98.07 397.633 98.73C397.633 99.39 397.771 99.978 398.047 100.494C398.335 100.998 398.719 101.394 399.199 101.682C399.691 101.958 400.243 102.096 400.855 102.096ZM417.087 93.96V103.5H415.449V102.06C415.101 102.552 414.639 102.936 414.063 103.212C413.499 103.476 412.881 103.608 412.209 103.608C410.937 103.608 409.935 103.26 409.203 102.564C408.471 101.856 408.105 100.818 408.105 99.45V93.96H409.833V99.252C409.833 100.176 410.055 100.878 410.499 101.358C410.943 101.826 411.579 102.06 412.407 102.06C413.319 102.06 414.039 101.784 414.567 101.232C415.095 100.68 415.359 99.9 415.359 98.892V93.96H417.087ZM425.47 93.87C426.682 93.87 427.642 94.224 428.35 94.932C429.07 95.628 429.43 96.654 429.43 98.01V103.5H427.702V98.208C427.702 97.284 427.48 96.588 427.036 96.12C426.592 95.652 425.956 95.418 425.128 95.418C424.192 95.418 423.454 95.694 422.914 96.246C422.374 96.786 422.104 97.566 422.104 98.586V103.5H420.376V93.96H422.032V95.4C422.38 94.908 422.848 94.53 423.436 94.266C424.036 94.002 424.714 93.87 425.47 93.87ZM441.681 90.144V103.5H440.025V101.988C439.641 102.516 439.155 102.918 438.567 103.194C437.979 103.47 437.331 103.608 436.623 103.608C435.699 103.608 434.871 103.404 434.139 102.996C433.407 102.588 432.831 102.018 432.411 101.286C432.003 100.542 431.799 99.69 431.799 98.73C431.799 97.77 432.003 96.924 432.411 96.192C432.831 95.46 433.407 94.89 434.139 94.482C434.871 94.074 435.699 93.87 436.623 93.87C437.307 93.87 437.937 94.002 438.513 94.266C439.089 94.518 439.569 94.896 439.953 95.4V90.144H441.681ZM436.767 102.096C437.367 102.096 437.913 101.958 438.405 101.682C438.897 101.394 439.281 100.998 439.557 100.494C439.833 99.978 439.971 99.39 439.971 98.73C439.971 98.07 439.833 97.488 439.557 96.984C439.281 96.468 438.897 96.072 438.405 95.796C437.913 95.52 437.367 95.382 436.767 95.382C436.155 95.382 435.603 95.52 435.111 95.796C434.631 96.072 434.247 96.468 433.959 96.984C433.683 97.488 433.545 98.07 433.545 98.73C433.545 99.39 433.683 99.978 433.959 100.494C434.247 100.998 434.631 101.394 435.111 101.682C435.603 101.958 436.155 102.096 436.767 102.096ZM452.88 95.778C454.656 95.778 455.97 96.126 456.822 96.822C457.674 97.506 458.1 98.442 458.1 99.63C458.1 100.386 457.914 101.07 457.542 101.682C457.17 102.294 456.612 102.78 455.868 103.14C455.124 103.5 454.206 103.68 453.114 103.68C452.214 103.68 451.344 103.554 450.504 103.302C449.664 103.038 448.956 102.678 448.38 102.222L449.37 100.404C449.838 100.788 450.396 101.094 451.044 101.322C451.704 101.538 452.382 101.646 453.078 101.646C453.906 101.646 454.554 101.478 455.022 101.142C455.502 100.794 455.742 100.32 455.742 99.72C455.742 99.072 455.484 98.586 454.968 98.262C454.464 97.926 453.594 97.758 452.358 97.758H449.316L449.964 90.9H457.362V92.862H451.944L451.674 95.778H452.88ZM468.726 90.9V92.466L463.83 103.5H461.328L466.062 92.88H461.112V95.022H458.934V90.9H468.726ZM475.545 95.724C476.373 95.724 477.117 95.886 477.777 96.21C478.437 96.522 478.953 96.972 479.325 97.56C479.697 98.148 479.883 98.826 479.883 99.594C479.883 100.41 479.679 101.13 479.271 101.754C478.863 102.366 478.311 102.84 477.615 103.176C476.919 103.512 476.139 103.68 475.275 103.68C473.547 103.68 472.203 103.14 471.243 102.06C470.295 100.98 469.821 99.432 469.821 97.416C469.821 96 470.079 94.794 470.595 93.798C471.111 92.79 471.831 92.028 472.755 91.512C473.691 90.984 474.771 90.72 475.995 90.72C476.643 90.72 477.249 90.792 477.813 90.936C478.389 91.068 478.887 91.266 479.307 91.53L478.443 93.294C477.819 92.886 477.021 92.682 476.049 92.682C474.837 92.682 473.889 93.054 473.205 93.798C472.521 94.542 472.179 95.616 472.179 97.02V97.038C472.551 96.606 473.025 96.282 473.601 96.066C474.177 95.838 474.825 95.724 475.545 95.724ZM475.149 101.844C475.881 101.844 476.475 101.652 476.931 101.268C477.387 100.872 477.615 100.35 477.615 99.702C477.615 99.042 477.387 98.52 476.931 98.136C476.475 97.752 475.863 97.56 475.095 97.56C474.339 97.56 473.721 97.764 473.241 98.172C472.773 98.58 472.539 99.096 472.539 99.72C472.539 100.332 472.767 100.842 473.223 101.25C473.691 101.646 474.333 101.844 475.149 101.844ZM492.15 102.942C491.898 103.158 491.586 103.326 491.214 103.446C490.842 103.554 490.458 103.608 490.062 103.608C489.102 103.608 488.358 103.35 487.83 102.834C487.302 102.318 487.038 101.58 487.038 100.62V95.382H485.418V93.96H487.038V91.872H488.766V93.96H491.502V95.382H488.766V100.548C488.766 101.064 488.892 101.46 489.144 101.736C489.408 102.012 489.78 102.15 490.26 102.15C490.788 102.15 491.238 102 491.61 101.7L492.15 102.942ZM498.009 103.608C497.061 103.608 496.209 103.398 495.453 102.978C494.697 102.558 494.103 101.982 493.671 101.25C493.251 100.506 493.041 99.666 493.041 98.73C493.041 97.794 493.251 96.96 493.671 96.228C494.103 95.484 494.697 94.908 495.453 94.5C496.209 94.08 497.061 93.87 498.009 93.87C498.957 93.87 499.803 94.08 500.547 94.5C501.303 94.908 501.891 95.484 502.311 96.228C502.743 96.96 502.959 97.794 502.959 98.73C502.959 99.666 502.743 100.506 502.311 101.25C501.891 101.982 501.303 102.558 500.547 102.978C499.803 103.398 498.957 103.608 498.009 103.608ZM498.009 102.096C498.621 102.096 499.167 101.958 499.647 101.682C500.139 101.394 500.523 100.998 500.799 100.494C501.075 99.978 501.213 99.39 501.213 98.73C501.213 98.07 501.075 97.488 500.799 96.984C500.523 96.468 500.139 96.072 499.647 95.796C499.167 95.52 498.621 95.382 498.009 95.382C497.397 95.382 496.845 95.52 496.353 95.796C495.873 96.072 495.489 96.468 495.201 96.984C494.925 97.488 494.787 98.07 494.787 98.73C494.787 99.39 494.925 99.978 495.201 100.494C495.489 100.998 495.873 101.394 496.353 101.682C496.845 101.958 497.397 102.096 498.009 102.096ZM515.547 102.942C515.295 103.158 514.983 103.326 514.611 103.446C514.239 103.554 513.855 103.608 513.459 103.608C512.499 103.608 511.755 103.35 511.227 102.834C510.699 102.318 510.435 101.58 510.435 100.62V95.382H508.815V93.96H510.435V91.872H512.163V93.96H514.899V95.382H512.163V100.548C512.163 101.064 512.289 101.46 512.541 101.736C512.805 102.012 513.177 102.15 513.657 102.15C514.185 102.15 514.635 102 515.007 101.7L515.547 102.942ZM522.73 93.87C523.942 93.87 524.902 94.224 525.61 94.932C526.33 95.628 526.69 96.654 526.69 98.01V103.5H524.962V98.208C524.962 97.284 524.74 96.588 524.296 96.12C523.852 95.652 523.216 95.418 522.388 95.418C521.452 95.418 520.714 95.694 520.174 96.246C519.634 96.786 519.364 97.566 519.364 98.586V103.5H517.636V90.144H519.364V95.31C519.724 94.854 520.192 94.5 520.768 94.248C521.356 93.996 522.01 93.87 522.73 93.87ZM538.563 98.784C538.563 98.916 538.551 99.09 538.527 99.306H530.787C530.895 100.146 531.261 100.824 531.885 101.34C532.521 101.844 533.307 102.096 534.243 102.096C535.383 102.096 536.301 101.712 536.997 100.944L537.951 102.06C537.519 102.564 536.979 102.948 536.331 103.212C535.695 103.476 534.981 103.608 534.189 103.608C533.181 103.608 532.287 103.404 531.507 102.996C530.727 102.576 530.121 101.994 529.689 101.25C529.269 100.506 529.059 99.666 529.059 98.73C529.059 97.806 529.263 96.972 529.671 96.228C530.091 95.484 530.661 94.908 531.381 94.5C532.113 94.08 532.935 93.87 533.847 93.87C534.759 93.87 535.569 94.08 536.277 94.5C536.997 94.908 537.555 95.484 537.951 96.228C538.359 96.972 538.563 97.824 538.563 98.784ZM533.847 95.328C533.019 95.328 532.323 95.58 531.759 96.084C531.207 96.588 530.883 97.248 530.787 98.064H536.907C536.811 97.26 536.481 96.606 535.917 96.102C535.365 95.586 534.675 95.328 533.847 95.328ZM550.89 93.87C552.102 93.87 553.062 94.224 553.77 94.932C554.49 95.628 554.85 96.654 554.85 98.01V103.5H553.122V98.208C553.122 97.284 552.9 96.588 552.456 96.12C552.012 95.652 551.376 95.418 550.548 95.418C549.612 95.418 548.874 95.694 548.334 96.246C547.794 96.786 547.524 97.566 547.524 98.586V103.5H545.796V93.96H547.452V95.4C547.8 94.908 548.268 94.53 548.856 94.266C549.456 94.002 550.134 93.87 550.89 93.87ZM566.723 98.784C566.723 98.916 566.711 99.09 566.687 99.306H558.947C559.055 100.146 559.421 100.824 560.045 101.34C560.681 101.844 561.467 102.096 562.403 102.096C563.543 102.096 564.461 101.712 565.157 100.944L566.111 102.06C565.679 102.564 565.139 102.948 564.491 103.212C563.855 103.476 563.141 103.608 562.349 103.608C561.341 103.608 560.447 103.404 559.667 102.996C558.887 102.576 558.281 101.994 557.849 101.25C557.429 100.506 557.219 99.666 557.219 98.73C557.219 97.806 557.423 96.972 557.831 96.228C558.251 95.484 558.821 94.908 559.541 94.5C560.273 94.08 561.095 93.87 562.007 93.87C562.919 93.87 563.729 94.08 564.437 94.5C565.157 94.908 565.715 95.484 566.111 96.228C566.519 96.972 566.723 97.824 566.723 98.784ZM562.007 95.328C561.179 95.328 560.483 95.58 559.919 96.084C559.367 96.588 559.043 97.248 558.947 98.064H565.067C564.971 97.26 564.641 96.606 564.077 96.102C563.525 95.586 562.835 95.328 562.007 95.328ZM572.333 93.87C573.653 93.87 574.661 94.194 575.357 94.842C576.065 95.49 576.419 96.456 576.419 97.74V103.5H574.781V102.24C574.493 102.684 574.079 103.026 573.539 103.266C573.011 103.494 572.381 103.608 571.649 103.608C570.581 103.608 569.723 103.35 569.075 102.834C568.439 102.318 568.121 101.64 568.121 100.8C568.121 99.96 568.427 99.288 569.039 98.784C569.651 98.268 570.623 98.01 571.955 98.01H574.691V97.668C574.691 96.924 574.475 96.354 574.043 95.958C573.611 95.562 572.975 95.364 572.135 95.364C571.571 95.364 571.019 95.46 570.479 95.652C569.939 95.832 569.483 96.078 569.111 96.39L568.391 95.094C568.883 94.698 569.471 94.398 570.155 94.194C570.839 93.978 571.565 93.87 572.333 93.87ZM571.937 102.276C572.597 102.276 573.167 102.132 573.647 101.844C574.127 101.544 574.475 101.124 574.691 100.584V99.252H572.027C570.563 99.252 569.831 99.744 569.831 100.728C569.831 101.208 570.017 101.586 570.389 101.862C570.761 102.138 571.277 102.276 571.937 102.276ZM581.273 95.562C581.573 95.01 582.017 94.59 582.605 94.302C583.193 94.014 583.907 93.87 584.747 93.87V95.544C584.651 95.532 584.519 95.526 584.351 95.526C583.415 95.526 582.677 95.808 582.137 96.372C581.609 96.924 581.345 97.716 581.345 98.748V103.5H579.617V93.96H581.273V95.562ZM595.41 98.784C595.41 98.916 595.398 99.09 595.374 99.306H587.634C587.742 100.146 588.108 100.824 588.732 101.34C589.368 101.844 590.154 102.096 591.09 102.096C592.23 102.096 593.148 101.712 593.844 100.944L594.798 102.06C594.366 102.564 593.826 102.948 593.178 103.212C592.542 103.476 591.828 103.608 591.036 103.608C590.028 103.608 589.134 103.404 588.354 102.996C587.574 102.576 586.968 101.994 586.536 101.25C586.116 100.506 585.906 99.666 585.906 98.73C585.906 97.806 586.11 96.972 586.518 96.228C586.938 95.484 587.508 94.908 588.228 94.5C588.96 94.08 589.782 93.87 590.694 93.87C591.606 93.87 592.416 94.08 593.124 94.5C593.844 94.908 594.402 95.484 594.798 96.228C595.206 96.972 595.41 97.824 595.41 98.784ZM590.694 95.328C589.866 95.328 589.17 95.58 588.606 96.084C588.054 96.588 587.73 97.248 587.634 98.064H593.754C593.658 97.26 593.328 96.606 592.764 96.102C592.212 95.586 591.522 95.328 590.694 95.328ZM600.546 103.608C599.766 103.608 599.016 103.506 598.296 103.302C597.576 103.086 597.012 102.816 596.604 102.492L597.324 101.124C597.744 101.424 598.254 101.664 598.854 101.844C599.454 102.024 600.06 102.114 600.672 102.114C602.184 102.114 602.94 101.682 602.94 100.818C602.94 100.53 602.838 100.302 602.634 100.134C602.43 99.966 602.172 99.846 601.86 99.774C601.56 99.69 601.128 99.6 600.564 99.504C599.796 99.384 599.166 99.246 598.674 99.09C598.194 98.934 597.78 98.67 597.432 98.298C597.084 97.926 596.91 97.404 596.91 96.732C596.91 95.868 597.27 95.178 597.99 94.662C598.71 94.134 599.676 93.87 600.888 93.87C601.524 93.87 602.16 93.948 602.796 94.104C603.432 94.26 603.954 94.47 604.362 94.734L603.624 96.102C602.844 95.598 601.926 95.346 600.87 95.346C600.138 95.346 599.58 95.466 599.196 95.706C598.812 95.946 598.62 96.264 598.62 96.66C598.62 96.972 598.728 97.218 598.944 97.398C599.16 97.578 599.424 97.71 599.736 97.794C600.06 97.878 600.51 97.974 601.086 98.082C601.854 98.214 602.472 98.358 602.94 98.514C603.42 98.658 603.828 98.91 604.164 99.27C604.5 99.63 604.668 100.134 604.668 100.782C604.668 101.646 604.296 102.336 603.552 102.852C602.82 103.356 601.818 103.608 600.546 103.608ZM612.191 102.942C611.939 103.158 611.627 103.326 611.255 103.446C610.883 103.554 610.499 103.608 610.103 103.608C609.143 103.608 608.399 103.35 607.871 102.834C607.343 102.318 607.079 101.58 607.079 100.62V95.382H605.459V93.96H607.079V91.872H608.807V93.96H611.543V95.382H608.807V100.548C608.807 101.064 608.933 101.46 609.185 101.736C609.449 102.012 609.821 102.15 610.301 102.15C610.829 102.15 611.279 102 611.651 101.7L612.191 102.942ZM624.209 93.87C625.421 93.87 626.381 94.224 627.089 94.932C627.809 95.628 628.169 96.654 628.169 98.01V103.5H626.441V98.208C626.441 97.284 626.219 96.588 625.775 96.12C625.331 95.652 624.695 95.418 623.867 95.418C622.931 95.418 622.193 95.694 621.653 96.246C621.113 96.786 620.843 97.566 620.843 98.586V103.5H619.115V90.144H620.843V95.31C621.203 94.854 621.671 94.5 622.247 94.248C622.835 93.996 623.489 93.87 624.209 93.87ZM640.259 93.96V103.5H638.621V102.06C638.273 102.552 637.811 102.936 637.235 103.212C636.671 103.476 636.053 103.608 635.381 103.608C634.109 103.608 633.107 103.26 632.375 102.564C631.643 101.856 631.277 100.818 631.277 99.45V93.96H633.005V99.252C633.005 100.176 633.227 100.878 633.671 101.358C634.115 101.826 634.751 102.06 635.579 102.06C636.491 102.06 637.211 101.784 637.739 101.232C638.267 100.68 638.531 99.9 638.531 98.892V93.96H640.259ZM648.642 93.87C649.854 93.87 650.814 94.224 651.522 94.932C652.242 95.628 652.602 96.654 652.602 98.01V103.5H650.874V98.208C650.874 97.284 650.652 96.588 650.208 96.12C649.764 95.652 649.128 95.418 648.3 95.418C647.364 95.418 646.626 95.694 646.086 96.246C645.546 96.786 645.276 97.566 645.276 98.586V103.5H643.548V93.96H645.204V95.4C645.552 94.908 646.02 94.53 646.608 94.266C647.208 94.002 647.886 93.87 648.642 93.87ZM664.853 90.144V103.5H663.197V101.988C662.813 102.516 662.327 102.918 661.739 103.194C661.151 103.47 660.503 103.608 659.795 103.608C658.871 103.608 658.043 103.404 657.311 102.996C656.579 102.588 656.003 102.018 655.583 101.286C655.175 100.542 654.971 99.69 654.971 98.73C654.971 97.77 655.175 96.924 655.583 96.192C656.003 95.46 656.579 94.89 657.311 94.482C658.043 94.074 658.871 93.87 659.795 93.87C660.479 93.87 661.109 94.002 661.685 94.266C662.261 94.518 662.741 94.896 663.125 95.4V90.144H664.853ZM659.939 102.096C660.539 102.096 661.085 101.958 661.577 101.682C662.069 101.394 662.453 100.998 662.729 100.494C663.005 99.978 663.143 99.39 663.143 98.73C663.143 98.07 663.005 97.488 662.729 96.984C662.453 96.468 662.069 96.072 661.577 95.796C661.085 95.52 660.539 95.382 659.939 95.382C659.327 95.382 658.775 95.52 658.283 95.796C657.803 96.072 657.419 96.468 657.131 96.984C656.855 97.488 656.717 98.07 656.717 98.73C656.717 99.39 656.855 99.978 657.131 100.494C657.419 100.998 657.803 101.394 658.283 101.682C658.775 101.958 659.327 102.096 659.939 102.096ZM669.778 95.562C670.078 95.01 670.522 94.59 671.11 94.302C671.698 94.014 672.412 93.87 673.252 93.87V95.544C673.156 95.532 673.024 95.526 672.856 95.526C671.92 95.526 671.182 95.808 670.642 96.372C670.114 96.924 669.85 97.716 669.85 98.748V103.5H668.122V93.96H669.778V95.562ZM683.916 98.784C683.916 98.916 683.904 99.09 683.88 99.306H676.14C676.248 100.146 676.614 100.824 677.238 101.34C677.874 101.844 678.66 102.096 679.596 102.096C680.736 102.096 681.654 101.712 682.35 100.944L683.304 102.06C682.872 102.564 682.332 102.948 681.684 103.212C681.048 103.476 680.334 103.608 679.542 103.608C678.534 103.608 677.64 103.404 676.86 102.996C676.08 102.576 675.474 101.994 675.042 101.25C674.622 100.506 674.412 99.666 674.412 98.73C674.412 97.806 674.616 96.972 675.024 96.228C675.444 95.484 676.014 94.908 676.734 94.5C677.466 94.08 678.288 93.87 679.2 93.87C680.112 93.87 680.922 94.08 681.63 94.5C682.35 94.908 682.908 95.484 683.304 96.228C683.712 96.972 683.916 97.824 683.916 98.784ZM679.2 95.328C678.372 95.328 677.676 95.58 677.112 96.084C676.56 96.588 676.236 97.248 676.14 98.064H682.26C682.164 97.26 681.834 96.606 681.27 96.102C680.718 95.586 680.028 95.328 679.2 95.328ZM695.316 90.144V103.5H693.66V101.988C693.276 102.516 692.79 102.918 692.202 103.194C691.614 103.47 690.966 103.608 690.258 103.608C689.334 103.608 688.506 103.404 687.774 102.996C687.042 102.588 686.466 102.018 686.046 101.286C685.638 100.542 685.434 99.69 685.434 98.73C685.434 97.77 685.638 96.924 686.046 96.192C686.466 95.46 687.042 94.89 687.774 94.482C688.506 94.074 689.334 93.87 690.258 93.87C690.942 93.87 691.572 94.002 692.148 94.266C692.724 94.518 693.204 94.896 693.588 95.4V90.144H695.316ZM690.402 102.096C691.002 102.096 691.548 101.958 692.04 101.682C692.532 101.394 692.916 100.998 693.192 100.494C693.468 99.978 693.606 99.39 693.606 98.73C693.606 98.07 693.468 97.488 693.192 96.984C692.916 96.468 692.532 96.072 692.04 95.796C691.548 95.52 691.002 95.382 690.402 95.382C689.79 95.382 689.238 95.52 688.746 95.796C688.266 96.072 687.882 96.468 687.594 96.984C687.318 97.488 687.18 98.07 687.18 98.73C687.18 99.39 687.318 99.978 687.594 100.494C687.882 100.998 688.266 101.394 688.746 101.682C689.238 101.958 689.79 102.096 690.402 102.096Z" fill="#2F2F2F"/>
<path d="M704.513 96.336C704.177 96.336 703.889 96.222 703.649 95.994C703.409 95.754 703.289 95.454 703.289 95.094C703.289 94.746 703.409 94.458 703.649 94.23C703.889 93.99 704.177 93.87 704.513 93.87C704.849 93.87 705.131 93.984 705.359 94.212C705.587 94.44 705.701 94.734 705.701 95.094C705.701 95.454 705.581 95.754 705.341 95.994C705.113 96.222 704.837 96.336 704.513 96.336ZM704.513 103.608C704.177 103.608 703.889 103.494 703.649 103.266C703.409 103.026 703.289 102.726 703.289 102.366C703.289 102.018 703.409 101.73 703.649 101.502C703.889 101.262 704.177 101.142 704.513 101.142C704.849 101.142 705.131 101.256 705.359 101.484C705.587 101.712 705.701 102.006 705.701 102.366C705.701 102.726 705.581 103.026 705.341 103.266C705.113 103.494 704.837 103.608 704.513 103.608Z" fill="#2F2F2F"/>
<path d="M712 80C712 77.2386 714.239 75 717 75H777C779.761 75 782 77.2386 782 80V115C782 117.761 779.761 120 777 120H717C714.239 120 712 117.761 712 115V80Z" fill="#369CB7"/>
<path d="M735.739 95.85C736.567 95.85 737.305 96.006 737.953 96.318C738.613 96.63 739.129 97.08 739.501 97.668C739.873 98.244 740.059 98.91 740.059 99.666C740.059 100.458 739.861 101.154 739.465 101.754C739.081 102.354 738.547 102.822 737.863 103.158C737.191 103.482 736.435 103.644 735.595 103.644C733.903 103.644 732.595 103.098 731.671 102.006C730.759 100.914 730.303 99.366 730.303 97.362C730.303 95.958 730.549 94.764 731.041 93.78C731.545 92.784 732.241 92.034 733.129 91.53C734.029 91.014 735.073 90.756 736.261 90.756C736.873 90.756 737.449 90.822 737.989 90.954C738.529 91.074 738.997 91.254 739.393 91.494L738.709 92.898C738.109 92.502 737.305 92.304 736.297 92.304C734.989 92.304 733.963 92.712 733.219 93.528C732.475 94.332 732.103 95.508 732.103 97.056C732.103 97.248 732.109 97.398 732.121 97.506C732.481 96.966 732.973 96.558 733.597 96.282C734.233 95.994 734.947 95.85 735.739 95.85ZM735.523 102.186C736.351 102.186 737.023 101.964 737.539 101.52C738.055 101.076 738.313 100.482 738.313 99.738C738.313 98.994 738.049 98.406 737.521 97.974C737.005 97.53 736.309 97.308 735.433 97.308C734.869 97.308 734.365 97.416 733.921 97.632C733.489 97.848 733.147 98.142 732.895 98.514C732.655 98.886 732.535 99.3 732.535 99.756C732.535 100.2 732.649 100.608 732.877 100.98C733.117 101.34 733.459 101.634 733.903 101.862C734.359 102.078 734.899 102.186 735.523 102.186ZM746.561 103.644C745.565 103.644 744.677 103.392 743.897 102.888C743.129 102.372 742.523 101.628 742.079 100.656C741.635 99.684 741.413 98.532 741.413 97.2C741.413 95.868 741.635 94.716 742.079 93.744C742.523 92.772 743.129 92.034 743.897 91.53C744.677 91.014 745.565 90.756 746.561 90.756C747.545 90.756 748.421 91.014 749.189 91.53C749.969 92.034 750.581 92.772 751.025 93.744C751.469 94.716 751.691 95.868 751.691 97.2C751.691 98.532 751.469 99.684 751.025 100.656C750.581 101.628 749.969 102.372 749.189 102.888C748.421 103.392 747.545 103.644 746.561 103.644ZM746.561 102.042C747.569 102.042 748.373 101.628 748.973 100.8C749.585 99.972 749.891 98.772 749.891 97.2C749.891 95.628 749.585 94.428 748.973 93.6C748.373 92.772 747.569 92.358 746.561 92.358C745.541 92.358 744.725 92.772 744.113 93.6C743.513 94.428 743.213 95.628 743.213 97.2C743.213 98.772 743.513 99.972 744.113 100.8C744.725 101.628 745.541 102.042 746.561 102.042ZM758.567 103.644C757.571 103.644 756.683 103.392 755.903 102.888C755.135 102.372 754.529 101.628 754.085 100.656C753.641 99.684 753.419 98.532 753.419 97.2C753.419 95.868 753.641 94.716 754.085 93.744C754.529 92.772 755.135 92.034 755.903 91.53C756.683 91.014 757.571 90.756 758.567 90.756C759.551 90.756 760.427 91.014 761.195 91.53C761.975 92.034 762.587 92.772 763.031 93.744C763.475 94.716 763.697 95.868 763.697 97.2C763.697 98.532 763.475 99.684 763.031 100.656C762.587 101.628 761.975 102.372 761.195 102.888C760.427 103.392 759.551 103.644 758.567 103.644ZM758.567 102.042C759.575 102.042 760.379 101.628 760.979 100.8C761.591 99.972 761.897 98.772 761.897 97.2C761.897 95.628 761.591 94.428 760.979 93.6C760.379 92.772 759.575 92.358 758.567 92.358C757.547 92.358 756.731 92.772 756.119 93.6C755.519 94.428 755.219 95.628 755.219 97.2C755.219 98.772 755.519 99.972 756.119 100.8C756.731 101.628 757.547 102.042 758.567 102.042Z" fill="white"/>
<path d="M717 76H777V74H717V76ZM781 80V115H783V80H781ZM777 119H717V121H777V119ZM713 115V80H711V115H713ZM717 119C714.791 119 713 117.209 713 115H711C711 118.314 713.686 121 717 121V119ZM781 115C781 117.209 779.209 119 777 119V121C780.314 121 783 118.314 783 115H781ZM777 76C779.209 76 781 77.7909 781 80H783C783 76.6863 780.314 74 777 74V76ZM717 74C713.686 74 711 76.6863 711 80H713C713 77.7909 714.791 76 717 76V74Z" fill="#369CB7"/>
</svg>
