<svg width="70" height="45" viewBox="0 0 70 45" fill="none" xmlns="http://www.w3.org/2000/svg">
<path d="M0 5C0 2.23858 2.23858 0 5 0H65C67.7614 0 70 2.23858 70 5V40C70 42.7614 67.7614 45 65 45H5C2.23858 45 0 42.7614 0 40V5Z" fill="#369CB7"/>
<path d="M23.2042 20.922C25.0042 20.922 26.3242 21.264 27.1642 21.948C28.0162 22.62 28.4422 23.544 28.4422 24.72C28.4422 25.464 28.2622 26.136 27.9022 26.736C27.5542 27.324 27.0202 27.792 26.3002 28.14C25.5922 28.476 24.7162 28.644 23.6722 28.644C22.7842 28.644 21.9262 28.512 21.0982 28.248C20.2702 27.972 19.5862 27.594 19.0462 27.114L19.8742 25.692C20.3062 26.1 20.8582 26.43 21.5302 26.682C22.2022 26.922 22.9102 27.042 23.6542 27.042C24.6022 27.042 25.3342 26.844 25.8502 26.448C26.3782 26.04 26.6422 25.488 26.6422 24.792C26.6422 24.036 26.3542 23.466 25.7782 23.082C25.2022 22.686 24.2182 22.488 22.8262 22.488H19.9642L20.6302 15.9H27.7402V17.466H22.1422L21.8002 20.922H23.2042ZM38.8917 15.9V17.124L33.7977 28.5H31.8897L36.8757 17.466H31.1157V19.716H29.3877V15.9H38.8917ZM45.2659 28.644C44.2699 28.644 43.3819 28.392 42.6019 27.888C41.8339 27.372 41.2279 26.628 40.7839 25.656C40.3399 24.684 40.1179 23.532 40.1179 22.2C40.1179 20.868 40.3399 19.716 40.7839 18.744C41.2279 17.772 41.8339 17.034 42.6019 16.53C43.3819 16.014 44.2699 15.756 45.2659 15.756C46.2499 15.756 47.1259 16.014 47.8939 16.53C48.6739 17.034 49.2859 17.772 49.7299 18.744C50.1739 19.716 50.3959 20.868 50.3959 22.2C50.3959 23.532 50.1739 24.684 49.7299 25.656C49.2859 26.628 48.6739 27.372 47.8939 27.888C47.1259 28.392 46.2499 28.644 45.2659 28.644ZM45.2659 27.042C46.2739 27.042 47.0779 26.628 47.6779 25.8C48.2899 24.972 48.5959 23.772 48.5959 22.2C48.5959 20.628 48.2899 19.428 47.6779 18.6C47.0779 17.772 46.2739 17.358 45.2659 17.358C44.2459 17.358 43.4299 17.772 42.8179 18.6C42.2179 19.428 41.9179 20.628 41.9179 22.2C41.9179 23.772 42.2179 24.972 42.8179 25.8C43.4299 26.628 44.2459 27.042 45.2659 27.042Z" fill="white"/>
<path d="M5 1H65V-1H5V1ZM69 5V40H71V5H69ZM65 44H5V46H65V44ZM1 40V5H-1V40H1ZM5 44C2.79086 44 1 42.2091 1 40H-1C-1 43.3137 1.68629 46 5 46V44ZM69 40C69 42.2091 67.2091 44 65 44V46C68.3137 46 71 43.3137 71 40H69ZM65 1C67.2091 1 69 2.79086 69 5H71C71 1.68629 68.3137 -1 65 -1V1ZM5 -1C1.68629 -1 -1 1.68629 -1 5H1C1 2.79086 2.79086 1 5 1V-1Z" fill="#369CB7"/>
</svg>
