<svg width="278" height="23" viewBox="0 0 278 23" fill="none" xmlns="http://www.w3.org/2000/svg">
<path d="M10.6939 17.5L7.97588 13.63C7.63988 13.654 7.37588 13.666 7.18388 13.666H4.06988V17.5H2.26988V4.9H7.18388C8.81588 4.9 10.0999 5.29 11.0359 6.07C11.9719 6.85 12.4399 7.924 12.4399 9.292C12.4399 10.264 12.1999 11.092 11.7199 11.776C11.2399 12.46 10.5559 12.958 9.66788 13.27L12.6559 17.5H10.6939ZM7.12988 12.136C8.26988 12.136 9.13988 11.89 9.73988 11.398C10.3399 10.906 10.6399 10.204 10.6399 9.292C10.6399 8.38 10.3399 7.684 9.73988 7.204C9.13988 6.712 8.26988 6.466 7.12988 6.466H4.06988V12.136H7.12988ZM19.182 17.608C18.234 17.608 17.382 17.398 16.626 16.978C15.87 16.558 15.276 15.982 14.844 15.25C14.424 14.506 14.214 13.666 14.214 12.73C14.214 11.794 14.424 10.96 14.844 10.228C15.276 9.484 15.87 8.908 16.626 8.5C17.382 8.08 18.234 7.87 19.182 7.87C20.13 7.87 20.976 8.08 21.72 8.5C22.476 8.908 23.064 9.484 23.484 10.228C23.916 10.96 24.132 11.794 24.132 12.73C24.132 13.666 23.916 14.506 23.484 15.25C23.064 15.982 22.476 16.558 21.72 16.978C20.976 17.398 20.13 17.608 19.182 17.608ZM19.182 16.096C19.794 16.096 20.34 15.958 20.82 15.682C21.312 15.394 21.696 14.998 21.972 14.494C22.248 13.978 22.386 13.39 22.386 12.73C22.386 12.07 22.248 11.488 21.972 10.984C21.696 10.468 21.312 10.072 20.82 9.796C20.34 9.52 19.794 9.382 19.182 9.382C18.57 9.382 18.018 9.52 17.526 9.796C17.046 10.072 16.662 10.468 16.374 10.984C16.098 11.488 15.96 12.07 15.96 12.73C15.96 13.39 16.098 13.978 16.374 14.494C16.662 14.998 17.046 15.394 17.526 15.682C18.018 15.958 18.57 16.096 19.182 16.096ZM35.4138 7.96V17.5H33.7758V16.06C33.4278 16.552 32.9658 16.936 32.3898 17.212C31.8258 17.476 31.2078 17.608 30.5358 17.608C29.2638 17.608 28.2618 17.26 27.5298 16.564C26.7978 15.856 26.4318 14.818 26.4318 13.45V7.96H28.1598V13.252C28.1598 14.176 28.3818 14.878 28.8258 15.358C29.2698 15.826 29.9058 16.06 30.7338 16.06C31.6458 16.06 32.3658 15.784 32.8938 15.232C33.4218 14.68 33.6858 13.9 33.6858 12.892V7.96H35.4138ZM43.7974 7.87C45.0094 7.87 45.9694 8.224 46.6774 8.932C47.3974 9.628 47.7574 10.654 47.7574 12.01V17.5H46.0294V12.208C46.0294 11.284 45.8074 10.588 45.3634 10.12C44.9194 9.652 44.2834 9.418 43.4554 9.418C42.5194 9.418 41.7814 9.694 41.2414 10.246C40.7014 10.786 40.4314 11.566 40.4314 12.586V17.5H38.7034V7.96H40.3594V9.4C40.7074 8.908 41.1754 8.53 41.7634 8.266C42.3634 8.002 43.0414 7.87 43.7974 7.87ZM60.0081 4.144V17.5H58.3521V15.988C57.9681 16.516 57.4821 16.918 56.8941 17.194C56.3061 17.47 55.6581 17.608 54.9501 17.608C54.0261 17.608 53.1981 17.404 52.4661 16.996C51.7341 16.588 51.1581 16.018 50.7381 15.286C50.3301 14.542 50.1261 13.69 50.1261 12.73C50.1261 11.77 50.3301 10.924 50.7381 10.192C51.1581 9.46 51.7341 8.89 52.4661 8.482C53.1981 8.074 54.0261 7.87 54.9501 7.87C55.6341 7.87 56.2641 8.002 56.8401 8.266C57.4161 8.518 57.8961 8.896 58.2801 9.4V4.144H60.0081ZM55.0941 16.096C55.6941 16.096 56.2401 15.958 56.7321 15.682C57.2241 15.394 57.6081 14.998 57.8841 14.494C58.1601 13.978 58.2981 13.39 58.2981 12.73C58.2981 12.07 58.1601 11.488 57.8841 10.984C57.6081 10.468 57.2241 10.072 56.7321 9.796C56.2401 9.52 55.6941 9.382 55.0941 9.382C54.4821 9.382 53.9301 9.52 53.4381 9.796C52.9581 10.072 52.5741 10.468 52.2861 10.984C52.0101 11.488 51.8721 12.07 51.8721 12.73C51.8721 13.39 52.0101 13.978 52.2861 14.494C52.5741 14.998 52.9581 15.394 53.4381 15.682C53.9301 15.958 54.4821 16.096 55.0941 16.096ZM71.2076 9.778C72.9836 9.778 74.2976 10.126 75.1496 10.822C76.0016 11.506 76.4276 12.442 76.4276 13.63C76.4276 14.386 76.2416 15.07 75.8696 15.682C75.4976 16.294 74.9396 16.78 74.1956 17.14C73.4516 17.5 72.5336 17.68 71.4416 17.68C70.5416 17.68 69.6716 17.554 68.8316 17.302C67.9916 17.038 67.2836 16.678 66.7076 16.222L67.6976 14.404C68.1656 14.788 68.7236 15.094 69.3716 15.322C70.0316 15.538 70.7096 15.646 71.4056 15.646C72.2336 15.646 72.8816 15.478 73.3496 15.142C73.8296 14.794 74.0696 14.32 74.0696 13.72C74.0696 13.072 73.8116 12.586 73.2956 12.262C72.7916 11.926 71.9216 11.758 70.6856 11.758H67.6436L68.2916 4.9H75.6896V6.862H70.2716L70.0016 9.778H71.2076ZM83.5014 9.724C84.3294 9.724 85.0734 9.886 85.7334 10.21C86.3934 10.522 86.9094 10.972 87.2814 11.56C87.6534 12.148 87.8394 12.826 87.8394 13.594C87.8394 14.41 87.6354 15.13 87.2274 15.754C86.8194 16.366 86.2674 16.84 85.5714 17.176C84.8754 17.512 84.0954 17.68 83.2314 17.68C81.5034 17.68 80.1594 17.14 79.1994 16.06C78.2514 14.98 77.7774 13.432 77.7774 11.416C77.7774 10 78.0354 8.794 78.5514 7.798C79.0674 6.79 79.7874 6.028 80.7114 5.512C81.6474 4.984 82.7274 4.72 83.9514 4.72C84.5994 4.72 85.2054 4.792 85.7694 4.936C86.3454 5.068 86.8434 5.266 87.2634 5.53L86.3994 7.294C85.7754 6.886 84.9774 6.682 84.0054 6.682C82.7934 6.682 81.8454 7.054 81.1614 7.798C80.4774 8.542 80.1354 9.616 80.1354 11.02V11.038C80.5074 10.606 80.9814 10.282 81.5574 10.066C82.1334 9.838 82.7814 9.724 83.5014 9.724ZM83.1054 15.844C83.8374 15.844 84.4314 15.652 84.8874 15.268C85.3434 14.872 85.5714 14.35 85.5714 13.702C85.5714 13.042 85.3434 12.52 84.8874 12.136C84.4314 11.752 83.8194 11.56 83.0514 11.56C82.2954 11.56 81.6774 11.764 81.1974 12.172C80.7294 12.58 80.4954 13.096 80.4954 13.72C80.4954 14.332 80.7234 14.842 81.1794 15.25C81.6474 15.646 82.2894 15.844 83.1054 15.844ZM98.4786 4.9V6.466L93.5826 17.5H91.0806L95.8146 6.88H90.8646V9.022H88.6866V4.9H98.4786ZM110.97 16.942C110.718 17.158 110.406 17.326 110.034 17.446C109.662 17.554 109.278 17.608 108.882 17.608C107.922 17.608 107.178 17.35 106.65 16.834C106.122 16.318 105.858 15.58 105.858 14.62V9.382H104.238V7.96H105.858V5.872H107.586V7.96H110.322V9.382H107.586V14.548C107.586 15.064 107.712 15.46 107.964 15.736C108.228 16.012 108.6 16.15 109.08 16.15C109.608 16.15 110.058 16 110.43 15.7L110.97 16.942ZM116.828 17.608C115.88 17.608 115.028 17.398 114.272 16.978C113.516 16.558 112.922 15.982 112.49 15.25C112.07 14.506 111.86 13.666 111.86 12.73C111.86 11.794 112.07 10.96 112.49 10.228C112.922 9.484 113.516 8.908 114.272 8.5C115.028 8.08 115.88 7.87 116.828 7.87C117.776 7.87 118.622 8.08 119.366 8.5C120.122 8.908 120.71 9.484 121.13 10.228C121.562 10.96 121.778 11.794 121.778 12.73C121.778 13.666 121.562 14.506 121.13 15.25C120.71 15.982 120.122 16.558 119.366 16.978C118.622 17.398 117.776 17.608 116.828 17.608ZM116.828 16.096C117.44 16.096 117.986 15.958 118.466 15.682C118.958 15.394 119.342 14.998 119.618 14.494C119.894 13.978 120.032 13.39 120.032 12.73C120.032 12.07 119.894 11.488 119.618 10.984C119.342 10.468 118.958 10.072 118.466 9.796C117.986 9.52 117.44 9.382 116.828 9.382C116.216 9.382 115.664 9.52 115.172 9.796C114.692 10.072 114.308 10.468 114.02 10.984C113.744 11.488 113.606 12.07 113.606 12.73C113.606 13.39 113.744 13.978 114.02 14.494C114.308 14.998 114.692 15.394 115.172 15.682C115.664 15.958 116.216 16.096 116.828 16.096ZM134.366 16.942C134.114 17.158 133.802 17.326 133.43 17.446C133.058 17.554 132.674 17.608 132.278 17.608C131.318 17.608 130.574 17.35 130.046 16.834C129.518 16.318 129.254 15.58 129.254 14.62V9.382H127.634V7.96H129.254V5.872H130.982V7.96H133.718V9.382H130.982V14.548C130.982 15.064 131.108 15.46 131.36 15.736C131.624 16.012 131.996 16.15 132.476 16.15C133.004 16.15 133.454 16 133.826 15.7L134.366 16.942ZM141.549 7.87C142.761 7.87 143.721 8.224 144.429 8.932C145.149 9.628 145.509 10.654 145.509 12.01V17.5H143.781V12.208C143.781 11.284 143.559 10.588 143.115 10.12C142.671 9.652 142.035 9.418 141.207 9.418C140.271 9.418 139.533 9.694 138.993 10.246C138.453 10.786 138.183 11.566 138.183 12.586V17.5H136.455V4.144H138.183V9.31C138.543 8.854 139.011 8.5 139.587 8.248C140.175 7.996 140.829 7.87 141.549 7.87ZM157.382 12.784C157.382 12.916 157.37 13.09 157.346 13.306H149.606C149.714 14.146 150.08 14.824 150.704 15.34C151.34 15.844 152.126 16.096 153.062 16.096C154.202 16.096 155.12 15.712 155.816 14.944L156.77 16.06C156.338 16.564 155.798 16.948 155.15 17.212C154.514 17.476 153.8 17.608 153.008 17.608C152 17.608 151.106 17.404 150.326 16.996C149.546 16.576 148.94 15.994 148.508 15.25C148.088 14.506 147.878 13.666 147.878 12.73C147.878 11.806 148.082 10.972 148.49 10.228C148.91 9.484 149.48 8.908 150.2 8.5C150.932 8.08 151.754 7.87 152.666 7.87C153.578 7.87 154.388 8.08 155.096 8.5C155.816 8.908 156.374 9.484 156.77 10.228C157.178 10.972 157.382 11.824 157.382 12.784ZM152.666 9.328C151.838 9.328 151.142 9.58 150.578 10.084C150.026 10.588 149.702 11.248 149.606 12.064H155.726C155.63 11.26 155.3 10.606 154.736 10.102C154.184 9.586 153.494 9.328 152.666 9.328ZM169.71 7.87C170.922 7.87 171.882 8.224 172.59 8.932C173.31 9.628 173.67 10.654 173.67 12.01V17.5H171.942V12.208C171.942 11.284 171.72 10.588 171.276 10.12C170.832 9.652 170.196 9.418 169.368 9.418C168.432 9.418 167.694 9.694 167.154 10.246C166.614 10.786 166.344 11.566 166.344 12.586V17.5H164.616V7.96H166.272V9.4C166.62 8.908 167.088 8.53 167.676 8.266C168.276 8.002 168.954 7.87 169.71 7.87ZM185.542 12.784C185.542 12.916 185.53 13.09 185.506 13.306H177.766C177.874 14.146 178.24 14.824 178.864 15.34C179.5 15.844 180.286 16.096 181.222 16.096C182.362 16.096 183.28 15.712 183.976 14.944L184.93 16.06C184.498 16.564 183.958 16.948 183.31 17.212C182.674 17.476 181.96 17.608 181.168 17.608C180.16 17.608 179.266 17.404 178.486 16.996C177.706 16.576 177.1 15.994 176.668 15.25C176.248 14.506 176.038 13.666 176.038 12.73C176.038 11.806 176.242 10.972 176.65 10.228C177.07 9.484 177.64 8.908 178.36 8.5C179.092 8.08 179.914 7.87 180.826 7.87C181.738 7.87 182.548 8.08 183.256 8.5C183.976 8.908 184.534 9.484 184.93 10.228C185.338 10.972 185.542 11.824 185.542 12.784ZM180.826 9.328C179.998 9.328 179.302 9.58 178.738 10.084C178.186 10.588 177.862 11.248 177.766 12.064H183.886C183.79 11.26 183.46 10.606 182.896 10.102C182.344 9.586 181.654 9.328 180.826 9.328ZM191.152 7.87C192.472 7.87 193.48 8.194 194.176 8.842C194.884 9.49 195.238 10.456 195.238 11.74V17.5H193.6V16.24C193.312 16.684 192.898 17.026 192.358 17.266C191.83 17.494 191.2 17.608 190.468 17.608C189.4 17.608 188.542 17.35 187.894 16.834C187.258 16.318 186.94 15.64 186.94 14.8C186.94 13.96 187.246 13.288 187.858 12.784C188.47 12.268 189.442 12.01 190.774 12.01H193.51V11.668C193.51 10.924 193.294 10.354 192.862 9.958C192.43 9.562 191.794 9.364 190.954 9.364C190.39 9.364 189.838 9.46 189.298 9.652C188.758 9.832 188.302 10.078 187.93 10.39L187.21 9.094C187.702 8.698 188.29 8.398 188.974 8.194C189.658 7.978 190.384 7.87 191.152 7.87ZM190.756 16.276C191.416 16.276 191.986 16.132 192.466 15.844C192.946 15.544 193.294 15.124 193.51 14.584V13.252H190.846C189.382 13.252 188.65 13.744 188.65 14.728C188.65 15.208 188.836 15.586 189.208 15.862C189.58 16.138 190.096 16.276 190.756 16.276ZM200.092 9.562C200.392 9.01 200.836 8.59 201.424 8.302C202.012 8.014 202.726 7.87 203.566 7.87V9.544C203.47 9.532 203.338 9.526 203.17 9.526C202.234 9.526 201.496 9.808 200.956 10.372C200.428 10.924 200.164 11.716 200.164 12.748V17.5H198.436V7.96H200.092V9.562ZM214.23 12.784C214.23 12.916 214.218 13.09 214.194 13.306H206.454C206.562 14.146 206.928 14.824 207.552 15.34C208.188 15.844 208.974 16.096 209.91 16.096C211.05 16.096 211.968 15.712 212.664 14.944L213.618 16.06C213.186 16.564 212.646 16.948 211.998 17.212C211.362 17.476 210.648 17.608 209.856 17.608C208.848 17.608 207.954 17.404 207.174 16.996C206.394 16.576 205.788 15.994 205.356 15.25C204.936 14.506 204.726 13.666 204.726 12.73C204.726 11.806 204.93 10.972 205.338 10.228C205.758 9.484 206.328 8.908 207.048 8.5C207.78 8.08 208.602 7.87 209.514 7.87C210.426 7.87 211.236 8.08 211.944 8.5C212.664 8.908 213.222 9.484 213.618 10.228C214.026 10.972 214.23 11.824 214.23 12.784ZM209.514 9.328C208.686 9.328 207.99 9.58 207.426 10.084C206.874 10.588 206.55 11.248 206.454 12.064H212.574C212.478 11.26 212.148 10.606 211.584 10.102C211.032 9.586 210.342 9.328 209.514 9.328ZM219.365 17.608C218.585 17.608 217.835 17.506 217.115 17.302C216.395 17.086 215.831 16.816 215.423 16.492L216.143 15.124C216.563 15.424 217.073 15.664 217.673 15.844C218.273 16.024 218.879 16.114 219.491 16.114C221.003 16.114 221.759 15.682 221.759 14.818C221.759 14.53 221.657 14.302 221.453 14.134C221.249 13.966 220.991 13.846 220.679 13.774C220.379 13.69 219.947 13.6 219.383 13.504C218.615 13.384 217.985 13.246 217.493 13.09C217.013 12.934 216.599 12.67 216.251 12.298C215.903 11.926 215.729 11.404 215.729 10.732C215.729 9.868 216.089 9.178 216.809 8.662C217.529 8.134 218.495 7.87 219.707 7.87C220.343 7.87 220.979 7.948 221.615 8.104C222.251 8.26 222.773 8.47 223.181 8.734L222.443 10.102C221.663 9.598 220.745 9.346 219.689 9.346C218.957 9.346 218.399 9.466 218.015 9.706C217.631 9.946 217.439 10.264 217.439 10.66C217.439 10.972 217.547 11.218 217.763 11.398C217.979 11.578 218.243 11.71 218.555 11.794C218.879 11.878 219.329 11.974 219.905 12.082C220.673 12.214 221.291 12.358 221.759 12.514C222.239 12.658 222.647 12.91 222.983 13.27C223.319 13.63 223.487 14.134 223.487 14.782C223.487 15.646 223.115 16.336 222.371 16.852C221.639 17.356 220.637 17.608 219.365 17.608ZM231.011 16.942C230.759 17.158 230.447 17.326 230.075 17.446C229.703 17.554 229.319 17.608 228.923 17.608C227.963 17.608 227.219 17.35 226.691 16.834C226.163 16.318 225.899 15.58 225.899 14.62V9.382H224.279V7.96H225.899V5.872H227.627V7.96H230.363V9.382H227.627V14.548C227.627 15.064 227.753 15.46 228.005 15.736C228.269 16.012 228.641 16.15 229.121 16.15C229.649 16.15 230.099 16 230.471 15.7L231.011 16.942Z" fill="#2F2F2F"/>
<path d="M243.838 17.032C243.562 17.236 243.22 17.392 242.812 17.5C242.416 17.596 241.996 17.644 241.552 17.644C240.4 17.644 239.506 17.35 238.87 16.762C238.246 16.174 237.934 15.31 237.934 14.17V10.192H236.44V8.032H237.934V5.674H240.742V8.032H243.154V10.192H240.742V14.134C240.742 14.542 240.844 14.86 241.048 15.088C241.264 15.304 241.564 15.412 241.948 15.412C242.392 15.412 242.77 15.292 243.082 15.052L243.838 17.032ZM254.601 12.694C254.601 12.73 254.583 12.982 254.547 13.45H247.221C247.353 14.05 247.665 14.524 248.157 14.872C248.649 15.22 249.261 15.394 249.993 15.394C250.497 15.394 250.941 15.322 251.325 15.178C251.721 15.022 252.087 14.782 252.423 14.458L253.917 16.078C253.005 17.122 251.673 17.644 249.921 17.644C248.829 17.644 247.863 17.434 247.023 17.014C246.183 16.582 245.535 15.988 245.079 15.232C244.623 14.476 244.395 13.618 244.395 12.658C244.395 11.71 244.617 10.858 245.061 10.102C245.517 9.334 246.135 8.74 246.915 8.32C247.707 7.888 248.589 7.672 249.561 7.672C250.509 7.672 251.367 7.876 252.135 8.284C252.903 8.692 253.503 9.28 253.935 10.048C254.379 10.804 254.601 11.686 254.601 12.694ZM249.579 9.796C248.943 9.796 248.409 9.976 247.977 10.336C247.545 10.696 247.281 11.188 247.185 11.812H251.955C251.859 11.2 251.595 10.714 251.163 10.354C250.731 9.982 250.203 9.796 249.579 9.796ZM262.357 7.672C263.557 7.672 264.523 8.032 265.255 8.752C265.999 9.472 266.371 10.54 266.371 11.956V17.5H263.563V12.388C263.563 11.62 263.395 11.05 263.059 10.678C262.723 10.294 262.237 10.102 261.601 10.102C260.893 10.102 260.329 10.324 259.909 10.768C259.489 11.2 259.279 11.848 259.279 12.712V17.5H256.471V7.816H259.153V8.95C259.525 8.542 259.987 8.23 260.539 8.014C261.091 7.786 261.697 7.672 262.357 7.672Z" fill="black"/>
<path d="M236.296 19.3H267.613V20.2H236.296V19.3Z" fill="black"/>
<path d="M275.513 10.336C275.177 10.336 274.889 10.222 274.649 9.994C274.409 9.754 274.289 9.454 274.289 9.094C274.289 8.746 274.409 8.458 274.649 8.23C274.889 7.99 275.177 7.87 275.513 7.87C275.849 7.87 276.131 7.984 276.359 8.212C276.587 8.44 276.701 8.734 276.701 9.094C276.701 9.454 276.581 9.754 276.341 9.994C276.113 10.222 275.837 10.336 275.513 10.336ZM275.513 17.608C275.177 17.608 274.889 17.494 274.649 17.266C274.409 17.026 274.289 16.726 274.289 16.366C274.289 16.018 274.409 15.73 274.649 15.502C274.889 15.262 275.177 15.142 275.513 15.142C275.849 15.142 276.131 15.256 276.359 15.484C276.587 15.712 276.701 16.006 276.701 16.366C276.701 16.726 276.581 17.026 276.341 17.266C276.113 17.494 275.837 17.608 275.513 17.608Z" fill="#2F2F2F"/>
</svg>
