<svg width="327" height="23" viewBox="0 0 327 23" fill="none" xmlns="http://www.w3.org/2000/svg">
<path d="M10.4878 17.5L7.76983 13.63C7.43383 13.654 7.16983 13.666 6.97783 13.666H3.86383V17.5H2.06383V4.9H6.97783C8.60983 4.9 9.89383 5.29 10.8298 6.07C11.7658 6.85 12.2338 7.924 12.2338 9.292C12.2338 10.264 11.9938 11.092 11.5138 11.776C11.0338 12.46 10.3498 12.958 9.46183 13.27L12.4498 17.5H10.4878ZM6.92383 12.136C8.06383 12.136 8.93383 11.89 9.53383 11.398C10.1338 10.906 10.4338 10.204 10.4338 9.292C10.4338 8.38 10.1338 7.684 9.53383 7.204C8.93383 6.712 8.06383 6.466 6.92383 6.466H3.86383V12.136H6.92383ZM18.976 17.608C18.028 17.608 17.176 17.398 16.42 16.978C15.664 16.558 15.07 15.982 14.638 15.25C14.218 14.506 14.008 13.666 14.008 12.73C14.008 11.794 14.218 10.96 14.638 10.228C15.07 9.484 15.664 8.908 16.42 8.5C17.176 8.08 18.028 7.87 18.976 7.87C19.924 7.87 20.77 8.08 21.514 8.5C22.27 8.908 22.858 9.484 23.278 10.228C23.71 10.96 23.926 11.794 23.926 12.73C23.926 13.666 23.71 14.506 23.278 15.25C22.858 15.982 22.27 16.558 21.514 16.978C20.77 17.398 19.924 17.608 18.976 17.608ZM18.976 16.096C19.588 16.096 20.134 15.958 20.614 15.682C21.106 15.394 21.49 14.998 21.766 14.494C22.042 13.978 22.18 13.39 22.18 12.73C22.18 12.07 22.042 11.488 21.766 10.984C21.49 10.468 21.106 10.072 20.614 9.796C20.134 9.52 19.588 9.382 18.976 9.382C18.364 9.382 17.812 9.52 17.32 9.796C16.84 10.072 16.456 10.468 16.168 10.984C15.892 11.488 15.754 12.07 15.754 12.73C15.754 13.39 15.892 13.978 16.168 14.494C16.456 14.998 16.84 15.394 17.32 15.682C17.812 15.958 18.364 16.096 18.976 16.096ZM35.2077 7.96V17.5H33.5697V16.06C33.2217 16.552 32.7597 16.936 32.1837 17.212C31.6197 17.476 31.0017 17.608 30.3297 17.608C29.0577 17.608 28.0557 17.26 27.3237 16.564C26.5917 15.856 26.2257 14.818 26.2257 13.45V7.96H27.9537V13.252C27.9537 14.176 28.1757 14.878 28.6197 15.358C29.0637 15.826 29.6997 16.06 30.5277 16.06C31.4397 16.06 32.1597 15.784 32.6877 15.232C33.2157 14.68 33.4797 13.9 33.4797 12.892V7.96H35.2077ZM43.5914 7.87C44.8034 7.87 45.7634 8.224 46.4714 8.932C47.1914 9.628 47.5514 10.654 47.5514 12.01V17.5H45.8234V12.208C45.8234 11.284 45.6014 10.588 45.1574 10.12C44.7134 9.652 44.0774 9.418 43.2494 9.418C42.3134 9.418 41.5754 9.694 41.0354 10.246C40.4954 10.786 40.2254 11.566 40.2254 12.586V17.5H38.4974V7.96H40.1534V9.4C40.5014 8.908 40.9694 8.53 41.5574 8.266C42.1574 8.002 42.8354 7.87 43.5914 7.87ZM59.8021 4.144V17.5H58.1461V15.988C57.7621 16.516 57.2761 16.918 56.6881 17.194C56.1001 17.47 55.4521 17.608 54.7441 17.608C53.8201 17.608 52.9921 17.404 52.2601 16.996C51.5281 16.588 50.9521 16.018 50.5321 15.286C50.1241 14.542 49.9201 13.69 49.9201 12.73C49.9201 11.77 50.1241 10.924 50.5321 10.192C50.9521 9.46 51.5281 8.89 52.2601 8.482C52.9921 8.074 53.8201 7.87 54.7441 7.87C55.4281 7.87 56.0581 8.002 56.6341 8.266C57.2101 8.518 57.6901 8.896 58.0741 9.4V4.144H59.8021ZM54.8881 16.096C55.4881 16.096 56.0341 15.958 56.5261 15.682C57.0181 15.394 57.4021 14.998 57.6781 14.494C57.9541 13.978 58.0921 13.39 58.0921 12.73C58.0921 12.07 57.9541 11.488 57.6781 10.984C57.4021 10.468 57.0181 10.072 56.5261 9.796C56.0341 9.52 55.4881 9.382 54.8881 9.382C54.2761 9.382 53.7241 9.52 53.2321 9.796C52.7521 10.072 52.3681 10.468 52.0801 10.984C51.8041 11.488 51.6661 12.07 51.6661 12.73C51.6661 13.39 51.8041 13.978 52.0801 14.494C52.3681 14.998 52.7521 15.394 53.2321 15.682C53.7241 15.958 54.2761 16.096 54.8881 16.096ZM71.0016 9.778C72.7776 9.778 74.0916 10.126 74.9436 10.822C75.7956 11.506 76.2216 12.442 76.2216 13.63C76.2216 14.386 76.0356 15.07 75.6636 15.682C75.2916 16.294 74.7336 16.78 73.9896 17.14C73.2456 17.5 72.3276 17.68 71.2356 17.68C70.3356 17.68 69.4656 17.554 68.6256 17.302C67.7856 17.038 67.0776 16.678 66.5016 16.222L67.4916 14.404C67.9596 14.788 68.5176 15.094 69.1656 15.322C69.8256 15.538 70.5036 15.646 71.1996 15.646C72.0276 15.646 72.6756 15.478 73.1436 15.142C73.6236 14.794 73.8636 14.32 73.8636 13.72C73.8636 13.072 73.6056 12.586 73.0896 12.262C72.5856 11.926 71.7156 11.758 70.4796 11.758H67.4376L68.0856 4.9H75.4836V6.862H70.0656L69.7956 9.778H71.0016ZM86.8468 4.9V6.466L81.9508 17.5H79.4488L84.1828 6.88H79.2328V9.022H77.0548V4.9H86.8468ZM93.6664 9.724C94.4944 9.724 95.2384 9.886 95.8984 10.21C96.5584 10.522 97.0744 10.972 97.4464 11.56C97.8184 12.148 98.0044 12.826 98.0044 13.594C98.0044 14.41 97.8004 15.13 97.3924 15.754C96.9844 16.366 96.4324 16.84 95.7364 17.176C95.0404 17.512 94.2604 17.68 93.3964 17.68C91.6684 17.68 90.3244 17.14 89.3644 16.06C88.4164 14.98 87.9424 13.432 87.9424 11.416C87.9424 10 88.2004 8.794 88.7164 7.798C89.2324 6.79 89.9524 6.028 90.8764 5.512C91.8124 4.984 92.8924 4.72 94.1164 4.72C94.7644 4.72 95.3704 4.792 95.9344 4.936C96.5104 5.068 97.0084 5.266 97.4284 5.53L96.5644 7.294C95.9404 6.886 95.1424 6.682 94.1704 6.682C92.9584 6.682 92.0104 7.054 91.3264 7.798C90.6424 8.542 90.3004 9.616 90.3004 11.02V11.038C90.6724 10.606 91.1464 10.282 91.7224 10.066C92.2984 9.838 92.9464 9.724 93.6664 9.724ZM93.2704 15.844C94.0024 15.844 94.5964 15.652 95.0524 15.268C95.5084 14.872 95.7364 14.35 95.7364 13.702C95.7364 13.042 95.5084 12.52 95.0524 12.136C94.5964 11.752 93.9844 11.56 93.2164 11.56C92.4604 11.56 91.8424 11.764 91.3624 12.172C90.8944 12.58 90.6604 13.096 90.6604 13.72C90.6604 14.332 90.8884 14.842 91.3444 15.25C91.8124 15.646 92.4544 15.844 93.2704 15.844ZM110.272 16.942C110.02 17.158 109.708 17.326 109.336 17.446C108.964 17.554 108.58 17.608 108.184 17.608C107.224 17.608 106.48 17.35 105.952 16.834C105.424 16.318 105.16 15.58 105.16 14.62V9.382H103.54V7.96H105.16V5.872H106.888V7.96H109.624V9.382H106.888V14.548C106.888 15.064 107.014 15.46 107.266 15.736C107.53 16.012 107.902 16.15 108.382 16.15C108.91 16.15 109.36 16 109.732 15.7L110.272 16.942ZM116.13 17.608C115.182 17.608 114.33 17.398 113.574 16.978C112.818 16.558 112.224 15.982 111.792 15.25C111.372 14.506 111.162 13.666 111.162 12.73C111.162 11.794 111.372 10.96 111.792 10.228C112.224 9.484 112.818 8.908 113.574 8.5C114.33 8.08 115.182 7.87 116.13 7.87C117.078 7.87 117.924 8.08 118.668 8.5C119.424 8.908 120.012 9.484 120.432 10.228C120.864 10.96 121.08 11.794 121.08 12.73C121.08 13.666 120.864 14.506 120.432 15.25C120.012 15.982 119.424 16.558 118.668 16.978C117.924 17.398 117.078 17.608 116.13 17.608ZM116.13 16.096C116.742 16.096 117.288 15.958 117.768 15.682C118.26 15.394 118.644 14.998 118.92 14.494C119.196 13.978 119.334 13.39 119.334 12.73C119.334 12.07 119.196 11.488 118.92 10.984C118.644 10.468 118.26 10.072 117.768 9.796C117.288 9.52 116.742 9.382 116.13 9.382C115.518 9.382 114.966 9.52 114.474 9.796C113.994 10.072 113.61 10.468 113.322 10.984C113.046 11.488 112.908 12.07 112.908 12.73C112.908 13.39 113.046 13.978 113.322 14.494C113.61 14.998 113.994 15.394 114.474 15.682C114.966 15.958 115.518 16.096 116.13 16.096ZM133.668 16.942C133.416 17.158 133.104 17.326 132.732 17.446C132.36 17.554 131.976 17.608 131.58 17.608C130.62 17.608 129.876 17.35 129.348 16.834C128.82 16.318 128.556 15.58 128.556 14.62V9.382H126.936V7.96H128.556V5.872H130.284V7.96H133.02V9.382H130.284V14.548C130.284 15.064 130.41 15.46 130.662 15.736C130.926 16.012 131.298 16.15 131.778 16.15C132.306 16.15 132.756 16 133.128 15.7L133.668 16.942ZM140.851 7.87C142.063 7.87 143.023 8.224 143.731 8.932C144.451 9.628 144.811 10.654 144.811 12.01V17.5H143.083V12.208C143.083 11.284 142.861 10.588 142.417 10.12C141.973 9.652 141.337 9.418 140.509 9.418C139.573 9.418 138.835 9.694 138.295 10.246C137.755 10.786 137.485 11.566 137.485 12.586V17.5H135.757V4.144H137.485V9.31C137.845 8.854 138.313 8.5 138.889 8.248C139.477 7.996 140.131 7.87 140.851 7.87ZM156.684 12.784C156.684 12.916 156.672 13.09 156.648 13.306H148.908C149.016 14.146 149.382 14.824 150.006 15.34C150.642 15.844 151.428 16.096 152.364 16.096C153.504 16.096 154.422 15.712 155.118 14.944L156.072 16.06C155.64 16.564 155.1 16.948 154.452 17.212C153.816 17.476 153.102 17.608 152.31 17.608C151.302 17.608 150.408 17.404 149.628 16.996C148.848 16.576 148.242 15.994 147.81 15.25C147.39 14.506 147.18 13.666 147.18 12.73C147.18 11.806 147.384 10.972 147.792 10.228C148.212 9.484 148.782 8.908 149.502 8.5C150.234 8.08 151.056 7.87 151.968 7.87C152.88 7.87 153.69 8.08 154.398 8.5C155.118 8.908 155.676 9.484 156.072 10.228C156.48 10.972 156.684 11.824 156.684 12.784ZM151.968 9.328C151.14 9.328 150.444 9.58 149.88 10.084C149.328 10.588 149.004 11.248 148.908 12.064H155.028C154.932 11.26 154.602 10.606 154.038 10.102C153.486 9.586 152.796 9.328 151.968 9.328ZM169.011 7.87C170.223 7.87 171.183 8.224 171.891 8.932C172.611 9.628 172.971 10.654 172.971 12.01V17.5H171.243V12.208C171.243 11.284 171.021 10.588 170.577 10.12C170.133 9.652 169.497 9.418 168.669 9.418C167.733 9.418 166.995 9.694 166.455 10.246C165.915 10.786 165.645 11.566 165.645 12.586V17.5H163.917V7.96H165.573V9.4C165.921 8.908 166.389 8.53 166.977 8.266C167.577 8.002 168.255 7.87 169.011 7.87ZM184.844 12.784C184.844 12.916 184.832 13.09 184.808 13.306H177.068C177.176 14.146 177.542 14.824 178.166 15.34C178.802 15.844 179.588 16.096 180.524 16.096C181.664 16.096 182.582 15.712 183.278 14.944L184.232 16.06C183.8 16.564 183.26 16.948 182.612 17.212C181.976 17.476 181.262 17.608 180.47 17.608C179.462 17.608 178.568 17.404 177.788 16.996C177.008 16.576 176.402 15.994 175.97 15.25C175.55 14.506 175.34 13.666 175.34 12.73C175.34 11.806 175.544 10.972 175.952 10.228C176.372 9.484 176.942 8.908 177.662 8.5C178.394 8.08 179.216 7.87 180.128 7.87C181.04 7.87 181.85 8.08 182.558 8.5C183.278 8.908 183.836 9.484 184.232 10.228C184.64 10.972 184.844 11.824 184.844 12.784ZM180.128 9.328C179.3 9.328 178.604 9.58 178.04 10.084C177.488 10.588 177.164 11.248 177.068 12.064H183.188C183.092 11.26 182.762 10.606 182.198 10.102C181.646 9.586 180.956 9.328 180.128 9.328ZM190.454 7.87C191.774 7.87 192.782 8.194 193.478 8.842C194.186 9.49 194.54 10.456 194.54 11.74V17.5H192.902V16.24C192.614 16.684 192.2 17.026 191.66 17.266C191.132 17.494 190.502 17.608 189.77 17.608C188.702 17.608 187.844 17.35 187.196 16.834C186.56 16.318 186.242 15.64 186.242 14.8C186.242 13.96 186.548 13.288 187.16 12.784C187.772 12.268 188.744 12.01 190.076 12.01H192.812V11.668C192.812 10.924 192.596 10.354 192.164 9.958C191.732 9.562 191.096 9.364 190.256 9.364C189.692 9.364 189.14 9.46 188.6 9.652C188.06 9.832 187.604 10.078 187.232 10.39L186.512 9.094C187.004 8.698 187.592 8.398 188.276 8.194C188.96 7.978 189.686 7.87 190.454 7.87ZM190.058 16.276C190.718 16.276 191.288 16.132 191.768 15.844C192.248 15.544 192.596 15.124 192.812 14.584V13.252H190.148C188.684 13.252 187.952 13.744 187.952 14.728C187.952 15.208 188.138 15.586 188.51 15.862C188.882 16.138 189.398 16.276 190.058 16.276ZM199.394 9.562C199.694 9.01 200.138 8.59 200.726 8.302C201.314 8.014 202.028 7.87 202.868 7.87V9.544C202.772 9.532 202.64 9.526 202.472 9.526C201.536 9.526 200.798 9.808 200.258 10.372C199.73 10.924 199.466 11.716 199.466 12.748V17.5H197.738V7.96H199.394V9.562ZM213.531 12.784C213.531 12.916 213.519 13.09 213.495 13.306H205.755C205.863 14.146 206.229 14.824 206.853 15.34C207.489 15.844 208.275 16.096 209.211 16.096C210.351 16.096 211.269 15.712 211.965 14.944L212.919 16.06C212.487 16.564 211.947 16.948 211.299 17.212C210.663 17.476 209.949 17.608 209.157 17.608C208.149 17.608 207.255 17.404 206.475 16.996C205.695 16.576 205.089 15.994 204.657 15.25C204.237 14.506 204.027 13.666 204.027 12.73C204.027 11.806 204.231 10.972 204.639 10.228C205.059 9.484 205.629 8.908 206.349 8.5C207.081 8.08 207.903 7.87 208.815 7.87C209.727 7.87 210.537 8.08 211.245 8.5C211.965 8.908 212.523 9.484 212.919 10.228C213.327 10.972 213.531 11.824 213.531 12.784ZM208.815 9.328C207.987 9.328 207.291 9.58 206.727 10.084C206.175 10.588 205.851 11.248 205.755 12.064H211.875C211.779 11.26 211.449 10.606 210.885 10.102C210.333 9.586 209.643 9.328 208.815 9.328ZM218.667 17.608C217.887 17.608 217.137 17.506 216.417 17.302C215.697 17.086 215.133 16.816 214.725 16.492L215.445 15.124C215.865 15.424 216.375 15.664 216.975 15.844C217.575 16.024 218.181 16.114 218.793 16.114C220.305 16.114 221.061 15.682 221.061 14.818C221.061 14.53 220.959 14.302 220.755 14.134C220.551 13.966 220.293 13.846 219.981 13.774C219.681 13.69 219.249 13.6 218.685 13.504C217.917 13.384 217.287 13.246 216.795 13.09C216.315 12.934 215.901 12.67 215.553 12.298C215.205 11.926 215.031 11.404 215.031 10.732C215.031 9.868 215.391 9.178 216.111 8.662C216.831 8.134 217.797 7.87 219.009 7.87C219.645 7.87 220.281 7.948 220.917 8.104C221.553 8.26 222.075 8.47 222.483 8.734L221.745 10.102C220.965 9.598 220.047 9.346 218.991 9.346C218.259 9.346 217.701 9.466 217.317 9.706C216.933 9.946 216.741 10.264 216.741 10.66C216.741 10.972 216.849 11.218 217.065 11.398C217.281 11.578 217.545 11.71 217.857 11.794C218.181 11.878 218.631 11.974 219.207 12.082C219.975 12.214 220.593 12.358 221.061 12.514C221.541 12.658 221.949 12.91 222.285 13.27C222.621 13.63 222.789 14.134 222.789 14.782C222.789 15.646 222.417 16.336 221.673 16.852C220.941 17.356 219.939 17.608 218.667 17.608ZM230.313 16.942C230.061 17.158 229.749 17.326 229.377 17.446C229.005 17.554 228.621 17.608 228.225 17.608C227.265 17.608 226.521 17.35 225.993 16.834C225.465 16.318 225.201 15.58 225.201 14.62V9.382H223.581V7.96H225.201V5.872H226.929V7.96H229.665V9.382H226.929V14.548C226.929 15.064 227.055 15.46 227.307 15.736C227.571 16.012 227.943 16.15 228.423 16.15C228.951 16.15 229.401 16 229.773 15.7L230.313 16.942ZM242.78 7.672C243.98 7.672 244.946 8.032 245.678 8.752C246.422 9.472 246.794 10.54 246.794 11.956V17.5H243.986V12.388C243.986 11.62 243.818 11.05 243.482 10.678C243.146 10.294 242.66 10.102 242.024 10.102C241.316 10.102 240.752 10.324 240.332 10.768C239.912 11.2 239.702 11.848 239.702 12.712V17.5H236.894V4.144H239.702V8.824C240.074 8.452 240.524 8.17 241.052 7.978C241.58 7.774 242.156 7.672 242.78 7.672ZM259.095 7.816V17.5H256.431V16.348C256.059 16.768 255.615 17.092 255.099 17.32C254.583 17.536 254.025 17.644 253.425 17.644C252.153 17.644 251.145 17.278 250.401 16.546C249.657 15.814 249.285 14.728 249.285 13.288V7.816H252.093V12.874C252.093 14.434 252.747 15.214 254.055 15.214C254.727 15.214 255.267 14.998 255.675 14.566C256.083 14.122 256.287 13.468 256.287 12.604V7.816H259.095ZM267.582 7.672C268.782 7.672 269.748 8.032 270.48 8.752C271.224 9.472 271.596 10.54 271.596 11.956V17.5H268.788V12.388C268.788 11.62 268.62 11.05 268.284 10.678C267.948 10.294 267.462 10.102 266.826 10.102C266.118 10.102 265.554 10.324 265.134 10.768C264.714 11.2 264.504 11.848 264.504 12.712V17.5H261.696V7.816H264.378V8.95C264.75 8.542 265.212 8.23 265.764 8.014C266.316 7.786 266.922 7.672 267.582 7.672ZM284.111 4.144V17.5H281.429V16.384C280.733 17.224 279.725 17.644 278.405 17.644C277.493 17.644 276.665 17.44 275.921 17.032C275.189 16.624 274.613 16.042 274.193 15.286C273.773 14.53 273.563 13.654 273.563 12.658C273.563 11.662 273.773 10.786 274.193 10.03C274.613 9.274 275.189 8.692 275.921 8.284C276.665 7.876 277.493 7.672 278.405 7.672C279.641 7.672 280.607 8.062 281.303 8.842V4.144H284.111ZM278.891 15.34C279.599 15.34 280.187 15.1 280.655 14.62C281.123 14.128 281.357 13.474 281.357 12.658C281.357 11.842 281.123 11.194 280.655 10.714C280.187 10.222 279.599 9.976 278.891 9.976C278.171 9.976 277.577 10.222 277.109 10.714C276.641 11.194 276.407 11.842 276.407 12.658C276.407 13.474 276.641 14.128 277.109 14.62C277.577 15.1 278.171 15.34 278.891 15.34ZM289.392 9.094C289.728 8.626 290.178 8.272 290.742 8.032C291.318 7.792 291.978 7.672 292.722 7.672V10.264C292.41 10.24 292.2 10.228 292.092 10.228C291.288 10.228 290.658 10.456 290.202 10.912C289.746 11.356 289.518 12.028 289.518 12.928V17.5H286.71V7.816H289.392V9.094ZM303.79 12.694C303.79 12.73 303.772 12.982 303.736 13.45H296.41C296.542 14.05 296.854 14.524 297.346 14.872C297.838 15.22 298.45 15.394 299.182 15.394C299.686 15.394 300.13 15.322 300.514 15.178C300.91 15.022 301.276 14.782 301.612 14.458L303.106 16.078C302.194 17.122 300.862 17.644 299.11 17.644C298.018 17.644 297.052 17.434 296.212 17.014C295.372 16.582 294.724 15.988 294.268 15.232C293.812 14.476 293.584 13.618 293.584 12.658C293.584 11.71 293.806 10.858 294.25 10.102C294.706 9.334 295.324 8.74 296.104 8.32C296.896 7.888 297.778 7.672 298.75 7.672C299.698 7.672 300.556 7.876 301.324 8.284C302.092 8.692 302.692 9.28 303.124 10.048C303.568 10.804 303.79 11.686 303.79 12.694ZM298.768 9.796C298.132 9.796 297.598 9.976 297.166 10.336C296.734 10.696 296.47 11.188 296.374 11.812H301.144C301.048 11.2 300.784 10.714 300.352 10.354C299.92 9.982 299.392 9.796 298.768 9.796ZM315.523 4.144V17.5H312.841V16.384C312.145 17.224 311.137 17.644 309.817 17.644C308.905 17.644 308.077 17.44 307.333 17.032C306.601 16.624 306.025 16.042 305.605 15.286C305.185 14.53 304.975 13.654 304.975 12.658C304.975 11.662 305.185 10.786 305.605 10.03C306.025 9.274 306.601 8.692 307.333 8.284C308.077 7.876 308.905 7.672 309.817 7.672C311.053 7.672 312.019 8.062 312.715 8.842V4.144H315.523ZM310.303 15.34C311.011 15.34 311.599 15.1 312.067 14.62C312.535 14.128 312.769 13.474 312.769 12.658C312.769 11.842 312.535 11.194 312.067 10.714C311.599 10.222 311.011 9.976 310.303 9.976C309.583 9.976 308.989 10.222 308.521 10.714C308.053 11.194 307.819 11.842 307.819 12.658C307.819 13.474 308.053 14.128 308.521 14.62C308.989 15.1 309.583 15.34 310.303 15.34Z" fill="#2F2F2F"/>
<path d="M235.598 19.3H316.819V20.2H235.598V19.3Z" fill="#2F2F2F"/>
<path d="M324.513 10.336C324.177 10.336 323.889 10.222 323.649 9.994C323.409 9.754 323.289 9.454 323.289 9.094C323.289 8.746 323.409 8.458 323.649 8.23C323.889 7.99 324.177 7.87 324.513 7.87C324.849 7.87 325.131 7.984 325.359 8.212C325.587 8.44 325.701 8.734 325.701 9.094C325.701 9.454 325.581 9.754 325.341 9.994C325.113 10.222 324.837 10.336 324.513 10.336ZM324.513 17.608C324.177 17.608 323.889 17.494 323.649 17.266C323.409 17.026 323.289 16.726 323.289 16.366C323.289 16.018 323.409 15.73 323.649 15.502C323.889 15.262 324.177 15.142 324.513 15.142C324.849 15.142 325.131 15.256 325.359 15.484C325.587 15.712 325.701 16.006 325.701 16.366C325.701 16.726 325.581 17.026 325.341 17.266C325.113 17.494 324.837 17.608 324.513 17.608Z" fill="#2F2F2F"/>
</svg>
