<svg width="70" height="45" viewBox="0 0 70 45" fill="none" xmlns="http://www.w3.org/2000/svg">
<path d="M0 5C0 2.23858 2.23858 0 5 0H65C67.7614 0 70 2.23858 70 5V40C70 42.7614 67.7614 45 65 45H5C2.23858 45 0 42.7614 0 40V5Z" fill="#369CB7"/>
<path d="M23.7395 20.85C24.5675 20.85 25.3055 21.006 25.9535 21.318C26.6135 21.63 27.1295 22.08 27.5015 22.668C27.8735 23.244 28.0595 23.91 28.0595 24.666C28.0595 25.458 27.8615 26.154 27.4655 26.754C27.0815 27.354 26.5475 27.822 25.8635 28.158C25.1915 28.482 24.4355 28.644 23.5955 28.644C21.9035 28.644 20.5955 28.098 19.6715 27.006C18.7595 25.914 18.3035 24.366 18.3035 22.362C18.3035 20.958 18.5495 19.764 19.0415 18.78C19.5455 17.784 20.2415 17.034 21.1295 16.53C22.0295 16.014 23.0735 15.756 24.2615 15.756C24.8735 15.756 25.4495 15.822 25.9895 15.954C26.5295 16.074 26.9975 16.254 27.3935 16.494L26.7095 17.898C26.1095 17.502 25.3055 17.304 24.2975 17.304C22.9895 17.304 21.9635 17.712 21.2195 18.528C20.4755 19.332 20.1035 20.508 20.1035 22.056C20.1035 22.248 20.1095 22.398 20.1215 22.506C20.4815 21.966 20.9735 21.558 21.5975 21.282C22.2335 20.994 22.9475 20.85 23.7395 20.85ZM23.5235 27.186C24.3515 27.186 25.0235 26.964 25.5395 26.52C26.0555 26.076 26.3135 25.482 26.3135 24.738C26.3135 23.994 26.0495 23.406 25.5215 22.974C25.0055 22.53 24.3095 22.308 23.4335 22.308C22.8695 22.308 22.3655 22.416 21.9215 22.632C21.4895 22.848 21.1475 23.142 20.8955 23.514C20.6555 23.886 20.5355 24.3 20.5355 24.756C20.5355 25.2 20.6495 25.608 20.8775 25.98C21.1175 26.34 21.4595 26.634 21.9035 26.862C22.3595 27.078 22.8995 27.186 23.5235 27.186ZM34.5608 28.644C33.5648 28.644 32.6768 28.392 31.8968 27.888C31.1288 27.372 30.5228 26.628 30.0788 25.656C29.6348 24.684 29.4128 23.532 29.4128 22.2C29.4128 20.868 29.6348 19.716 30.0788 18.744C30.5228 17.772 31.1288 17.034 31.8968 16.53C32.6768 16.014 33.5648 15.756 34.5608 15.756C35.5448 15.756 36.4208 16.014 37.1888 16.53C37.9688 17.034 38.5808 17.772 39.0248 18.744C39.4688 19.716 39.6908 20.868 39.6908 22.2C39.6908 23.532 39.4688 24.684 39.0248 25.656C38.5808 26.628 37.9688 27.372 37.1888 27.888C36.4208 28.392 35.5448 28.644 34.5608 28.644ZM34.5608 27.042C35.5688 27.042 36.3728 26.628 36.9728 25.8C37.5848 24.972 37.8908 23.772 37.8908 22.2C37.8908 20.628 37.5848 19.428 36.9728 18.6C36.3728 17.772 35.5688 17.358 34.5608 17.358C33.5408 17.358 32.7248 17.772 32.1128 18.6C31.5128 19.428 31.2128 20.628 31.2128 22.2C31.2128 23.772 31.5128 24.972 32.1128 25.8C32.7248 26.628 33.5408 27.042 34.5608 27.042ZM46.5667 28.644C45.5707 28.644 44.6827 28.392 43.9027 27.888C43.1347 27.372 42.5287 26.628 42.0847 25.656C41.6407 24.684 41.4187 23.532 41.4187 22.2C41.4187 20.868 41.6407 19.716 42.0847 18.744C42.5287 17.772 43.1347 17.034 43.9027 16.53C44.6827 16.014 45.5707 15.756 46.5667 15.756C47.5507 15.756 48.4267 16.014 49.1947 16.53C49.9747 17.034 50.5867 17.772 51.0307 18.744C51.4747 19.716 51.6967 20.868 51.6967 22.2C51.6967 23.532 51.4747 24.684 51.0307 25.656C50.5867 26.628 49.9747 27.372 49.1947 27.888C48.4267 28.392 47.5507 28.644 46.5667 28.644ZM46.5667 27.042C47.5747 27.042 48.3787 26.628 48.9787 25.8C49.5907 24.972 49.8967 23.772 49.8967 22.2C49.8967 20.628 49.5907 19.428 48.9787 18.6C48.3787 17.772 47.5747 17.358 46.5667 17.358C45.5467 17.358 44.7307 17.772 44.1187 18.6C43.5187 19.428 43.2187 20.628 43.2187 22.2C43.2187 23.772 43.5187 24.972 44.1187 25.8C44.7307 26.628 45.5467 27.042 46.5667 27.042Z" fill="white"/>
<path d="M5 1H65V-1H5V1ZM69 5V40H71V5H69ZM65 44H5V46H65V44ZM1 40V5H-1V40H1ZM5 44C2.79086 44 1 42.2091 1 40H-1C-1 43.3137 1.68629 46 5 46V44ZM69 40C69 42.2091 67.2091 44 65 44V46C68.3137 46 71 43.3137 71 40H69ZM65 1C67.2091 1 69 2.79086 69 5H71C71 1.68629 68.3137 -1 65 -1V1ZM5 -1C1.68629 -1 -1 1.68629 -1 5H1C1 2.79086 2.79086 1 5 1V-1Z" fill="#369CB7"/>
</svg>
