<svg width="70" height="45" viewBox="0 0 70 45" fill="none" xmlns="http://www.w3.org/2000/svg">
<path d="M0 5C0 2.23858 2.23858 0 5 0H65C67.7614 0 70 2.23858 70 5V40C70 42.7614 67.7614 45 65 45H5C2.23858 45 0 42.7614 0 40V5Z" fill="#369CB7"/>
<path d="M22.5011 20.922C24.3011 20.922 25.6211 21.264 26.4611 21.948C27.3131 22.62 27.7391 23.544 27.7391 24.72C27.7391 25.464 27.5591 26.136 27.1991 26.736C26.8511 27.324 26.3171 27.792 25.5971 28.14C24.8891 28.476 24.0131 28.644 22.9691 28.644C22.0811 28.644 21.2231 28.512 20.3951 28.248C19.5671 27.972 18.8831 27.594 18.3431 27.114L19.1711 25.692C19.6031 26.1 20.1551 26.43 20.8271 26.682C21.4991 26.922 22.2071 27.042 22.9511 27.042C23.8991 27.042 24.6311 26.844 25.1471 26.448C25.6751 26.04 25.9391 25.488 25.9391 24.792C25.9391 24.036 25.6511 23.466 25.0751 23.082C24.4991 22.686 23.5151 22.488 22.1231 22.488H19.2611L19.9271 15.9H27.0371V17.466H21.4391L21.0971 20.922H22.5011ZM36.941 21.894C37.661 22.17 38.213 22.566 38.597 23.082C38.981 23.598 39.173 24.216 39.173 24.936C39.173 25.692 38.969 26.352 38.561 26.916C38.153 27.468 37.571 27.894 36.815 28.194C36.059 28.494 35.171 28.644 34.151 28.644C33.143 28.644 32.261 28.494 31.505 28.194C30.761 27.894 30.185 27.468 29.777 26.916C29.369 26.352 29.165 25.692 29.165 24.936C29.165 24.216 29.351 23.598 29.723 23.082C30.107 22.566 30.659 22.17 31.379 21.894C30.803 21.618 30.365 21.252 30.065 20.796C29.765 20.34 29.615 19.8 29.615 19.176C29.615 18.48 29.801 17.874 30.173 17.358C30.557 16.842 31.091 16.446 31.775 16.17C32.459 15.894 33.251 15.756 34.151 15.756C35.063 15.756 35.861 15.894 36.545 16.17C37.241 16.446 37.775 16.842 38.147 17.358C38.531 17.874 38.723 18.48 38.723 19.176C38.723 19.788 38.567 20.328 38.255 20.796C37.955 21.252 37.517 21.618 36.941 21.894ZM34.151 17.214C33.299 17.214 32.627 17.4 32.135 17.772C31.643 18.132 31.397 18.624 31.397 19.248C31.397 19.872 31.637 20.364 32.117 20.724C32.609 21.084 33.287 21.264 34.151 21.264C35.027 21.264 35.711 21.084 36.203 20.724C36.707 20.364 36.959 19.872 36.959 19.248C36.959 18.624 36.701 18.132 36.185 17.772C35.681 17.4 35.003 17.214 34.151 17.214ZM34.151 27.186C35.147 27.186 35.933 26.982 36.509 26.574C37.085 26.154 37.373 25.59 37.373 24.882C37.373 24.186 37.085 23.64 36.509 23.244C35.933 22.836 35.147 22.632 34.151 22.632C33.155 22.632 32.375 22.836 31.811 23.244C31.247 23.64 30.965 24.186 30.965 24.882C30.965 25.59 31.247 26.154 31.811 26.574C32.375 26.982 33.155 27.186 34.151 27.186ZM45.969 28.644C44.973 28.644 44.085 28.392 43.305 27.888C42.537 27.372 41.931 26.628 41.487 25.656C41.043 24.684 40.821 23.532 40.821 22.2C40.821 20.868 41.043 19.716 41.487 18.744C41.931 17.772 42.537 17.034 43.305 16.53C44.085 16.014 44.973 15.756 45.969 15.756C46.953 15.756 47.829 16.014 48.597 16.53C49.377 17.034 49.989 17.772 50.433 18.744C50.877 19.716 51.099 20.868 51.099 22.2C51.099 23.532 50.877 24.684 50.433 25.656C49.989 26.628 49.377 27.372 48.597 27.888C47.829 28.392 46.953 28.644 45.969 28.644ZM45.969 27.042C46.977 27.042 47.781 26.628 48.381 25.8C48.993 24.972 49.299 23.772 49.299 22.2C49.299 20.628 48.993 19.428 48.381 18.6C47.781 17.772 46.977 17.358 45.969 17.358C44.949 17.358 44.133 17.772 43.521 18.6C42.921 19.428 42.621 20.628 42.621 22.2C42.621 23.772 42.921 24.972 43.521 25.8C44.133 26.628 44.949 27.042 45.969 27.042Z" fill="white"/>
<path d="M5 1H65V-1H5V1ZM69 5V40H71V5H69ZM65 44H5V46H65V44ZM1 40V5H-1V40H1ZM5 44C2.79086 44 1 42.2091 1 40H-1C-1 43.3137 1.68629 46 5 46V44ZM69 40C69 42.2091 67.2091 44 65 44V46C68.3137 46 71 43.3137 71 40H69ZM65 1C67.2091 1 69 2.79086 69 5H71C71 1.68629 68.3137 -1 65 -1V1ZM5 -1C1.68629 -1 -1 1.68629 -1 5H1C1 2.79086 2.79086 1 5 1V-1Z" fill="#369CB7"/>
</svg>
