<svg width="278" height="23" viewBox="0 0 278 23" fill="none" xmlns="http://www.w3.org/2000/svg">
<path d="M10.6587 17.5L7.94073 13.63C7.60473 13.654 7.34073 13.666 7.14873 13.666H4.03473V17.5H2.23473V4.9H7.14873C8.78073 4.9 10.0647 5.29 11.0007 6.07C11.9367 6.85 12.4047 7.924 12.4047 9.292C12.4047 10.264 12.1647 11.092 11.6847 11.776C11.2047 12.46 10.5207 12.958 9.63273 13.27L12.6207 17.5H10.6587ZM7.09473 12.136C8.23473 12.136 9.10473 11.89 9.70473 11.398C10.3047 10.906 10.6047 10.204 10.6047 9.292C10.6047 8.38 10.3047 7.684 9.70473 7.204C9.10473 6.712 8.23473 6.466 7.09473 6.466H4.03473V12.136H7.09473ZM19.1469 17.608C18.1989 17.608 17.3469 17.398 16.5909 16.978C15.8349 16.558 15.2409 15.982 14.8089 15.25C14.3889 14.506 14.1789 13.666 14.1789 12.73C14.1789 11.794 14.3889 10.96 14.8089 10.228C15.2409 9.484 15.8349 8.908 16.5909 8.5C17.3469 8.08 18.1989 7.87 19.1469 7.87C20.0949 7.87 20.9409 8.08 21.6849 8.5C22.4409 8.908 23.0289 9.484 23.4489 10.228C23.8809 10.96 24.0969 11.794 24.0969 12.73C24.0969 13.666 23.8809 14.506 23.4489 15.25C23.0289 15.982 22.4409 16.558 21.6849 16.978C20.9409 17.398 20.0949 17.608 19.1469 17.608ZM19.1469 16.096C19.7589 16.096 20.3049 15.958 20.7849 15.682C21.2769 15.394 21.6609 14.998 21.9369 14.494C22.2129 13.978 22.3509 13.39 22.3509 12.73C22.3509 12.07 22.2129 11.488 21.9369 10.984C21.6609 10.468 21.2769 10.072 20.7849 9.796C20.3049 9.52 19.7589 9.382 19.1469 9.382C18.5349 9.382 17.9829 9.52 17.4909 9.796C17.0109 10.072 16.6269 10.468 16.3389 10.984C16.0629 11.488 15.9249 12.07 15.9249 12.73C15.9249 13.39 16.0629 13.978 16.3389 14.494C16.6269 14.998 17.0109 15.394 17.4909 15.682C17.9829 15.958 18.5349 16.096 19.1469 16.096ZM35.3786 7.96V17.5H33.7406V16.06C33.3926 16.552 32.9306 16.936 32.3546 17.212C31.7906 17.476 31.1726 17.608 30.5006 17.608C29.2286 17.608 28.2266 17.26 27.4946 16.564C26.7626 15.856 26.3966 14.818 26.3966 13.45V7.96H28.1246V13.252C28.1246 14.176 28.3466 14.878 28.7906 15.358C29.2346 15.826 29.8706 16.06 30.6986 16.06C31.6106 16.06 32.3306 15.784 32.8586 15.232C33.3866 14.68 33.6506 13.9 33.6506 12.892V7.96H35.3786ZM43.7623 7.87C44.9743 7.87 45.9343 8.224 46.6423 8.932C47.3623 9.628 47.7223 10.654 47.7223 12.01V17.5H45.9943V12.208C45.9943 11.284 45.7723 10.588 45.3283 10.12C44.8843 9.652 44.2483 9.418 43.4203 9.418C42.4843 9.418 41.7463 9.694 41.2063 10.246C40.6663 10.786 40.3963 11.566 40.3963 12.586V17.5H38.6683V7.96H40.3243V9.4C40.6723 8.908 41.1403 8.53 41.7283 8.266C42.3283 8.002 43.0063 7.87 43.7623 7.87ZM59.973 4.144V17.5H58.317V15.988C57.933 16.516 57.447 16.918 56.859 17.194C56.271 17.47 55.623 17.608 54.915 17.608C53.991 17.608 53.163 17.404 52.431 16.996C51.699 16.588 51.123 16.018 50.703 15.286C50.295 14.542 50.091 13.69 50.091 12.73C50.091 11.77 50.295 10.924 50.703 10.192C51.123 9.46 51.699 8.89 52.431 8.482C53.163 8.074 53.991 7.87 54.915 7.87C55.599 7.87 56.229 8.002 56.805 8.266C57.381 8.518 57.861 8.896 58.245 9.4V4.144H59.973ZM55.059 16.096C55.659 16.096 56.205 15.958 56.697 15.682C57.189 15.394 57.573 14.998 57.849 14.494C58.125 13.978 58.263 13.39 58.263 12.73C58.263 12.07 58.125 11.488 57.849 10.984C57.573 10.468 57.189 10.072 56.697 9.796C56.205 9.52 55.659 9.382 55.059 9.382C54.447 9.382 53.895 9.52 53.403 9.796C52.923 10.072 52.539 10.468 52.251 10.984C51.975 11.488 51.837 12.07 51.837 12.73C51.837 13.39 51.975 13.978 52.251 14.494C52.539 14.998 52.923 15.394 53.403 15.682C53.895 15.958 54.447 16.096 55.059 16.096ZM71.1725 9.778C72.9485 9.778 74.2625 10.126 75.1145 10.822C75.9665 11.506 76.3925 12.442 76.3925 13.63C76.3925 14.386 76.2065 15.07 75.8345 15.682C75.4625 16.294 74.9045 16.78 74.1605 17.14C73.4165 17.5 72.4985 17.68 71.4065 17.68C70.5065 17.68 69.6365 17.554 68.7965 17.302C67.9565 17.038 67.2485 16.678 66.6725 16.222L67.6625 14.404C68.1305 14.788 68.6885 15.094 69.3365 15.322C69.9965 15.538 70.6745 15.646 71.3705 15.646C72.1985 15.646 72.8465 15.478 73.3145 15.142C73.7945 14.794 74.0345 14.32 74.0345 13.72C74.0345 13.072 73.7765 12.586 73.2605 12.262C72.7565 11.926 71.8865 11.758 70.6505 11.758H67.6085L68.2565 4.9H75.6545V6.862H70.2365L69.9665 9.778H71.1725ZM85.9142 10.876C86.5742 11.176 87.0782 11.584 87.4262 12.1C87.7862 12.604 87.9662 13.198 87.9662 13.882C87.9662 14.65 87.7502 15.322 87.3182 15.898C86.8982 16.474 86.2982 16.918 85.5182 17.23C84.7382 17.53 83.8322 17.68 82.8002 17.68C81.7682 17.68 80.8622 17.53 80.0822 17.23C79.3142 16.918 78.7202 16.474 78.3002 15.898C77.8802 15.322 77.6702 14.65 77.6702 13.882C77.6702 13.198 77.8442 12.604 78.1922 12.1C78.5402 11.584 79.0382 11.176 79.6862 10.876C79.1822 10.6 78.7922 10.24 78.5162 9.796C78.2522 9.34 78.1202 8.818 78.1202 8.23C78.1202 7.522 78.3122 6.904 78.6962 6.376C79.0922 5.848 79.6442 5.44 80.3522 5.152C81.0602 4.864 81.8762 4.72 82.8002 4.72C83.7362 4.72 84.5582 4.864 85.2662 5.152C85.9742 5.44 86.5262 5.848 86.9222 6.376C87.3182 6.904 87.5162 7.522 87.5162 8.23C87.5162 8.818 87.3782 9.334 87.1022 9.778C86.8262 10.222 86.4302 10.588 85.9142 10.876ZM82.8002 6.556C82.0682 6.556 81.4862 6.712 81.0542 7.024C80.6342 7.336 80.4242 7.774 80.4242 8.338C80.4242 8.878 80.6342 9.31 81.0542 9.634C81.4862 9.946 82.0682 10.102 82.8002 10.102C83.5442 10.102 84.1322 9.946 84.5642 9.634C84.9962 9.31 85.2122 8.878 85.2122 8.338C85.2122 7.774 84.9902 7.336 84.5462 7.024C84.1142 6.712 83.5322 6.556 82.8002 6.556ZM82.8002 15.844C83.6642 15.844 84.3482 15.664 84.8522 15.304C85.3562 14.944 85.6082 14.446 85.6082 13.81C85.6082 13.186 85.3562 12.694 84.8522 12.334C84.3482 11.974 83.6642 11.794 82.8002 11.794C81.9362 11.794 81.2582 11.974 80.7662 12.334C80.2742 12.694 80.0282 13.186 80.0282 13.81C80.0282 14.446 80.2742 14.944 80.7662 15.304C81.2582 15.664 81.9362 15.844 82.8002 15.844ZM98.6104 15.52V17.5H89.3224V15.934L94.3264 11.182C94.8904 10.642 95.2684 10.174 95.4604 9.778C95.6644 9.37 95.7664 8.968 95.7664 8.572C95.7664 7.984 95.5684 7.534 95.1724 7.222C94.7764 6.91 94.1944 6.754 93.4264 6.754C92.1424 6.754 91.1584 7.192 90.4744 8.068L88.8364 6.808C89.3284 6.148 89.9884 5.638 90.8164 5.278C91.6564 4.906 92.5924 4.72 93.6244 4.72C94.9924 4.72 96.0844 5.044 96.9004 5.692C97.7164 6.34 98.1244 7.222 98.1244 8.338C98.1244 9.022 97.9804 9.664 97.6924 10.264C97.4044 10.864 96.8524 11.548 96.0364 12.316L92.6704 15.52H98.6104ZM111.005 16.942C110.753 17.158 110.441 17.326 110.069 17.446C109.697 17.554 109.313 17.608 108.917 17.608C107.957 17.608 107.213 17.35 106.685 16.834C106.157 16.318 105.893 15.58 105.893 14.62V9.382H104.273V7.96H105.893V5.872H107.621V7.96H110.357V9.382H107.621V14.548C107.621 15.064 107.747 15.46 107.999 15.736C108.263 16.012 108.635 16.15 109.115 16.15C109.643 16.15 110.093 16 110.465 15.7L111.005 16.942ZM116.864 17.608C115.916 17.608 115.064 17.398 114.308 16.978C113.552 16.558 112.958 15.982 112.526 15.25C112.106 14.506 111.896 13.666 111.896 12.73C111.896 11.794 112.106 10.96 112.526 10.228C112.958 9.484 113.552 8.908 114.308 8.5C115.064 8.08 115.916 7.87 116.864 7.87C117.812 7.87 118.658 8.08 119.402 8.5C120.158 8.908 120.746 9.484 121.166 10.228C121.598 10.96 121.814 11.794 121.814 12.73C121.814 13.666 121.598 14.506 121.166 15.25C120.746 15.982 120.158 16.558 119.402 16.978C118.658 17.398 117.812 17.608 116.864 17.608ZM116.864 16.096C117.476 16.096 118.022 15.958 118.502 15.682C118.994 15.394 119.378 14.998 119.654 14.494C119.93 13.978 120.068 13.39 120.068 12.73C120.068 12.07 119.93 11.488 119.654 10.984C119.378 10.468 118.994 10.072 118.502 9.796C118.022 9.52 117.476 9.382 116.864 9.382C116.252 9.382 115.7 9.52 115.208 9.796C114.728 10.072 114.344 10.468 114.056 10.984C113.78 11.488 113.642 12.07 113.642 12.73C113.642 13.39 113.78 13.978 114.056 14.494C114.344 14.998 114.728 15.394 115.208 15.682C115.7 15.958 116.252 16.096 116.864 16.096ZM134.401 16.942C134.149 17.158 133.837 17.326 133.465 17.446C133.093 17.554 132.709 17.608 132.313 17.608C131.353 17.608 130.609 17.35 130.081 16.834C129.553 16.318 129.289 15.58 129.289 14.62V9.382H127.669V7.96H129.289V5.872H131.017V7.96H133.753V9.382H131.017V14.548C131.017 15.064 131.143 15.46 131.395 15.736C131.659 16.012 132.031 16.15 132.511 16.15C133.039 16.15 133.489 16 133.861 15.7L134.401 16.942ZM141.585 7.87C142.797 7.87 143.757 8.224 144.465 8.932C145.185 9.628 145.545 10.654 145.545 12.01V17.5H143.817V12.208C143.817 11.284 143.595 10.588 143.151 10.12C142.707 9.652 142.071 9.418 141.243 9.418C140.307 9.418 139.569 9.694 139.029 10.246C138.489 10.786 138.219 11.566 138.219 12.586V17.5H136.491V4.144H138.219V9.31C138.579 8.854 139.047 8.5 139.623 8.248C140.211 7.996 140.865 7.87 141.585 7.87ZM157.417 12.784C157.417 12.916 157.405 13.09 157.381 13.306H149.641C149.749 14.146 150.115 14.824 150.739 15.34C151.375 15.844 152.161 16.096 153.097 16.096C154.237 16.096 155.155 15.712 155.851 14.944L156.805 16.06C156.373 16.564 155.833 16.948 155.185 17.212C154.549 17.476 153.835 17.608 153.043 17.608C152.035 17.608 151.141 17.404 150.361 16.996C149.581 16.576 148.975 15.994 148.543 15.25C148.123 14.506 147.913 13.666 147.913 12.73C147.913 11.806 148.117 10.972 148.525 10.228C148.945 9.484 149.515 8.908 150.235 8.5C150.967 8.08 151.789 7.87 152.701 7.87C153.613 7.87 154.423 8.08 155.131 8.5C155.851 8.908 156.409 9.484 156.805 10.228C157.213 10.972 157.417 11.824 157.417 12.784ZM152.701 9.328C151.873 9.328 151.177 9.58 150.613 10.084C150.061 10.588 149.737 11.248 149.641 12.064H155.761C155.665 11.26 155.335 10.606 154.771 10.102C154.219 9.586 153.529 9.328 152.701 9.328ZM169.745 7.87C170.957 7.87 171.917 8.224 172.625 8.932C173.345 9.628 173.705 10.654 173.705 12.01V17.5H171.977V12.208C171.977 11.284 171.755 10.588 171.311 10.12C170.867 9.652 170.231 9.418 169.403 9.418C168.467 9.418 167.729 9.694 167.189 10.246C166.649 10.786 166.379 11.566 166.379 12.586V17.5H164.651V7.96H166.307V9.4C166.655 8.908 167.123 8.53 167.711 8.266C168.311 8.002 168.989 7.87 169.745 7.87ZM185.577 12.784C185.577 12.916 185.565 13.09 185.541 13.306H177.801C177.909 14.146 178.275 14.824 178.899 15.34C179.535 15.844 180.321 16.096 181.257 16.096C182.397 16.096 183.315 15.712 184.011 14.944L184.965 16.06C184.533 16.564 183.993 16.948 183.345 17.212C182.709 17.476 181.995 17.608 181.203 17.608C180.195 17.608 179.301 17.404 178.521 16.996C177.741 16.576 177.135 15.994 176.703 15.25C176.283 14.506 176.073 13.666 176.073 12.73C176.073 11.806 176.277 10.972 176.685 10.228C177.105 9.484 177.675 8.908 178.395 8.5C179.127 8.08 179.949 7.87 180.861 7.87C181.773 7.87 182.583 8.08 183.291 8.5C184.011 8.908 184.569 9.484 184.965 10.228C185.373 10.972 185.577 11.824 185.577 12.784ZM180.861 9.328C180.033 9.328 179.337 9.58 178.773 10.084C178.221 10.588 177.897 11.248 177.801 12.064H183.921C183.825 11.26 183.495 10.606 182.931 10.102C182.379 9.586 181.689 9.328 180.861 9.328ZM191.187 7.87C192.507 7.87 193.515 8.194 194.211 8.842C194.919 9.49 195.273 10.456 195.273 11.74V17.5H193.635V16.24C193.347 16.684 192.933 17.026 192.393 17.266C191.865 17.494 191.235 17.608 190.503 17.608C189.435 17.608 188.577 17.35 187.929 16.834C187.293 16.318 186.975 15.64 186.975 14.8C186.975 13.96 187.281 13.288 187.893 12.784C188.505 12.268 189.477 12.01 190.809 12.01H193.545V11.668C193.545 10.924 193.329 10.354 192.897 9.958C192.465 9.562 191.829 9.364 190.989 9.364C190.425 9.364 189.873 9.46 189.333 9.652C188.793 9.832 188.337 10.078 187.965 10.39L187.245 9.094C187.737 8.698 188.325 8.398 189.009 8.194C189.693 7.978 190.419 7.87 191.187 7.87ZM190.791 16.276C191.451 16.276 192.021 16.132 192.501 15.844C192.981 15.544 193.329 15.124 193.545 14.584V13.252H190.881C189.417 13.252 188.685 13.744 188.685 14.728C188.685 15.208 188.871 15.586 189.243 15.862C189.615 16.138 190.131 16.276 190.791 16.276ZM200.127 9.562C200.427 9.01 200.871 8.59 201.459 8.302C202.047 8.014 202.761 7.87 203.601 7.87V9.544C203.505 9.532 203.373 9.526 203.205 9.526C202.269 9.526 201.531 9.808 200.991 10.372C200.463 10.924 200.199 11.716 200.199 12.748V17.5H198.471V7.96H200.127V9.562ZM214.265 12.784C214.265 12.916 214.253 13.09 214.229 13.306H206.489C206.597 14.146 206.963 14.824 207.587 15.34C208.223 15.844 209.009 16.096 209.945 16.096C211.085 16.096 212.003 15.712 212.699 14.944L213.653 16.06C213.221 16.564 212.681 16.948 212.033 17.212C211.397 17.476 210.683 17.608 209.891 17.608C208.883 17.608 207.989 17.404 207.209 16.996C206.429 16.576 205.823 15.994 205.391 15.25C204.971 14.506 204.761 13.666 204.761 12.73C204.761 11.806 204.965 10.972 205.373 10.228C205.793 9.484 206.363 8.908 207.083 8.5C207.815 8.08 208.637 7.87 209.549 7.87C210.461 7.87 211.271 8.08 211.979 8.5C212.699 8.908 213.257 9.484 213.653 10.228C214.061 10.972 214.265 11.824 214.265 12.784ZM209.549 9.328C208.721 9.328 208.025 9.58 207.461 10.084C206.909 10.588 206.585 11.248 206.489 12.064H212.609C212.513 11.26 212.183 10.606 211.619 10.102C211.067 9.586 210.377 9.328 209.549 9.328ZM219.4 17.608C218.62 17.608 217.87 17.506 217.15 17.302C216.43 17.086 215.866 16.816 215.458 16.492L216.178 15.124C216.598 15.424 217.108 15.664 217.708 15.844C218.308 16.024 218.914 16.114 219.526 16.114C221.038 16.114 221.794 15.682 221.794 14.818C221.794 14.53 221.692 14.302 221.488 14.134C221.284 13.966 221.026 13.846 220.714 13.774C220.414 13.69 219.982 13.6 219.418 13.504C218.65 13.384 218.02 13.246 217.528 13.09C217.048 12.934 216.634 12.67 216.286 12.298C215.938 11.926 215.764 11.404 215.764 10.732C215.764 9.868 216.124 9.178 216.844 8.662C217.564 8.134 218.53 7.87 219.742 7.87C220.378 7.87 221.014 7.948 221.65 8.104C222.286 8.26 222.808 8.47 223.216 8.734L222.478 10.102C221.698 9.598 220.78 9.346 219.724 9.346C218.992 9.346 218.434 9.466 218.05 9.706C217.666 9.946 217.474 10.264 217.474 10.66C217.474 10.972 217.582 11.218 217.798 11.398C218.014 11.578 218.278 11.71 218.59 11.794C218.914 11.878 219.364 11.974 219.94 12.082C220.708 12.214 221.326 12.358 221.794 12.514C222.274 12.658 222.682 12.91 223.018 13.27C223.354 13.63 223.522 14.134 223.522 14.782C223.522 15.646 223.15 16.336 222.406 16.852C221.674 17.356 220.672 17.608 219.4 17.608ZM231.046 16.942C230.794 17.158 230.482 17.326 230.11 17.446C229.738 17.554 229.354 17.608 228.958 17.608C227.998 17.608 227.254 17.35 226.726 16.834C226.198 16.318 225.934 15.58 225.934 14.62V9.382H224.314V7.96H225.934V5.872H227.662V7.96H230.398V9.382H227.662V14.548C227.662 15.064 227.788 15.46 228.04 15.736C228.304 16.012 228.676 16.15 229.156 16.15C229.684 16.15 230.134 16 230.506 15.7L231.046 16.942ZM243.873 17.032C243.597 17.236 243.255 17.392 242.847 17.5C242.451 17.596 242.031 17.644 241.587 17.644C240.435 17.644 239.541 17.35 238.905 16.762C238.281 16.174 237.969 15.31 237.969 14.17V10.192H236.475V8.032H237.969V5.674H240.777V8.032H243.189V10.192H240.777V14.134C240.777 14.542 240.879 14.86 241.083 15.088C241.299 15.304 241.599 15.412 241.983 15.412C242.427 15.412 242.805 15.292 243.117 15.052L243.873 17.032ZM254.636 12.694C254.636 12.73 254.618 12.982 254.582 13.45H247.256C247.388 14.05 247.7 14.524 248.192 14.872C248.684 15.22 249.296 15.394 250.028 15.394C250.532 15.394 250.976 15.322 251.36 15.178C251.756 15.022 252.122 14.782 252.458 14.458L253.952 16.078C253.04 17.122 251.708 17.644 249.956 17.644C248.864 17.644 247.898 17.434 247.058 17.014C246.218 16.582 245.57 15.988 245.114 15.232C244.658 14.476 244.43 13.618 244.43 12.658C244.43 11.71 244.652 10.858 245.096 10.102C245.552 9.334 246.17 8.74 246.95 8.32C247.742 7.888 248.624 7.672 249.596 7.672C250.544 7.672 251.402 7.876 252.17 8.284C252.938 8.692 253.538 9.28 253.97 10.048C254.414 10.804 254.636 11.686 254.636 12.694ZM249.614 9.796C248.978 9.796 248.444 9.976 248.012 10.336C247.58 10.696 247.316 11.188 247.22 11.812H251.99C251.894 11.2 251.63 10.714 251.198 10.354C250.766 9.982 250.238 9.796 249.614 9.796ZM262.392 7.672C263.592 7.672 264.558 8.032 265.29 8.752C266.034 9.472 266.406 10.54 266.406 11.956V17.5H263.598V12.388C263.598 11.62 263.43 11.05 263.094 10.678C262.758 10.294 262.272 10.102 261.636 10.102C260.928 10.102 260.364 10.324 259.944 10.768C259.524 11.2 259.314 11.848 259.314 12.712V17.5H256.506V7.816H259.188V8.95C259.56 8.542 260.022 8.23 260.574 8.014C261.126 7.786 261.732 7.672 262.392 7.672Z" fill="#2F2F2F"/>
<path d="M236.331 19.3H267.648V20.2H236.331V19.3Z" fill="#2F2F2F"/>
<path d="M275.513 10.336C275.177 10.336 274.889 10.222 274.649 9.994C274.409 9.754 274.289 9.454 274.289 9.094C274.289 8.746 274.409 8.458 274.649 8.23C274.889 7.99 275.177 7.87 275.513 7.87C275.849 7.87 276.131 7.984 276.359 8.212C276.587 8.44 276.701 8.734 276.701 9.094C276.701 9.454 276.581 9.754 276.341 9.994C276.113 10.222 275.837 10.336 275.513 10.336ZM275.513 17.608C275.177 17.608 274.889 17.494 274.649 17.266C274.409 17.026 274.289 16.726 274.289 16.366C274.289 16.018 274.409 15.73 274.649 15.502C274.889 15.262 275.177 15.142 275.513 15.142C275.849 15.142 276.131 15.256 276.359 15.484C276.587 15.712 276.701 16.006 276.701 16.366C276.701 16.726 276.581 17.026 276.341 17.266C276.113 17.494 275.837 17.608 275.513 17.608Z" fill="#2F2F2F"/>
</svg>
