<svg width="70" height="45" viewBox="0 0 70 45" fill="none" xmlns="http://www.w3.org/2000/svg">
<path d="M0 5C0 2.23858 2.23858 0 5 0H65C67.7614 0 70 2.23858 70 5V40C70 42.7614 67.7614 45 65 45H5C2.23858 45 0 42.7614 0 40V5Z" fill="#369CB7"/>
<path d="M22.2902 20.922C24.0902 20.922 25.4102 21.264 26.2502 21.948C27.1022 22.62 27.5282 23.544 27.5282 24.72C27.5282 25.464 27.3482 26.136 26.9882 26.736C26.6402 27.324 26.1062 27.792 25.3862 28.14C24.6782 28.476 23.8022 28.644 22.7582 28.644C21.8702 28.644 21.0122 28.512 20.1842 28.248C19.3562 27.972 18.6722 27.594 18.1322 27.114L18.9602 25.692C19.3922 26.1 19.9442 26.43 20.6162 26.682C21.2882 26.922 21.9962 27.042 22.7402 27.042C23.6882 27.042 24.4202 26.844 24.9362 26.448C25.4642 26.04 25.7282 25.488 25.7282 24.792C25.7282 24.036 25.4402 23.466 24.8642 23.082C24.2882 22.686 23.3042 22.488 21.9122 22.488H19.0502L19.7162 15.9H26.8262V17.466H21.2282L20.8862 20.922H22.2902ZM34.1741 28.644C33.1781 28.644 32.2901 28.392 31.5101 27.888C30.7421 27.372 30.1361 26.628 29.6921 25.656C29.2481 24.684 29.0261 23.532 29.0261 22.2C29.0261 20.868 29.2481 19.716 29.6921 18.744C30.1361 17.772 30.7421 17.034 31.5101 16.53C32.2901 16.014 33.1781 15.756 34.1741 15.756C35.1581 15.756 36.0341 16.014 36.8021 16.53C37.5821 17.034 38.1941 17.772 38.6381 18.744C39.0821 19.716 39.3041 20.868 39.3041 22.2C39.3041 23.532 39.0821 24.684 38.6381 25.656C38.1941 26.628 37.5821 27.372 36.8021 27.888C36.0341 28.392 35.1581 28.644 34.1741 28.644ZM34.1741 27.042C35.1821 27.042 35.9861 26.628 36.5861 25.8C37.1981 24.972 37.5041 23.772 37.5041 22.2C37.5041 20.628 37.1981 19.428 36.5861 18.6C35.9861 17.772 35.1821 17.358 34.1741 17.358C33.1541 17.358 32.3381 17.772 31.7261 18.6C31.1261 19.428 30.8261 20.628 30.8261 22.2C30.8261 23.772 31.1261 24.972 31.7261 25.8C32.3381 26.628 33.1541 27.042 34.1741 27.042ZM46.18 28.644C45.184 28.644 44.296 28.392 43.516 27.888C42.748 27.372 42.142 26.628 41.698 25.656C41.254 24.684 41.032 23.532 41.032 22.2C41.032 20.868 41.254 19.716 41.698 18.744C42.142 17.772 42.748 17.034 43.516 16.53C44.296 16.014 45.184 15.756 46.18 15.756C47.164 15.756 48.04 16.014 48.808 16.53C49.588 17.034 50.2 17.772 50.644 18.744C51.088 19.716 51.31 20.868 51.31 22.2C51.31 23.532 51.088 24.684 50.644 25.656C50.2 26.628 49.588 27.372 48.808 27.888C48.04 28.392 47.164 28.644 46.18 28.644ZM46.18 27.042C47.188 27.042 47.992 26.628 48.592 25.8C49.204 24.972 49.51 23.772 49.51 22.2C49.51 20.628 49.204 19.428 48.592 18.6C47.992 17.772 47.188 17.358 46.18 17.358C45.16 17.358 44.344 17.772 43.732 18.6C43.132 19.428 42.832 20.628 42.832 22.2C42.832 23.772 43.132 24.972 43.732 25.8C44.344 26.628 45.16 27.042 46.18 27.042Z" fill="white"/>
<path d="M5 1H65V-1H5V1ZM69 5V40H71V5H69ZM65 44H5V46H65V44ZM1 40V5H-1V40H1ZM5 44C2.79086 44 1 42.2091 1 40H-1C-1 43.3137 1.68629 46 5 46V44ZM69 40C69 42.2091 67.2091 44 65 44V46C68.3137 46 71 43.3137 71 40H69ZM65 1C67.2091 1 69 2.79086 69 5H71C71 1.68629 68.3137 -1 65 -1V1ZM5 -1C1.68629 -1 -1 1.68629 -1 5H1C1 2.79086 2.79086 1 5 1V-1Z" fill="#369CB7"/>
</svg>
