<svg width="328" height="23" viewBox="0 0 328 23" fill="none" xmlns="http://www.w3.org/2000/svg">
<path d="M10.5572 17.5L7.83916 13.63C7.50316 13.654 7.23916 13.666 7.04716 13.666H3.93316V17.5H2.13316V4.9H7.04716C8.67916 4.9 9.96316 5.29 10.8992 6.07C11.8352 6.85 12.3032 7.924 12.3032 9.292C12.3032 10.264 12.0632 11.092 11.5832 11.776C11.1032 12.46 10.4192 12.958 9.53116 13.27L12.5192 17.5H10.5572ZM6.99316 12.136C8.13316 12.136 9.00316 11.89 9.60316 11.398C10.2032 10.906 10.5032 10.204 10.5032 9.292C10.5032 8.38 10.2032 7.684 9.60316 7.204C9.00316 6.712 8.13316 6.466 6.99316 6.466H3.93316V12.136H6.99316ZM19.0453 17.608C18.0973 17.608 17.2453 17.398 16.4893 16.978C15.7333 16.558 15.1393 15.982 14.7073 15.25C14.2873 14.506 14.0773 13.666 14.0773 12.73C14.0773 11.794 14.2873 10.96 14.7073 10.228C15.1393 9.484 15.7333 8.908 16.4893 8.5C17.2453 8.08 18.0973 7.87 19.0453 7.87C19.9933 7.87 20.8393 8.08 21.5833 8.5C22.3393 8.908 22.9273 9.484 23.3473 10.228C23.7793 10.96 23.9953 11.794 23.9953 12.73C23.9953 13.666 23.7793 14.506 23.3473 15.25C22.9273 15.982 22.3393 16.558 21.5833 16.978C20.8393 17.398 19.9933 17.608 19.0453 17.608ZM19.0453 16.096C19.6573 16.096 20.2033 15.958 20.6833 15.682C21.1753 15.394 21.5593 14.998 21.8353 14.494C22.1113 13.978 22.2493 13.39 22.2493 12.73C22.2493 12.07 22.1113 11.488 21.8353 10.984C21.5593 10.468 21.1753 10.072 20.6833 9.796C20.2033 9.52 19.6573 9.382 19.0453 9.382C18.4333 9.382 17.8813 9.52 17.3893 9.796C16.9093 10.072 16.5253 10.468 16.2373 10.984C15.9613 11.488 15.8233 12.07 15.8233 12.73C15.8233 13.39 15.9613 13.978 16.2373 14.494C16.5253 14.998 16.9093 15.394 17.3893 15.682C17.8813 15.958 18.4333 16.096 19.0453 16.096ZM35.2771 7.96V17.5H33.6391V16.06C33.2911 16.552 32.8291 16.936 32.2531 17.212C31.6891 17.476 31.0711 17.608 30.3991 17.608C29.1271 17.608 28.1251 17.26 27.3931 16.564C26.6611 15.856 26.2951 14.818 26.2951 13.45V7.96H28.0231V13.252C28.0231 14.176 28.2451 14.878 28.6891 15.358C29.1331 15.826 29.7691 16.06 30.5971 16.06C31.5091 16.06 32.2291 15.784 32.7571 15.232C33.2851 14.68 33.5491 13.9 33.5491 12.892V7.96H35.2771ZM43.6607 7.87C44.8727 7.87 45.8327 8.224 46.5407 8.932C47.2607 9.628 47.6207 10.654 47.6207 12.01V17.5H45.8927V12.208C45.8927 11.284 45.6707 10.588 45.2267 10.12C44.7827 9.652 44.1467 9.418 43.3187 9.418C42.3827 9.418 41.6447 9.694 41.1047 10.246C40.5647 10.786 40.2947 11.566 40.2947 12.586V17.5H38.5667V7.96H40.2227V9.4C40.5707 8.908 41.0387 8.53 41.6267 8.266C42.2267 8.002 42.9047 7.87 43.6607 7.87ZM59.8714 4.144V17.5H58.2154V15.988C57.8314 16.516 57.3454 16.918 56.7574 17.194C56.1694 17.47 55.5214 17.608 54.8134 17.608C53.8894 17.608 53.0614 17.404 52.3294 16.996C51.5974 16.588 51.0214 16.018 50.6014 15.286C50.1934 14.542 49.9894 13.69 49.9894 12.73C49.9894 11.77 50.1934 10.924 50.6014 10.192C51.0214 9.46 51.5974 8.89 52.3294 8.482C53.0614 8.074 53.8894 7.87 54.8134 7.87C55.4974 7.87 56.1274 8.002 56.7034 8.266C57.2794 8.518 57.7594 8.896 58.1434 9.4V4.144H59.8714ZM54.9574 16.096C55.5574 16.096 56.1034 15.958 56.5954 15.682C57.0874 15.394 57.4714 14.998 57.7474 14.494C58.0234 13.978 58.1614 13.39 58.1614 12.73C58.1614 12.07 58.0234 11.488 57.7474 10.984C57.4714 10.468 57.0874 10.072 56.5954 9.796C56.1034 9.52 55.5574 9.382 54.9574 9.382C54.3454 9.382 53.7934 9.52 53.3014 9.796C52.8214 10.072 52.4374 10.468 52.1494 10.984C51.8734 11.488 51.7354 12.07 51.7354 12.73C51.7354 13.39 51.8734 13.978 52.1494 14.494C52.4374 14.998 52.8214 15.394 53.3014 15.682C53.7934 15.958 54.3454 16.096 54.9574 16.096ZM71.0709 9.778C72.8469 9.778 74.1609 10.126 75.0129 10.822C75.8649 11.506 76.2909 12.442 76.2909 13.63C76.2909 14.386 76.1049 15.07 75.7329 15.682C75.3609 16.294 74.8029 16.78 74.0589 17.14C73.3149 17.5 72.3969 17.68 71.3049 17.68C70.4049 17.68 69.5349 17.554 68.6949 17.302C67.8549 17.038 67.1469 16.678 66.5709 16.222L67.5609 14.404C68.0289 14.788 68.5869 15.094 69.2349 15.322C69.8949 15.538 70.5729 15.646 71.2689 15.646C72.0969 15.646 72.7449 15.478 73.2129 15.142C73.6929 14.794 73.9329 14.32 73.9329 13.72C73.9329 13.072 73.6749 12.586 73.1589 12.262C72.6549 11.926 71.7849 11.758 70.5489 11.758H67.5069L68.1549 4.9H75.5529V6.862H70.1349L69.8649 9.778H71.0709ZM88.8726 14.638H86.6406V17.5H84.3726V14.638H77.4606V13.018L83.6706 4.9H86.1726L80.3226 12.658H84.4446V10.12H86.6406V12.658H88.8726V14.638ZM95.0456 10.102C96.2096 10.246 97.0976 10.642 97.7096 11.29C98.3216 11.938 98.6276 12.748 98.6276 13.72C98.6276 14.452 98.4416 15.118 98.0696 15.718C97.6976 16.318 97.1336 16.798 96.3776 17.158C95.6336 17.506 94.7216 17.68 93.6416 17.68C92.7416 17.68 91.8716 17.554 91.0316 17.302C90.2036 17.038 89.4956 16.678 88.9076 16.222L89.9156 14.404C90.3716 14.788 90.9236 15.094 91.5716 15.322C92.2316 15.538 92.9096 15.646 93.6056 15.646C94.4336 15.646 95.0816 15.478 95.5496 15.142C96.0296 14.794 96.2696 14.326 96.2696 13.738C96.2696 13.15 96.0416 12.694 95.5856 12.37C95.1416 12.034 94.4576 11.866 93.5336 11.866H92.3816V10.264L95.2436 6.862H89.5196V4.9H98.1056V6.466L95.0456 10.102ZM111.202 16.942C110.95 17.158 110.638 17.326 110.266 17.446C109.894 17.554 109.51 17.608 109.114 17.608C108.154 17.608 107.41 17.35 106.882 16.834C106.354 16.318 106.09 15.58 106.09 14.62V9.382H104.47V7.96H106.09V5.872H107.818V7.96H110.554V9.382H107.818V14.548C107.818 15.064 107.944 15.46 108.196 15.736C108.46 16.012 108.832 16.15 109.312 16.15C109.84 16.15 110.29 16 110.662 15.7L111.202 16.942ZM117.061 17.608C116.113 17.608 115.261 17.398 114.505 16.978C113.749 16.558 113.155 15.982 112.723 15.25C112.303 14.506 112.093 13.666 112.093 12.73C112.093 11.794 112.303 10.96 112.723 10.228C113.155 9.484 113.749 8.908 114.505 8.5C115.261 8.08 116.113 7.87 117.061 7.87C118.009 7.87 118.855 8.08 119.599 8.5C120.355 8.908 120.943 9.484 121.363 10.228C121.795 10.96 122.011 11.794 122.011 12.73C122.011 13.666 121.795 14.506 121.363 15.25C120.943 15.982 120.355 16.558 119.599 16.978C118.855 17.398 118.009 17.608 117.061 17.608ZM117.061 16.096C117.673 16.096 118.219 15.958 118.699 15.682C119.191 15.394 119.575 14.998 119.851 14.494C120.127 13.978 120.265 13.39 120.265 12.73C120.265 12.07 120.127 11.488 119.851 10.984C119.575 10.468 119.191 10.072 118.699 9.796C118.219 9.52 117.673 9.382 117.061 9.382C116.449 9.382 115.897 9.52 115.405 9.796C114.925 10.072 114.541 10.468 114.253 10.984C113.977 11.488 113.839 12.07 113.839 12.73C113.839 13.39 113.977 13.978 114.253 14.494C114.541 14.998 114.925 15.394 115.405 15.682C115.897 15.958 116.449 16.096 117.061 16.096ZM134.599 16.942C134.347 17.158 134.035 17.326 133.663 17.446C133.291 17.554 132.907 17.608 132.511 17.608C131.551 17.608 130.807 17.35 130.279 16.834C129.751 16.318 129.487 15.58 129.487 14.62V9.382H127.867V7.96H129.487V5.872H131.215V7.96H133.951V9.382H131.215V14.548C131.215 15.064 131.341 15.46 131.593 15.736C131.857 16.012 132.229 16.15 132.709 16.15C133.237 16.15 133.687 16 134.059 15.7L134.599 16.942ZM141.782 7.87C142.994 7.87 143.954 8.224 144.662 8.932C145.382 9.628 145.742 10.654 145.742 12.01V17.5H144.014V12.208C144.014 11.284 143.792 10.588 143.348 10.12C142.904 9.652 142.268 9.418 141.44 9.418C140.504 9.418 139.766 9.694 139.226 10.246C138.686 10.786 138.416 11.566 138.416 12.586V17.5H136.688V4.144H138.416V9.31C138.776 8.854 139.244 8.5 139.82 8.248C140.408 7.996 141.062 7.87 141.782 7.87ZM157.614 12.784C157.614 12.916 157.602 13.09 157.578 13.306H149.838C149.946 14.146 150.312 14.824 150.936 15.34C151.572 15.844 152.358 16.096 153.294 16.096C154.434 16.096 155.352 15.712 156.048 14.944L157.002 16.06C156.57 16.564 156.03 16.948 155.382 17.212C154.746 17.476 154.032 17.608 153.24 17.608C152.232 17.608 151.338 17.404 150.558 16.996C149.778 16.576 149.172 15.994 148.74 15.25C148.32 14.506 148.11 13.666 148.11 12.73C148.11 11.806 148.314 10.972 148.722 10.228C149.142 9.484 149.712 8.908 150.432 8.5C151.164 8.08 151.986 7.87 152.898 7.87C153.81 7.87 154.62 8.08 155.328 8.5C156.048 8.908 156.606 9.484 157.002 10.228C157.41 10.972 157.614 11.824 157.614 12.784ZM152.898 9.328C152.07 9.328 151.374 9.58 150.81 10.084C150.258 10.588 149.934 11.248 149.838 12.064H155.958C155.862 11.26 155.532 10.606 154.968 10.102C154.416 9.586 153.726 9.328 152.898 9.328ZM169.942 7.87C171.154 7.87 172.114 8.224 172.822 8.932C173.542 9.628 173.902 10.654 173.902 12.01V17.5H172.174V12.208C172.174 11.284 171.952 10.588 171.508 10.12C171.064 9.652 170.428 9.418 169.6 9.418C168.664 9.418 167.926 9.694 167.386 10.246C166.846 10.786 166.576 11.566 166.576 12.586V17.5H164.848V7.96H166.504V9.4C166.852 8.908 167.32 8.53 167.908 8.266C168.508 8.002 169.186 7.87 169.942 7.87ZM185.775 12.784C185.775 12.916 185.763 13.09 185.739 13.306H177.999C178.107 14.146 178.473 14.824 179.097 15.34C179.733 15.844 180.519 16.096 181.455 16.096C182.595 16.096 183.513 15.712 184.209 14.944L185.163 16.06C184.731 16.564 184.191 16.948 183.543 17.212C182.907 17.476 182.193 17.608 181.401 17.608C180.393 17.608 179.499 17.404 178.719 16.996C177.939 16.576 177.333 15.994 176.901 15.25C176.481 14.506 176.271 13.666 176.271 12.73C176.271 11.806 176.475 10.972 176.883 10.228C177.303 9.484 177.873 8.908 178.593 8.5C179.325 8.08 180.147 7.87 181.059 7.87C181.971 7.87 182.781 8.08 183.489 8.5C184.209 8.908 184.767 9.484 185.163 10.228C185.571 10.972 185.775 11.824 185.775 12.784ZM181.059 9.328C180.231 9.328 179.535 9.58 178.971 10.084C178.419 10.588 178.095 11.248 177.999 12.064H184.119C184.023 11.26 183.693 10.606 183.129 10.102C182.577 9.586 181.887 9.328 181.059 9.328ZM191.384 7.87C192.704 7.87 193.712 8.194 194.408 8.842C195.116 9.49 195.47 10.456 195.47 11.74V17.5H193.832V16.24C193.544 16.684 193.13 17.026 192.59 17.266C192.062 17.494 191.432 17.608 190.7 17.608C189.632 17.608 188.774 17.35 188.126 16.834C187.49 16.318 187.172 15.64 187.172 14.8C187.172 13.96 187.478 13.288 188.09 12.784C188.702 12.268 189.674 12.01 191.006 12.01H193.742V11.668C193.742 10.924 193.526 10.354 193.094 9.958C192.662 9.562 192.026 9.364 191.186 9.364C190.622 9.364 190.07 9.46 189.53 9.652C188.99 9.832 188.534 10.078 188.162 10.39L187.442 9.094C187.934 8.698 188.522 8.398 189.206 8.194C189.89 7.978 190.616 7.87 191.384 7.87ZM190.988 16.276C191.648 16.276 192.218 16.132 192.698 15.844C193.178 15.544 193.526 15.124 193.742 14.584V13.252H191.078C189.614 13.252 188.882 13.744 188.882 14.728C188.882 15.208 189.068 15.586 189.44 15.862C189.812 16.138 190.328 16.276 190.988 16.276ZM200.324 9.562C200.624 9.01 201.068 8.59 201.656 8.302C202.244 8.014 202.958 7.87 203.798 7.87V9.544C203.702 9.532 203.57 9.526 203.402 9.526C202.466 9.526 201.728 9.808 201.188 10.372C200.66 10.924 200.396 11.716 200.396 12.748V17.5H198.668V7.96H200.324V9.562ZM214.462 12.784C214.462 12.916 214.45 13.09 214.426 13.306H206.686C206.794 14.146 207.16 14.824 207.784 15.34C208.42 15.844 209.206 16.096 210.142 16.096C211.282 16.096 212.2 15.712 212.896 14.944L213.85 16.06C213.418 16.564 212.878 16.948 212.23 17.212C211.594 17.476 210.88 17.608 210.088 17.608C209.08 17.608 208.186 17.404 207.406 16.996C206.626 16.576 206.02 15.994 205.588 15.25C205.168 14.506 204.958 13.666 204.958 12.73C204.958 11.806 205.162 10.972 205.57 10.228C205.99 9.484 206.56 8.908 207.28 8.5C208.012 8.08 208.834 7.87 209.746 7.87C210.658 7.87 211.468 8.08 212.176 8.5C212.896 8.908 213.454 9.484 213.85 10.228C214.258 10.972 214.462 11.824 214.462 12.784ZM209.746 9.328C208.918 9.328 208.222 9.58 207.658 10.084C207.106 10.588 206.782 11.248 206.686 12.064H212.806C212.71 11.26 212.38 10.606 211.816 10.102C211.264 9.586 210.574 9.328 209.746 9.328ZM219.598 17.608C218.818 17.608 218.068 17.506 217.348 17.302C216.628 17.086 216.064 16.816 215.656 16.492L216.376 15.124C216.796 15.424 217.306 15.664 217.906 15.844C218.506 16.024 219.112 16.114 219.724 16.114C221.236 16.114 221.992 15.682 221.992 14.818C221.992 14.53 221.89 14.302 221.686 14.134C221.482 13.966 221.224 13.846 220.912 13.774C220.612 13.69 220.18 13.6 219.616 13.504C218.848 13.384 218.218 13.246 217.726 13.09C217.246 12.934 216.832 12.67 216.484 12.298C216.136 11.926 215.962 11.404 215.962 10.732C215.962 9.868 216.322 9.178 217.042 8.662C217.762 8.134 218.728 7.87 219.94 7.87C220.576 7.87 221.212 7.948 221.848 8.104C222.484 8.26 223.006 8.47 223.414 8.734L222.676 10.102C221.896 9.598 220.978 9.346 219.922 9.346C219.19 9.346 218.632 9.466 218.248 9.706C217.864 9.946 217.672 10.264 217.672 10.66C217.672 10.972 217.78 11.218 217.996 11.398C218.212 11.578 218.476 11.71 218.788 11.794C219.112 11.878 219.562 11.974 220.138 12.082C220.906 12.214 221.524 12.358 221.992 12.514C222.472 12.658 222.88 12.91 223.216 13.27C223.552 13.63 223.72 14.134 223.72 14.782C223.72 15.646 223.348 16.336 222.604 16.852C221.872 17.356 220.87 17.608 219.598 17.608ZM231.243 16.942C230.991 17.158 230.679 17.326 230.307 17.446C229.935 17.554 229.551 17.608 229.155 17.608C228.195 17.608 227.451 17.35 226.923 16.834C226.395 16.318 226.131 15.58 226.131 14.62V9.382H224.511V7.96H226.131V5.872H227.859V7.96H230.595V9.382H227.859V14.548C227.859 15.064 227.985 15.46 228.237 15.736C228.501 16.012 228.873 16.15 229.353 16.15C229.881 16.15 230.331 16 230.703 15.7L231.243 16.942ZM243.71 7.672C244.91 7.672 245.876 8.032 246.608 8.752C247.352 9.472 247.724 10.54 247.724 11.956V17.5H244.916V12.388C244.916 11.62 244.748 11.05 244.412 10.678C244.076 10.294 243.59 10.102 242.954 10.102C242.246 10.102 241.682 10.324 241.262 10.768C240.842 11.2 240.632 11.848 240.632 12.712V17.5H237.824V4.144H240.632V8.824C241.004 8.452 241.454 8.17 241.982 7.978C242.51 7.774 243.086 7.672 243.71 7.672ZM260.026 7.816V17.5H257.362V16.348C256.99 16.768 256.546 17.092 256.03 17.32C255.514 17.536 254.956 17.644 254.356 17.644C253.084 17.644 252.076 17.278 251.332 16.546C250.588 15.814 250.216 14.728 250.216 13.288V7.816H253.024V12.874C253.024 14.434 253.678 15.214 254.986 15.214C255.658 15.214 256.198 14.998 256.606 14.566C257.014 14.122 257.218 13.468 257.218 12.604V7.816H260.026ZM268.513 7.672C269.713 7.672 270.679 8.032 271.411 8.752C272.155 9.472 272.527 10.54 272.527 11.956V17.5H269.719V12.388C269.719 11.62 269.551 11.05 269.215 10.678C268.879 10.294 268.393 10.102 267.757 10.102C267.049 10.102 266.485 10.324 266.065 10.768C265.645 11.2 265.435 11.848 265.435 12.712V17.5H262.627V7.816H265.309V8.95C265.681 8.542 266.143 8.23 266.695 8.014C267.247 7.786 267.853 7.672 268.513 7.672ZM285.042 4.144V17.5H282.36V16.384C281.664 17.224 280.656 17.644 279.336 17.644C278.424 17.644 277.596 17.44 276.852 17.032C276.12 16.624 275.544 16.042 275.124 15.286C274.704 14.53 274.494 13.654 274.494 12.658C274.494 11.662 274.704 10.786 275.124 10.03C275.544 9.274 276.12 8.692 276.852 8.284C277.596 7.876 278.424 7.672 279.336 7.672C280.572 7.672 281.538 8.062 282.234 8.842V4.144H285.042ZM279.822 15.34C280.53 15.34 281.118 15.1 281.586 14.62C282.054 14.128 282.288 13.474 282.288 12.658C282.288 11.842 282.054 11.194 281.586 10.714C281.118 10.222 280.53 9.976 279.822 9.976C279.102 9.976 278.508 10.222 278.04 10.714C277.572 11.194 277.338 11.842 277.338 12.658C277.338 13.474 277.572 14.128 278.04 14.62C278.508 15.1 279.102 15.34 279.822 15.34ZM290.323 9.094C290.659 8.626 291.109 8.272 291.673 8.032C292.249 7.792 292.909 7.672 293.653 7.672V10.264C293.341 10.24 293.131 10.228 293.023 10.228C292.219 10.228 291.589 10.456 291.133 10.912C290.677 11.356 290.449 12.028 290.449 12.928V17.5H287.641V7.816H290.323V9.094ZM304.72 12.694C304.72 12.73 304.702 12.982 304.666 13.45H297.34C297.472 14.05 297.784 14.524 298.276 14.872C298.768 15.22 299.38 15.394 300.112 15.394C300.616 15.394 301.06 15.322 301.444 15.178C301.84 15.022 302.206 14.782 302.542 14.458L304.036 16.078C303.124 17.122 301.792 17.644 300.04 17.644C298.948 17.644 297.982 17.434 297.142 17.014C296.302 16.582 295.654 15.988 295.198 15.232C294.742 14.476 294.514 13.618 294.514 12.658C294.514 11.71 294.736 10.858 295.18 10.102C295.636 9.334 296.254 8.74 297.034 8.32C297.826 7.888 298.708 7.672 299.68 7.672C300.628 7.672 301.486 7.876 302.254 8.284C303.022 8.692 303.622 9.28 304.054 10.048C304.498 10.804 304.72 11.686 304.72 12.694ZM299.698 9.796C299.062 9.796 298.528 9.976 298.096 10.336C297.664 10.696 297.4 11.188 297.304 11.812H302.074C301.978 11.2 301.714 10.714 301.282 10.354C300.85 9.982 300.322 9.796 299.698 9.796ZM316.454 4.144V17.5H313.772V16.384C313.076 17.224 312.068 17.644 310.748 17.644C309.836 17.644 309.008 17.44 308.264 17.032C307.532 16.624 306.956 16.042 306.536 15.286C306.116 14.53 305.906 13.654 305.906 12.658C305.906 11.662 306.116 10.786 306.536 10.03C306.956 9.274 307.532 8.692 308.264 8.284C309.008 7.876 309.836 7.672 310.748 7.672C311.984 7.672 312.95 8.062 313.646 8.842V4.144H316.454ZM311.234 15.34C311.942 15.34 312.53 15.1 312.998 14.62C313.466 14.128 313.7 13.474 313.7 12.658C313.7 11.842 313.466 11.194 312.998 10.714C312.53 10.222 311.942 9.976 311.234 9.976C310.514 9.976 309.92 10.222 309.452 10.714C308.984 11.194 308.75 11.842 308.75 12.658C308.75 13.474 308.984 14.128 309.452 14.62C309.92 15.1 310.514 15.34 311.234 15.34Z" fill="#2F2F2F"/>
<path d="M236.528 19.3H317.75V20.2H236.528V19.3Z" fill="#2F2F2F"/>
<path d="M325.513 10.336C325.177 10.336 324.889 10.222 324.649 9.994C324.409 9.754 324.289 9.454 324.289 9.094C324.289 8.746 324.409 8.458 324.649 8.23C324.889 7.99 325.177 7.87 325.513 7.87C325.849 7.87 326.131 7.984 326.359 8.212C326.587 8.44 326.701 8.734 326.701 9.094C326.701 9.454 326.581 9.754 326.341 9.994C326.113 10.222 325.837 10.336 325.513 10.336ZM325.513 17.608C325.177 17.608 324.889 17.494 324.649 17.266C324.409 17.026 324.289 16.726 324.289 16.366C324.289 16.018 324.409 15.73 324.649 15.502C324.889 15.262 325.177 15.142 325.513 15.142C325.849 15.142 326.131 15.256 326.359 15.484C326.587 15.712 326.701 16.006 326.701 16.366C326.701 16.726 326.581 17.026 326.341 17.266C326.113 17.494 325.837 17.608 325.513 17.608Z" fill="#2F2F2F"/>
</svg>
