<svg width="222" height="30" viewBox="0 0 222 30" fill="none" xmlns="http://www.w3.org/2000/svg">
<path d="M30.6639 17.904H28.2699V21H26.5239V17.904H19.5219V16.644L25.9659 8.4H27.9099L21.7359 16.356H26.5779V13.62H28.2699V16.356H30.6639V17.904ZM35.2902 13.422C37.0902 13.422 38.4102 13.764 39.2502 14.448C40.1022 15.12 40.5282 16.044 40.5282 17.22C40.5282 17.964 40.3482 18.636 39.9882 19.236C39.6402 19.824 39.1062 20.292 38.3862 20.64C37.6782 20.976 36.8022 21.144 35.7582 21.144C34.8702 21.144 34.0122 21.012 33.1842 20.748C32.3562 20.472 31.6722 20.094 31.1322 19.614L31.9602 18.192C32.3922 18.6 32.9442 18.93 33.6162 19.182C34.2882 19.422 34.9962 19.542 35.7402 19.542C36.6882 19.542 37.4202 19.344 37.9362 18.948C38.4642 18.54 38.7282 17.988 38.7282 17.292C38.7282 16.536 38.4402 15.966 37.8642 15.582C37.2882 15.186 36.3042 14.988 34.9122 14.988H32.0502L32.7162 8.4H39.8262V9.966H34.2282L33.8862 13.422H35.2902Z" fill="#2F2F2F"/>
<path d="M5 1H55V-1H5V1ZM59 5V25H61V5H59ZM55 29H5V31H55V29ZM1 25V5H-1V25H1ZM5 29C2.79086 29 1 27.2091 1 25H-1C-1 28.3137 1.68629 31 5 31V29ZM59 25C59 27.2091 57.2091 29 55 29V31C58.3137 31 61 28.3137 61 25H59ZM55 1C57.2091 1 59 2.79086 59 5H61C61 1.68629 58.3137 -1 55 -1V1ZM5 -1C1.68629 -1 -1 1.68629 -1 5H1C1 2.79086 2.79086 1 5 1V-1Z" fill="#2F2F2F"/>
<path d="M70.4997 12.234C70.2117 12.234 69.9657 12.132 69.7617 11.928C69.5697 11.712 69.4737 11.454 69.4737 11.154C69.4737 10.842 69.5697 10.584 69.7617 10.38C69.9657 10.176 70.2117 10.074 70.4997 10.074C70.7997 10.074 71.0457 10.176 71.2377 10.38C71.4417 10.584 71.5437 10.842 71.5437 11.154C71.5437 11.466 71.4417 11.724 71.2377 11.928C71.0457 12.132 70.7997 12.234 70.4997 12.234ZM66.4677 13.998H74.5317V15.42H66.4677V13.998ZM70.4997 19.326C70.2117 19.326 69.9657 19.224 69.7617 19.02C69.5697 18.804 69.4737 18.54 69.4737 18.228C69.4737 17.928 69.5697 17.676 69.7617 17.472C69.9657 17.268 70.2117 17.166 70.4997 17.166C70.7997 17.166 71.0457 17.268 71.2377 17.472C71.4417 17.676 71.5437 17.928 71.5437 18.228C71.5437 18.54 71.4417 18.804 71.2377 19.02C71.0457 19.224 70.7997 19.326 70.4997 19.326Z" fill="#2F2F2F"/>
<path d="M110.296 13.422C112.096 13.422 113.416 13.764 114.256 14.448C115.108 15.12 115.534 16.044 115.534 17.22C115.534 17.964 115.354 18.636 114.994 19.236C114.646 19.824 114.112 20.292 113.392 20.64C112.684 20.976 111.808 21.144 110.764 21.144C109.876 21.144 109.018 21.012 108.19 20.748C107.362 20.472 106.678 20.094 106.138 19.614L106.966 18.192C107.398 18.6 107.95 18.93 108.622 19.182C109.294 19.422 110.002 19.542 110.746 19.542C111.694 19.542 112.426 19.344 112.942 18.948C113.47 18.54 113.734 17.988 113.734 17.292C113.734 16.536 113.446 15.966 112.87 15.582C112.294 15.186 111.31 14.988 109.918 14.988H107.056L107.722 8.4H114.832V9.966H109.234L108.892 13.422H110.296Z" fill="#2F2F2F"/>
<path d="M86 1H136V-1H86V1ZM140 5V25H142V5H140ZM136 29H86V31H136V29ZM82 25V5H80V25H82ZM86 29C83.7909 29 82 27.2091 82 25H80C80 28.3137 82.6863 31 86 31V29ZM140 25C140 27.2091 138.209 29 136 29V31C139.314 31 142 28.3137 142 25H140ZM136 1C138.209 1 140 2.79086 140 5H142C142 1.68629 139.314 -1 136 -1V1ZM86 -1C82.6863 -1 80 1.68629 80 5H82C82 2.79086 83.7909 1 86 1V-1Z" fill="#2F2F2F"/>
<path d="M147.468 11.856H155.532V13.278H147.468V11.856ZM147.468 16.122H155.532V17.544H147.468V16.122Z" fill="#2F2F2F"/>
<path d="M191.395 8.256C193.087 8.256 194.389 8.802 195.301 9.894C196.225 10.986 196.687 12.534 196.687 14.538C196.687 15.942 196.435 17.142 195.931 18.138C195.439 19.122 194.743 19.872 193.843 20.388C192.955 20.892 191.917 21.144 190.729 21.144C190.117 21.144 189.541 21.084 189.001 20.964C188.461 20.832 187.993 20.646 187.597 20.406L188.281 19.002C188.893 19.398 189.703 19.596 190.711 19.596C192.019 19.596 193.039 19.194 193.771 18.39C194.515 17.574 194.887 16.392 194.887 14.844V14.394C194.527 14.934 194.029 15.348 193.393 15.636C192.757 15.912 192.043 16.05 191.251 16.05C190.423 16.05 189.679 15.894 189.019 15.582C188.371 15.27 187.861 14.826 187.489 14.25C187.129 13.662 186.949 12.99 186.949 12.234C186.949 11.442 187.141 10.746 187.525 10.146C187.921 9.546 188.455 9.084 189.127 8.76C189.799 8.424 190.555 8.256 191.395 8.256ZM191.557 14.592C192.121 14.592 192.625 14.484 193.069 14.268C193.513 14.052 193.855 13.758 194.095 13.386C194.347 13.014 194.473 12.6 194.473 12.144C194.473 11.7 194.353 11.298 194.113 10.938C193.885 10.566 193.543 10.272 193.087 10.056C192.643 9.828 192.103 9.714 191.467 9.714C190.639 9.714 189.967 9.936 189.451 10.38C188.947 10.824 188.695 11.418 188.695 12.162C188.695 12.906 188.953 13.5 189.469 13.944C189.985 14.376 190.681 14.592 191.557 14.592Z" fill="#2F2F2F"/>
<path d="M167 1H217V-1H167V1ZM221 5V25H223V5H221ZM217 29H167V31H217V29ZM163 25V5H161V25H163ZM167 29C164.791 29 163 27.2091 163 25H161C161 28.3137 163.686 31 167 31V29ZM221 25C221 27.2091 219.209 29 217 29V31C220.314 31 223 28.3137 223 25H221ZM217 1C219.209 1 221 2.79086 221 5H223C223 1.68629 220.314 -1 217 -1V1ZM167 -1C163.686 -1 161 1.68629 161 5H163C163 2.79086 164.791 1 167 1V-1Z" fill="#2F2F2F"/>
</svg>
