<svg width="450" height="45" viewBox="0 0 450 45" fill="none" xmlns="http://www.w3.org/2000/svg">
<path d="M0 5C0 2.23858 2.23858 0 5 0H85C87.7614 0 90 2.23858 90 5V40C90 42.7614 87.7614 45 85 45H5C2.23858 45 0 42.7614 0 40V5Z" fill="#369CB7"/>
<path d="M26.6548 15.9V28.5H24.8728V17.466H22.0288V15.9H26.6548ZM39.1769 28.608C38.2049 28.608 37.3349 28.398 36.5669 27.978C35.8109 27.558 35.2169 26.982 34.7849 26.25C34.3529 25.506 34.1369 24.666 34.1369 23.73C34.1369 22.794 34.3529 21.96 34.7849 21.228C35.2169 20.484 35.8109 19.908 36.5669 19.5C37.3349 19.08 38.2049 18.87 39.1769 18.87C40.0409 18.87 40.8089 19.044 41.4809 19.392C42.1649 19.74 42.6929 20.244 43.0649 20.904L41.7509 21.75C41.4509 21.294 41.0789 20.952 40.6349 20.724C40.1909 20.496 39.6989 20.382 39.1589 20.382C38.5349 20.382 37.9709 20.52 37.4669 20.796C36.9749 21.072 36.5849 21.468 36.2969 21.984C36.0209 22.488 35.8829 23.07 35.8829 23.73C35.8829 24.402 36.0209 24.996 36.2969 25.512C36.5849 26.016 36.9749 26.406 37.4669 26.682C37.9709 26.958 38.5349 27.096 39.1589 27.096C39.6989 27.096 40.1909 26.982 40.6349 26.754C41.0789 26.526 41.4509 26.184 41.7509 25.728L43.0649 26.556C42.6929 27.216 42.1649 27.726 41.4809 28.086C40.8089 28.434 40.0409 28.608 39.1769 28.608ZM54.1941 18.96V28.5H52.5561V27.06C52.2081 27.552 51.7461 27.936 51.1701 28.212C50.6061 28.476 49.9881 28.608 49.3161 28.608C48.0441 28.608 47.0421 28.26 46.3101 27.564C45.5781 26.856 45.2121 25.818 45.2121 24.45V18.96H46.9401V24.252C46.9401 25.176 47.1621 25.878 47.6061 26.358C48.0501 26.826 48.6861 27.06 49.5141 27.06C50.4261 27.06 51.1461 26.784 51.6741 26.232C52.2021 25.68 52.4661 24.9 52.4661 23.892V18.96H54.1941ZM62.5417 18.87C63.4657 18.87 64.2937 19.074 65.0257 19.482C65.7577 19.89 66.3277 20.46 66.7357 21.192C67.1557 21.924 67.3657 22.77 67.3657 23.73C67.3657 24.69 67.1557 25.542 66.7357 26.286C66.3277 27.018 65.7577 27.588 65.0257 27.996C64.2937 28.404 63.4657 28.608 62.5417 28.608C61.8577 28.608 61.2277 28.476 60.6517 28.212C60.0877 27.948 59.6077 27.564 59.2117 27.06V31.992H57.4837V18.96H59.1397V20.472C59.5237 19.944 60.0097 19.548 60.5977 19.284C61.1857 19.008 61.8337 18.87 62.5417 18.87ZM62.3977 27.096C63.0097 27.096 63.5557 26.958 64.0357 26.682C64.5277 26.394 64.9117 25.998 65.1877 25.494C65.4757 24.978 65.6197 24.39 65.6197 23.73C65.6197 23.07 65.4757 22.488 65.1877 21.984C64.9117 21.468 64.5277 21.072 64.0357 20.796C63.5557 20.52 63.0097 20.382 62.3977 20.382C61.7977 20.382 61.2517 20.526 60.7597 20.814C60.2797 21.09 59.8957 21.48 59.6077 21.984C59.3317 22.488 59.1937 23.07 59.1937 23.73C59.1937 24.39 59.3317 24.978 59.6077 25.494C59.8837 25.998 60.2677 26.394 60.7597 26.682C61.2517 26.958 61.7977 27.096 62.3977 27.096Z" fill="white"/>
<path d="M5 1H85V-1H5V1ZM89 5V40H91V5H89ZM85 44H5V46H85V44ZM1 40V5H-1V40H1ZM5 44C2.79086 44 1 42.2091 1 40H-1C-1 43.3137 1.68629 46 5 46V44ZM89 40C89 42.2091 87.2091 44 85 44V46C88.3137 46 91 43.3137 91 40H89ZM85 1C87.2091 1 89 2.79086 89 5H91C91 1.68629 88.3137 -1 85 -1V1ZM5 -1C1.68629 -1 -1 1.68629 -1 5H1C1 2.79086 2.79086 1 5 1V-1Z" fill="#369CB7"/>
<path d="M120 5C120 2.23858 122.239 0 125 0H205C207.761 0 210 2.23858 210 5V40C210 42.7614 207.761 45 205 45H125C122.239 45 120 42.7614 120 40V5Z" fill="#369CB7"/>
<path d="M145.521 15.9V28.5H143.739V17.466H140.895V15.9H145.521ZM158.943 18.87C159.867 18.87 160.695 19.074 161.427 19.482C162.159 19.89 162.729 20.46 163.137 21.192C163.557 21.924 163.767 22.77 163.767 23.73C163.767 24.69 163.557 25.542 163.137 26.286C162.729 27.018 162.159 27.588 161.427 27.996C160.695 28.404 159.867 28.608 158.943 28.608C158.259 28.608 157.629 28.476 157.053 28.212C156.489 27.948 156.009 27.564 155.613 27.06V31.992H153.885V18.96H155.541V20.472C155.925 19.944 156.411 19.548 156.999 19.284C157.587 19.008 158.235 18.87 158.943 18.87ZM158.799 27.096C159.411 27.096 159.957 26.958 160.437 26.682C160.929 26.394 161.313 25.998 161.589 25.494C161.877 24.978 162.021 24.39 162.021 23.73C162.021 23.07 161.877 22.488 161.589 21.984C161.313 21.468 160.929 21.072 160.437 20.796C159.957 20.52 159.411 20.382 158.799 20.382C158.199 20.382 157.653 20.526 157.161 20.814C156.681 21.09 156.297 21.48 156.009 21.984C155.733 22.488 155.595 23.07 155.595 23.73C155.595 24.39 155.733 24.978 156.009 25.494C156.285 25.998 156.669 26.394 157.161 26.682C157.653 26.958 158.199 27.096 158.799 27.096ZM166.155 18.96H167.883V28.5H166.155V18.96ZM167.019 17.124C166.683 17.124 166.401 17.016 166.173 16.8C165.957 16.584 165.849 16.32 165.849 16.008C165.849 15.696 165.957 15.432 166.173 15.216C166.401 14.988 166.683 14.874 167.019 14.874C167.355 14.874 167.631 14.982 167.847 15.198C168.075 15.402 168.189 15.66 168.189 15.972C168.189 16.296 168.075 16.572 167.847 16.8C167.631 17.016 167.355 17.124 167.019 17.124ZM176.276 18.87C177.488 18.87 178.448 19.224 179.156 19.932C179.876 20.628 180.236 21.654 180.236 23.01V28.5H178.508V23.208C178.508 22.284 178.286 21.588 177.842 21.12C177.398 20.652 176.762 20.418 175.934 20.418C174.998 20.418 174.26 20.694 173.72 21.246C173.18 21.786 172.91 22.566 172.91 23.586V28.5H171.182V18.96H172.838V20.4C173.186 19.908 173.654 19.53 174.242 19.266C174.842 19.002 175.52 18.87 176.276 18.87ZM188.798 27.942C188.546 28.158 188.234 28.326 187.862 28.446C187.49 28.554 187.106 28.608 186.71 28.608C185.75 28.608 185.006 28.35 184.478 27.834C183.95 27.318 183.686 26.58 183.686 25.62V20.382H182.066V18.96H183.686V16.872H185.414V18.96H188.15V20.382H185.414V25.548C185.414 26.064 185.54 26.46 185.792 26.736C186.056 27.012 186.428 27.15 186.908 27.15C187.436 27.15 187.886 27 188.258 26.7L188.798 27.942Z" fill="white"/>
<path d="M125 1H205V-1H125V1ZM209 5V40H211V5H209ZM205 44H125V46H205V44ZM121 40V5H119V40H121ZM125 44C122.791 44 121 42.2091 121 40H119C119 43.3137 121.686 46 125 46V44ZM209 40C209 42.2091 207.209 44 205 44V46C208.314 46 211 43.3137 211 40H209ZM205 1C207.209 1 209 2.79086 209 5H211C211 1.68629 208.314 -1 205 -1V1ZM125 -1C121.686 -1 119 1.68629 119 5H121C121 2.79086 122.791 1 125 1V-1Z" fill="#369CB7"/>
<path d="M240 5C240 2.23858 242.239 0 245 0H325C327.761 0 330 2.23858 330 5V40C330 42.7614 327.761 45 325 45H245C242.239 45 240 42.7614 240 40V5Z" fill="#369CB7"/>
<path d="M258.868 15.9V28.5H257.086V17.466H254.242V15.9H258.868ZM276.232 18.96V31.992H274.504V27.06C274.108 27.564 273.622 27.948 273.046 28.212C272.482 28.476 271.858 28.608 271.174 28.608C270.25 28.608 269.422 28.404 268.69 27.996C267.958 27.588 267.382 27.018 266.962 26.286C266.554 25.542 266.35 24.69 266.35 23.73C266.35 22.77 266.554 21.924 266.962 21.192C267.382 20.46 267.958 19.89 268.69 19.482C269.422 19.074 270.25 18.87 271.174 18.87C271.882 18.87 272.53 19.008 273.118 19.284C273.706 19.548 274.192 19.944 274.576 20.472V18.96H276.232ZM271.318 27.096C271.918 27.096 272.464 26.958 272.956 26.682C273.448 26.394 273.832 25.998 274.108 25.494C274.384 24.978 274.522 24.39 274.522 23.73C274.522 23.07 274.378 22.488 274.09 21.984C273.814 21.48 273.43 21.09 272.938 20.814C272.458 20.526 271.918 20.382 271.318 20.382C270.706 20.382 270.154 20.52 269.662 20.796C269.182 21.072 268.798 21.468 268.51 21.984C268.234 22.488 268.096 23.07 268.096 23.73C268.096 24.39 268.234 24.978 268.51 25.494C268.798 25.998 269.182 26.394 269.662 26.682C270.154 26.958 270.706 27.096 271.318 27.096ZM288.393 18.96V28.5H286.755V27.06C286.407 27.552 285.945 27.936 285.369 28.212C284.805 28.476 284.187 28.608 283.515 28.608C282.243 28.608 281.241 28.26 280.509 27.564C279.777 26.856 279.411 25.818 279.411 24.45V18.96H281.139V24.252C281.139 25.176 281.361 25.878 281.805 26.358C282.249 26.826 282.885 27.06 283.713 27.06C284.625 27.06 285.345 26.784 285.873 26.232C286.401 25.68 286.665 24.9 286.665 23.892V18.96H288.393ZM295.157 18.87C296.477 18.87 297.485 19.194 298.181 19.842C298.889 20.49 299.243 21.456 299.243 22.74V28.5H297.605V27.24C297.317 27.684 296.903 28.026 296.363 28.266C295.835 28.494 295.205 28.608 294.473 28.608C293.405 28.608 292.547 28.35 291.899 27.834C291.263 27.318 290.945 26.64 290.945 25.8C290.945 24.96 291.251 24.288 291.863 23.784C292.475 23.268 293.447 23.01 294.779 23.01H297.515V22.668C297.515 21.924 297.299 21.354 296.867 20.958C296.435 20.562 295.799 20.364 294.959 20.364C294.395 20.364 293.843 20.46 293.303 20.652C292.763 20.832 292.307 21.078 291.935 21.39L291.215 20.094C291.707 19.698 292.295 19.398 292.979 19.194C293.663 18.978 294.389 18.87 295.157 18.87ZM294.761 27.276C295.421 27.276 295.991 27.132 296.471 26.844C296.951 26.544 297.299 26.124 297.515 25.584V24.252H294.851C293.387 24.252 292.655 24.744 292.655 25.728C292.655 26.208 292.841 26.586 293.213 26.862C293.585 27.138 294.101 27.276 294.761 27.276ZM304.097 20.562C304.397 20.01 304.841 19.59 305.429 19.302C306.017 19.014 306.731 18.87 307.571 18.87V20.544C307.475 20.532 307.343 20.526 307.175 20.526C306.239 20.526 305.501 20.808 304.961 21.372C304.433 21.924 304.169 22.716 304.169 23.748V28.5H302.441V18.96H304.097V20.562ZM315.451 27.942C315.199 28.158 314.887 28.326 314.515 28.446C314.143 28.554 313.759 28.608 313.363 28.608C312.403 28.608 311.659 28.35 311.131 27.834C310.603 27.318 310.339 26.58 310.339 25.62V20.382H308.719V18.96H310.339V16.872H312.067V18.96H314.803V20.382H312.067V25.548C312.067 26.064 312.193 26.46 312.445 26.736C312.709 27.012 313.081 27.15 313.561 27.15C314.089 27.15 314.539 27 314.911 26.7L315.451 27.942Z" fill="white"/>
<path d="M245 1H325V-1H245V1ZM329 5V40H331V5H329ZM325 44H245V46H325V44ZM241 40V5H239V40H241ZM245 44C242.791 44 241 42.2091 241 40H239C239 43.3137 241.686 46 245 46V44ZM329 40C329 42.2091 327.209 44 325 44V46C328.314 46 331 43.3137 331 40H329ZM325 1C327.209 1 329 2.79086 329 5H331C331 1.68629 328.314 -1 325 -1V1ZM245 -1C241.686 -1 239 1.68629 239 5H241C241 2.79086 242.791 1 245 1V-1Z" fill="#369CB7"/>
<path d="M360 5C360 2.23858 362.239 0 365 0H445C447.761 0 450 2.23858 450 5V40C450 42.7614 447.761 45 445 45H365C362.239 45 360 42.7614 360 40V5Z" fill="#369CB7"/>
<path d="M375.563 15.9V28.5H373.781V17.466H370.937V15.9H375.563ZM393.053 18.96V27.204C393.053 28.872 392.639 30.102 391.811 30.894C390.983 31.698 389.747 32.1 388.103 32.1C387.203 32.1 386.345 31.974 385.529 31.722C384.713 31.482 384.053 31.134 383.549 30.678L384.377 29.346C384.821 29.73 385.367 30.03 386.015 30.246C386.675 30.474 387.353 30.588 388.049 30.588C389.165 30.588 389.987 30.324 390.515 29.796C391.055 29.268 391.325 28.464 391.325 27.384V26.628C390.917 27.12 390.413 27.492 389.813 27.744C389.225 27.984 388.583 28.104 387.887 28.104C386.975 28.104 386.147 27.912 385.403 27.528C384.671 27.132 384.095 26.586 383.675 25.89C383.255 25.182 383.045 24.378 383.045 23.478C383.045 22.578 383.255 21.78 383.675 21.084C384.095 20.376 384.671 19.83 385.403 19.446C386.147 19.062 386.975 18.87 387.887 18.87C388.607 18.87 389.273 19.002 389.885 19.266C390.509 19.53 391.019 19.92 391.415 20.436V18.96H393.053ZM388.085 26.592C388.709 26.592 389.267 26.46 389.759 26.196C390.263 25.932 390.653 25.566 390.929 25.098C391.217 24.618 391.361 24.078 391.361 23.478C391.361 22.554 391.055 21.81 390.443 21.246C389.831 20.67 389.045 20.382 388.085 20.382C387.113 20.382 386.321 20.67 385.709 21.246C385.097 21.81 384.791 22.554 384.791 23.478C384.791 24.078 384.929 24.618 385.205 25.098C385.493 25.566 385.883 25.932 386.375 26.196C386.879 26.46 387.449 26.592 388.085 26.592ZM399.829 18.87C401.149 18.87 402.157 19.194 402.853 19.842C403.561 20.49 403.915 21.456 403.915 22.74V28.5H402.277V27.24C401.989 27.684 401.575 28.026 401.035 28.266C400.507 28.494 399.877 28.608 399.145 28.608C398.077 28.608 397.219 28.35 396.571 27.834C395.935 27.318 395.617 26.64 395.617 25.8C395.617 24.96 395.923 24.288 396.535 23.784C397.147 23.268 398.119 23.01 399.451 23.01H402.187V22.668C402.187 21.924 401.971 21.354 401.539 20.958C401.107 20.562 400.471 20.364 399.631 20.364C399.067 20.364 398.515 20.46 397.975 20.652C397.435 20.832 396.979 21.078 396.607 21.39L395.887 20.094C396.379 19.698 396.967 19.398 397.651 19.194C398.335 18.978 399.061 18.87 399.829 18.87ZM399.433 27.276C400.093 27.276 400.663 27.132 401.143 26.844C401.623 26.544 401.971 26.124 402.187 25.584V24.252H399.523C398.059 24.252 397.327 24.744 397.327 25.728C397.327 26.208 397.513 26.586 397.885 26.862C398.257 27.138 398.773 27.276 399.433 27.276ZM407.113 15.144H408.841V28.5H407.113V15.144ZM412.14 15.144H413.868V28.5H412.14V15.144ZM421.253 28.608C420.305 28.608 419.453 28.398 418.697 27.978C417.941 27.558 417.347 26.982 416.915 26.25C416.495 25.506 416.285 24.666 416.285 23.73C416.285 22.794 416.495 21.96 416.915 21.228C417.347 20.484 417.941 19.908 418.697 19.5C419.453 19.08 420.305 18.87 421.253 18.87C422.201 18.87 423.047 19.08 423.791 19.5C424.547 19.908 425.135 20.484 425.555 21.228C425.987 21.96 426.203 22.794 426.203 23.73C426.203 24.666 425.987 25.506 425.555 26.25C425.135 26.982 424.547 27.558 423.791 27.978C423.047 28.398 422.201 28.608 421.253 28.608ZM421.253 27.096C421.865 27.096 422.411 26.958 422.891 26.682C423.383 26.394 423.767 25.998 424.043 25.494C424.319 24.978 424.457 24.39 424.457 23.73C424.457 23.07 424.319 22.488 424.043 21.984C423.767 21.468 423.383 21.072 422.891 20.796C422.411 20.52 421.865 20.382 421.253 20.382C420.641 20.382 420.089 20.52 419.597 20.796C419.117 21.072 418.733 21.468 418.445 21.984C418.169 22.488 418.031 23.07 418.031 23.73C418.031 24.39 418.169 24.978 418.445 25.494C418.733 25.998 419.117 26.394 419.597 26.682C420.089 26.958 420.641 27.096 421.253 27.096ZM433.687 18.87C434.899 18.87 435.859 19.224 436.567 19.932C437.287 20.628 437.647 21.654 437.647 23.01V28.5H435.919V23.208C435.919 22.284 435.697 21.588 435.253 21.12C434.809 20.652 434.173 20.418 433.345 20.418C432.409 20.418 431.671 20.694 431.131 21.246C430.591 21.786 430.321 22.566 430.321 23.586V28.5H428.593V18.96H430.249V20.4C430.597 19.908 431.065 19.53 431.653 19.266C432.253 19.002 432.931 18.87 433.687 18.87Z" fill="white"/>
<path d="M365 1H445V-1H365V1ZM449 5V40H451V5H449ZM445 44H365V46H445V44ZM361 40V5H359V40H361ZM365 44C362.791 44 361 42.2091 361 40H359C359 43.3137 361.686 46 365 46V44ZM449 40C449 42.2091 447.209 44 445 44V46C448.314 46 451 43.3137 451 40H449ZM445 1C447.209 1 449 2.79086 449 5H451C451 1.68629 448.314 -1 445 -1V1ZM365 -1C361.686 -1 359 1.68629 359 5H361C361 2.79086 362.791 1 365 1V-1Z" fill="#369CB7"/>
</svg>
