<svg width="90" height="45" viewBox="0 0 90 45" fill="none" xmlns="http://www.w3.org/2000/svg">
<path d="M0 5C0 2.23858 2.23858 0 5 0H85C87.7614 0 90 2.23858 90 5V40C90 42.7614 87.7614 45 85 45H5C2.23858 45 0 42.7614 0 40V5Z" fill="#369CB7"/>
<path d="M26.6548 15.9V28.5H24.8728V17.466H22.0288V15.9H26.6548ZM39.1769 28.608C38.2049 28.608 37.3349 28.398 36.5669 27.978C35.8109 27.558 35.2169 26.982 34.7849 26.25C34.3529 25.506 34.1369 24.666 34.1369 23.73C34.1369 22.794 34.3529 21.96 34.7849 21.228C35.2169 20.484 35.8109 19.908 36.5669 19.5C37.3349 19.08 38.2049 18.87 39.1769 18.87C40.0409 18.87 40.8089 19.044 41.4809 19.392C42.1649 19.74 42.6929 20.244 43.0649 20.904L41.7509 21.75C41.4509 21.294 41.0789 20.952 40.6349 20.724C40.1909 20.496 39.6989 20.382 39.1589 20.382C38.5349 20.382 37.9709 20.52 37.4669 20.796C36.9749 21.072 36.5849 21.468 36.2969 21.984C36.0209 22.488 35.8829 23.07 35.8829 23.73C35.8829 24.402 36.0209 24.996 36.2969 25.512C36.5849 26.016 36.9749 26.406 37.4669 26.682C37.9709 26.958 38.5349 27.096 39.1589 27.096C39.6989 27.096 40.1909 26.982 40.6349 26.754C41.0789 26.526 41.4509 26.184 41.7509 25.728L43.0649 26.556C42.6929 27.216 42.1649 27.726 41.4809 28.086C40.8089 28.434 40.0409 28.608 39.1769 28.608ZM54.1941 18.96V28.5H52.5561V27.06C52.2081 27.552 51.7461 27.936 51.1701 28.212C50.6061 28.476 49.9881 28.608 49.3161 28.608C48.0441 28.608 47.0421 28.26 46.3101 27.564C45.5781 26.856 45.2121 25.818 45.2121 24.45V18.96H46.9401V24.252C46.9401 25.176 47.1621 25.878 47.6061 26.358C48.0501 26.826 48.6861 27.06 49.5141 27.06C50.4261 27.06 51.1461 26.784 51.6741 26.232C52.2021 25.68 52.4661 24.9 52.4661 23.892V18.96H54.1941ZM62.5417 18.87C63.4657 18.87 64.2937 19.074 65.0257 19.482C65.7577 19.89 66.3277 20.46 66.7357 21.192C67.1557 21.924 67.3657 22.77 67.3657 23.73C67.3657 24.69 67.1557 25.542 66.7357 26.286C66.3277 27.018 65.7577 27.588 65.0257 27.996C64.2937 28.404 63.4657 28.608 62.5417 28.608C61.8577 28.608 61.2277 28.476 60.6517 28.212C60.0877 27.948 59.6077 27.564 59.2117 27.06V31.992H57.4837V18.96H59.1397V20.472C59.5237 19.944 60.0097 19.548 60.5977 19.284C61.1857 19.008 61.8337 18.87 62.5417 18.87ZM62.3977 27.096C63.0097 27.096 63.5557 26.958 64.0357 26.682C64.5277 26.394 64.9117 25.998 65.1877 25.494C65.4757 24.978 65.6197 24.39 65.6197 23.73C65.6197 23.07 65.4757 22.488 65.1877 21.984C64.9117 21.468 64.5277 21.072 64.0357 20.796C63.5557 20.52 63.0097 20.382 62.3977 20.382C61.7977 20.382 61.2517 20.526 60.7597 20.814C60.2797 21.09 59.8957 21.48 59.6077 21.984C59.3317 22.488 59.1937 23.07 59.1937 23.73C59.1937 24.39 59.3317 24.978 59.6077 25.494C59.8837 25.998 60.2677 26.394 60.7597 26.682C61.2517 26.958 61.7977 27.096 62.3977 27.096Z" fill="white"/>
<path d="M5 1H85V-1H5V1ZM89 5V40H91V5H89ZM85 44H5V46H85V44ZM1 40V5H-1V40H1ZM5 44C2.79086 44 1 42.2091 1 40H-1C-1 43.3137 1.68629 46 5 46V44ZM89 40C89 42.2091 87.2091 44 85 44V46C88.3137 46 91 43.3137 91 40H89ZM85 1C87.2091 1 89 2.79086 89 5H91C91 1.68629 88.3137 -1 85 -1V1ZM5 -1C1.68629 -1 -1 1.68629 -1 5H1C1 2.79086 2.79086 1 5 1V-1Z" fill="#369CB7"/>
</svg>
