<svg width="90" height="45" viewBox="0 0 90 45" fill="none" xmlns="http://www.w3.org/2000/svg">
<path d="M0 5C0 2.23858 2.23858 0 5 0H85C87.7614 0 90 2.23858 90 5V40C90 42.7614 87.7614 45 85 45H5C2.23858 45 0 42.7614 0 40V5Z" fill="#369CB7"/>
<path d="M18.8677 15.9V28.5H17.0857V17.466H14.2417V15.9H18.8677ZM36.2318 18.96V31.992H34.5038V27.06C34.1078 27.564 33.6218 27.948 33.0458 28.212C32.4818 28.476 31.8578 28.608 31.1738 28.608C30.2498 28.608 29.4218 28.404 28.6898 27.996C27.9578 27.588 27.3818 27.018 26.9618 26.286C26.5538 25.542 26.3498 24.69 26.3498 23.73C26.3498 22.77 26.5538 21.924 26.9618 21.192C27.3818 20.46 27.9578 19.89 28.6898 19.482C29.4218 19.074 30.2498 18.87 31.1738 18.87C31.8818 18.87 32.5298 19.008 33.1178 19.284C33.7058 19.548 34.1918 19.944 34.5758 20.472V18.96H36.2318ZM31.3178 27.096C31.9178 27.096 32.4638 26.958 32.9558 26.682C33.4478 26.394 33.8318 25.998 34.1078 25.494C34.3838 24.978 34.5218 24.39 34.5218 23.73C34.5218 23.07 34.3778 22.488 34.0898 21.984C33.8138 21.48 33.4298 21.09 32.9378 20.814C32.4578 20.526 31.9178 20.382 31.3178 20.382C30.7058 20.382 30.1538 20.52 29.6618 20.796C29.1818 21.072 28.7978 21.468 28.5098 21.984C28.2338 22.488 28.0958 23.07 28.0958 23.73C28.0958 24.39 28.2338 24.978 28.5098 25.494C28.7978 25.998 29.1818 26.394 29.6618 26.682C30.1538 26.958 30.7058 27.096 31.3178 27.096ZM48.3933 18.96V28.5H46.7553V27.06C46.4073 27.552 45.9453 27.936 45.3693 28.212C44.8053 28.476 44.1873 28.608 43.5153 28.608C42.2433 28.608 41.2413 28.26 40.5093 27.564C39.7773 26.856 39.4113 25.818 39.4113 24.45V18.96H41.1393V24.252C41.1393 25.176 41.3613 25.878 41.8053 26.358C42.2493 26.826 42.8853 27.06 43.7133 27.06C44.6253 27.06 45.3453 26.784 45.8733 26.232C46.4013 25.68 46.6653 24.9 46.6653 23.892V18.96H48.3933ZM55.1569 18.87C56.4769 18.87 57.4849 19.194 58.1809 19.842C58.8889 20.49 59.2429 21.456 59.2429 22.74V28.5H57.6049V27.24C57.3169 27.684 56.9029 28.026 56.3629 28.266C55.8349 28.494 55.2049 28.608 54.4729 28.608C53.4049 28.608 52.5469 28.35 51.8989 27.834C51.2629 27.318 50.9449 26.64 50.9449 25.8C50.9449 24.96 51.2509 24.288 51.8629 23.784C52.4749 23.268 53.4469 23.01 54.7789 23.01H57.5149V22.668C57.5149 21.924 57.2989 21.354 56.8669 20.958C56.4349 20.562 55.7989 20.364 54.9589 20.364C54.3949 20.364 53.8429 20.46 53.3029 20.652C52.7629 20.832 52.3069 21.078 51.9349 21.39L51.2149 20.094C51.7069 19.698 52.2949 19.398 52.9789 19.194C53.6629 18.978 54.3889 18.87 55.1569 18.87ZM54.7609 27.276C55.4209 27.276 55.9909 27.132 56.4709 26.844C56.9509 26.544 57.2989 26.124 57.5149 25.584V24.252H54.8509C53.3869 24.252 52.6549 24.744 52.6549 25.728C52.6549 26.208 52.8409 26.586 53.2129 26.862C53.5849 27.138 54.1009 27.276 54.7609 27.276ZM64.0967 20.562C64.3967 20.01 64.8407 19.59 65.4287 19.302C66.0167 19.014 66.7307 18.87 67.5707 18.87V20.544C67.4747 20.532 67.3427 20.526 67.1747 20.526C66.2387 20.526 65.5007 20.808 64.9607 21.372C64.4327 21.924 64.1687 22.716 64.1687 23.748V28.5H62.4407V18.96H64.0967V20.562ZM75.4512 27.942C75.1992 28.158 74.8872 28.326 74.5152 28.446C74.1432 28.554 73.7592 28.608 73.3632 28.608C72.4032 28.608 71.6592 28.35 71.1312 27.834C70.6032 27.318 70.3392 26.58 70.3392 25.62V20.382H68.7192V18.96H70.3392V16.872H72.0672V18.96H74.8032V20.382H72.0672V25.548C72.0672 26.064 72.1932 26.46 72.4452 26.736C72.7092 27.012 73.0812 27.15 73.5612 27.15C74.0892 27.15 74.5392 27 74.9112 26.7L75.4512 27.942Z" fill="white"/>
<path d="M5 1H85V-1H5V1ZM89 5V40H91V5H89ZM85 44H5V46H85V44ZM1 40V5H-1V40H1ZM5 44C2.79086 44 1 42.2091 1 40H-1C-1 43.3137 1.68629 46 5 46V44ZM89 40C89 42.2091 87.2091 44 85 44V46C88.3137 46 91 43.3137 91 40H89ZM85 1C87.2091 1 89 2.79086 89 5H91C91 1.68629 88.3137 -1 85 -1V1ZM5 -1C1.68629 -1 -1 1.68629 -1 5H1C1 2.79086 2.79086 1 5 1V-1Z" fill="#369CB7"/>
</svg>
