<svg width="90" height="45" viewBox="0 0 90 45" fill="none" xmlns="http://www.w3.org/2000/svg">
<path d="M0 5C0 2.23858 2.23858 0 5 0H85C87.7614 0 90 2.23858 90 5V40C90 42.7614 87.7614 45 85 45H5C2.23858 45 0 42.7614 0 40V5Z" fill="#369CB7"/>
<path d="M15.563 15.9V28.5H13.781V17.466H10.937V15.9H15.563ZM33.0531 18.96V27.204C33.0531 28.872 32.6391 30.102 31.8111 30.894C30.9831 31.698 29.7471 32.1 28.1031 32.1C27.2031 32.1 26.3451 31.974 25.5291 31.722C24.7131 31.482 24.0531 31.134 23.5491 30.678L24.3771 29.346C24.8211 29.73 25.3671 30.03 26.0151 30.246C26.6751 30.474 27.3531 30.588 28.0491 30.588C29.1651 30.588 29.9871 30.324 30.5151 29.796C31.0551 29.268 31.3251 28.464 31.3251 27.384V26.628C30.9171 27.12 30.4131 27.492 29.8131 27.744C29.2251 27.984 28.5831 28.104 27.8871 28.104C26.9751 28.104 26.1471 27.912 25.4031 27.528C24.6711 27.132 24.0951 26.586 23.6751 25.89C23.2551 25.182 23.0451 24.378 23.0451 23.478C23.0451 22.578 23.2551 21.78 23.6751 21.084C24.0951 20.376 24.6711 19.83 25.4031 19.446C26.1471 19.062 26.9751 18.87 27.8871 18.87C28.6071 18.87 29.2731 19.002 29.8851 19.266C30.5091 19.53 31.0191 19.92 31.4151 20.436V18.96H33.0531ZM28.0851 26.592C28.7091 26.592 29.2671 26.46 29.7591 26.196C30.2631 25.932 30.6531 25.566 30.9291 25.098C31.2171 24.618 31.3611 24.078 31.3611 23.478C31.3611 22.554 31.0551 21.81 30.4431 21.246C29.8311 20.67 29.0451 20.382 28.0851 20.382C27.1131 20.382 26.3211 20.67 25.7091 21.246C25.0971 21.81 24.7911 22.554 24.7911 23.478C24.7911 24.078 24.9291 24.618 25.2051 25.098C25.4931 25.566 25.8831 25.932 26.3751 26.196C26.8791 26.46 27.4491 26.592 28.0851 26.592ZM39.8288 18.87C41.1488 18.87 42.1568 19.194 42.8528 19.842C43.5608 20.49 43.9148 21.456 43.9148 22.74V28.5H42.2768V27.24C41.9888 27.684 41.5748 28.026 41.0348 28.266C40.5068 28.494 39.8768 28.608 39.1448 28.608C38.0768 28.608 37.2188 28.35 36.5708 27.834C35.9348 27.318 35.6168 26.64 35.6168 25.8C35.6168 24.96 35.9228 24.288 36.5348 23.784C37.1468 23.268 38.1188 23.01 39.4508 23.01H42.1868V22.668C42.1868 21.924 41.9708 21.354 41.5388 20.958C41.1068 20.562 40.4708 20.364 39.6308 20.364C39.0668 20.364 38.5148 20.46 37.9748 20.652C37.4348 20.832 36.9788 21.078 36.6068 21.39L35.8868 20.094C36.3788 19.698 36.9668 19.398 37.6508 19.194C38.3348 18.978 39.0608 18.87 39.8288 18.87ZM39.4328 27.276C40.0928 27.276 40.6628 27.132 41.1428 26.844C41.6228 26.544 41.9708 26.124 42.1868 25.584V24.252H39.5228C38.0588 24.252 37.3268 24.744 37.3268 25.728C37.3268 26.208 37.5128 26.586 37.8848 26.862C38.2568 27.138 38.7728 27.276 39.4328 27.276ZM47.1126 15.144H48.8406V28.5H47.1126V15.144ZM52.14 15.144H53.868V28.5H52.14V15.144ZM61.2533 28.608C60.3053 28.608 59.4533 28.398 58.6973 27.978C57.9413 27.558 57.3473 26.982 56.9153 26.25C56.4953 25.506 56.2853 24.666 56.2853 23.73C56.2853 22.794 56.4953 21.96 56.9153 21.228C57.3473 20.484 57.9413 19.908 58.6973 19.5C59.4533 19.08 60.3053 18.87 61.2533 18.87C62.2013 18.87 63.0473 19.08 63.7913 19.5C64.5473 19.908 65.1353 20.484 65.5553 21.228C65.9873 21.96 66.2033 22.794 66.2033 23.73C66.2033 24.666 65.9873 25.506 65.5553 26.25C65.1353 26.982 64.5473 27.558 63.7913 27.978C63.0473 28.398 62.2013 28.608 61.2533 28.608ZM61.2533 27.096C61.8653 27.096 62.4113 26.958 62.8913 26.682C63.3833 26.394 63.7673 25.998 64.0433 25.494C64.3193 24.978 64.4573 24.39 64.4573 23.73C64.4573 23.07 64.3193 22.488 64.0433 21.984C63.7673 21.468 63.3833 21.072 62.8913 20.796C62.4113 20.52 61.8653 20.382 61.2533 20.382C60.6413 20.382 60.0893 20.52 59.5973 20.796C59.1173 21.072 58.7333 21.468 58.4453 21.984C58.1693 22.488 58.0313 23.07 58.0313 23.73C58.0313 24.39 58.1693 24.978 58.4453 25.494C58.7333 25.998 59.1173 26.394 59.5973 26.682C60.0893 26.958 60.6413 27.096 61.2533 27.096ZM73.6871 18.87C74.8991 18.87 75.8591 19.224 76.5671 19.932C77.2871 20.628 77.6471 21.654 77.6471 23.01V28.5H75.9191V23.208C75.9191 22.284 75.6971 21.588 75.2531 21.12C74.8091 20.652 74.1731 20.418 73.3451 20.418C72.4091 20.418 71.6711 20.694 71.1311 21.246C70.5911 21.786 70.3211 22.566 70.3211 23.586V28.5H68.5931V18.96H70.2491V20.4C70.5971 19.908 71.0651 19.53 71.6531 19.266C72.2531 19.002 72.9311 18.87 73.6871 18.87Z" fill="white"/>
<path d="M5 1H85V-1H5V1ZM89 5V40H91V5H89ZM85 44H5V46H85V44ZM1 40V5H-1V40H1ZM5 44C2.79086 44 1 42.2091 1 40H-1C-1 43.3137 1.68629 46 5 46V44ZM89 40C89 42.2091 87.2091 44 85 44V46C88.3137 46 91 43.3137 91 40H89ZM85 1C87.2091 1 89 2.79086 89 5H91C91 1.68629 88.3137 -1 85 -1V1ZM5 -1C1.68629 -1 -1 1.68629 -1 5H1C1 2.79086 2.79086 1 5 1V-1Z" fill="#369CB7"/>
</svg>
