<svg width="90" height="45" viewBox="0 0 90 45" fill="none" xmlns="http://www.w3.org/2000/svg">
<path d="M0 5C0 2.23858 2.23858 0 5 0H85C87.7614 0 90 2.23858 90 5V40C90 42.7614 87.7614 45 85 45H5C2.23858 45 0 42.7614 0 40V5Z" fill="#369CB7"/>
<path d="M25.521 15.9V28.5H23.739V17.466H20.895V15.9H25.521ZM38.9431 18.87C39.8671 18.87 40.6951 19.074 41.4271 19.482C42.1591 19.89 42.7291 20.46 43.1371 21.192C43.5571 21.924 43.7671 22.77 43.7671 23.73C43.7671 24.69 43.5571 25.542 43.1371 26.286C42.7291 27.018 42.1591 27.588 41.4271 27.996C40.6951 28.404 39.8671 28.608 38.9431 28.608C38.2591 28.608 37.6291 28.476 37.0531 28.212C36.4891 27.948 36.0091 27.564 35.6131 27.06V31.992H33.8851V18.96H35.5411V20.472C35.9251 19.944 36.4111 19.548 36.9991 19.284C37.5871 19.008 38.2351 18.87 38.9431 18.87ZM38.7991 27.096C39.4111 27.096 39.9571 26.958 40.4371 26.682C40.9291 26.394 41.3131 25.998 41.5891 25.494C41.8771 24.978 42.0211 24.39 42.0211 23.73C42.0211 23.07 41.8771 22.488 41.5891 21.984C41.3131 21.468 40.9291 21.072 40.4371 20.796C39.9571 20.52 39.4111 20.382 38.7991 20.382C38.1991 20.382 37.6531 20.526 37.1611 20.814C36.6811 21.09 36.2971 21.48 36.0091 21.984C35.7331 22.488 35.5951 23.07 35.5951 23.73C35.5951 24.39 35.7331 24.978 36.0091 25.494C36.2851 25.998 36.6691 26.394 37.1611 26.682C37.6531 26.958 38.1991 27.096 38.7991 27.096ZM46.1546 18.96H47.8826V28.5H46.1546V18.96ZM47.0186 17.124C46.6826 17.124 46.4006 17.016 46.1726 16.8C45.9566 16.584 45.8486 16.32 45.8486 16.008C45.8486 15.696 45.9566 15.432 46.1726 15.216C46.4006 14.988 46.6826 14.874 47.0186 14.874C47.3546 14.874 47.6306 14.982 47.8466 15.198C48.0746 15.402 48.1886 15.66 48.1886 15.972C48.1886 16.296 48.0746 16.572 47.8466 16.8C47.6306 17.016 47.3546 17.124 47.0186 17.124ZM56.2759 18.87C57.4879 18.87 58.4479 19.224 59.1559 19.932C59.8759 20.628 60.2359 21.654 60.2359 23.01V28.5H58.5079V23.208C58.5079 22.284 58.2859 21.588 57.8419 21.12C57.3979 20.652 56.7619 20.418 55.9339 20.418C54.9979 20.418 54.2599 20.694 53.7199 21.246C53.1799 21.786 52.9099 22.566 52.9099 23.586V28.5H51.1819V18.96H52.8379V20.4C53.1859 19.908 53.6539 19.53 54.2419 19.266C54.8419 19.002 55.5199 18.87 56.2759 18.87ZM68.7979 27.942C68.5459 28.158 68.2339 28.326 67.8619 28.446C67.4899 28.554 67.1059 28.608 66.7099 28.608C65.7499 28.608 65.0059 28.35 64.4779 27.834C63.9499 27.318 63.6859 26.58 63.6859 25.62V20.382H62.0659V18.96H63.6859V16.872H65.4139V18.96H68.1499V20.382H65.4139V25.548C65.4139 26.064 65.5399 26.46 65.7919 26.736C66.0559 27.012 66.4279 27.15 66.9079 27.15C67.4359 27.15 67.8859 27 68.2579 26.7L68.7979 27.942Z" fill="white"/>
<path d="M5 1H85V-1H5V1ZM89 5V40H91V5H89ZM85 44H5V46H85V44ZM1 40V5H-1V40H1ZM5 44C2.79086 44 1 42.2091 1 40H-1C-1 43.3137 1.68629 46 5 46V44ZM89 40C89 42.2091 87.2091 44 85 44V46C88.3137 46 91 43.3137 91 40H89ZM85 1C87.2091 1 89 2.79086 89 5H91C91 1.68629 88.3137 -1 85 -1V1ZM5 -1C1.68629 -1 -1 1.68629 -1 5H1C1 2.79086 2.79086 1 5 1V-1Z" fill="#369CB7"/>
</svg>
