<svg width="291" height="45" viewBox="0 0 291 45" fill="none" xmlns="http://www.w3.org/2000/svg">
<path d="M12.3055 25.404H9.91149V28.5H8.16549V25.404H1.16349V24.144L7.60749 15.9H9.55149L3.37749 23.856H8.21949V21.12H9.91149V23.856H12.3055V25.404Z" fill="#2F2F2F"/>
<path d="M23 5C23 2.23858 25.2386 0 28 0H88C90.7614 0 93 2.23858 93 5V40C93 42.7614 90.7614 45 88 45H28C25.2386 45 23 42.7614 23 40V5Z" fill="#369CB7"/>
<path d="M61.6749 31.5L58.0029 26.628L54.2829 31.5H51.7149L56.7309 24.996L51.9549 18.78H54.5229L58.0269 23.364L61.5069 18.78H64.0269L59.2269 24.996L64.2909 31.5H61.6749Z" fill="white"/>
<path d="M28 1H88V-1H28V1ZM92 5V40H94V5H92ZM88 44H28V46H88V44ZM24 40V5H22V40H24ZM28 44C25.7909 44 24 42.2091 24 40H22C22 43.3137 24.6863 46 28 46V44ZM92 40C92 42.2091 90.2091 44 88 44V46C91.3137 46 94 43.3137 94 40H92ZM88 1C90.2091 1 92 2.79086 92 5H94C94 1.68629 91.3137 -1 88 -1V1ZM28 -1C24.6863 -1 22 1.68629 22 5H24C24 2.79086 25.7909 1 28 1V-1Z" fill="#369CB7"/>
<path d="M109.613 20.85C110.441 20.85 111.179 21.006 111.827 21.318C112.487 21.63 113.003 22.08 113.375 22.668C113.747 23.244 113.933 23.91 113.933 24.666C113.933 25.458 113.735 26.154 113.339 26.754C112.955 27.354 112.421 27.822 111.737 28.158C111.065 28.482 110.309 28.644 109.469 28.644C107.777 28.644 106.469 28.098 105.545 27.006C104.633 25.914 104.177 24.366 104.177 22.362C104.177 20.958 104.423 19.764 104.915 18.78C105.419 17.784 106.115 17.034 107.003 16.53C107.903 16.014 108.947 15.756 110.135 15.756C110.747 15.756 111.323 15.822 111.863 15.954C112.403 16.074 112.871 16.254 113.267 16.494L112.583 17.898C111.983 17.502 111.179 17.304 110.171 17.304C108.863 17.304 107.837 17.712 107.093 18.528C106.349 19.332 105.977 20.508 105.977 22.056C105.977 22.248 105.983 22.398 105.995 22.506C106.355 21.966 106.847 21.558 107.471 21.282C108.107 20.994 108.821 20.85 109.613 20.85ZM109.397 27.186C110.225 27.186 110.897 26.964 111.413 26.52C111.929 26.076 112.187 25.482 112.187 24.738C112.187 23.994 111.923 23.406 111.395 22.974C110.879 22.53 110.183 22.308 109.307 22.308C108.743 22.308 108.239 22.416 107.795 22.632C107.363 22.848 107.021 23.142 106.769 23.514C106.529 23.886 106.409 24.3 106.409 24.756C106.409 25.2 106.523 25.608 106.751 25.98C106.991 26.34 107.333 26.634 107.777 26.862C108.233 27.078 108.773 27.186 109.397 27.186ZM120.434 28.644C119.438 28.644 118.55 28.392 117.77 27.888C117.002 27.372 116.396 26.628 115.952 25.656C115.508 24.684 115.286 23.532 115.286 22.2C115.286 20.868 115.508 19.716 115.952 18.744C116.396 17.772 117.002 17.034 117.77 16.53C118.55 16.014 119.438 15.756 120.434 15.756C121.418 15.756 122.294 16.014 123.062 16.53C123.842 17.034 124.454 17.772 124.898 18.744C125.342 19.716 125.564 20.868 125.564 22.2C125.564 23.532 125.342 24.684 124.898 25.656C124.454 26.628 123.842 27.372 123.062 27.888C122.294 28.392 121.418 28.644 120.434 28.644ZM120.434 27.042C121.442 27.042 122.246 26.628 122.846 25.8C123.458 24.972 123.764 23.772 123.764 22.2C123.764 20.628 123.458 19.428 122.846 18.6C122.246 17.772 121.442 17.358 120.434 17.358C119.414 17.358 118.598 17.772 117.986 18.6C117.386 19.428 117.086 20.628 117.086 22.2C117.086 23.772 117.386 24.972 117.986 25.8C118.598 26.628 119.414 27.042 120.434 27.042ZM132.468 19.356H140.532V20.778H132.468V19.356ZM132.468 23.622H140.532V25.044H132.468V23.622ZM152.872 20.85C153.7 20.85 154.438 21.006 155.086 21.318C155.746 21.63 156.262 22.08 156.634 22.668C157.006 23.244 157.192 23.91 157.192 24.666C157.192 25.458 156.994 26.154 156.598 26.754C156.214 27.354 155.68 27.822 154.996 28.158C154.324 28.482 153.568 28.644 152.728 28.644C151.036 28.644 149.728 28.098 148.804 27.006C147.892 25.914 147.436 24.366 147.436 22.362C147.436 20.958 147.682 19.764 148.174 18.78C148.678 17.784 149.374 17.034 150.262 16.53C151.162 16.014 152.206 15.756 153.394 15.756C154.006 15.756 154.582 15.822 155.122 15.954C155.662 16.074 156.13 16.254 156.526 16.494L155.842 17.898C155.242 17.502 154.438 17.304 153.43 17.304C152.122 17.304 151.096 17.712 150.352 18.528C149.608 19.332 149.236 20.508 149.236 22.056C149.236 22.248 149.242 22.398 149.254 22.506C149.614 21.966 150.106 21.558 150.73 21.282C151.366 20.994 152.08 20.85 152.872 20.85ZM152.656 27.186C153.484 27.186 154.156 26.964 154.672 26.52C155.188 26.076 155.446 25.482 155.446 24.738C155.446 23.994 155.182 23.406 154.654 22.974C154.138 22.53 153.442 22.308 152.566 22.308C152.002 22.308 151.498 22.416 151.054 22.632C150.622 22.848 150.28 23.142 150.028 23.514C149.788 23.886 149.668 24.3 149.668 24.756C149.668 25.2 149.782 25.608 150.01 25.98C150.25 26.34 150.592 26.634 151.036 26.862C151.492 27.078 152.032 27.186 152.656 27.186ZM163.694 28.644C162.698 28.644 161.81 28.392 161.03 27.888C160.262 27.372 159.656 26.628 159.212 25.656C158.768 24.684 158.546 23.532 158.546 22.2C158.546 20.868 158.768 19.716 159.212 18.744C159.656 17.772 160.262 17.034 161.03 16.53C161.81 16.014 162.698 15.756 163.694 15.756C164.678 15.756 165.554 16.014 166.322 16.53C167.102 17.034 167.714 17.772 168.158 18.744C168.602 19.716 168.824 20.868 168.824 22.2C168.824 23.532 168.602 24.684 168.158 25.656C167.714 26.628 167.102 27.372 166.322 27.888C165.554 28.392 164.678 28.644 163.694 28.644ZM163.694 27.042C164.702 27.042 165.506 26.628 166.106 25.8C166.718 24.972 167.024 23.772 167.024 22.2C167.024 20.628 166.718 19.428 166.106 18.6C165.506 17.772 164.702 17.358 163.694 17.358C162.674 17.358 161.858 17.772 161.246 18.6C160.646 19.428 160.346 20.628 160.346 22.2C160.346 23.772 160.646 24.972 161.246 25.8C161.858 26.628 162.674 27.042 163.694 27.042Z" fill="#2F2F2F"/>
<path d="M180 5C180 2.23858 182.239 0 185 0H245C247.761 0 250 2.23858 250 5V40C250 42.7614 247.761 45 245 45H185C182.239 45 180 42.7614 180 40V5Z" fill="#369CB7"/>
<path d="M220.546 24.3H216.298V28.5H213.73V24.3H209.482V21.9H213.73V17.7H216.298V21.9H220.546V24.3Z" fill="white"/>
<path d="M185 1H245V-1H185V1ZM249 5V40H251V5H249ZM245 44H185V46H245V44ZM181 40V5H179V40H181ZM185 44C182.791 44 181 42.2091 181 40H179C179 43.3137 181.686 46 185 46V44ZM249 40C249 42.2091 247.209 44 245 44V46C248.314 46 251 43.3137 251 40H249ZM245 1C247.209 1 249 2.79086 249 5H251C251 1.68629 248.314 -1 245 -1V1ZM185 -1C181.686 -1 179 1.68629 179 5H181C181 2.79086 182.791 1 185 1V-1Z" fill="#369CB7"/>
<path d="M265.144 15.9V28.5H263.362V17.466H260.518V15.9H265.144ZM275.604 21.894C276.324 22.17 276.876 22.566 277.26 23.082C277.644 23.598 277.836 24.216 277.836 24.936C277.836 25.692 277.632 26.352 277.224 26.916C276.816 27.468 276.234 27.894 275.478 28.194C274.722 28.494 273.834 28.644 272.814 28.644C271.806 28.644 270.924 28.494 270.168 28.194C269.424 27.894 268.848 27.468 268.44 26.916C268.032 26.352 267.828 25.692 267.828 24.936C267.828 24.216 268.014 23.598 268.386 23.082C268.77 22.566 269.322 22.17 270.042 21.894C269.466 21.618 269.028 21.252 268.728 20.796C268.428 20.34 268.278 19.8 268.278 19.176C268.278 18.48 268.464 17.874 268.836 17.358C269.22 16.842 269.754 16.446 270.438 16.17C271.122 15.894 271.914 15.756 272.814 15.756C273.726 15.756 274.524 15.894 275.208 16.17C275.904 16.446 276.438 16.842 276.81 17.358C277.194 17.874 277.386 18.48 277.386 19.176C277.386 19.788 277.23 20.328 276.918 20.796C276.618 21.252 276.18 21.618 275.604 21.894ZM272.814 17.214C271.962 17.214 271.29 17.4 270.798 17.772C270.306 18.132 270.06 18.624 270.06 19.248C270.06 19.872 270.3 20.364 270.78 20.724C271.272 21.084 271.95 21.264 272.814 21.264C273.69 21.264 274.374 21.084 274.866 20.724C275.37 20.364 275.622 19.872 275.622 19.248C275.622 18.624 275.364 18.132 274.848 17.772C274.344 17.4 273.666 17.214 272.814 17.214ZM272.814 27.186C273.81 27.186 274.596 26.982 275.172 26.574C275.748 26.154 276.036 25.59 276.036 24.882C276.036 24.186 275.748 23.64 275.172 23.244C274.596 22.836 273.81 22.632 272.814 22.632C271.818 22.632 271.038 22.836 270.474 23.244C269.91 23.64 269.628 24.186 269.628 24.882C269.628 25.59 269.91 26.154 270.474 26.574C271.038 26.982 271.818 27.186 272.814 27.186ZM284.632 28.644C283.636 28.644 282.748 28.392 281.968 27.888C281.2 27.372 280.594 26.628 280.15 25.656C279.706 24.684 279.484 23.532 279.484 22.2C279.484 20.868 279.706 19.716 280.15 18.744C280.594 17.772 281.2 17.034 281.968 16.53C282.748 16.014 283.636 15.756 284.632 15.756C285.616 15.756 286.492 16.014 287.26 16.53C288.04 17.034 288.652 17.772 289.096 18.744C289.54 19.716 289.762 20.868 289.762 22.2C289.762 23.532 289.54 24.684 289.096 25.656C288.652 26.628 288.04 27.372 287.26 27.888C286.492 28.392 285.616 28.644 284.632 28.644ZM284.632 27.042C285.64 27.042 286.444 26.628 287.044 25.8C287.656 24.972 287.962 23.772 287.962 22.2C287.962 20.628 287.656 19.428 287.044 18.6C286.444 17.772 285.64 17.358 284.632 17.358C283.612 17.358 282.796 17.772 282.184 18.6C281.584 19.428 281.284 20.628 281.284 22.2C281.284 23.772 281.584 24.972 282.184 25.8C282.796 26.628 283.612 27.042 284.632 27.042Z" fill="#2F2F2F"/>
</svg>
