<svg width="70" height="45" viewBox="0 0 70 45" fill="none" xmlns="http://www.w3.org/2000/svg">
<path d="M0 5C0 2.23858 2.23858 0 5 0H65C67.7614 0 70 2.23858 70 5V40C70 42.7614 67.7614 45 65 45H5C2.23858 45 0 42.7614 0 40V5Z" fill="#369CB7"/>
<path d="M34.9995 18.89C34.5195 18.89 34.1095 18.72 33.7695 18.38C33.4495 18.02 33.2895 17.59 33.2895 17.09C33.2895 16.57 33.4495 16.14 33.7695 15.8C34.1095 15.46 34.5195 15.29 34.9995 15.29C35.4995 15.29 35.9095 15.46 36.2295 15.8C36.5695 16.14 36.7395 16.57 36.7395 17.09C36.7395 17.61 36.5695 18.04 36.2295 18.38C35.9095 18.72 35.4995 18.89 34.9995 18.89ZM28.2795 21.83H41.7195V24.2H28.2795V21.83ZM34.9995 30.71C34.5195 30.71 34.1095 30.54 33.7695 30.2C33.4495 29.84 33.2895 29.4 33.2895 28.88C33.2895 28.38 33.4495 27.96 33.7695 27.62C34.1095 27.28 34.5195 27.11 34.9995 27.11C35.4995 27.11 35.9095 27.28 36.2295 27.62C36.5695 27.96 36.7395 28.38 36.7395 28.88C36.7395 29.4 36.5695 29.84 36.2295 30.2C35.9095 30.54 35.4995 30.71 34.9995 30.71Z" fill="white"/>
<path d="M5 1H65V-1H5V1ZM69 5V40H71V5H69ZM65 44H5V46H65V44ZM1 40V5H-1V40H1ZM5 44C2.79086 44 1 42.2091 1 40H-1C-1 43.3137 1.68629 46 5 46V44ZM69 40C69 42.2091 67.2091 44 65 44V46C68.3137 46 71 43.3137 71 40H69ZM65 1C67.2091 1 69 2.79086 69 5H71C71 1.68629 68.3137 -1 65 -1V1ZM5 -1C1.68629 -1 -1 1.68629 -1 5H1C1 2.79086 2.79086 1 5 1V-1Z" fill="#369CB7"/>
</svg>
