<svg width="193" height="45" viewBox="0 0 193 45" fill="none" xmlns="http://www.w3.org/2000/svg">
<path d="M6.51582 20.85C7.34382 20.85 8.08182 21.006 8.72982 21.318C9.38982 21.63 9.90582 22.08 10.2778 22.668C10.6498 23.244 10.8358 23.91 10.8358 24.666C10.8358 25.458 10.6378 26.154 10.2418 26.754C9.85782 27.354 9.32382 27.822 8.63982 28.158C7.96782 28.482 7.21182 28.644 6.37182 28.644C4.67982 28.644 3.37182 28.098 2.44782 27.006C1.53582 25.914 1.07982 24.366 1.07982 22.362C1.07982 20.958 1.32582 19.764 1.81782 18.78C2.32182 17.784 3.01782 17.034 3.90582 16.53C4.80582 16.014 5.84982 15.756 7.03782 15.756C7.64982 15.756 8.22582 15.822 8.76582 15.954C9.30582 16.074 9.77382 16.254 10.1698 16.494L9.48582 17.898C8.88582 17.502 8.08182 17.304 7.07382 17.304C5.76582 17.304 4.73982 17.712 3.99582 18.528C3.25182 19.332 2.87982 20.508 2.87982 22.056C2.87982 22.248 2.88582 22.398 2.89782 22.506C3.25782 21.966 3.74982 21.558 4.37382 21.282C5.00982 20.994 5.72382 20.85 6.51582 20.85ZM6.29982 27.186C7.12782 27.186 7.79982 26.964 8.31582 26.52C8.83182 26.076 9.08982 25.482 9.08982 24.738C9.08982 23.994 8.82582 23.406 8.29782 22.974C7.78182 22.53 7.08582 22.308 6.20982 22.308C5.64582 22.308 5.14182 22.416 4.69782 22.632C4.26582 22.848 3.92382 23.142 3.67182 23.514C3.43182 23.886 3.31182 24.3 3.31182 24.756C3.31182 25.2 3.42582 25.608 3.65382 25.98C3.89382 26.34 4.23582 26.634 4.67982 26.862C5.13582 27.078 5.67582 27.186 6.29982 27.186ZM21.0452 26.934V28.5H11.9912V27.276L17.1212 22.326C17.7452 21.726 18.1652 21.21 18.3812 20.778C18.5972 20.334 18.7052 19.89 18.7052 19.446C18.7052 18.786 18.4712 18.276 18.0032 17.916C17.5472 17.544 16.8872 17.358 16.0232 17.358C14.6312 17.358 13.5572 17.814 12.8012 18.726L11.5772 17.664C12.0692 17.064 12.7112 16.596 13.5032 16.26C14.3072 15.924 15.2012 15.756 16.1852 15.756C17.5052 15.756 18.5552 16.074 19.3352 16.71C20.1152 17.334 20.5052 18.186 20.5052 19.266C20.5052 19.938 20.3612 20.574 20.0732 21.174C19.7852 21.774 19.2392 22.458 18.4352 23.226L14.5832 26.934H21.0452ZM35.7651 22.92H32.4891V26.142H30.9771V22.92H27.7011V21.498H30.9771V18.258H32.4891V21.498H35.7651V22.92ZM46.5757 15.9V28.5H44.7937V17.466H41.9497V15.9H46.5757ZM54.4798 28.644C53.4838 28.644 52.5958 28.392 51.8158 27.888C51.0478 27.372 50.4418 26.628 49.9978 25.656C49.5538 24.684 49.3318 23.532 49.3318 22.2C49.3318 20.868 49.5538 19.716 49.9978 18.744C50.4418 17.772 51.0478 17.034 51.8158 16.53C52.5958 16.014 53.4838 15.756 54.4798 15.756C55.4638 15.756 56.3398 16.014 57.1078 16.53C57.8878 17.034 58.4998 17.772 58.9438 18.744C59.3878 19.716 59.6098 20.868 59.6098 22.2C59.6098 23.532 59.3878 24.684 58.9438 25.656C58.4998 26.628 57.8878 27.372 57.1078 27.888C56.3398 28.392 55.4638 28.644 54.4798 28.644ZM54.4798 27.042C55.4878 27.042 56.2918 26.628 56.8918 25.8C57.5038 24.972 57.8098 23.772 57.8098 22.2C57.8098 20.628 57.5038 19.428 56.8918 18.6C56.2918 17.772 55.4878 17.358 54.4798 17.358C53.4598 17.358 52.6438 17.772 52.0318 18.6C51.4318 19.428 51.1318 20.628 51.1318 22.2C51.1318 23.772 51.4318 24.972 52.0318 25.8C52.6438 26.628 53.4598 27.042 54.4798 27.042ZM66.5136 19.356H74.5776V20.778H66.5136V19.356ZM66.5136 23.622H74.5776V25.044H66.5136V23.622Z" fill="#2F2F2F"/>
<path d="M86 5C86 2.23858 88.2386 0 91 0H151C153.761 0 156 2.23858 156 5V40C156 42.7614 153.761 45 151 45H91C88.2386 45 86 42.7614 86 40V5Z" fill="#369CB7"/>
<path d="M115.765 20.724C116.593 20.724 117.337 20.886 117.997 21.21C118.657 21.522 119.173 21.972 119.545 22.56C119.917 23.148 120.103 23.826 120.103 24.594C120.103 25.41 119.899 26.13 119.491 26.754C119.083 27.366 118.531 27.84 117.835 28.176C117.139 28.512 116.359 28.68 115.495 28.68C113.767 28.68 112.423 28.14 111.463 27.06C110.515 25.98 110.041 24.432 110.041 22.416C110.041 21 110.299 19.794 110.815 18.798C111.331 17.79 112.051 17.028 112.975 16.512C113.911 15.984 114.991 15.72 116.215 15.72C116.863 15.72 117.469 15.792 118.033 15.936C118.609 16.068 119.107 16.266 119.527 16.53L118.663 18.294C118.039 17.886 117.241 17.682 116.269 17.682C115.057 17.682 114.109 18.054 113.425 18.798C112.741 19.542 112.399 20.616 112.399 22.02V22.038C112.771 21.606 113.245 21.282 113.821 21.066C114.397 20.838 115.045 20.724 115.765 20.724ZM115.369 26.844C116.101 26.844 116.695 26.652 117.151 26.268C117.607 25.872 117.835 25.35 117.835 24.702C117.835 24.042 117.607 23.52 117.151 23.136C116.695 22.752 116.083 22.56 115.315 22.56C114.559 22.56 113.941 22.764 113.461 23.172C112.993 23.58 112.759 24.096 112.759 24.72C112.759 25.332 112.987 25.842 113.443 26.25C113.911 26.646 114.553 26.844 115.369 26.844ZM132.558 25.638H130.326V28.5H128.058V25.638H121.146V24.018L127.356 15.9H129.858L124.008 23.658H128.13V21.12H130.326V23.658H132.558V25.638Z" fill="white"/>
<path d="M91 1H151V-1H91V1ZM155 5V40H157V5H155ZM151 44H91V46H151V44ZM87 40V5H85V40H87ZM91 44C88.7909 44 87 42.2091 87 40H85C85 43.3137 87.6863 46 91 46V44ZM155 40C155 42.2091 153.209 44 151 44V46C154.314 46 157 43.3137 157 40H155ZM151 1C153.209 1 155 2.79086 155 5H157C157 1.68629 154.314 -1 151 -1V1ZM91 -1C87.6863 -1 85 1.68629 85 5H87C87 2.79086 88.7909 1 91 1V-1Z" fill="#369CB7"/>
<path d="M175.323 22.92H172.047V26.142H170.535V22.92H167.259V21.498H170.535V18.258H172.047V21.498H175.323V22.92ZM189.931 21.894C190.651 22.17 191.203 22.566 191.587 23.082C191.971 23.598 192.163 24.216 192.163 24.936C192.163 25.692 191.959 26.352 191.551 26.916C191.143 27.468 190.561 27.894 189.805 28.194C189.049 28.494 188.161 28.644 187.141 28.644C186.133 28.644 185.251 28.494 184.495 28.194C183.751 27.894 183.175 27.468 182.767 26.916C182.359 26.352 182.155 25.692 182.155 24.936C182.155 24.216 182.341 23.598 182.713 23.082C183.097 22.566 183.649 22.17 184.369 21.894C183.793 21.618 183.355 21.252 183.055 20.796C182.755 20.34 182.605 19.8 182.605 19.176C182.605 18.48 182.791 17.874 183.163 17.358C183.547 16.842 184.081 16.446 184.765 16.17C185.449 15.894 186.241 15.756 187.141 15.756C188.053 15.756 188.851 15.894 189.535 16.17C190.231 16.446 190.765 16.842 191.137 17.358C191.521 17.874 191.713 18.48 191.713 19.176C191.713 19.788 191.557 20.328 191.245 20.796C190.945 21.252 190.507 21.618 189.931 21.894ZM187.141 17.214C186.289 17.214 185.617 17.4 185.125 17.772C184.633 18.132 184.387 18.624 184.387 19.248C184.387 19.872 184.627 20.364 185.107 20.724C185.599 21.084 186.277 21.264 187.141 21.264C188.017 21.264 188.701 21.084 189.193 20.724C189.697 20.364 189.949 19.872 189.949 19.248C189.949 18.624 189.691 18.132 189.175 17.772C188.671 17.4 187.993 17.214 187.141 17.214ZM187.141 27.186C188.137 27.186 188.923 26.982 189.499 26.574C190.075 26.154 190.363 25.59 190.363 24.882C190.363 24.186 190.075 23.64 189.499 23.244C188.923 22.836 188.137 22.632 187.141 22.632C186.145 22.632 185.365 22.836 184.801 23.244C184.237 23.64 183.955 24.186 183.955 24.882C183.955 25.59 184.237 26.154 184.801 26.574C185.365 26.982 186.145 27.186 187.141 27.186Z" fill="#2F2F2F"/>
</svg>
