<svg width="70" height="45" viewBox="0 0 70 45" fill="none" xmlns="http://www.w3.org/2000/svg">
<path d="M0 5C0 2.23858 2.23858 0 5 0H65C67.7614 0 70 2.23858 70 5V40C70 42.7614 67.7614 45 65 45H5C2.23858 45 0 42.7614 0 40V5Z" fill="#369CB7"/>
<path d="M30.6176 20.724C31.4456 20.724 32.1896 20.886 32.8496 21.21C33.5096 21.522 34.0256 21.972 34.3976 22.56C34.7696 23.148 34.9556 23.826 34.9556 24.594C34.9556 25.41 34.7516 26.13 34.3436 26.754C33.9356 27.366 33.3836 27.84 32.6876 28.176C31.9916 28.512 31.2116 28.68 30.3476 28.68C28.6196 28.68 27.2756 28.14 26.3156 27.06C25.3676 25.98 24.8936 24.432 24.8936 22.416C24.8936 21 25.1516 19.794 25.6676 18.798C26.1836 17.79 26.9036 17.028 27.8276 16.512C28.7636 15.984 29.8436 15.72 31.0676 15.72C31.7156 15.72 32.3216 15.792 32.8856 15.936C33.4616 16.068 33.9596 16.266 34.3796 16.53L33.5156 18.294C32.8916 17.886 32.0936 17.682 31.1216 17.682C29.9096 17.682 28.9616 18.054 28.2776 18.798C27.5936 19.542 27.2516 20.616 27.2516 22.02V22.038C27.6236 21.606 28.0976 21.282 28.6736 21.066C29.2496 20.838 29.8976 20.724 30.6176 20.724ZM30.2216 26.844C30.9536 26.844 31.5476 26.652 32.0036 26.268C32.4596 25.872 32.6876 25.35 32.6876 24.702C32.6876 24.042 32.4596 23.52 32.0036 23.136C31.5476 22.752 30.9356 22.56 30.1676 22.56C29.4116 22.56 28.7936 22.764 28.3136 23.172C27.8456 23.58 27.6116 24.096 27.6116 24.72C27.6116 25.332 27.8396 25.842 28.2956 26.25C28.7636 26.646 29.4056 26.844 30.2216 26.844ZM40.1207 20.778C41.8967 20.778 43.2107 21.126 44.0627 21.822C44.9147 22.506 45.3407 23.442 45.3407 24.63C45.3407 25.386 45.1547 26.07 44.7827 26.682C44.4107 27.294 43.8527 27.78 43.1087 28.14C42.3647 28.5 41.4467 28.68 40.3547 28.68C39.4547 28.68 38.5847 28.554 37.7447 28.302C36.9047 28.038 36.1967 27.678 35.6207 27.222L36.6107 25.404C37.0787 25.788 37.6367 26.094 38.2847 26.322C38.9447 26.538 39.6227 26.646 40.3187 26.646C41.1467 26.646 41.7947 26.478 42.2627 26.142C42.7427 25.794 42.9827 25.32 42.9827 24.72C42.9827 24.072 42.7247 23.586 42.2087 23.262C41.7047 22.926 40.8347 22.758 39.5987 22.758H36.5567L37.2047 15.9H44.6027V17.862H39.1847L38.9147 20.778H40.1207Z" fill="white"/>
<path d="M5 1H65V-1H5V1ZM69 5V40H71V5H69ZM65 44H5V46H65V44ZM1 40V5H-1V40H1ZM5 44C2.79086 44 1 42.2091 1 40H-1C-1 43.3137 1.68629 46 5 46V44ZM69 40C69 42.2091 67.2091 44 65 44V46C68.3137 46 71 43.3137 71 40H69ZM65 1C67.2091 1 69 2.79086 69 5H71C71 1.68629 68.3137 -1 65 -1V1ZM5 -1C1.68629 -1 -1 1.68629 -1 5H1C1 2.79086 2.79086 1 5 1V-1Z" fill="#369CB7"/>
</svg>
