<svg width="70" height="45" viewBox="0 0 70 45" fill="none" xmlns="http://www.w3.org/2000/svg">
<path d="M0 5C0 2.23858 2.23858 0 5 0H65C67.7614 0 70 2.23858 70 5V40C70 42.7614 67.7614 45 65 45H5C2.23858 45 0 42.7614 0 40V5Z" fill="#369CB7"/>
<path d="M29.765 20.724C30.593 20.724 31.337 20.886 31.997 21.21C32.657 21.522 33.173 21.972 33.545 22.56C33.917 23.148 34.103 23.826 34.103 24.594C34.103 25.41 33.899 26.13 33.491 26.754C33.083 27.366 32.531 27.84 31.835 28.176C31.139 28.512 30.359 28.68 29.495 28.68C27.767 28.68 26.423 28.14 25.463 27.06C24.515 25.98 24.041 24.432 24.041 22.416C24.041 21 24.299 19.794 24.815 18.798C25.331 17.79 26.051 17.028 26.975 16.512C27.911 15.984 28.991 15.72 30.215 15.72C30.863 15.72 31.469 15.792 32.033 15.936C32.609 16.068 33.107 16.266 33.527 16.53L32.663 18.294C32.039 17.886 31.241 17.682 30.269 17.682C29.057 17.682 28.109 18.054 27.425 18.798C26.741 19.542 26.399 20.616 26.399 22.02V22.038C26.771 21.606 27.245 21.282 27.821 21.066C28.397 20.838 29.045 20.724 29.765 20.724ZM29.369 26.844C30.101 26.844 30.695 26.652 31.151 26.268C31.607 25.872 31.835 25.35 31.835 24.702C31.835 24.042 31.607 23.52 31.151 23.136C30.695 22.752 30.083 22.56 29.315 22.56C28.559 22.56 27.941 22.764 27.461 23.172C26.993 23.58 26.759 24.096 26.759 24.72C26.759 25.332 26.987 25.842 27.443 26.25C27.911 26.646 28.553 26.844 29.369 26.844ZM46.5582 25.638H44.3262V28.5H42.0582V25.638H35.1462V24.018L41.3562 15.9H43.8582L38.0082 23.658H42.1302V21.12H44.3262V23.658H46.5582V25.638Z" fill="white"/>
<path d="M5 1H65V-1H5V1ZM69 5V40H71V5H69ZM65 44H5V46H65V44ZM1 40V5H-1V40H1ZM5 44C2.79086 44 1 42.2091 1 40H-1C-1 43.3137 1.68629 46 5 46V44ZM69 40C69 42.2091 67.2091 44 65 44V46C68.3137 46 71 43.3137 71 40H69ZM65 1C67.2091 1 69 2.79086 69 5H71C71 1.68629 68.3137 -1 65 -1V1ZM5 -1C1.68629 -1 -1 1.68629 -1 5H1C1 2.79086 2.79086 1 5 1V-1Z" fill="#369CB7"/>
</svg>
