<svg width="70" height="45" viewBox="0 0 70 45" fill="none" xmlns="http://www.w3.org/2000/svg">
<path d="M0 5C0 2.23858 2.23858 0 5 0H65C67.7614 0 70 2.23858 70 5V40C70 42.7614 67.7614 45 65 45H5C2.23858 45 0 42.7614 0 40V5Z" fill="#369CB7"/>
<path d="M30.2308 20.724C31.0588 20.724 31.8028 20.886 32.4628 21.21C33.1228 21.522 33.6388 21.972 34.0108 22.56C34.3828 23.148 34.5688 23.826 34.5688 24.594C34.5688 25.41 34.3648 26.13 33.9568 26.754C33.5488 27.366 32.9968 27.84 32.3008 28.176C31.6048 28.512 30.8248 28.68 29.9608 28.68C28.2328 28.68 26.8888 28.14 25.9288 27.06C24.9808 25.98 24.5068 24.432 24.5068 22.416C24.5068 21 24.7648 19.794 25.2808 18.798C25.7968 17.79 26.5168 17.028 27.4408 16.512C28.3768 15.984 29.4568 15.72 30.6808 15.72C31.3288 15.72 31.9348 15.792 32.4988 15.936C33.0748 16.068 33.5728 16.266 33.9928 16.53L33.1288 18.294C32.5048 17.886 31.7068 17.682 30.7348 17.682C29.5228 17.682 28.5748 18.054 27.8908 18.798C27.2068 19.542 26.8648 20.616 26.8648 22.02V22.038C27.2368 21.606 27.7108 21.282 28.2868 21.066C28.8628 20.838 29.5108 20.724 30.2308 20.724ZM29.8348 26.844C30.5668 26.844 31.1608 26.652 31.6168 26.268C32.0728 25.872 32.3008 25.35 32.3008 24.702C32.3008 24.042 32.0728 23.52 31.6168 23.136C31.1608 22.752 30.5488 22.56 29.7808 22.56C29.0248 22.56 28.4068 22.764 27.9268 23.172C27.4588 23.58 27.2248 24.096 27.2248 24.72C27.2248 25.332 27.4528 25.842 27.9088 26.25C28.3768 26.646 29.0188 26.844 29.8348 26.844ZM41.516 20.724C42.344 20.724 43.088 20.886 43.748 21.21C44.408 21.522 44.924 21.972 45.296 22.56C45.668 23.148 45.854 23.826 45.854 24.594C45.854 25.41 45.65 26.13 45.242 26.754C44.834 27.366 44.282 27.84 43.586 28.176C42.89 28.512 42.11 28.68 41.246 28.68C39.518 28.68 38.174 28.14 37.214 27.06C36.266 25.98 35.792 24.432 35.792 22.416C35.792 21 36.05 19.794 36.566 18.798C37.082 17.79 37.802 17.028 38.726 16.512C39.662 15.984 40.742 15.72 41.966 15.72C42.614 15.72 43.22 15.792 43.784 15.936C44.36 16.068 44.858 16.266 45.278 16.53L44.414 18.294C43.79 17.886 42.992 17.682 42.02 17.682C40.808 17.682 39.86 18.054 39.176 18.798C38.492 19.542 38.15 20.616 38.15 22.02V22.038C38.522 21.606 38.996 21.282 39.572 21.066C40.148 20.838 40.796 20.724 41.516 20.724ZM41.12 26.844C41.852 26.844 42.446 26.652 42.902 26.268C43.358 25.872 43.586 25.35 43.586 24.702C43.586 24.042 43.358 23.52 42.902 23.136C42.446 22.752 41.834 22.56 41.066 22.56C40.31 22.56 39.692 22.764 39.212 23.172C38.744 23.58 38.51 24.096 38.51 24.72C38.51 25.332 38.738 25.842 39.194 26.25C39.662 26.646 40.304 26.844 41.12 26.844Z" fill="white"/>
<path d="M5 1H65V-1H5V1ZM69 5V40H71V5H69ZM65 44H5V46H65V44ZM1 40V5H-1V40H1ZM5 44C2.79086 44 1 42.2091 1 40H-1C-1 43.3137 1.68629 46 5 46V44ZM69 40C69 42.2091 67.2091 44 65 44V46C68.3137 46 71 43.3137 71 40H69ZM65 1C67.2091 1 69 2.79086 69 5H71C71 1.68629 68.3137 -1 65 -1V1ZM5 -1C1.68629 -1 -1 1.68629 -1 5H1C1 2.79086 2.79086 1 5 1V-1Z" fill="#369CB7"/>
</svg>
