<svg width="155" height="30" viewBox="0 0 155 30" fill="none" xmlns="http://www.w3.org/2000/svg">
<path d="M5 1H65V-1H5V1ZM69 5V25H71V5H69ZM65 29H5V31H65V29ZM1 25V5H-1V25H1ZM5 29C2.79086 29 1 27.2091 1 25H-1C-1 28.3137 1.68629 31 5 31V29ZM69 25C69 27.2091 67.2091 29 65 29V31C68.3137 31 71 28.3137 71 25H69ZM65 1C67.2091 1 69 2.79086 69 5H71C71 1.68629 68.3137 -1 65 -1V1ZM5 -1C1.68629 -1 -1 1.68629 -1 5H1C1 2.79086 2.79086 1 5 1V-1Z" fill="#2F2F2F"/>
<path d="M93.3949 21L93.3769 12.648L89.2369 19.56H88.1929L84.0529 12.756V21H81.8209V8.4H83.7469L88.7509 16.752L93.6649 8.4H95.5909L95.6089 21H93.3949ZM98.7963 11.388H101.046V21H98.7963V11.388ZM99.9303 9.804C99.5223 9.804 99.1803 9.678 98.9043 9.426C98.6283 9.162 98.4903 8.838 98.4903 8.454C98.4903 8.07 98.6283 7.752 98.9043 7.5C99.1803 7.236 99.5223 7.104 99.9303 7.104C100.338 7.104 100.68 7.23 100.956 7.482C101.232 7.722 101.37 8.028 101.37 8.4C101.37 8.796 101.232 9.132 100.956 9.408C100.692 9.672 100.35 9.804 99.9303 9.804ZM109.453 11.28C110.665 11.28 111.637 11.634 112.369 12.342C113.101 13.05 113.467 14.1 113.467 15.492V21H111.217V15.78C111.217 14.94 111.019 14.31 110.623 13.89C110.227 13.458 109.663 13.242 108.931 13.242C108.103 13.242 107.449 13.494 106.969 13.998C106.489 14.49 106.249 15.204 106.249 16.14V21H103.999V11.388H106.141V12.63C106.513 12.186 106.981 11.85 107.545 11.622C108.109 11.394 108.745 11.28 109.453 11.28ZM125.628 11.388V21H123.486V19.776C123.126 20.208 122.676 20.544 122.136 20.784C121.596 21.012 121.014 21.126 120.39 21.126C119.106 21.126 118.092 20.772 117.348 20.064C116.616 19.344 116.25 18.282 116.25 16.878V11.388H118.5V16.572C118.5 17.436 118.692 18.084 119.076 18.516C119.472 18.936 120.03 19.146 120.75 19.146C121.554 19.146 122.19 18.9 122.658 18.408C123.138 17.904 123.378 17.184 123.378 16.248V11.388H125.628ZM134.352 20.478C134.088 20.694 133.764 20.856 133.38 20.964C133.008 21.072 132.612 21.126 132.192 21.126C131.136 21.126 130.32 20.85 129.744 20.298C129.168 19.746 128.88 18.942 128.88 17.886V13.26H127.296V11.46H128.88V9.264H131.13V11.46H133.704V13.26H131.13V17.832C131.13 18.3 131.244 18.66 131.472 18.912C131.7 19.152 132.03 19.272 132.462 19.272C132.966 19.272 133.386 19.14 133.722 18.876L134.352 20.478ZM144.922 16.248C144.922 16.404 144.91 16.626 144.886 16.914H137.344C137.476 17.622 137.818 18.186 138.37 18.606C138.934 19.014 139.63 19.218 140.458 19.218C141.514 19.218 142.384 18.87 143.068 18.174L144.274 19.56C143.842 20.076 143.296 20.466 142.636 20.73C141.976 20.994 141.232 21.126 140.404 21.126C139.348 21.126 138.418 20.916 137.614 20.496C136.81 20.076 136.186 19.494 135.742 18.75C135.31 17.994 135.094 17.142 135.094 16.194C135.094 15.258 135.304 14.418 135.724 13.674C136.156 12.918 136.75 12.33 137.506 11.91C138.262 11.49 139.114 11.28 140.062 11.28C140.998 11.28 141.832 11.49 142.564 11.91C143.308 12.318 143.884 12.9 144.292 13.656C144.712 14.4 144.922 15.264 144.922 16.248ZM140.062 13.08C139.342 13.08 138.73 13.296 138.226 13.728C137.734 14.148 137.434 14.712 137.326 15.42H142.78C142.684 14.724 142.39 14.16 141.898 13.728C141.406 13.296 140.794 13.08 140.062 13.08ZM150.053 21.126C149.273 21.126 148.511 21.024 147.767 20.82C147.023 20.616 146.429 20.358 145.985 20.046L146.849 18.336C147.281 18.624 147.797 18.858 148.397 19.038C149.009 19.206 149.609 19.29 150.197 19.29C151.541 19.29 152.213 18.936 152.213 18.228C152.213 17.892 152.039 17.658 151.691 17.526C151.355 17.394 150.809 17.268 150.053 17.148C149.261 17.028 148.613 16.89 148.109 16.734C147.617 16.578 147.185 16.308 146.813 15.924C146.453 15.528 146.273 14.982 146.273 14.286C146.273 13.374 146.651 12.648 147.407 12.108C148.175 11.556 149.207 11.28 150.503 11.28C151.163 11.28 151.823 11.358 152.483 11.514C153.143 11.658 153.683 11.856 154.103 12.108L153.239 13.818C152.423 13.338 151.505 13.098 150.485 13.098C149.825 13.098 149.321 13.2 148.973 13.404C148.637 13.596 148.469 13.854 148.469 14.178C148.469 14.538 148.649 14.796 149.009 14.952C149.381 15.096 149.951 15.234 150.719 15.366C151.487 15.486 152.117 15.624 152.609 15.78C153.101 15.936 153.521 16.2 153.869 16.572C154.229 16.944 154.409 17.472 154.409 18.156C154.409 19.056 154.019 19.776 153.239 20.316C152.459 20.856 151.397 21.126 150.053 21.126Z" fill="#2F2F2F"/>
<path d="M30.35 8.25869C32.078 8.25226 33.418 8.78728 34.37 9.86374C35.334 10.9402 35.8198 12.4864 35.8273 14.5023C35.8325 15.9183 35.579 17.1313 35.0668 18.1412C34.5545 19.1391 33.8314 19.9038 32.8973 20.4353C31.9753 20.9547 30.9022 21.2167 29.6782 21.2213C29.0302 21.2237 28.418 21.16 27.8415 21.0301C27.277 20.8882 26.7842 20.6861 26.3632 20.4236L27.2207 18.6564C27.8462 19.0621 28.6449 19.2631 29.6169 19.2595C30.8289 19.255 31.7755 18.8795 32.4568 18.1329C33.138 17.3864 33.476 16.3111 33.4708 14.9071L33.4707 14.8891C33.1003 15.3225 32.6275 15.6543 32.0524 15.8844C31.4772 16.1026 30.8296 16.213 30.1096 16.2156C29.2816 16.2187 28.537 16.0655 27.8759 15.756C27.2147 15.4344 26.697 14.9803 26.3228 14.3937C25.9486 13.8071 25.7601 13.1298 25.7572 12.3618C25.7542 11.5458 25.9555 10.8311 26.3612 10.2176C26.7669 9.59204 27.3171 9.10999 28.0119 8.7714C28.7066 8.43281 29.486 8.26191 30.35 8.25869ZM30.5528 14.378C31.3088 14.3752 31.92 14.1689 32.3865 13.7592C32.865 13.3494 33.103 12.8325 33.1007 12.2085C33.0984 11.5965 32.8626 11.0934 32.3931 10.6991C31.9356 10.2928 31.2988 10.0912 30.4828 10.0942C29.7508 10.0969 29.1576 10.2971 28.703 10.6948C28.2485 11.0805 28.0224 11.5974 28.0248 12.2454C28.0273 12.9054 28.2572 13.4265 28.7146 13.8088C29.1721 14.1911 29.7848 14.3808 30.5528 14.378ZM42.6913 21.1728C41.6833 21.1766 40.7824 20.9279 39.9885 20.4269C39.1946 19.9138 38.5678 19.1722 38.1082 18.2019C37.6485 17.2196 37.4162 16.0564 37.4112 14.7125C37.4062 13.3685 37.6299 12.2096 38.0823 11.2359C38.5346 10.2502 39.1558 9.50392 39.946 8.99698C40.736 8.47803 41.6351 8.21668 42.6431 8.21293C43.651 8.20918 44.552 8.46383 45.3459 8.97687C46.1518 9.47788 46.7846 10.2195 47.2442 11.2018C47.7038 12.1721 47.9361 13.3293 47.9411 14.6733C47.9461 16.0172 47.7225 17.1821 47.2701 18.1678C46.8178 19.1415 46.1905 19.8878 45.3885 20.4068C44.5983 20.9137 43.6993 21.1691 42.6913 21.1728ZM42.6837 19.1389C43.5837 19.1355 44.2903 18.7609 44.8036 18.015C45.3288 17.269 45.5887 16.158 45.5832 14.682C45.5777 13.206 45.3095 12.097 44.7788 11.355C44.26 10.6129 43.5506 10.2436 42.6506 10.2469C41.7626 10.2502 41.056 10.6249 40.5308 11.3708C40.0176 12.1167 39.7637 13.2277 39.7692 14.7037C39.7747 16.1797 40.0368 17.2887 40.5556 18.0308C41.0864 18.7728 41.7957 19.1422 42.6837 19.1389Z" fill="#2F2F2F"/>
</svg>
