<svg width="397" height="49" viewBox="0 0 397 49" fill="none" xmlns="http://www.w3.org/2000/svg">
<path d="M7 15L374.5 16.0007" stroke="#369CB7" stroke-width="3" stroke-linecap="round"/>
<path d="M362.464 38.422C364.264 38.422 365.584 38.764 366.424 39.448C367.276 40.12 367.702 41.044 367.702 42.22C367.702 42.964 367.522 43.636 367.162 44.236C366.814 44.824 366.28 45.292 365.56 45.64C364.852 45.976 363.976 46.144 362.932 46.144C362.044 46.144 361.186 46.012 360.358 45.748C359.53 45.472 358.846 45.094 358.306 44.614L359.134 43.192C359.566 43.6 360.118 43.93 360.79 44.182C361.462 44.422 362.17 44.542 362.914 44.542C363.862 44.542 364.594 44.344 365.11 43.948C365.638 43.54 365.902 42.988 365.902 42.292C365.902 41.536 365.614 40.966 365.038 40.582C364.462 40.186 363.478 39.988 362.086 39.988H359.224L359.89 33.4H367V34.966H361.402L361.06 38.422H362.464ZM370.388 38.836C370.052 38.836 369.764 38.722 369.524 38.494C369.284 38.254 369.164 37.954 369.164 37.594C369.164 37.246 369.284 36.958 369.524 36.73C369.764 36.49 370.052 36.37 370.388 36.37C370.724 36.37 371.006 36.484 371.234 36.712C371.462 36.94 371.576 37.234 371.576 37.594C371.576 37.954 371.456 38.254 371.216 38.494C370.988 38.722 370.712 38.836 370.388 38.836ZM370.388 46.108C370.052 46.108 369.764 45.994 369.524 45.766C369.284 45.526 369.164 45.226 369.164 44.866C369.164 44.518 369.284 44.23 369.524 44.002C369.764 43.762 370.052 43.642 370.388 43.642C370.724 43.642 371.006 43.756 371.234 43.984C371.462 44.212 371.576 44.506 371.576 44.866C371.576 45.226 371.456 45.526 371.216 45.766C370.988 45.994 370.712 46.108 370.388 46.108ZM378.426 46.144C377.43 46.144 376.542 45.892 375.762 45.388C374.994 44.872 374.388 44.128 373.944 43.156C373.5 42.184 373.278 41.032 373.278 39.7C373.278 38.368 373.5 37.216 373.944 36.244C374.388 35.272 374.994 34.534 375.762 34.03C376.542 33.514 377.43 33.256 378.426 33.256C379.41 33.256 380.286 33.514 381.054 34.03C381.834 34.534 382.446 35.272 382.89 36.244C383.334 37.216 383.556 38.368 383.556 39.7C383.556 41.032 383.334 42.184 382.89 43.156C382.446 44.128 381.834 44.872 381.054 45.388C380.286 45.892 379.41 46.144 378.426 46.144ZM378.426 44.542C379.434 44.542 380.238 44.128 380.838 43.3C381.45 42.472 381.756 41.272 381.756 39.7C381.756 38.128 381.45 36.928 380.838 36.1C380.238 35.272 379.434 34.858 378.426 34.858C377.406 34.858 376.59 35.272 375.978 36.1C375.378 36.928 375.078 38.128 375.078 39.7C375.078 41.272 375.378 42.472 375.978 43.3C376.59 44.128 377.406 44.542 378.426 44.542ZM390.432 46.144C389.436 46.144 388.548 45.892 387.768 45.388C387 44.872 386.394 44.128 385.95 43.156C385.506 42.184 385.284 41.032 385.284 39.7C385.284 38.368 385.506 37.216 385.95 36.244C386.394 35.272 387 34.534 387.768 34.03C388.548 33.514 389.436 33.256 390.432 33.256C391.416 33.256 392.292 33.514 393.06 34.03C393.84 34.534 394.452 35.272 394.896 36.244C395.34 37.216 395.562 38.368 395.562 39.7C395.562 41.032 395.34 42.184 394.896 43.156C394.452 44.128 393.84 44.872 393.06 45.388C392.292 45.892 391.416 46.144 390.432 46.144ZM390.432 44.542C391.44 44.542 392.244 44.128 392.844 43.3C393.456 42.472 393.762 41.272 393.762 39.7C393.762 38.128 393.456 36.928 392.844 36.1C392.244 35.272 391.44 34.858 390.432 34.858C389.412 34.858 388.596 35.272 387.984 36.1C387.384 36.928 387.084 38.128 387.084 39.7C387.084 41.272 387.384 42.472 387.984 43.3C388.596 44.128 389.412 44.542 390.432 44.542Z" fill="#2F2F2F"/>
<path d="M81.688 38.692C82.924 38.812 83.866 39.196 84.514 39.844C85.162 40.48 85.486 41.296 85.486 42.292C85.486 43.012 85.306 43.666 84.946 44.254C84.586 44.83 84.046 45.292 83.326 45.64C82.618 45.976 81.748 46.144 80.716 46.144C79.816 46.144 78.952 46.012 78.124 45.748C77.296 45.472 76.618 45.094 76.09 44.614L76.918 43.192C77.35 43.6 77.902 43.93 78.574 44.182C79.246 44.422 79.96 44.542 80.716 44.542C81.652 44.542 82.378 44.344 82.894 43.948C83.422 43.552 83.686 43.006 83.686 42.31C83.686 41.614 83.428 41.074 82.912 40.69C82.396 40.306 81.616 40.114 80.572 40.114H79.564V38.854L82.732 34.966H76.666V33.4H84.982V34.624L81.688 38.692ZM88.3528 38.836C88.0168 38.836 87.7288 38.722 87.4888 38.494C87.2488 38.254 87.1288 37.954 87.1288 37.594C87.1288 37.246 87.2488 36.958 87.4888 36.73C87.7288 36.49 88.0168 36.37 88.3528 36.37C88.6888 36.37 88.9708 36.484 89.1988 36.712C89.4268 36.94 89.5408 37.234 89.5408 37.594C89.5408 37.954 89.4208 38.254 89.1808 38.494C88.9528 38.722 88.6768 38.836 88.3528 38.836ZM88.3528 46.108C88.0168 46.108 87.7288 45.994 87.4888 45.766C87.2488 45.526 87.1288 45.226 87.1288 44.866C87.1288 44.518 87.2488 44.23 87.4888 44.002C87.7288 43.762 88.0168 43.642 88.3528 43.642C88.6888 43.642 88.9708 43.756 89.1988 43.984C89.4268 44.212 89.5408 44.506 89.5408 44.866C89.5408 45.226 89.4208 45.526 89.1808 45.766C88.9528 45.994 88.6768 46.108 88.3528 46.108ZM96.0669 38.692C97.3029 38.812 98.2449 39.196 98.8929 39.844C99.5409 40.48 99.8649 41.296 99.8649 42.292C99.8649 43.012 99.6849 43.666 99.3249 44.254C98.9649 44.83 98.4249 45.292 97.7049 45.64C96.9969 45.976 96.1269 46.144 95.0949 46.144C94.1949 46.144 93.3309 46.012 92.5029 45.748C91.6749 45.472 90.9969 45.094 90.4689 44.614L91.2969 43.192C91.7289 43.6 92.2809 43.93 92.9529 44.182C93.6249 44.422 94.3389 44.542 95.0949 44.542C96.0309 44.542 96.7569 44.344 97.2729 43.948C97.8009 43.552 98.0649 43.006 98.0649 42.31C98.0649 41.614 97.8069 41.074 97.2909 40.69C96.7749 40.306 95.9949 40.114 94.9509 40.114H93.9429V38.854L97.1109 34.966H91.0449V33.4H99.3609V34.624L96.0669 38.692ZM106.692 46.144C105.696 46.144 104.808 45.892 104.028 45.388C103.26 44.872 102.654 44.128 102.21 43.156C101.766 42.184 101.544 41.032 101.544 39.7C101.544 38.368 101.766 37.216 102.21 36.244C102.654 35.272 103.26 34.534 104.028 34.03C104.808 33.514 105.696 33.256 106.692 33.256C107.676 33.256 108.552 33.514 109.32 34.03C110.1 34.534 110.712 35.272 111.156 36.244C111.6 37.216 111.822 38.368 111.822 39.7C111.822 41.032 111.6 42.184 111.156 43.156C110.712 44.128 110.1 44.872 109.32 45.388C108.552 45.892 107.676 46.144 106.692 46.144ZM106.692 44.542C107.7 44.542 108.504 44.128 109.104 43.3C109.716 42.472 110.022 41.272 110.022 39.7C110.022 38.128 109.716 36.928 109.104 36.1C108.504 35.272 107.7 34.858 106.692 34.858C105.672 34.858 104.856 35.272 104.244 36.1C103.644 36.928 103.344 38.128 103.344 39.7C103.344 41.272 103.644 42.472 104.244 43.3C104.856 44.128 105.672 44.542 106.692 44.542Z" fill="#2F2F2F"/>
<path d="M279.826 42.904H277.432V46H275.686V42.904H268.684V41.644L275.128 33.4H277.072L270.898 41.356H275.74V38.62H277.432V41.356H279.826V42.904ZM282.216 38.836C281.88 38.836 281.592 38.722 281.352 38.494C281.112 38.254 280.992 37.954 280.992 37.594C280.992 37.246 281.112 36.958 281.352 36.73C281.592 36.49 281.88 36.37 282.216 36.37C282.552 36.37 282.834 36.484 283.062 36.712C283.29 36.94 283.404 37.234 283.404 37.594C283.404 37.954 283.284 38.254 283.044 38.494C282.816 38.722 282.54 38.836 282.216 38.836ZM282.216 46.108C281.88 46.108 281.592 45.994 281.352 45.766C281.112 45.526 280.992 45.226 280.992 44.866C280.992 44.518 281.112 44.23 281.352 44.002C281.592 43.762 281.88 43.642 282.216 43.642C282.552 43.642 282.834 43.756 283.062 43.984C283.29 44.212 283.404 44.506 283.404 44.866C283.404 45.226 283.284 45.526 283.044 45.766C282.816 45.994 282.54 46.108 282.216 46.108ZM289.93 38.692C291.166 38.812 292.108 39.196 292.756 39.844C293.404 40.48 293.728 41.296 293.728 42.292C293.728 43.012 293.548 43.666 293.188 44.254C292.828 44.83 292.288 45.292 291.568 45.64C290.86 45.976 289.99 46.144 288.958 46.144C288.058 46.144 287.194 46.012 286.366 45.748C285.538 45.472 284.86 45.094 284.332 44.614L285.16 43.192C285.592 43.6 286.144 43.93 286.816 44.182C287.488 44.422 288.202 44.542 288.958 44.542C289.894 44.542 290.62 44.344 291.136 43.948C291.664 43.552 291.928 43.006 291.928 42.31C291.928 41.614 291.67 41.074 291.154 40.69C290.638 40.306 289.858 40.114 288.814 40.114H287.806V38.854L290.974 34.966H284.908V33.4H293.224V34.624L289.93 38.692ZM300.555 46.144C299.559 46.144 298.671 45.892 297.891 45.388C297.123 44.872 296.517 44.128 296.073 43.156C295.629 42.184 295.407 41.032 295.407 39.7C295.407 38.368 295.629 37.216 296.073 36.244C296.517 35.272 297.123 34.534 297.891 34.03C298.671 33.514 299.559 33.256 300.555 33.256C301.539 33.256 302.415 33.514 303.183 34.03C303.963 34.534 304.575 35.272 305.019 36.244C305.463 37.216 305.685 38.368 305.685 39.7C305.685 41.032 305.463 42.184 305.019 43.156C304.575 44.128 303.963 44.872 303.183 45.388C302.415 45.892 301.539 46.144 300.555 46.144ZM300.555 44.542C301.563 44.542 302.367 44.128 302.967 43.3C303.579 42.472 303.885 41.272 303.885 39.7C303.885 38.128 303.579 36.928 302.967 36.1C302.367 35.272 301.563 34.858 300.555 34.858C299.535 34.858 298.719 35.272 298.107 36.1C297.507 36.928 297.207 38.128 297.207 39.7C297.207 41.272 297.507 42.472 298.107 43.3C298.719 44.128 299.535 44.542 300.555 44.542Z" fill="#2F2F2F"/>
<line x1="1.5" y1="1.5" x2="1.5" y2="28.5" stroke="#369CB7" stroke-width="3" stroke-linecap="round"/>
<line x1="96.5" y1="7.5" x2="96.5" y2="24.5" stroke="#369CB7" stroke-width="3" stroke-linecap="round"/>
<line x1="191.5" y1="1.5" x2="191.5" y2="28.5" stroke="#369CB7" stroke-width="3" stroke-linecap="round"/>
<line x1="286.5" y1="7.5" x2="286.5" y2="24.5" stroke="#369CB7" stroke-width="3" stroke-linecap="round"/>
<line x1="378.5" y1="1.5" x2="378.5" y2="28.5" stroke="#369CB7" stroke-width="3" stroke-linecap="round"/>
</svg>
