<svg width="105" height="30" viewBox="0 0 105 30" fill="none" xmlns="http://www.w3.org/2000/svg">
<path d="M34.445 14.394C35.165 14.67 35.717 15.066 36.101 15.582C36.485 16.098 36.677 16.716 36.677 17.436C36.677 18.192 36.473 18.852 36.065 19.416C35.657 19.968 35.075 20.394 34.319 20.694C33.563 20.994 32.675 21.144 31.655 21.144C30.647 21.144 29.765 20.994 29.009 20.694C28.265 20.394 27.689 19.968 27.281 19.416C26.873 18.852 26.669 18.192 26.669 17.436C26.669 16.716 26.855 16.098 27.227 15.582C27.611 15.066 28.163 14.67 28.883 14.394C28.307 14.118 27.869 13.752 27.569 13.296C27.269 12.84 27.119 12.3 27.119 11.676C27.119 10.98 27.305 10.374 27.677 9.858C28.061 9.342 28.595 8.946 29.279 8.67C29.963 8.394 30.755 8.256 31.655 8.256C32.567 8.256 33.365 8.394 34.049 8.67C34.745 8.946 35.279 9.342 35.651 9.858C36.035 10.374 36.227 10.98 36.227 11.676C36.227 12.288 36.071 12.828 35.759 13.296C35.459 13.752 35.021 14.118 34.445 14.394ZM31.655 9.714C30.803 9.714 30.131 9.9 29.639 10.272C29.147 10.632 28.901 11.124 28.901 11.748C28.901 12.372 29.141 12.864 29.621 13.224C30.113 13.584 30.791 13.764 31.655 13.764C32.531 13.764 33.215 13.584 33.707 13.224C34.211 12.864 34.463 12.372 34.463 11.748C34.463 11.124 34.205 10.632 33.689 10.272C33.185 9.9 32.507 9.714 31.655 9.714ZM31.655 19.686C32.651 19.686 33.437 19.482 34.013 19.074C34.589 18.654 34.877 18.09 34.877 17.382C34.877 16.686 34.589 16.14 34.013 15.744C33.437 15.336 32.651 15.132 31.655 15.132C30.659 15.132 29.879 15.336 29.315 15.744C28.751 16.14 28.469 16.686 28.469 17.382C28.469 18.09 28.751 18.654 29.315 19.074C29.879 19.482 30.659 19.686 31.655 19.686ZM42.2309 8.4V21H40.4489V9.966H37.6049V8.4H42.2309Z" fill="#2F2F2F"/>
<path d="M5 1H65V-1H5V1ZM69 5V25H71V5H69ZM65 29H5V31H65V29ZM1 25V5H-1V25H1ZM5 29C2.79086 29 1 27.2091 1 25H-1C-1 28.3137 1.68629 31 5 31V29ZM69 25C69 27.2091 67.2091 29 65 29V31C68.3137 31 71 28.3137 71 25H69ZM65 1C67.2091 1 69 2.79086 69 5H71C71 1.68629 68.3137 -1 65 -1V1ZM5 -1C1.68629 -1 -1 1.68629 -1 5H1C1 2.79086 2.79086 1 5 1V-1Z" fill="#2F2F2F"/>
<path d="M86.2534 9.04C85.2001 9.04 84.6734 9.61333 84.6734 10.76V11.4H87.6134V13.4H84.7534V22H82.2534V13.4H80.4934V11.4H82.2534V10.72C82.2534 9.57333 82.5868 8.67333 83.2534 8.02C83.9201 7.35333 84.8601 7.02 86.0734 7.02C87.0334 7.02 87.7868 7.21333 88.3334 7.6L87.6334 9.48C87.2068 9.18667 86.7468 9.04 86.2534 9.04ZM95.7163 21.42C95.4229 21.66 95.0629 21.84 94.6363 21.96C94.2229 22.08 93.7829 22.14 93.3163 22.14C92.1429 22.14 91.2363 21.8333 90.5962 21.22C89.9563 20.6067 89.6363 19.7133 89.6363 18.54V13.4H87.8763V11.4H89.6363V8.96H92.1363V11.4H94.9963V13.4H92.1363V18.48C92.1363 19 92.2629 19.4 92.5163 19.68C92.7696 19.9467 93.1363 20.08 93.6163 20.08C94.1763 20.08 94.6429 19.9333 95.0163 19.64L95.7163 21.42ZM103.813 14.04V15.46H97.0128V14.34L100.593 11.22C101.006 10.8467 101.286 10.5467 101.433 10.32C101.593 10.08 101.673 9.84 101.673 9.6C101.673 9.28 101.526 9.02 101.233 8.82C100.953 8.62 100.526 8.52 99.9528 8.52C99.4995 8.52 99.0928 8.59333 98.7328 8.74C98.3728 8.88667 98.0861 9.10667 97.8728 9.4L96.6128 8.5C96.9595 8.03333 97.4261 7.67333 98.0128 7.42C98.5995 7.15333 99.2928 7.02 100.093 7.02C101.146 7.02 101.973 7.24667 102.573 7.7C103.173 8.15333 103.473 8.74667 103.473 9.48C103.473 9.90667 103.366 10.3067 103.153 10.68C102.953 11.0533 102.546 11.5067 101.933 12.04L99.6528 14.04H103.813Z" fill="#2F2F2F"/>
</svg>
