<svg width="570" height="45" viewBox="0 0 570 45" fill="none" xmlns="http://www.w3.org/2000/svg">
<path d="M83.6855 27.348V28.5H74.8475V27.582L80.0855 22.452C80.7455 21.804 81.1895 21.246 81.4175 20.778C81.6575 20.298 81.7775 19.818 81.7775 19.338C81.7775 18.594 81.5195 18.018 81.0035 17.61C80.4995 17.19 79.7735 16.98 78.8255 16.98C77.3495 16.98 76.2035 17.448 75.3875 18.384L74.4695 17.592C74.9615 17.016 75.5855 16.572 76.3415 16.26C77.1095 15.948 77.9735 15.792 78.9335 15.792C80.2175 15.792 81.2315 16.098 81.9755 16.71C82.7315 17.31 83.1095 18.138 83.1095 19.194C83.1095 19.842 82.9655 20.466 82.6775 21.066C82.3895 21.666 81.8435 22.356 81.0395 23.136L76.7555 27.348H83.6855ZM95.6001 25.188H93.0801V28.5H91.7841V25.188H84.6741V24.252L91.3521 15.9H92.7921L86.3481 24.036H91.8201V21.12H93.0801V24.036H95.6001V25.188Z" fill="black"/>
<path d="M5 1H165V-1H5V1ZM169 5V40H171V5H169ZM165 44H5V46H165V44ZM1 40V5H-1V40H1ZM5 44C2.79086 44 1 42.2091 1 40H-1C-1 43.3137 1.6863 46 5 46V44ZM169 40C169 42.2091 167.209 44 165 44V46C168.314 46 171 43.3137 171 40H169ZM165 1C167.209 1 169 2.79086 169 5H171C171 1.68629 168.314 -1 165 -1V1ZM5 -1C1.68629 -1 -1 1.68629 -1 5H1C1 2.79086 2.79086 1 5 1V-1Z" fill="#2F2F2F"/>
<path d="M200 5C200 2.23858 202.239 0 205 0H365C367.761 0 370 2.23858 370 5V40C370 42.7614 367.761 45 365 45H205C202.239 45 200 42.7614 200 40V5Z" fill="#BBEDF4"/>
<path d="M279.656 21.3C280.976 21.372 281.978 21.732 282.662 22.38C283.358 23.016 283.706 23.85 283.706 24.882C283.706 25.602 283.532 26.244 283.184 26.808C282.836 27.36 282.32 27.798 281.636 28.122C280.952 28.446 280.118 28.608 279.134 28.608C278.222 28.608 277.358 28.464 276.542 28.176C275.738 27.876 275.09 27.48 274.598 26.988L275.228 25.962C275.648 26.394 276.206 26.748 276.902 27.024C277.598 27.288 278.342 27.42 279.134 27.42C280.166 27.42 280.964 27.198 281.528 26.754C282.092 26.298 282.374 25.674 282.374 24.882C282.374 24.102 282.092 23.49 281.528 23.046C280.964 22.602 280.112 22.38 278.972 22.38H278.072V21.426L281.564 17.052H275.12V15.9H283.22V16.818L279.656 21.3ZM290.752 20.958C291.58 20.958 292.312 21.114 292.948 21.426C293.596 21.738 294.1 22.182 294.46 22.758C294.82 23.322 295 23.982 295 24.738C295 25.506 294.814 26.184 294.442 26.772C294.07 27.36 293.554 27.816 292.894 28.14C292.246 28.452 291.514 28.608 290.698 28.608C289.03 28.608 287.752 28.062 286.864 26.97C285.976 25.866 285.532 24.312 285.532 22.308C285.532 20.904 285.772 19.716 286.252 18.744C286.732 17.772 287.404 17.04 288.268 16.548C289.132 16.044 290.14 15.792 291.292 15.792C292.54 15.792 293.536 16.02 294.28 16.476L293.758 17.52C293.158 17.124 292.342 16.926 291.31 16.926C289.918 16.926 288.826 17.37 288.034 18.258C287.242 19.134 286.846 20.412 286.846 22.092C286.846 22.392 286.864 22.734 286.9 23.118C287.212 22.434 287.71 21.906 288.394 21.534C289.078 21.15 289.864 20.958 290.752 20.958ZM290.644 27.51C291.556 27.51 292.294 27.264 292.858 26.772C293.434 26.268 293.722 25.602 293.722 24.774C293.722 23.946 293.434 23.286 292.858 22.794C292.294 22.302 291.526 22.056 290.554 22.056C289.918 22.056 289.354 22.176 288.862 22.416C288.382 22.656 288.004 22.986 287.728 23.406C287.452 23.826 287.314 24.294 287.314 24.81C287.314 25.29 287.44 25.734 287.692 26.142C287.956 26.55 288.34 26.88 288.844 27.132C289.348 27.384 289.948 27.51 290.644 27.51Z" fill="#0E80A4"/>
<path d="M484.869 25.188H482.349V28.5H481.053V25.188H473.943V24.252L480.621 15.9H482.061L475.617 24.036H481.089V21.12H482.349V24.036H484.869V25.188ZM493.453 21.894C494.245 22.158 494.851 22.554 495.271 23.082C495.703 23.61 495.919 24.246 495.919 24.99C495.919 25.722 495.721 26.364 495.325 26.916C494.929 27.456 494.359 27.876 493.615 28.176C492.883 28.464 492.019 28.608 491.023 28.608C489.511 28.608 488.323 28.284 487.459 27.636C486.595 26.988 486.163 26.106 486.163 24.99C486.163 24.234 486.367 23.598 486.775 23.082C487.195 22.554 487.801 22.158 488.593 21.894C487.945 21.642 487.453 21.282 487.117 20.814C486.781 20.334 486.613 19.77 486.613 19.122C486.613 18.102 487.009 17.292 487.801 16.692C488.605 16.092 489.679 15.792 491.023 15.792C491.911 15.792 492.685 15.93 493.345 16.206C494.017 16.47 494.539 16.854 494.911 17.358C495.283 17.862 495.469 18.45 495.469 19.122C495.469 19.77 495.295 20.334 494.947 20.814C494.599 21.282 494.101 21.642 493.453 21.894ZM487.909 19.158C487.909 19.854 488.185 20.406 488.737 20.814C489.289 21.222 490.051 21.426 491.023 21.426C491.995 21.426 492.757 21.222 493.309 20.814C493.873 20.406 494.155 19.86 494.155 19.176C494.155 18.468 493.867 17.91 493.291 17.502C492.727 17.094 491.971 16.89 491.023 16.89C490.063 16.89 489.301 17.094 488.737 17.502C488.185 17.91 487.909 18.462 487.909 19.158ZM491.023 27.51C492.139 27.51 493.009 27.282 493.633 26.826C494.269 26.37 494.587 25.752 494.587 24.972C494.587 24.192 494.269 23.58 493.633 23.136C493.009 22.68 492.139 22.452 491.023 22.452C489.919 22.452 489.049 22.68 488.413 23.136C487.789 23.58 487.477 24.192 487.477 24.972C487.477 25.764 487.789 26.388 488.413 26.844C489.037 27.288 489.907 27.51 491.023 27.51Z" fill="black"/>
<path d="M405 1H565V-1H405V1ZM569 5V40H571V5H569ZM565 44H405V46H565V44ZM401 40V5H399V40H401ZM405 44C402.791 44 401 42.2091 401 40H399C399 43.3137 401.686 46 405 46V44ZM569 40C569 42.2091 567.209 44 565 44V46C568.314 46 571 43.3137 571 40H569ZM565 1C567.209 1 569 2.79086 569 5H571C571 1.68629 568.314 -1 565 -1V1ZM405 -1C401.686 -1 399 1.68629 399 5H401C401 2.79086 402.791 1 405 1V-1Z" fill="#2F2F2F"/>
</svg>
