<svg width="570" height="170" viewBox="0 0 570 170" fill="none" xmlns="http://www.w3.org/2000/svg">
<rect x="0.5" y="0.5" width="169" height="169" rx="4.5" stroke="#D0D0D0"/>
<path d="M0 5C0 2.23858 2.23858 0 5 0H165C167.761 0 170 2.23858 170 5V28H0V5Z" fill="#205B64"/>
<path d="M80.8339 13.36C81.8153 13.52 82.5673 13.888 83.0899 14.464C83.6126 15.0293 83.874 15.7333 83.874 16.576C83.874 17.2267 83.7033 17.8293 83.3619 18.384C83.0206 18.928 82.4979 19.3653 81.7939 19.696C81.1006 20.0267 80.2473 20.192 79.2339 20.192C78.4446 20.192 77.6659 20.0907 76.8979 19.888C76.1406 19.6747 75.4953 19.376 74.9619 18.992L75.9699 17.008C76.3966 17.328 76.8873 17.5787 77.4419 17.76C78.0073 17.9307 78.5833 18.016 79.1699 18.016C79.8206 18.016 80.3326 17.8933 80.7059 17.648C81.0793 17.392 81.2659 17.0347 81.2659 16.576C81.2659 15.6587 80.5673 15.2 79.1699 15.2H77.9859V13.488L80.2899 10.88H75.5219V8.8H83.3619V10.48L80.8339 13.36ZM89.8707 20.192C88.9427 20.192 88.116 19.9627 87.3907 19.504C86.6654 19.0453 86.0947 18.384 85.6787 17.52C85.2734 16.6453 85.0707 15.6053 85.0707 14.4C85.0707 13.1947 85.2734 12.16 85.6787 11.296C86.0947 10.4213 86.6654 9.75467 87.3907 9.296C88.116 8.83733 88.9427 8.608 89.8707 8.608C90.7987 8.608 91.6254 8.83733 92.3507 9.296C93.076 9.75467 93.6414 10.4213 94.0467 11.296C94.4627 12.16 94.6707 13.1947 94.6707 14.4C94.6707 15.6053 94.4627 16.6453 94.0467 17.52C93.6414 18.384 93.076 19.0453 92.3507 19.504C91.6254 19.9627 90.7987 20.192 89.8707 20.192ZM89.8707 18C90.5534 18 91.0867 17.7067 91.4707 17.12C91.8654 16.5333 92.0627 15.6267 92.0627 14.4C92.0627 13.1733 91.8654 12.2667 91.4707 11.68C91.0867 11.0933 90.5534 10.8 89.8707 10.8C89.1987 10.8 88.6654 11.0933 88.2707 11.68C87.8867 12.2667 87.6947 13.1733 87.6947 14.4C87.6947 15.6267 87.8867 16.5333 88.2707 17.12C88.6654 17.7067 89.1987 18 89.8707 18Z" fill="white"/>
<path d="M11 43C11 40.2386 13.2386 38 16 38H66C68.7614 38 71 40.2386 71 43V78C71 80.7614 68.7614 83 66 83H16C13.2386 83 11 80.7614 11 78V43Z" fill="#369CB7"/>
<path d="M22.3999 53.9V66.5H20.6179V55.466H17.7739V53.9H22.3999ZM28.756 58.922C30.556 58.922 31.876 59.264 32.716 59.948C33.568 60.62 33.994 61.544 33.994 62.72C33.994 63.464 33.814 64.136 33.454 64.736C33.106 65.324 32.572 65.792 31.852 66.14C31.144 66.476 30.268 66.644 29.224 66.644C28.336 66.644 27.478 66.512 26.65 66.248C25.822 65.972 25.138 65.594 24.598 65.114L25.426 63.692C25.858 64.1 26.41 64.43 27.082 64.682C27.754 64.922 28.462 65.042 29.206 65.042C30.154 65.042 30.886 64.844 31.402 64.448C31.93 64.04 32.194 63.488 32.194 62.792C32.194 62.036 31.906 61.466 31.33 61.082C30.754 60.686 29.77 60.488 28.378 60.488H25.516L26.182 53.9H33.292V55.466H27.694L27.352 58.922H28.756ZM47.0939 66.5L44.3399 62.846L41.5499 66.5H39.6239L43.3859 61.622L39.8039 56.96H41.7299L44.3579 60.398L46.9679 56.96H48.8579L45.2579 61.622L49.0559 66.5H47.0939ZM63.7542 64.934V66.5H54.7002V65.276L59.8302 60.326C60.4542 59.726 60.8742 59.21 61.0902 58.778C61.3062 58.334 61.4142 57.89 61.4142 57.446C61.4142 56.786 61.1802 56.276 60.7122 55.916C60.2562 55.544 59.5962 55.358 58.7322 55.358C57.3402 55.358 56.2662 55.814 55.5102 56.726L54.2862 55.664C54.7782 55.064 55.4202 54.596 56.2122 54.26C57.0162 53.924 57.9102 53.756 58.8942 53.756C60.2142 53.756 61.2642 54.074 62.0442 54.71C62.8242 55.334 63.2142 56.186 63.2142 57.266C63.2142 57.938 63.0702 58.574 62.7822 59.174C62.4942 59.774 61.9482 60.458 61.1442 61.226L57.2922 64.934H63.7542Z" fill="white"/>
<path d="M16 39H66V37H16V39ZM70 43V78H72V43H70ZM66 82H16V84H66V82ZM12 78V43H10V78H12ZM16 82C13.7909 82 12 80.2091 12 78H10C10 81.3137 12.6863 84 16 84V82ZM70 78C70 80.2091 68.2091 82 66 82V84C69.3137 84 72 81.3137 72 78H70ZM66 39C68.2091 39 70 40.7909 70 43H72C72 39.6863 69.3137 37 66 37V39ZM16 37C12.6863 37 10 39.6863 10 43H12C12 40.7909 13.7909 39 16 39V37Z" fill="#369CB7"/>
<path d="M81 43C81 40.2386 83.2386 38 86 38H136C138.761 38 141 40.2386 141 43V78C141 80.7614 138.761 83 136 83H86C83.2386 83 81 80.7614 81 78V43Z" fill="#369CB7"/>
<path d="M92.5005 59.192C93.7365 59.312 94.6785 59.696 95.3265 60.344C95.9745 60.98 96.2985 61.796 96.2985 62.792C96.2985 63.512 96.1185 64.166 95.7585 64.754C95.3985 65.33 94.8585 65.792 94.1385 66.14C93.4305 66.476 92.5605 66.644 91.5285 66.644C90.6285 66.644 89.7645 66.512 88.9365 66.248C88.1085 65.972 87.4305 65.594 86.9025 65.114L87.7305 63.692C88.1625 64.1 88.7145 64.43 89.3865 64.682C90.0585 64.922 90.7725 65.042 91.5285 65.042C92.4645 65.042 93.1905 64.844 93.7065 64.448C94.2345 64.052 94.4985 63.506 94.4985 62.81C94.4985 62.114 94.2405 61.574 93.7245 61.19C93.2085 60.806 92.4285 60.614 91.3845 60.614H90.3765V59.354L93.5445 55.466H87.4785V53.9H95.7945V55.124L92.5005 59.192ZM109.579 66.5L106.825 62.846L104.035 66.5H102.109L105.871 61.622L102.289 56.96H104.215L106.843 60.398L109.453 56.96H111.343L107.743 61.622L111.541 66.5H109.579ZM121.29 53.9V66.5H119.508V55.466H116.664V53.9H121.29ZM129.194 66.644C128.198 66.644 127.31 66.392 126.53 65.888C125.762 65.372 125.156 64.628 124.712 63.656C124.268 62.684 124.046 61.532 124.046 60.2C124.046 58.868 124.268 57.716 124.712 56.744C125.156 55.772 125.762 55.034 126.53 54.53C127.31 54.014 128.198 53.756 129.194 53.756C130.178 53.756 131.054 54.014 131.822 54.53C132.602 55.034 133.214 55.772 133.658 56.744C134.102 57.716 134.324 58.868 134.324 60.2C134.324 61.532 134.102 62.684 133.658 63.656C133.214 64.628 132.602 65.372 131.822 65.888C131.054 66.392 130.178 66.644 129.194 66.644ZM129.194 65.042C130.202 65.042 131.006 64.628 131.606 63.8C132.218 62.972 132.524 61.772 132.524 60.2C132.524 58.628 132.218 57.428 131.606 56.6C131.006 55.772 130.202 55.358 129.194 55.358C128.174 55.358 127.358 55.772 126.746 56.6C126.146 57.428 125.846 58.628 125.846 60.2C125.846 61.772 126.146 62.972 126.746 63.8C127.358 64.628 128.174 65.042 129.194 65.042Z" fill="white"/>
<path d="M86 39H136V37H86V39ZM140 43V78H142V43H140ZM136 82H86V84H136V82ZM82 78V43H80V78H82ZM86 82C83.7909 82 82 80.2091 82 78H80C80 81.3137 82.6863 84 86 84V82ZM140 78C140 80.2091 138.209 82 136 82V84C139.314 84 142 81.3137 142 78H140ZM136 39C138.209 39 140 40.7909 140 43H142C142 39.6863 139.314 37 136 37V39ZM86 37C82.6863 37 80 39.6863 80 43H82C82 40.7909 83.7909 39 86 39V37Z" fill="#369CB7"/>
<path d="M11 98C11 95.2386 13.2386 93 16 93H126C128.761 93 131 95.2386 131 98V133C131 135.761 128.761 138 126 138H16C13.2386 138 11 135.761 11 133V98Z" fill="#369CB7"/>
<path d="M22.4868 124.992C21.8028 123.888 21.2748 122.622 20.9028 121.194C20.5308 119.754 20.3448 118.212 20.3448 116.568C20.3448 114.924 20.5308 113.382 20.9028 111.942C21.2748 110.49 21.8028 109.224 22.4868 108.144H24.1248C23.4048 109.404 22.8768 110.724 22.5408 112.104C22.2048 113.484 22.0368 114.972 22.0368 116.568C22.0368 118.164 22.2048 119.652 22.5408 121.032C22.8768 122.412 23.4048 123.732 24.1248 124.992H22.4868ZM30.3872 114.192C31.6232 114.312 32.5652 114.696 33.2132 115.344C33.8612 115.98 34.1852 116.796 34.1852 117.792C34.1852 118.512 34.0052 119.166 33.6452 119.754C33.2852 120.33 32.7452 120.792 32.0252 121.14C31.3172 121.476 30.4472 121.644 29.4152 121.644C28.5152 121.644 27.6512 121.512 26.8232 121.248C25.9952 120.972 25.3172 120.594 24.7892 120.114L25.6172 118.692C26.0492 119.1 26.6012 119.43 27.2732 119.682C27.9452 119.922 28.6592 120.042 29.4152 120.042C30.3512 120.042 31.0772 119.844 31.5932 119.448C32.1212 119.052 32.3852 118.506 32.3852 117.81C32.3852 117.114 32.1272 116.574 31.6112 116.19C31.0952 115.806 30.3152 115.614 29.2712 115.614H28.2632V114.354L31.4312 110.466H25.3652V108.9H33.6812V110.124L30.3872 114.192ZM42.4035 121.5L39.6495 117.846L36.8595 121.5H34.9335L38.6955 116.622L35.1135 111.96H37.0395L39.6675 115.398L42.2775 111.96H44.1675L40.5675 116.622L44.3655 121.5H42.4035ZM48.9738 113.922C50.7738 113.922 52.0938 114.264 52.9338 114.948C53.7858 115.62 54.2118 116.544 54.2118 117.72C54.2118 118.464 54.0318 119.136 53.6718 119.736C53.3238 120.324 52.7898 120.792 52.0698 121.14C51.3618 121.476 50.4858 121.644 49.4418 121.644C48.5538 121.644 47.6958 121.512 46.8678 121.248C46.0398 120.972 45.3558 120.594 44.8158 120.114L45.6438 118.692C46.0758 119.1 46.6278 119.43 47.2998 119.682C47.9718 119.922 48.6798 120.042 49.4238 120.042C50.3718 120.042 51.1038 119.844 51.6198 119.448C52.1478 119.04 52.4118 118.488 52.4118 117.792C52.4118 117.036 52.1238 116.466 51.5478 116.082C50.9718 115.686 49.9878 115.488 48.5958 115.488H45.7338L46.3998 108.9H53.5098V110.466H47.9118L47.5698 113.922H48.9738ZM55.4217 124.992C56.1417 123.732 56.6697 122.412 57.0057 121.032C57.3537 119.652 57.5277 118.164 57.5277 116.568C57.5277 114.972 57.3537 113.484 57.0057 112.104C56.6697 110.724 56.1417 109.404 55.4217 108.144H57.0597C57.7557 109.224 58.2897 110.484 58.6617 111.924C59.0337 113.364 59.2197 114.912 59.2197 116.568C59.2197 118.212 59.0337 119.754 58.6617 121.194C58.2897 122.634 57.7557 123.9 57.0597 124.992H55.4217ZM75.0317 115.92H71.7557V119.142H70.2437V115.92H66.9677V114.498H70.2437V111.258H71.7557V114.498H75.0317V115.92ZM84.9243 124.992C84.2403 123.888 83.7123 122.622 83.3403 121.194C82.9683 119.754 82.7823 118.212 82.7823 116.568C82.7823 114.924 82.9683 113.382 83.3403 111.942C83.7123 110.49 84.2403 109.224 84.9243 108.144H86.5623C85.8423 109.404 85.3143 110.724 84.9783 112.104C84.6423 113.484 84.4743 114.972 84.4743 116.568C84.4743 118.164 84.6423 119.652 84.9783 121.032C85.3143 122.412 85.8423 123.732 86.5623 124.992H84.9243ZM92.8247 114.192C94.0607 114.312 95.0027 114.696 95.6507 115.344C96.2987 115.98 96.6227 116.796 96.6227 117.792C96.6227 118.512 96.4427 119.166 96.0827 119.754C95.7227 120.33 95.1827 120.792 94.4627 121.14C93.7547 121.476 92.8847 121.644 91.8527 121.644C90.9527 121.644 90.0887 121.512 89.2607 121.248C88.4327 120.972 87.7547 120.594 87.2267 120.114L88.0547 118.692C88.4867 119.1 89.0387 119.43 89.7107 119.682C90.3827 119.922 91.0967 120.042 91.8527 120.042C92.7887 120.042 93.5147 119.844 94.0307 119.448C94.5587 119.052 94.8227 118.506 94.8227 117.81C94.8227 117.114 94.5647 116.574 94.0487 116.19C93.5327 115.806 92.7527 115.614 91.7087 115.614H90.7007V114.354L93.8687 110.466H87.8027V108.9H96.1187V110.124L92.8247 114.192ZM104.841 121.5L102.087 117.846L99.297 121.5H97.371L101.133 116.622L97.551 111.96H99.477L102.105 115.398L104.715 111.96H106.605L103.005 116.622L106.803 121.5H104.841ZM111.411 113.922C113.211 113.922 114.531 114.264 115.371 114.948C116.223 115.62 116.649 116.544 116.649 117.72C116.649 118.464 116.469 119.136 116.109 119.736C115.761 120.324 115.227 120.792 114.507 121.14C113.799 121.476 112.923 121.644 111.879 121.644C110.991 121.644 110.133 121.512 109.305 121.248C108.477 120.972 107.793 120.594 107.253 120.114L108.081 118.692C108.513 119.1 109.065 119.43 109.737 119.682C110.409 119.922 111.117 120.042 111.861 120.042C112.809 120.042 113.541 119.844 114.057 119.448C114.585 119.04 114.849 118.488 114.849 117.792C114.849 117.036 114.561 116.466 113.985 116.082C113.409 115.686 112.425 115.488 111.033 115.488H108.171L108.837 108.9H115.947V110.466H110.349L110.007 113.922H111.411ZM117.859 124.992C118.579 123.732 119.107 122.412 119.443 121.032C119.791 119.652 119.965 118.164 119.965 116.568C119.965 114.972 119.791 113.484 119.443 112.104C119.107 110.724 118.579 109.404 117.859 108.144H119.497C120.193 109.224 120.727 110.484 121.099 111.924C121.471 113.364 121.657 114.912 121.657 116.568C121.657 118.212 121.471 119.754 121.099 121.194C120.727 122.634 120.193 123.9 119.497 124.992H117.859Z" fill="white"/>
<path d="M16 94H126V92H16V94ZM130 98V133H132V98H130ZM126 137H16V139H126V137ZM12 133V98H10V133H12ZM16 137C13.7909 137 12 135.209 12 133H10C10 136.314 12.6863 139 16 139V137ZM130 133C130 135.209 128.209 137 126 137V139C129.314 139 132 136.314 132 133H130ZM126 94C128.209 94 130 95.7909 130 98H132C132 94.6863 129.314 92 126 92V94ZM16 92C12.6863 92 10 94.6863 10 98H12C12 95.7909 13.7909 94 16 94V92Z" fill="#369CB7"/>
<rect x="200.5" y="0.5" width="169" height="169" rx="4.5" stroke="#D0D0D0"/>
<path d="M200 5C200 2.23858 202.239 0 205 0H365C367.761 0 370 2.23858 370 5V28H200V5Z" fill="#205B64"/>
<path d="M279.612 13.008C281.191 13.008 282.354 13.3227 283.1 13.952C283.858 14.5813 284.236 15.424 284.236 16.48C284.236 17.1627 284.066 17.7867 283.724 18.352C283.383 18.9067 282.86 19.3547 282.156 19.696C281.463 20.0267 280.604 20.192 279.58 20.192C278.791 20.192 278.012 20.0907 277.244 19.888C276.487 19.6747 275.842 19.376 275.308 18.992L276.332 17.008C276.759 17.328 277.25 17.5787 277.804 17.76C278.359 17.9307 278.93 18.016 279.516 18.016C280.167 18.016 280.679 17.888 281.052 17.632C281.426 17.376 281.612 17.0187 281.612 16.56C281.612 16.08 281.415 15.7173 281.02 15.472C280.636 15.2267 279.964 15.104 279.004 15.104H276.14L276.716 8.8H283.548V10.88H278.876L278.7 13.008H279.612ZM290.68 12.976C291.395 12.976 292.045 13.12 292.632 13.408C293.219 13.696 293.683 14.1067 294.024 14.64C294.365 15.1627 294.536 15.7707 294.536 16.464C294.536 17.2107 294.349 17.8667 293.976 18.432C293.603 18.9973 293.091 19.4347 292.44 19.744C291.8 20.0427 291.085 20.192 290.296 20.192C288.728 20.192 287.501 19.712 286.616 18.752C285.731 17.792 285.288 16.4213 285.288 14.64C285.288 13.3707 285.528 12.2827 286.008 11.376C286.488 10.4693 287.155 9.78133 288.008 9.312C288.872 8.84267 289.869 8.608 291 8.608C291.597 8.608 292.168 8.67733 292.712 8.816C293.267 8.944 293.736 9.13067 294.12 9.376L293.16 11.28C292.605 10.9067 291.907 10.72 291.064 10.72C290.115 10.72 289.363 10.9973 288.808 11.552C288.253 12.1067 287.955 12.912 287.912 13.968C288.573 13.3067 289.496 12.976 290.68 12.976ZM290.152 18.256C290.707 18.256 291.155 18.1067 291.496 17.808C291.848 17.5093 292.024 17.104 292.024 16.592C292.024 16.08 291.848 15.6747 291.496 15.376C291.155 15.0667 290.696 14.912 290.12 14.912C289.555 14.912 289.091 15.072 288.728 15.392C288.365 15.7013 288.184 16.1013 288.184 16.592C288.184 17.0827 288.36 17.4827 288.712 17.792C289.064 18.1013 289.544 18.256 290.152 18.256Z" fill="white"/>
<path d="M211 43C211 40.2386 213.239 38 216 38H266C268.761 38 271 40.2386 271 43V78C271 80.7614 268.761 83 266 83H216C213.239 83 211 80.7614 211 78V43Z" fill="#369CB7"/>
<path d="M228.694 59.894C229.414 60.17 229.966 60.566 230.35 61.082C230.734 61.598 230.926 62.216 230.926 62.936C230.926 63.692 230.722 64.352 230.314 64.916C229.906 65.468 229.324 65.894 228.568 66.194C227.812 66.494 226.924 66.644 225.904 66.644C224.896 66.644 224.014 66.494 223.258 66.194C222.514 65.894 221.938 65.468 221.53 64.916C221.122 64.352 220.918 63.692 220.918 62.936C220.918 62.216 221.104 61.598 221.476 61.082C221.86 60.566 222.412 60.17 223.132 59.894C222.556 59.618 222.118 59.252 221.818 58.796C221.518 58.34 221.368 57.8 221.368 57.176C221.368 56.48 221.554 55.874 221.926 55.358C222.31 54.842 222.844 54.446 223.528 54.17C224.212 53.894 225.004 53.756 225.904 53.756C226.816 53.756 227.614 53.894 228.298 54.17C228.994 54.446 229.528 54.842 229.9 55.358C230.284 55.874 230.476 56.48 230.476 57.176C230.476 57.788 230.32 58.328 230.008 58.796C229.708 59.252 229.27 59.618 228.694 59.894ZM225.904 55.214C225.052 55.214 224.38 55.4 223.888 55.772C223.396 56.132 223.15 56.624 223.15 57.248C223.15 57.872 223.39 58.364 223.87 58.724C224.362 59.084 225.04 59.264 225.904 59.264C226.78 59.264 227.464 59.084 227.956 58.724C228.46 58.364 228.712 57.872 228.712 57.248C228.712 56.624 228.454 56.132 227.938 55.772C227.434 55.4 226.756 55.214 225.904 55.214ZM225.904 65.186C226.9 65.186 227.686 64.982 228.262 64.574C228.838 64.154 229.126 63.59 229.126 62.882C229.126 62.186 228.838 61.64 228.262 61.244C227.686 60.836 226.9 60.632 225.904 60.632C224.908 60.632 224.128 60.836 223.564 61.244C223 61.64 222.718 62.186 222.718 62.882C222.718 63.59 223 64.154 223.564 64.574C224.128 64.982 224.908 65.186 225.904 65.186ZM244.176 66.5L241.422 62.846L238.632 66.5H236.706L240.468 61.622L236.886 56.96H238.812L241.44 60.398L244.05 56.96H245.94L242.34 61.622L246.138 66.5H244.176ZM261.16 53.9V55.124L256.066 66.5H254.158L259.144 55.466H253.384V57.716H251.656V53.9H261.16Z" fill="white"/>
<path d="M216 39H266V37H216V39ZM270 43V78H272V43H270ZM266 82H216V84H266V82ZM212 78V43H210V78H212ZM216 82C213.791 82 212 80.2091 212 78H210C210 81.3137 212.686 84 216 84V82ZM270 78C270 80.2091 268.209 82 266 82V84C269.314 84 272 81.3137 272 78H270ZM266 39C268.209 39 270 40.7909 270 43H272C272 39.6863 269.314 37 266 37V39ZM216 37C212.686 37 210 39.6863 210 43H212C212 40.7909 213.791 39 216 39V37Z" fill="#369CB7"/>
<path d="M211 98C211 95.2386 213.239 93 216 93H326C328.761 93 331 95.2386 331 98V133C331 135.761 328.761 138 326 138H216C213.239 138 211 135.761 211 133V98Z" fill="#369CB7"/>
<path d="M221.072 124.992C220.388 123.888 219.86 122.622 219.488 121.194C219.116 119.754 218.93 118.212 218.93 116.568C218.93 114.924 219.116 113.382 219.488 111.942C219.86 110.49 220.388 109.224 221.072 108.144H222.71C221.99 109.404 221.462 110.724 221.126 112.104C220.79 113.484 220.622 114.972 220.622 116.568C220.622 118.164 220.79 119.652 221.126 121.032C221.462 122.412 221.99 123.732 222.71 124.992H221.072ZM231.852 114.894C232.572 115.17 233.124 115.566 233.508 116.082C233.892 116.598 234.084 117.216 234.084 117.936C234.084 118.692 233.88 119.352 233.472 119.916C233.064 120.468 232.482 120.894 231.726 121.194C230.97 121.494 230.082 121.644 229.062 121.644C228.054 121.644 227.172 121.494 226.416 121.194C225.672 120.894 225.096 120.468 224.688 119.916C224.28 119.352 224.076 118.692 224.076 117.936C224.076 117.216 224.262 116.598 224.634 116.082C225.018 115.566 225.57 115.17 226.29 114.894C225.714 114.618 225.276 114.252 224.976 113.796C224.676 113.34 224.526 112.8 224.526 112.176C224.526 111.48 224.712 110.874 225.084 110.358C225.468 109.842 226.002 109.446 226.686 109.17C227.37 108.894 228.162 108.756 229.062 108.756C229.974 108.756 230.772 108.894 231.456 109.17C232.152 109.446 232.686 109.842 233.058 110.358C233.442 110.874 233.634 111.48 233.634 112.176C233.634 112.788 233.478 113.328 233.166 113.796C232.866 114.252 232.428 114.618 231.852 114.894ZM229.062 110.214C228.21 110.214 227.538 110.4 227.046 110.772C226.554 111.132 226.308 111.624 226.308 112.248C226.308 112.872 226.548 113.364 227.028 113.724C227.52 114.084 228.198 114.264 229.062 114.264C229.938 114.264 230.622 114.084 231.114 113.724C231.618 113.364 231.87 112.872 231.87 112.248C231.87 111.624 231.612 111.132 231.096 110.772C230.592 110.4 229.914 110.214 229.062 110.214ZM229.062 120.186C230.058 120.186 230.844 119.982 231.42 119.574C231.996 119.154 232.284 118.59 232.284 117.882C232.284 117.186 231.996 116.64 231.42 116.244C230.844 115.836 230.058 115.632 229.062 115.632C228.066 115.632 227.286 115.836 226.722 116.244C226.158 116.64 225.876 117.186 225.876 117.882C225.876 118.59 226.158 119.154 226.722 119.574C227.286 119.982 228.066 120.186 229.062 120.186ZM242.395 121.5L239.641 117.846L236.851 121.5H234.925L238.687 116.622L235.105 111.96H237.031L239.659 115.398L242.269 111.96H244.159L240.559 116.622L244.357 121.5H242.395ZM248.965 113.922C250.765 113.922 252.085 114.264 252.925 114.948C253.777 115.62 254.203 116.544 254.203 117.72C254.203 118.464 254.023 119.136 253.663 119.736C253.315 120.324 252.781 120.792 252.061 121.14C251.353 121.476 250.477 121.644 249.433 121.644C248.545 121.644 247.687 121.512 246.859 121.248C246.031 120.972 245.347 120.594 244.807 120.114L245.635 118.692C246.067 119.1 246.619 119.43 247.291 119.682C247.963 119.922 248.671 120.042 249.415 120.042C250.363 120.042 251.095 119.844 251.611 119.448C252.139 119.04 252.403 118.488 252.403 117.792C252.403 117.036 252.115 116.466 251.539 116.082C250.963 115.686 249.979 115.488 248.587 115.488H245.725L246.391 108.9H253.501V110.466H247.903L247.561 113.922H248.965ZM255.413 124.992C256.133 123.732 256.661 122.412 256.997 121.032C257.345 119.652 257.519 118.164 257.519 116.568C257.519 114.972 257.345 113.484 256.997 112.104C256.661 110.724 256.133 109.404 255.413 108.144H257.051C257.747 109.224 258.281 110.484 258.653 111.924C259.025 113.364 259.211 114.912 259.211 116.568C259.211 118.212 259.025 119.754 258.653 121.194C258.281 122.634 257.747 123.9 257.051 124.992H255.413ZM275.023 115.92H271.747V119.142H270.235V115.92H266.959V114.498H270.235V111.258H271.747V114.498H275.023V115.92ZM284.915 124.992C284.231 123.888 283.703 122.622 283.331 121.194C282.959 119.754 282.773 118.212 282.773 116.568C282.773 114.924 282.959 113.382 283.331 111.942C283.703 110.49 284.231 109.224 284.915 108.144H286.553C285.833 109.404 285.305 110.724 284.969 112.104C284.633 113.484 284.465 114.972 284.465 116.568C284.465 118.164 284.633 119.652 284.969 121.032C285.305 122.412 285.833 123.732 286.553 124.992H284.915ZM295.696 114.894C296.416 115.17 296.968 115.566 297.352 116.082C297.736 116.598 297.928 117.216 297.928 117.936C297.928 118.692 297.724 119.352 297.316 119.916C296.908 120.468 296.326 120.894 295.57 121.194C294.814 121.494 293.926 121.644 292.906 121.644C291.898 121.644 291.016 121.494 290.26 121.194C289.516 120.894 288.94 120.468 288.532 119.916C288.124 119.352 287.92 118.692 287.92 117.936C287.92 117.216 288.106 116.598 288.478 116.082C288.862 115.566 289.414 115.17 290.134 114.894C289.558 114.618 289.12 114.252 288.82 113.796C288.52 113.34 288.37 112.8 288.37 112.176C288.37 111.48 288.556 110.874 288.928 110.358C289.312 109.842 289.846 109.446 290.53 109.17C291.214 108.894 292.006 108.756 292.906 108.756C293.818 108.756 294.616 108.894 295.3 109.17C295.996 109.446 296.53 109.842 296.902 110.358C297.286 110.874 297.478 111.48 297.478 112.176C297.478 112.788 297.322 113.328 297.01 113.796C296.71 114.252 296.272 114.618 295.696 114.894ZM292.906 110.214C292.054 110.214 291.382 110.4 290.89 110.772C290.398 111.132 290.152 111.624 290.152 112.248C290.152 112.872 290.392 113.364 290.872 113.724C291.364 114.084 292.042 114.264 292.906 114.264C293.782 114.264 294.466 114.084 294.958 113.724C295.462 113.364 295.714 112.872 295.714 112.248C295.714 111.624 295.456 111.132 294.94 110.772C294.436 110.4 293.758 110.214 292.906 110.214ZM292.906 120.186C293.902 120.186 294.688 119.982 295.264 119.574C295.84 119.154 296.128 118.59 296.128 117.882C296.128 117.186 295.84 116.64 295.264 116.244C294.688 115.836 293.902 115.632 292.906 115.632C291.91 115.632 291.13 115.836 290.566 116.244C290.002 116.64 289.72 117.186 289.72 117.882C289.72 118.59 290.002 119.154 290.566 119.574C291.13 119.982 291.91 120.186 292.906 120.186ZM306.238 121.5L303.484 117.846L300.694 121.5H298.768L302.53 116.622L298.948 111.96H300.874L303.502 115.398L306.112 111.96H308.002L304.402 116.622L308.2 121.5H306.238ZM318.082 119.934V121.5H309.028V120.276L314.158 115.326C314.782 114.726 315.202 114.21 315.418 113.778C315.634 113.334 315.742 112.89 315.742 112.446C315.742 111.786 315.508 111.276 315.04 110.916C314.584 110.544 313.924 110.358 313.06 110.358C311.668 110.358 310.594 110.814 309.838 111.726L308.614 110.664C309.106 110.064 309.748 109.596 310.54 109.26C311.344 108.924 312.238 108.756 313.222 108.756C314.542 108.756 315.592 109.074 316.372 109.71C317.152 110.334 317.542 111.186 317.542 112.266C317.542 112.938 317.398 113.574 317.11 114.174C316.822 114.774 316.276 115.458 315.472 116.226L311.62 119.934H318.082ZM319.274 124.992C319.994 123.732 320.522 122.412 320.858 121.032C321.206 119.652 321.38 118.164 321.38 116.568C321.38 114.972 321.206 113.484 320.858 112.104C320.522 110.724 319.994 109.404 319.274 108.144H320.912C321.608 109.224 322.142 110.484 322.514 111.924C322.886 113.364 323.072 114.912 323.072 116.568C323.072 118.212 322.886 119.754 322.514 121.194C322.142 122.634 321.608 123.9 320.912 124.992H319.274Z" fill="white"/>
<path d="M216 94H326V92H216V94ZM330 98V133H332V98H330ZM326 137H216V139H326V137ZM212 133V98H210V133H212ZM216 137C213.791 137 212 135.209 212 133H210C210 136.314 212.686 139 216 139V137ZM330 133C330 135.209 328.209 137 326 137V139C329.314 139 332 136.314 332 133H330ZM326 94C328.209 94 330 95.7909 330 98H332C332 94.6863 329.314 92 326 92V94ZM216 92C212.686 92 210 94.6863 210 98H212C212 95.7909 213.791 94 216 94V92Z" fill="#369CB7"/>
<rect x="400.5" y="0.5" width="169" height="169" rx="4.5" stroke="#D0D0D0"/>
<path d="M400 5C400 2.23858 402.239 0 405 0H565C567.761 0 570 2.23858 570 5V28H400V5Z" fill="#205B64"/>
<path d="M479.777 13.008C481.355 13.008 482.518 13.3227 483.265 13.952C484.022 14.5813 484.401 15.424 484.401 16.48C484.401 17.1627 484.23 17.7867 483.889 18.352C483.547 18.9067 483.025 19.3547 482.321 19.696C481.627 20.0267 480.769 20.192 479.745 20.192C478.955 20.192 478.177 20.0907 477.409 19.888C476.651 19.6747 476.006 19.376 475.473 18.992L476.497 17.008C476.923 17.328 477.414 17.5787 477.969 17.76C478.523 17.9307 479.094 18.016 479.681 18.016C480.331 18.016 480.843 17.888 481.217 17.632C481.59 17.376 481.777 17.0187 481.777 16.56C481.777 16.08 481.579 15.7173 481.185 15.472C480.801 15.2267 480.129 15.104 479.169 15.104H476.305L476.881 8.8H483.713V10.88H479.041L478.865 13.008H479.777ZM490.252 20.192C489.324 20.192 488.498 19.9627 487.772 19.504C487.047 19.0453 486.476 18.384 486.06 17.52C485.655 16.6453 485.452 15.6053 485.452 14.4C485.452 13.1947 485.655 12.16 486.06 11.296C486.476 10.4213 487.047 9.75467 487.772 9.296C488.498 8.83733 489.324 8.608 490.252 8.608C491.18 8.608 492.007 8.83733 492.732 9.296C493.458 9.75467 494.023 10.4213 494.428 11.296C494.844 12.16 495.052 13.1947 495.052 14.4C495.052 15.6053 494.844 16.6453 494.428 17.52C494.023 18.384 493.458 19.0453 492.732 19.504C492.007 19.9627 491.18 20.192 490.252 20.192ZM490.252 18C490.935 18 491.468 17.7067 491.852 17.12C492.247 16.5333 492.444 15.6267 492.444 14.4C492.444 13.1733 492.247 12.2667 491.852 11.68C491.468 11.0933 490.935 10.8 490.252 10.8C489.58 10.8 489.047 11.0933 488.652 11.68C488.268 12.2667 488.076 13.1733 488.076 14.4C488.076 15.6267 488.268 16.5333 488.652 17.12C489.047 17.7067 489.58 18 490.252 18Z" fill="white"/>
<path d="M411 43C411 40.2386 413.239 38 416 38H526C528.761 38 531 40.2386 531 43V78C531 80.7614 528.761 83 526 83H416C413.239 83 411 80.7614 411 78V43Z" fill="#369CB7"/>
<path d="M421.713 69.992C421.029 68.888 420.501 67.622 420.129 66.194C419.757 64.754 419.571 63.212 419.571 61.568C419.571 59.924 419.757 58.382 420.129 56.942C420.501 55.49 421.029 54.224 421.713 53.144H423.351C422.631 54.404 422.103 55.724 421.767 57.104C421.431 58.484 421.263 59.972 421.263 61.568C421.263 63.164 421.431 64.652 421.767 66.032C422.103 67.412 422.631 68.732 423.351 69.992H421.713ZM432.494 59.894C433.214 60.17 433.766 60.566 434.15 61.082C434.534 61.598 434.726 62.216 434.726 62.936C434.726 63.692 434.522 64.352 434.114 64.916C433.706 65.468 433.124 65.894 432.368 66.194C431.612 66.494 430.724 66.644 429.704 66.644C428.696 66.644 427.814 66.494 427.058 66.194C426.314 65.894 425.738 65.468 425.33 64.916C424.922 64.352 424.718 63.692 424.718 62.936C424.718 62.216 424.904 61.598 425.276 61.082C425.66 60.566 426.212 60.17 426.932 59.894C426.356 59.618 425.918 59.252 425.618 58.796C425.318 58.34 425.168 57.8 425.168 57.176C425.168 56.48 425.354 55.874 425.726 55.358C426.11 54.842 426.644 54.446 427.328 54.17C428.012 53.894 428.804 53.756 429.704 53.756C430.616 53.756 431.414 53.894 432.098 54.17C432.794 54.446 433.328 54.842 433.7 55.358C434.084 55.874 434.276 56.48 434.276 57.176C434.276 57.788 434.12 58.328 433.808 58.796C433.508 59.252 433.07 59.618 432.494 59.894ZM429.704 55.214C428.852 55.214 428.18 55.4 427.688 55.772C427.196 56.132 426.95 56.624 426.95 57.248C426.95 57.872 427.19 58.364 427.67 58.724C428.162 59.084 428.84 59.264 429.704 59.264C430.58 59.264 431.264 59.084 431.756 58.724C432.26 58.364 432.512 57.872 432.512 57.248C432.512 56.624 432.254 56.132 431.738 55.772C431.234 55.4 430.556 55.214 429.704 55.214ZM429.704 65.186C430.7 65.186 431.486 64.982 432.062 64.574C432.638 64.154 432.926 63.59 432.926 62.882C432.926 62.186 432.638 61.64 432.062 61.244C431.486 60.836 430.7 60.632 429.704 60.632C428.708 60.632 427.928 60.836 427.364 61.244C426.8 61.64 426.518 62.186 426.518 62.882C426.518 63.59 426.8 64.154 427.364 64.574C427.928 64.982 428.708 65.186 429.704 65.186ZM443.036 66.5L440.282 62.846L437.492 66.5H435.566L439.328 61.622L435.746 56.96H437.672L440.3 60.398L442.91 56.96H444.8L441.2 61.622L444.998 66.5H443.036ZM449.607 58.922C451.407 58.922 452.727 59.264 453.567 59.948C454.419 60.62 454.845 61.544 454.845 62.72C454.845 63.464 454.665 64.136 454.305 64.736C453.957 65.324 453.423 65.792 452.703 66.14C451.995 66.476 451.119 66.644 450.075 66.644C449.187 66.644 448.329 66.512 447.501 66.248C446.673 65.972 445.989 65.594 445.449 65.114L446.277 63.692C446.709 64.1 447.261 64.43 447.933 64.682C448.605 64.922 449.313 65.042 450.057 65.042C451.005 65.042 451.737 64.844 452.253 64.448C452.781 64.04 453.045 63.488 453.045 62.792C453.045 62.036 452.757 61.466 452.181 61.082C451.605 60.686 450.621 60.488 449.229 60.488H446.367L447.033 53.9H454.143V55.466H448.545L448.203 58.922H449.607ZM456.055 69.992C456.775 68.732 457.303 67.412 457.639 66.032C457.987 64.652 458.161 63.164 458.161 61.568C458.161 59.972 457.987 58.484 457.639 57.104C457.303 55.724 456.775 54.404 456.055 53.144H457.693C458.389 54.224 458.923 55.484 459.295 56.924C459.667 58.364 459.853 59.912 459.853 61.568C459.853 63.212 459.667 64.754 459.295 66.194C458.923 67.634 458.389 68.9 457.693 69.992H456.055ZM475.665 60.92H472.389V64.142H470.877V60.92H467.601V59.498H470.877V56.258H472.389V59.498H475.665V60.92ZM485.557 69.992C484.873 68.888 484.345 67.622 483.973 66.194C483.601 64.754 483.415 63.212 483.415 61.568C483.415 59.924 483.601 58.382 483.973 56.942C484.345 55.49 484.873 54.224 485.557 53.144H487.195C486.475 54.404 485.947 55.724 485.611 57.104C485.275 58.484 485.107 59.972 485.107 61.568C485.107 63.164 485.275 64.652 485.611 66.032C485.947 67.412 486.475 68.732 487.195 69.992H485.557ZM492.234 58.922C494.034 58.922 495.354 59.264 496.194 59.948C497.046 60.62 497.472 61.544 497.472 62.72C497.472 63.464 497.292 64.136 496.932 64.736C496.584 65.324 496.05 65.792 495.33 66.14C494.622 66.476 493.746 66.644 492.702 66.644C491.814 66.644 490.956 66.512 490.128 66.248C489.3 65.972 488.616 65.594 488.076 65.114L488.904 63.692C489.336 64.1 489.888 64.43 490.56 64.682C491.232 64.922 491.94 65.042 492.684 65.042C493.632 65.042 494.364 64.844 494.88 64.448C495.408 64.04 495.672 63.488 495.672 62.792C495.672 62.036 495.384 61.466 494.808 61.082C494.232 60.686 493.248 60.488 491.856 60.488H488.994L489.66 53.9H496.77V55.466H491.172L490.83 58.922H492.234ZM505.597 66.5L502.843 62.846L500.053 66.5H498.127L501.889 61.622L498.307 56.96H500.233L502.861 60.398L505.471 56.96H507.361L503.761 61.622L507.559 66.5H505.597ZM517.441 64.934V66.5H508.387V65.276L513.517 60.326C514.141 59.726 514.561 59.21 514.777 58.778C514.993 58.334 515.101 57.89 515.101 57.446C515.101 56.786 514.867 56.276 514.399 55.916C513.943 55.544 513.283 55.358 512.419 55.358C511.027 55.358 509.953 55.814 509.197 56.726L507.973 55.664C508.465 55.064 509.107 54.596 509.899 54.26C510.703 53.924 511.597 53.756 512.581 53.756C513.901 53.756 514.951 54.074 515.731 54.71C516.511 55.334 516.901 56.186 516.901 57.266C516.901 57.938 516.757 58.574 516.469 59.174C516.181 59.774 515.635 60.458 514.831 61.226L510.979 64.934H517.441ZM518.633 69.992C519.353 68.732 519.881 67.412 520.217 66.032C520.565 64.652 520.739 63.164 520.739 61.568C520.739 59.972 520.565 58.484 520.217 57.104C519.881 55.724 519.353 54.404 518.633 53.144H520.271C520.967 54.224 521.501 55.484 521.873 56.924C522.245 58.364 522.431 59.912 522.431 61.568C522.431 63.212 522.245 64.754 521.873 66.194C521.501 67.634 520.967 68.9 520.271 69.992H518.633Z" fill="white"/>
<path d="M416 39H526V37H416V39ZM530 43V78H532V43H530ZM526 82H416V84H526V82ZM412 78V43H410V78H412ZM416 82C413.791 82 412 80.2091 412 78H410C410 81.3137 412.686 84 416 84V82ZM530 78C530 80.2091 528.209 82 526 82V84C529.314 84 532 81.3137 532 78H530ZM526 39C528.209 39 530 40.7909 530 43H532C532 39.6863 529.314 37 526 37V39ZM416 37C412.686 37 410 39.6863 410 43H412C412 40.7909 413.791 39 416 39V37Z" fill="#369CB7"/>
<path d="M411 98C411 95.2386 413.239 93 416 93H526C528.761 93 531 95.2386 531 98V133C531 135.761 528.761 138 526 138H416C413.239 138 411 135.761 411 133V98Z" fill="#369CB7"/>
<path d="M440.554 113.922C442.354 113.922 443.674 114.264 444.514 114.948C445.366 115.62 445.792 116.544 445.792 117.72C445.792 118.464 445.612 119.136 445.252 119.736C444.904 120.324 444.37 120.792 443.65 121.14C442.942 121.476 442.066 121.644 441.022 121.644C440.134 121.644 439.276 121.512 438.448 121.248C437.62 120.972 436.936 120.594 436.396 120.114L437.224 118.692C437.656 119.1 438.208 119.43 438.88 119.682C439.552 119.922 440.26 120.042 441.004 120.042C441.952 120.042 442.684 119.844 443.2 119.448C443.728 119.04 443.992 118.488 443.992 117.792C443.992 117.036 443.704 116.466 443.128 116.082C442.552 115.686 441.568 115.488 440.176 115.488H437.314L437.98 108.9H445.09V110.466H439.492L439.15 113.922H440.554ZM458.892 121.5L456.138 117.846L453.348 121.5H451.422L455.184 116.622L451.602 111.96H453.528L456.156 115.398L458.766 111.96H460.656L457.056 116.622L460.854 121.5H458.892ZM470.296 113.922C472.096 113.922 473.416 114.264 474.256 114.948C475.108 115.62 475.534 116.544 475.534 117.72C475.534 118.464 475.354 119.136 474.994 119.736C474.646 120.324 474.112 120.792 473.392 121.14C472.684 121.476 471.808 121.644 470.764 121.644C469.876 121.644 469.018 121.512 468.19 121.248C467.362 120.972 466.678 120.594 466.138 120.114L466.966 118.692C467.398 119.1 467.95 119.43 468.622 119.682C469.294 119.922 470.002 120.042 470.746 120.042C471.694 120.042 472.426 119.844 472.942 119.448C473.47 119.04 473.734 118.488 473.734 117.792C473.734 117.036 473.446 116.466 472.87 116.082C472.294 115.686 471.31 115.488 469.918 115.488H467.056L467.722 108.9H474.832V110.466H469.234L468.892 113.922H470.296ZM488.634 121.5L485.88 117.846L483.09 121.5H481.164L484.926 116.622L481.344 111.96H483.27L485.898 115.398L488.508 111.96H490.398L486.798 116.622L490.596 121.5H488.634ZM505.294 119.934V121.5H496.24V120.276L501.37 115.326C501.994 114.726 502.414 114.21 502.63 113.778C502.846 113.334 502.954 112.89 502.954 112.446C502.954 111.786 502.72 111.276 502.252 110.916C501.796 110.544 501.136 110.358 500.272 110.358C498.88 110.358 497.806 110.814 497.05 111.726L495.826 110.664C496.318 110.064 496.96 109.596 497.752 109.26C498.556 108.924 499.45 108.756 500.434 108.756C501.754 108.756 502.804 109.074 503.584 109.71C504.364 110.334 504.754 111.186 504.754 112.266C504.754 112.938 504.61 113.574 504.322 114.174C504.034 114.774 503.488 115.458 502.684 116.226L498.832 119.934H505.294Z" fill="white"/>
<path d="M416 94H526V92H416V94ZM530 98V133H532V98H530ZM526 137H416V139H526V137ZM412 133V98H410V133H412ZM416 137C413.791 137 412 135.209 412 133H410C410 136.314 412.686 139 416 139V137ZM530 133C530 135.209 528.209 137 526 137V139C529.314 139 532 136.314 532 133H530ZM526 94C528.209 94 530 95.7909 530 98H532C532 94.6863 529.314 92 526 92V94ZM416 92C412.686 92 410 94.6863 410 98H412C412 95.7909 413.791 94 416 94V92Z" fill="#369CB7"/>
</svg>
