<svg width="120" height="45" viewBox="0 0 120 45" fill="none" xmlns="http://www.w3.org/2000/svg">
<path d="M0 5C0 2.23858 2.23858 0 5 0H115C117.761 0 120 2.23858 120 5V40C120 42.7614 117.761 45 115 45H5C2.23858 45 0 42.7614 0 40V5Z" fill="#369CB7"/>
<path d="M10.0717 31.992C9.38773 30.888 8.85973 29.622 8.48773 28.194C8.11573 26.754 7.92973 25.212 7.92973 23.568C7.92973 21.924 8.11573 20.382 8.48773 18.942C8.85973 17.49 9.38773 16.224 10.0717 15.144H11.7097C10.9897 16.404 10.4617 17.724 10.1257 19.104C9.78973 20.484 9.62173 21.972 9.62173 23.568C9.62173 25.164 9.78973 26.652 10.1257 28.032C10.4617 29.412 10.9897 30.732 11.7097 31.992H10.0717ZM20.8522 21.894C21.5722 22.17 22.1242 22.566 22.5082 23.082C22.8922 23.598 23.0842 24.216 23.0842 24.936C23.0842 25.692 22.8802 26.352 22.4722 26.916C22.0642 27.468 21.4822 27.894 20.7262 28.194C19.9702 28.494 19.0822 28.644 18.0622 28.644C17.0542 28.644 16.1722 28.494 15.4162 28.194C14.6722 27.894 14.0962 27.468 13.6882 26.916C13.2802 26.352 13.0762 25.692 13.0762 24.936C13.0762 24.216 13.2622 23.598 13.6342 23.082C14.0182 22.566 14.5702 22.17 15.2902 21.894C14.7142 21.618 14.2762 21.252 13.9762 20.796C13.6762 20.34 13.5262 19.8 13.5262 19.176C13.5262 18.48 13.7122 17.874 14.0842 17.358C14.4682 16.842 15.0022 16.446 15.6862 16.17C16.3702 15.894 17.1622 15.756 18.0622 15.756C18.9742 15.756 19.7722 15.894 20.4562 16.17C21.1522 16.446 21.6862 16.842 22.0582 17.358C22.4422 17.874 22.6342 18.48 22.6342 19.176C22.6342 19.788 22.4782 20.328 22.1662 20.796C21.8662 21.252 21.4282 21.618 20.8522 21.894ZM18.0622 17.214C17.2102 17.214 16.5382 17.4 16.0462 17.772C15.5542 18.132 15.3082 18.624 15.3082 19.248C15.3082 19.872 15.5482 20.364 16.0282 20.724C16.5202 21.084 17.1982 21.264 18.0622 21.264C18.9382 21.264 19.6222 21.084 20.1142 20.724C20.6182 20.364 20.8702 19.872 20.8702 19.248C20.8702 18.624 20.6122 18.132 20.0962 17.772C19.5922 17.4 18.9142 17.214 18.0622 17.214ZM18.0622 27.186C19.0582 27.186 19.8442 26.982 20.4202 26.574C20.9962 26.154 21.2842 25.59 21.2842 24.882C21.2842 24.186 20.9962 23.64 20.4202 23.244C19.8442 22.836 19.0582 22.632 18.0622 22.632C17.0662 22.632 16.2862 22.836 15.7222 23.244C15.1582 23.64 14.8762 24.186 14.8762 24.882C14.8762 25.59 15.1582 26.154 15.7222 26.574C16.2862 26.982 17.0662 27.186 18.0622 27.186ZM31.3947 28.5L28.6407 24.846L25.8507 28.5H23.9247L27.6867 23.622L24.1047 18.96H26.0307L28.6587 22.398L31.2687 18.96H33.1587L29.5587 23.622L33.3567 28.5H31.3947ZM37.965 20.922C39.765 20.922 41.085 21.264 41.925 21.948C42.777 22.62 43.203 23.544 43.203 24.72C43.203 25.464 43.023 26.136 42.663 26.736C42.315 27.324 41.781 27.792 41.061 28.14C40.353 28.476 39.477 28.644 38.433 28.644C37.545 28.644 36.687 28.512 35.859 28.248C35.031 27.972 34.347 27.594 33.807 27.114L34.635 25.692C35.067 26.1 35.619 26.43 36.291 26.682C36.963 26.922 37.671 27.042 38.415 27.042C39.363 27.042 40.095 26.844 40.611 26.448C41.139 26.04 41.403 25.488 41.403 24.792C41.403 24.036 41.115 23.466 40.539 23.082C39.963 22.686 38.979 22.488 37.587 22.488H34.725L35.391 15.9H42.501V17.466H36.903L36.561 20.922H37.965ZM44.4129 31.992C45.1329 30.732 45.6609 29.412 45.9969 28.032C46.3449 26.652 46.5189 25.164 46.5189 23.568C46.5189 21.972 46.3449 20.484 45.9969 19.104C45.6609 17.724 45.1329 16.404 44.4129 15.144H46.0509C46.7469 16.224 47.2809 17.484 47.6529 18.924C48.0249 20.364 48.2109 21.912 48.2109 23.568C48.2109 25.212 48.0249 26.754 47.6529 28.194C47.2809 29.634 46.7469 30.9 46.0509 31.992H44.4129ZM64.0229 22.92H60.7469V26.142H59.2349V22.92H55.9589V21.498H59.2349V18.258H60.7469V21.498H64.0229V22.92ZM73.9155 31.992C73.2315 30.888 72.7035 29.622 72.3315 28.194C71.9595 26.754 71.7735 25.212 71.7735 23.568C71.7735 21.924 71.9595 20.382 72.3315 18.942C72.7035 17.49 73.2315 16.224 73.9155 15.144H75.5535C74.8335 16.404 74.3055 17.724 73.9695 19.104C73.6335 20.484 73.4655 21.972 73.4655 23.568C73.4655 25.164 73.6335 26.652 73.9695 28.032C74.3055 29.412 74.8335 30.732 75.5535 31.992H73.9155ZM84.6959 21.894C85.4159 22.17 85.9679 22.566 86.3519 23.082C86.7359 23.598 86.9279 24.216 86.9279 24.936C86.9279 25.692 86.7239 26.352 86.3159 26.916C85.9079 27.468 85.3259 27.894 84.5699 28.194C83.8139 28.494 82.9259 28.644 81.9059 28.644C80.8979 28.644 80.0159 28.494 79.2599 28.194C78.5159 27.894 77.9399 27.468 77.5319 26.916C77.1239 26.352 76.9199 25.692 76.9199 24.936C76.9199 24.216 77.1059 23.598 77.4779 23.082C77.8619 22.566 78.4139 22.17 79.1339 21.894C78.5579 21.618 78.1199 21.252 77.8199 20.796C77.5199 20.34 77.3699 19.8 77.3699 19.176C77.3699 18.48 77.5559 17.874 77.9279 17.358C78.3119 16.842 78.8459 16.446 79.5299 16.17C80.2139 15.894 81.0059 15.756 81.9059 15.756C82.8179 15.756 83.6159 15.894 84.2999 16.17C84.9959 16.446 85.5299 16.842 85.9019 17.358C86.2859 17.874 86.4779 18.48 86.4779 19.176C86.4779 19.788 86.3219 20.328 86.0099 20.796C85.7099 21.252 85.2719 21.618 84.6959 21.894ZM81.9059 17.214C81.0539 17.214 80.3819 17.4 79.8899 17.772C79.3979 18.132 79.1519 18.624 79.1519 19.248C79.1519 19.872 79.3919 20.364 79.8719 20.724C80.3639 21.084 81.0419 21.264 81.9059 21.264C82.7819 21.264 83.4659 21.084 83.9579 20.724C84.4619 20.364 84.7139 19.872 84.7139 19.248C84.7139 18.624 84.4559 18.132 83.9399 17.772C83.4359 17.4 82.7579 17.214 81.9059 17.214ZM81.9059 27.186C82.9019 27.186 83.6879 26.982 84.2639 26.574C84.8399 26.154 85.1279 25.59 85.1279 24.882C85.1279 24.186 84.8399 23.64 84.2639 23.244C83.6879 22.836 82.9019 22.632 81.9059 22.632C80.9099 22.632 80.1299 22.836 79.5659 23.244C79.0019 23.64 78.7199 24.186 78.7199 24.882C78.7199 25.59 79.0019 26.154 79.5659 26.574C80.1299 26.982 80.9099 27.186 81.9059 27.186ZM95.2384 28.5L92.4844 24.846L89.6944 28.5H87.7684L91.5304 23.622L87.9484 18.96H89.8744L92.5024 22.398L95.1124 18.96H97.0024L93.4024 23.622L97.2004 28.5H95.2384ZM107.082 26.934V28.5H98.0283V27.276L103.158 22.326C103.782 21.726 104.202 21.21 104.418 20.778C104.634 20.334 104.742 19.89 104.742 19.446C104.742 18.786 104.508 18.276 104.04 17.916C103.584 17.544 102.924 17.358 102.06 17.358C100.668 17.358 99.5943 17.814 98.8383 18.726L97.6143 17.664C98.1063 17.064 98.7483 16.596 99.5403 16.26C100.344 15.924 101.238 15.756 102.222 15.756C103.542 15.756 104.592 16.074 105.372 16.71C106.152 17.334 106.542 18.186 106.542 19.266C106.542 19.938 106.398 20.574 106.11 21.174C105.822 21.774 105.276 22.458 104.472 23.226L100.62 26.934H107.082ZM108.274 31.992C108.994 30.732 109.522 29.412 109.858 28.032C110.206 26.652 110.38 25.164 110.38 23.568C110.38 21.972 110.206 20.484 109.858 19.104C109.522 17.724 108.994 16.404 108.274 15.144H109.912C110.608 16.224 111.142 17.484 111.514 18.924C111.886 20.364 112.072 21.912 112.072 23.568C112.072 25.212 111.886 26.754 111.514 28.194C111.142 29.634 110.608 30.9 109.912 31.992H108.274Z" fill="white"/>
<path d="M5 1H115V-1H5V1ZM119 5V40H121V5H119ZM115 44H5V46H115V44ZM1 40V5H-1V40H1ZM5 44C2.79086 44 1 42.2091 1 40H-1C-1 43.3137 1.68629 46 5 46V44ZM119 40C119 42.2091 117.209 44 115 44V46C118.314 46 121 43.3137 121 40H119ZM115 1C117.209 1 119 2.79086 119 5H121C121 1.68629 118.314 -1 115 -1V1ZM5 -1C1.68629 -1 -1 1.68629 -1 5H1C1 2.79086 2.79086 1 5 1V-1Z" fill="#369CB7"/>
</svg>
