<svg width="60" height="45" viewBox="0 0 60 45" fill="none" xmlns="http://www.w3.org/2000/svg">
<path d="M0 5C0 2.23858 2.23858 0 5 0H55C57.7614 0 60 2.23858 60 5V40C60 42.7614 57.7614 45 55 45H5C2.23858 45 0 42.7614 0 40V5Z" fill="#369CB7"/>
<path d="M11.3999 15.9V28.5H9.61788V17.466H6.77388V15.9H11.3999ZM17.756 20.922C19.556 20.922 20.876 21.264 21.716 21.948C22.568 22.62 22.994 23.544 22.994 24.72C22.994 25.464 22.814 26.136 22.454 26.736C22.106 27.324 21.572 27.792 20.852 28.14C20.144 28.476 19.268 28.644 18.224 28.644C17.336 28.644 16.478 28.512 15.65 28.248C14.822 27.972 14.138 27.594 13.598 27.114L14.426 25.692C14.858 26.1 15.41 26.43 16.082 26.682C16.754 26.922 17.462 27.042 18.206 27.042C19.154 27.042 19.886 26.844 20.402 26.448C20.93 26.04 21.194 25.488 21.194 24.792C21.194 24.036 20.906 23.466 20.33 23.082C19.754 22.686 18.77 22.488 17.378 22.488H14.516L15.182 15.9H22.292V17.466H16.694L16.352 20.922H17.756ZM36.0939 28.5L33.3399 24.846L30.5499 28.5H28.6239L32.3859 23.622L28.8039 18.96H30.7299L33.3579 22.398L35.9679 18.96H37.8579L34.2579 23.622L38.0559 28.5H36.0939ZM52.7542 26.934V28.5H43.7002V27.276L48.8302 22.326C49.4542 21.726 49.8742 21.21 50.0902 20.778C50.3062 20.334 50.4142 19.89 50.4142 19.446C50.4142 18.786 50.1802 18.276 49.7122 17.916C49.2562 17.544 48.5962 17.358 47.7322 17.358C46.3402 17.358 45.2662 17.814 44.5102 18.726L43.2862 17.664C43.7782 17.064 44.4202 16.596 45.2122 16.26C46.0162 15.924 46.9102 15.756 47.8942 15.756C49.2142 15.756 50.2642 16.074 51.0442 16.71C51.8242 17.334 52.2142 18.186 52.2142 19.266C52.2142 19.938 52.0702 20.574 51.7822 21.174C51.4942 21.774 50.9482 22.458 50.1442 23.226L46.2922 26.934H52.7542Z" fill="white"/>
<path d="M5 1H55V-1H5V1ZM59 5V40H61V5H59ZM55 44H5V46H55V44ZM1 40V5H-1V40H1ZM5 44C2.79086 44 1 42.2091 1 40H-1C-1 43.3137 1.68629 46 5 46V44ZM59 40C59 42.2091 57.2091 44 55 44V46C58.3137 46 61 43.3137 61 40H59ZM55 1C57.2091 1 59 2.79086 59 5H61C61 1.68629 58.3137 -1 55 -1V1ZM5 -1C1.68629 -1 -1 1.68629 -1 5H1C1 2.79086 2.79086 1 5 1V-1Z" fill="#369CB7"/>
</svg>
