<svg width="120" height="45" viewBox="0 0 120 45" fill="none" xmlns="http://www.w3.org/2000/svg">
<path d="M0 5C0 2.23858 2.23858 0 5 0H115C117.761 0 120 2.23858 120 5V40C120 42.7614 117.761 45 115 45H5C2.23858 45 0 42.7614 0 40V5Z" fill="#369CB7"/>
<path d="M11.4868 31.992C10.8028 30.888 10.2748 29.622 9.90277 28.194C9.53077 26.754 9.34477 25.212 9.34477 23.568C9.34477 21.924 9.53077 20.382 9.90277 18.942C10.2748 17.49 10.8028 16.224 11.4868 15.144H13.1248C12.4048 16.404 11.8768 17.724 11.5408 19.104C11.2048 20.484 11.0368 21.972 11.0368 23.568C11.0368 25.164 11.2048 26.652 11.5408 28.032C11.8768 29.412 12.4048 30.732 13.1248 31.992H11.4868ZM19.3872 21.192C20.6232 21.312 21.5652 21.696 22.2132 22.344C22.8612 22.98 23.1852 23.796 23.1852 24.792C23.1852 25.512 23.0052 26.166 22.6452 26.754C22.2852 27.33 21.7452 27.792 21.0252 28.14C20.3172 28.476 19.4472 28.644 18.4152 28.644C17.5152 28.644 16.6512 28.512 15.8232 28.248C14.9952 27.972 14.3172 27.594 13.7892 27.114L14.6172 25.692C15.0492 26.1 15.6012 26.43 16.2732 26.682C16.9452 26.922 17.6592 27.042 18.4152 27.042C19.3512 27.042 20.0772 26.844 20.5932 26.448C21.1212 26.052 21.3852 25.506 21.3852 24.81C21.3852 24.114 21.1272 23.574 20.6112 23.19C20.0952 22.806 19.3152 22.614 18.2712 22.614H17.2632V21.354L20.4312 17.466H14.3652V15.9H22.6812V17.124L19.3872 21.192ZM31.4035 28.5L28.6495 24.846L25.8595 28.5H23.9335L27.6955 23.622L24.1135 18.96H26.0395L28.6675 22.398L31.2775 18.96H33.1675L29.5675 23.622L33.3655 28.5H31.4035ZM37.9738 20.922C39.7738 20.922 41.0938 21.264 41.9338 21.948C42.7858 22.62 43.2118 23.544 43.2118 24.72C43.2118 25.464 43.0318 26.136 42.6718 26.736C42.3238 27.324 41.7898 27.792 41.0698 28.14C40.3618 28.476 39.4858 28.644 38.4418 28.644C37.5538 28.644 36.6958 28.512 35.8678 28.248C35.0398 27.972 34.3558 27.594 33.8158 27.114L34.6438 25.692C35.0758 26.1 35.6278 26.43 36.2998 26.682C36.9718 26.922 37.6798 27.042 38.4238 27.042C39.3718 27.042 40.1038 26.844 40.6198 26.448C41.1478 26.04 41.4118 25.488 41.4118 24.792C41.4118 24.036 41.1238 23.466 40.5478 23.082C39.9718 22.686 38.9878 22.488 37.5958 22.488H34.7338L35.3998 15.9H42.5098V17.466H36.9118L36.5698 20.922H37.9738ZM44.4217 31.992C45.1417 30.732 45.6697 29.412 46.0057 28.032C46.3537 26.652 46.5277 25.164 46.5277 23.568C46.5277 21.972 46.3537 20.484 46.0057 19.104C45.6697 17.724 45.1417 16.404 44.4217 15.144H46.0597C46.7557 16.224 47.2897 17.484 47.6617 18.924C48.0337 20.364 48.2197 21.912 48.2197 23.568C48.2197 25.212 48.0337 26.754 47.6617 28.194C47.2897 29.634 46.7557 30.9 46.0597 31.992H44.4217ZM64.0317 22.92H60.7557V26.142H59.2437V22.92H55.9677V21.498H59.2437V18.258H60.7557V21.498H64.0317V22.92ZM73.9243 31.992C73.2403 30.888 72.7123 29.622 72.3403 28.194C71.9683 26.754 71.7823 25.212 71.7823 23.568C71.7823 21.924 71.9683 20.382 72.3403 18.942C72.7123 17.49 73.2403 16.224 73.9243 15.144H75.5623C74.8423 16.404 74.3143 17.724 73.9783 19.104C73.6423 20.484 73.4743 21.972 73.4743 23.568C73.4743 25.164 73.6423 26.652 73.9783 28.032C74.3143 29.412 74.8423 30.732 75.5623 31.992H73.9243ZM81.8247 21.192C83.0607 21.312 84.0027 21.696 84.6507 22.344C85.2987 22.98 85.6227 23.796 85.6227 24.792C85.6227 25.512 85.4427 26.166 85.0827 26.754C84.7227 27.33 84.1827 27.792 83.4627 28.14C82.7547 28.476 81.8847 28.644 80.8527 28.644C79.9527 28.644 79.0887 28.512 78.2607 28.248C77.4327 27.972 76.7547 27.594 76.2267 27.114L77.0547 25.692C77.4867 26.1 78.0387 26.43 78.7107 26.682C79.3827 26.922 80.0967 27.042 80.8527 27.042C81.7887 27.042 82.5147 26.844 83.0307 26.448C83.5587 26.052 83.8227 25.506 83.8227 24.81C83.8227 24.114 83.5647 23.574 83.0487 23.19C82.5327 22.806 81.7527 22.614 80.7087 22.614H79.7007V21.354L82.8687 17.466H76.8027V15.9H85.1187V17.124L81.8247 21.192ZM93.841 28.5L91.087 24.846L88.297 28.5H86.371L90.133 23.622L86.551 18.96H88.477L91.105 22.398L93.715 18.96H95.605L92.005 23.622L95.803 28.5H93.841ZM100.411 20.922C102.211 20.922 103.531 21.264 104.371 21.948C105.223 22.62 105.649 23.544 105.649 24.72C105.649 25.464 105.469 26.136 105.109 26.736C104.761 27.324 104.227 27.792 103.507 28.14C102.799 28.476 101.923 28.644 100.879 28.644C99.9913 28.644 99.1333 28.512 98.3053 28.248C97.4773 27.972 96.7933 27.594 96.2533 27.114L97.0813 25.692C97.5133 26.1 98.0653 26.43 98.7373 26.682C99.4093 26.922 100.117 27.042 100.861 27.042C101.809 27.042 102.541 26.844 103.057 26.448C103.585 26.04 103.849 25.488 103.849 24.792C103.849 24.036 103.561 23.466 102.985 23.082C102.409 22.686 101.425 22.488 100.033 22.488H97.1713L97.8373 15.9H104.947V17.466H99.3493L99.0073 20.922H100.411ZM106.859 31.992C107.579 30.732 108.107 29.412 108.443 28.032C108.791 26.652 108.965 25.164 108.965 23.568C108.965 21.972 108.791 20.484 108.443 19.104C108.107 17.724 107.579 16.404 106.859 15.144H108.497C109.193 16.224 109.727 17.484 110.099 18.924C110.471 20.364 110.657 21.912 110.657 23.568C110.657 25.212 110.471 26.754 110.099 28.194C109.727 29.634 109.193 30.9 108.497 31.992H106.859Z" fill="white"/>
<path d="M5 1H115V-1H5V1ZM119 5V40H121V5H119ZM115 44H5V46H115V44ZM1 40V5H-1V40H1ZM5 44C2.79086 44 1 42.2091 1 40H-1C-1 43.3137 1.68629 46 5 46V44ZM119 40C119 42.2091 117.209 44 115 44V46C118.314 46 121 43.3137 121 40H119ZM115 1C117.209 1 119 2.79086 119 5H121C121 1.68629 118.314 -1 115 -1V1ZM5 -1C1.68629 -1 -1 1.68629 -1 5H1C1 2.79086 2.79086 1 5 1V-1Z" fill="#369CB7"/>
</svg>
