<svg width="60" height="45" viewBox="0 0 60 45" fill="none" xmlns="http://www.w3.org/2000/svg">
<path d="M0 5C0 2.23858 2.23858 0 5 0H55C57.7614 0 60 2.23858 60 5V40C60 42.7614 57.7614 45 55 45H5C2.23858 45 0 42.7614 0 40V5Z" fill="#369CB7"/>
<path d="M11.5005 21.192C12.7365 21.312 13.6785 21.696 14.3265 22.344C14.9745 22.98 15.2985 23.796 15.2985 24.792C15.2985 25.512 15.1185 26.166 14.7585 26.754C14.3985 27.33 13.8585 27.792 13.1385 28.14C12.4305 28.476 11.5605 28.644 10.5285 28.644C9.6285 28.644 8.7645 28.512 7.9365 28.248C7.1085 27.972 6.4305 27.594 5.9025 27.114L6.7305 25.692C7.1625 26.1 7.7145 26.43 8.3865 26.682C9.0585 26.922 9.7725 27.042 10.5285 27.042C11.4645 27.042 12.1905 26.844 12.7065 26.448C13.2345 26.052 13.4985 25.506 13.4985 24.81C13.4985 24.114 13.2405 23.574 12.7245 23.19C12.2085 22.806 11.4285 22.614 10.3845 22.614H9.3765V21.354L12.5445 17.466H6.4785V15.9H14.7945V17.124L11.5005 21.192ZM28.5793 28.5L25.8253 24.846L23.0353 28.5H21.1093L24.8713 23.622L21.2893 18.96H23.2153L25.8433 22.398L28.4533 18.96H30.3433L26.7433 23.622L30.5413 28.5H28.5793ZM40.2895 15.9V28.5H38.5075V17.466H35.6635V15.9H40.2895ZM48.1936 28.644C47.1976 28.644 46.3096 28.392 45.5296 27.888C44.7616 27.372 44.1556 26.628 43.7116 25.656C43.2676 24.684 43.0456 23.532 43.0456 22.2C43.0456 20.868 43.2676 19.716 43.7116 18.744C44.1556 17.772 44.7616 17.034 45.5296 16.53C46.3096 16.014 47.1976 15.756 48.1936 15.756C49.1776 15.756 50.0536 16.014 50.8216 16.53C51.6016 17.034 52.2136 17.772 52.6576 18.744C53.1016 19.716 53.3236 20.868 53.3236 22.2C53.3236 23.532 53.1016 24.684 52.6576 25.656C52.2136 26.628 51.6016 27.372 50.8216 27.888C50.0536 28.392 49.1776 28.644 48.1936 28.644ZM48.1936 27.042C49.2016 27.042 50.0056 26.628 50.6056 25.8C51.2176 24.972 51.5236 23.772 51.5236 22.2C51.5236 20.628 51.2176 19.428 50.6056 18.6C50.0056 17.772 49.2016 17.358 48.1936 17.358C47.1736 17.358 46.3576 17.772 45.7456 18.6C45.1456 19.428 44.8456 20.628 44.8456 22.2C44.8456 23.772 45.1456 24.972 45.7456 25.8C46.3576 26.628 47.1736 27.042 48.1936 27.042Z" fill="white"/>
<path d="M5 1H55V-1H5V1ZM59 5V40H61V5H59ZM55 44H5V46H55V44ZM1 40V5H-1V40H1ZM5 44C2.79086 44 1 42.2091 1 40H-1C-1 43.3137 1.68629 46 5 46V44ZM59 40C59 42.2091 57.2091 44 55 44V46C58.3137 46 61 43.3137 61 40H59ZM55 1C57.2091 1 59 2.79086 59 5H61C61 1.68629 58.3137 -1 55 -1V1ZM5 -1C1.68629 -1 -1 1.68629 -1 5H1C1 2.79086 2.79086 1 5 1V-1Z" fill="#369CB7"/>
</svg>
