<svg width="120" height="45" viewBox="0 0 120 45" fill="none" xmlns="http://www.w3.org/2000/svg">
<path d="M0 5C0 2.23858 2.23858 0 5 0H115C117.761 0 120 2.23858 120 5V40C120 42.7614 117.761 45 115 45H5C2.23858 45 0 42.7614 0 40V5Z" fill="#369CB7"/>
<path d="M10.7133 31.992C10.0293 30.888 9.50133 29.622 9.12933 28.194C8.75733 26.754 8.57133 25.212 8.57133 23.568C8.57133 21.924 8.75733 20.382 9.12933 18.942C9.50133 17.49 10.0293 16.224 10.7133 15.144H12.3513C11.6313 16.404 11.1033 17.724 10.7673 19.104C10.4313 20.484 10.2633 21.972 10.2633 23.568C10.2633 25.164 10.4313 26.652 10.7673 28.032C11.1033 29.412 11.6313 30.732 12.3513 31.992H10.7133ZM21.4938 21.894C22.2138 22.17 22.7658 22.566 23.1498 23.082C23.5338 23.598 23.7258 24.216 23.7258 24.936C23.7258 25.692 23.5218 26.352 23.1138 26.916C22.7058 27.468 22.1238 27.894 21.3678 28.194C20.6118 28.494 19.7238 28.644 18.7038 28.644C17.6958 28.644 16.8138 28.494 16.0578 28.194C15.3138 27.894 14.7378 27.468 14.3298 26.916C13.9218 26.352 13.7178 25.692 13.7178 24.936C13.7178 24.216 13.9038 23.598 14.2758 23.082C14.6598 22.566 15.2118 22.17 15.9318 21.894C15.3558 21.618 14.9178 21.252 14.6178 20.796C14.3178 20.34 14.1678 19.8 14.1678 19.176C14.1678 18.48 14.3538 17.874 14.7258 17.358C15.1098 16.842 15.6438 16.446 16.3278 16.17C17.0118 15.894 17.8038 15.756 18.7038 15.756C19.6158 15.756 20.4138 15.894 21.0978 16.17C21.7938 16.446 22.3278 16.842 22.6998 17.358C23.0838 17.874 23.2758 18.48 23.2758 19.176C23.2758 19.788 23.1198 20.328 22.8078 20.796C22.5078 21.252 22.0698 21.618 21.4938 21.894ZM18.7038 17.214C17.8518 17.214 17.1798 17.4 16.6878 17.772C16.1958 18.132 15.9498 18.624 15.9498 19.248C15.9498 19.872 16.1898 20.364 16.6698 20.724C17.1618 21.084 17.8398 21.264 18.7038 21.264C19.5798 21.264 20.2638 21.084 20.7558 20.724C21.2598 20.364 21.5118 19.872 21.5118 19.248C21.5118 18.624 21.2538 18.132 20.7378 17.772C20.2338 17.4 19.5558 17.214 18.7038 17.214ZM18.7038 27.186C19.6998 27.186 20.4858 26.982 21.0618 26.574C21.6378 26.154 21.9258 25.59 21.9258 24.882C21.9258 24.186 21.6378 23.64 21.0618 23.244C20.4858 22.836 19.6998 22.632 18.7038 22.632C17.7078 22.632 16.9278 22.836 16.3638 23.244C15.7998 23.64 15.5178 24.186 15.5178 24.882C15.5178 25.59 15.7998 26.154 16.3638 26.574C16.9278 26.982 17.7078 27.186 18.7038 27.186ZM32.0363 28.5L29.2823 24.846L26.4923 28.5H24.5663L28.3283 23.622L24.7463 18.96H26.6723L29.3003 22.398L31.9103 18.96H33.8003L30.2003 23.622L33.9983 28.5H32.0363ZM38.6066 20.922C40.4066 20.922 41.7266 21.264 42.5666 21.948C43.4186 22.62 43.8446 23.544 43.8446 24.72C43.8446 25.464 43.6646 26.136 43.3046 26.736C42.9566 27.324 42.4226 27.792 41.7026 28.14C40.9946 28.476 40.1186 28.644 39.0746 28.644C38.1866 28.644 37.3286 28.512 36.5006 28.248C35.6726 27.972 34.9886 27.594 34.4486 27.114L35.2766 25.692C35.7086 26.1 36.2606 26.43 36.9326 26.682C37.6046 26.922 38.3126 27.042 39.0566 27.042C40.0046 27.042 40.7366 26.844 41.2526 26.448C41.7806 26.04 42.0446 25.488 42.0446 24.792C42.0446 24.036 41.7566 23.466 41.1806 23.082C40.6046 22.686 39.6206 22.488 38.2286 22.488H35.3666L36.0326 15.9H43.1426V17.466H37.5446L37.2026 20.922H38.6066ZM45.0545 31.992C45.7745 30.732 46.3025 29.412 46.6385 28.032C46.9865 26.652 47.1605 25.164 47.1605 23.568C47.1605 21.972 46.9865 20.484 46.6385 19.104C46.3025 17.724 45.7745 16.404 45.0545 15.144H46.6925C47.3885 16.224 47.9225 17.484 48.2945 18.924C48.6665 20.364 48.8525 21.912 48.8525 23.568C48.8525 25.212 48.6665 26.754 48.2945 28.194C47.9225 29.634 47.3885 30.9 46.6925 31.992H45.0545ZM64.6645 22.92H61.3885V26.142H59.8765V22.92H56.6005V21.498H59.8765V18.258H61.3885V21.498H64.6645V22.92ZM74.5571 31.992C73.8731 30.888 73.3451 29.622 72.9731 28.194C72.6011 26.754 72.4151 25.212 72.4151 23.568C72.4151 21.924 72.6011 20.382 72.9731 18.942C73.3451 17.49 73.8731 16.224 74.5571 15.144H76.1951C75.4751 16.404 74.9471 17.724 74.6111 19.104C74.2751 20.484 74.1071 21.972 74.1071 23.568C74.1071 25.164 74.2751 26.652 74.6111 28.032C74.9471 29.412 75.4751 30.732 76.1951 31.992H74.5571ZM81.2335 20.922C83.0335 20.922 84.3535 21.264 85.1935 21.948C86.0455 22.62 86.4715 23.544 86.4715 24.72C86.4715 25.464 86.2915 26.136 85.9315 26.736C85.5835 27.324 85.0495 27.792 84.3295 28.14C83.6215 28.476 82.7455 28.644 81.7015 28.644C80.8135 28.644 79.9555 28.512 79.1275 28.248C78.2995 27.972 77.6155 27.594 77.0755 27.114L77.9035 25.692C78.3355 26.1 78.8875 26.43 79.5595 26.682C80.2315 26.922 80.9395 27.042 81.6835 27.042C82.6315 27.042 83.3635 26.844 83.8795 26.448C84.4075 26.04 84.6715 25.488 84.6715 24.792C84.6715 24.036 84.3835 23.466 83.8075 23.082C83.2315 22.686 82.2475 22.488 80.8555 22.488H77.9935L78.6595 15.9H85.7695V17.466H80.1715L79.8295 20.922H81.2335ZM94.5968 28.5L91.8428 24.846L89.0528 28.5H87.1268L90.8888 23.622L87.3068 18.96H89.2328L91.8608 22.398L94.4708 18.96H96.3608L92.7608 23.622L96.5588 28.5H94.5968ZM106.441 26.934V28.5H97.3867V27.276L102.517 22.326C103.141 21.726 103.561 21.21 103.777 20.778C103.993 20.334 104.101 19.89 104.101 19.446C104.101 18.786 103.867 18.276 103.399 17.916C102.943 17.544 102.283 17.358 101.419 17.358C100.027 17.358 98.9527 17.814 98.1967 18.726L96.9727 17.664C97.4647 17.064 98.1067 16.596 98.8987 16.26C99.7027 15.924 100.597 15.756 101.581 15.756C102.901 15.756 103.951 16.074 104.731 16.71C105.511 17.334 105.901 18.186 105.901 19.266C105.901 19.938 105.757 20.574 105.469 21.174C105.181 21.774 104.635 22.458 103.831 23.226L99.9787 26.934H106.441ZM107.633 31.992C108.353 30.732 108.881 29.412 109.217 28.032C109.565 26.652 109.739 25.164 109.739 23.568C109.739 21.972 109.565 20.484 109.217 19.104C108.881 17.724 108.353 16.404 107.633 15.144H109.271C109.967 16.224 110.501 17.484 110.873 18.924C111.245 20.364 111.431 21.912 111.431 23.568C111.431 25.212 111.245 26.754 110.873 28.194C110.501 29.634 109.967 30.9 109.271 31.992H107.633Z" fill="white"/>
<path d="M5 1H115V-1H5V1ZM119 5V40H121V5H119ZM115 44H5V46H115V44ZM1 40V5H-1V40H1ZM5 44C2.79086 44 1 42.2091 1 40H-1C-1 43.3137 1.68629 46 5 46V44ZM119 40C119 42.2091 117.209 44 115 44V46C118.314 46 121 43.3137 121 40H119ZM115 1C117.209 1 119 2.79086 119 5H121C121 1.68629 118.314 -1 115 -1V1ZM5 -1C1.68629 -1 -1 1.68629 -1 5H1C1 2.79086 2.79086 1 5 1V-1Z" fill="#369CB7"/>
</svg>
