<svg width="120" height="45" viewBox="0 0 120 45" fill="none" xmlns="http://www.w3.org/2000/svg">
<path d="M0 5C0 2.23858 2.23858 0 5 0H115C117.761 0 120 2.23858 120 5V40C120 42.7614 117.761 45 115 45H5C2.23858 45 0 42.7614 0 40V5Z" fill="#369CB7"/>
<path d="M29.5538 20.922C31.3538 20.922 32.6738 21.264 33.5138 21.948C34.3658 22.62 34.7918 23.544 34.7918 24.72C34.7918 25.464 34.6118 26.136 34.2518 26.736C33.9038 27.324 33.3698 27.792 32.6498 28.14C31.9418 28.476 31.0658 28.644 30.0218 28.644C29.1338 28.644 28.2758 28.512 27.4478 28.248C26.6198 27.972 25.9358 27.594 25.3958 27.114L26.2238 25.692C26.6558 26.1 27.2078 26.43 27.8798 26.682C28.5518 26.922 29.2598 27.042 30.0038 27.042C30.9518 27.042 31.6838 26.844 32.1998 26.448C32.7278 26.04 32.9918 25.488 32.9918 24.792C32.9918 24.036 32.7038 23.466 32.1278 23.082C31.5518 22.686 30.5678 22.488 29.1758 22.488H26.3138L26.9798 15.9H34.0898V17.466H28.4918L28.1498 20.922H29.5538ZM47.8918 28.5L45.1378 24.846L42.3478 28.5H40.4218L44.1838 23.622L40.6018 18.96H42.5278L45.1558 22.398L47.7658 18.96H49.6558L46.0558 23.622L49.8538 28.5H47.8918ZM59.296 20.922C61.096 20.922 62.416 21.264 63.256 21.948C64.108 22.62 64.534 23.544 64.534 24.72C64.534 25.464 64.354 26.136 63.994 26.736C63.646 27.324 63.112 27.792 62.392 28.14C61.684 28.476 60.808 28.644 59.764 28.644C58.876 28.644 58.018 28.512 57.19 28.248C56.362 27.972 55.678 27.594 55.138 27.114L55.966 25.692C56.398 26.1 56.95 26.43 57.622 26.682C58.294 26.922 59.002 27.042 59.746 27.042C60.694 27.042 61.426 26.844 61.942 26.448C62.47 26.04 62.734 25.488 62.734 24.792C62.734 24.036 62.446 23.466 61.87 23.082C61.294 22.686 60.31 22.488 58.918 22.488H56.056L56.722 15.9H63.832V17.466H58.234L57.892 20.922H59.296ZM77.634 28.5L74.88 24.846L72.09 28.5H70.164L73.926 23.622L70.344 18.96H72.27L74.898 22.398L77.508 18.96H79.398L75.798 23.622L79.596 28.5H77.634ZM94.2942 26.934V28.5H85.2402V27.276L90.3702 22.326C90.9942 21.726 91.4142 21.21 91.6302 20.778C91.8462 20.334 91.9542 19.89 91.9542 19.446C91.9542 18.786 91.7202 18.276 91.2522 17.916C90.7962 17.544 90.1362 17.358 89.2722 17.358C87.8802 17.358 86.8062 17.814 86.0502 18.726L84.8262 17.664C85.3182 17.064 85.9602 16.596 86.7522 16.26C87.5562 15.924 88.4502 15.756 89.4342 15.756C90.7542 15.756 91.8042 16.074 92.5842 16.71C93.3642 17.334 93.7542 18.186 93.7542 19.266C93.7542 19.938 93.6102 20.574 93.3222 21.174C93.0342 21.774 92.4882 22.458 91.6842 23.226L87.8322 26.934H94.2942Z" fill="white"/>
<path d="M5 1H115V-1H5V1ZM119 5V40H121V5H119ZM115 44H5V46H115V44ZM1 40V5H-1V40H1ZM5 44C2.79086 44 1 42.2091 1 40H-1C-1 43.3137 1.68629 46 5 46V44ZM119 40C119 42.2091 117.209 44 115 44V46C118.314 46 121 43.3137 121 40H119ZM115 1C117.209 1 119 2.79086 119 5H121C121 1.68629 118.314 -1 115 -1V1ZM5 -1C1.68629 -1 -1 1.68629 -1 5H1C1 2.79086 2.79086 1 5 1V-1Z" fill="#369CB7"/>
</svg>
