<svg width="60" height="45" viewBox="0 0 60 45" fill="none" xmlns="http://www.w3.org/2000/svg">
<path d="M0 5C0 2.23858 2.23858 0 5 0H55C57.7614 0 60 2.23858 60 5V40C60 42.7614 57.7614 45 55 45H5C2.23858 45 0 42.7614 0 40V5Z" fill="#369CB7"/>
<path d="M17.694 21.894C18.414 22.17 18.966 22.566 19.35 23.082C19.734 23.598 19.926 24.216 19.926 24.936C19.926 25.692 19.722 26.352 19.314 26.916C18.906 27.468 18.324 27.894 17.568 28.194C16.812 28.494 15.924 28.644 14.904 28.644C13.896 28.644 13.014 28.494 12.258 28.194C11.514 27.894 10.938 27.468 10.53 26.916C10.122 26.352 9.91798 25.692 9.91798 24.936C9.91798 24.216 10.104 23.598 10.476 23.082C10.86 22.566 11.412 22.17 12.132 21.894C11.556 21.618 11.118 21.252 10.818 20.796C10.518 20.34 10.368 19.8 10.368 19.176C10.368 18.48 10.554 17.874 10.926 17.358C11.31 16.842 11.844 16.446 12.528 16.17C13.212 15.894 14.004 15.756 14.904 15.756C15.816 15.756 16.614 15.894 17.298 16.17C17.994 16.446 18.528 16.842 18.9 17.358C19.284 17.874 19.476 18.48 19.476 19.176C19.476 19.788 19.32 20.328 19.008 20.796C18.708 21.252 18.27 21.618 17.694 21.894ZM14.904 17.214C14.052 17.214 13.38 17.4 12.888 17.772C12.396 18.132 12.15 18.624 12.15 19.248C12.15 19.872 12.39 20.364 12.87 20.724C13.362 21.084 14.04 21.264 14.904 21.264C15.78 21.264 16.464 21.084 16.956 20.724C17.46 20.364 17.712 19.872 17.712 19.248C17.712 18.624 17.454 18.132 16.938 17.772C16.434 17.4 15.756 17.214 14.904 17.214ZM14.904 27.186C15.9 27.186 16.686 26.982 17.262 26.574C17.838 26.154 18.126 25.59 18.126 24.882C18.126 24.186 17.838 23.64 17.262 23.244C16.686 22.836 15.9 22.632 14.904 22.632C13.908 22.632 13.128 22.836 12.564 23.244C12 23.64 11.718 24.186 11.718 24.882C11.718 25.59 12 26.154 12.564 26.574C13.128 26.982 13.908 27.186 14.904 27.186ZM33.1759 28.5L30.4219 24.846L27.6319 28.5H25.7059L29.4679 23.622L25.8859 18.96H27.8119L30.4399 22.398L33.0499 18.96H34.9399L31.3399 23.622L35.1379 28.5H33.1759ZM50.1602 15.9V17.124L45.0662 28.5H43.1582L48.1442 17.466H42.3842V19.716H40.6562V15.9H50.1602Z" fill="white"/>
<path d="M5 1H55V-1H5V1ZM59 5V40H61V5H59ZM55 44H5V46H55V44ZM1 40V5H-1V40H1ZM5 44C2.79086 44 1 42.2091 1 40H-1C-1 43.3137 1.68629 46 5 46V44ZM59 40C59 42.2091 57.2091 44 55 44V46C58.3137 46 61 43.3137 61 40H59ZM55 1C57.2091 1 59 2.79086 59 5H61C61 1.68629 58.3137 -1 55 -1V1ZM5 -1C1.68629 -1 -1 1.68629 -1 5H1C1 2.79086 2.79086 1 5 1V-1Z" fill="#369CB7"/>
</svg>
