<svg width="295" height="60" viewBox="0 0 295 60" fill="none" xmlns="http://www.w3.org/2000/svg">
<path d="M33.6561 42.6774C33.6561 42.6774 33.2125 50.6631 32.5223 54.4064C31.3885 60.246 25.6209 58.0998 27.0505 53.6079C28.2336 49.8645 28.8744 41.9287 28.8744 41.9287L33.6561 42.6774Z" fill="#FFB778"/>
<path d="M27.4448 52.0107C27.6913 53.7576 28.135 55.4047 29.7618 55.5544C31.142 55.5544 32.0294 54.5063 32.7195 53.2086C32.6702 53.6578 32.5716 54.0571 32.5223 54.4065C31.3885 60.246 25.6209 58.0999 27.0505 53.6079C27.1491 53.1587 27.297 52.6097 27.4448 52.0107Z" fill="#6FD9CF"/>
<path d="M26.1134 43.0266C26.1134 43.0266 23.4515 52.4597 22.0219 54.8555C20.543 57.4009 15.5641 56.3528 17.5853 51.5114C19.6064 46.6202 22.6134 40.6309 22.6134 40.6309L26.1134 43.0266Z" fill="#FFB778"/>
<path opacity="0.5" d="M30.9446 46.9697C30.5503 48.1177 29.2193 48.4171 28.1348 48.0677C28.5784 44.8735 28.8249 41.9287 28.8249 41.9287L33.6559 42.6774C33.6559 42.6774 33.508 45.1729 33.2615 48.0178C32.3249 48.1177 31.6348 47.8182 30.9446 46.9697Z" fill="#F6A979"/>
<path opacity="0.5" d="M23.2057 46.0711C22.1705 46.9695 20.8888 46.72 20.0508 45.9214C21.4311 42.9767 22.6142 40.6309 22.6142 40.6309L26.0649 43.0266C26.0649 43.0266 25.424 45.2726 24.6353 47.8679C23.9451 47.5685 23.4029 46.8697 23.2057 46.0711Z" fill="#F6A979"/>
<path d="M17.5853 51.5119C18.3247 49.6652 19.212 47.7187 20.0501 45.9219C20.8881 46.7204 22.1698 46.97 23.205 46.0716C23.4022 46.8702 23.9444 47.5689 24.6346 47.8684C23.7965 50.5636 22.712 53.6082 22.0219 54.8559C20.543 57.4014 15.5641 56.3533 17.5853 51.5119Z" fill="#FFB778"/>
<path d="M17.5851 51.5121C17.8315 50.8632 18.1273 50.2144 18.4231 49.5156C18.1273 51.2625 18.3245 52.8597 20.0006 53.6582C21.1344 54.2072 22.1696 53.4087 23.1062 52.4604C22.7118 53.4586 22.3667 54.3071 22.071 54.8062C20.5428 57.4015 15.5639 56.3534 17.5851 51.5121Z" fill="#6FD9CF"/>
<path d="M35.3807 43.0764C36.0709 44.1744 37.0568 45.2226 35.8244 45.7716C34.592 46.3206 32.8173 44.1245 32.8173 44.1245C32.8173 44.1245 34.3455 46.6201 33.1624 46.8197C30.9934 47.219 30.4511 44.8233 30.4511 44.8233C30.4511 44.8233 30.4511 46.4703 28.9723 46.9695C27.4934 47.4686 27.2469 44.5238 27.2469 44.5238C27.2469 44.5238 26.754 47.0693 25.2258 46.7698C23.6976 46.4703 24.3878 43.9748 24.3878 43.9748C24.3878 43.9748 22.7117 46.1709 21.1835 45.3723C19.7047 44.5737 21.9723 42.3277 21.9723 42.3277C21.9723 42.3277 19.0145 45.1727 17.93 43.6753C16.8948 42.2279 20.0004 41.1299 20.0004 41.1299L35.3807 43.0764Z" fill="#FF5162"/>
<path d="M33.2116 5.24418C34.444 2.69873 40.3102 3.24775 40.4581 8.0891C43.0214 6.74151 47.951 12.3315 44.2045 14.9768C46.9651 14.6274 50.8595 20.2174 44.6975 23.3119C47.1623 25.3084 45.0426 30.2495 39.3243 28.5526C39.8172 30.7486 37.3031 33.7433 33.3102 31.7968C32.0285 32.9946 27.4933 33.7433 25.5214 32.7451C23.5496 31.7469 23.0567 30 22.0214 30.2495C21.0355 30.4991 16.8947 28.303 17.5355 26.1069C15.9581 26.5062 11.1271 22.7629 14.282 20.0178C12.606 18.6702 11.8172 12.631 16.9933 12.5811C16.3031 9.88589 18.5214 5.344 22.3172 6.89124C22.9088 2.19962 31.4862 -0.445657 33.2116 5.24418Z" fill="#DD4527"/>
<path d="M32.472 6.84133C31.979 5.59356 31.2889 4.74507 30.1551 4.24596C26.7044 3.34757 23.2044 5.39391 22.5142 8.88768C20.4438 7.49017 17.8312 9.28696 16.8945 11.1836C17.0917 8.58821 19.1621 5.59356 22.3171 6.89124C22.9086 2.19962 31.4861 -0.445657 33.2114 5.24418C34.2959 2.99819 38.979 3.14793 40.1621 6.54186C38.1903 4.34579 34.3945 4.74507 32.472 6.84133Z" fill="#E95E25"/>
<path d="M14.184 13.5791C14.184 14.7271 14.3812 15.9249 14.7263 17.0729C15.1699 18.5203 16.2051 20.1673 17.7333 20.3171C16.7967 21.8144 16.9939 24.0105 18.4727 24.9089C19.8037 25.408 21.3319 25.7574 22.5643 24.9089C24.6347 28.0533 28.1347 30.1495 31.8812 29.5506C33.6558 29.1014 35.677 28.3028 36.2685 26.2066C37.8953 27.7538 40.9023 26.8554 41.8389 24.9588C42.3319 23.6112 41.691 22.3634 41.0009 21.3153C43.8601 21.5648 46.9657 19.3189 46.9657 16.4739C48.3953 18.2707 48.5924 21.3153 44.6488 23.3616C47.1136 25.3581 44.9939 30.2992 39.2755 28.6023C39.7685 30.7984 37.2544 33.793 33.2615 31.8465C31.9798 33.0443 27.4446 33.793 25.4727 32.7948C23.5009 31.7966 23.0079 30.0497 21.9727 30.2992C20.9868 30.5488 16.846 28.3527 17.4868 26.1566C15.9586 26.506 11.1277 22.7627 14.2826 20.0176C13.0009 19.0194 12.2615 15.326 14.184 13.5791Z" fill="#D63431"/>
<path d="M37.0085 31.248C37.5508 31.7471 39.7198 36.0894 42.1353 38.8844C44.2057 41.33 40.755 43.8256 37.6001 39.5332C35.9733 37.3372 33.9029 33.9931 33.9029 32.0965C33.8536 30.15 37.0085 31.248 37.0085 31.248Z" fill="#FFB778"/>
<path d="M23.4031 30.4494C23.1073 31.6472 21.8749 36.2889 16.6003 38.6347C14.0369 39.7827 12.1637 37.6864 13.4454 36.4886C16.0087 34.1428 18.1285 32.7952 21.2341 29.501C22.9594 27.6543 23.4031 30.4494 23.4031 30.4494Z" fill="#FFB778"/>
<path opacity="0.5" d="M33.8535 32.0965C33.8535 30.15 37.0084 31.248 37.0084 31.248C37.2549 31.4477 37.6986 32.2463 38.3394 33.3443C37.2056 34.1429 35.9239 34.5921 34.6422 34.6919C34.1493 33.7436 33.8535 32.8452 33.8535 32.0965Z" fill="#F6A979"/>
<path opacity="0.5" d="M21.1833 29.501C22.9087 27.6543 23.4016 30.3994 23.4016 30.3994C23.2537 30.8985 22.958 32.0465 22.2678 33.3941C21.134 32.9948 20.1974 32.1962 19.3594 31.2978C19.9509 30.7987 20.5425 30.1998 21.1833 29.501Z" fill="#F6A979"/>
<path d="M32.176 23.2625C32.176 23.2625 35.2324 31.9969 32.0281 34.1929C28.8239 36.3391 23.845 34.5922 23.5 32.3962C23.1056 30.2001 26.1619 22.9131 26.1619 22.9131L32.176 23.2625Z" fill="#FFB778"/>
<path opacity="0.5" d="M25.5215 24.5601C25.9159 23.5619 26.1623 22.9131 26.1623 22.9131L32.1764 23.2625C32.1764 23.2625 32.4722 24.061 32.768 25.2589C30.6482 26.5566 27.7398 25.8578 25.5215 24.5601Z" fill="#F6A979"/>
<path d="M39.127 20.1679C39.5213 20.2677 42.0847 19.7686 41.6903 17.7722C41.1974 15.3266 39.127 16.6243 39.127 16.6243V20.1679Z" fill="#ED8351"/>
<path d="M20.7397 18.4209C20.3453 18.4209 18.127 17.4726 19.0144 15.576C19.8524 13.6794 21.3806 15.2266 21.3806 15.2266L20.7397 18.4209Z" fill="#FF8F5D"/>
<path d="M37.0089 10.4348C39.1286 11.6826 40.4596 16.3742 39.8187 19.3189C38.9807 23.5115 35.6779 25.2583 28.7765 24.6095C22.3187 24.0106 20.692 20.966 20.2976 18.72C19.9032 16.5239 21.0863 11.3332 25.4737 9.08722C29.368 7.04087 34.4948 8.93748 37.0089 10.4348Z" fill="#FFB778"/>
<path opacity="0.3" d="M23.7975 10.2354C21.7271 14.2282 20.051 18.6204 23.6989 23.2122C21.382 21.9644 20.5933 20.1676 20.3468 18.7202C20.0017 16.8735 20.7905 12.8307 23.7975 10.2354Z" fill="#FFFF1A"/>
<path opacity="0.5" d="M36.2184 22.9624C39.4719 21.3154 39.4226 15.8252 37.8451 13.679C36.8099 14.2779 33.9015 14.4776 32.7184 12.7806C31.3381 15.0266 27.6902 15.0765 26.5071 12.581C25.0775 13.2298 23.3029 12.8804 22.4648 11.6826C23.2536 10.6844 24.2395 9.73606 25.5212 9.08722C29.4155 7.04087 34.5423 8.93748 37.0564 10.4348C39.1761 11.6826 40.5071 16.3742 39.8663 19.3189C38.9789 23.5115 35.6761 25.2583 28.7747 24.6095C26.1127 24.3599 24.2395 23.7111 23.0071 22.8127C27.0493 24.9589 32.0775 25.2583 36.2184 22.9624Z" fill="#F6A979"/>
<path d="M35.9704 18.4291C35.0757 18.3455 34.318 18.6337 34.2779 19.0729C34.2379 19.5121 34.9307 19.9359 35.8254 20.0195C36.72 20.1031 37.4778 19.8149 37.5178 19.3757C37.5578 18.9365 36.865 18.5127 35.9704 18.4291Z" fill="#FF866D"/>
<path d="M23.3298 17.3002C22.4351 17.2165 21.6774 17.5048 21.6373 17.944C21.5973 18.3832 22.2901 18.807 23.1848 18.8906C24.0794 18.9742 24.8371 18.686 24.8772 18.2468C24.9172 17.8076 24.2244 17.3838 23.3298 17.3002Z" fill="#FF866D"/>
<path d="M23.7967 16.7739C23.7474 17.3229 23.9446 17.6224 24.1418 17.6723C24.339 17.6723 24.6348 17.4228 24.684 16.8737C24.7333 16.3247 24.5362 15.626 24.339 15.626C24.1418 15.5761 23.846 16.175 23.7967 16.7739Z" fill="#B62742"/>
<path d="M34.8885 17.8218C34.8392 18.3708 35.0364 18.6703 35.2336 18.7202C35.4308 18.7202 35.7266 18.4706 35.7758 17.9216C35.8251 17.3726 35.628 16.6738 35.4308 16.6738C35.1843 16.6239 34.9378 17.2228 34.8885 17.8218Z" fill="#B62742"/>
<path d="M29.515 21.8146C29.4657 21.8146 29.4164 21.8146 29.3671 21.8146C28.3812 21.7147 27.7403 20.8662 27.6417 20.417C27.5924 20.2673 27.691 20.1176 27.8389 20.0677C27.9868 20.0178 28.1347 20.1176 28.184 20.2673C28.2333 20.5169 28.7262 21.1657 29.4657 21.2655C30.0079 21.3154 30.5502 20.9661 30.6981 20.5668C30.7474 20.417 30.9445 20.3671 31.0924 20.417C31.2403 20.467 31.2896 20.6666 31.2403 20.8163C30.8952 21.3654 30.2051 21.8146 29.515 21.8146Z" fill="#E25255"/>
<path opacity="0.3" d="M32.0291 18.6703C32.7192 18.3709 31.5361 17.1231 29.9094 16.9235C28.2333 16.7238 26.9516 17.4226 27.3953 18.0215C27.8882 18.6204 28.5291 18.0714 29.7122 18.2211C30.5009 18.321 31.5361 18.87 32.0291 18.6703Z" fill="#FFFF1A"/>
<path d="M38.2893 10.6841C38.2893 10.6841 35.1343 7.43989 31.6836 6.89087C28.2329 6.39176 23.8456 9.58606 23.4512 10.185C23.0569 10.8338 24.585 3.99604 32.3245 5.1939C36.7611 5.84274 38.0428 10.2349 38.2893 10.6841Z" fill="#6FD9CF"/>
<path d="M31.536 6.44178C36.7614 7.4899 39.2755 10.1352 39.2755 10.1352C39.2755 10.1352 38.8318 12.7305 35.7262 12.8803C33.4586 12.9801 31.9797 11.333 31.9797 11.333C32.1276 12.9302 27.8389 14.7769 26.6065 11.5327C23.5994 13.0799 22.4163 11.2332 21.9727 9.7858C22.2684 8.88741 22.86 8.08883 23.5501 7.39008C25.2755 6.64142 28.1346 5.79293 31.536 6.44178Z" fill="#DD4527"/>
<path d="M27.0511 10.2854C27.8399 10.1856 28.8258 12.232 30.2554 11.3835C30.8962 11.0341 31.2906 10.4851 31.3892 9.6865C32.2272 10.9343 33.7061 11.8826 35.3328 11.4334C35.7272 11.4833 36.7624 10.7845 36.368 10.535C35.1356 9.58668 33.4103 8.48864 33.5582 6.94141C37.4033 8.13927 39.2765 10.0858 39.2765 10.0858C39.2765 10.0858 38.8328 12.6812 35.7272 12.8309C33.4596 12.9307 31.9807 11.2837 31.9807 11.2837C32.1286 12.8808 27.8399 14.7275 26.6075 11.4833C23.7483 12.9307 22.5652 11.3835 22.0723 9.98597C23.354 10.8345 25.3258 10.535 27.0511 10.2854Z" fill="#D63431"/>
<path d="M35.2835 7.49064C35.7765 7.49064 35.2342 1.8008 32.1779 4.89528C29.2201 7.93984 33.706 7.44073 35.2835 7.49064Z" fill="#86FFDB"/>
<path d="M36.3189 8.18959C35.9246 7.89012 42.8753 5.74396 40.8542 9.88656C38.9316 13.8295 36.6147 8.38923 36.3189 8.18959Z" fill="#86FFDB"/>
<path d="M37.7484 7.68981C37.7484 7.68981 37.0583 9.28696 36.3682 9.18714C35.6287 9.08732 34.5935 8.23883 34.6921 7.6399C34.7907 7.04097 34.8893 6.54186 35.5794 6.2424C35.7766 6.19249 37.7484 6.59177 37.7484 7.68981Z" fill="#6FD9CF"/>
<path d="M33.3108 33.3438C33.9023 33.5435 37.8953 33.0444 37.846 30.7984C37.7967 28.5524 33.7052 25.3581 32.9164 25.9071C32.0291 26.506 33.3108 33.3438 33.3108 33.3438Z" fill="#FF5162"/>
<path d="M23.5006 32.3962C24.1414 31.9969 27.2964 25.0094 25.2259 24.9595C22.8104 24.9096 19.8527 28.7527 20.5921 30.0005C21.3316 31.2981 23.5006 32.3962 23.5006 32.3962Z" fill="#FF5162"/>
<path d="M32.7686 25.3082C32.7686 25.3082 36.1207 42.5275 35.5292 43.7753C34.8883 45.023 29.9095 46.171 26.4588 45.572C23.0081 44.9731 19.5574 42.6273 19.0151 41.7289C18.5221 40.8305 25.5221 24.5596 25.5221 24.5596C25.5221 24.5596 26.163 27.0551 29.1207 27.5542C31.2897 27.9535 32.8179 25.8073 32.7686 25.3082Z" fill="#FF656D"/>
<path d="M22.0228 33.0448C21.2834 35.5403 20.6918 38.0858 21.5792 40.6811C22.5158 43.0769 25.3749 43.7756 27.6425 44.125C29.713 44.5243 32.6707 43.6758 33.0158 41.3799C33.9524 36.1393 32.1285 31.1482 32.3749 26.1072C32.6214 25.7578 32.7693 25.4583 32.7693 25.3086C32.7693 25.3086 36.1214 42.5278 35.5299 43.7756C34.889 45.0234 29.9101 46.1713 26.4594 45.5724C23.0087 44.9735 19.558 42.6277 19.0158 41.7293C18.7693 41.2801 20.3468 37.1375 22.0228 33.0448Z" fill="#FF5162"/>
<path d="M26.3593 44.3741C26.4579 44.3741 26.5565 44.3242 26.5565 44.2243C26.6058 43.7751 26.7044 43.276 26.803 42.7769C26.803 42.6771 26.7537 42.5773 26.6551 42.5274C26.5565 42.5274 26.4579 42.5773 26.4086 42.6771C26.31 43.1762 26.2607 43.6753 26.1621 44.1245C26.2114 44.2243 26.2607 44.3242 26.3593 44.3741ZM26.9015 40.9302C27.0001 40.9302 27.0987 40.8803 27.0987 40.7805C27.148 40.3313 27.2466 39.8322 27.3452 39.3331C27.3452 39.2332 27.2959 39.1334 27.1973 39.0835C27.0987 39.0835 27.0001 39.1334 26.9508 39.2332C26.8522 39.7323 26.803 40.2315 26.7044 40.6807C26.7044 40.7805 26.803 40.8803 26.9015 40.9302ZM27.4438 37.4864C27.5424 37.4864 27.641 37.4365 27.641 37.3366L27.8875 35.8892C27.8875 35.7894 27.8382 35.6896 27.7396 35.6397C27.641 35.6397 27.5424 35.6896 27.4931 35.7894L27.2959 37.2368C27.2466 37.3366 27.3452 37.4364 27.4438 37.4864ZM27.9861 34.0425C28.0846 34.0425 28.1832 33.9926 28.1832 33.8928L28.4297 32.4454C28.4297 32.3455 28.3804 32.2457 28.2818 32.1958C28.1832 32.1958 28.0846 32.2457 28.0353 32.3455L27.7889 33.793C27.8382 33.9427 27.8875 34.0425 27.9861 34.0425ZM28.5776 30.5987C28.6762 30.5987 28.7748 30.5487 28.7748 30.4489C28.8734 29.9498 28.9227 29.4507 29.0213 29.0015C29.0213 28.9017 28.972 28.8019 28.8734 28.752C28.7748 28.752 28.6762 28.8019 28.6269 28.9017C28.5776 29.3509 28.479 29.85 28.3804 30.3491C28.3804 30.4988 28.4297 30.5987 28.5776 30.5987Z" fill="#E3345D"/>
<path d="M28.2326 34.8411C29.2672 34.8411 30.1059 33.9919 30.1059 32.9445C30.1059 31.897 29.2672 31.0479 28.2326 31.0479C27.1981 31.0479 26.3594 31.897 26.3594 32.9445C26.3594 33.9919 27.1981 34.8411 28.2326 34.8411Z" fill="#EF3E66"/>
<path d="M27.6412 34.1428C27.5919 34.1428 27.5919 34.1428 27.5426 34.0929C27.444 34.043 27.444 33.8933 27.4933 33.8434L28.6764 32.0466C28.7257 31.9467 28.8736 31.9467 28.9229 31.9967C29.0215 32.0466 29.0215 32.1963 28.9722 32.2462L27.7891 34.043C27.7398 34.0929 27.6905 34.1428 27.6412 34.1428Z" fill="#FF6F7B"/>
<path d="M29.0712 33.8431C29.0219 33.8431 28.9726 33.8431 28.9726 33.7932L27.2965 32.4456C27.1979 32.3957 27.1979 32.246 27.2472 32.1462C27.2965 32.0464 27.4444 32.0463 27.543 32.0963L29.1698 33.4439C29.2683 33.4938 29.2683 33.6435 29.2191 33.7433C29.1698 33.7932 29.1205 33.8431 29.0712 33.8431Z" fill="#FF6F7B"/>
<path d="M38.1908 39.7821C38.1415 40.3311 38.1415 42.0281 39.0289 42.1778C39.7683 42.2776 40.3106 40.4808 39.4232 40.1814C39.0782 40.0316 38.2401 39.2331 38.1908 39.7821Z" fill="#FFB778"/>
<path d="M17.931 37.4365C17.8817 37.9856 17.4381 39.7324 16.7972 39.6825C15.762 39.5827 16.255 37.5364 16.6493 37.5863C17.0437 37.6362 17.9803 36.8875 17.931 37.4365Z" fill="#FFB778"/>
<path d="M36.5645 14.8774C36.5152 14.5779 35.0856 13.1804 34.2969 14.7276C35.3814 14.2784 36.5645 14.8774 36.5645 14.8774Z" fill="#DD4527"/>
<path d="M25.8678 13.8292C26.1635 13.2302 24.4875 12.0324 23.748 13.5297C24.6847 13.1803 25.8678 13.8292 25.8678 13.8292Z" fill="#DD4527"/>
<path d="M103.656 42.6774C103.656 42.6774 103.212 50.6631 102.522 54.4064C101.389 60.246 95.6209 58.0998 97.0505 53.6079C98.2336 49.8645 98.8744 41.9287 98.8744 41.9287L103.656 42.6774Z" fill="#FFB778"/>
<path d="M97.4448 52.0107C97.6913 53.7576 98.135 55.4047 99.7618 55.5544C101.142 55.5544 102.029 54.5063 102.719 53.2086C102.67 53.6578 102.572 54.0571 102.522 54.4065C101.389 60.246 95.6209 58.0999 97.0505 53.6079C97.1491 53.1587 97.297 52.6097 97.4448 52.0107Z" fill="#6FD9CF"/>
<path d="M96.1134 43.0266C96.1134 43.0266 93.4515 52.4597 92.0219 54.8555C90.543 57.4009 85.5641 56.3528 87.5853 51.5114C89.6064 46.6202 92.6134 40.6309 92.6134 40.6309L96.1134 43.0266Z" fill="#FFB778"/>
<path opacity="0.5" d="M100.945 46.9697C100.55 48.1177 99.2193 48.4171 98.1348 48.0677C98.5784 44.8735 98.8249 41.9287 98.8249 41.9287L103.656 42.6774C103.656 42.6774 103.508 45.1729 103.262 48.0178C102.325 48.1177 101.635 47.8182 100.945 46.9697Z" fill="#F6A979"/>
<path opacity="0.5" d="M93.2057 46.0711C92.1705 46.9695 90.8888 46.72 90.0508 45.9214C91.4311 42.9767 92.6142 40.6309 92.6142 40.6309L96.0649 43.0266C96.0649 43.0266 95.424 45.2726 94.6353 47.8679C93.9451 47.5685 93.4029 46.8697 93.2057 46.0711Z" fill="#F6A979"/>
<path d="M87.5853 51.5119C88.3247 49.6652 89.212 47.7187 90.0501 45.9219C90.8881 46.7204 92.1698 46.97 93.205 46.0716C93.4022 46.8702 93.9444 47.5689 94.6346 47.8684C93.7965 50.5636 92.712 53.6082 92.0219 54.8559C90.543 57.4014 85.5641 56.3533 87.5853 51.5119Z" fill="#FFB778"/>
<path d="M87.5851 51.5121C87.8315 50.8632 88.1273 50.2144 88.4231 49.5156C88.1273 51.2625 88.3245 52.8597 90.0006 53.6582C91.1344 54.2072 92.1696 53.4087 93.1062 52.4604C92.7118 53.4586 92.3667 54.3071 92.071 54.8062C90.5428 57.4015 85.5639 56.3534 87.5851 51.5121Z" fill="#6FD9CF"/>
<path d="M105.381 43.0764C106.071 44.1744 107.057 45.2226 105.824 45.7716C104.592 46.3206 102.817 44.1245 102.817 44.1245C102.817 44.1245 104.346 46.6201 103.162 46.8197C100.993 47.219 100.451 44.8233 100.451 44.8233C100.451 44.8233 100.451 46.4703 98.9723 46.9695C97.4934 47.4686 97.2469 44.5238 97.2469 44.5238C97.2469 44.5238 96.754 47.0693 95.2258 46.7698C93.6976 46.4703 94.3878 43.9748 94.3878 43.9748C94.3878 43.9748 92.7117 46.1709 91.1835 45.3723C89.7047 44.5737 91.9723 42.3277 91.9723 42.3277C91.9723 42.3277 89.0145 45.1727 87.93 43.6753C86.8948 42.2279 90.0004 41.1299 90.0004 41.1299L105.381 43.0764Z" fill="#FF5162"/>
<path d="M103.212 5.24418C104.444 2.69873 110.31 3.24775 110.458 8.0891C113.021 6.74151 117.951 12.3315 114.205 14.9768C116.965 14.6274 120.859 20.2174 114.698 23.3119C117.162 25.3084 115.043 30.2495 109.324 28.5526C109.817 30.7486 107.303 33.7433 103.31 31.7968C102.028 32.9946 97.4933 33.7433 95.5214 32.7451C93.5496 31.7469 93.0567 30 92.0214 30.2495C91.0355 30.4991 86.8947 28.303 87.5355 26.1069C85.9581 26.5062 81.1271 22.7629 84.282 20.0178C82.606 18.6702 81.8172 12.631 86.9933 12.5811C86.3031 9.88589 88.5214 5.344 92.3172 6.89124C92.9088 2.19962 101.486 -0.445657 103.212 5.24418Z" fill="#DD4527"/>
<path d="M102.472 6.84133C101.979 5.59356 101.289 4.74507 100.155 4.24596C96.7044 3.34757 93.2044 5.39391 92.5142 8.88768C90.4438 7.49017 87.8312 9.28696 86.8945 11.1836C87.0917 8.58821 89.1621 5.59356 92.3171 6.89124C92.9086 2.19962 101.486 -0.445657 103.211 5.24418C104.296 2.99819 108.979 3.14793 110.162 6.54186C108.19 4.34579 104.395 4.74507 102.472 6.84133Z" fill="#E95E25"/>
<path d="M84.184 13.5791C84.184 14.7271 84.3812 15.9249 84.7263 17.0729C85.1699 18.5203 86.2051 20.1673 87.7333 20.3171C86.7967 21.8144 86.9939 24.0105 88.4727 24.9089C89.8037 25.408 91.3319 25.7574 92.5643 24.9089C94.6347 28.0533 98.1347 30.1495 101.881 29.5506C103.656 29.1014 105.677 28.3028 106.269 26.2066C107.895 27.7538 110.902 26.8554 111.839 24.9588C112.332 23.6112 111.691 22.3634 111.001 21.3153C113.86 21.5648 116.966 19.3189 116.966 16.4739C118.395 18.2707 118.592 21.3153 114.649 23.3616C117.114 25.3581 114.994 30.2992 109.276 28.6023C109.769 30.7984 107.254 33.793 103.261 31.8465C101.98 33.0443 97.4446 33.793 95.4727 32.7948C93.5009 31.7966 93.0079 30.0497 91.9727 30.2992C90.9868 30.5488 86.846 28.3527 87.4868 26.1566C85.9586 26.506 81.1277 22.7627 84.2826 20.0176C83.0009 19.0194 82.2615 15.326 84.184 13.5791Z" fill="#D63431"/>
<path d="M107.009 31.248C107.551 31.7471 109.72 36.0894 112.135 38.8844C114.206 41.33 110.755 43.8256 107.6 39.5332C105.973 37.3372 103.903 33.9931 103.903 32.0965C103.854 30.15 107.009 31.248 107.009 31.248Z" fill="#FFB778"/>
<path d="M93.4031 30.4494C93.1073 31.6472 91.8749 36.2889 86.6003 38.6347C84.0369 39.7827 82.1637 37.6864 83.4454 36.4886C86.0087 34.1428 88.1285 32.7952 91.2341 29.501C92.9594 27.6543 93.4031 30.4494 93.4031 30.4494Z" fill="#FFB778"/>
<path opacity="0.5" d="M103.854 32.0965C103.854 30.15 107.008 31.248 107.008 31.248C107.255 31.4477 107.699 32.2463 108.339 33.3443C107.206 34.1429 105.924 34.5921 104.642 34.6919C104.149 33.7436 103.854 32.8452 103.854 32.0965Z" fill="#F6A979"/>
<path opacity="0.5" d="M91.1833 29.501C92.9087 27.6543 93.4016 30.3994 93.4016 30.3994C93.2537 30.8985 92.958 32.0465 92.2678 33.3941C91.134 32.9948 90.1974 32.1962 89.3594 31.2978C89.9509 30.7987 90.5425 30.1998 91.1833 29.501Z" fill="#F6A979"/>
<path d="M102.176 23.2625C102.176 23.2625 105.232 31.9969 102.028 34.1929C98.8239 36.3391 93.845 34.5922 93.5 32.3962C93.1056 30.2001 96.1619 22.9131 96.1619 22.9131L102.176 23.2625Z" fill="#FFB778"/>
<path opacity="0.5" d="M95.5215 24.5601C95.9159 23.5619 96.1623 22.9131 96.1623 22.9131L102.176 23.2625C102.176 23.2625 102.472 24.061 102.768 25.2589C100.648 26.5566 97.7398 25.8578 95.5215 24.5601Z" fill="#F6A979"/>
<path d="M109.127 20.1679C109.521 20.2677 112.085 19.7686 111.69 17.7722C111.197 15.3266 109.127 16.6243 109.127 16.6243V20.1679Z" fill="#ED8351"/>
<path d="M90.7397 18.4209C90.3453 18.4209 88.127 17.4726 89.0144 15.576C89.8524 13.6794 91.3806 15.2266 91.3806 15.2266L90.7397 18.4209Z" fill="#FF8F5D"/>
<path d="M107.009 10.4348C109.129 11.6826 110.46 16.3742 109.819 19.3189C108.981 23.5115 105.678 25.2583 98.7765 24.6095C92.3187 24.0106 90.692 20.966 90.2976 18.72C89.9032 16.5239 91.0863 11.3332 95.4737 9.08722C99.368 7.04087 104.495 8.93748 107.009 10.4348Z" fill="#FFB778"/>
<path opacity="0.3" d="M93.7975 10.2354C91.7271 14.2282 90.051 18.6204 93.6989 23.2122C91.382 21.9644 90.5933 20.1676 90.3468 18.7202C90.0017 16.8735 90.7905 12.8307 93.7975 10.2354Z" fill="#FFFF1A"/>
<path opacity="0.5" d="M106.218 22.9624C109.472 21.3154 109.423 15.8252 107.845 13.679C106.81 14.2779 103.901 14.4776 102.718 12.7806C101.338 15.0266 97.6902 15.0765 96.5071 12.581C95.0775 13.2298 93.3029 12.8804 92.4648 11.6826C93.2536 10.6844 94.2395 9.73606 95.5212 9.08722C99.4155 7.04087 104.542 8.93748 107.056 10.4348C109.176 11.6826 110.507 16.3742 109.866 19.3189C108.979 23.5115 105.676 25.2583 98.7747 24.6095C96.1127 24.3599 94.2395 23.7111 93.0071 22.8127C97.0493 24.9589 102.078 25.2583 106.218 22.9624Z" fill="#F6A979"/>
<path d="M105.97 18.4291C105.076 18.3455 104.318 18.6337 104.278 19.0729C104.238 19.5121 104.931 19.9359 105.825 20.0195C106.72 20.1031 107.478 19.8149 107.518 19.3757C107.558 18.9365 106.865 18.5127 105.97 18.4291Z" fill="#FF866D"/>
<path d="M93.3298 17.3002C92.4351 17.2165 91.6774 17.5048 91.6373 17.944C91.5973 18.3832 92.2901 18.807 93.1848 18.8906C94.0794 18.9742 94.8371 18.686 94.8772 18.2468C94.9172 17.8076 94.2244 17.3838 93.3298 17.3002Z" fill="#FF866D"/>
<path d="M93.7967 16.7739C93.7474 17.3229 93.9446 17.6224 94.1418 17.6723C94.339 17.6723 94.6348 17.4228 94.684 16.8737C94.7333 16.3247 94.5362 15.626 94.339 15.626C94.1418 15.5761 93.846 16.175 93.7967 16.7739Z" fill="#B62742"/>
<path d="M104.889 17.8218C104.839 18.3708 105.036 18.6703 105.234 18.7202C105.431 18.7202 105.727 18.4706 105.776 17.9216C105.825 17.3726 105.628 16.6738 105.431 16.6738C105.184 16.6239 104.938 17.2228 104.889 17.8218Z" fill="#B62742"/>
<path d="M99.515 21.8146C99.4657 21.8146 99.4164 21.8146 99.3671 21.8146C98.3812 21.7147 97.7403 20.8662 97.6417 20.417C97.5924 20.2673 97.691 20.1176 97.8389 20.0677C97.9868 20.0178 98.1347 20.1176 98.184 20.2673C98.2333 20.5169 98.7262 21.1657 99.4657 21.2655C100.008 21.3154 100.55 20.9661 100.698 20.5668C100.747 20.417 100.945 20.3671 101.092 20.417C101.24 20.467 101.29 20.6666 101.24 20.8163C100.895 21.3654 100.205 21.8146 99.515 21.8146Z" fill="#E25255"/>
<path opacity="0.3" d="M102.029 18.6703C102.719 18.3709 101.536 17.1231 99.9094 16.9235C98.2333 16.7238 96.9516 17.4226 97.3953 18.0215C97.8882 18.6204 98.5291 18.0714 99.7122 18.2211C100.501 18.321 101.536 18.87 102.029 18.6703Z" fill="#FFFF1A"/>
<path d="M108.289 10.6841C108.289 10.6841 105.134 7.43989 101.684 6.89087C98.2329 6.39176 93.8456 9.58606 93.4512 10.185C93.0569 10.8338 94.585 3.99604 102.324 5.1939C106.761 5.84274 108.043 10.2349 108.289 10.6841Z" fill="#6FD9CF"/>
<path d="M101.536 6.44178C106.761 7.4899 109.275 10.1352 109.275 10.1352C109.275 10.1352 108.832 12.7305 105.726 12.8803C103.459 12.9801 101.98 11.333 101.98 11.333C102.128 12.9302 97.8389 14.7769 96.6065 11.5327C93.5994 13.0799 92.4163 11.2332 91.9727 9.7858C92.2684 8.88741 92.86 8.08883 93.5501 7.39008C95.2755 6.64142 98.1346 5.79293 101.536 6.44178Z" fill="#DD4527"/>
<path d="M97.0511 10.2854C97.8399 10.1856 98.8258 12.232 100.255 11.3835C100.896 11.0341 101.291 10.4851 101.389 9.6865C102.227 10.9343 103.706 11.8826 105.333 11.4334C105.727 11.4833 106.762 10.7845 106.368 10.535C105.136 9.58668 103.41 8.48864 103.558 6.94141C107.403 8.13927 109.276 10.0858 109.276 10.0858C109.276 10.0858 108.833 12.6812 105.727 12.8309C103.46 12.9307 101.981 11.2837 101.981 11.2837C102.129 12.8808 97.8399 14.7275 96.6075 11.4833C93.7483 12.9307 92.5652 11.3835 92.0723 9.98597C93.354 10.8345 95.3258 10.535 97.0511 10.2854Z" fill="#D63431"/>
<path d="M105.284 7.49064C105.776 7.49064 105.234 1.8008 102.178 4.89528C99.2201 7.93984 103.706 7.44073 105.284 7.49064Z" fill="#86FFDB"/>
<path d="M106.319 8.18959C105.925 7.89012 112.875 5.74396 110.854 9.88656C108.932 13.8295 106.615 8.38923 106.319 8.18959Z" fill="#86FFDB"/>
<path d="M107.748 7.68981C107.748 7.68981 107.058 9.28696 106.368 9.18714C105.629 9.08732 104.594 8.23883 104.692 7.6399C104.791 7.04097 104.889 6.54186 105.579 6.2424C105.777 6.19249 107.748 6.59177 107.748 7.68981Z" fill="#6FD9CF"/>
<path d="M103.311 33.3438C103.902 33.5435 107.895 33.0444 107.846 30.7984C107.797 28.5524 103.705 25.3581 102.916 25.9071C102.029 26.506 103.311 33.3438 103.311 33.3438Z" fill="#FF5162"/>
<path d="M93.5006 32.3962C94.1414 31.9969 97.2964 25.0094 95.2259 24.9595C92.8104 24.9096 89.8527 28.7527 90.5921 30.0005C91.3316 31.2981 93.5006 32.3962 93.5006 32.3962Z" fill="#FF5162"/>
<path d="M102.769 25.3082C102.769 25.3082 106.121 42.5275 105.529 43.7753C104.888 45.023 99.9095 46.171 96.4588 45.572C93.0081 44.9731 89.5574 42.6273 89.0151 41.7289C88.5221 40.8305 95.5221 24.5596 95.5221 24.5596C95.5221 24.5596 96.163 27.0551 99.1207 27.5542C101.29 27.9535 102.818 25.8073 102.769 25.3082Z" fill="#FF656D"/>
<path d="M92.0228 33.0448C91.2834 35.5403 90.6918 38.0858 91.5792 40.6811C92.5158 43.0769 95.3749 43.7756 97.6425 44.125C99.713 44.5243 102.671 43.6758 103.016 41.3799C103.952 36.1393 102.128 31.1482 102.375 26.1072C102.621 25.7578 102.769 25.4583 102.769 25.3086C102.769 25.3086 106.121 42.5278 105.53 43.7756C104.889 45.0234 99.9101 46.1713 96.4594 45.5724C93.0087 44.9735 89.558 42.6277 89.0158 41.7293C88.7693 41.2801 90.3468 37.1375 92.0228 33.0448Z" fill="#FF5162"/>
<path d="M96.3593 44.3741C96.4579 44.3741 96.5565 44.3242 96.5565 44.2243C96.6058 43.7751 96.7044 43.276 96.803 42.7769C96.803 42.6771 96.7537 42.5773 96.6551 42.5274C96.5565 42.5274 96.4579 42.5773 96.4086 42.6771C96.31 43.1762 96.2607 43.6753 96.1621 44.1245C96.2114 44.2243 96.2607 44.3242 96.3593 44.3741ZM96.9015 40.9302C97.0001 40.9302 97.0987 40.8803 97.0987 40.7805C97.148 40.3313 97.2466 39.8322 97.3452 39.3331C97.3452 39.2332 97.2959 39.1334 97.1973 39.0835C97.0987 39.0835 97.0001 39.1334 96.9508 39.2332C96.8522 39.7323 96.803 40.2315 96.7044 40.6807C96.7044 40.7805 96.803 40.8803 96.9015 40.9302ZM97.4438 37.4864C97.5424 37.4864 97.641 37.4365 97.641 37.3366L97.8875 35.8892C97.8875 35.7894 97.8382 35.6896 97.7396 35.6397C97.641 35.6397 97.5424 35.6896 97.4931 35.7894L97.2959 37.2368C97.2466 37.3366 97.3452 37.4364 97.4438 37.4864ZM97.9861 34.0425C98.0846 34.0425 98.1832 33.9926 98.1832 33.8928L98.4297 32.4454C98.4297 32.3455 98.3804 32.2457 98.2818 32.1958C98.1832 32.1958 98.0846 32.2457 98.0353 32.3455L97.7889 33.793C97.8382 33.9427 97.8875 34.0425 97.9861 34.0425ZM98.5776 30.5987C98.6762 30.5987 98.7748 30.5487 98.7748 30.4489C98.8734 29.9498 98.9227 29.4507 99.0213 29.0015C99.0213 28.9017 98.972 28.8019 98.8734 28.752C98.7748 28.752 98.6762 28.8019 98.6269 28.9017C98.5776 29.3509 98.479 29.85 98.3804 30.3491C98.3804 30.4988 98.4297 30.5987 98.5776 30.5987Z" fill="#E3345D"/>
<path d="M98.2326 34.8411C99.2672 34.8411 100.106 33.9919 100.106 32.9445C100.106 31.897 99.2672 31.0479 98.2326 31.0479C97.1981 31.0479 96.3594 31.897 96.3594 32.9445C96.3594 33.9919 97.1981 34.8411 98.2326 34.8411Z" fill="#EF3E66"/>
<path d="M97.6412 34.1428C97.5919 34.1428 97.5919 34.1428 97.5426 34.0929C97.444 34.043 97.444 33.8933 97.4933 33.8434L98.6764 32.0466C98.7257 31.9467 98.8736 31.9467 98.9229 31.9967C99.0215 32.0466 99.0215 32.1963 98.9722 32.2462L97.7891 34.043C97.7398 34.0929 97.6905 34.1428 97.6412 34.1428Z" fill="#FF6F7B"/>
<path d="M99.0712 33.8431C99.0219 33.8431 98.9726 33.8431 98.9726 33.7932L97.2965 32.4456C97.1979 32.3957 97.1979 32.246 97.2472 32.1462C97.2965 32.0464 97.4444 32.0463 97.543 32.0963L99.1698 33.4439C99.2683 33.4938 99.2683 33.6435 99.2191 33.7433C99.1698 33.7932 99.1205 33.8431 99.0712 33.8431Z" fill="#FF6F7B"/>
<path d="M108.191 39.7821C108.142 40.3311 108.142 42.0281 109.029 42.1778C109.768 42.2776 110.311 40.4808 109.423 40.1814C109.078 40.0316 108.24 39.2331 108.191 39.7821Z" fill="#FFB778"/>
<path d="M87.931 37.4365C87.8817 37.9856 87.4381 39.7324 86.7972 39.6825C85.762 39.5827 86.255 37.5364 86.6493 37.5863C87.0437 37.6362 87.9803 36.8875 87.931 37.4365Z" fill="#FFB778"/>
<path d="M106.564 14.8774C106.515 14.5779 105.086 13.1804 104.297 14.7276C105.381 14.2784 106.564 14.8774 106.564 14.8774Z" fill="#DD4527"/>
<path d="M95.8678 13.8292C96.1635 13.2302 94.4875 12.0324 93.748 13.5297C94.6847 13.1803 95.8678 13.8292 95.8678 13.8292Z" fill="#DD4527"/>
<path d="M173.656 42.6774C173.656 42.6774 173.212 50.6631 172.522 54.4064C171.389 60.246 165.621 58.0998 167.05 53.6079C168.234 49.8645 168.874 41.9287 168.874 41.9287L173.656 42.6774Z" fill="#FFB778"/>
<path d="M167.445 52.0107C167.691 53.7576 168.135 55.4047 169.762 55.5544C171.142 55.5544 172.029 54.5063 172.719 53.2086C172.67 53.6578 172.572 54.0571 172.522 54.4065C171.389 60.246 165.621 58.0999 167.05 53.6079C167.149 53.1587 167.297 52.6097 167.445 52.0107Z" fill="#6FD9CF"/>
<path d="M166.113 43.0266C166.113 43.0266 163.451 52.4597 162.022 54.8555C160.543 57.4009 155.564 56.3528 157.585 51.5114C159.606 46.6202 162.613 40.6309 162.613 40.6309L166.113 43.0266Z" fill="#FFB778"/>
<path opacity="0.5" d="M170.945 46.9697C170.55 48.1177 169.219 48.4171 168.135 48.0677C168.578 44.8735 168.825 41.9287 168.825 41.9287L173.656 42.6774C173.656 42.6774 173.508 45.1729 173.262 48.0178C172.325 48.1177 171.635 47.8182 170.945 46.9697Z" fill="#F6A979"/>
<path opacity="0.5" d="M163.206 46.0711C162.17 46.9695 160.889 46.72 160.051 45.9214C161.431 42.9767 162.614 40.6309 162.614 40.6309L166.065 43.0266C166.065 43.0266 165.424 45.2726 164.635 47.8679C163.945 47.5685 163.403 46.8697 163.206 46.0711Z" fill="#F6A979"/>
<path d="M157.585 51.5119C158.325 49.6652 159.212 47.7187 160.05 45.9219C160.888 46.7204 162.17 46.97 163.205 46.0716C163.402 46.8702 163.944 47.5689 164.635 47.8684C163.797 50.5636 162.712 53.6082 162.022 54.8559C160.543 57.4014 155.564 56.3533 157.585 51.5119Z" fill="#FFB778"/>
<path d="M157.585 51.5121C157.832 50.8632 158.127 50.2144 158.423 49.5156C158.127 51.2625 158.324 52.8597 160.001 53.6582C161.134 54.2072 162.17 53.4087 163.106 52.4604C162.712 53.4586 162.367 54.3071 162.071 54.8062C160.543 57.4015 155.564 56.3534 157.585 51.5121Z" fill="#6FD9CF"/>
<path d="M175.381 43.0764C176.071 44.1744 177.057 45.2226 175.824 45.7716C174.592 46.3206 172.817 44.1245 172.817 44.1245C172.817 44.1245 174.346 46.6201 173.162 46.8197C170.993 47.219 170.451 44.8233 170.451 44.8233C170.451 44.8233 170.451 46.4703 168.972 46.9695C167.493 47.4686 167.247 44.5238 167.247 44.5238C167.247 44.5238 166.754 47.0693 165.226 46.7698C163.698 46.4703 164.388 43.9748 164.388 43.9748C164.388 43.9748 162.712 46.1709 161.184 45.3723C159.705 44.5737 161.972 42.3277 161.972 42.3277C161.972 42.3277 159.015 45.1727 157.93 43.6753C156.895 42.2279 160 41.1299 160 41.1299L175.381 43.0764Z" fill="#FF5162"/>
<path d="M173.212 5.24418C174.444 2.69873 180.31 3.24775 180.458 8.0891C183.021 6.74151 187.951 12.3315 184.205 14.9768C186.965 14.6274 190.859 20.2174 184.698 23.3119C187.162 25.3084 185.043 30.2495 179.324 28.5526C179.817 30.7486 177.303 33.7433 173.31 31.7968C172.028 32.9946 167.493 33.7433 165.521 32.7451C163.55 31.7469 163.057 30 162.021 30.2495C161.036 30.4991 156.895 28.303 157.536 26.1069C155.958 26.5062 151.127 22.7629 154.282 20.0178C152.606 18.6702 151.817 12.631 156.993 12.5811C156.303 9.88589 158.521 5.344 162.317 6.89124C162.909 2.19962 171.486 -0.445657 173.212 5.24418Z" fill="#DD4527"/>
<path d="M172.472 6.84133C171.979 5.59356 171.289 4.74507 170.155 4.24596C166.704 3.34757 163.204 5.39391 162.514 8.88768C160.444 7.49017 157.831 9.28696 156.895 11.1836C157.092 8.58821 159.162 5.59356 162.317 6.89124C162.909 2.19962 171.486 -0.445657 173.211 5.24418C174.296 2.99819 178.979 3.14793 180.162 6.54186C178.19 4.34579 174.395 4.74507 172.472 6.84133Z" fill="#E95E25"/>
<path d="M154.184 13.5791C154.184 14.7271 154.381 15.9249 154.726 17.0729C155.17 18.5203 156.205 20.1673 157.733 20.3171C156.797 21.8144 156.994 24.0105 158.473 24.9089C159.804 25.408 161.332 25.7574 162.564 24.9089C164.635 28.0533 168.135 30.1495 171.881 29.5506C173.656 29.1014 175.677 28.3028 176.269 26.2066C177.895 27.7538 180.902 26.8554 181.839 24.9588C182.332 23.6112 181.691 22.3634 181.001 21.3153C183.86 21.5648 186.966 19.3189 186.966 16.4739C188.395 18.2707 188.592 21.3153 184.649 23.3616C187.114 25.3581 184.994 30.2992 179.276 28.6023C179.769 30.7984 177.254 33.793 173.261 31.8465C171.98 33.0443 167.445 33.793 165.473 32.7948C163.501 31.7966 163.008 30.0497 161.973 30.2992C160.987 30.5488 156.846 28.3527 157.487 26.1566C155.959 26.506 151.128 22.7627 154.283 20.0176C153.001 19.0194 152.261 15.326 154.184 13.5791Z" fill="#D63431"/>
<path d="M177.009 31.248C177.551 31.7471 179.72 36.0894 182.135 38.8844C184.206 41.33 180.755 43.8256 177.6 39.5332C175.973 37.3372 173.903 33.9931 173.903 32.0965C173.854 30.15 177.009 31.248 177.009 31.248Z" fill="#FFB778"/>
<path d="M163.403 30.4494C163.107 31.6472 161.875 36.2889 156.6 38.6347C154.037 39.7827 152.164 37.6864 153.445 36.4886C156.009 34.1428 158.128 32.7952 161.234 29.501C162.959 27.6543 163.403 30.4494 163.403 30.4494Z" fill="#FFB778"/>
<path opacity="0.5" d="M173.854 32.0965C173.854 30.15 177.008 31.248 177.008 31.248C177.255 31.4477 177.699 32.2463 178.339 33.3443C177.206 34.1429 175.924 34.5921 174.642 34.6919C174.149 33.7436 173.854 32.8452 173.854 32.0965Z" fill="#F6A979"/>
<path opacity="0.5" d="M161.183 29.501C162.909 27.6543 163.402 30.3994 163.402 30.3994C163.254 30.8985 162.958 32.0465 162.268 33.3941C161.134 32.9948 160.197 32.1962 159.359 31.2978C159.951 30.7987 160.542 30.1998 161.183 29.501Z" fill="#F6A979"/>
<path d="M172.176 23.2625C172.176 23.2625 175.232 31.9969 172.028 34.1929C168.824 36.3391 163.845 34.5922 163.5 32.3962C163.106 30.2001 166.162 22.9131 166.162 22.9131L172.176 23.2625Z" fill="#FFB778"/>
<path opacity="0.5" d="M165.521 24.5601C165.916 23.5619 166.162 22.9131 166.162 22.9131L172.176 23.2625C172.176 23.2625 172.472 24.061 172.768 25.2589C170.648 26.5566 167.74 25.8578 165.521 24.5601Z" fill="#F6A979"/>
<path d="M179.127 20.1679C179.521 20.2677 182.085 19.7686 181.69 17.7722C181.197 15.3266 179.127 16.6243 179.127 16.6243V20.1679Z" fill="#ED8351"/>
<path d="M160.74 18.4209C160.345 18.4209 158.127 17.4726 159.014 15.576C159.852 13.6794 161.381 15.2266 161.381 15.2266L160.74 18.4209Z" fill="#FF8F5D"/>
<path d="M177.009 10.4348C179.129 11.6826 180.46 16.3742 179.819 19.3189C178.981 23.5115 175.678 25.2583 168.776 24.6095C162.319 24.0106 160.692 20.966 160.298 18.72C159.903 16.5239 161.086 11.3332 165.474 9.08722C169.368 7.04087 174.495 8.93748 177.009 10.4348Z" fill="#FFB778"/>
<path opacity="0.3" d="M163.797 10.2354C161.727 14.2282 160.051 18.6204 163.699 23.2122C161.382 21.9644 160.593 20.1676 160.347 18.7202C160.002 16.8735 160.79 12.8307 163.797 10.2354Z" fill="#FFFF1A"/>
<path opacity="0.5" d="M176.218 22.9624C179.472 21.3154 179.423 15.8252 177.845 13.679C176.81 14.2779 173.901 14.4776 172.718 12.7806C171.338 15.0266 167.69 15.0765 166.507 12.581C165.078 13.2298 163.303 12.8804 162.465 11.6826C163.254 10.6844 164.239 9.73606 165.521 9.08722C169.416 7.04087 174.542 8.93748 177.056 10.4348C179.176 11.6826 180.507 16.3742 179.866 19.3189C178.979 23.5115 175.676 25.2583 168.775 24.6095C166.113 24.3599 164.239 23.7111 163.007 22.8127C167.049 24.9589 172.078 25.2583 176.218 22.9624Z" fill="#F6A979"/>
<path d="M175.97 18.4291C175.076 18.3455 174.318 18.6337 174.278 19.0729C174.238 19.5121 174.931 19.9359 175.825 20.0195C176.72 20.1031 177.478 19.8149 177.518 19.3757C177.558 18.9365 176.865 18.5127 175.97 18.4291Z" fill="#FF866D"/>
<path d="M163.33 17.3002C162.435 17.2165 161.677 17.5048 161.637 17.944C161.597 18.3832 162.29 18.807 163.185 18.8906C164.079 18.9742 164.837 18.686 164.877 18.2468C164.917 17.8076 164.224 17.3838 163.33 17.3002Z" fill="#FF866D"/>
<path d="M163.797 16.7739C163.747 17.3229 163.945 17.6224 164.142 17.6723C164.339 17.6723 164.635 17.4228 164.684 16.8737C164.733 16.3247 164.536 15.626 164.339 15.626C164.142 15.5761 163.846 16.175 163.797 16.7739Z" fill="#B62742"/>
<path d="M174.889 17.8218C174.839 18.3708 175.036 18.6703 175.234 18.7202C175.431 18.7202 175.727 18.4706 175.776 17.9216C175.825 17.3726 175.628 16.6738 175.431 16.6738C175.184 16.6239 174.938 17.2228 174.889 17.8218Z" fill="#B62742"/>
<path d="M169.515 21.8146C169.466 21.8146 169.416 21.8146 169.367 21.8146C168.381 21.7147 167.74 20.8662 167.642 20.417C167.592 20.2673 167.691 20.1176 167.839 20.0677C167.987 20.0178 168.135 20.1176 168.184 20.2673C168.233 20.5169 168.726 21.1657 169.466 21.2655C170.008 21.3154 170.55 20.9661 170.698 20.5668C170.747 20.417 170.945 20.3671 171.092 20.417C171.24 20.467 171.29 20.6666 171.24 20.8163C170.895 21.3654 170.205 21.8146 169.515 21.8146Z" fill="#E25255"/>
<path opacity="0.3" d="M172.029 18.6703C172.719 18.3709 171.536 17.1231 169.909 16.9235C168.233 16.7238 166.952 17.4226 167.395 18.0215C167.888 18.6204 168.529 18.0714 169.712 18.2211C170.501 18.321 171.536 18.87 172.029 18.6703Z" fill="#FFFF1A"/>
<path d="M178.289 10.6841C178.289 10.6841 175.134 7.43989 171.684 6.89087C168.233 6.39176 163.846 9.58606 163.451 10.185C163.057 10.8338 164.585 3.99604 172.324 5.1939C176.761 5.84274 178.043 10.2349 178.289 10.6841Z" fill="#6FD9CF"/>
<path d="M171.536 6.44178C176.761 7.4899 179.275 10.1352 179.275 10.1352C179.275 10.1352 178.832 12.7305 175.726 12.8803C173.459 12.9801 171.98 11.333 171.98 11.333C172.128 12.9302 167.839 14.7769 166.606 11.5327C163.599 13.0799 162.416 11.2332 161.973 9.7858C162.268 8.88741 162.86 8.08883 163.55 7.39008C165.275 6.64142 168.135 5.79293 171.536 6.44178Z" fill="#DD4527"/>
<path d="M167.051 10.2854C167.84 10.1856 168.826 12.232 170.255 11.3835C170.896 11.0341 171.291 10.4851 171.389 9.6865C172.227 10.9343 173.706 11.8826 175.333 11.4334C175.727 11.4833 176.762 10.7845 176.368 10.535C175.136 9.58668 173.41 8.48864 173.558 6.94141C177.403 8.13927 179.276 10.0858 179.276 10.0858C179.276 10.0858 178.833 12.6812 175.727 12.8309C173.46 12.9307 171.981 11.2837 171.981 11.2837C172.129 12.8808 167.84 14.7275 166.607 11.4833C163.748 12.9307 162.565 11.3835 162.072 9.98597C163.354 10.8345 165.326 10.535 167.051 10.2854Z" fill="#D63431"/>
<path d="M175.284 7.49064C175.776 7.49064 175.234 1.8008 172.178 4.89528C169.22 7.93984 173.706 7.44073 175.284 7.49064Z" fill="#86FFDB"/>
<path d="M176.319 8.18959C175.925 7.89012 182.875 5.74396 180.854 9.88656C178.932 13.8295 176.615 8.38923 176.319 8.18959Z" fill="#86FFDB"/>
<path d="M177.748 7.68981C177.748 7.68981 177.058 9.28696 176.368 9.18714C175.629 9.08732 174.594 8.23883 174.692 7.6399C174.791 7.04097 174.889 6.54186 175.579 6.2424C175.777 6.19249 177.748 6.59177 177.748 7.68981Z" fill="#6FD9CF"/>
<path d="M173.311 33.3438C173.902 33.5435 177.895 33.0444 177.846 30.7984C177.797 28.5524 173.705 25.3581 172.916 25.9071C172.029 26.506 173.311 33.3438 173.311 33.3438Z" fill="#FF5162"/>
<path d="M163.501 32.3962C164.141 31.9969 167.296 25.0094 165.226 24.9595C162.81 24.9096 159.853 28.7527 160.592 30.0005C161.332 31.2981 163.501 32.3962 163.501 32.3962Z" fill="#FF5162"/>
<path d="M172.769 25.3082C172.769 25.3082 176.121 42.5275 175.529 43.7753C174.888 45.023 169.909 46.171 166.459 45.572C163.008 44.9731 159.557 42.6273 159.015 41.7289C158.522 40.8305 165.522 24.5596 165.522 24.5596C165.522 24.5596 166.163 27.0551 169.121 27.5542C171.29 27.9535 172.818 25.8073 172.769 25.3082Z" fill="#FF656D"/>
<path d="M162.023 33.0448C161.283 35.5403 160.692 38.0858 161.579 40.6811C162.516 43.0769 165.375 43.7756 167.643 44.125C169.713 44.5243 172.671 43.6758 173.016 41.3799C173.952 36.1393 172.128 31.1482 172.375 26.1072C172.621 25.7578 172.769 25.4583 172.769 25.3086C172.769 25.3086 176.121 42.5278 175.53 43.7756C174.889 45.0234 169.91 46.1713 166.459 45.5724C163.009 44.9735 159.558 42.6277 159.016 41.7293C158.769 41.2801 160.347 37.1375 162.023 33.0448Z" fill="#FF5162"/>
<path d="M166.359 44.3741C166.458 44.3741 166.556 44.3242 166.556 44.2243C166.606 43.7751 166.704 43.276 166.803 42.7769C166.803 42.6771 166.754 42.5773 166.655 42.5274C166.556 42.5274 166.458 42.5773 166.409 42.6771C166.31 43.1762 166.261 43.6753 166.162 44.1245C166.211 44.2243 166.261 44.3242 166.359 44.3741ZM166.902 40.9302C167 40.9302 167.099 40.8803 167.099 40.7805C167.148 40.3313 167.247 39.8322 167.345 39.3331C167.345 39.2332 167.296 39.1334 167.197 39.0835C167.099 39.0835 167 39.1334 166.951 39.2332C166.852 39.7323 166.803 40.2315 166.704 40.6807C166.704 40.7805 166.803 40.8803 166.902 40.9302ZM167.444 37.4864C167.542 37.4864 167.641 37.4365 167.641 37.3366L167.887 35.8892C167.887 35.7894 167.838 35.6896 167.74 35.6397C167.641 35.6397 167.542 35.6896 167.493 35.7894L167.296 37.2368C167.247 37.3366 167.345 37.4364 167.444 37.4864ZM167.986 34.0425C168.085 34.0425 168.183 33.9926 168.183 33.8928L168.43 32.4454C168.43 32.3455 168.38 32.2457 168.282 32.1958C168.183 32.1958 168.085 32.2457 168.035 32.3455L167.789 33.793C167.838 33.9427 167.887 34.0425 167.986 34.0425ZM168.578 30.5987C168.676 30.5987 168.775 30.5487 168.775 30.4489C168.873 29.9498 168.923 29.4507 169.021 29.0015C169.021 28.9017 168.972 28.8019 168.873 28.752C168.775 28.752 168.676 28.8019 168.627 28.9017C168.578 29.3509 168.479 29.85 168.38 30.3491C168.38 30.4988 168.43 30.5987 168.578 30.5987Z" fill="#E3345D"/>
<path d="M168.233 34.8411C169.267 34.8411 170.106 33.9919 170.106 32.9445C170.106 31.897 169.267 31.0479 168.233 31.0479C167.198 31.0479 166.359 31.897 166.359 32.9445C166.359 33.9919 167.198 34.8411 168.233 34.8411Z" fill="#EF3E66"/>
<path d="M167.641 34.1428C167.592 34.1428 167.592 34.1428 167.543 34.0929C167.444 34.043 167.444 33.8933 167.493 33.8434L168.676 32.0466C168.726 31.9467 168.874 31.9467 168.923 31.9967C169.021 32.0466 169.021 32.1963 168.972 32.2462L167.789 34.043C167.74 34.0929 167.691 34.1428 167.641 34.1428Z" fill="#FF6F7B"/>
<path d="M169.071 33.8431C169.022 33.8431 168.973 33.8431 168.973 33.7932L167.297 32.4456C167.198 32.3957 167.198 32.246 167.247 32.1462C167.297 32.0464 167.444 32.0463 167.543 32.0963L169.17 33.4439C169.268 33.4938 169.268 33.6435 169.219 33.7433C169.17 33.7932 169.12 33.8431 169.071 33.8431Z" fill="#FF6F7B"/>
<path d="M178.191 39.7821C178.142 40.3311 178.142 42.0281 179.029 42.1778C179.768 42.2776 180.311 40.4808 179.423 40.1814C179.078 40.0316 178.24 39.2331 178.191 39.7821Z" fill="#FFB778"/>
<path d="M157.931 37.4365C157.882 37.9856 157.438 39.7324 156.797 39.6825C155.762 39.5827 156.255 37.5364 156.649 37.5863C157.044 37.6362 157.98 36.8875 157.931 37.4365Z" fill="#FFB778"/>
<path d="M176.564 14.8774C176.515 14.5779 175.086 13.1804 174.297 14.7276C175.381 14.2784 176.564 14.8774 176.564 14.8774Z" fill="#DD4527"/>
<path d="M165.868 13.8292C166.164 13.2302 164.487 12.0324 163.748 13.5297C164.685 13.1803 165.868 13.8292 165.868 13.8292Z" fill="#DD4527"/>
<path d="M222.499 40.5L218.959 35.55L215.299 40.5H210.199L216.409 32.37L210.409 24.36H215.659L219.079 29.07L222.589 24.36H227.569L221.569 32.25L227.809 40.5H222.499Z" fill="#0E80A4"/>
<path d="M265.32 41.164V47.5H239.928V42.46L252.888 30.22C254.264 28.908 255.192 27.788 255.672 26.86C256.152 25.9 256.392 24.956 256.392 24.028C256.392 22.684 255.928 21.66 255 20.956C254.104 20.22 252.776 19.852 251.016 19.852C249.544 19.852 248.216 20.14 247.032 20.716C245.848 21.26 244.856 22.092 244.056 23.212L238.392 19.564C239.704 17.612 241.512 16.092 243.816 15.004C246.12 13.884 248.76 13.324 251.736 13.324C254.232 13.324 256.408 13.74 258.264 14.572C260.152 15.372 261.608 16.524 262.632 18.028C263.688 19.5 264.216 21.244 264.216 23.26C264.216 25.084 263.832 26.796 263.064 28.396C262.296 29.996 260.808 31.82 258.6 33.868L250.872 41.164H265.32Z" fill="#0E80A4"/>
<path d="M278.881 24.45H293.161V28.11H278.881V24.45ZM278.881 31.89H293.161V35.55H278.881V31.89Z" fill="#0E80A4"/>
</svg>
