<svg width="285" height="60" viewBox="0 0 285 60" fill="none" xmlns="http://www.w3.org/2000/svg">
<g clip-path="url(#clip0_7_20742)">
<path d="M43.5327 8.43584L41.9688 7.80469L40.2204 12.0743L41.7843 12.7054L43.5327 8.43584Z" fill="#74B4C5"/>
<path d="M27.3815 21.2245C24.3802 20.7589 16.5019 21.4107 12 34.818C13.782 34.2128 17.5805 31.4662 21.1445 33.468C24.7554 35.5163 27.3815 21.2245 27.3815 21.2245Z" fill="#FF5F59"/>
<path d="M44.5926 28.208C47.078 29.977 52.2364 35.8893 46.0463 48.5983C45.2022 46.9224 44.405 42.3602 40.4189 41.2895C36.4798 40.2188 44.5926 28.208 44.5926 28.208Z" fill="#FF5F59"/>
<path d="M26.8188 23.8315C27.1939 22.2952 27.3815 21.2245 27.3815 21.2245C24.3802 20.7589 16.5019 21.4107 12 34.818C12.6096 34.6318 13.4068 34.1663 14.3916 33.7473C16.7364 28.8127 21.379 24.2504 26.8188 23.8315Z" fill="#FF8D6D"/>
<path d="M44.5925 28.208C44.5925 28.208 43.7953 29.3718 42.8574 31.0012C47.5 34.1668 46.8904 40.4981 44.9208 45.712C45.4366 46.8759 45.718 47.9466 46.0932 48.5983C52.2833 35.8893 47.078 29.977 44.5925 28.208Z" fill="#FF8D6D"/>
<path d="M34.5097 54.9763C35.1662 52.9745 31.7898 53.0211 33.8532 46.9226C31.9774 46.0846 28.0851 44.0363 28.0851 44.0363C28.0851 44.0363 23.8646 42.7794 21.9419 42.0811C19.1282 47.8537 16.7366 45.4794 15.7987 47.3881C14.5325 49.9951 23.9584 54.0918 23.9584 54.0918C23.9584 54.0918 33.5718 57.723 34.5097 54.9763Z" fill="#FF5F59"/>
<path d="M34.5097 54.9763C34.7911 54.1383 34.369 53.6728 33.9001 52.9279C32.3525 53.8125 28.9292 53.44 24.8025 51.8572C21.2854 50.5072 17.8151 47.1553 17.862 46.3174C16.9241 46.5967 16.2207 46.5501 15.7987 47.4347C14.5325 50.0416 23.9584 54.1383 23.9584 54.1383C23.9584 54.1383 33.5718 57.7229 34.5097 54.9763Z" fill="#FF8D6D"/>
<path d="M33.197 50.8796C33.1032 49.9486 33.2439 48.6916 33.8535 46.9226C31.9777 46.0846 28.0855 44.0363 28.0855 44.0363C28.0855 44.0363 23.8649 42.7794 21.9423 42.0811C21.2388 43.5242 20.5823 44.4553 19.9258 45.0605C23.2553 48.8313 28.2262 50.7865 33.197 50.8796Z" fill="#EB4048"/>
<path d="M44.6848 30.5823C46.5606 21.6906 46.1385 13.2179 41.449 11.3558C36.8065 9.49368 30.5225 15.2663 25.5986 22.901C20.7684 30.5358 17.8609 41.4758 18.1892 41.7551C18.1892 41.7551 22.738 46.457 26.5834 47.8536C30.6632 49.2967 36.7127 49.2502 36.7127 49.2502C37.1816 49.2967 42.809 39.4274 44.6848 30.5823Z" fill="#8DE3E0"/>
<path opacity="0.3" d="M44.6848 30.5821C44.7317 30.3958 44.7786 30.2096 44.7786 30.0234C42.7152 35.8891 40.0422 42.2669 34.9776 45.1998C26.6772 50.0413 21.0029 41.6152 22.1753 37.3323C24.4731 28.813 27.5213 21.0386 32.6328 14.335C30.1943 16.4764 27.7558 19.5024 25.5986 22.9008C20.7684 30.5355 17.8609 41.4755 18.1892 41.7548C18.1892 41.7548 22.738 46.4567 26.5834 47.8533C30.6632 49.2965 36.7127 49.2499 36.7127 49.2499C37.1816 49.2965 42.809 39.4272 44.6848 30.5821Z" fill="#4CC7FF"/>
<path d="M35.9628 28.9991C38.3973 28.9991 40.3709 27.0399 40.3709 24.6231C40.3709 22.2063 38.3973 20.2471 35.9628 20.2471C33.5283 20.2471 31.5547 22.2063 31.5547 24.6231C31.5547 27.0399 33.5283 28.9991 35.9628 28.9991Z" fill="#B6FFD8"/>
<path d="M35.9624 29.2784C35.3528 29.2784 34.7432 29.1853 34.1804 28.9526C31.7888 27.9749 30.6164 25.2748 31.6012 22.8541C32.3046 21.0851 34.0397 19.9678 35.9624 19.9678C36.5721 19.9678 37.1817 20.0609 37.7444 20.2936C38.9168 20.7592 39.8078 21.6437 40.3237 22.8075C40.7926 23.9714 40.8395 25.2283 40.3237 26.3921C39.6202 28.1146 37.8851 29.2784 35.9624 29.2784ZM35.9624 20.5264C34.2742 20.5264 32.8205 21.504 32.164 23.0403C31.3198 25.0886 32.3046 27.4628 34.4149 28.3474C34.9307 28.5336 35.4466 28.6267 35.9624 28.6267C37.6506 28.6267 39.1044 27.6491 39.7609 26.1128C40.183 25.0886 40.183 24.0179 39.7609 22.9937C39.3389 22.0161 38.5416 21.2247 37.5569 20.8057C37.041 20.6661 36.5252 20.5264 35.9624 20.5264Z" fill="#74B4C5"/>
<path d="M35.9641 27.5089C37.5699 27.5089 38.8716 26.2167 38.8716 24.6226C38.8716 23.0286 37.5699 21.7363 35.9641 21.7363C34.3584 21.7363 33.0566 23.0286 33.0566 24.6226C33.0566 26.2167 34.3584 27.5089 35.9641 27.5089Z" fill="#6D5D8E"/>
<path opacity="0.2" d="M38.5901 25.7874C37.8867 25.834 37.1364 25.9271 36.8081 25.5546C36.1047 24.8098 37.8867 24.2046 37.3708 23.227C36.7612 22.2959 34.604 22.9011 34.604 22.0166C34.0413 22.2959 33.6192 22.7615 33.3848 23.3201C33.9475 23.5529 34.6978 23.5529 34.9792 23.9253C35.8702 24.6236 34.2289 26.6719 36.1047 26.8581C36.5736 26.8116 37.2301 26.6719 37.8398 26.765C38.168 26.5323 38.4494 26.1598 38.5901 25.7874Z" fill="white"/>
<path d="M31.321 42.0807C34.7138 42.0807 37.4642 39.3504 37.4642 35.9823C37.4642 32.6142 34.7138 29.8838 31.321 29.8838C27.9281 29.8838 25.1777 32.6142 25.1777 35.9823C25.1777 39.3504 27.9281 42.0807 31.321 42.0807Z" fill="#B6FFD8"/>
<path d="M31.3208 42.3598C30.4767 42.3598 29.6794 42.2201 28.8822 41.8942C25.5996 40.5442 24.0052 36.8199 25.3651 33.5612C26.3499 31.1404 28.6947 29.5576 31.3208 29.5576C32.1649 29.5576 32.9621 29.6973 33.7593 30.0231C35.3537 30.6749 36.573 31.8853 37.2764 33.4681C37.9329 35.0509 37.9329 36.7734 37.3233 38.3562C36.2916 40.777 33.9469 42.3598 31.3208 42.3598ZM31.3208 30.1628C28.9291 30.1628 26.8189 31.5594 25.9279 33.7474C24.7086 36.6803 26.1623 40.0787 29.1167 41.289C29.8201 41.5684 30.5704 41.708 31.3208 41.708C33.7124 41.708 35.8227 40.3114 36.7137 38.1234C37.3233 36.6803 37.2764 35.144 36.6668 33.7009C36.0571 32.2577 34.9317 31.187 33.4779 30.5818C32.8214 30.349 32.0711 30.1628 31.3208 30.1628Z" fill="#74B4C5"/>
<path d="M31.3201 40.1716C33.6511 40.1716 35.5407 38.2957 35.5407 35.9818C35.5407 33.6678 33.6511 31.792 31.3201 31.792C28.9892 31.792 27.0996 33.6678 27.0996 35.9818C27.0996 38.2957 28.9892 40.1716 31.3201 40.1716Z" fill="#6D5D8E"/>
<path opacity="0.2" d="M35.0718 37.8908C34.4153 38.0304 33.7587 38.2632 33.2429 38.1235C31.4609 37.658 34.4622 36.0286 33.3836 34.7717C32.3519 33.7475 31.0388 35.6562 29.6789 35.0976C28.5534 34.6786 30.3823 33.5148 30.2416 32.7234C30.2885 32.444 30.0072 32.2113 29.6789 32.1182C28.9286 32.444 28.272 32.9561 27.8031 33.6544C27.9438 33.7475 28.0376 33.7941 28.1314 33.7941C28.5065 34.5389 27.6624 35.5631 27.8031 36.3545C28.1314 36.9131 28.8348 37.3787 29.5851 37.0063C30.3354 36.6338 31.1326 35.47 31.6485 35.9821C32.4926 37.0528 29.8665 37.5649 30.7575 38.8684C31.5547 39.7063 33.196 38.9615 34.3215 38.8684C34.6966 38.5425 34.8842 38.2166 35.0718 37.8908Z" fill="white"/>
<path d="M39.2466 18.1991C39.92 18.1991 40.4659 17.6572 40.4659 16.9887C40.4659 16.3202 39.92 15.7783 39.2466 15.7783C38.5732 15.7783 38.0273 16.3202 38.0273 16.9887C38.0273 17.6572 38.5732 18.1991 39.2466 18.1991Z" fill="#74B4C5"/>
<path d="M30.9918 32.7235C31.1794 32.0718 32.5393 32.4908 33.4772 33.3753C34.3682 34.2598 34.6027 35.7029 33.571 35.6098C33.2427 35.5633 33.4303 34.9115 32.5393 34.1201C31.5545 33.1891 30.8042 33.3287 30.9918 32.7235Z" fill="#DACCC2"/>
<path d="M35.6821 22.6682C35.7759 22.1562 36.9014 22.4355 37.6048 23.0872C38.3551 23.739 38.5896 24.8562 37.7924 24.8097C37.511 24.8097 37.6517 24.2976 36.9014 23.6924C36.151 23.0407 35.5883 23.1803 35.6821 22.6682Z" fill="#DACCC2"/>
<path d="M43.3253 9.02775C44.7239 9.02775 45.8576 7.90225 45.8576 6.51388C45.8576 5.1255 44.7239 4 43.3253 4C41.9267 4 40.793 5.1255 40.793 6.51388C40.793 7.90225 41.9267 9.02775 43.3253 9.02775Z" fill="#8DE3E0"/>
<path opacity="0.3" d="M43.5608 7.86423C41.5443 7.53836 41.263 5.62967 42.3884 4.18652C41.7788 4.41929 41.263 4.93138 40.9816 5.58312C40.4657 6.88661 41.0754 8.37632 42.3884 8.8884C43.7015 9.40049 45.2021 8.7953 45.718 7.49181C45.7649 7.30559 45.8586 7.16593 45.8586 6.97972C45.3428 7.49181 44.4049 7.91078 43.5608 7.86423Z" fill="#4CC7FF"/>
</g>
<g clip-path="url(#clip1_7_20742)">
<path d="M113.533 8.43584L111.969 7.80469L110.22 12.0743L111.784 12.7054L113.533 8.43584Z" fill="#74B4C5"/>
<path d="M97.3815 21.2245C94.3802 20.7589 86.5019 21.4107 82 34.818C83.782 34.2128 87.5805 31.4662 91.1445 33.468C94.7554 35.5163 97.3815 21.2245 97.3815 21.2245Z" fill="#FF5F59"/>
<path d="M114.593 28.208C117.078 29.977 122.236 35.8893 116.046 48.5983C115.202 46.9224 114.405 42.3602 110.419 41.2895C106.48 40.2188 114.593 28.208 114.593 28.208Z" fill="#FF5F59"/>
<path d="M96.8188 23.8315C97.1939 22.2952 97.3815 21.2245 97.3815 21.2245C94.3802 20.7589 86.5019 21.4107 82 34.818C82.6096 34.6318 83.4068 34.1663 84.3916 33.7473C86.7364 28.8127 91.379 24.2504 96.8188 23.8315Z" fill="#FF8D6D"/>
<path d="M114.593 28.208C114.593 28.208 113.795 29.3718 112.857 31.0012C117.5 34.1668 116.89 40.4981 114.921 45.712C115.437 46.8759 115.718 47.9466 116.093 48.5983C122.283 35.8893 117.078 29.977 114.593 28.208Z" fill="#FF8D6D"/>
<path d="M104.51 54.9763C105.166 52.9745 101.79 53.0211 103.853 46.9226C101.977 46.0846 98.0851 44.0363 98.0851 44.0363C98.0851 44.0363 93.8646 42.7794 91.9419 42.0811C89.1282 47.8537 86.7366 45.4794 85.7987 47.3881C84.5325 49.9951 93.9584 54.0918 93.9584 54.0918C93.9584 54.0918 103.572 57.723 104.51 54.9763Z" fill="#FF5F59"/>
<path d="M104.51 54.9763C104.791 54.1383 104.369 53.6728 103.9 52.9279C102.353 53.8125 98.9292 53.44 94.8025 51.8572C91.2854 50.5072 87.8151 47.1553 87.862 46.3174C86.9241 46.5967 86.2207 46.5501 85.7987 47.4347C84.5325 50.0416 93.9584 54.1383 93.9584 54.1383C93.9584 54.1383 103.572 57.7229 104.51 54.9763Z" fill="#FF8D6D"/>
<path d="M103.197 50.8796C103.103 49.9486 103.244 48.6916 103.854 46.9226C101.978 46.0846 98.0855 44.0363 98.0855 44.0363C98.0855 44.0363 93.8649 42.7794 91.9423 42.0811C91.2388 43.5242 90.5823 44.4553 89.9258 45.0605C93.2553 48.8313 98.2262 50.7865 103.197 50.8796Z" fill="#EB4048"/>
<path d="M114.685 30.5823C116.561 21.6906 116.139 13.2179 111.449 11.3558C106.806 9.49368 100.523 15.2663 95.5986 22.901C90.7684 30.5358 87.8609 41.4758 88.1892 41.7551C88.1892 41.7551 92.738 46.457 96.5834 47.8536C100.663 49.2967 106.713 49.2502 106.713 49.2502C107.182 49.2967 112.809 39.4274 114.685 30.5823Z" fill="#8DE3E0"/>
<path opacity="0.3" d="M114.685 30.5821C114.732 30.3958 114.779 30.2096 114.779 30.0234C112.715 35.8891 110.042 42.2669 104.978 45.1998C96.6772 50.0413 91.0029 41.6152 92.1753 37.3323C94.4731 28.813 97.5213 21.0386 102.633 14.335C100.194 16.4764 97.7558 19.5024 95.5986 22.9008C90.7684 30.5355 87.8609 41.4755 88.1892 41.7548C88.1892 41.7548 92.738 46.4567 96.5834 47.8533C100.663 49.2965 106.713 49.2499 106.713 49.2499C107.182 49.2965 112.809 39.4272 114.685 30.5821Z" fill="#4CC7FF"/>
<path d="M105.963 28.9991C108.397 28.9991 110.371 27.0399 110.371 24.6231C110.371 22.2063 108.397 20.2471 105.963 20.2471C103.528 20.2471 101.555 22.2063 101.555 24.6231C101.555 27.0399 103.528 28.9991 105.963 28.9991Z" fill="#B6FFD8"/>
<path d="M105.962 29.2784C105.353 29.2784 104.743 29.1853 104.18 28.9526C101.789 27.9749 100.616 25.2748 101.601 22.8541C102.305 21.0851 104.04 19.9678 105.962 19.9678C106.572 19.9678 107.182 20.0609 107.744 20.2936C108.917 20.7592 109.808 21.6437 110.324 22.8075C110.793 23.9714 110.839 25.2283 110.324 26.3921C109.62 28.1146 107.885 29.2784 105.962 29.2784ZM105.962 20.5264C104.274 20.5264 102.82 21.504 102.164 23.0403C101.32 25.0886 102.305 27.4628 104.415 28.3474C104.931 28.5336 105.447 28.6267 105.962 28.6267C107.651 28.6267 109.104 27.6491 109.761 26.1128C110.183 25.0886 110.183 24.0179 109.761 22.9937C109.339 22.0161 108.542 21.2247 107.557 20.8057C107.041 20.6661 106.525 20.5264 105.962 20.5264Z" fill="#74B4C5"/>
<path d="M105.964 27.5089C107.57 27.5089 108.872 26.2167 108.872 24.6226C108.872 23.0286 107.57 21.7363 105.964 21.7363C104.358 21.7363 103.057 23.0286 103.057 24.6226C103.057 26.2167 104.358 27.5089 105.964 27.5089Z" fill="#6D5D8E"/>
<path opacity="0.2" d="M108.59 25.7874C107.887 25.834 107.136 25.9271 106.808 25.5546C106.105 24.8098 107.887 24.2046 107.371 23.227C106.761 22.2959 104.604 22.9011 104.604 22.0166C104.041 22.2959 103.619 22.7615 103.385 23.3201C103.948 23.5529 104.698 23.5529 104.979 23.9253C105.87 24.6236 104.229 26.6719 106.105 26.8581C106.574 26.8116 107.23 26.6719 107.84 26.765C108.168 26.5323 108.449 26.1598 108.59 25.7874Z" fill="white"/>
<path d="M101.321 42.0807C104.714 42.0807 107.464 39.3504 107.464 35.9823C107.464 32.6142 104.714 29.8838 101.321 29.8838C97.9281 29.8838 95.1777 32.6142 95.1777 35.9823C95.1777 39.3504 97.9281 42.0807 101.321 42.0807Z" fill="#B6FFD8"/>
<path d="M101.321 42.3598C100.477 42.3598 99.6794 42.2201 98.8822 41.8942C95.5996 40.5442 94.0052 36.8199 95.3651 33.5612C96.3499 31.1404 98.6947 29.5576 101.321 29.5576C102.165 29.5576 102.962 29.6973 103.759 30.0231C105.354 30.6749 106.573 31.8853 107.276 33.4681C107.933 35.0509 107.933 36.7734 107.323 38.3562C106.292 40.777 103.947 42.3598 101.321 42.3598ZM101.321 30.1628C98.9291 30.1628 96.8189 31.5594 95.9279 33.7474C94.7086 36.6803 96.1623 40.0787 99.1167 41.289C99.8201 41.5684 100.57 41.708 101.321 41.708C103.712 41.708 105.823 40.3114 106.714 38.1234C107.323 36.6803 107.276 35.144 106.667 33.7009C106.057 32.2577 104.932 31.187 103.478 30.5818C102.821 30.349 102.071 30.1628 101.321 30.1628Z" fill="#74B4C5"/>
<path d="M101.32 40.1716C103.651 40.1716 105.541 38.2957 105.541 35.9818C105.541 33.6678 103.651 31.792 101.32 31.792C98.9892 31.792 97.0996 33.6678 97.0996 35.9818C97.0996 38.2957 98.9892 40.1716 101.32 40.1716Z" fill="#6D5D8E"/>
<path opacity="0.2" d="M105.072 37.8908C104.415 38.0304 103.759 38.2632 103.243 38.1235C101.461 37.658 104.462 36.0286 103.384 34.7717C102.352 33.7475 101.039 35.6562 99.6789 35.0976C98.5534 34.6786 100.382 33.5148 100.242 32.7234C100.289 32.444 100.007 32.2113 99.6789 32.1182C98.9286 32.444 98.272 32.9561 97.8031 33.6544C97.9438 33.7475 98.0376 33.7941 98.1314 33.7941C98.5065 34.5389 97.6624 35.5631 97.8031 36.3545C98.1314 36.9131 98.8348 37.3787 99.5851 37.0063C100.335 36.6338 101.133 35.47 101.648 35.9821C102.493 37.0528 99.8665 37.5649 100.757 38.8684C101.555 39.7063 103.196 38.9615 104.321 38.8684C104.697 38.5425 104.884 38.2166 105.072 37.8908Z" fill="white"/>
<path d="M109.247 18.1991C109.92 18.1991 110.466 17.6572 110.466 16.9887C110.466 16.3202 109.92 15.7783 109.247 15.7783C108.573 15.7783 108.027 16.3202 108.027 16.9887C108.027 17.6572 108.573 18.1991 109.247 18.1991Z" fill="#74B4C5"/>
<path d="M100.992 32.7235C101.179 32.0718 102.539 32.4908 103.477 33.3753C104.368 34.2598 104.603 35.7029 103.571 35.6098C103.243 35.5633 103.43 34.9115 102.539 34.1201C101.555 33.1891 100.804 33.3287 100.992 32.7235Z" fill="#DACCC2"/>
<path d="M105.682 22.6682C105.776 22.1562 106.901 22.4355 107.605 23.0872C108.355 23.739 108.59 24.8562 107.792 24.8097C107.511 24.8097 107.652 24.2976 106.901 23.6924C106.151 23.0407 105.588 23.1803 105.682 22.6682Z" fill="#DACCC2"/>
<path d="M113.325 9.02775C114.724 9.02775 115.858 7.90225 115.858 6.51388C115.858 5.1255 114.724 4 113.325 4C111.927 4 110.793 5.1255 110.793 6.51388C110.793 7.90225 111.927 9.02775 113.325 9.02775Z" fill="#8DE3E0"/>
<path opacity="0.3" d="M113.561 7.86423C111.544 7.53836 111.263 5.62967 112.388 4.18652C111.779 4.41929 111.263 4.93138 110.982 5.58312C110.466 6.88661 111.075 8.37632 112.388 8.8884C113.701 9.40049 115.202 8.7953 115.718 7.49181C115.765 7.30559 115.859 7.16593 115.859 6.97972C115.343 7.49181 114.405 7.91078 113.561 7.86423Z" fill="#4CC7FF"/>
</g>
<g clip-path="url(#clip2_7_20742)">
<path d="M183.533 8.43584L181.969 7.80469L180.22 12.0743L181.784 12.7054L183.533 8.43584Z" fill="#74B4C5"/>
<path d="M167.381 21.2245C164.38 20.7589 156.502 21.4107 152 34.818C153.782 34.2128 157.58 31.4662 161.144 33.468C164.755 35.5163 167.381 21.2245 167.381 21.2245Z" fill="#FF5F59"/>
<path d="M184.593 28.208C187.078 29.977 192.236 35.8893 186.046 48.5983C185.202 46.9224 184.405 42.3602 180.419 41.2895C176.48 40.2188 184.593 28.208 184.593 28.208Z" fill="#FF5F59"/>
<path d="M166.819 23.8315C167.194 22.2952 167.381 21.2245 167.381 21.2245C164.38 20.7589 156.502 21.4107 152 34.818C152.61 34.6318 153.407 34.1663 154.392 33.7473C156.736 28.8127 161.379 24.2504 166.819 23.8315Z" fill="#FF8D6D"/>
<path d="M184.593 28.208C184.593 28.208 183.795 29.3718 182.857 31.0012C187.5 34.1668 186.89 40.4981 184.921 45.712C185.437 46.8759 185.718 47.9466 186.093 48.5983C192.283 35.8893 187.078 29.977 184.593 28.208Z" fill="#FF8D6D"/>
<path d="M174.51 54.9763C175.166 52.9745 171.79 53.0211 173.853 46.9226C171.977 46.0846 168.085 44.0363 168.085 44.0363C168.085 44.0363 163.865 42.7794 161.942 42.0811C159.128 47.8537 156.737 45.4794 155.799 47.3881C154.533 49.9951 163.958 54.0918 163.958 54.0918C163.958 54.0918 173.572 57.723 174.51 54.9763Z" fill="#FF5F59"/>
<path d="M174.51 54.9763C174.791 54.1383 174.369 53.6728 173.9 52.9279C172.353 53.8125 168.929 53.44 164.802 51.8572C161.285 50.5072 157.815 47.1553 157.862 46.3174C156.924 46.5967 156.221 46.5501 155.799 47.4347C154.533 50.0416 163.958 54.1383 163.958 54.1383C163.958 54.1383 173.572 57.7229 174.51 54.9763Z" fill="#FF8D6D"/>
<path d="M173.197 50.8796C173.103 49.9486 173.244 48.6916 173.854 46.9226C171.978 46.0846 168.085 44.0363 168.085 44.0363C168.085 44.0363 163.865 42.7794 161.942 42.0811C161.239 43.5242 160.582 44.4553 159.926 45.0605C163.255 48.8313 168.226 50.7865 173.197 50.8796Z" fill="#EB4048"/>
<path d="M184.685 30.5823C186.561 21.6906 186.139 13.2179 181.449 11.3558C176.806 9.49368 170.523 15.2663 165.599 22.901C160.768 30.5358 157.861 41.4758 158.189 41.7551C158.189 41.7551 162.738 46.457 166.583 47.8536C170.663 49.2967 176.713 49.2502 176.713 49.2502C177.182 49.2967 182.809 39.4274 184.685 30.5823Z" fill="#8DE3E0"/>
<path opacity="0.3" d="M184.685 30.5821C184.732 30.3958 184.779 30.2096 184.779 30.0234C182.715 35.8891 180.042 42.2669 174.978 45.1998C166.677 50.0413 161.003 41.6152 162.175 37.3323C164.473 28.813 167.521 21.0386 172.633 14.335C170.194 16.4764 167.756 19.5024 165.599 22.9008C160.768 30.5355 157.861 41.4755 158.189 41.7548C158.189 41.7548 162.738 46.4567 166.583 47.8533C170.663 49.2965 176.713 49.2499 176.713 49.2499C177.182 49.2965 182.809 39.4272 184.685 30.5821Z" fill="#4CC7FF"/>
<path d="M175.963 28.9991C178.397 28.9991 180.371 27.0399 180.371 24.6231C180.371 22.2063 178.397 20.2471 175.963 20.2471C173.528 20.2471 171.555 22.2063 171.555 24.6231C171.555 27.0399 173.528 28.9991 175.963 28.9991Z" fill="#B6FFD8"/>
<path d="M175.962 29.2784C175.353 29.2784 174.743 29.1853 174.18 28.9526C171.789 27.9749 170.616 25.2748 171.601 22.8541C172.305 21.0851 174.04 19.9678 175.962 19.9678C176.572 19.9678 177.182 20.0609 177.744 20.2936C178.917 20.7592 179.808 21.6437 180.324 22.8075C180.793 23.9714 180.839 25.2283 180.324 26.3921C179.62 28.1146 177.885 29.2784 175.962 29.2784ZM175.962 20.5264C174.274 20.5264 172.82 21.504 172.164 23.0403C171.32 25.0886 172.305 27.4628 174.415 28.3474C174.931 28.5336 175.447 28.6267 175.962 28.6267C177.651 28.6267 179.104 27.6491 179.761 26.1128C180.183 25.0886 180.183 24.0179 179.761 22.9937C179.339 22.0161 178.542 21.2247 177.557 20.8057C177.041 20.6661 176.525 20.5264 175.962 20.5264Z" fill="#74B4C5"/>
<path d="M175.964 27.5089C177.57 27.5089 178.872 26.2167 178.872 24.6226C178.872 23.0286 177.57 21.7363 175.964 21.7363C174.358 21.7363 173.057 23.0286 173.057 24.6226C173.057 26.2167 174.358 27.5089 175.964 27.5089Z" fill="#6D5D8E"/>
<path opacity="0.2" d="M178.59 25.7874C177.887 25.834 177.136 25.9271 176.808 25.5546C176.105 24.8098 177.887 24.2046 177.371 23.227C176.761 22.2959 174.604 22.9011 174.604 22.0166C174.041 22.2959 173.619 22.7615 173.385 23.3201C173.948 23.5529 174.698 23.5529 174.979 23.9253C175.87 24.6236 174.229 26.6719 176.105 26.8581C176.574 26.8116 177.23 26.6719 177.84 26.765C178.168 26.5323 178.449 26.1598 178.59 25.7874Z" fill="white"/>
<path d="M171.321 42.0807C174.714 42.0807 177.464 39.3504 177.464 35.9823C177.464 32.6142 174.714 29.8838 171.321 29.8838C167.928 29.8838 165.178 32.6142 165.178 35.9823C165.178 39.3504 167.928 42.0807 171.321 42.0807Z" fill="#B6FFD8"/>
<path d="M171.321 42.3598C170.477 42.3598 169.679 42.2201 168.882 41.8942C165.6 40.5442 164.005 36.8199 165.365 33.5612C166.35 31.1404 168.695 29.5576 171.321 29.5576C172.165 29.5576 172.962 29.6973 173.759 30.0231C175.354 30.6749 176.573 31.8853 177.276 33.4681C177.933 35.0509 177.933 36.7734 177.323 38.3562C176.292 40.777 173.947 42.3598 171.321 42.3598ZM171.321 30.1628C168.929 30.1628 166.819 31.5594 165.928 33.7474C164.709 36.6803 166.162 40.0787 169.117 41.289C169.82 41.5684 170.57 41.708 171.321 41.708C173.712 41.708 175.823 40.3114 176.714 38.1234C177.323 36.6803 177.276 35.144 176.667 33.7009C176.057 32.2577 174.932 31.187 173.478 30.5818C172.821 30.349 172.071 30.1628 171.321 30.1628Z" fill="#74B4C5"/>
<path d="M171.32 40.1716C173.651 40.1716 175.541 38.2957 175.541 35.9818C175.541 33.6678 173.651 31.792 171.32 31.792C168.989 31.792 167.1 33.6678 167.1 35.9818C167.1 38.2957 168.989 40.1716 171.32 40.1716Z" fill="#6D5D8E"/>
<path opacity="0.2" d="M175.072 37.8908C174.415 38.0304 173.759 38.2632 173.243 38.1235C171.461 37.658 174.462 36.0286 173.384 34.7717C172.352 33.7475 171.039 35.6562 169.679 35.0976C168.553 34.6786 170.382 33.5148 170.242 32.7234C170.289 32.444 170.007 32.2113 169.679 32.1182C168.929 32.444 168.272 32.9561 167.803 33.6544C167.944 33.7475 168.038 33.7941 168.131 33.7941C168.507 34.5389 167.662 35.5631 167.803 36.3545C168.131 36.9131 168.835 37.3787 169.585 37.0063C170.335 36.6338 171.133 35.47 171.648 35.9821C172.493 37.0528 169.866 37.5649 170.757 38.8684C171.555 39.7063 173.196 38.9615 174.321 38.8684C174.697 38.5425 174.884 38.2166 175.072 37.8908Z" fill="white"/>
<path d="M179.247 18.1991C179.92 18.1991 180.466 17.6572 180.466 16.9887C180.466 16.3202 179.92 15.7783 179.247 15.7783C178.573 15.7783 178.027 16.3202 178.027 16.9887C178.027 17.6572 178.573 18.1991 179.247 18.1991Z" fill="#74B4C5"/>
<path d="M170.992 32.7235C171.179 32.0718 172.539 32.4908 173.477 33.3753C174.368 34.2598 174.603 35.7029 173.571 35.6098C173.243 35.5633 173.43 34.9115 172.539 34.1201C171.555 33.1891 170.804 33.3287 170.992 32.7235Z" fill="#DACCC2"/>
<path d="M175.682 22.6682C175.776 22.1562 176.901 22.4355 177.605 23.0872C178.355 23.739 178.59 24.8562 177.792 24.8097C177.511 24.8097 177.652 24.2976 176.901 23.6924C176.151 23.0407 175.588 23.1803 175.682 22.6682Z" fill="#DACCC2"/>
<path d="M183.325 9.02775C184.724 9.02775 185.858 7.90225 185.858 6.51388C185.858 5.1255 184.724 4 183.325 4C181.927 4 180.793 5.1255 180.793 6.51388C180.793 7.90225 181.927 9.02775 183.325 9.02775Z" fill="#8DE3E0"/>
<path opacity="0.3" d="M183.561 7.86423C181.544 7.53836 181.263 5.62967 182.388 4.18652C181.779 4.41929 181.263 4.93138 180.982 5.58312C180.466 6.88661 181.075 8.37632 182.388 8.8884C183.701 9.40049 185.202 8.7953 185.718 7.49181C185.765 7.30559 185.859 7.16593 185.859 6.97972C185.343 7.49181 184.405 7.91078 183.561 7.86423Z" fill="#4CC7FF"/>
</g>
<path d="M222.499 40.5L218.959 35.55L215.299 40.5H210.199L216.409 32.37L210.409 24.36H215.659L219.079 29.07L222.589 24.36H227.569L221.569 32.25L227.809 40.5H222.499Z" fill="#0E80A4"/>
<path d="M252.934 13.9V47.5H245.158V20.14H238.438V13.9H252.934Z" fill="#0E80A4"/>
<path d="M268.881 24.45H283.161V28.11H268.881V24.45ZM268.881 31.89H283.161V35.55H268.881V31.89Z" fill="#0E80A4"/>
<defs>
<clipPath id="clip0_7_20742">
<rect width="37" height="52" fill="white" transform="translate(12 4)"/>
</clipPath>
<clipPath id="clip1_7_20742">
<rect width="37" height="52" fill="white" transform="translate(82 4)"/>
</clipPath>
<clipPath id="clip2_7_20742">
<rect width="37" height="52" fill="white" transform="translate(152 4)"/>
</clipPath>
</defs>
</svg>
