<svg width="215" height="60" viewBox="0 0 215 60" fill="none" xmlns="http://www.w3.org/2000/svg">
<path d="M7 17.3129L11.434 35.3023H36.8709C36.8709 35.3023 39.7647 18.1518 39.4379 16.2876C37.9911 15.3089 30.9901 14.7963 20.9553 15.2157C12.7408 15.542 7 17.3129 7 17.3129Z" fill="#2CC2C3"/>
<path d="M9.05446 20.4822C8.72775 20.6687 11.9482 32.18 12.555 32.5994C13.1617 32.9723 17.2223 33.0189 17.1289 32.5994C17.0823 32.18 15.262 20.2026 14.9353 19.7366C14.6553 19.2705 9.05446 20.4822 9.05446 20.4822Z" fill="#3DDDD4"/>
<path d="M16.4752 19.5035C16.1018 19.5035 18.2487 32.0401 18.4354 32.4595C18.6221 32.879 24.0362 33.112 24.1296 32.8324C24.3163 32.4129 23.8962 19.5035 23.5695 19.1772C23.2428 18.8976 16.6619 19.5035 16.4752 19.5035Z" fill="#3DDDD4"/>
<path d="M24.829 19.2707C24.3623 19.3639 25.2024 32.5996 25.5758 32.8792C25.9491 33.1122 29.7764 33.019 30.1497 32.8792C30.5231 32.7394 31.2699 20.0164 31.2699 19.5969C31.2699 19.1775 25.1557 19.2241 24.829 19.2707Z" fill="#3DDDD4"/>
<path d="M32.4829 19.5037C32.1562 19.6901 31.6895 32.786 31.6895 32.786C31.6895 32.786 34.9099 32.9724 35.0966 32.786C35.2833 32.5996 36.3101 19.8299 35.8434 19.8299C35.3766 19.8299 32.8096 19.3173 32.4829 19.5037Z" fill="#3DDDD4"/>
<path d="M8.63281 19.0373C8.63281 19.0373 22.4014 14.9827 35.61 17.8256C35.75 18.6179 35.47 18.7111 35.47 18.7111C35.47 18.7111 25.8553 16.6605 9.05287 19.4101L8.63281 19.0373Z" fill="#3DDDD4"/>
<path d="M33.1836 15.8682L35.2372 13.0253L45.412 12L40.0446 14.8429L39.4845 17.4527L33.1836 15.8682Z" fill="#2CC2C3"/>
<path d="M38.0371 18.4777L38.9706 34.8359C38.9706 34.8359 52.7392 34.8825 53.2059 34.7893C53.626 34.6961 54.7928 28.9637 52.5525 23.7906C49.8455 17.5922 41.8643 15.7281 38.0371 18.4777Z" fill="#FF5F59"/>
<path d="M52.5535 23.7911C51.7134 21.8804 50.3599 20.3424 48.773 19.2705C47.5128 19.3171 46.9994 19.2705 47.0927 19.5967C48.1196 23.0455 48.5863 26.0748 48.773 26.401C49.193 27.1001 51.48 26.6806 53.3936 26.4942C53.2536 25.5621 52.9269 24.6766 52.5535 23.7911Z" fill="#FFC2A2"/>
<path d="M40.231 19.6902C39.9042 19.9232 40.2776 26.6343 40.7444 27.1003C41.2111 27.5663 47.0453 26.9605 47.3253 26.541C47.6053 26.1216 46.2518 20.063 45.9251 19.6902C45.6917 19.3173 40.651 19.3639 40.231 19.6902Z" fill="#FFC2A2"/>
<path d="M48.2587 33.1122C47.932 32.3199 46.9985 29.4304 46.5784 27.7061C46.3918 29.6168 46.3918 31.714 46.2984 33.0656C45.2716 33.4384 41.351 33.8113 38.9707 33.6714L39.0174 34.8366C39.0174 34.8366 52.786 34.8832 53.2527 34.7899C53.3927 34.7433 53.6261 34.1375 53.7661 33.1122C51.9459 33.1588 49.4255 33.2986 48.2587 33.1122Z" fill="#F33759"/>
<path d="M11.7142 40.2891L11.5742 34.7432H53.3935L51.0131 39.0308C51.0131 39.0308 49.6129 39.4502 47.5593 39.1706C47.0926 37.3064 45.0856 35.2558 40.9784 35.349C36.8245 35.4888 34.9109 38.891 34.9109 38.891L24.036 39.124C24.036 39.124 22.7758 35.2558 17.8284 35.4422C13.2545 35.582 11.7142 40.2891 11.7142 40.2891Z" fill="#FF5F59"/>
<path d="M52.7396 25.0962C52.5063 24.0709 50.9194 23.7913 51.1994 22.9058C51.2927 22.766 51.6661 22.7194 51.8995 22.4864C51.5261 21.8805 51.0594 21.3212 50.5927 20.8086C50.5927 20.9484 50.546 21.0416 50.406 21.1814C49.7059 21.5543 48.3057 21.6475 48.9124 22.6728C49.2858 23.3718 50.7327 23.9777 50.2659 25.0496C50.0326 25.7021 49.4258 25.9817 48.7724 26.2613C48.7724 26.3079 48.8191 26.3545 48.8191 26.3545C49.1925 26.9604 50.7793 26.774 52.4596 26.541C52.7396 26.1681 52.8796 25.7021 52.7396 25.0962Z" fill="#FFE5BE"/>
<path d="M43.8247 23.372C42.9846 22.7661 44.3381 20.4825 44.1047 19.4572C42.5178 19.4106 40.5109 19.5038 40.2775 19.6902C40.1375 19.7834 40.1375 20.7621 40.1842 21.9738C41.351 21.9272 42.7979 20.9019 42.1444 22.5331C41.3043 24.7235 42.6112 25.6556 43.1246 25.2828C43.9647 24.7701 44.7581 24.1176 45.1315 24.9565C45.5049 25.6556 45.2249 26.3547 44.9915 27.0537C46.205 26.9139 47.2318 26.6809 47.3719 26.5411C47.5119 26.3547 47.2785 25.0031 46.9985 23.5118C46.345 23.3254 44.7581 23.9778 43.8247 23.372Z" fill="#FFE5BE"/>
<path d="M50.1722 27.2397C49.6121 27.2397 48.772 27.1931 48.4453 26.6338C48.3519 26.4474 48.2586 26.0746 48.0252 24.956C47.7452 23.6977 47.3251 21.7869 46.7184 19.7363C46.625 19.5033 46.7184 19.3169 46.8117 19.2237C47.0451 18.8975 47.4185 18.8975 48.4453 18.8975H48.912L49.052 18.9907C50.7789 20.2024 52.1791 21.8335 52.9726 23.6977C53.346 24.5366 53.626 25.4687 53.8594 26.4474L53.9527 26.9134C53.9527 26.9134 52.9726 27.0533 52.6925 27.0533C51.8524 27.0999 50.919 27.2397 50.1722 27.2397ZM49.192 26.1678C49.192 26.1678 49.3321 26.3542 50.1722 26.3542C50.8723 26.3542 51.7591 26.261 52.5992 26.1212C52.6925 26.1212 52.7859 26.0746 52.8792 26.0746C52.6925 25.3289 52.4592 24.6298 52.1325 23.9774C51.3857 22.2996 50.1722 20.8082 48.632 19.7363H48.4453C48.1652 19.7363 47.8385 19.7363 47.6051 19.7829C48.1652 21.7403 48.5853 23.5579 48.8187 24.7696C49.0053 25.3755 49.1454 26.028 49.192 26.1678Z" fill="#E84B52"/>
<path d="M41.9575 27.706C40.9306 27.706 40.6506 27.6128 40.4639 27.4264C39.8572 26.8205 39.6238 21.4144 39.7171 20.2027C39.7638 19.7366 39.8105 19.5036 39.9972 19.3172C40.3706 19.0375 42.0041 18.9443 43.311 18.9443C46.018 18.9443 46.2514 19.224 46.3914 19.4104C46.6248 19.7366 48.2584 26.0748 47.7916 26.7739C47.2782 27.473 42.7042 27.706 41.9575 27.706ZM41.0707 26.7739C41.164 26.7739 41.3974 26.8205 41.9575 26.8205C43.731 26.8205 46.2981 26.4477 46.9515 26.2612C46.9515 25.2826 45.9714 20.8551 45.6446 20.0162C45.4113 19.9696 44.6178 19.8764 43.2643 19.8764C41.8641 19.8764 40.9306 19.9696 40.5573 20.0162C40.4639 21.0415 40.7439 25.935 41.0707 26.7739Z" fill="#E84B52"/>
<path d="M17.9208 46.6733C21.2976 46.6733 24.035 43.9399 24.035 40.5681C24.035 37.1963 21.2976 34.4629 17.9208 34.4629C14.5441 34.4629 11.8066 37.1963 11.8066 40.5681C11.8066 43.9399 14.5441 46.6733 17.9208 46.6733Z" fill="#C03D5B"/>
<path d="M17.9214 46.9996C17.7347 46.9996 17.5947 46.8598 17.5947 46.6733C17.5947 46.4869 17.7347 46.3471 17.9214 46.3471C18.5281 46.3471 19.1349 46.2539 19.695 46.0675C19.8817 46.0209 20.0684 46.1141 20.115 46.3005C20.1617 46.4869 20.0684 46.6733 19.8817 46.7199C19.2749 46.8598 18.6215 46.953 17.9214 46.9996ZM16.0545 46.6733C16.0078 46.6733 16.0078 46.6733 15.9611 46.6733C15.3077 46.4869 14.7009 46.1607 14.1875 45.7412C14.0475 45.648 14.0008 45.415 14.0942 45.2752C14.1875 45.1354 14.4209 45.0888 14.5609 45.182C15.0743 45.5548 15.5877 45.8345 16.1478 46.0209C16.3345 46.0675 16.4278 46.2539 16.3812 46.4403C16.3345 46.5801 16.1945 46.6733 16.0545 46.6733ZM21.5152 45.8345C21.4219 45.8345 21.3285 45.7879 21.2352 45.6946C21.1418 45.5548 21.1418 45.3218 21.3285 45.2286C21.7953 44.8558 22.262 44.4363 22.5887 43.9703C22.6821 43.8305 22.9154 43.7839 23.0554 43.8771C23.1955 43.9703 23.2421 44.2033 23.1488 44.3431C22.7287 44.9024 22.262 45.3684 21.7486 45.7412C21.6552 45.7879 21.5619 45.8345 21.5152 45.8345ZM12.974 44.4829C12.8807 44.4829 12.7873 44.4363 12.694 44.3431C12.2739 43.7839 11.9939 43.178 11.7605 42.5721C11.7138 42.3857 11.8072 42.1993 11.9939 42.1527C12.1806 42.1061 12.3673 42.1993 12.4139 42.3857C12.6006 42.945 12.8807 43.5042 13.2541 43.9703C13.3474 44.1101 13.3474 44.3431 13.1607 44.4363C13.114 44.4363 13.0674 44.4829 12.974 44.4829ZM23.7089 42.7586C23.6622 42.7586 23.6622 42.7586 23.6155 42.7586C23.4288 42.712 23.3355 42.5255 23.3822 42.3391C23.5689 41.7799 23.6622 41.174 23.6622 40.5681V40.5215C23.6622 40.3351 23.8022 40.1953 23.9889 40.1953C24.1756 40.1953 24.3156 40.3351 24.3156 40.5215V40.5681C24.3156 41.2672 24.2223 41.9197 23.9889 42.5721C23.9889 42.6653 23.8489 42.7586 23.7089 42.7586ZM11.8072 40.8944C11.6205 40.8944 11.4805 40.7546 11.4805 40.5681C11.4805 39.9157 11.5738 39.2166 11.8072 38.6108C11.8539 38.4243 12.0405 38.3311 12.2272 38.3777C12.4139 38.4243 12.5073 38.6108 12.4606 38.7972C12.2272 39.3564 12.1339 39.9623 12.1339 40.5681C12.1339 40.7546 11.9939 40.8944 11.8072 40.8944ZM23.7089 38.9836C23.5689 38.9836 23.4288 38.8904 23.3822 38.7506C23.1955 38.1913 22.9154 37.6321 22.542 37.166C22.4487 37.0262 22.4487 36.7932 22.6354 36.7C22.7754 36.6068 23.0088 36.6068 23.1021 36.7932C23.5222 37.3524 23.8022 37.9583 24.0356 38.5641C24.0823 38.7506 23.9889 38.937 23.8022 38.9836C23.8022 38.9836 23.7555 38.9836 23.7089 38.9836ZM12.974 37.3058C12.9273 37.3058 12.834 37.3058 12.7873 37.2592C12.6473 37.166 12.6006 36.933 12.694 36.7932C13.0674 36.2339 13.5808 35.7679 14.0942 35.3484C14.2342 35.2552 14.4676 35.2552 14.5609 35.4416C14.6543 35.5815 14.6543 35.8145 14.4676 35.9077C14.0008 36.2805 13.5341 36.7 13.2074 37.166C13.2074 37.2592 13.0674 37.3058 12.974 37.3058ZM21.4686 35.9543C21.4219 35.9543 21.3285 35.9543 21.2819 35.9077C20.7685 35.5349 20.255 35.3018 19.695 35.1154C19.5083 35.0688 19.4149 34.8824 19.4616 34.696C19.5083 34.5096 19.695 34.4163 19.8817 34.463C20.5351 34.6494 21.1418 34.9756 21.6552 35.3484C21.7953 35.4416 21.8419 35.6747 21.7486 35.8145C21.7019 35.9077 21.6086 35.9543 21.4686 35.9543ZM16.0078 35.1154C15.8678 35.1154 15.7277 35.0222 15.6811 34.8824C15.6344 34.696 15.7277 34.5096 15.9144 34.463C16.5679 34.2765 17.2213 34.1367 17.9214 34.1367C18.1081 34.1367 18.2481 34.2765 18.2481 34.463C18.2481 34.6494 18.1081 34.7892 17.9214 34.7892C17.3146 34.7892 16.7079 34.8824 16.1478 35.0688C16.1011 35.1154 16.0545 35.1154 16.0078 35.1154Z" fill="#C03D5B"/>
<path d="M17.9217 43.3177C19.4425 43.3177 20.6754 42.0866 20.6754 40.568C20.6754 39.0494 19.4425 37.8184 17.9217 37.8184C16.4009 37.8184 15.168 39.0494 15.168 40.568C15.168 42.0866 16.4009 43.3177 17.9217 43.3177Z" fill="#D6ABA2"/>
<path d="M17.9214 43.8303C16.1012 43.8303 14.6543 42.3856 14.6543 40.568C14.6543 38.7504 16.1012 37.3057 17.9214 37.3057C19.7417 37.3057 21.1886 38.7504 21.1886 40.568C21.1886 42.339 19.7417 43.8303 17.9214 43.8303ZM17.9214 38.2844C16.6612 38.2844 15.6344 39.3097 15.6344 40.568C15.6344 41.8263 16.6612 42.8516 17.9214 42.8516C19.1816 42.8516 20.2084 41.8263 20.2084 40.568C20.2084 39.3097 19.1816 38.2844 17.9214 38.2844Z" fill="#903240"/>
<path d="M41.2585 46.6278C44.6611 46.6278 47.4194 43.8736 47.4194 40.476C47.4194 37.0785 44.6611 34.3242 41.2585 34.3242C37.856 34.3242 35.0977 37.0785 35.0977 40.476C35.0977 43.8736 37.856 46.6278 41.2585 46.6278Z" fill="#C03D5B"/>
<path d="M41.2591 46.9538C41.0724 46.9538 40.9324 46.814 40.9324 46.6276C40.9324 46.4412 41.0724 46.3014 41.2591 46.3014C41.8658 46.3014 42.4726 46.2082 43.0793 46.0217C43.266 45.9751 43.4527 46.0684 43.4994 46.2548C43.5461 46.4412 43.4527 46.6276 43.266 46.6742C42.6593 46.8606 41.9592 46.9538 41.2591 46.9538ZM39.3921 46.6742C39.3455 46.6742 39.3455 46.6742 39.2988 46.6742C38.6454 46.4412 38.0386 46.1616 37.4785 45.7421C37.3385 45.6489 37.2918 45.4159 37.3852 45.2761C37.4785 45.1363 37.7119 45.0897 37.8519 45.1829C38.3653 45.5557 38.8787 45.8353 39.4855 46.0217C39.6722 46.0684 39.7655 46.2548 39.7189 46.4412C39.6255 46.581 39.5322 46.6742 39.3921 46.6742ZM44.8996 45.7887C44.8062 45.7887 44.7129 45.7421 44.6195 45.6489C44.5262 45.5091 44.5262 45.2761 44.7129 45.1829C45.2263 44.81 45.6464 44.3906 46.0197 43.8779C46.1131 43.7381 46.3465 43.6915 46.4865 43.7847C46.6265 43.8779 46.6732 44.111 46.5798 44.2508C46.1598 44.81 45.693 45.2761 45.133 45.6955C45.0396 45.7421 44.9929 45.7887 44.8996 45.7887ZM36.265 44.4372C36.1717 44.4372 36.0783 44.3906 35.985 44.2974C35.5649 43.7381 35.2849 43.1323 35.0515 42.4798C35.0049 42.2934 35.0982 42.107 35.2849 42.0604C35.4716 42.0138 35.6583 42.107 35.705 42.2934C35.8916 42.8526 36.1717 43.4119 36.5451 43.9245C36.6384 44.0644 36.6384 44.2974 36.4517 44.3906C36.405 44.3906 36.3584 44.4372 36.265 44.4372ZM47.1399 42.7128C47.0932 42.7128 47.0466 42.7128 47.0466 42.7128C46.8599 42.6662 46.7665 42.4798 46.8132 42.2934C46.9999 41.7341 47.0932 41.1283 47.0932 40.4758V40.4292C47.0932 40.2428 47.2333 40.103 47.4199 40.103C47.6066 40.103 47.7467 40.2428 47.7467 40.4292V40.4758C47.7467 41.1749 47.6533 41.8273 47.4199 42.4798C47.4199 42.6196 47.2799 42.7128 47.1399 42.7128ZM35.0982 40.802C34.9115 40.802 34.7715 40.6622 34.7715 40.4758C34.7715 39.7767 34.8648 39.1243 35.0982 38.4718C35.1449 38.2854 35.3316 38.1922 35.5183 38.2388C35.7049 38.2854 35.7983 38.4718 35.7516 38.6582C35.5649 39.2175 35.4716 39.8233 35.4716 40.4292C35.4249 40.6622 35.2849 40.802 35.0982 40.802ZM47.1399 38.8446C46.9999 38.8446 46.8599 38.7514 46.8132 38.6116C46.6265 38.0524 46.3465 37.4931 45.9731 36.9805C45.8797 36.8407 45.8797 36.6076 46.0664 36.5144C46.2064 36.4212 46.4398 36.4212 46.5332 36.6076C46.9532 37.1669 47.2333 37.7727 47.4666 38.4252C47.5133 38.6116 47.4199 38.798 47.2333 38.8446C47.2333 38.8446 47.1866 38.8446 47.1399 38.8446ZM36.265 37.1669C36.2184 37.1669 36.125 37.1669 36.0783 37.1203C35.9383 37.0271 35.8916 36.794 35.985 36.6542C36.405 36.095 36.8718 35.6289 37.4319 35.2095C37.5719 35.1163 37.8052 35.1163 37.8986 35.3027C37.9919 35.4425 37.9919 35.6755 37.8052 35.7687C37.2918 36.1416 36.8718 36.561 36.4984 37.0737C36.4517 37.1203 36.3584 37.1669 36.265 37.1669ZM44.8996 35.7687C44.8529 35.7687 44.7596 35.7687 44.7129 35.7221C44.1995 35.3493 43.6861 35.0697 43.0793 34.8833C42.8926 34.8367 42.7993 34.6502 42.846 34.4638C42.8926 34.2774 43.0793 34.1842 43.266 34.2308C43.9194 34.4172 44.5262 34.7434 45.0863 35.1629C45.2263 35.2561 45.273 35.4891 45.1796 35.6289C45.0863 35.7221 44.9929 35.7687 44.8996 35.7687ZM39.3455 34.9299C39.2054 34.9299 39.0654 34.8367 39.0188 34.6968C38.9721 34.5104 39.0654 34.324 39.2521 34.2774C39.9055 34.0444 40.559 33.9512 41.2591 33.9512C41.4458 33.9512 41.5858 34.091 41.5858 34.2774C41.5858 34.4638 41.4458 34.6036 41.2591 34.6036C40.6523 34.6036 40.0456 34.6968 39.4388 34.8833C39.4388 34.9299 39.3921 34.9299 39.3455 34.9299Z" fill="#C03D5B"/>
<path d="M41.2594 43.2722C42.806 43.2722 44.0598 42.0203 44.0598 40.476C44.0598 38.9316 42.806 37.6797 41.2594 37.6797C39.7128 37.6797 38.459 38.9316 38.459 40.476C38.459 42.0203 39.7128 43.2722 41.2594 43.2722Z" fill="#D6ABA2"/>
<path d="M41.2591 43.7848C39.4389 43.7848 37.9453 42.2935 37.9453 40.4759C37.9453 38.6583 39.4389 37.167 41.2591 37.167C43.0794 37.167 44.5729 38.6583 44.5729 40.4759C44.5729 42.2935 43.126 43.7848 41.2591 43.7848ZM41.2591 38.1457C39.9989 38.1457 38.9721 39.171 38.9721 40.4293C38.9721 41.6876 39.9989 42.7129 41.2591 42.7129C42.5193 42.7129 43.5461 41.6876 43.5461 40.4293C43.5928 39.171 42.5193 38.1457 41.2591 38.1457Z" fill="#903240"/>
<path d="M77 17.3129L81.434 35.3023H106.871C106.871 35.3023 109.765 18.1518 109.438 16.2876C107.991 15.3089 100.99 14.7963 90.9553 15.2157C82.7408 15.542 77 17.3129 77 17.3129Z" fill="#2CC2C3"/>
<path d="M79.0545 20.4822C78.7277 20.6687 81.9482 32.18 82.555 32.5994C83.1617 32.9723 87.2223 33.0189 87.1289 32.5994C87.0823 32.18 85.262 20.2026 84.9353 19.7366C84.6553 19.2705 79.0545 20.4822 79.0545 20.4822Z" fill="#3DDDD4"/>
<path d="M86.4752 19.5035C86.1018 19.5035 88.2487 32.0401 88.4354 32.4595C88.6221 32.879 94.0362 33.112 94.1296 32.8324C94.3163 32.4129 93.8962 19.5035 93.5695 19.1772C93.2428 18.8976 86.6619 19.5035 86.4752 19.5035Z" fill="#3DDDD4"/>
<path d="M94.829 19.2707C94.3623 19.3639 95.2024 32.5996 95.5758 32.8792C95.9491 33.1122 99.7764 33.019 100.15 32.8792C100.523 32.7394 101.27 20.0164 101.27 19.5969C101.27 19.1775 95.1557 19.2241 94.829 19.2707Z" fill="#3DDDD4"/>
<path d="M102.483 19.5037C102.156 19.6901 101.689 32.786 101.689 32.786C101.689 32.786 104.91 32.9724 105.097 32.786C105.283 32.5996 106.31 19.8299 105.843 19.8299C105.377 19.8299 102.81 19.3173 102.483 19.5037Z" fill="#3DDDD4"/>
<path d="M78.6328 19.0373C78.6328 19.0373 92.4014 14.9827 105.61 17.8256C105.75 18.6179 105.47 18.7111 105.47 18.7111C105.47 18.7111 95.8553 16.6605 79.0529 19.4101L78.6328 19.0373Z" fill="#3DDDD4"/>
<path d="M103.184 15.8682L105.237 13.0253L115.412 12L110.045 14.8429L109.484 17.4527L103.184 15.8682Z" fill="#2CC2C3"/>
<path d="M108.037 18.4777L108.971 34.8359C108.971 34.8359 122.739 34.8825 123.206 34.7893C123.626 34.6961 124.793 28.9637 122.553 23.7906C119.845 17.5922 111.864 15.7281 108.037 18.4777Z" fill="#FF5F59"/>
<path d="M122.554 23.7911C121.713 21.8804 120.36 20.3424 118.773 19.2705C117.513 19.3171 116.999 19.2705 117.093 19.5967C118.12 23.0455 118.586 26.0748 118.773 26.401C119.193 27.1001 121.48 26.6806 123.394 26.4942C123.254 25.5621 122.927 24.6766 122.554 23.7911Z" fill="#FFC2A2"/>
<path d="M110.231 19.6902C109.904 19.9232 110.278 26.6343 110.744 27.1003C111.211 27.5663 117.045 26.9605 117.325 26.541C117.605 26.1216 116.252 20.063 115.925 19.6902C115.692 19.3173 110.651 19.3639 110.231 19.6902Z" fill="#FFC2A2"/>
<path d="M118.259 33.1122C117.932 32.3199 116.999 29.4304 116.578 27.7061C116.392 29.6168 116.392 31.714 116.298 33.0656C115.272 33.4384 111.351 33.8113 108.971 33.6714L109.017 34.8366C109.017 34.8366 122.786 34.8832 123.253 34.7899C123.393 34.7433 123.626 34.1375 123.766 33.1122C121.946 33.1588 119.426 33.2986 118.259 33.1122Z" fill="#F33759"/>
<path d="M81.7142 40.2891L81.5742 34.7432H123.393L121.013 39.0308C121.013 39.0308 119.613 39.4502 117.559 39.1706C117.093 37.3064 115.086 35.2558 110.978 35.349C106.824 35.4888 104.911 38.891 104.911 38.891L94.036 39.124C94.036 39.124 92.7758 35.2558 87.8284 35.4422C83.2545 35.582 81.7142 40.2891 81.7142 40.2891Z" fill="#FF5F59"/>
<path d="M122.74 25.0962C122.506 24.0709 120.919 23.7913 121.199 22.9058C121.293 22.766 121.666 22.7194 121.899 22.4864C121.526 21.8805 121.059 21.3212 120.593 20.8086C120.593 20.9484 120.546 21.0416 120.406 21.1814C119.706 21.5543 118.306 21.6475 118.912 22.6728C119.286 23.3718 120.733 23.9777 120.266 25.0496C120.033 25.7021 119.426 25.9817 118.772 26.2613C118.772 26.3079 118.819 26.3545 118.819 26.3545C119.192 26.9604 120.779 26.774 122.46 26.541C122.74 26.1681 122.88 25.7021 122.74 25.0962Z" fill="#FFE5BE"/>
<path d="M113.825 23.372C112.985 22.7661 114.338 20.4825 114.105 19.4572C112.518 19.4106 110.511 19.5038 110.278 19.6902C110.137 19.7834 110.137 20.7621 110.184 21.9738C111.351 21.9272 112.798 20.9019 112.144 22.5331C111.304 24.7235 112.611 25.6556 113.125 25.2828C113.965 24.7701 114.758 24.1176 115.132 24.9565C115.505 25.6556 115.225 26.3547 114.992 27.0537C116.205 26.9139 117.232 26.6809 117.372 26.5411C117.512 26.3547 117.279 25.0031 116.998 23.5118C116.345 23.3254 114.758 23.9778 113.825 23.372Z" fill="#FFE5BE"/>
<path d="M120.172 27.2397C119.612 27.2397 118.772 27.1931 118.445 26.6338C118.352 26.4474 118.259 26.0746 118.025 24.956C117.745 23.6977 117.325 21.7869 116.718 19.7363C116.625 19.5033 116.718 19.3169 116.812 19.2237C117.045 18.8975 117.418 18.8975 118.445 18.8975H118.912L119.052 18.9907C120.779 20.2024 122.179 21.8335 122.973 23.6977C123.346 24.5366 123.626 25.4687 123.859 26.4474L123.953 26.9134C123.953 26.9134 122.973 27.0533 122.693 27.0533C121.852 27.0999 120.919 27.2397 120.172 27.2397ZM119.192 26.1678C119.192 26.1678 119.332 26.3542 120.172 26.3542C120.872 26.3542 121.759 26.261 122.599 26.1212C122.693 26.1212 122.786 26.0746 122.879 26.0746C122.693 25.3289 122.459 24.6298 122.132 23.9774C121.386 22.2996 120.172 20.8082 118.632 19.7363H118.445C118.165 19.7363 117.839 19.7363 117.605 19.7829C118.165 21.7403 118.585 23.5579 118.819 24.7696C119.005 25.3755 119.145 26.028 119.192 26.1678Z" fill="#E84B52"/>
<path d="M111.957 27.706C110.931 27.706 110.651 27.6128 110.464 27.4264C109.857 26.8205 109.624 21.4144 109.717 20.2027C109.764 19.7366 109.81 19.5036 109.997 19.3172C110.371 19.0375 112.004 18.9443 113.311 18.9443C116.018 18.9443 116.251 19.224 116.391 19.4104C116.625 19.7366 118.258 26.0748 117.792 26.7739C117.278 27.473 112.704 27.706 111.957 27.706ZM111.071 26.7739C111.164 26.7739 111.397 26.8205 111.957 26.8205C113.731 26.8205 116.298 26.4477 116.951 26.2612C116.951 25.2826 115.971 20.8551 115.645 20.0162C115.411 19.9696 114.618 19.8764 113.264 19.8764C111.864 19.8764 110.931 19.9696 110.557 20.0162C110.464 21.0415 110.744 25.935 111.071 26.7739Z" fill="#E84B52"/>
<path d="M87.9208 46.6733C91.2976 46.6733 94.035 43.9399 94.035 40.5681C94.035 37.1963 91.2976 34.4629 87.9208 34.4629C84.5441 34.4629 81.8066 37.1963 81.8066 40.5681C81.8066 43.9399 84.5441 46.6733 87.9208 46.6733Z" fill="#C03D5B"/>
<path d="M87.9214 46.9996C87.7347 46.9996 87.5947 46.8598 87.5947 46.6733C87.5947 46.4869 87.7347 46.3471 87.9214 46.3471C88.5281 46.3471 89.1349 46.2539 89.695 46.0675C89.8817 46.0209 90.0684 46.1141 90.115 46.3005C90.1617 46.4869 90.0684 46.6733 89.8817 46.7199C89.2749 46.8598 88.6215 46.953 87.9214 46.9996ZM86.0545 46.6733C86.0078 46.6733 86.0078 46.6733 85.9611 46.6733C85.3077 46.4869 84.7009 46.1607 84.1875 45.7412C84.0475 45.648 84.0008 45.415 84.0942 45.2752C84.1875 45.1354 84.4209 45.0888 84.5609 45.182C85.0743 45.5548 85.5877 45.8345 86.1478 46.0209C86.3345 46.0675 86.4278 46.2539 86.3812 46.4403C86.3345 46.5801 86.1945 46.6733 86.0545 46.6733ZM91.5152 45.8345C91.4219 45.8345 91.3285 45.7879 91.2352 45.6946C91.1418 45.5548 91.1418 45.3218 91.3285 45.2286C91.7953 44.8558 92.262 44.4363 92.5887 43.9703C92.6821 43.8305 92.9154 43.7839 93.0554 43.8771C93.1955 43.9703 93.2421 44.2033 93.1488 44.3431C92.7287 44.9024 92.262 45.3684 91.7486 45.7412C91.6552 45.7879 91.5619 45.8345 91.5152 45.8345ZM82.974 44.4829C82.8807 44.4829 82.7873 44.4363 82.694 44.3431C82.2739 43.7839 81.9939 43.178 81.7605 42.5721C81.7138 42.3857 81.8072 42.1993 81.9939 42.1527C82.1806 42.1061 82.3673 42.1993 82.4139 42.3857C82.6006 42.945 82.8807 43.5042 83.2541 43.9703C83.3474 44.1101 83.3474 44.3431 83.1607 44.4363C83.114 44.4363 83.0674 44.4829 82.974 44.4829ZM93.7089 42.7586C93.6622 42.7586 93.6622 42.7586 93.6155 42.7586C93.4288 42.712 93.3355 42.5255 93.3822 42.3391C93.5689 41.7799 93.6622 41.174 93.6622 40.5681V40.5215C93.6622 40.3351 93.8022 40.1953 93.9889 40.1953C94.1756 40.1953 94.3156 40.3351 94.3156 40.5215V40.5681C94.3156 41.2672 94.2223 41.9197 93.9889 42.5721C93.9889 42.6653 93.8489 42.7586 93.7089 42.7586ZM81.8072 40.8944C81.6205 40.8944 81.4805 40.7546 81.4805 40.5681C81.4805 39.9157 81.5738 39.2166 81.8072 38.6108C81.8539 38.4243 82.0405 38.3311 82.2272 38.3777C82.4139 38.4243 82.5073 38.6108 82.4606 38.7972C82.2272 39.3564 82.1339 39.9623 82.1339 40.5681C82.1339 40.7546 81.9939 40.8944 81.8072 40.8944ZM93.7089 38.9836C93.5689 38.9836 93.4288 38.8904 93.3822 38.7506C93.1955 38.1913 92.9154 37.6321 92.542 37.166C92.4487 37.0262 92.4487 36.7932 92.6354 36.7C92.7754 36.6068 93.0088 36.6068 93.1021 36.7932C93.5222 37.3524 93.8022 37.9583 94.0356 38.5641C94.0823 38.7506 93.9889 38.937 93.8022 38.9836C93.8022 38.9836 93.7555 38.9836 93.7089 38.9836ZM82.974 37.3058C82.9273 37.3058 82.834 37.3058 82.7873 37.2592C82.6473 37.166 82.6006 36.933 82.694 36.7932C83.0674 36.2339 83.5808 35.7679 84.0942 35.3484C84.2342 35.2552 84.4676 35.2552 84.5609 35.4416C84.6543 35.5815 84.6543 35.8145 84.4676 35.9077C84.0008 36.2805 83.5341 36.7 83.2074 37.166C83.2074 37.2592 83.0674 37.3058 82.974 37.3058ZM91.4686 35.9543C91.4219 35.9543 91.3285 35.9543 91.2819 35.9077C90.7685 35.5349 90.255 35.3018 89.695 35.1154C89.5083 35.0688 89.4149 34.8824 89.4616 34.696C89.5083 34.5096 89.695 34.4163 89.8817 34.463C90.5351 34.6494 91.1418 34.9756 91.6552 35.3484C91.7953 35.4416 91.8419 35.6747 91.7486 35.8145C91.7019 35.9077 91.6086 35.9543 91.4686 35.9543ZM86.0078 35.1154C85.8678 35.1154 85.7277 35.0222 85.6811 34.8824C85.6344 34.696 85.7277 34.5096 85.9144 34.463C86.5679 34.2765 87.2213 34.1367 87.9214 34.1367C88.1081 34.1367 88.2481 34.2765 88.2481 34.463C88.2481 34.6494 88.1081 34.7892 87.9214 34.7892C87.3146 34.7892 86.7079 34.8824 86.1478 35.0688C86.1011 35.1154 86.0545 35.1154 86.0078 35.1154Z" fill="#C03D5B"/>
<path d="M87.9217 43.3177C89.4425 43.3177 90.6754 42.0866 90.6754 40.568C90.6754 39.0494 89.4425 37.8184 87.9217 37.8184C86.4009 37.8184 85.168 39.0494 85.168 40.568C85.168 42.0866 86.4009 43.3177 87.9217 43.3177Z" fill="#D6ABA2"/>
<path d="M87.9214 43.8303C86.1012 43.8303 84.6543 42.3856 84.6543 40.568C84.6543 38.7504 86.1012 37.3057 87.9214 37.3057C89.7417 37.3057 91.1886 38.7504 91.1886 40.568C91.1886 42.339 89.7417 43.8303 87.9214 43.8303ZM87.9214 38.2844C86.6612 38.2844 85.6344 39.3097 85.6344 40.568C85.6344 41.8263 86.6612 42.8516 87.9214 42.8516C89.1816 42.8516 90.2084 41.8263 90.2084 40.568C90.2084 39.3097 89.1816 38.2844 87.9214 38.2844Z" fill="#903240"/>
<path d="M111.259 46.6278C114.661 46.6278 117.419 43.8736 117.419 40.476C117.419 37.0785 114.661 34.3242 111.259 34.3242C107.856 34.3242 105.098 37.0785 105.098 40.476C105.098 43.8736 107.856 46.6278 111.259 46.6278Z" fill="#C03D5B"/>
<path d="M111.259 46.9538C111.072 46.9538 110.932 46.814 110.932 46.6276C110.932 46.4412 111.072 46.3014 111.259 46.3014C111.866 46.3014 112.473 46.2082 113.079 46.0217C113.266 45.9751 113.453 46.0684 113.499 46.2548C113.546 46.4412 113.453 46.6276 113.266 46.6742C112.659 46.8606 111.959 46.9538 111.259 46.9538ZM109.392 46.6742C109.345 46.6742 109.345 46.6742 109.299 46.6742C108.645 46.4412 108.039 46.1616 107.479 45.7421C107.339 45.6489 107.292 45.4159 107.385 45.2761C107.479 45.1363 107.712 45.0897 107.852 45.1829C108.365 45.5557 108.879 45.8353 109.485 46.0217C109.672 46.0684 109.766 46.2548 109.719 46.4412C109.626 46.581 109.532 46.6742 109.392 46.6742ZM114.9 45.7887C114.806 45.7887 114.713 45.7421 114.62 45.6489C114.526 45.5091 114.526 45.2761 114.713 45.1829C115.226 44.81 115.646 44.3906 116.02 43.8779C116.113 43.7381 116.346 43.6915 116.486 43.7847C116.626 43.8779 116.673 44.111 116.58 44.2508C116.16 44.81 115.693 45.2761 115.133 45.6955C115.04 45.7421 114.993 45.7887 114.9 45.7887ZM106.265 44.4372C106.172 44.4372 106.078 44.3906 105.985 44.2974C105.565 43.7381 105.285 43.1323 105.052 42.4798C105.005 42.2934 105.098 42.107 105.285 42.0604C105.472 42.0138 105.658 42.107 105.705 42.2934C105.892 42.8526 106.172 43.4119 106.545 43.9245C106.638 44.0644 106.638 44.2974 106.452 44.3906C106.405 44.3906 106.358 44.4372 106.265 44.4372ZM117.14 42.7128C117.093 42.7128 117.047 42.7128 117.047 42.7128C116.86 42.6662 116.767 42.4798 116.813 42.2934C117 41.7341 117.093 41.1283 117.093 40.4758V40.4292C117.093 40.2428 117.233 40.103 117.42 40.103C117.607 40.103 117.747 40.2428 117.747 40.4292V40.4758C117.747 41.1749 117.653 41.8273 117.42 42.4798C117.42 42.6196 117.28 42.7128 117.14 42.7128ZM105.098 40.802C104.912 40.802 104.771 40.6622 104.771 40.4758C104.771 39.7767 104.865 39.1243 105.098 38.4718C105.145 38.2854 105.332 38.1922 105.518 38.2388C105.705 38.2854 105.798 38.4718 105.752 38.6582C105.565 39.2175 105.472 39.8233 105.472 40.4292C105.425 40.6622 105.285 40.802 105.098 40.802ZM117.14 38.8446C117 38.8446 116.86 38.7514 116.813 38.6116C116.627 38.0524 116.346 37.4931 115.973 36.9805C115.88 36.8407 115.88 36.6076 116.066 36.5144C116.206 36.4212 116.44 36.4212 116.533 36.6076C116.953 37.1669 117.233 37.7727 117.467 38.4252C117.513 38.6116 117.42 38.798 117.233 38.8446C117.233 38.8446 117.187 38.8446 117.14 38.8446ZM106.265 37.1669C106.218 37.1669 106.125 37.1669 106.078 37.1203C105.938 37.0271 105.892 36.794 105.985 36.6542C106.405 36.095 106.872 35.6289 107.432 35.2095C107.572 35.1163 107.805 35.1163 107.899 35.3027C107.992 35.4425 107.992 35.6755 107.805 35.7687C107.292 36.1416 106.872 36.561 106.498 37.0737C106.452 37.1203 106.358 37.1669 106.265 37.1669ZM114.9 35.7687C114.853 35.7687 114.76 35.7687 114.713 35.7221C114.199 35.3493 113.686 35.0697 113.079 34.8833C112.893 34.8367 112.799 34.6502 112.846 34.4638C112.893 34.2774 113.079 34.1842 113.266 34.2308C113.919 34.4172 114.526 34.7434 115.086 35.1629C115.226 35.2561 115.273 35.4891 115.18 35.6289C115.086 35.7221 114.993 35.7687 114.9 35.7687ZM109.345 34.9299C109.205 34.9299 109.065 34.8367 109.019 34.6968C108.972 34.5104 109.065 34.324 109.252 34.2774C109.906 34.0444 110.559 33.9512 111.259 33.9512C111.446 33.9512 111.586 34.091 111.586 34.2774C111.586 34.4638 111.446 34.6036 111.259 34.6036C110.652 34.6036 110.046 34.6968 109.439 34.8833C109.439 34.9299 109.392 34.9299 109.345 34.9299Z" fill="#C03D5B"/>
<path d="M111.259 43.2722C112.806 43.2722 114.06 42.0203 114.06 40.476C114.06 38.9316 112.806 37.6797 111.259 37.6797C109.713 37.6797 108.459 38.9316 108.459 40.476C108.459 42.0203 109.713 43.2722 111.259 43.2722Z" fill="#D6ABA2"/>
<path d="M111.259 43.7848C109.439 43.7848 107.945 42.2935 107.945 40.4759C107.945 38.6583 109.439 37.167 111.259 37.167C113.079 37.167 114.573 38.6583 114.573 40.4759C114.573 42.2935 113.126 43.7848 111.259 43.7848ZM111.259 38.1457C109.999 38.1457 108.972 39.171 108.972 40.4293C108.972 41.6876 109.999 42.7129 111.259 42.7129C112.519 42.7129 113.546 41.6876 113.546 40.4293C113.593 39.171 112.519 38.1457 111.259 38.1457Z" fill="#903240"/>
<path d="M152.499 40.5L148.959 35.55L145.299 40.5H140.199L146.409 32.37L140.409 24.36H145.659L149.079 29.07L152.589 24.36H157.569L151.569 32.25L157.809 40.5H152.499Z" fill="#0E80A4"/>
<path d="M182.934 13.9V47.5H175.158V20.14H168.438V13.9H182.934Z" fill="#0E80A4"/>
<path d="M198.881 24.45H213.161V28.11H198.881V24.45ZM198.881 31.89H213.161V35.55H198.881V31.89Z" fill="#0E80A4"/>
</svg>
