<svg width="300" height="60" viewBox="0 0 300 60" fill="none" xmlns="http://www.w3.org/2000/svg">
<path d="M28.4746 7.1084L28.6112 9.47415L29.4306 9.42776L29.294 6.55176L28.4746 7.1084Z" fill="#60C9B6"/>
<path d="M27.1997 21.3955L27.0176 27.3794L31.0692 26.6373L31.2057 21.3955H27.1997Z" fill="#60C9B6"/>
<path d="M22.8301 42.6401C22.8301 42.6401 23.5585 54.3297 23.695 54.5616C23.8316 54.7936 26.5175 54.7936 26.6085 54.1905C26.7451 53.5875 26.3809 42.1299 26.3809 42.1299L22.8301 42.6401Z" fill="#5BCCAD"/>
<path d="M26.4727 45.8872C26.4727 45.4697 26.4727 45.0986 26.4272 44.7275C25.2891 44.7275 24.06 44.8667 22.9219 44.9595C22.9674 45.3306 22.9674 45.7017 23.0129 46.0728C24.2421 46.0728 25.3346 45.9336 26.4727 45.8872Z" fill="#68EBC1"/>
<path d="M26.6078 49.6914C25.5152 49.6914 24.4682 50.1089 23.3301 49.9233C23.3756 50.3408 23.3756 50.7583 23.4211 51.1758C24.4682 51.1758 25.5607 51.1758 26.6533 51.1758C26.6078 50.7119 26.6078 50.2017 26.6078 49.6914Z" fill="#68EBC1"/>
<path d="M23.1484 47.3721C23.194 47.7432 23.194 48.0679 23.2395 48.439C24.332 48.5317 25.4701 48.3926 26.6082 48.3462C26.6082 47.9751 26.6082 47.604 26.5627 47.2793C25.3791 47.2793 24.2865 47.2793 23.1484 47.3721Z" fill="#68EBC1"/>
<path d="M32.1172 42.7334C32.2538 44.4033 33.1642 53.9591 33.0732 54.5621C32.9366 55.1652 36.3509 55.1652 36.3509 55.1652L36.2143 42.2695L32.1172 42.7334Z" fill="#5BCCAD"/>
<path d="M36.2597 47.5576C35.0305 47.6504 33.7559 47.9287 32.5723 48.0215C32.6178 48.439 32.6633 48.9028 32.7088 49.3203C33.8924 49.0884 35.0761 48.9956 36.3052 48.9028L36.2597 47.5576Z" fill="#68EBC1"/>
<path d="M36.2606 50.8506C35.1225 50.897 33.9844 50.9434 32.8008 51.0361C32.8463 51.4072 32.8463 51.8247 32.8918 52.1494C33.9844 52.103 35.1225 52.0103 36.2606 51.8711V50.8506Z" fill="#68EBC1"/>
<path d="M32.2988 45.0059C32.3444 45.377 32.3899 45.7944 32.3899 46.2119C33.6645 46.0728 34.9392 45.7944 36.2139 45.7017V44.542C34.8937 44.6812 33.619 44.9131 32.2988 45.0059Z" fill="#68EBC1"/>
<path d="M18.46 46.5372L18.369 45.2847C19.3705 45.2383 19.9623 44.7744 20.0989 43.9395C20.2354 43.1509 19.7802 42.084 18.6876 41.6665C17.7316 41.2954 17.0488 41.3882 16.6846 41.8984C16.1383 42.6406 16.2294 43.8931 16.3659 44.125C16.3659 44.125 16.3659 44.0786 16.3204 44.0786L15.6376 45.1455C14.9092 44.6817 14.8181 42.8726 15.4099 41.6201C15.7286 40.9707 16.7301 39.5791 19.1429 40.5068C20.8728 41.1562 21.5556 42.8262 21.3735 44.125C21.1459 45.2383 20.3265 46.4444 18.46 46.5372Z" fill="#46B6A9"/>
<path d="M23.6944 26.8227C23.6033 25.8486 22.101 25.1528 21.2816 26.3589C20.4622 27.5649 19.3241 34.2911 16.5472 40.3678C15.6367 42.3161 21.3727 42.1769 21.3727 42.1769C21.3727 42.1769 23.7854 27.8897 23.6944 26.8227Z" fill="#5BCCAD"/>
<path d="M19.0068 33.7803C18.8702 34.1514 18.7336 34.5225 18.6426 34.94C19.7807 35.5894 21.1008 36.0069 22.421 36.146C22.5121 35.6358 22.6031 35.1255 22.6486 34.6152C21.374 34.5689 20.1449 34.1978 19.0068 33.7803Z" fill="#68EBC1"/>
<path d="M22.7839 33.6875C22.8294 33.3164 22.9204 32.8989 22.966 32.5278C21.7823 32.4815 20.5987 32.3887 19.5517 31.9248C19.4606 32.2959 19.3241 32.7134 19.1875 33.0845C20.3711 33.5484 21.5547 33.7339 22.7839 33.6875Z" fill="#68EBC1"/>
<path d="M21.3733 22.0448C21.3733 22.0448 18.4143 8.26783 29.1578 8.54615C40.4021 8.82448 37.0334 22.0912 37.0334 22.0912C37.0334 22.0912 33.0729 22.6942 29.2034 22.6942C25.1062 22.7406 21.3733 22.0448 21.3733 22.0448Z" fill="#68EBC1"/>
<path opacity="0.3" d="M27.5651 8.63867C18.688 9.70558 21.3739 22.0446 21.3739 22.0446C21.3739 22.0446 22.1933 22.1837 23.4225 22.3229C23.2404 17.4522 23.9232 11.793 27.5651 8.63867Z" fill="#D1F1C4"/>
<path opacity="0.4" d="M25.334 9.24219C19.1884 11.979 21.3735 22.045 21.3735 22.045C21.3735 22.045 21.6011 22.0914 22.0563 22.1378C21.7832 17.6383 22.1474 12.3965 25.334 9.24219Z" fill="white"/>
<path opacity="0.4" d="M31.0703 8.77832C34.3025 12.3037 34.2114 17.7774 33.4375 22.5089C35.4861 22.3234 37.0339 22.0914 37.0339 22.0914C37.0339 22.0914 39.9929 10.4483 31.0703 8.77832Z" fill="#6AB7B3"/>
<path d="M22.5109 25.7097C21.4639 27.0085 20.0527 43.0121 21.0087 43.7079C21.9646 44.4037 37.7613 43.5687 38.6718 43.0121C39.6278 42.409 37.9889 25.9416 37.3971 25.3386C36.8053 24.7355 22.5109 25.7097 22.5109 25.7097Z" fill="#68EBC1"/>
<path opacity="0.4" d="M37.3987 25.3379C37.2621 25.1987 36.5338 25.1523 35.4867 25.1523C35.1225 32.1104 36.1696 38.0944 36.9435 43.3361C37.8539 43.2433 38.4913 43.1042 38.6734 43.0114C39.6294 42.4084 37.9905 25.9409 37.3987 25.3379Z" fill="#6AB7B3"/>
<path d="M26.6547 54.8867L19.3709 55.7217L19.2344 53.4951L26.5637 53.2168L26.6547 54.8867Z" fill="#58C4A1"/>
<path d="M29.7949 55.9995L36.3048 55.1646V53.7266L29.7949 54.1904V55.9995Z" fill="#58C4A1"/>
<path d="M20.6453 13.8802C20.9639 13.6019 32.8001 13.4627 33.8926 13.9266C36.2598 14.9471 36.0322 19.4931 33.8926 19.6322C32.2083 19.725 20.099 19.4003 20.099 19.4003C20.099 19.4003 19.6893 14.808 20.6453 13.8802Z" fill="#58C4A1"/>
<path d="M23.4668 28.6318C23.4668 28.6318 23.6944 39.3937 23.8765 39.6256C24.0586 39.9039 33.4364 39.8112 33.6185 39.4864C33.8006 39.1153 33.2088 27.7969 33.2088 27.7969L23.4668 28.6318Z" fill="#58C4A1"/>
<path d="M22.2849 17.8238C22.1483 17.8238 22.0117 17.6846 22.0117 17.5454C22.0117 16.9888 22.3759 15.8755 23.5595 15.7827C24.7431 15.7363 25.2439 16.8032 25.2894 17.3135C25.2894 17.4527 25.1984 17.5918 25.0618 17.5918C24.9252 17.5918 24.7887 17.499 24.7887 17.3599C24.7431 17.1279 24.47 16.293 23.605 16.3394C22.7401 16.3857 22.558 17.3135 22.558 17.5454C22.558 17.6846 22.4214 17.8238 22.2849 17.8238Z" fill="#487C7F"/>
<path d="M29.841 17.7769H29.7955C29.6589 17.7305 29.5679 17.5914 29.6134 17.4522C29.7955 16.6636 30.3418 15.7823 31.3433 15.6895C32.4359 15.5967 32.9366 16.6173 33.0732 17.1739C33.1187 17.3131 33.0277 17.4522 32.8911 17.4986C32.7545 17.545 32.618 17.4522 32.5724 17.3131C32.5724 17.2667 32.2993 16.1534 31.4343 16.2462C30.5239 16.3389 30.2507 17.3131 30.1597 17.5914C30.0686 17.6842 29.9321 17.7769 29.841 17.7769Z" fill="#487C7F"/>
<path d="M24.4238 29.5591L24.6059 32.1104H26.3813L26.2448 29.4199L24.4238 29.5591Z" fill="#E6EB99"/>
<path d="M26.9727 29.3276L27.1092 32.0645L28.9302 31.9717L28.7936 29.2812L26.9727 29.3276Z" fill="#EB5672"/>
<path d="M29.6582 30.7192L29.7493 31.9717L31.9799 31.7861L31.9344 30.5801L29.6582 30.7192Z" fill="#FFD434"/>
<path d="M29.6133 29.1885L29.7043 30.1626L31.8895 29.9771L31.8439 28.9102L29.6133 29.1885Z" fill="#EB5672"/>
<path d="M28.9754 7.43265C29.9056 7.43265 30.6598 6.66422 30.6598 5.71632C30.6598 4.76842 29.9056 4 28.9754 4C28.0451 4 27.291 4.76842 27.291 5.71632C27.291 6.66422 28.0451 7.43265 28.9754 7.43265Z" fill="#FFD434"/>
<path opacity="0.4" d="M29.6593 4.13965C29.978 4.69629 30.1145 5.3921 29.7503 6.18068C29.2496 7.06204 28.4301 7.06204 27.6562 6.78372C27.9749 7.2012 28.4302 7.43314 28.9309 7.43314C29.8869 7.47952 30.6608 6.69094 30.6608 5.7632C30.7063 5.06739 30.2966 4.41797 29.6593 4.13965Z" fill="#C19366"/>
<path d="M28.1644 5.48807C28.3355 5.59577 28.5921 5.48872 28.7374 5.24896C28.8827 5.00919 28.8618 4.72752 28.6907 4.61982C28.5196 4.51211 28.263 4.61917 28.1177 4.85893C27.9724 5.0987 27.9933 5.38037 28.1644 5.48807Z" fill="white"/>
<path d="M41.4488 45.8876C40.5383 45.8876 39.4002 45.331 38.9905 44.1249C38.5353 42.6869 39.0816 40.7386 40.857 40.1356C41.813 39.8109 43.0421 39.9501 43.8615 40.4603C44.4533 40.8314 44.8175 41.3881 44.9086 42.0375C45.1817 43.8002 44.4078 44.5424 43.8615 45.0526L43.0421 44.1249C43.5429 43.661 43.8615 43.3363 43.725 42.223C43.6794 41.9447 43.5429 41.7128 43.2242 41.5272C42.6779 41.1561 41.7674 41.1561 41.2667 41.3417C40.2652 41.6664 39.901 42.8725 40.1741 43.7538C40.4473 44.5424 41.3122 44.7279 41.6309 44.6352L41.9951 45.8412C41.8585 45.8876 41.6764 45.8876 41.4488 45.8876Z" fill="#46B6A9"/>
<path d="M36.5788 32.3887C36.2146 29.8838 35.8049 25.3379 37.3982 25.3379C39.2647 25.3379 40.767 34.1514 43.9536 40.2746C44.1357 40.6456 38.9005 42.6403 38.4453 42.1764C37.99 41.7126 36.5788 32.3887 36.5788 32.3887Z" fill="#68EBC1"/>
<path d="M40.7215 32.064C40.5849 31.6465 40.4484 31.1826 40.3118 30.8115C39.2648 31.7393 37.9901 32.3887 36.6699 32.7598C36.7154 33.0381 36.8065 33.502 36.8975 34.0586C38.2632 34.0122 39.5834 33.0845 40.7215 32.064Z" fill="#5BCCAD"/>
<path d="M41.678 34.8936C41.4959 34.3833 41.3138 33.8267 41.1317 33.3164C39.857 34.3369 38.5368 35.2647 37.0801 35.3111C37.1256 35.6358 37.2166 36.0069 37.2622 36.378C38.7644 36.4243 40.3122 35.8213 41.678 34.8936Z" fill="#5BCCAD"/>
<path opacity="0.4" d="M43.9525 40.2746C40.7658 34.1978 39.2636 25.3379 37.3971 25.3379C37.124 25.3379 36.9419 25.4771 36.7598 25.709C38.8083 30.8116 40.2196 36.1461 41.8584 41.3878C43.042 40.924 44.0435 40.4137 43.9525 40.2746Z" fill="#6AB7B3"/>
<path opacity="0.3" d="M33.5276 25.1523C29.1118 25.2451 22.5109 25.709 22.5109 25.709C21.4639 27.0078 20.0527 43.0114 21.0087 43.7072C21.2363 43.8464 22.1923 43.9391 23.558 43.9855C22.602 36.1925 26.9722 28.7242 33.5276 25.1523Z" fill="#D1F1C4"/>
<path opacity="0.3" d="M22.5109 25.7095C21.4639 27.0083 20.0527 43.0119 21.0087 43.7077C21.1452 43.8005 21.5094 43.8469 22.0557 43.8932C22.2833 37.6774 21.9191 31.3687 24.3319 25.5703C23.2393 25.6631 22.5109 25.7095 22.5109 25.7095Z" fill="#A9DCAB"/>
<path d="M25.5156 20.2817C25.6522 21.1167 26.335 21.9053 27.291 21.9517C28.9299 21.9981 29.4306 20.2354 29.4306 20.2354L25.5156 20.2817Z" fill="white"/>
<path opacity="0.3" d="M23.6043 14.6688C26.6089 14.4833 31.4344 13.8338 34.9852 14.8544C34.712 14.4369 34.3479 14.1122 33.8926 13.9266C32.8001 13.4627 20.9639 13.6019 20.6453 13.8802C19.6893 14.7616 20.099 19.3539 20.099 19.3539C20.099 19.3539 21.3281 19.4003 23.0125 19.4467C22.0565 18.4262 22.1476 15.0399 23.6043 14.6688Z" fill="#5CD2AE"/>
<path d="M98.4746 7.1084L98.6112 9.47415L99.4306 9.42776L99.294 6.55176L98.4746 7.1084Z" fill="#60C9B6"/>
<path d="M97.1997 21.3955L97.0176 27.3794L101.069 26.6373L101.206 21.3955H97.1997Z" fill="#60C9B6"/>
<path d="M92.8301 42.6401C92.8301 42.6401 93.5585 54.3297 93.695 54.5616C93.8316 54.7936 96.5175 54.7936 96.6085 54.1905C96.7451 53.5875 96.3809 42.1299 96.3809 42.1299L92.8301 42.6401Z" fill="#5BCCAD"/>
<path d="M96.4727 45.8872C96.4727 45.4697 96.4727 45.0986 96.4272 44.7275C95.2891 44.7275 94.06 44.8667 92.9219 44.9595C92.9674 45.3306 92.9674 45.7017 93.0129 46.0728C94.2421 46.0728 95.3346 45.9336 96.4727 45.8872Z" fill="#68EBC1"/>
<path d="M96.6078 49.6914C95.5152 49.6914 94.4682 50.1089 93.3301 49.9233C93.3756 50.3408 93.3756 50.7583 93.4211 51.1758C94.4682 51.1758 95.5607 51.1758 96.6533 51.1758C96.6078 50.7119 96.6078 50.2017 96.6078 49.6914Z" fill="#68EBC1"/>
<path d="M93.1484 47.3721C93.194 47.7432 93.194 48.0679 93.2395 48.439C94.332 48.5317 95.4701 48.3926 96.6082 48.3462C96.6082 47.9751 96.6082 47.604 96.5627 47.2793C95.3791 47.2793 94.2865 47.2793 93.1484 47.3721Z" fill="#68EBC1"/>
<path d="M102.117 42.7334C102.254 44.4033 103.164 53.9591 103.073 54.5621C102.937 55.1652 106.351 55.1652 106.351 55.1652L106.214 42.2695L102.117 42.7334Z" fill="#5BCCAD"/>
<path d="M106.26 47.5576C105.031 47.6504 103.756 47.9287 102.572 48.0215C102.618 48.439 102.663 48.9028 102.709 49.3203C103.892 49.0884 105.076 48.9956 106.305 48.9028L106.26 47.5576Z" fill="#68EBC1"/>
<path d="M106.261 50.8506C105.122 50.897 103.984 50.9434 102.801 51.0361C102.846 51.4072 102.846 51.8247 102.892 52.1494C103.984 52.103 105.122 52.0103 106.261 51.8711V50.8506Z" fill="#68EBC1"/>
<path d="M102.299 45.0059C102.344 45.377 102.39 45.7944 102.39 46.2119C103.665 46.0728 104.939 45.7944 106.214 45.7017V44.542C104.894 44.6812 103.619 44.9131 102.299 45.0059Z" fill="#68EBC1"/>
<path d="M88.46 46.5372L88.369 45.2847C89.3705 45.2383 89.9623 44.7744 90.0989 43.9395C90.2354 43.1509 89.7802 42.084 88.6876 41.6665C87.7316 41.2954 87.0488 41.3882 86.6846 41.8984C86.1383 42.6406 86.2294 43.8931 86.3659 44.125C86.3659 44.125 86.3659 44.0786 86.3204 44.0786L85.6376 45.1455C84.9092 44.6817 84.8181 42.8726 85.4099 41.6201C85.7286 40.9707 86.7301 39.5791 89.1429 40.5068C90.8728 41.1562 91.5556 42.8262 91.3735 44.125C91.1459 45.2383 90.3265 46.4444 88.46 46.5372Z" fill="#46B6A9"/>
<path d="M93.6944 26.8227C93.6033 25.8486 92.101 25.1528 91.2816 26.3589C90.4622 27.5649 89.3241 34.2911 86.5472 40.3678C85.6367 42.3161 91.3727 42.1769 91.3727 42.1769C91.3727 42.1769 93.7854 27.8897 93.6944 26.8227Z" fill="#5BCCAD"/>
<path d="M89.0068 33.7803C88.8702 34.1514 88.7336 34.5225 88.6426 34.94C89.7807 35.5894 91.1008 36.0069 92.421 36.146C92.5121 35.6358 92.6031 35.1255 92.6486 34.6152C91.374 34.5689 90.1449 34.1978 89.0068 33.7803Z" fill="#68EBC1"/>
<path d="M92.7839 33.6875C92.8294 33.3164 92.9204 32.8989 92.966 32.5278C91.7823 32.4815 90.5987 32.3887 89.5517 31.9248C89.4606 32.2959 89.3241 32.7134 89.1875 33.0845C90.3711 33.5484 91.5547 33.7339 92.7839 33.6875Z" fill="#68EBC1"/>
<path d="M91.3733 22.0448C91.3733 22.0448 88.4143 8.26783 99.1578 8.54615C110.402 8.82448 107.033 22.0912 107.033 22.0912C107.033 22.0912 103.073 22.6942 99.2034 22.6942C95.1062 22.7406 91.3733 22.0448 91.3733 22.0448Z" fill="#68EBC1"/>
<path opacity="0.3" d="M97.5651 8.63867C88.688 9.70558 91.3739 22.0446 91.3739 22.0446C91.3739 22.0446 92.1933 22.1837 93.4225 22.3229C93.2404 17.4522 93.9232 11.793 97.5651 8.63867Z" fill="#D1F1C4"/>
<path opacity="0.4" d="M95.334 9.24219C89.1884 11.979 91.3735 22.045 91.3735 22.045C91.3735 22.045 91.6011 22.0914 92.0563 22.1378C91.7832 17.6383 92.1474 12.3965 95.334 9.24219Z" fill="white"/>
<path opacity="0.4" d="M101.07 8.77832C104.302 12.3037 104.211 17.7774 103.438 22.5089C105.486 22.3234 107.034 22.0914 107.034 22.0914C107.034 22.0914 109.993 10.4483 101.07 8.77832Z" fill="#6AB7B3"/>
<path d="M92.5109 25.7097C91.4639 27.0085 90.0527 43.0121 91.0087 43.7079C91.9646 44.4037 107.761 43.5687 108.672 43.0121C109.628 42.409 107.989 25.9416 107.397 25.3386C106.805 24.7355 92.5109 25.7097 92.5109 25.7097Z" fill="#68EBC1"/>
<path opacity="0.4" d="M107.399 25.3379C107.262 25.1987 106.534 25.1523 105.487 25.1523C105.123 32.1104 106.17 38.0944 106.943 43.3361C107.854 43.2433 108.491 43.1042 108.673 43.0114C109.629 42.4084 107.991 25.9409 107.399 25.3379Z" fill="#6AB7B3"/>
<path d="M96.6547 54.8867L89.3709 55.7217L89.2344 53.4951L96.5637 53.2168L96.6547 54.8867Z" fill="#58C4A1"/>
<path d="M99.7949 55.9995L106.305 55.1646V53.7266L99.7949 54.1904V55.9995Z" fill="#58C4A1"/>
<path d="M90.6453 13.8802C90.9639 13.6019 102.8 13.4627 103.893 13.9266C106.26 14.9471 106.032 19.4931 103.893 19.6322C102.208 19.725 90.099 19.4003 90.099 19.4003C90.099 19.4003 89.6893 14.808 90.6453 13.8802Z" fill="#58C4A1"/>
<path d="M93.4668 28.6318C93.4668 28.6318 93.6944 39.3937 93.8765 39.6256C94.0586 39.9039 103.436 39.8112 103.619 39.4864C103.801 39.1153 103.209 27.7969 103.209 27.7969L93.4668 28.6318Z" fill="#58C4A1"/>
<path d="M92.2849 17.8238C92.1483 17.8238 92.0117 17.6846 92.0117 17.5454C92.0117 16.9888 92.3759 15.8755 93.5595 15.7827C94.7431 15.7363 95.2439 16.8032 95.2894 17.3135C95.2894 17.4527 95.1984 17.5918 95.0618 17.5918C94.9252 17.5918 94.7887 17.499 94.7887 17.3599C94.7431 17.1279 94.47 16.293 93.605 16.3394C92.7401 16.3857 92.558 17.3135 92.558 17.5454C92.558 17.6846 92.4214 17.8238 92.2849 17.8238Z" fill="#487C7F"/>
<path d="M99.841 17.7769H99.7955C99.6589 17.7305 99.5679 17.5914 99.6134 17.4522C99.7955 16.6636 100.342 15.7823 101.343 15.6895C102.436 15.5967 102.937 16.6173 103.073 17.1739C103.119 17.3131 103.028 17.4522 102.891 17.4986C102.755 17.545 102.618 17.4522 102.572 17.3131C102.572 17.2667 102.299 16.1534 101.434 16.2462C100.524 16.3389 100.251 17.3131 100.16 17.5914C100.069 17.6842 99.9321 17.7769 99.841 17.7769Z" fill="#487C7F"/>
<path d="M94.4238 29.5591L94.6059 32.1104H96.3813L96.2448 29.4199L94.4238 29.5591Z" fill="#E6EB99"/>
<path d="M96.9727 29.3276L97.1092 32.0645L98.9302 31.9717L98.7936 29.2812L96.9727 29.3276Z" fill="#EB5672"/>
<path d="M99.6582 30.7192L99.7493 31.9717L101.98 31.7861L101.934 30.5801L99.6582 30.7192Z" fill="#FFD434"/>
<path d="M99.6133 29.1885L99.7043 30.1626L101.889 29.9771L101.844 28.9102L99.6133 29.1885Z" fill="#EB5672"/>
<path d="M98.9754 7.43265C99.9056 7.43265 100.66 6.66422 100.66 5.71632C100.66 4.76842 99.9056 4 98.9754 4C98.0451 4 97.291 4.76842 97.291 5.71632C97.291 6.66422 98.0451 7.43265 98.9754 7.43265Z" fill="#FFD434"/>
<path opacity="0.4" d="M99.6593 4.13965C99.978 4.69629 100.115 5.3921 99.7503 6.18068C99.2496 7.06204 98.4301 7.06204 97.6562 6.78372C97.9749 7.2012 98.4302 7.43314 98.9309 7.43314C99.8869 7.47952 100.661 6.69094 100.661 5.7632C100.706 5.06739 100.297 4.41797 99.6593 4.13965Z" fill="#C19366"/>
<path d="M98.1644 5.48807C98.3355 5.59577 98.5921 5.48872 98.7374 5.24896C98.8827 5.00919 98.8618 4.72752 98.6907 4.61982C98.5196 4.51211 98.263 4.61917 98.1177 4.85893C97.9724 5.0987 97.9933 5.38037 98.1644 5.48807Z" fill="white"/>
<path d="M111.449 45.8876C110.538 45.8876 109.4 45.331 108.991 44.1249C108.535 42.6869 109.082 40.7386 110.857 40.1356C111.813 39.8109 113.042 39.9501 113.862 40.4603C114.453 40.8314 114.818 41.3881 114.909 42.0375C115.182 43.8002 114.408 44.5424 113.862 45.0526L113.042 44.1249C113.543 43.661 113.862 43.3363 113.725 42.223C113.679 41.9447 113.543 41.7128 113.224 41.5272C112.678 41.1561 111.767 41.1561 111.267 41.3417C110.265 41.6664 109.901 42.8725 110.174 43.7538C110.447 44.5424 111.312 44.7279 111.631 44.6352L111.995 45.8412C111.858 45.8876 111.676 45.8876 111.449 45.8876Z" fill="#46B6A9"/>
<path d="M106.579 32.3887C106.215 29.8838 105.805 25.3379 107.398 25.3379C109.265 25.3379 110.767 34.1514 113.954 40.2746C114.136 40.6456 108.901 42.6403 108.445 42.1764C107.99 41.7126 106.579 32.3887 106.579 32.3887Z" fill="#68EBC1"/>
<path d="M110.722 32.064C110.585 31.6465 110.448 31.1826 110.312 30.8115C109.265 31.7393 107.99 32.3887 106.67 32.7598C106.715 33.0381 106.806 33.502 106.898 34.0586C108.263 34.0122 109.583 33.0845 110.722 32.064Z" fill="#5BCCAD"/>
<path d="M111.678 34.8936C111.496 34.3833 111.314 33.8267 111.132 33.3164C109.857 34.3369 108.537 35.2647 107.08 35.3111C107.126 35.6358 107.217 36.0069 107.262 36.378C108.764 36.4243 110.312 35.8213 111.678 34.8936Z" fill="#5BCCAD"/>
<path opacity="0.4" d="M113.952 40.2746C110.766 34.1978 109.264 25.3379 107.397 25.3379C107.124 25.3379 106.942 25.4771 106.76 25.709C108.808 30.8116 110.22 36.1461 111.858 41.3878C113.042 40.924 114.044 40.4137 113.952 40.2746Z" fill="#6AB7B3"/>
<path opacity="0.3" d="M103.528 25.1523C99.1118 25.2451 92.5109 25.709 92.5109 25.709C91.4639 27.0078 90.0527 43.0114 91.0087 43.7072C91.2363 43.8464 92.1923 43.9391 93.558 43.9855C92.602 36.1925 96.9722 28.7242 103.528 25.1523Z" fill="#D1F1C4"/>
<path opacity="0.3" d="M92.5109 25.7095C91.4639 27.0083 90.0527 43.0119 91.0087 43.7077C91.1452 43.8005 91.5094 43.8469 92.0557 43.8932C92.2833 37.6774 91.9191 31.3687 94.3319 25.5703C93.2393 25.6631 92.5109 25.7095 92.5109 25.7095Z" fill="#A9DCAB"/>
<path d="M95.5156 20.2817C95.6522 21.1167 96.335 21.9053 97.291 21.9517C98.9299 21.9981 99.4306 20.2354 99.4306 20.2354L95.5156 20.2817Z" fill="white"/>
<path opacity="0.3" d="M93.6043 14.6688C96.6089 14.4833 101.434 13.8338 104.985 14.8544C104.712 14.4369 104.348 14.1122 103.893 13.9266C102.8 13.4627 90.9639 13.6019 90.6453 13.8802C89.6893 14.7616 90.099 19.3539 90.099 19.3539C90.099 19.3539 91.3281 19.4003 93.0125 19.4467C92.0565 18.4262 92.1476 15.0399 93.6043 14.6688Z" fill="#5CD2AE"/>
<path d="M168.475 7.1084L168.611 9.47415L169.431 9.42776L169.294 6.55176L168.475 7.1084Z" fill="#60C9B6"/>
<path d="M167.2 21.3955L167.018 27.3794L171.069 26.6373L171.206 21.3955H167.2Z" fill="#60C9B6"/>
<path d="M162.83 42.6401C162.83 42.6401 163.558 54.3297 163.695 54.5616C163.832 54.7936 166.517 54.7936 166.609 54.1905C166.745 53.5875 166.381 42.1299 166.381 42.1299L162.83 42.6401Z" fill="#5BCCAD"/>
<path d="M166.473 45.8872C166.473 45.4697 166.473 45.0986 166.427 44.7275C165.289 44.7275 164.06 44.8667 162.922 44.9595C162.967 45.3306 162.967 45.7017 163.013 46.0728C164.242 46.0728 165.335 45.9336 166.473 45.8872Z" fill="#68EBC1"/>
<path d="M166.608 49.6914C165.515 49.6914 164.468 50.1089 163.33 49.9233C163.376 50.3408 163.376 50.7583 163.421 51.1758C164.468 51.1758 165.561 51.1758 166.653 51.1758C166.608 50.7119 166.608 50.2017 166.608 49.6914Z" fill="#68EBC1"/>
<path d="M163.148 47.3721C163.194 47.7432 163.194 48.0679 163.239 48.439C164.332 48.5317 165.47 48.3926 166.608 48.3462C166.608 47.9751 166.608 47.604 166.563 47.2793C165.379 47.2793 164.287 47.2793 163.148 47.3721Z" fill="#68EBC1"/>
<path d="M172.117 42.7334C172.254 44.4033 173.164 53.9591 173.073 54.5621C172.937 55.1652 176.351 55.1652 176.351 55.1652L176.214 42.2695L172.117 42.7334Z" fill="#5BCCAD"/>
<path d="M176.26 47.5576C175.031 47.6504 173.756 47.9287 172.572 48.0215C172.618 48.439 172.663 48.9028 172.709 49.3203C173.892 49.0884 175.076 48.9956 176.305 48.9028L176.26 47.5576Z" fill="#68EBC1"/>
<path d="M176.261 50.8506C175.122 50.897 173.984 50.9434 172.801 51.0361C172.846 51.4072 172.846 51.8247 172.892 52.1494C173.984 52.103 175.122 52.0103 176.261 51.8711V50.8506Z" fill="#68EBC1"/>
<path d="M172.299 45.0059C172.344 45.377 172.39 45.7944 172.39 46.2119C173.665 46.0728 174.939 45.7944 176.214 45.7017V44.542C174.894 44.6812 173.619 44.9131 172.299 45.0059Z" fill="#68EBC1"/>
<path d="M158.46 46.5372L158.369 45.2847C159.37 45.2383 159.962 44.7744 160.099 43.9395C160.235 43.1509 159.78 42.084 158.688 41.6665C157.732 41.2954 157.049 41.3882 156.685 41.8984C156.138 42.6406 156.229 43.8931 156.366 44.125C156.366 44.125 156.366 44.0786 156.32 44.0786L155.638 45.1455C154.909 44.6817 154.818 42.8726 155.41 41.6201C155.729 40.9707 156.73 39.5791 159.143 40.5068C160.873 41.1562 161.556 42.8262 161.374 44.125C161.146 45.2383 160.326 46.4444 158.46 46.5372Z" fill="#46B6A9"/>
<path d="M163.694 26.8227C163.603 25.8486 162.101 25.1528 161.282 26.3589C160.462 27.5649 159.324 34.2911 156.547 40.3678C155.637 42.3161 161.373 42.1769 161.373 42.1769C161.373 42.1769 163.785 27.8897 163.694 26.8227Z" fill="#5BCCAD"/>
<path d="M159.007 33.7803C158.87 34.1514 158.734 34.5225 158.643 34.94C159.781 35.5894 161.101 36.0069 162.421 36.146C162.512 35.6358 162.603 35.1255 162.649 34.6152C161.374 34.5689 160.145 34.1978 159.007 33.7803Z" fill="#68EBC1"/>
<path d="M162.784 33.6875C162.829 33.3164 162.92 32.8989 162.966 32.5278C161.782 32.4815 160.599 32.3887 159.552 31.9248C159.461 32.2959 159.324 32.7134 159.188 33.0845C160.371 33.5484 161.555 33.7339 162.784 33.6875Z" fill="#68EBC1"/>
<path d="M161.373 22.0448C161.373 22.0448 158.414 8.26783 169.158 8.54615C180.402 8.82448 177.033 22.0912 177.033 22.0912C177.033 22.0912 173.073 22.6942 169.203 22.6942C165.106 22.7406 161.373 22.0448 161.373 22.0448Z" fill="#68EBC1"/>
<path opacity="0.3" d="M167.565 8.63867C158.688 9.70558 161.374 22.0446 161.374 22.0446C161.374 22.0446 162.193 22.1837 163.422 22.3229C163.24 17.4522 163.923 11.793 167.565 8.63867Z" fill="#D1F1C4"/>
<path opacity="0.4" d="M165.334 9.24219C159.188 11.979 161.373 22.045 161.373 22.045C161.373 22.045 161.601 22.0914 162.056 22.1378C161.783 17.6383 162.147 12.3965 165.334 9.24219Z" fill="white"/>
<path opacity="0.4" d="M171.07 8.77832C174.302 12.3037 174.211 17.7774 173.438 22.5089C175.486 22.3234 177.034 22.0914 177.034 22.0914C177.034 22.0914 179.993 10.4483 171.07 8.77832Z" fill="#6AB7B3"/>
<path d="M162.511 25.7097C161.464 27.0085 160.053 43.0121 161.009 43.7079C161.965 44.4037 177.761 43.5687 178.672 43.0121C179.628 42.409 177.989 25.9416 177.397 25.3386C176.805 24.7355 162.511 25.7097 162.511 25.7097Z" fill="#68EBC1"/>
<path opacity="0.4" d="M177.399 25.3379C177.262 25.1987 176.534 25.1523 175.487 25.1523C175.123 32.1104 176.17 38.0944 176.943 43.3361C177.854 43.2433 178.491 43.1042 178.673 43.0114C179.629 42.4084 177.991 25.9409 177.399 25.3379Z" fill="#6AB7B3"/>
<path d="M166.655 54.8867L159.371 55.7217L159.234 53.4951L166.564 53.2168L166.655 54.8867Z" fill="#58C4A1"/>
<path d="M169.795 55.9995L176.305 55.1646V53.7266L169.795 54.1904V55.9995Z" fill="#58C4A1"/>
<path d="M160.645 13.8802C160.964 13.6019 172.8 13.4627 173.893 13.9266C176.26 14.9471 176.032 19.4931 173.893 19.6322C172.208 19.725 160.099 19.4003 160.099 19.4003C160.099 19.4003 159.689 14.808 160.645 13.8802Z" fill="#58C4A1"/>
<path d="M163.467 28.6318C163.467 28.6318 163.694 39.3937 163.877 39.6256C164.059 39.9039 173.436 39.8112 173.619 39.4864C173.801 39.1153 173.209 27.7969 173.209 27.7969L163.467 28.6318Z" fill="#58C4A1"/>
<path d="M162.285 17.8238C162.148 17.8238 162.012 17.6846 162.012 17.5454C162.012 16.9888 162.376 15.8755 163.56 15.7827C164.743 15.7363 165.244 16.8032 165.289 17.3135C165.289 17.4527 165.198 17.5918 165.062 17.5918C164.925 17.5918 164.789 17.499 164.789 17.3599C164.743 17.1279 164.47 16.293 163.605 16.3394C162.74 16.3857 162.558 17.3135 162.558 17.5454C162.558 17.6846 162.421 17.8238 162.285 17.8238Z" fill="#487C7F"/>
<path d="M169.841 17.7769H169.795C169.659 17.7305 169.568 17.5914 169.613 17.4522C169.795 16.6636 170.342 15.7823 171.343 15.6895C172.436 15.5967 172.937 16.6173 173.073 17.1739C173.119 17.3131 173.028 17.4522 172.891 17.4986C172.755 17.545 172.618 17.4522 172.572 17.3131C172.572 17.2667 172.299 16.1534 171.434 16.2462C170.524 16.3389 170.251 17.3131 170.16 17.5914C170.069 17.6842 169.932 17.7769 169.841 17.7769Z" fill="#487C7F"/>
<path d="M164.424 29.5591L164.606 32.1104H166.381L166.245 29.4199L164.424 29.5591Z" fill="#E6EB99"/>
<path d="M166.973 29.3276L167.109 32.0645L168.93 31.9717L168.794 29.2812L166.973 29.3276Z" fill="#EB5672"/>
<path d="M169.658 30.7192L169.749 31.9717L171.98 31.7861L171.934 30.5801L169.658 30.7192Z" fill="#FFD434"/>
<path d="M169.613 29.1885L169.704 30.1626L171.889 29.9771L171.844 28.9102L169.613 29.1885Z" fill="#EB5672"/>
<path d="M168.975 7.43265C169.906 7.43265 170.66 6.66422 170.66 5.71632C170.66 4.76842 169.906 4 168.975 4C168.045 4 167.291 4.76842 167.291 5.71632C167.291 6.66422 168.045 7.43265 168.975 7.43265Z" fill="#FFD434"/>
<path opacity="0.4" d="M169.659 4.13965C169.978 4.69629 170.115 5.3921 169.75 6.18068C169.25 7.06204 168.43 7.06204 167.656 6.78372C167.975 7.2012 168.43 7.43314 168.931 7.43314C169.887 7.47952 170.661 6.69094 170.661 5.7632C170.706 5.06739 170.297 4.41797 169.659 4.13965Z" fill="#C19366"/>
<path d="M168.164 5.48807C168.336 5.59577 168.592 5.48872 168.737 5.24896C168.883 5.00919 168.862 4.72752 168.691 4.61982C168.52 4.51211 168.263 4.61917 168.118 4.85893C167.972 5.0987 167.993 5.38037 168.164 5.48807Z" fill="white"/>
<path d="M181.449 45.8876C180.538 45.8876 179.4 45.331 178.991 44.1249C178.535 42.6869 179.082 40.7386 180.857 40.1356C181.813 39.8109 183.042 39.9501 183.862 40.4603C184.453 40.8314 184.818 41.3881 184.909 42.0375C185.182 43.8002 184.408 44.5424 183.862 45.0526L183.042 44.1249C183.543 43.661 183.862 43.3363 183.725 42.223C183.679 41.9447 183.543 41.7128 183.224 41.5272C182.678 41.1561 181.767 41.1561 181.267 41.3417C180.265 41.6664 179.901 42.8725 180.174 43.7538C180.447 44.5424 181.312 44.7279 181.631 44.6352L181.995 45.8412C181.858 45.8876 181.676 45.8876 181.449 45.8876Z" fill="#46B6A9"/>
<path d="M176.579 32.3887C176.215 29.8838 175.805 25.3379 177.398 25.3379C179.265 25.3379 180.767 34.1514 183.954 40.2746C184.136 40.6456 178.901 42.6403 178.445 42.1764C177.99 41.7126 176.579 32.3887 176.579 32.3887Z" fill="#68EBC1"/>
<path d="M180.722 32.064C180.585 31.6465 180.448 31.1826 180.312 30.8115C179.265 31.7393 177.99 32.3887 176.67 32.7598C176.715 33.0381 176.806 33.502 176.898 34.0586C178.263 34.0122 179.583 33.0845 180.722 32.064Z" fill="#5BCCAD"/>
<path d="M181.678 34.8936C181.496 34.3833 181.314 33.8267 181.132 33.3164C179.857 34.3369 178.537 35.2647 177.08 35.3111C177.126 35.6358 177.217 36.0069 177.262 36.378C178.764 36.4243 180.312 35.8213 181.678 34.8936Z" fill="#5BCCAD"/>
<path opacity="0.4" d="M183.952 40.2746C180.766 34.1978 179.264 25.3379 177.397 25.3379C177.124 25.3379 176.942 25.4771 176.76 25.709C178.808 30.8116 180.22 36.1461 181.858 41.3878C183.042 40.924 184.044 40.4137 183.952 40.2746Z" fill="#6AB7B3"/>
<path opacity="0.3" d="M173.528 25.1523C169.112 25.2451 162.511 25.709 162.511 25.709C161.464 27.0078 160.053 43.0114 161.009 43.7072C161.236 43.8464 162.192 43.9391 163.558 43.9855C162.602 36.1925 166.972 28.7242 173.528 25.1523Z" fill="#D1F1C4"/>
<path opacity="0.3" d="M162.511 25.7095C161.464 27.0083 160.053 43.0119 161.009 43.7077C161.145 43.8005 161.509 43.8469 162.056 43.8932C162.283 37.6774 161.919 31.3687 164.332 25.5703C163.239 25.6631 162.511 25.7095 162.511 25.7095Z" fill="#A9DCAB"/>
<path d="M165.516 20.2817C165.652 21.1167 166.335 21.9053 167.291 21.9517C168.93 21.9981 169.431 20.2354 169.431 20.2354L165.516 20.2817Z" fill="white"/>
<path opacity="0.3" d="M163.604 14.6688C166.609 14.4833 171.434 13.8338 174.985 14.8544C174.712 14.4369 174.348 14.1122 173.893 13.9266C172.8 13.4627 160.964 13.6019 160.645 13.8802C159.689 14.7616 160.099 19.3539 160.099 19.3539C160.099 19.3539 161.328 19.4003 163.013 19.4467C162.057 18.4262 162.148 15.0399 163.604 14.6688Z" fill="#5CD2AE"/>
<path d="M222.499 40.5L218.959 35.55L215.299 40.5H210.199L216.409 32.37L210.409 24.36H215.659L219.079 29.07L222.589 24.36H227.569L221.569 32.25L227.809 40.5H222.499Z" fill="#0E80A4"/>
<path d="M271.093 40.444H265.621V47.5H258.037V40.444H239.941V35.212L255.781 13.9H263.941L249.253 34.108H258.277V27.82H265.621V34.108H271.093V40.444Z" fill="#0E80A4"/>
<path d="M283.881 24.45H298.161V28.11H283.881V24.45ZM283.881 31.89H298.161V35.55H283.881V31.89Z" fill="#0E80A4"/>
</svg>
