<svg width="570" height="60" viewBox="0 0 570 60" fill="none" xmlns="http://www.w3.org/2000/svg">
<path d="M256.918 26.02V28H247.63V26.434L252.634 21.682C253.198 21.142 253.576 20.674 253.768 20.278C253.972 19.87 254.074 19.468 254.074 19.072C254.074 18.484 253.876 18.034 253.48 17.722C253.084 17.41 252.502 17.254 251.734 17.254C250.45 17.254 249.466 17.692 248.782 18.568L247.144 17.308C247.636 16.648 248.296 16.138 249.124 15.778C249.964 15.406 250.9 15.22 251.932 15.22C253.3 15.22 254.392 15.544 255.208 16.192C256.024 16.84 256.432 17.722 256.432 18.838C256.432 19.522 256.288 20.164 256 20.764C255.712 21.364 255.16 22.048 254.344 22.816L250.978 26.02H256.918Z" fill="#2F2F2F"/>
<line x1="239.5" y1="34.5" x2="265.5" y2="34.5" stroke="#2F2F2F" stroke-linecap="round"/>
<path d="M258.024 51.138H255.792V54H253.524V51.138H246.612V49.518L252.822 41.4H255.324L249.474 49.158H253.596V46.62H255.792V49.158H258.024V51.138Z" fill="#2F2F2F"/>
<path d="M272.468 28.4322H280.532V29.8542H272.468V28.4322ZM272.468 32.6982H280.532V34.1202H272.468V32.6982Z" fill="#2F2F2F"/>
<path d="M292.004 1.13465L323.179 1.0186L323.172 -0.981385L291.996 -0.865331L292.004 1.13465ZM327.194 5.00368L327.269 25.0035L329.269 24.9961L329.194 4.99624L327.194 5.00368ZM323.284 29.0184L292.108 29.1345L292.115 31.1344L323.291 31.0184L323.284 29.0184ZM288.093 25.1494L288.019 5.14952L286.019 5.15696L286.093 25.1568L288.093 25.1494ZM292.108 29.1345C289.899 29.1427 288.101 27.3585 288.093 25.1494L286.093 25.1568C286.105 28.4705 288.802 31.1468 292.115 31.1344L292.108 29.1345ZM327.269 25.0035C327.277 27.2127 325.493 29.0102 323.284 29.0184L323.291 31.0184C326.605 31.0061 329.281 28.3098 329.269 24.9961L327.269 25.0035ZM323.179 1.0186C325.388 1.01038 327.186 2.79456 327.194 5.00368L329.194 4.99624C329.182 1.68255 326.486 -0.99372 323.172 -0.981385L323.179 1.0186ZM291.996 -0.865331C288.683 -0.852996 286.006 1.84328 286.019 5.15696L288.019 5.14952C288.01 2.94039 289.795 1.14288 292.004 1.13465L291.996 -0.865331Z" fill="#2F2F2F"/>
<line x1="294.5" y1="34.5" x2="320.5" y2="34.5" stroke="#2F2F2F" stroke-linecap="round"/>
<path d="M313.063 52.02V54H303.775V52.434L308.779 47.682C309.343 47.142 309.721 46.674 309.913 46.278C310.117 45.87 310.219 45.468 310.219 45.072C310.219 44.484 310.021 44.034 309.625 43.722C309.229 43.41 308.647 43.254 307.879 43.254C306.595 43.254 305.611 43.692 304.927 44.568L303.289 43.308C303.781 42.648 304.441 42.138 305.269 41.778C306.109 41.406 307.045 41.22 308.077 41.22C309.445 41.22 310.537 41.544 311.353 42.192C312.169 42.84 312.577 43.722 312.577 44.838C312.577 45.522 312.433 46.164 312.145 46.764C311.857 47.364 311.305 48.048 310.489 48.816L307.123 52.02H313.063Z" fill="#2F2F2F"/>
<path d="M499.024 25.138H496.792V28H494.524V25.138H487.612V23.518L493.822 15.4H496.324L490.474 23.158H494.596V20.62H496.792V23.158H499.024V25.138Z" fill="#2F2F2F"/>
<line x1="480.5" y1="34.5" x2="506.5" y2="34.5" stroke="#2F2F2F" stroke-linecap="round"/>
<path d="M494.016 46.224C494.844 46.224 495.588 46.386 496.248 46.71C496.908 47.022 497.424 47.472 497.796 48.06C498.168 48.648 498.354 49.326 498.354 50.094C498.354 50.91 498.15 51.63 497.742 52.254C497.334 52.866 496.782 53.34 496.086 53.676C495.39 54.012 494.61 54.18 493.746 54.18C492.018 54.18 490.674 53.64 489.714 52.56C488.766 51.48 488.292 49.932 488.292 47.916C488.292 46.5 488.55 45.294 489.066 44.298C489.582 43.29 490.302 42.528 491.226 42.012C492.162 41.484 493.242 41.22 494.466 41.22C495.114 41.22 495.72 41.292 496.284 41.436C496.86 41.568 497.358 41.766 497.778 42.03L496.914 43.794C496.29 43.386 495.492 43.182 494.52 43.182C493.308 43.182 492.36 43.554 491.676 44.298C490.992 45.042 490.65 46.116 490.65 47.52V47.538C491.022 47.106 491.496 46.782 492.072 46.566C492.648 46.338 493.296 46.224 494.016 46.224ZM493.62 52.344C494.352 52.344 494.946 52.152 495.402 51.768C495.858 51.372 496.086 50.85 496.086 50.202C496.086 49.542 495.858 49.02 495.402 48.636C494.946 48.252 494.334 48.06 493.566 48.06C492.81 48.06 492.192 48.264 491.712 48.672C491.244 49.08 491.01 49.596 491.01 50.22C491.01 50.832 491.238 51.342 491.694 51.75C492.162 52.146 492.804 52.344 493.62 52.344Z" fill="#2F2F2F"/>
<path d="M513.468 28.4322H521.532V29.8542H513.468V28.4322ZM513.468 32.6982H521.532V34.1202H513.468V32.6982Z" fill="#2F2F2F"/>
<path d="M533.004 1.13465L564.179 1.0186L564.172 -0.981385L532.996 -0.865331L533.004 1.13465ZM568.194 5.00368L568.269 25.0035L570.269 24.9961L570.194 4.99624L568.194 5.00368ZM564.284 29.0184L533.108 29.1345L533.115 31.1344L564.291 31.0184L564.284 29.0184ZM529.093 25.1494L529.019 5.14952L527.019 5.15696L527.093 25.1568L529.093 25.1494ZM533.108 29.1345C530.899 29.1427 529.101 27.3585 529.093 25.1494L527.093 25.1568C527.105 28.4705 529.802 31.1468 533.115 31.1344L533.108 29.1345ZM568.269 25.0035C568.277 27.2127 566.493 29.0102 564.284 29.0184L564.291 31.0184C567.605 31.0061 570.281 28.3098 570.269 24.9961L568.269 25.0035ZM564.179 1.0186C566.388 1.01038 568.186 2.79456 568.194 5.00368L570.194 4.99624C570.182 1.68255 567.486 -0.99372 564.172 -0.981385L564.179 1.0186ZM532.996 -0.865331C529.683 -0.852996 527.006 1.84328 527.019 5.15696L529.019 5.14952C529.01 2.94039 530.795 1.14288 533.004 1.13465L532.996 -0.865331Z" fill="#2F2F2F"/>
<line x1="535.5" y1="34.5" x2="561.5" y2="34.5" stroke="#2F2F2F" stroke-linecap="round"/>
<path d="M550.301 46.602C551.465 46.746 552.353 47.142 552.965 47.79C553.577 48.438 553.883 49.248 553.883 50.22C553.883 50.952 553.697 51.618 553.325 52.218C552.953 52.818 552.389 53.298 551.633 53.658C550.889 54.006 549.977 54.18 548.897 54.18C547.997 54.18 547.127 54.054 546.287 53.802C545.459 53.538 544.751 53.178 544.163 52.722L545.171 50.904C545.627 51.288 546.179 51.594 546.827 51.822C547.487 52.038 548.165 52.146 548.861 52.146C549.689 52.146 550.337 51.978 550.805 51.642C551.285 51.294 551.525 50.826 551.525 50.238C551.525 49.65 551.297 49.194 550.841 48.87C550.397 48.534 549.713 48.366 548.789 48.366H547.637V46.764L550.499 43.362H544.775V41.4H553.361V42.966L550.301 46.602Z" fill="#2F2F2F"/>
<path d="M17.918 27.02V29H8.63V27.434L13.634 22.682C14.198 22.142 14.576 21.674 14.768 21.278C14.972 20.87 15.074 20.468 15.074 20.072C15.074 19.484 14.876 19.034 14.48 18.722C14.084 18.41 13.502 18.254 12.734 18.254C11.45 18.254 10.466 18.692 9.782 19.568L8.144 18.308C8.636 17.648 9.296 17.138 10.124 16.778C10.964 16.406 11.9 16.22 12.932 16.22C14.3 16.22 15.392 16.544 16.208 17.192C17.024 17.84 17.432 18.722 17.432 19.838C17.432 20.522 17.288 21.164 17 21.764C16.712 22.364 16.16 23.048 15.344 23.816L11.978 27.02H17.918Z" fill="#2F2F2F"/>
<line x1="0.5" y1="35.5" x2="26.5" y2="35.5" stroke="#2F2F2F" stroke-linecap="round"/>
<path d="M16.464 48.376C17.124 48.676 17.628 49.084 17.976 49.6C18.336 50.104 18.516 50.698 18.516 51.382C18.516 52.15 18.3 52.822 17.868 53.398C17.448 53.974 16.848 54.418 16.068 54.73C15.288 55.03 14.382 55.18 13.35 55.18C12.318 55.18 11.412 55.03 10.632 54.73C9.864 54.418 9.27 53.974 8.85 53.398C8.43 52.822 8.22 52.15 8.22 51.382C8.22 50.698 8.394 50.104 8.742 49.6C9.09 49.084 9.588 48.676 10.236 48.376C9.732 48.1 9.342 47.74 9.066 47.296C8.802 46.84 8.67 46.318 8.67 45.73C8.67 45.022 8.862 44.404 9.246 43.876C9.642 43.348 10.194 42.94 10.902 42.652C11.61 42.364 12.426 42.22 13.35 42.22C14.286 42.22 15.108 42.364 15.816 42.652C16.524 42.94 17.076 43.348 17.472 43.876C17.868 44.404 18.066 45.022 18.066 45.73C18.066 46.318 17.928 46.834 17.652 47.278C17.376 47.722 16.98 48.088 16.464 48.376ZM13.35 44.056C12.618 44.056 12.036 44.212 11.604 44.524C11.184 44.836 10.974 45.274 10.974 45.838C10.974 46.378 11.184 46.81 11.604 47.134C12.036 47.446 12.618 47.602 13.35 47.602C14.094 47.602 14.682 47.446 15.114 47.134C15.546 46.81 15.762 46.378 15.762 45.838C15.762 45.274 15.54 44.836 15.096 44.524C14.664 44.212 14.082 44.056 13.35 44.056ZM13.35 53.344C14.214 53.344 14.898 53.164 15.402 52.804C15.906 52.444 16.158 51.946 16.158 51.31C16.158 50.686 15.906 50.194 15.402 49.834C14.898 49.474 14.214 49.294 13.35 49.294C12.486 49.294 11.808 49.474 11.316 49.834C10.824 50.194 10.578 50.686 10.578 51.31C10.578 51.946 10.824 52.444 11.316 52.804C11.808 53.164 12.486 53.344 13.35 53.344Z" fill="#2F2F2F"/>
<path d="M33.4677 29.4322H41.5317V30.8542H33.4677V29.4322ZM33.4677 33.6982H41.5317V35.1202H33.4677V33.6982Z" fill="#2F2F2F"/>
<path d="M53.0037 2.13465L84.1794 2.0186L84.1719 0.0186153L52.9962 0.134669L53.0037 2.13465ZM88.1942 6.00368L88.2687 26.0035L90.2686 25.9961L90.1942 5.99624L88.1942 6.00368ZM84.2836 30.0184L53.1079 30.1345L53.1154 32.1344L84.291 32.0184L84.2836 30.0184ZM49.0931 26.1494L49.0186 6.14952L47.0186 6.15696L47.0931 26.1568L49.0931 26.1494ZM53.1079 30.1345C50.8988 30.1427 49.1013 28.3585 49.0931 26.1494L47.0931 26.1568C47.1054 29.4705 49.8017 32.1468 53.1154 32.1344L53.1079 30.1345ZM88.2687 26.0035C88.2769 28.2127 86.4927 30.0102 84.2836 30.0184L84.291 32.0184C87.6047 32.0061 90.281 29.3098 90.2686 25.9961L88.2687 26.0035ZM84.1794 2.0186C86.3885 2.01038 88.186 3.79456 88.1942 6.00368L90.1942 5.99624C90.1819 2.68255 87.4856 0.00627988 84.1719 0.0186153L84.1794 2.0186ZM52.9962 0.134669C49.6826 0.147004 47.0063 2.84328 47.0186 6.15696L49.0186 6.14952C49.0104 3.94039 50.7946 2.14288 53.0037 2.13465L52.9962 0.134669Z" fill="#2F2F2F"/>
<line x1="55.5" y1="35.5" x2="81.5" y2="35.5" stroke="#2F2F2F" stroke-linecap="round"/>
<path d="M76.024 52.138H73.792V55H71.524V52.138H64.612V50.518L70.822 42.4H73.324L67.474 50.158H71.596V47.62H73.792V50.158H76.024V52.138Z" fill="#2F2F2F"/>
<path d="M69.3692 10.4138L69.4161 23.0137L67.0761 23.0224L67.0365 12.3845L64.3725 12.3944L64.3652 10.4324L69.3692 10.4138Z" fill="#2F2F2F"/>
<path d="M69.3698 10.4138L69.4167 23.0137L67.0767 23.0224L67.0371 12.3845L64.3731 12.3944L64.3658 10.4324L69.3698 10.4138Z" fill="#2F2F2F"/>
<path d="M69.3698 10.4138L69.4167 23.0137L67.0767 23.0224L67.0371 12.3845L64.3731 12.3944L64.3658 10.4324L69.3698 10.4138Z" fill="#2F2F2F"/>
<path d="M553.369 19.0225L553.376 21.0025L544.088 21.0371L544.082 19.4711L549.069 14.7005C549.631 14.1584 550.007 13.689 550.197 13.2923C550.4 12.8836 550.5 12.4812 550.499 12.0852C550.497 11.4972 550.297 11.0479 549.9 10.7374C549.503 10.4269 548.92 10.273 548.152 10.2759C546.868 10.2807 545.886 10.7223 545.205 11.6009L543.562 10.347C544.052 9.68516 544.71 9.17271 545.537 8.80963C546.375 8.4345 547.311 8.24502 548.343 8.24118C549.711 8.23609 550.804 8.55602 551.622 9.20098C552.441 9.84593 552.852 10.7264 552.856 11.8424C552.859 12.5264 552.717 13.1689 552.431 13.77C552.145 14.3711 551.596 15.0571 550.783 15.8281L547.429 19.0447L553.369 19.0225Z" fill="#2F2F2F"/>
<path d="M309.37 9.41375L309.417 22.0137L307.077 22.0224L307.037 11.3845L304.373 11.3944L304.366 9.43238L309.37 9.41375Z" fill="#2F2F2F"/>
</svg>
