<svg width="562" height="54" viewBox="0 0 562 54" fill="none" xmlns="http://www.w3.org/2000/svg">
<path d="M256.918 19.02V21H247.63V19.434L252.634 14.682C253.198 14.142 253.576 13.674 253.768 13.278C253.972 12.87 254.074 12.468 254.074 12.072C254.074 11.484 253.876 11.034 253.48 10.722C253.084 10.41 252.502 10.254 251.734 10.254C250.45 10.254 249.466 10.692 248.782 11.568L247.144 10.308C247.636 9.648 248.296 9.138 249.124 8.778C249.964 8.406 250.9 8.22 251.932 8.22C253.3 8.22 254.392 8.544 255.208 9.192C256.024 9.84 256.432 10.722 256.432 11.838C256.432 12.522 256.288 13.164 256 13.764C255.712 14.364 255.16 15.048 254.344 15.816L250.978 19.02H256.918Z" fill="#2F2F2F"/>
<line x1="239.5" y1="27.5" x2="265.5" y2="27.5" stroke="#2F2F2F" stroke-linecap="round"/>
<path d="M258.024 44.138H255.792V47H253.524V44.138H246.612V42.518L252.822 34.4H255.324L249.474 42.158H253.596V39.62H255.792V42.158H258.024V44.138Z" fill="#2F2F2F"/>
<path d="M269.28 20.3362H282.72V22.7062H269.28V20.3362ZM269.28 27.4462H282.72V29.8162H269.28V27.4462Z" fill="#2F2F2F"/>
<line x1="294.5" y1="27.5" x2="320.5" y2="27.5" stroke="#2F2F2F" stroke-linecap="round"/>
<path d="M313.063 45.02V47H303.775V45.434L308.779 40.682C309.343 40.142 309.721 39.674 309.913 39.278C310.117 38.87 310.219 38.468 310.219 38.072C310.219 37.484 310.021 37.034 309.625 36.722C309.229 36.41 308.647 36.254 307.879 36.254C306.595 36.254 305.611 36.692 304.927 37.568L303.289 36.308C303.781 35.648 304.441 35.138 305.269 34.778C306.109 34.406 307.045 34.22 308.077 34.22C309.445 34.22 310.537 34.544 311.353 35.192C312.169 35.84 312.577 36.722 312.577 37.838C312.577 38.522 312.433 39.164 312.145 39.764C311.857 40.364 311.305 41.048 310.489 41.816L307.123 45.02H313.063Z" fill="#2F2F2F"/>
<path d="M499.024 14.138H496.792V17H494.524V14.138H487.612V12.518L493.822 4.4H496.324L490.474 12.158H494.596V9.62H496.792V12.158H499.024V14.138Z" fill="#2F2F2F"/>
<line x1="480.5" y1="23.5" x2="506.5" y2="23.5" stroke="#2F2F2F" stroke-linecap="round"/>
<path d="M494.016 35.224C494.844 35.224 495.588 35.386 496.248 35.71C496.908 36.022 497.424 36.472 497.796 37.06C498.168 37.648 498.354 38.326 498.354 39.094C498.354 39.91 498.15 40.63 497.742 41.254C497.334 41.866 496.782 42.34 496.086 42.676C495.39 43.012 494.61 43.18 493.746 43.18C492.018 43.18 490.674 42.64 489.714 41.56C488.766 40.48 488.292 38.932 488.292 36.916C488.292 35.5 488.55 34.294 489.066 33.298C489.582 32.29 490.302 31.528 491.226 31.012C492.162 30.484 493.242 30.22 494.466 30.22C495.114 30.22 495.72 30.292 496.284 30.436C496.86 30.568 497.358 30.766 497.778 31.03L496.914 32.794C496.29 32.386 495.492 32.182 494.52 32.182C493.308 32.182 492.36 32.554 491.676 33.298C490.992 34.042 490.65 35.116 490.65 36.52V36.538C491.022 36.106 491.496 35.782 492.072 35.566C492.648 35.338 493.296 35.224 494.016 35.224ZM493.62 41.344C494.352 41.344 494.946 41.152 495.402 40.768C495.858 40.372 496.086 39.85 496.086 39.202C496.086 38.542 495.858 38.02 495.402 37.636C494.946 37.252 494.334 37.06 493.566 37.06C492.81 37.06 492.192 37.264 491.712 37.672C491.244 38.08 491.01 38.596 491.01 39.22C491.01 39.832 491.238 40.342 491.694 40.75C492.162 41.146 492.804 41.344 493.62 41.344Z" fill="#2F2F2F"/>
<path d="M510.28 16.3362H523.72V18.7062H510.28V16.3362ZM510.28 23.4462H523.72V25.8162H510.28V23.4462Z" fill="#2F2F2F"/>
<line x1="535.5" y1="23.5" x2="561.5" y2="23.5" stroke="#2F2F2F" stroke-linecap="round"/>
<path d="M550.301 35.602C551.465 35.746 552.353 36.142 552.965 36.79C553.577 37.438 553.883 38.248 553.883 39.22C553.883 39.952 553.697 40.618 553.325 41.218C552.953 41.818 552.389 42.298 551.633 42.658C550.889 43.006 549.977 43.18 548.897 43.18C547.997 43.18 547.127 43.054 546.287 42.802C545.459 42.538 544.751 42.178 544.163 41.722L545.171 39.904C545.627 40.288 546.179 40.594 546.827 40.822C547.487 41.038 548.165 41.146 548.861 41.146C549.689 41.146 550.337 40.978 550.805 40.642C551.285 40.294 551.525 39.826 551.525 39.238C551.525 38.65 551.297 38.194 550.841 37.87C550.397 37.534 549.713 37.366 548.789 37.366H547.637V35.764L550.499 32.362H544.775V30.4H553.361V31.966L550.301 35.602Z" fill="#2F2F2F"/>
<path d="M17.918 20.02V22H8.63V20.434L13.634 15.682C14.198 15.142 14.576 14.674 14.768 14.278C14.972 13.87 15.074 13.468 15.074 13.072C15.074 12.484 14.876 12.034 14.48 11.722C14.084 11.41 13.502 11.254 12.734 11.254C11.45 11.254 10.466 11.692 9.782 12.568L8.144 11.308C8.636 10.648 9.296 10.138 10.124 9.778C10.964 9.406 11.9 9.22 12.932 9.22C14.3 9.22 15.392 9.544 16.208 10.192C17.024 10.84 17.432 11.722 17.432 12.838C17.432 13.522 17.288 14.164 17 14.764C16.712 15.364 16.16 16.048 15.344 16.816L11.978 20.02H17.918Z" fill="#2F2F2F"/>
<line x1="0.5" y1="28.5" x2="26.5" y2="28.5" stroke="#2F2F2F" stroke-linecap="round"/>
<path d="M16.464 41.376C17.124 41.676 17.628 42.084 17.976 42.6C18.336 43.104 18.516 43.698 18.516 44.382C18.516 45.15 18.3 45.822 17.868 46.398C17.448 46.974 16.848 47.418 16.068 47.73C15.288 48.03 14.382 48.18 13.35 48.18C12.318 48.18 11.412 48.03 10.632 47.73C9.864 47.418 9.27 46.974 8.85 46.398C8.43 45.822 8.22 45.15 8.22 44.382C8.22 43.698 8.394 43.104 8.742 42.6C9.09 42.084 9.588 41.676 10.236 41.376C9.732 41.1 9.342 40.74 9.066 40.296C8.802 39.84 8.67 39.318 8.67 38.73C8.67 38.022 8.862 37.404 9.246 36.876C9.642 36.348 10.194 35.94 10.902 35.652C11.61 35.364 12.426 35.22 13.35 35.22C14.286 35.22 15.108 35.364 15.816 35.652C16.524 35.94 17.076 36.348 17.472 36.876C17.868 37.404 18.066 38.022 18.066 38.73C18.066 39.318 17.928 39.834 17.652 40.278C17.376 40.722 16.98 41.088 16.464 41.376ZM13.35 37.056C12.618 37.056 12.036 37.212 11.604 37.524C11.184 37.836 10.974 38.274 10.974 38.838C10.974 39.378 11.184 39.81 11.604 40.134C12.036 40.446 12.618 40.602 13.35 40.602C14.094 40.602 14.682 40.446 15.114 40.134C15.546 39.81 15.762 39.378 15.762 38.838C15.762 38.274 15.54 37.836 15.096 37.524C14.664 37.212 14.082 37.056 13.35 37.056ZM13.35 46.344C14.214 46.344 14.898 46.164 15.402 45.804C15.906 45.444 16.158 44.946 16.158 44.31C16.158 43.686 15.906 43.194 15.402 42.834C14.898 42.474 14.214 42.294 13.35 42.294C12.486 42.294 11.808 42.474 11.316 42.834C10.824 43.194 10.578 43.686 10.578 44.31C10.578 44.946 10.824 45.444 11.316 45.804C11.808 46.164 12.486 46.344 13.35 46.344Z" fill="#2F2F2F"/>
<path d="M30.2795 21.3362H43.7195V23.7062H30.2795V21.3362ZM30.2795 28.4462H43.7195V30.8162H30.2795V28.4462Z" fill="#2F2F2F"/>
<line x1="55.5" y1="28.5" x2="81.5" y2="28.5" stroke="#2F2F2F" stroke-linecap="round"/>
<path d="M74.024 46.138H71.792V49H69.524V46.138H62.612V44.518L68.822 36.4H71.324L65.474 44.158H69.596V41.62H71.792V44.158H74.024V46.138Z" fill="#2F2F2F"/>
</svg>
