<svg width="177" height="173" viewBox="0 0 177 173" fill="none" xmlns="http://www.w3.org/2000/svg">
<path d="M88.5011 16.8066H88.166V20.7276H88.5011V16.8066Z" fill="black"/>
<path d="M88.5011 85.0039H88.166V88.9248H88.5011V85.0039Z" fill="black"/>
<path d="M72.1121 25.1207L72.4023 24.9531L70.4419 21.5576L70.1517 21.7252L72.1121 25.1207Z" fill="black"/>
<path d="M106.208 84.149L106.498 83.9814L104.538 80.586L104.247 80.7535L106.208 84.149Z" fill="black"/>
<path d="M60.4047 36.9406L60.5723 36.6504L57.1768 34.6899L57.0092 34.9801L60.4047 36.9406Z" fill="black"/>
<path d="M119.483 71.0373L119.65 70.7471L116.255 68.7866L116.087 69.0768L119.483 71.0373Z" fill="black"/>
<path d="M56.1943 52.6982H52.2734V53.0334H56.1943V52.6982Z" fill="black"/>
<path d="M124.392 52.6982H120.471V53.0334H124.392V52.6982Z" fill="black"/>
<path d="M60.5855 69.0705L60.418 68.7803L57.0225 70.7407L57.19 71.0309L60.5855 69.0705Z" fill="black"/>
<path d="M119.634 34.9933L119.467 34.7031L116.071 36.6636L116.239 36.9538L119.634 34.9933Z" fill="black"/>
<path d="M72.4015 80.7818L72.1113 80.6143L70.1509 84.0098L70.4411 84.1773L72.4015 80.7818Z" fill="black"/>
<path d="M106.513 21.7135L106.223 21.5459L104.262 24.9414L104.552 25.109L106.513 21.7135Z" fill="black"/>
<path d="M84.6435 13.9602V13.2229H85.6154V9.53661C85.2467 9.70417 84.9116 9.83822 84.543 9.97227V9.06744C84.9116 8.96691 85.3137 8.76583 85.7159 8.53125H86.5537V13.2229H87.5255V13.9602H84.6435Z" fill="black"/>
<path d="M90.5073 8.46222C91.01 8.46222 91.4121 8.62978 91.7138 8.93139C92.0154 9.233 92.1494 9.66866 92.1494 10.2384C92.1494 10.3724 92.1494 10.4729 92.1159 10.5735C92.0824 10.674 92.0824 10.7746 92.0489 10.8751C92.0154 10.9756 91.9818 11.0427 91.9148 11.1432C91.8478 11.2437 91.8143 11.3107 91.7808 11.3778C91.7473 11.4448 91.6802 11.5118 91.6132 11.6124C91.5462 11.7129 91.4792 11.7799 91.4457 11.8134C91.4121 11.8469 91.3451 11.914 91.2446 12.0145L90.1722 13.1539H92.1494V13.9247H88.9993V13.2544L90.5743 11.5118C90.7084 11.3778 90.7754 11.2772 90.8424 11.2102C90.876 11.1432 90.943 11.0762 91.0435 10.9756C91.1105 10.8751 91.1776 10.7746 91.2111 10.741C91.2446 10.674 91.2781 10.607 91.2781 10.5065C91.3116 10.4059 91.3116 10.3389 91.3116 10.2384C91.3116 10.1713 91.3116 10.0708 91.2781 9.93675C91.2446 9.80271 91.2111 9.66866 91.1776 9.60163C91.1105 9.5011 91.077 9.43407 90.9765 9.36705C90.9095 9.30002 90.8089 9.26651 90.7419 9.26651C90.6749 9.233 90.5743 9.233 90.4738 9.233C90.4068 9.233 90.3398 9.233 90.2727 9.26651C90.2057 9.26651 90.1387 9.30002 90.0717 9.30002C90.0046 9.33354 89.9376 9.33354 89.8706 9.36705C89.8036 9.40056 89.7365 9.40056 89.6695 9.43407C89.6025 9.46758 89.569 9.5011 89.502 9.5011C89.4349 9.53461 89.4014 9.56812 89.3679 9.56812C89.3344 9.60163 89.3009 9.60163 89.2674 9.63514C89.2339 9.66866 89.2004 9.66866 89.2004 9.66866H89.1668L88.8652 8.93139C88.8987 8.93139 88.8987 8.89788 88.9323 8.86437C88.9658 8.83086 89.0328 8.79734 89.1668 8.73032C89.3009 8.6633 89.4014 8.62978 89.5355 8.56276C89.6695 8.52925 89.8371 8.46222 90.0046 8.42871C90.1387 8.46222 90.3062 8.46222 90.5073 8.46222Z" fill="black"/>
<path d="M88.1296 97.5373C87.6939 97.5373 87.3253 97.4367 87.0237 97.2021C86.7221 96.9676 86.4875 96.6659 86.3534 96.2638C86.2194 95.8616 86.1523 95.3925 86.1523 94.8563C86.1523 94.4541 86.1859 94.0855 86.2864 93.7169C86.3869 93.3818 86.521 93.0466 86.6885 92.7785C86.8561 92.5104 87.0907 92.3094 87.3923 92.1418C87.6604 91.9743 87.9955 91.9072 88.3306 91.9072C88.9003 91.9072 89.3695 92.0748 89.7046 92.3764L89.403 93.0801C89.0679 92.8121 88.7328 92.7115 88.3306 92.7115C87.9955 92.7115 87.7274 92.8791 87.4928 93.1807C87.2582 93.5158 87.1577 93.918 87.1242 94.3871C87.3923 94.0185 87.7609 93.8174 88.1966 93.8174C88.7328 93.8174 89.1684 93.985 89.4701 94.3201C89.7717 94.6552 89.9392 95.0909 89.9392 95.6271C89.9392 96.1633 89.7717 96.5989 89.4365 96.9675C89.1014 97.3697 88.6658 97.5373 88.1296 97.5373ZM88.0961 96.733C88.3641 96.733 88.5652 96.6324 88.7328 96.4314C88.9003 96.2303 88.9674 95.9957 88.9674 95.6941C88.9674 95.3925 88.9003 95.1244 88.7328 94.9568C88.5987 94.7558 88.3641 94.6552 88.0961 94.6552C87.7944 94.6552 87.5599 94.7558 87.3923 94.9568C87.2247 95.1579 87.1242 95.3925 87.1242 95.7276C87.1242 95.8952 87.1577 96.0292 87.1912 96.1633C87.2582 96.2973 87.3253 96.3978 87.3923 96.4984C87.4928 96.5989 87.5934 96.6324 87.6939 96.6995C87.8615 96.6995 87.9955 96.733 88.0961 96.733Z" fill="black"/>
<path d="M47.2791 55.4793C46.877 55.4793 46.4078 55.3453 45.8716 55.1107L46.2067 54.3399C46.5419 54.541 46.8435 54.675 47.1786 54.675C47.3461 54.675 47.5137 54.6415 47.6477 54.5745C47.7818 54.5075 47.9158 54.4069 48.0499 54.3064C48.1504 54.1724 48.251 54.0048 48.318 53.8037C48.385 53.6027 48.4185 53.3346 48.4185 53.0665V52.9659C48.1839 53.301 47.8153 53.4686 47.3461 53.4686C46.8099 53.4686 46.4078 53.301 46.0727 52.9659C45.7711 52.6308 45.6035 52.2287 45.6035 51.6925C45.6035 51.1563 45.7711 50.7206 46.1062 50.3855C46.4413 50.0504 46.9105 49.8828 47.4467 49.8828C48.0499 49.8828 48.5191 50.1174 48.8542 50.5531C49.1893 50.9887 49.3569 51.659 49.3569 52.5303C49.3569 53.1 49.2898 53.6362 49.1223 54.0718C48.9547 54.5075 48.7201 54.8761 48.4185 55.1107C48.0834 55.3788 47.7148 55.4793 47.2791 55.4793ZM47.4132 52.6978C47.7148 52.6978 47.9494 52.5973 48.1169 52.4297C48.2845 52.2622 48.385 51.9941 48.385 51.6254C48.385 51.3573 48.318 51.1563 48.1504 50.9552C47.9829 50.7876 47.7818 50.6871 47.4802 50.6871C47.1786 50.6871 46.9775 50.7876 46.7764 50.9552C46.6089 51.1563 46.5083 51.3909 46.5083 51.6925C46.5083 51.9941 46.5754 52.2287 46.7429 52.3962C46.9105 52.5973 47.1451 52.6978 47.4132 52.6978Z" fill="black"/>
<path d="M129.617 55.5132C129.416 55.5132 129.215 55.5132 129.014 55.4797C128.813 55.4462 128.679 55.4127 128.545 55.3792C128.411 55.3456 128.31 55.2786 128.21 55.2451C128.109 55.2116 128.042 55.1446 128.009 55.1446L127.942 55.1111L128.243 54.4073C128.277 54.4408 128.344 54.4743 128.444 54.5078C128.545 54.5414 128.679 54.6084 128.914 54.6754C129.115 54.7424 129.316 54.7759 129.517 54.7759C129.852 54.7759 130.12 54.7089 130.288 54.5414C130.455 54.3738 130.556 54.1727 130.556 53.9046C130.556 53.6365 130.422 53.4019 130.187 53.2679C129.952 53.1338 129.617 53.0668 129.182 53.0668H129.048H128.813V52.2625H129.081C129.55 52.2625 129.885 52.1955 130.087 52.0615C130.288 51.9274 130.388 51.7263 130.388 51.3912C130.388 51.1901 130.288 51.0226 130.12 50.922C129.919 50.8215 129.718 50.7545 129.483 50.7545C129.383 50.7545 129.249 50.7545 129.148 50.788C129.048 50.8215 128.947 50.8215 128.847 50.855C128.746 50.8885 128.679 50.922 128.646 50.9556C128.579 50.9891 128.545 51.0226 128.478 51.0561C128.411 51.0896 128.377 51.1231 128.344 51.1231L127.908 50.4529C128.21 50.2518 128.444 50.1178 128.679 50.0507C128.914 49.9837 129.215 49.9502 129.584 49.9502C129.818 49.9502 130.02 49.9837 130.221 50.0507C130.422 50.1178 130.623 50.1848 130.79 50.3188C130.958 50.4194 131.092 50.5869 131.192 50.7545C131.293 50.922 131.326 51.1566 131.326 51.3912C131.326 51.5923 131.293 51.7598 131.226 51.9274C131.159 52.095 131.058 52.2625 130.891 52.3966C130.723 52.5306 130.556 52.6312 130.321 52.6647C130.69 52.7317 130.958 52.8658 131.159 53.1338C131.36 53.3684 131.461 53.67 131.461 53.9717C131.461 54.2062 131.427 54.4408 131.326 54.6419C131.226 54.843 131.092 55.0105 130.924 55.1446C130.757 55.2786 130.556 55.3792 130.355 55.4462C130.087 55.4797 129.852 55.5132 129.617 55.5132Z" fill="black"/>
<path d="M108.306 20.4257V19.6885H109.277V16.0021C108.909 16.1697 108.574 16.3037 108.205 16.4378V15.5665C108.574 15.4659 108.976 15.2649 109.378 15.0303H110.216V19.722H111.188V20.4592H108.306V20.4257Z" fill="black"/>
<path d="M122.882 27.8655C123.385 27.8655 123.787 28.0331 124.089 28.3347C124.39 28.6363 124.524 29.072 124.524 29.6417C124.524 29.7757 124.524 29.8763 124.491 29.9768C124.457 30.0773 124.457 30.1779 124.424 30.2784C124.39 30.3789 124.357 30.446 124.29 30.5465C124.223 30.647 124.189 30.7141 124.156 30.7811C124.122 30.8481 124.055 30.9151 123.988 31.0157C123.921 31.1162 123.854 31.1832 123.821 31.2167C123.787 31.2503 123.72 31.3173 123.62 31.4178L122.547 32.5572H124.524V33.328H121.374V32.6578L122.949 30.9151C123.083 30.7811 123.15 30.6806 123.217 30.6135C123.251 30.5465 123.318 30.4795 123.419 30.3789C123.486 30.2784 123.553 30.1779 123.586 30.1444C123.62 30.0773 123.653 30.0103 123.653 29.9098C123.687 29.8092 123.687 29.7422 123.687 29.6417C123.687 29.5747 123.687 29.4741 123.653 29.3401C123.62 29.206 123.586 29.072 123.553 29.005C123.486 28.9044 123.452 28.8374 123.351 28.7704C123.284 28.7033 123.184 28.6698 123.117 28.6698C123.05 28.6363 122.949 28.6363 122.849 28.6363C122.782 28.6363 122.715 28.6363 122.648 28.6698C122.581 28.6698 122.514 28.7033 122.447 28.7033C122.38 28.7369 122.313 28.7369 122.246 28.7704C122.179 28.8039 122.112 28.8039 122.045 28.8374C121.978 28.8709 121.944 28.9044 121.877 28.9044C121.81 28.9379 121.776 28.9714 121.743 28.9714C121.709 29.005 121.676 29.005 121.642 29.0385C121.609 29.072 121.575 29.072 121.575 29.072H121.542L121.24 28.3347C121.274 28.3347 121.274 28.3012 121.307 28.2677C121.341 28.2342 121.408 28.2007 121.542 28.1336C121.676 28.0666 121.776 28.0331 121.91 27.9661C122.045 27.9326 122.212 27.8655 122.38 27.832C122.514 27.8991 122.681 27.8655 122.882 27.8655Z" fill="black"/>
<path d="M123.621 77.7314V76.3239H121.342V75.6201L123.52 72.3359H124.592V75.5866H125.43V76.3239H124.592V77.7314H123.621ZM122.347 75.5531H123.621V73.5089C123.554 73.6094 123.151 74.2796 122.347 75.5531Z" fill="black"/>
<path d="M109.68 90.9019C109.378 90.9019 109.077 90.8349 108.775 90.7008C108.473 90.5668 108.205 90.3992 107.971 90.1647L108.473 89.4609C108.641 89.662 108.842 89.8295 109.043 89.9301C109.244 90.0306 109.479 90.0976 109.68 90.0976C109.948 90.0976 110.182 89.9971 110.384 89.8295C110.585 89.662 110.685 89.3939 110.685 89.0587C110.685 88.7907 110.618 88.5561 110.484 88.3885C110.35 88.1874 110.182 88.1204 109.948 88.1204C109.646 88.1204 109.445 88.1874 109.311 88.355L108.373 88.2209V85.4395H111.389V86.2437H109.211L109.177 87.6177C109.345 87.3832 109.68 87.2826 110.149 87.2826C110.551 87.2826 110.92 87.4502 111.221 87.8188C111.523 88.1539 111.657 88.5896 111.657 89.1258C111.657 89.3604 111.624 89.5949 111.556 89.796C111.489 89.9971 111.389 90.1646 111.255 90.2987C111.121 90.4327 110.987 90.5668 110.819 90.6673C110.652 90.7679 110.484 90.8349 110.283 90.9019C110.082 90.8684 109.881 90.9019 109.68 90.9019Z" fill="black"/>
<path d="M65.0742 90.8017L67.1185 86.177H64.4375V85.4062H68.1909V86.1435L66.0461 90.8352H65.0742V90.8017Z" fill="black"/>
<path d="M53.6459 77.8989C53.2773 77.8989 52.9757 77.8319 52.7076 77.7314C52.4395 77.5973 52.2049 77.4298 52.0373 77.1952C51.8698 76.9606 51.8027 76.6925 51.8027 76.3574C51.8027 76.0558 51.8698 75.7877 52.0373 75.5531C52.2049 75.3185 52.4395 75.1174 52.7076 74.9834C52.1714 74.6818 51.9033 74.2461 51.9033 73.7434C51.9033 73.3078 52.0708 72.9392 52.3724 72.7046C52.7076 72.4365 53.1097 72.3359 53.6124 72.3359C54.1486 72.3359 54.5842 72.47 54.8858 72.7381C55.1875 73.0062 55.355 73.3748 55.355 73.8105C55.355 74.3467 55.0869 74.7823 54.5507 75.0169C54.8188 75.1509 55.0199 75.352 55.1875 75.5866C55.355 75.8547 55.4555 76.1228 55.4555 76.3909C55.4555 76.6925 55.355 76.9941 55.1875 77.2287C55.0199 77.4633 54.7853 77.6308 54.5172 77.7649C54.2826 77.8654 53.981 77.8989 53.6459 77.8989ZM53.6459 77.0947C53.914 77.0947 54.1486 77.0276 54.2826 76.8936C54.4502 76.7595 54.5172 76.5585 54.5172 76.2904C54.5172 76.0893 54.4502 75.8882 54.2826 75.6871C54.1151 75.4861 53.914 75.3855 53.6794 75.3185C53.4113 75.3855 53.2102 75.4861 53.0427 75.6871C52.8751 75.8547 52.7746 76.0893 52.7746 76.3239C52.7746 76.5585 52.8416 76.7595 53.0092 76.8936C53.1432 77.0276 53.3778 77.0947 53.6459 77.0947ZM53.6459 74.6483C53.8805 74.5812 54.0816 74.4807 54.2156 74.3132C54.3497 74.1791 54.4167 73.978 54.4167 73.777C54.4167 73.5759 54.3497 73.4418 54.1821 73.3413C54.048 73.2408 53.847 73.1737 53.6124 73.1737C53.3778 73.1737 53.1767 73.2408 53.0427 73.3413C52.9086 73.4418 52.8416 73.6094 52.8416 73.844C52.8416 74.0451 52.9086 74.2126 53.0427 74.3802C53.2102 74.4472 53.3778 74.5812 53.6459 74.6483Z" fill="black"/>
<path d="M48.5537 33.6298V32.8925H49.5255V29.2062C49.1569 29.3738 48.8218 29.5078 48.4531 29.6419V28.7706C48.8218 28.67 49.2239 28.469 49.626 28.2344H50.4638V32.9261H51.4357V33.6633H48.5537V33.6298Z" fill="black"/>
<path d="M54.586 33.7306C53.9828 33.7306 53.5136 33.4625 53.1785 32.9598C52.8434 32.4572 52.6758 31.7534 52.6758 30.8821C52.6758 30.0108 52.8434 29.3405 53.1785 28.8379C53.5136 28.3687 53.9828 28.1006 54.586 28.1006C55.1892 28.1006 55.6584 28.3352 55.9935 28.8379C56.3287 29.3405 56.4962 30.0108 56.4962 30.8486C56.4962 31.4183 56.4292 31.921 56.2951 32.3231C56.1611 32.7588 55.9265 33.0604 55.6584 33.3285C55.3233 33.5966 54.9882 33.7306 54.586 33.7306ZM54.586 32.8928C55.1892 32.8928 55.5244 32.2226 55.5244 30.8486C55.5244 30.5805 55.5244 30.3459 55.4909 30.1113C55.4573 29.8767 55.4238 29.6757 55.3568 29.5081C55.2898 29.307 55.1892 29.173 55.0552 29.0724C54.9212 28.9719 54.7871 28.9049 54.6195 28.9049C54.452 28.9049 54.2844 28.9719 54.1504 29.0724C54.0163 29.173 53.9158 29.3405 53.8488 29.5081C53.7817 29.7092 53.7147 29.9102 53.6812 30.1113C53.6477 30.3459 53.6477 30.5805 53.6477 30.8486C53.6477 31.1502 53.6477 31.4183 53.6812 31.6529C53.7147 31.8874 53.7482 32.0885 53.8488 32.2896C53.9158 32.4907 54.0163 32.6247 54.1504 32.7252C54.2509 32.8593 54.4185 32.8928 54.586 32.8928Z" fill="black"/>
<path d="M63.5341 19.9905V19.2532H64.506V15.5669C64.1373 15.7344 63.8022 15.8685 63.4336 16.0025V15.0977C63.8022 14.9972 64.2044 14.7961 64.6065 14.5615H65.4443V19.2532H66.4162V19.9905H63.5341Z" fill="black"/>
<path d="M68.2939 19.9905V19.2532H69.2657V15.5669C68.8971 15.7344 68.562 15.8685 68.1934 16.0025V15.0977C68.562 14.9972 68.9641 14.7961 69.3663 14.5615H70.2041V19.2532H71.1759V19.9905H68.2939Z" fill="black"/>
<path d="M88.3293 55.1107C89.5693 55.1107 90.5746 54.1055 90.5746 52.8654C90.5746 51.6254 89.5693 50.6201 88.3293 50.6201C87.0892 50.6201 86.084 51.6254 86.084 52.8654C86.084 54.1055 87.0892 55.1107 88.3293 55.1107Z" fill="url(#paint0_radial_1_6682)"/>
<path d="M92.605 54.8861C92.3322 55.3477 91.7237 55.4552 91.2333 55.1653L70 42.6152L70.9549 40.9997L92.1882 53.5498C92.6786 53.8396 92.8779 54.4246 92.605 54.8861Z" fill="black"/>
<path d="M112.585 38.0301L112.456 37.8206L112.244 37.9461L81.3697 56.2691C80.9799 56.4933 80.9657 56.9663 81.1445 57.2793C81.3388 57.6193 81.7875 57.7839 82.1559 57.5734L82.1559 57.5734L82.1594 57.5713L113.036 39.2474L113.254 39.1178L113.121 38.9014L112.585 38.0301Z" fill="#0E80A4" stroke="#0E80A4" stroke-width="0.5"/>
<path d="M88.3309 54.4402C89.2008 54.4402 89.906 53.735 89.906 52.8651C89.906 51.9952 89.2008 51.29 88.3309 51.29C87.461 51.29 86.7559 51.9952 86.7559 52.8651C86.7559 53.735 87.461 54.4402 88.3309 54.4402Z" fill="#0E80A4"/>
<path d="M88.5 103C116.114 103 138.5 80.6142 138.5 53C138.5 25.3858 116.114 3 88.5 3C60.8858 3 38.5 25.3858 38.5 53C38.5 80.6142 60.8858 103 88.5 103Z" stroke="#0E80A4" stroke-width="5" stroke-miterlimit="10"/>
<path d="M6 138C6 135.239 8.23858 133 11 133H101C103.761 133 106 135.239 106 138V168C106 170.761 103.761 173 101 173H11C8.23858 173 6 170.761 6 168V138Z" fill="white"/>
<path d="M26.7044 159.144C25.7084 159.144 24.8204 158.892 24.0404 158.388C23.2724 157.872 22.6664 157.128 22.2224 156.156C21.7784 155.184 21.5564 154.032 21.5564 152.7C21.5564 151.368 21.7784 150.216 22.2224 149.244C22.6664 148.272 23.2724 147.534 24.0404 147.03C24.8204 146.514 25.7084 146.256 26.7044 146.256C27.6884 146.256 28.5644 146.514 29.3324 147.03C30.1124 147.534 30.7244 148.272 31.1684 149.244C31.6124 150.216 31.8344 151.368 31.8344 152.7C31.8344 154.032 31.6124 155.184 31.1684 156.156C30.7244 157.128 30.1124 157.872 29.3324 158.388C28.5644 158.892 27.6884 159.144 26.7044 159.144ZM26.7044 157.542C27.7124 157.542 28.5164 157.128 29.1164 156.3C29.7284 155.472 30.0344 154.272 30.0344 152.7C30.0344 151.128 29.7284 149.928 29.1164 149.1C28.5164 148.272 27.7124 147.858 26.7044 147.858C25.6844 147.858 24.8684 148.272 24.2564 149.1C23.6564 149.928 23.3564 151.128 23.3564 152.7C23.3564 154.272 23.6564 155.472 24.2564 156.3C24.8684 157.128 25.6844 157.542 26.7044 157.542ZM37.4155 146.4V159H35.6335V147.966H32.7895V146.4H37.4155Z" fill="#369CB7"/>
<path d="M56.0129 151.836C55.6769 151.836 55.3889 151.722 55.1489 151.494C54.9089 151.254 54.7889 150.954 54.7889 150.594C54.7889 150.246 54.9089 149.958 55.1489 149.73C55.3889 149.49 55.6769 149.37 56.0129 149.37C56.3489 149.37 56.6309 149.484 56.8589 149.712C57.0869 149.94 57.2009 150.234 57.2009 150.594C57.2009 150.954 57.0809 151.254 56.8409 151.494C56.6129 151.722 56.3369 151.836 56.0129 151.836ZM56.0129 159.108C55.6769 159.108 55.3889 158.994 55.1489 158.766C54.9089 158.526 54.7889 158.226 54.7889 157.866C54.7889 157.518 54.9089 157.23 55.1489 157.002C55.3889 156.762 55.6769 156.642 56.0129 156.642C56.3489 156.642 56.6309 156.756 56.8589 156.984C57.0869 157.212 57.2009 157.506 57.2009 157.866C57.2009 158.226 57.0809 158.526 56.8409 158.766C56.6129 158.994 56.3369 159.108 56.0129 159.108Z" fill="#369CB7"/>
<path d="M77.436 146.4V159H75.654V147.966H72.81V146.4H77.436ZM85.3401 159.144C84.3441 159.144 83.4561 158.892 82.6761 158.388C81.9081 157.872 81.3021 157.128 80.8581 156.156C80.4141 155.184 80.1921 154.032 80.1921 152.7C80.1921 151.368 80.4141 150.216 80.8581 149.244C81.3021 148.272 81.9081 147.534 82.6761 147.03C83.4561 146.514 84.3441 146.256 85.3401 146.256C86.3241 146.256 87.2001 146.514 87.9681 147.03C88.7481 147.534 89.3601 148.272 89.8041 149.244C90.2481 150.216 90.4701 151.368 90.4701 152.7C90.4701 154.032 90.2481 155.184 89.8041 156.156C89.3601 157.128 88.7481 157.872 87.9681 158.388C87.2001 158.892 86.3241 159.144 85.3401 159.144ZM85.3401 157.542C86.3481 157.542 87.1521 157.128 87.7521 156.3C88.3641 155.472 88.6701 154.272 88.6701 152.7C88.6701 151.128 88.3641 149.928 87.7521 149.1C87.1521 148.272 86.3481 147.858 85.3401 147.858C84.3201 147.858 83.5041 148.272 82.8921 149.1C82.2921 149.928 81.9921 151.128 81.9921 152.7C81.9921 154.272 82.2921 155.472 82.8921 156.3C83.5041 157.128 84.3201 157.542 85.3401 157.542Z" fill="#369CB7"/>
<path d="M11 134H101V132H11V134ZM105 138V168H107V138H105ZM101 172H11V174H101V172ZM7 168V138H5V168H7ZM11 172C8.79086 172 7 170.209 7 168H5C5 171.314 7.68629 174 11 174V172ZM105 168C105 170.209 103.209 172 101 172V174C104.314 174 107 171.314 107 168H105ZM101 134C103.209 134 105 135.791 105 138H107C107 134.686 104.314 132 101 132V134ZM11 132C7.68629 132 5 134.686 5 138H7C7 135.791 8.79086 134 11 134V132Z" fill="#369CB7"/>
<rect x="111.5" y="133.5" width="59" height="39" rx="4.5" fill="white"/>
<path d="M123.245 150.05C124.275 150.05 125.065 150.31 125.615 150.83C126.165 151.34 126.44 152.1 126.44 153.11V158H125.42V156.77C125.18 157.18 124.825 157.5 124.355 157.73C123.895 157.96 123.345 158.075 122.705 158.075C121.825 158.075 121.125 157.865 120.605 157.445C120.085 157.025 119.825 156.47 119.825 155.78C119.825 155.11 120.065 154.57 120.545 154.16C121.035 153.75 121.81 153.545 122.87 153.545H125.375V153.065C125.375 152.385 125.185 151.87 124.805 151.52C124.425 151.16 123.87 150.98 123.14 150.98C122.64 150.98 122.16 151.065 121.7 151.235C121.24 151.395 120.845 151.62 120.515 151.91L120.035 151.115C120.435 150.775 120.915 150.515 121.475 150.335C122.035 150.145 122.625 150.05 123.245 150.05ZM122.87 157.235C123.47 157.235 123.985 157.1 124.415 156.83C124.845 156.55 125.165 156.15 125.375 155.63V154.34H122.9C121.55 154.34 120.875 154.81 120.875 155.75C120.875 156.21 121.05 156.575 121.4 156.845C121.75 157.105 122.24 157.235 122.87 157.235ZM139.173 150.05C140.163 150.05 140.938 150.335 141.498 150.905C142.068 151.475 142.353 152.315 142.353 153.425V158H141.288V153.53C141.288 152.71 141.088 152.085 140.688 151.655C140.298 151.225 139.743 151.01 139.023 151.01C138.203 151.01 137.558 151.265 137.088 151.775C136.618 152.275 136.383 152.97 136.383 153.86V158H135.318V153.53C135.318 152.71 135.118 152.085 134.718 151.655C134.328 151.225 133.768 151.01 133.038 151.01C132.228 151.01 131.583 151.265 131.103 151.775C130.633 152.275 130.398 152.97 130.398 153.86V158H129.333V150.11H130.353V151.55C130.633 151.07 131.023 150.7 131.523 150.44C132.023 150.18 132.598 150.05 133.248 150.05C133.908 150.05 134.478 150.19 134.958 150.47C135.448 150.75 135.813 151.165 136.053 151.715C136.343 151.195 136.758 150.79 137.298 150.5C137.848 150.2 138.473 150.05 139.173 150.05Z" fill="#369CB7"/>
<path d="M154 151L159 156L164 151H154Z" fill="#369CB7"/>
<rect x="111.5" y="133.5" width="59" height="39" rx="4.5" stroke="#369CB7"/>
<defs>
<radialGradient id="paint0_radial_1_6682" cx="0" cy="0" r="1" gradientUnits="userSpaceOnUse" gradientTransform="translate(88.3293 52.8549) scale(2.23489)">
<stop/>
<stop offset="0.3022" stop-color="#050505"/>
<stop offset="0.6568" stop-color="#131312"/>
<stop offset="1" stop-color="#282826"/>
</radialGradient>
</defs>
</svg>
