<svg width="106" height="106" viewBox="0 0 106 106" fill="none" xmlns="http://www.w3.org/2000/svg">
<path d="M53.0011 16.8066H52.666V20.7276H53.0011V16.8066Z" fill="black"/>
<path d="M53.0011 85.0039H52.666V88.9248H53.0011V85.0039Z" fill="black"/>
<path d="M36.6121 25.1207L36.9023 24.9531L34.9419 21.5576L34.6517 21.7252L36.6121 25.1207Z" fill="black"/>
<path d="M70.7078 84.149L70.998 83.9814L69.0376 80.586L68.7474 80.7535L70.7078 84.149Z" fill="black"/>
<path d="M24.9047 36.9406L25.0723 36.6504L21.6768 34.6899L21.5092 34.9801L24.9047 36.9406Z" fill="black"/>
<path d="M83.9828 71.0373L84.1504 70.7471L80.7549 68.7866L80.5873 69.0768L83.9828 71.0373Z" fill="black"/>
<path d="M20.6943 52.6982H16.7734V53.0334H20.6943V52.6982Z" fill="black"/>
<path d="M88.8916 52.6982H84.9707V53.0334H88.8916V52.6982Z" fill="black"/>
<path d="M25.0855 69.0705L24.918 68.7803L21.5225 70.7407L21.69 71.0309L25.0855 69.0705Z" fill="black"/>
<path d="M84.1344 34.9933L83.9668 34.7031L80.5713 36.6636L80.7388 36.9538L84.1344 34.9933Z" fill="black"/>
<path d="M36.9015 80.7818L36.6113 80.6143L34.6509 84.0098L34.9411 84.1773L36.9015 80.7818Z" fill="black"/>
<path d="M71.0129 21.7135L70.7227 21.5459L68.7622 24.9414L69.0524 25.109L71.0129 21.7135Z" fill="black"/>
<path d="M49.1435 13.9602V13.2229H50.1154V9.53661C49.7467 9.70417 49.4116 9.83822 49.043 9.97227V9.06744C49.4116 8.96691 49.8137 8.76583 50.2159 8.53125H51.0537V13.2229H52.0255V13.9602H49.1435Z" fill="black"/>
<path d="M55.0073 8.46222C55.51 8.46222 55.9121 8.62978 56.2138 8.93139C56.5154 9.233 56.6494 9.66866 56.6494 10.2384C56.6494 10.3724 56.6494 10.4729 56.6159 10.5735C56.5824 10.674 56.5824 10.7746 56.5489 10.8751C56.5154 10.9756 56.4818 11.0427 56.4148 11.1432C56.3478 11.2437 56.3143 11.3107 56.2808 11.3778C56.2473 11.4448 56.1802 11.5118 56.1132 11.6124C56.0462 11.7129 55.9792 11.7799 55.9457 11.8134C55.9121 11.8469 55.8451 11.914 55.7446 12.0145L54.6722 13.1539H56.6494V13.9247H53.4993V13.2544L55.0743 11.5118C55.2084 11.3778 55.2754 11.2772 55.3424 11.2102C55.376 11.1432 55.443 11.0762 55.5435 10.9756C55.6105 10.8751 55.6776 10.7746 55.7111 10.741C55.7446 10.674 55.7781 10.607 55.7781 10.5065C55.8116 10.4059 55.8116 10.3389 55.8116 10.2384C55.8116 10.1713 55.8116 10.0708 55.7781 9.93675C55.7446 9.80271 55.7111 9.66866 55.6776 9.60163C55.6105 9.5011 55.577 9.43407 55.4765 9.36705C55.4095 9.30002 55.3089 9.26651 55.2419 9.26651C55.1749 9.233 55.0743 9.233 54.9738 9.233C54.9068 9.233 54.8398 9.233 54.7727 9.26651C54.7057 9.26651 54.6387 9.30002 54.5717 9.30002C54.5046 9.33354 54.4376 9.33354 54.3706 9.36705C54.3036 9.40056 54.2365 9.40056 54.1695 9.43407C54.1025 9.46758 54.069 9.5011 54.002 9.5011C53.9349 9.53461 53.9014 9.56812 53.8679 9.56812C53.8344 9.60163 53.8009 9.60163 53.7674 9.63514C53.7339 9.66866 53.7004 9.66866 53.7004 9.66866H53.6668L53.3652 8.93139C53.3987 8.93139 53.3987 8.89788 53.4323 8.86437C53.4658 8.83086 53.5328 8.79734 53.6668 8.73032C53.8009 8.6633 53.9014 8.62978 54.0355 8.56276C54.1695 8.52925 54.3371 8.46222 54.5046 8.42871C54.6387 8.46222 54.8062 8.46222 55.0073 8.46222Z" fill="black"/>
<path d="M52.6296 97.5373C52.1939 97.5373 51.8253 97.4367 51.5237 97.2021C51.2221 96.9676 50.9875 96.6659 50.8534 96.2638C50.7194 95.8616 50.6523 95.3925 50.6523 94.8563C50.6523 94.4541 50.6859 94.0855 50.7864 93.7169C50.8869 93.3818 51.021 93.0466 51.1885 92.7785C51.3561 92.5104 51.5907 92.3094 51.8923 92.1418C52.1604 91.9743 52.4955 91.9072 52.8306 91.9072C53.4003 91.9072 53.8695 92.0748 54.2046 92.3764L53.903 93.0801C53.5679 92.8121 53.2328 92.7115 52.8306 92.7115C52.4955 92.7115 52.2274 92.8791 51.9928 93.1807C51.7582 93.5158 51.6577 93.918 51.6242 94.3871C51.8923 94.0185 52.2609 93.8174 52.6966 93.8174C53.2328 93.8174 53.6684 93.985 53.9701 94.3201C54.2717 94.6552 54.4392 95.0909 54.4392 95.6271C54.4392 96.1633 54.2717 96.5989 53.9365 96.9675C53.6014 97.3697 53.1658 97.5373 52.6296 97.5373ZM52.5961 96.733C52.8641 96.733 53.0652 96.6324 53.2328 96.4314C53.4003 96.2303 53.4674 95.9957 53.4674 95.6941C53.4674 95.3925 53.4003 95.1244 53.2328 94.9568C53.0987 94.7558 52.8641 94.6552 52.5961 94.6552C52.2944 94.6552 52.0599 94.7558 51.8923 94.9568C51.7247 95.1579 51.6242 95.3925 51.6242 95.7276C51.6242 95.8952 51.6577 96.0292 51.6912 96.1633C51.7582 96.2973 51.8253 96.3978 51.8923 96.4984C51.9928 96.5989 52.0934 96.6324 52.1939 96.6995C52.3615 96.6995 52.4955 96.733 52.5961 96.733Z" fill="black"/>
<path d="M11.7791 55.4793C11.377 55.4793 10.9078 55.3453 10.3716 55.1107L10.7067 54.3399C11.0419 54.541 11.3435 54.675 11.6786 54.675C11.8461 54.675 12.0137 54.6415 12.1477 54.5745C12.2818 54.5075 12.4158 54.4069 12.5499 54.3064C12.6504 54.1724 12.751 54.0048 12.818 53.8037C12.885 53.6027 12.9185 53.3346 12.9185 53.0665V52.9659C12.6839 53.301 12.3153 53.4686 11.8461 53.4686C11.3099 53.4686 10.9078 53.301 10.5727 52.9659C10.2711 52.6308 10.1035 52.2287 10.1035 51.6925C10.1035 51.1563 10.2711 50.7206 10.6062 50.3855C10.9413 50.0504 11.4105 49.8828 11.9467 49.8828C12.5499 49.8828 13.0191 50.1174 13.3542 50.5531C13.6893 50.9887 13.8569 51.659 13.8569 52.5303C13.8569 53.1 13.7898 53.6362 13.6223 54.0718C13.4547 54.5075 13.2201 54.8761 12.9185 55.1107C12.5834 55.3788 12.2148 55.4793 11.7791 55.4793ZM11.9132 52.6978C12.2148 52.6978 12.4494 52.5973 12.6169 52.4297C12.7845 52.2622 12.885 51.9941 12.885 51.6254C12.885 51.3573 12.818 51.1563 12.6504 50.9552C12.4829 50.7876 12.2818 50.6871 11.9802 50.6871C11.6786 50.6871 11.4775 50.7876 11.2764 50.9552C11.1089 51.1563 11.0083 51.3909 11.0083 51.6925C11.0083 51.9941 11.0754 52.2287 11.2429 52.3962C11.4105 52.5973 11.6451 52.6978 11.9132 52.6978Z" fill="black"/>
<path d="M94.1173 55.5132C93.9162 55.5132 93.7152 55.5132 93.5141 55.4797C93.313 55.4462 93.179 55.4127 93.0449 55.3792C92.9109 55.3456 92.8104 55.2786 92.7098 55.2451C92.6093 55.2116 92.5423 55.1446 92.5087 55.1446L92.4417 55.1111L92.7433 54.4073C92.7768 54.4408 92.8439 54.4743 92.9444 54.5078C93.0449 54.5414 93.179 54.6084 93.4136 54.6754C93.6146 54.7424 93.8157 54.7759 94.0168 54.7759C94.3519 54.7759 94.62 54.7089 94.7876 54.5414C94.9551 54.3738 95.0557 54.1727 95.0557 53.9046C95.0557 53.6365 94.9216 53.4019 94.687 53.2679C94.4524 53.1338 94.1173 53.0668 93.6817 53.0668H93.5476H93.313V52.2625H93.5811C94.0503 52.2625 94.3854 52.1955 94.5865 52.0615C94.7876 51.9274 94.8881 51.7263 94.8881 51.3912C94.8881 51.1901 94.7876 51.0226 94.62 50.922C94.4189 50.8215 94.2179 50.7545 93.9833 50.7545C93.8827 50.7545 93.7487 50.7545 93.6481 50.788C93.5476 50.8215 93.4471 50.8215 93.3465 50.855C93.246 50.8885 93.179 50.922 93.1455 50.9556C93.0784 50.9891 93.0449 51.0226 92.9779 51.0561C92.9109 51.0896 92.8774 51.1231 92.8439 51.1231L92.4082 50.4529C92.7098 50.2518 92.9444 50.1178 93.179 50.0507C93.4136 49.9837 93.7152 49.9502 94.0838 49.9502C94.3184 49.9502 94.5195 49.9837 94.7205 50.0507C94.9216 50.1178 95.1227 50.1848 95.2902 50.3188C95.4578 50.4194 95.5918 50.5869 95.6924 50.7545C95.7929 50.922 95.8264 51.1566 95.8264 51.3912C95.8264 51.5923 95.7929 51.7598 95.7259 51.9274C95.6589 52.095 95.5583 52.2625 95.3908 52.3966C95.2232 52.5306 95.0557 52.6312 94.8211 52.6647C95.1897 52.7317 95.4578 52.8658 95.6589 53.1338C95.8599 53.3684 95.9605 53.67 95.9605 53.9717C95.9605 54.2062 95.927 54.4408 95.8264 54.6419C95.7259 54.843 95.5918 55.0105 95.4243 55.1446C95.2567 55.2786 95.0557 55.3792 94.8546 55.4462C94.5865 55.4797 94.3519 55.5132 94.1173 55.5132Z" fill="black"/>
<path d="M72.8056 20.4257V19.6885H73.7775V16.0021C73.4088 16.1697 73.0737 16.3037 72.7051 16.4378V15.5665C73.0737 15.4659 73.4759 15.2649 73.878 15.0303H74.7158V19.722H75.6876V20.4592H72.8056V20.4257Z" fill="black"/>
<path d="M87.3823 27.8655C87.885 27.8655 88.2871 28.0331 88.5888 28.3347C88.8904 28.6363 89.0244 29.072 89.0244 29.6417C89.0244 29.7757 89.0244 29.8763 88.9909 29.9768C88.9574 30.0773 88.9574 30.1779 88.9239 30.2784C88.8904 30.3789 88.8569 30.446 88.7898 30.5465C88.7228 30.647 88.6893 30.7141 88.6558 30.7811C88.6223 30.8481 88.5552 30.9151 88.4882 31.0157C88.4212 31.1162 88.3542 31.1832 88.3207 31.2167C88.2871 31.2503 88.2201 31.3173 88.1196 31.4178L87.0472 32.5572H89.0244V33.328H85.8743V32.6578L87.4493 30.9151C87.5834 30.7811 87.6504 30.6806 87.7174 30.6135C87.751 30.5465 87.818 30.4795 87.9185 30.3789C87.9855 30.2784 88.0526 30.1779 88.0861 30.1444C88.1196 30.0773 88.1531 30.0103 88.1531 29.9098C88.1866 29.8092 88.1866 29.7422 88.1866 29.6417C88.1866 29.5747 88.1866 29.4741 88.1531 29.3401C88.1196 29.206 88.0861 29.072 88.0526 29.005C87.9855 28.9044 87.952 28.8374 87.8515 28.7704C87.7845 28.7033 87.6839 28.6698 87.6169 28.6698C87.5499 28.6363 87.4493 28.6363 87.3488 28.6363C87.2818 28.6363 87.2148 28.6363 87.1477 28.6698C87.0807 28.6698 87.0137 28.7033 86.9467 28.7033C86.8796 28.7369 86.8126 28.7369 86.7456 28.7704C86.6786 28.8039 86.6115 28.8039 86.5445 28.8374C86.4775 28.8709 86.444 28.9044 86.377 28.9044C86.3099 28.9379 86.2764 28.9714 86.2429 28.9714C86.2094 29.005 86.1759 29.005 86.1424 29.0385C86.1089 29.072 86.0754 29.072 86.0754 29.072H86.0418L85.7402 28.3347C85.7737 28.3347 85.7738 28.3012 85.8073 28.2677C85.8408 28.2342 85.9078 28.2007 86.0418 28.1336C86.1759 28.0666 86.2764 28.0331 86.4105 27.9661C86.5445 27.9326 86.7121 27.8655 86.8796 27.832C87.0137 27.8991 87.1813 27.8655 87.3823 27.8655Z" fill="black"/>
<path d="M88.1206 77.7314V76.3239H85.8418V75.6201L88.0201 72.3359H89.0925V75.5866H89.9303V76.3239H89.0925V77.7314H88.1206ZM86.8472 75.5531H88.1206V73.5089C88.0536 73.6094 87.6514 74.2796 86.8472 75.5531Z" fill="black"/>
<path d="M74.1798 90.9019C73.8782 90.9019 73.5766 90.8349 73.275 90.7008C72.9734 90.5668 72.7053 90.3992 72.4707 90.1647L72.9734 89.4609C73.1409 89.662 73.342 89.8295 73.5431 89.9301C73.7442 90.0306 73.9787 90.0976 74.1798 90.0976C74.4479 90.0976 74.6825 89.9971 74.8836 89.8295C75.0846 89.662 75.1852 89.3939 75.1852 89.0587C75.1852 88.7907 75.1182 88.5561 74.9841 88.3885C74.8501 88.1874 74.6825 88.1204 74.4479 88.1204C74.1463 88.1204 73.9452 88.1874 73.8112 88.355L72.8728 88.2209V85.4395H75.8889V86.2437H73.7106L73.6771 87.6177C73.8447 87.3832 74.1798 87.2826 74.649 87.2826C75.0511 87.2826 75.4198 87.4502 75.7214 87.8188C76.023 88.1539 76.157 88.5896 76.157 89.1258C76.157 89.3604 76.1235 89.5949 76.0565 89.796C75.9895 89.9971 75.8889 90.1646 75.7549 90.2987C75.6208 90.4327 75.4868 90.5668 75.3192 90.6673C75.1517 90.7679 74.9841 90.8349 74.783 90.9019C74.582 90.8684 74.3809 90.9019 74.1798 90.9019Z" fill="black"/>
<path d="M29.5742 90.8017L31.6185 86.177H28.9375V85.4062H32.6909V86.1435L30.5461 90.8352H29.5742V90.8017Z" fill="black"/>
<path d="M18.1459 77.8989C17.7773 77.8989 17.4757 77.8319 17.2076 77.7314C16.9395 77.5973 16.7049 77.4298 16.5373 77.1952C16.3698 76.9606 16.3027 76.6925 16.3027 76.3574C16.3027 76.0558 16.3698 75.7877 16.5373 75.5531C16.7049 75.3185 16.9395 75.1174 17.2076 74.9834C16.6714 74.6818 16.4033 74.2461 16.4033 73.7434C16.4033 73.3078 16.5708 72.9392 16.8724 72.7046C17.2076 72.4365 17.6097 72.3359 18.1124 72.3359C18.6486 72.3359 19.0842 72.47 19.3858 72.7381C19.6875 73.0062 19.855 73.3748 19.855 73.8105C19.855 74.3467 19.5869 74.7823 19.0507 75.0169C19.3188 75.1509 19.5199 75.352 19.6875 75.5866C19.855 75.8547 19.9555 76.1228 19.9555 76.3909C19.9555 76.6925 19.855 76.9941 19.6875 77.2287C19.5199 77.4633 19.2853 77.6308 19.0172 77.7649C18.7826 77.8654 18.481 77.8989 18.1459 77.8989ZM18.1459 77.0947C18.414 77.0947 18.6486 77.0276 18.7826 76.8936C18.9502 76.7595 19.0172 76.5585 19.0172 76.2904C19.0172 76.0893 18.9502 75.8882 18.7826 75.6871C18.6151 75.4861 18.414 75.3855 18.1794 75.3185C17.9113 75.3855 17.7102 75.4861 17.5427 75.6871C17.3751 75.8547 17.2746 76.0893 17.2746 76.3239C17.2746 76.5585 17.3416 76.7595 17.5092 76.8936C17.6432 77.0276 17.8778 77.0947 18.1459 77.0947ZM18.1459 74.6483C18.3805 74.5812 18.5816 74.4807 18.7156 74.3132C18.8497 74.1791 18.9167 73.978 18.9167 73.777C18.9167 73.5759 18.8497 73.4418 18.6821 73.3413C18.548 73.2408 18.347 73.1737 18.1124 73.1737C17.8778 73.1737 17.6767 73.2408 17.5427 73.3413C17.4086 73.4418 17.3416 73.6094 17.3416 73.844C17.3416 74.0451 17.4086 74.2126 17.5427 74.3802C17.7102 74.4472 17.8778 74.5812 18.1459 74.6483Z" fill="black"/>
<path d="M13.0537 33.6298V32.8925H14.0255V29.2062C13.6569 29.3738 13.3218 29.5078 12.9531 29.6419V28.7706C13.3218 28.67 13.7239 28.469 14.126 28.2344H14.9638V32.9261H15.9357V33.6633H13.0537V33.6298Z" fill="black"/>
<path d="M19.086 33.7306C18.4828 33.7306 18.0136 33.4625 17.6785 32.9598C17.3433 32.4572 17.1758 31.7534 17.1758 30.8821C17.1758 30.0108 17.3433 29.3405 17.6785 28.8379C18.0136 28.3687 18.4828 28.1006 19.086 28.1006C19.6892 28.1006 20.1584 28.3352 20.4935 28.8379C20.8286 29.3405 20.9962 30.0108 20.9962 30.8486C20.9962 31.4183 20.9291 31.921 20.7951 32.3231C20.661 32.7588 20.4265 33.0604 20.1584 33.3285C19.8232 33.5966 19.4881 33.7306 19.086 33.7306ZM19.086 32.8928C19.6892 32.8928 20.0243 32.2226 20.0243 30.8486C20.0243 30.5805 20.0243 30.3459 19.9908 30.1113C19.9573 29.8767 19.9238 29.6757 19.8567 29.5081C19.7897 29.307 19.6892 29.173 19.5551 29.0724C19.4211 28.9719 19.287 28.9049 19.1195 28.9049C18.9519 28.9049 18.7844 28.9719 18.6503 29.0724C18.5163 29.173 18.4157 29.3405 18.3487 29.5081C18.2817 29.7092 18.2147 29.9102 18.1811 30.1113C18.1476 30.3459 18.1476 30.5805 18.1476 30.8486C18.1476 31.1502 18.1476 31.4183 18.1811 31.6529C18.2147 31.8874 18.2482 32.0885 18.3487 32.2896C18.4157 32.4907 18.5163 32.6247 18.6503 32.7252C18.7508 32.8593 18.9184 32.8928 19.086 32.8928Z" fill="black"/>
<path d="M28.0341 19.9905V19.2532H29.006V15.5669C28.6373 15.7344 28.3022 15.8685 27.9336 16.0025V15.0977C28.3022 14.9972 28.7044 14.7961 29.1065 14.5615H29.9443V19.2532H30.9162V19.9905H28.0341Z" fill="black"/>
<path d="M32.7939 19.9905V19.2532H33.7657V15.5669C33.3971 15.7344 33.062 15.8685 32.6934 16.0025V15.0977C33.062 14.9972 33.4641 14.7961 33.8663 14.5615H34.7041V19.2532H35.6759V19.9905H32.7939Z" fill="black"/>
<path d="M52.8293 55.1107C54.0693 55.1107 55.0746 54.1055 55.0746 52.8654C55.0746 51.6254 54.0693 50.6201 52.8293 50.6201C51.5892 50.6201 50.584 51.6254 50.584 52.8654C50.584 54.1055 51.5892 55.1107 52.8293 55.1107Z" fill="url(#paint0_radial_1_3696)"/>
<path d="M57.105 54.8861C56.8322 55.3477 56.2237 55.4552 55.7333 55.1653L34.5 42.6152L35.4549 40.9997L56.6882 53.5498C57.1786 53.8396 57.3779 54.4246 57.105 54.8861Z" fill="black"/>
<path d="M77.0848 38.0301L76.9559 37.8206L76.7443 37.9461L45.8697 56.2691C45.4799 56.4933 45.4657 56.9663 45.6445 57.2793C45.8388 57.6193 46.2875 57.7839 46.6559 57.5734L46.6559 57.5734L46.6594 57.5713L77.5357 39.2474L77.7542 39.1178L77.621 38.9014L77.0848 38.0301Z" fill="#0E80A4" stroke="#0E80A4" stroke-width="0.5"/>
<path d="M52.8309 54.4402C53.7008 54.4402 54.406 53.735 54.406 52.8651C54.406 51.9952 53.7008 51.29 52.8309 51.29C51.961 51.29 51.2559 51.9952 51.2559 52.8651C51.2559 53.735 51.961 54.4402 52.8309 54.4402Z" fill="#0E80A4"/>
<path d="M53 103C80.6142 103 103 80.6142 103 53C103 25.3858 80.6142 3 53 3C25.3858 3 3 25.3858 3 53C3 80.6142 25.3858 103 53 103Z" stroke="#0E80A4" stroke-width="5" stroke-miterlimit="10"/>
<defs>
<radialGradient id="paint0_radial_1_3696" cx="0" cy="0" r="1" gradientUnits="userSpaceOnUse" gradientTransform="translate(52.8293 52.8549) scale(2.23489)">
<stop/>
<stop offset="0.3022" stop-color="#050505"/>
<stop offset="0.6568" stop-color="#131312"/>
<stop offset="1" stop-color="#282826"/>
</radialGradient>
</defs>
</svg>
