<svg width="110" height="30" viewBox="0 0 110 30" fill="none" xmlns="http://www.w3.org/2000/svg">
<path d="M31.771 8.4V21H29.989V9.966H27.145V8.4H31.771ZM43.3831 19.434V21H34.3291V19.776L39.4591 14.826C40.0831 14.226 40.5031 13.71 40.7191 13.278C40.9351 12.834 41.0431 12.39 41.0431 11.946C41.0431 11.286 40.8091 10.776 40.3411 10.416C39.8851 10.044 39.2251 9.858 38.3611 9.858C36.9691 9.858 35.8951 10.314 35.1391 11.226L33.9151 10.164C34.4071 9.564 35.0491 9.096 35.8411 8.76C36.6451 8.424 37.5391 8.256 38.5231 8.256C39.8431 8.256 40.8931 8.574 41.6731 9.21C42.4531 9.834 42.8431 10.686 42.8431 11.766C42.8431 12.438 42.6991 13.074 42.4111 13.674C42.1231 14.274 41.5771 14.958 40.7731 15.726L36.9211 19.434H43.3831Z" fill="#2F2F2F"/>
<path d="M5 1H66V-1H5V1ZM70 5V25H72V5H70ZM66 29H5V31H66V29ZM1 25V5H-1V25H1ZM5 29C2.79086 29 1 27.2091 1 25H-1C-1 28.3137 1.68629 31 5 31V29ZM70 25C70 27.2091 68.2091 29 66 29V31C69.3137 31 72 28.3137 72 25H70ZM66 1C68.2091 1 70 2.79086 70 5H72C72 1.68629 69.3137 -1 66 -1V1ZM5 -1C1.68629 -1 -1 1.68629 -1 5H1C1 2.79086 2.79086 1 5 1V-1Z" fill="#2F2F2F"/>
<path d="M83.1068 11.32H85.6068V22H83.1068V11.32ZM84.3668 9.56C83.9135 9.56 83.5335 9.42 83.2268 9.14C82.9201 8.84667 82.7668 8.48667 82.7668 8.06C82.7668 7.63333 82.9201 7.28 83.2268 7C83.5335 6.70667 83.9135 6.56 84.3668 6.56C84.8201 6.56 85.2001 6.7 85.5068 6.98C85.8135 7.24667 85.9668 7.58667 85.9668 8C85.9668 8.44 85.8135 8.81333 85.5068 9.12C85.2135 9.41333 84.8335 9.56 84.3668 9.56ZM94.948 11.2C96.2947 11.2 97.3747 11.5933 98.188 12.38C99.0014 13.1667 99.408 14.3333 99.408 15.88V22H96.908V16.2C96.908 15.2667 96.688 14.5667 96.248 14.1C95.808 13.62 95.1814 13.38 94.368 13.38C93.448 13.38 92.7214 13.66 92.188 14.22C91.6547 14.7667 91.388 15.56 91.388 16.6V22H88.888V11.32H91.268V12.7C91.6814 12.2067 92.2014 11.8333 92.828 11.58C93.4547 11.3267 94.1614 11.2 94.948 11.2ZM108.619 14.04V15.46H101.819V14.34L105.399 11.22C105.813 10.8467 106.093 10.5467 106.239 10.32C106.399 10.08 106.479 9.84 106.479 9.6C106.479 9.28 106.333 9.02 106.039 8.82C105.759 8.62 105.333 8.52 104.759 8.52C104.306 8.52 103.899 8.59333 103.539 8.74C103.179 8.88667 102.893 9.10667 102.679 9.4L101.419 8.5C101.766 8.03333 102.233 7.67333 102.819 7.42C103.406 7.15333 104.099 7.02 104.899 7.02C105.953 7.02 106.779 7.24667 107.379 7.7C107.979 8.15333 108.279 8.74667 108.279 9.48C108.279 9.90667 108.173 10.3067 107.959 10.68C107.759 11.0533 107.353 11.5067 106.739 12.04L104.459 14.04H108.619Z" fill="#2F2F2F"/>
</svg>
