<svg width="230" height="154" viewBox="0 0 230 154" fill="none" xmlns="http://www.w3.org/2000/svg">
<rect x="0.25" y="0.25" width="37.8333" height="37.8333" fill="white" stroke="#2F2F2F" stroke-width="0.5"/>
<rect x="0.25" y="38.584" width="37.8333" height="37.8333" fill="white" stroke="#2F2F2F" stroke-width="0.5"/>
<rect x="0.25" y="76.918" width="37.8333" height="37.8333" fill="white" stroke="#2F2F2F" stroke-width="0.5"/>
<rect x="0.25" y="115.252" width="37.8333" height="37.8333" fill="white" stroke="#2F2F2F" stroke-width="0.5"/>
<rect x="191.916" y="0.25" width="37.8333" height="37.8333" fill="white" stroke="#2F2F2F" stroke-width="0.5"/>
<rect x="191.916" y="38.584" width="37.8333" height="37.8333" fill="white" stroke="#2F2F2F" stroke-width="0.5"/>
<rect x="76.916" y="38.584" width="37.8333" height="37.8333" fill="white" stroke="#2F2F2F" stroke-width="0.5"/>
<rect x="38.584" y="0.25" width="37.8333" height="37.8333" fill="#F96161" stroke="#2F2F2F" stroke-width="0.5"/>
<rect x="76.916" y="0.25" width="37.8333" height="37.8333" fill="#F96161" stroke="#2F2F2F" stroke-width="0.5"/>
<rect x="115.25" y="0.25" width="37.8333" height="37.8333" fill="#F96161" stroke="#2F2F2F" stroke-width="0.5"/>
<rect x="153.584" y="0.25" width="37.8333" height="37.8333" fill="#F96161" stroke="#2F2F2F" stroke-width="0.5"/>
<rect x="38.584" y="38.584" width="37.8333" height="37.8333" fill="#F96161" stroke="#2F2F2F" stroke-width="0.5"/>
<rect x="38.584" y="76.918" width="37.8333" height="37.8333" fill="#F96161" stroke="#2F2F2F" stroke-width="0.5"/>
<rect x="38.584" y="115.252" width="37.8333" height="37.8333" fill="#F96161" stroke="#2F2F2F" stroke-width="0.5"/>
<rect x="153.584" y="38.584" width="37.8333" height="37.8333" fill="#F96161" stroke="#2F2F2F" stroke-width="0.5"/>
<rect x="153.584" y="76.918" width="37.8333" height="37.8333" fill="#F96161" stroke="#2F2F2F" stroke-width="0.5"/>
<rect x="153.584" y="115.252" width="37.8333" height="37.8333" fill="#F96161" stroke="#2F2F2F" stroke-width="0.5"/>
<rect x="115.25" y="115.252" width="37.8333" height="37.8333" fill="#F96161" stroke="#2F2F2F" stroke-width="0.5"/>
<rect x="76.916" y="115.252" width="37.8333" height="37.8333" fill="#F96161" stroke="#2F2F2F" stroke-width="0.5"/>
<rect x="76.916" y="76.918" width="37.8333" height="37.8333" fill="white" stroke="#2F2F2F" stroke-width="0.5"/>
<rect x="115.25" y="38.584" width="37.8333" height="37.8333" fill="white" stroke="#2F2F2F" stroke-width="0.5"/>
<rect x="115.25" y="76.918" width="37.8333" height="37.8333" fill="white" stroke="#2F2F2F" stroke-width="0.5"/>
<rect x="191.916" y="76.918" width="37.8333" height="37.8333" fill="white" stroke="#2F2F2F" stroke-width="0.5"/>
<rect x="191.916" y="115.252" width="37.8333" height="37.8333" fill="white" stroke="#2F2F2F" stroke-width="0.5"/>
</svg>
