<svg width="571" height="76" viewBox="0 0 571 76" fill="none" xmlns="http://www.w3.org/2000/svg">
<path d="M0.384857 6.64951C0.0451225 6.98924 0.0451225 7.54006 0.384857 7.87979L5.92115 13.4161C6.26088 13.7558 6.8117 13.7558 7.15143 13.4161C7.49117 13.0763 7.49117 12.5255 7.15143 12.1858L2.23029 7.26465L7.15143 2.3435C7.49117 2.00377 7.49117 1.45295 7.15143 1.11322C6.8117 0.773482 6.26088 0.773482 5.92115 1.11322L0.384857 6.64951ZM570.615 7.87979C570.955 7.54006 570.955 6.98924 570.615 6.64951L565.079 1.11322C564.739 0.773482 564.188 0.773482 563.849 1.11322C563.509 1.45295 563.509 2.00377 563.849 2.3435L568.77 7.26465L563.849 12.1858C563.509 12.5255 563.509 13.0763 563.849 13.4161C564.188 13.7558 564.739 13.7558 565.079 13.4161L570.615 7.87979ZM1 8.13459H570V6.3947H1V8.13459Z" fill="#888888"/>
<line x1="75.8699" y1="1.86994" x2="75.8699" y2="12.8121" stroke="#2F2F2F" stroke-width="1.73989" stroke-linecap="round"/>
<line x1="356.16" y1="2.15993" x2="356.16" y2="12.5221" stroke="#369CB7" stroke-width="2.31985" stroke-linecap="round"/>
<line x1="216.16" y1="2.15993" x2="216.16" y2="12.5221" stroke="#2F2F2F" stroke-width="2.31985" stroke-linecap="round"/>
<line x1="495.87" y1="1.86994" x2="495.87" y2="12.8121" stroke="#2F2F2F" stroke-width="1.73989" stroke-linecap="round"/>
<path d="M498.562 31.4V44H495.646V33.74H493.126V31.4H498.562Z" fill="#2F2F2F"/>
<path d="M76.102 44.216C75.058 44.216 74.128 43.958 73.312 43.442C72.496 42.926 71.854 42.182 71.386 41.21C70.93 40.226 70.702 39.056 70.702 37.7C70.702 36.344 70.93 35.18 71.386 34.208C71.854 33.224 72.496 32.474 73.312 31.958C74.128 31.442 75.058 31.184 76.102 31.184C77.146 31.184 78.076 31.442 78.892 31.958C79.708 32.474 80.344 33.224 80.8 34.208C81.268 35.18 81.502 36.344 81.502 37.7C81.502 39.056 81.268 40.226 80.8 41.21C80.344 42.182 79.708 42.926 78.892 43.442C78.076 43.958 77.146 44.216 76.102 44.216ZM76.102 41.75C76.87 41.75 77.47 41.42 77.902 40.76C78.346 40.1 78.568 39.08 78.568 37.7C78.568 36.32 78.346 35.3 77.902 34.64C77.47 33.98 76.87 33.65 76.102 33.65C75.346 33.65 74.746 33.98 74.302 34.64C73.87 35.3 73.654 36.32 73.654 37.7C73.654 39.08 73.87 40.1 74.302 40.76C74.746 41.42 75.346 41.75 76.102 41.75Z" fill="#2F2F2F"/>
<path d="M218.148 31.4V44H215.808V33.362H213.144V31.4H218.148Z" fill="#2F2F2F"/>
<line x1="203.5" y1="50.5" x2="229.5" y2="50.5" stroke="#2F2F2F" stroke-linecap="round"/>
<path d="M217.156 62.602C218.32 62.746 219.208 63.142 219.82 63.79C220.432 64.438 220.738 65.248 220.738 66.22C220.738 66.952 220.552 67.618 220.18 68.218C219.808 68.818 219.244 69.298 218.488 69.658C217.744 70.006 216.832 70.18 215.752 70.18C214.852 70.18 213.982 70.054 213.142 69.802C212.314 69.538 211.606 69.178 211.018 68.722L212.026 66.904C212.482 67.288 213.034 67.594 213.682 67.822C214.342 68.038 215.02 68.146 215.716 68.146C216.544 68.146 217.192 67.978 217.66 67.642C218.14 67.294 218.38 66.826 218.38 66.238C218.38 65.65 218.152 65.194 217.696 64.87C217.252 64.534 216.568 64.366 215.644 64.366H214.492V62.764L217.354 59.362H211.63V57.4H220.216V58.966L217.156 62.602Z" fill="#2F2F2F"/>
<path d="M360.212 34.4936L360.218 36.0596L351.164 36.0933L351.159 34.8693L356.271 29.9002C356.893 29.2979 357.311 28.7803 357.525 28.3475C357.74 27.9027 357.846 27.4583 357.844 27.0143C357.842 26.3543 357.606 25.8452 357.137 25.487C356.679 25.1167 356.019 24.9331 355.155 24.9363C353.763 24.9415 352.69 25.4015 351.938 26.3163L350.71 25.2589C351.199 24.657 351.84 24.1867 352.63 23.8477C353.433 23.5087 354.327 23.3374 355.311 23.3337C356.631 23.3288 357.682 23.6429 358.464 24.276C359.246 24.8971 359.64 25.7476 359.644 26.8276C359.646 27.4996 359.504 28.1362 359.219 28.7372C358.933 29.3383 358.389 30.0243 357.588 30.7953L353.75 34.5176L360.212 34.4936Z" fill="#2F2F2F"/>
<path d="M340.004 16.1347L371.179 16.0186L371.172 14.0186L339.996 14.1347L340.004 16.1347ZM375.194 20.0037L375.269 40.0036L377.269 39.9961L377.194 19.9963L375.194 20.0037ZM371.284 44.0184L340.108 44.1345L340.115 46.1345L371.291 46.0184L371.284 44.0184ZM336.093 40.1494L336.019 20.1495L334.019 20.157L334.093 40.1568L336.093 40.1494ZM340.108 44.1345C337.899 44.1427 336.101 42.3585 336.093 40.1494L334.093 40.1568C334.105 43.4705 336.802 46.1468 340.115 46.1345L340.108 44.1345ZM375.269 40.0036C375.277 42.2127 373.493 44.0102 371.284 44.0184L371.291 46.0184C374.605 46.0061 377.281 43.3098 377.269 39.9961L375.269 40.0036ZM371.179 16.0186C373.388 16.0104 375.186 17.7946 375.194 20.0037L377.194 19.9963C377.182 16.6826 374.486 14.0063 371.172 14.0186L371.179 16.0186ZM339.996 14.1347C336.683 14.147 334.006 16.8433 334.019 20.157L336.019 20.1495C336.01 17.9404 337.795 16.1429 340.004 16.1347L339.996 14.1347Z" fill="#369CB7"/>
<line x1="342.644" y1="48.6531" x2="368.644" y2="48.6531" stroke="#2F2F2F" stroke-linecap="round"/>
<path d="M356.3 62.7551C357.464 62.8991 358.352 63.2951 358.964 63.9431C359.576 64.5911 359.882 65.4011 359.882 66.3731C359.882 67.1051 359.696 67.7711 359.324 68.3711C358.952 68.9711 358.388 69.4511 357.632 69.8111C356.888 70.1591 355.976 70.3331 354.896 70.3331C353.996 70.3331 353.126 70.2071 352.286 69.9551C351.458 69.6911 350.75 69.3311 350.162 68.8751L351.17 67.0571C351.626 67.4411 352.178 67.7471 352.826 67.9751C353.486 68.1911 354.164 68.2991 354.86 68.2991C355.688 68.2991 356.336 68.1311 356.804 67.7951C357.284 67.4471 357.524 66.9791 357.524 66.3911C357.524 65.8031 357.296 65.3471 356.84 65.0231C356.396 64.6871 355.712 64.5191 354.788 64.5191H353.636V62.9171L356.498 59.5151H350.774V57.5531H359.36V59.1191L356.3 62.7551Z" fill="#2F2F2F"/>
</svg>
