<svg width="570" height="210" viewBox="0 0 570 210" fill="none" xmlns="http://www.w3.org/2000/svg">
<rect x="0.5" y="0.5" width="269" height="209" rx="4.5" stroke="#D0D0D0"/>
<path d="M0 5C0 2.23858 2.23858 0 5 0H265C267.761 0 270 2.23858 270 5V28H0V5Z" fill="#205B64"/>
<path d="M124.43 17.92V20H115.758V8.8H124.222V10.88H118.334V13.312H123.534V15.328H118.334V17.92H124.43ZM134.782 11.392L131.15 20H128.574L124.958 11.392H127.534L129.918 17.248L132.382 11.392H134.782ZM143.998 15.728C143.998 15.76 143.982 15.984 143.95 16.4H137.438C137.555 16.9333 137.833 17.3547 138.27 17.664C138.707 17.9733 139.251 18.128 139.902 18.128C140.35 18.128 140.745 18.064 141.086 17.936C141.438 17.7973 141.763 17.584 142.062 17.296L143.39 18.736C142.579 19.664 141.395 20.128 139.838 20.128C138.867 20.128 138.009 19.9413 137.262 19.568C136.515 19.184 135.939 18.656 135.534 17.984C135.129 17.312 134.926 16.5493 134.926 15.696C134.926 14.8533 135.123 14.096 135.518 13.424C135.923 12.7413 136.473 12.2133 137.166 11.84C137.87 11.456 138.654 11.264 139.518 11.264C140.361 11.264 141.123 11.4453 141.806 11.808C142.489 12.1707 143.022 12.6933 143.406 13.376C143.801 14.048 143.998 14.832 143.998 15.728ZM139.534 13.152C138.969 13.152 138.494 13.312 138.11 13.632C137.726 13.952 137.491 14.3893 137.406 14.944H141.646C141.561 14.4 141.326 13.968 140.942 13.648C140.558 13.3173 140.089 13.152 139.534 13.152ZM150.892 11.264C151.958 11.264 152.817 11.584 153.468 12.224C154.129 12.864 154.46 13.8133 154.46 15.072V20H151.964V15.456C151.964 14.7733 151.814 14.2667 151.516 13.936C151.217 13.5947 150.785 13.424 150.22 13.424C149.59 13.424 149.089 13.6213 148.716 14.016C148.342 14.4 148.156 14.976 148.156 15.744V20H145.66V11.392H148.044V12.4C148.374 12.0373 148.785 11.76 149.276 11.568C149.766 11.3653 150.305 11.264 150.892 11.264Z" fill="white"/>
<path d="M11 43C11 40.2386 13.2386 38 16 38H96C98.7614 38 101 40.2386 101 43V78C101 80.7614 98.7614 83 96 83H16C13.2386 83 11 80.7614 11 78V43Z" fill="#369CB7"/>
<path d="M39.8035 53.756C41.4955 53.756 42.7975 54.302 43.7095 55.394C44.6335 56.486 45.0955 58.034 45.0955 60.038C45.0955 61.442 44.8435 62.642 44.3395 63.638C43.8475 64.622 43.1515 65.372 42.2515 65.888C41.3635 66.392 40.3255 66.644 39.1375 66.644C38.5255 66.644 37.9495 66.584 37.4095 66.464C36.8695 66.332 36.4015 66.146 36.0055 65.906L36.6895 64.502C37.3015 64.898 38.1115 65.096 39.1195 65.096C40.4275 65.096 41.4475 64.694 42.1795 63.89C42.9235 63.074 43.2955 61.892 43.2955 60.344V59.894C42.9355 60.434 42.4375 60.848 41.8015 61.136C41.1655 61.412 40.4515 61.55 39.6595 61.55C38.8315 61.55 38.0875 61.394 37.4275 61.082C36.7795 60.77 36.2695 60.326 35.8975 59.75C35.5375 59.162 35.3575 58.49 35.3575 57.734C35.3575 56.942 35.5495 56.246 35.9335 55.646C36.3295 55.046 36.8635 54.584 37.5355 54.26C38.2075 53.924 38.9635 53.756 39.8035 53.756ZM39.9655 60.092C40.5295 60.092 41.0335 59.984 41.4775 59.768C41.9215 59.552 42.2635 59.258 42.5035 58.886C42.7555 58.514 42.8815 58.1 42.8815 57.644C42.8815 57.2 42.7615 56.798 42.5215 56.438C42.2935 56.066 41.9515 55.772 41.4955 55.556C41.0515 55.328 40.5115 55.214 39.8755 55.214C39.0475 55.214 38.3755 55.436 37.8595 55.88C37.3555 56.324 37.1035 56.918 37.1035 57.662C37.1035 58.406 37.3615 59 37.8775 59.444C38.3935 59.876 39.0895 60.092 39.9655 60.092ZM58.5189 66.5L55.7649 62.846L52.9749 66.5H51.0489L54.8109 61.622L51.2289 56.96H53.1549L55.7829 60.398L58.3929 56.96H60.2829L56.6829 61.622L60.4809 66.5H58.5189ZM74.1305 59.894C74.8505 60.17 75.4025 60.566 75.7865 61.082C76.1705 61.598 76.3625 62.216 76.3625 62.936C76.3625 63.692 76.1585 64.352 75.7505 64.916C75.3425 65.468 74.7605 65.894 74.0045 66.194C73.2485 66.494 72.3605 66.644 71.3405 66.644C70.3325 66.644 69.4505 66.494 68.6945 66.194C67.9505 65.894 67.3745 65.468 66.9665 64.916C66.5585 64.352 66.3545 63.692 66.3545 62.936C66.3545 62.216 66.5405 61.598 66.9125 61.082C67.2965 60.566 67.8485 60.17 68.5685 59.894C67.9925 59.618 67.5545 59.252 67.2545 58.796C66.9545 58.34 66.8045 57.8 66.8045 57.176C66.8045 56.48 66.9905 55.874 67.3625 55.358C67.7465 54.842 68.2805 54.446 68.9645 54.17C69.6485 53.894 70.4405 53.756 71.3405 53.756C72.2525 53.756 73.0505 53.894 73.7345 54.17C74.4305 54.446 74.9645 54.842 75.3365 55.358C75.7205 55.874 75.9125 56.48 75.9125 57.176C75.9125 57.788 75.7565 58.328 75.4445 58.796C75.1445 59.252 74.7065 59.618 74.1305 59.894ZM71.3405 55.214C70.4885 55.214 69.8165 55.4 69.3245 55.772C68.8325 56.132 68.5865 56.624 68.5865 57.248C68.5865 57.872 68.8265 58.364 69.3065 58.724C69.7985 59.084 70.4765 59.264 71.3405 59.264C72.2165 59.264 72.9005 59.084 73.3925 58.724C73.8965 58.364 74.1485 57.872 74.1485 57.248C74.1485 56.624 73.8905 56.132 73.3745 55.772C72.8705 55.4 72.1925 55.214 71.3405 55.214ZM71.3405 65.186C72.3365 65.186 73.1225 64.982 73.6985 64.574C74.2745 64.154 74.5625 63.59 74.5625 62.882C74.5625 62.186 74.2745 61.64 73.6985 61.244C73.1225 60.836 72.3365 60.632 71.3405 60.632C70.3445 60.632 69.5645 60.836 69.0005 61.244C68.4365 61.64 68.1545 62.186 68.1545 62.882C68.1545 63.59 68.4365 64.154 69.0005 64.574C69.5645 64.982 70.3445 65.186 71.3405 65.186Z" fill="white"/>
<path d="M16 39H96V37H16V39ZM100 43V78H102V43H100ZM96 82H16V84H96V82ZM12 78V43H10V78H12ZM16 82C13.7909 82 12 80.2091 12 78H10C10 81.3137 12.6863 84 16 84V82ZM100 78C100 80.2091 98.2091 82 96 82V84C99.3137 84 102 81.3137 102 78H100ZM96 39C98.2091 39 100 40.7909 100 43H102C102 39.6863 99.3137 37 96 37V39ZM16 37C12.6863 37 10 39.6863 10 43H12C12 40.7909 13.7909 39 16 39V37Z" fill="#369CB7"/>
<path d="M111 43C111 40.2386 113.239 38 116 38H196C198.761 38 201 40.2386 201 43V78C201 80.7614 198.761 83 196 83H116C113.239 83 111 80.7614 111 78V43Z" fill="#369CB7"/>
<path d="M139.476 58.922C141.276 58.922 142.596 59.264 143.436 59.948C144.288 60.62 144.714 61.544 144.714 62.72C144.714 63.464 144.534 64.136 144.174 64.736C143.826 65.324 143.292 65.792 142.572 66.14C141.864 66.476 140.988 66.644 139.944 66.644C139.056 66.644 138.198 66.512 137.37 66.248C136.542 65.972 135.858 65.594 135.318 65.114L136.146 63.692C136.578 64.1 137.13 64.43 137.802 64.682C138.474 64.922 139.182 65.042 139.926 65.042C140.874 65.042 141.606 64.844 142.122 64.448C142.65 64.04 142.914 63.488 142.914 62.792C142.914 62.036 142.626 61.466 142.05 61.082C141.474 60.686 140.49 60.488 139.098 60.488H136.236L136.902 53.9H144.012V55.466H138.414L138.072 58.922H139.476ZM157.904 66.5L155.15 62.846L152.36 66.5H150.434L154.196 61.622L150.614 56.96H152.54L155.168 60.398L157.778 56.96H159.668L156.068 61.622L159.866 66.5H157.904ZM176.773 63.404H174.379V66.5H172.633V63.404H165.631V62.144L172.075 53.9H174.019L167.845 61.856H172.687V59.12H174.379V61.856H176.773V63.404Z" fill="white"/>
<path d="M116 39H196V37H116V39ZM200 43V78H202V43H200ZM196 82H116V84H196V82ZM112 78V43H110V78H112ZM116 82C113.791 82 112 80.2091 112 78H110C110 81.3137 112.686 84 116 84V82ZM200 78C200 80.2091 198.209 82 196 82V84C199.314 84 202 81.3137 202 78H200ZM196 39C198.209 39 200 40.7909 200 43H202C202 39.6863 199.314 37 196 37V39ZM116 37C112.686 37 110 39.6863 110 43H112C112 40.7909 113.791 39 116 39V37Z" fill="#369CB7"/>
<rect x="300.5" y="0.5" width="269" height="209" rx="4.5" stroke="#D0D0D0"/>
<path d="M300 5C300 2.23858 302.239 0 305 0H565C567.761 0 570 2.23858 570 5V28H300V5Z" fill="#205B64"/>
<path d="M423.924 20.192C422.761 20.192 421.711 19.9413 420.772 19.44C419.844 18.9387 419.113 18.2507 418.58 17.376C418.057 16.4907 417.796 15.4987 417.796 14.4C417.796 13.3013 418.057 12.3147 418.58 11.44C419.113 10.5547 419.844 9.86133 420.772 9.36C421.711 8.85867 422.761 8.608 423.924 8.608C425.087 8.608 426.132 8.85867 427.06 9.36C427.988 9.86133 428.719 10.5547 429.252 11.44C429.785 12.3147 430.052 13.3013 430.052 14.4C430.052 15.4987 429.785 16.4907 429.252 17.376C428.719 18.2507 427.988 18.9387 427.06 19.44C426.132 19.9413 425.087 20.192 423.924 20.192ZM423.924 17.984C424.585 17.984 425.183 17.8347 425.716 17.536C426.249 17.2267 426.665 16.8 426.964 16.256C427.273 15.712 427.428 15.0933 427.428 14.4C427.428 13.7067 427.273 13.088 426.964 12.544C426.665 12 426.249 11.5787 425.716 11.28C425.183 10.9707 424.585 10.816 423.924 10.816C423.263 10.816 422.665 10.9707 422.132 11.28C421.599 11.5787 421.177 12 420.868 12.544C420.569 13.088 420.42 13.7067 420.42 14.4C420.42 15.0933 420.569 15.712 420.868 16.256C421.177 16.8 421.599 17.2267 422.132 17.536C422.665 17.8347 423.263 17.984 423.924 17.984ZM440.592 8.128V20H438.208V19.008C437.589 19.7547 436.693 20.128 435.52 20.128C434.709 20.128 433.973 19.9467 433.312 19.584C432.661 19.2213 432.149 18.704 431.776 18.032C431.403 17.36 431.216 16.5813 431.216 15.696C431.216 14.8107 431.403 14.032 431.776 13.36C432.149 12.688 432.661 12.1707 433.312 11.808C433.973 11.4453 434.709 11.264 435.52 11.264C436.619 11.264 437.477 11.6107 438.096 12.304V8.128H440.592ZM435.952 18.08C436.581 18.08 437.104 17.8667 437.52 17.44C437.936 17.0027 438.144 16.4213 438.144 15.696C438.144 14.9707 437.936 14.3947 437.52 13.968C437.104 13.5307 436.581 13.312 435.952 13.312C435.312 13.312 434.784 13.5307 434.368 13.968C433.952 14.3947 433.744 14.9707 433.744 15.696C433.744 16.4213 433.952 17.0027 434.368 17.44C434.784 17.8667 435.312 18.08 435.952 18.08ZM451.67 8.128V20H449.286V19.008C448.667 19.7547 447.771 20.128 446.598 20.128C445.787 20.128 445.051 19.9467 444.39 19.584C443.739 19.2213 443.227 18.704 442.854 18.032C442.481 17.36 442.294 16.5813 442.294 15.696C442.294 14.8107 442.481 14.032 442.854 13.36C443.227 12.688 443.739 12.1707 444.39 11.808C445.051 11.4453 445.787 11.264 446.598 11.264C447.697 11.264 448.555 11.6107 449.174 12.304V8.128H451.67ZM447.03 18.08C447.659 18.08 448.182 17.8667 448.598 17.44C449.014 17.0027 449.222 16.4213 449.222 15.696C449.222 14.9707 449.014 14.3947 448.598 13.968C448.182 13.5307 447.659 13.312 447.03 13.312C446.39 13.312 445.862 13.5307 445.446 13.968C445.03 14.3947 444.822 14.9707 444.822 15.696C444.822 16.4213 445.03 17.0027 445.446 17.44C445.862 17.8667 446.39 18.08 447.03 18.08Z" fill="white"/>
<path d="M311 43C311 40.2386 313.239 38 316 38H396C398.761 38 401 40.2386 401 43V78C401 80.7614 398.761 83 396 83H316C313.239 83 311 80.7614 311 78V43Z" fill="#369CB7"/>
<path d="M340.445 53.756C342.137 53.756 343.439 54.302 344.351 55.394C345.275 56.486 345.737 58.034 345.737 60.038C345.737 61.442 345.485 62.642 344.981 63.638C344.489 64.622 343.793 65.372 342.893 65.888C342.005 66.392 340.967 66.644 339.779 66.644C339.167 66.644 338.591 66.584 338.051 66.464C337.511 66.332 337.043 66.146 336.647 65.906L337.331 64.502C337.943 64.898 338.753 65.096 339.761 65.096C341.069 65.096 342.089 64.694 342.821 63.89C343.565 63.074 343.937 61.892 343.937 60.344V59.894C343.577 60.434 343.079 60.848 342.443 61.136C341.807 61.412 341.093 61.55 340.301 61.55C339.473 61.55 338.729 61.394 338.069 61.082C337.421 60.77 336.911 60.326 336.539 59.75C336.179 59.162 335.999 58.49 335.999 57.734C335.999 56.942 336.191 56.246 336.575 55.646C336.971 55.046 337.505 54.584 338.177 54.26C338.849 53.924 339.605 53.756 340.445 53.756ZM340.607 60.092C341.171 60.092 341.675 59.984 342.119 59.768C342.563 59.552 342.905 59.258 343.145 58.886C343.397 58.514 343.523 58.1 343.523 57.644C343.523 57.2 343.403 56.798 343.163 56.438C342.935 56.066 342.593 55.772 342.137 55.556C341.693 55.328 341.153 55.214 340.517 55.214C339.689 55.214 339.017 55.436 338.501 55.88C337.997 56.324 337.745 56.918 337.745 57.662C337.745 58.406 338.003 59 338.519 59.444C339.035 59.876 339.731 60.092 340.607 60.092ZM359.16 66.5L356.406 62.846L353.616 66.5H351.69L355.452 61.622L351.87 56.96H353.796L356.424 60.398L359.034 56.96H360.924L357.324 61.622L361.122 66.5H359.16ZM371.892 59.192C373.128 59.312 374.07 59.696 374.718 60.344C375.366 60.98 375.69 61.796 375.69 62.792C375.69 63.512 375.51 64.166 375.15 64.754C374.79 65.33 374.25 65.792 373.53 66.14C372.822 66.476 371.952 66.644 370.92 66.644C370.02 66.644 369.156 66.512 368.328 66.248C367.5 65.972 366.822 65.594 366.294 65.114L367.122 63.692C367.554 64.1 368.106 64.43 368.778 64.682C369.45 64.922 370.164 65.042 370.92 65.042C371.856 65.042 372.582 64.844 373.098 64.448C373.626 64.052 373.89 63.506 373.89 62.81C373.89 62.114 373.632 61.574 373.116 61.19C372.6 60.806 371.82 60.614 370.776 60.614H369.768V59.354L372.936 55.466H366.87V53.9H375.186V55.124L371.892 59.192Z" fill="white"/>
<path d="M316 39H396V37H316V39ZM400 43V78H402V43H400ZM396 82H316V84H396V82ZM312 78V43H310V78H312ZM316 82C313.791 82 312 80.2091 312 78H310C310 81.3137 312.686 84 316 84V82ZM400 78C400 80.2091 398.209 82 396 82V84C399.314 84 402 81.3137 402 78H400ZM396 39C398.209 39 400 40.7909 400 43H402C402 39.6863 399.314 37 396 37V39ZM316 37C312.686 37 310 39.6863 310 43H312C312 40.7909 313.791 39 316 39V37Z" fill="#369CB7"/>
<path d="M411 43C411 40.2386 413.239 38 416 38H496C498.761 38 501 40.2386 501 43V78C501 80.7614 498.761 83 496 83H416C413.239 83 411 80.7614 411 78V43Z" fill="#369CB7"/>
<path d="M443.987 59.192C445.223 59.312 446.165 59.696 446.813 60.344C447.461 60.98 447.785 61.796 447.785 62.792C447.785 63.512 447.605 64.166 447.245 64.754C446.885 65.33 446.345 65.792 445.625 66.14C444.917 66.476 444.047 66.644 443.015 66.644C442.115 66.644 441.251 66.512 440.423 66.248C439.595 65.972 438.917 65.594 438.389 65.114L439.217 63.692C439.649 64.1 440.201 64.43 440.873 64.682C441.545 64.922 442.259 65.042 443.015 65.042C443.951 65.042 444.677 64.844 445.193 64.448C445.721 64.052 445.985 63.506 445.985 62.81C445.985 62.114 445.727 61.574 445.211 61.19C444.695 60.806 443.915 60.614 442.871 60.614H441.863V59.354L445.031 55.466H438.965V53.9H447.281V55.124L443.987 59.192ZM461.156 66.5L458.402 62.846L455.612 66.5H453.686L457.448 61.622L453.866 56.96H455.792L458.42 60.398L461.03 56.96H462.92L459.32 61.622L463.118 66.5H461.156ZM472.663 58.922C474.463 58.922 475.783 59.264 476.623 59.948C477.475 60.62 477.901 61.544 477.901 62.72C477.901 63.464 477.721 64.136 477.361 64.736C477.013 65.324 476.479 65.792 475.759 66.14C475.051 66.476 474.175 66.644 473.131 66.644C472.243 66.644 471.385 66.512 470.557 66.248C469.729 65.972 469.045 65.594 468.505 65.114L469.333 63.692C469.765 64.1 470.317 64.43 470.989 64.682C471.661 64.922 472.369 65.042 473.113 65.042C474.061 65.042 474.793 64.844 475.309 64.448C475.837 64.04 476.101 63.488 476.101 62.792C476.101 62.036 475.813 61.466 475.237 61.082C474.661 60.686 473.677 60.488 472.285 60.488H469.423L470.089 53.9H477.199V55.466H471.601L471.259 58.922H472.663Z" fill="white"/>
<path d="M416 39H496V37H416V39ZM500 43V78H502V43H500ZM496 82H416V84H496V82ZM412 78V43H410V78H412ZM416 82C413.791 82 412 80.2091 412 78H410C410 81.3137 412.686 84 416 84V82ZM500 78C500 80.2091 498.209 82 496 82V84C499.314 84 502 81.3137 502 78H500ZM496 39C498.209 39 500 40.7909 500 43H502C502 39.6863 499.314 37 496 37V39ZM416 37C412.686 37 410 39.6863 410 43H412C412 40.7909 413.791 39 416 39V37Z" fill="#369CB7"/>
<path d="M311 98C311 95.2386 313.239 93 316 93H396C398.761 93 401 95.2386 401 98V133C401 135.761 398.761 138 396 138H316C313.239 138 311 135.761 311 133V98Z" fill="#369CB7"/>
<path d="M340.076 114.192C341.312 114.312 342.254 114.696 342.902 115.344C343.55 115.98 343.874 116.796 343.874 117.792C343.874 118.512 343.694 119.166 343.334 119.754C342.974 120.33 342.434 120.792 341.714 121.14C341.006 121.476 340.136 121.644 339.104 121.644C338.204 121.644 337.34 121.512 336.512 121.248C335.684 120.972 335.006 120.594 334.478 120.114L335.306 118.692C335.738 119.1 336.29 119.43 336.962 119.682C337.634 119.922 338.348 120.042 339.104 120.042C340.04 120.042 340.766 119.844 341.282 119.448C341.81 119.052 342.074 118.506 342.074 117.81C342.074 117.114 341.816 116.574 341.3 116.19C340.784 115.806 340.004 115.614 338.96 115.614H337.952V114.354L341.12 110.466H335.054V108.9H343.37V110.124L340.076 114.192ZM357.244 121.5L354.49 117.846L351.7 121.5H349.774L353.536 116.622L349.954 111.96H351.88L354.508 115.398L357.118 111.96H359.008L355.408 116.622L359.206 121.5H357.244ZM369.058 108.9V121.5H367.276V110.466H364.432V108.9H369.058ZM375.72 108.9V121.5H373.938V110.466H371.094V108.9H375.72Z" fill="white"/>
<path d="M316 94H396V92H316V94ZM400 98V133H402V98H400ZM396 137H316V139H396V137ZM312 133V98H310V133H312ZM316 137C313.791 137 312 135.209 312 133H310C310 136.314 312.686 139 316 139V137ZM400 133C400 135.209 398.209 137 396 137V139C399.314 139 402 136.314 402 133H400ZM396 94C398.209 94 400 95.7909 400 98H402C402 94.6863 399.314 92 396 92V94ZM316 92C312.686 92 310 94.6863 310 98H312C312 95.7909 313.791 94 316 94V92Z" fill="#369CB7"/>
</svg>
