<svg width="90" height="45" viewBox="0 0 90 45" fill="none" xmlns="http://www.w3.org/2000/svg">
<path d="M0 5C0 2.23858 2.23858 0 5 0H85C87.7614 0 90 2.23858 90 5V40C90 42.7614 87.7614 45 85 45H5C2.23858 45 0 42.7614 0 40V5Z" fill="#369CB7"/>
<path d="M29.0757 21.192C30.3117 21.312 31.2537 21.696 31.9017 22.344C32.5497 22.98 32.8737 23.796 32.8737 24.792C32.8737 25.512 32.6937 26.166 32.3337 26.754C31.9737 27.33 31.4337 27.792 30.7137 28.14C30.0057 28.476 29.1357 28.644 28.1037 28.644C27.2037 28.644 26.3397 28.512 25.5117 28.248C24.6837 27.972 24.0057 27.594 23.4777 27.114L24.3057 25.692C24.7377 26.1 25.2897 26.43 25.9617 26.682C26.6337 26.922 27.3477 27.042 28.1037 27.042C29.0397 27.042 29.7657 26.844 30.2817 26.448C30.8097 26.052 31.0737 25.506 31.0737 24.81C31.0737 24.114 30.8157 23.574 30.2997 23.19C29.7837 22.806 29.0037 22.614 27.9597 22.614H26.9517V21.354L30.1197 17.466H24.0537V15.9H32.3697V17.124L29.0757 21.192ZM46.2445 28.5L43.4905 24.846L40.7005 28.5H38.7745L42.5365 23.622L38.9545 18.96H40.8805L43.5085 22.398L46.1185 18.96H48.0085L44.4085 23.622L48.2065 28.5H46.2445ZM58.0581 15.9V28.5H56.2761V17.466H53.4321V15.9H58.0581ZM64.7202 15.9V28.5H62.9382V17.466H60.0942V15.9H64.7202Z" fill="white"/>
<path d="M5 1H85V-1H5V1ZM89 5V40H91V5H89ZM85 44H5V46H85V44ZM1 40V5H-1V40H1ZM5 44C2.79086 44 1 42.2091 1 40H-1C-1 43.3137 1.68629 46 5 46V44ZM89 40C89 42.2091 87.2091 44 85 44V46C88.3137 46 91 43.3137 91 40H89ZM85 1C87.2091 1 89 2.79086 89 5H91C91 1.68629 88.3137 -1 85 -1V1ZM5 -1C1.68629 -1 -1 1.68629 -1 5H1C1 2.79086 2.79086 1 5 1V-1Z" fill="#369CB7"/>
</svg>
