<svg width="90" height="45" viewBox="0 0 90 45" fill="none" xmlns="http://www.w3.org/2000/svg">
<path d="M0 5C0 2.23858 2.23858 0 5 0H85C87.7614 0 90 2.23858 90 5V40C90 42.7614 87.7614 45 85 45H5C2.23858 45 0 42.7614 0 40V5Z" fill="#369CB7"/>
<path d="M28.4757 20.922C30.2757 20.922 31.5957 21.264 32.4357 21.948C33.2877 22.62 33.7137 23.544 33.7137 24.72C33.7137 25.464 33.5337 26.136 33.1737 26.736C32.8257 27.324 32.2917 27.792 31.5717 28.14C30.8637 28.476 29.9877 28.644 28.9437 28.644C28.0557 28.644 27.1977 28.512 26.3697 28.248C25.5417 27.972 24.8577 27.594 24.3177 27.114L25.1457 25.692C25.5777 26.1 26.1297 26.43 26.8017 26.682C27.4737 26.922 28.1817 27.042 28.9257 27.042C29.8737 27.042 30.6057 26.844 31.1217 26.448C31.6497 26.04 31.9137 25.488 31.9137 24.792C31.9137 24.036 31.6257 23.466 31.0497 23.082C30.4737 22.686 29.4897 22.488 28.0977 22.488H25.2357L25.9017 15.9H33.0117V17.466H27.4137L27.0717 20.922H28.4757ZM46.9036 28.5L44.1496 24.846L41.3596 28.5H39.4336L43.1956 23.622L39.6136 18.96H41.5396L44.1676 22.398L46.7776 18.96H48.6676L45.0676 23.622L48.8656 28.5H46.9036ZM65.7733 25.404H63.3793V28.5H61.6333V25.404H54.6313V24.144L61.0753 15.9H63.0193L56.8453 23.856H61.6873V21.12H63.3793V23.856H65.7733V25.404Z" fill="white"/>
<path d="M5 1H85V-1H5V1ZM89 5V40H91V5H89ZM85 44H5V46H85V44ZM1 40V5H-1V40H1ZM5 44C2.79086 44 1 42.2091 1 40H-1C-1 43.3137 1.68629 46 5 46V44ZM89 40C89 42.2091 87.2091 44 85 44V46C88.3137 46 91 43.3137 91 40H89ZM85 1C87.2091 1 89 2.79086 89 5H91C91 1.68629 88.3137 -1 85 -1V1ZM5 -1C1.68629 -1 -1 1.68629 -1 5H1C1 2.79086 2.79086 1 5 1V-1Z" fill="#369CB7"/>
</svg>
