<svg width="90" height="45" viewBox="0 0 90 45" fill="none" xmlns="http://www.w3.org/2000/svg">
<path d="M0 5C0 2.23858 2.23858 0 5 0H85C87.7614 0 90 2.23858 90 5V40C90 42.7614 87.7614 45 85 45H5C2.23858 45 0 42.7614 0 40V5Z" fill="#369CB7"/>
<path d="M29.4451 15.756C31.1371 15.756 32.4391 16.302 33.3511 17.394C34.2751 18.486 34.7371 20.034 34.7371 22.038C34.7371 23.442 34.4851 24.642 33.9811 25.638C33.4891 26.622 32.7931 27.372 31.8931 27.888C31.0051 28.392 29.9671 28.644 28.7791 28.644C28.1671 28.644 27.5911 28.584 27.0511 28.464C26.5111 28.332 26.0431 28.146 25.6471 27.906L26.3311 26.502C26.9431 26.898 27.7531 27.096 28.7611 27.096C30.0691 27.096 31.0891 26.694 31.8211 25.89C32.5651 25.074 32.9371 23.892 32.9371 22.344V21.894C32.5771 22.434 32.0791 22.848 31.4431 23.136C30.8071 23.412 30.0931 23.55 29.3011 23.55C28.4731 23.55 27.7291 23.394 27.0691 23.082C26.4211 22.77 25.9111 22.326 25.5391 21.75C25.1791 21.162 24.9991 20.49 24.9991 19.734C24.9991 18.942 25.1911 18.246 25.5751 17.646C25.9711 17.046 26.5051 16.584 27.1771 16.26C27.8491 15.924 28.6051 15.756 29.4451 15.756ZM29.6071 22.092C30.1711 22.092 30.6751 21.984 31.1191 21.768C31.5631 21.552 31.9051 21.258 32.1451 20.886C32.3971 20.514 32.5231 20.1 32.5231 19.644C32.5231 19.2 32.4031 18.798 32.1631 18.438C31.9351 18.066 31.5931 17.772 31.1371 17.556C30.6931 17.328 30.1531 17.214 29.5171 17.214C28.6891 17.214 28.0171 17.436 27.5011 17.88C26.9971 18.324 26.7451 18.918 26.7451 19.662C26.7451 20.406 27.0031 21 27.5191 21.444C28.0351 21.876 28.7311 22.092 29.6071 22.092ZM48.1605 28.5L45.4065 24.846L42.6165 28.5H40.6905L44.4525 23.622L40.8705 18.96H42.7965L45.4245 22.398L48.0345 18.96H49.9245L46.3245 23.622L50.1225 28.5H48.1605ZM60.8921 21.192C62.1281 21.312 63.0701 21.696 63.7181 22.344C64.3661 22.98 64.6901 23.796 64.6901 24.792C64.6901 25.512 64.5101 26.166 64.1501 26.754C63.7901 27.33 63.2501 27.792 62.5301 28.14C61.8221 28.476 60.9521 28.644 59.9201 28.644C59.0201 28.644 58.1561 28.512 57.3281 28.248C56.5001 27.972 55.8221 27.594 55.2941 27.114L56.1221 25.692C56.5541 26.1 57.1061 26.43 57.7781 26.682C58.4501 26.922 59.1641 27.042 59.9201 27.042C60.8561 27.042 61.5821 26.844 62.0981 26.448C62.6261 26.052 62.8901 25.506 62.8901 24.81C62.8901 24.114 62.6321 23.574 62.1161 23.19C61.6001 22.806 60.8201 22.614 59.7761 22.614H58.7681V21.354L61.9361 17.466H55.8701V15.9H64.1861V17.124L60.8921 21.192Z" fill="white"/>
<path d="M5 1H85V-1H5V1ZM89 5V40H91V5H89ZM85 44H5V46H85V44ZM1 40V5H-1V40H1ZM5 44C2.79086 44 1 42.2091 1 40H-1C-1 43.3137 1.68629 46 5 46V44ZM89 40C89 42.2091 87.2091 44 85 44V46C88.3137 46 91 43.3137 91 40H89ZM85 1C87.2091 1 89 2.79086 89 5H91C91 1.68629 88.3137 -1 85 -1V1ZM5 -1C1.68629 -1 -1 1.68629 -1 5H1C1 2.79086 2.79086 1 5 1V-1Z" fill="#369CB7"/>
</svg>
