<svg width="90" height="45" viewBox="0 0 90 45" fill="none" xmlns="http://www.w3.org/2000/svg">
<path d="M0 5C0 2.23858 2.23858 0 5 0H85C87.7614 0 90 2.23858 90 5V40C90 42.7614 87.7614 45 85 45H5C2.23858 45 0 42.7614 0 40V5Z" fill="#369CB7"/>
<path d="M32.9868 21.192C34.2228 21.312 35.1648 21.696 35.8128 22.344C36.4608 22.98 36.7848 23.796 36.7848 24.792C36.7848 25.512 36.6048 26.166 36.2448 26.754C35.8848 27.33 35.3448 27.792 34.6248 28.14C33.9168 28.476 33.0468 28.644 32.0148 28.644C31.1148 28.644 30.2508 28.512 29.4228 28.248C28.5948 27.972 27.9168 27.594 27.3888 27.114L28.2168 25.692C28.6488 26.1 29.2008 26.43 29.8728 26.682C30.5448 26.922 31.2588 27.042 32.0148 27.042C32.9508 27.042 33.6768 26.844 34.1928 26.448C34.7208 26.052 34.9848 25.506 34.9848 24.81C34.9848 24.114 34.7268 23.574 34.2108 23.19C33.6948 22.806 32.9148 22.614 31.8708 22.614H30.8628V21.354L34.0308 17.466H27.9648V15.9H36.2808V17.124L32.9868 21.192ZM50.1556 28.5L47.4016 24.846L44.6116 28.5H42.6856L46.4476 23.622L42.8656 18.96H44.7916L47.4196 22.398L50.0296 18.96H51.9196L48.3196 23.622L52.1176 28.5H50.1556ZM61.6632 20.922C63.4632 20.922 64.7832 21.264 65.6232 21.948C66.4752 22.62 66.9012 23.544 66.9012 24.72C66.9012 25.464 66.7212 26.136 66.3612 26.736C66.0132 27.324 65.4792 27.792 64.7592 28.14C64.0512 28.476 63.1752 28.644 62.1312 28.644C61.2432 28.644 60.3852 28.512 59.5572 28.248C58.7292 27.972 58.0452 27.594 57.5052 27.114L58.3332 25.692C58.7652 26.1 59.3172 26.43 59.9892 26.682C60.6612 26.922 61.3692 27.042 62.1132 27.042C63.0612 27.042 63.7932 26.844 64.3092 26.448C64.8372 26.04 65.1012 25.488 65.1012 24.792C65.1012 24.036 64.8132 23.466 64.2372 23.082C63.6612 22.686 62.6772 22.488 61.2852 22.488H58.4232L59.0892 15.9H66.1992V17.466H60.6012L60.2592 20.922H61.6632Z" fill="white"/>
<path d="M5 1H85V-1H5V1ZM89 5V40H91V5H89ZM85 44H5V46H85V44ZM1 40V5H-1V40H1ZM5 44C2.79086 44 1 42.2091 1 40H-1C-1 43.3137 1.68629 46 5 46V44ZM89 40C89 42.2091 87.2091 44 85 44V46C88.3137 46 91 43.3137 91 40H89ZM85 1C87.2091 1 89 2.79086 89 5H91C91 1.68629 88.3137 -1 85 -1V1ZM5 -1C1.68629 -1 -1 1.68629 -1 5H1C1 2.79086 2.79086 1 5 1V-1Z" fill="#369CB7"/>
</svg>
