<svg width="90" height="45" viewBox="0 0 90 45" fill="none" xmlns="http://www.w3.org/2000/svg">
<path d="M0 5C0 2.23858 2.23858 0 5 0H85C87.7614 0 90 2.23858 90 5V40C90 42.7614 87.7614 45 85 45H5C2.23858 45 0 42.7614 0 40V5Z" fill="#369CB7"/>
<path d="M28.8035 15.756C30.4955 15.756 31.7975 16.302 32.7095 17.394C33.6335 18.486 34.0955 20.034 34.0955 22.038C34.0955 23.442 33.8435 24.642 33.3395 25.638C32.8475 26.622 32.1515 27.372 31.2515 27.888C30.3635 28.392 29.3255 28.644 28.1375 28.644C27.5255 28.644 26.9495 28.584 26.4095 28.464C25.8695 28.332 25.4015 28.146 25.0055 27.906L25.6895 26.502C26.3015 26.898 27.1115 27.096 28.1195 27.096C29.4275 27.096 30.4475 26.694 31.1795 25.89C31.9235 25.074 32.2955 23.892 32.2955 22.344V21.894C31.9355 22.434 31.4375 22.848 30.8015 23.136C30.1655 23.412 29.4515 23.55 28.6595 23.55C27.8315 23.55 27.0875 23.394 26.4275 23.082C25.7795 22.77 25.2695 22.326 24.8975 21.75C24.5375 21.162 24.3575 20.49 24.3575 19.734C24.3575 18.942 24.5495 18.246 24.9335 17.646C25.3295 17.046 25.8635 16.584 26.5355 16.26C27.2075 15.924 27.9635 15.756 28.8035 15.756ZM28.9655 22.092C29.5295 22.092 30.0335 21.984 30.4775 21.768C30.9215 21.552 31.2635 21.258 31.5035 20.886C31.7555 20.514 31.8815 20.1 31.8815 19.644C31.8815 19.2 31.7615 18.798 31.5215 18.438C31.2935 18.066 30.9515 17.772 30.4955 17.556C30.0515 17.328 29.5115 17.214 28.8755 17.214C28.0475 17.214 27.3755 17.436 26.8595 17.88C26.3555 18.324 26.1035 18.918 26.1035 19.662C26.1035 20.406 26.3615 21 26.8775 21.444C27.3935 21.876 28.0895 22.092 28.9655 22.092ZM47.5189 28.5L44.7649 24.846L41.9749 28.5H40.0489L43.8109 23.622L40.2289 18.96H42.1549L44.7829 22.398L47.3929 18.96H49.2829L45.6829 23.622L49.4809 28.5H47.5189ZM63.1305 21.894C63.8505 22.17 64.4025 22.566 64.7865 23.082C65.1705 23.598 65.3625 24.216 65.3625 24.936C65.3625 25.692 65.1585 26.352 64.7505 26.916C64.3425 27.468 63.7605 27.894 63.0045 28.194C62.2485 28.494 61.3605 28.644 60.3405 28.644C59.3325 28.644 58.4505 28.494 57.6945 28.194C56.9505 27.894 56.3745 27.468 55.9665 26.916C55.5585 26.352 55.3545 25.692 55.3545 24.936C55.3545 24.216 55.5405 23.598 55.9125 23.082C56.2965 22.566 56.8485 22.17 57.5685 21.894C56.9925 21.618 56.5545 21.252 56.2545 20.796C55.9545 20.34 55.8045 19.8 55.8045 19.176C55.8045 18.48 55.9905 17.874 56.3625 17.358C56.7465 16.842 57.2805 16.446 57.9645 16.17C58.6485 15.894 59.4405 15.756 60.3405 15.756C61.2525 15.756 62.0505 15.894 62.7345 16.17C63.4305 16.446 63.9645 16.842 64.3365 17.358C64.7205 17.874 64.9125 18.48 64.9125 19.176C64.9125 19.788 64.7565 20.328 64.4445 20.796C64.1445 21.252 63.7065 21.618 63.1305 21.894ZM60.3405 17.214C59.4885 17.214 58.8165 17.4 58.3245 17.772C57.8325 18.132 57.5865 18.624 57.5865 19.248C57.5865 19.872 57.8265 20.364 58.3065 20.724C58.7985 21.084 59.4765 21.264 60.3405 21.264C61.2165 21.264 61.9005 21.084 62.3925 20.724C62.8965 20.364 63.1485 19.872 63.1485 19.248C63.1485 18.624 62.8905 18.132 62.3745 17.772C61.8705 17.4 61.1925 17.214 60.3405 17.214ZM60.3405 27.186C61.3365 27.186 62.1225 26.982 62.6985 26.574C63.2745 26.154 63.5625 25.59 63.5625 24.882C63.5625 24.186 63.2745 23.64 62.6985 23.244C62.1225 22.836 61.3365 22.632 60.3405 22.632C59.3445 22.632 58.5645 22.836 58.0005 23.244C57.4365 23.64 57.1545 24.186 57.1545 24.882C57.1545 25.59 57.4365 26.154 58.0005 26.574C58.5645 26.982 59.3445 27.186 60.3405 27.186Z" fill="white"/>
<path d="M5 1H85V-1H5V1ZM89 5V40H91V5H89ZM85 44H5V46H85V44ZM1 40V5H-1V40H1ZM5 44C2.79086 44 1 42.2091 1 40H-1C-1 43.3137 1.68629 46 5 46V44ZM89 40C89 42.2091 87.2091 44 85 44V46C88.3137 46 91 43.3137 91 40H89ZM85 1C87.2091 1 89 2.79086 89 5H91C91 1.68629 88.3137 -1 85 -1V1ZM5 -1C1.68629 -1 -1 1.68629 -1 5H1C1 2.79086 2.79086 1 5 1V-1Z" fill="#369CB7"/>
</svg>
